<svg id="Camada_1" data-name="Camada 1" xmlns="http://www.w3.org/2000/svg" viewBox="0 0 1080 1080"><defs><style>.cls-1{fill:#ec3b3a;}.w{fill:#ffffff;}</style></defs><path class="cls-1" d="M750.52,541.16c44.9-43.67,89.79-76.42,134.69-100.57-49.84-28.58-99.69-42.44-149.54-48.85,14.12-39,28.24-75.79,42.35-111.46A897.26,897.26,0,0,0,628,332c-23.37-41.26-46.73-83-70.1-129.2-19.45,38.42-38.91,80.28-58.36,123.67-40.37-25.82-80.74-56.48-121.11-91.1q1.2,109.15,2.41,209c-50.08,11.42-100.15,16.92-150.23,9.29,24.81,32.31,49.63,62.16,74.44,88.9-36.76,23.11-73.52,39.54-110.28,48.61C258.4,640.11,322,663,385.64,676.31q-15,83.81-30,157.8a1052.21,1052.21,0,0,0,93.77-48c10.48,30,21,60,31.44,91.07,34.15-44.3,68.3-96.43,102.45-151.6,59,22.72,117.93,53.93,176.9,91-7.61-51.32-15.22-101.2-22.84-149.24,34.65.36,69.3,4.05,103.95,12.79C811.05,630.43,780.78,583.09,750.52,541.16Z"/><path class="w" d="M760.53,553.74a13.26,13.26,0,0,0-.13,2.37c.33,2.41.84,4.79,1.14,7.2a25.39,25.39,0,0,1,.18,4.77c-.14,2-.54,3.9-.83,5.85a40,40,0,0,0-.12,7.26c0,1.21.07,2.43.07,3.64s0,2.26-.05,3.39a2.72,2.72,0,0,1-.15,1.12,2.69,2.69,0,0,0,0,2.19c.39,1.46,0,2.19-1.39,2.65a22.31,22.31,0,0,1-6.9,1.29c-2.82,0-5.57-.51-8.4-.44-3,.08-6.08-.23-9.1.18-1.62.22-3.14-.3-4.72-.3-1.27,0-2.55-.11-3.83-.2a12,12,0,0,1-1.34-.21c-.15,0-.29-.21-.41-.18-1.72.34-3.23-.62-4.87-.75s-2.07-.82-2.06-2.18c0-.52,0-1,0-1.57a36.83,36.83,0,0,0,.06-4.33,12.08,12.08,0,0,1,.1-3,7,7,0,0,0,0-3.8,1.12,1.12,0,0,1,0-.45c.28-2.9-.49-5.74-.54-8.61a61,61,0,0,1-.1-7,29.22,29.22,0,0,0-.16-4.76,120.69,120.69,0,0,1,0-12.76c0-1.06.27-2.11.33-3.17a9.35,9.35,0,0,0-.08-2.48c-.41-2-.25-4.05-.55-6.05a7.63,7.63,0,0,1,.81-3.74,6,6,0,0,0,.17-3.56,7.66,7.66,0,0,1-.14-3.16,10.16,10.16,0,0,0,0-3.16c-.23-1.5-.16-3-.33-4.55a14.56,14.56,0,0,1,.51-6.28,9.06,9.06,0,0,0,.09-3.85c-.16-1.28-.08-2.56-.24-3.83-.07-.6-.15-1.2-.25-1.79,0-.23-.22-.46-.18-.65.45-1.85-.13-3.63-.28-5.43a5.16,5.16,0,0,1,.08-1.36,3.18,3.18,0,0,0-.13-2,1.75,1.75,0,0,1,0-1.31,2.35,2.35,0,0,0,0-1.34c-.64-1.72-.3-3.46-.23-5.2a4.11,4.11,0,0,1,.35-1.31,1.88,1.88,0,0,1,2.95-.95,7.42,7.42,0,0,1,.94.84c2-.17,4-.43,6-.51,2.73-.09,5.48,0,8.22-.06a14.24,14.24,0,0,0,1.6,0,16,16,0,0,1,3.59-.42,27.44,27.44,0,0,0,3.39,0c1.67,0,3.34,0,5,.17a6.46,6.46,0,0,0,2.48-.07,1.74,1.74,0,0,1,.68-.05,38.21,38.21,0,0,0,4.51.35c2.34-.11,4.72.32,7-.36a10.29,10.29,0,0,1,3.63.09,8.59,8.59,0,0,0,2.48.06,2.36,2.36,0,0,1,1.12,0,4.77,4.77,0,0,0,2.7,0,5.78,5.78,0,0,1,1.56-.1c2,.06,3.93.41,5.9,0a5,5,0,0,1,1.13.12c1.06.06,2.12.09,3.18.16.6.05,1.2.15,1.8.22s1.05.08,1.57.11.88,0,1.31.09a4.56,4.56,0,0,0,1.34.17,10.1,10.1,0,0,1,3.38.31c1.28.16,2.56.33,3.82.58a27,27,0,0,1,2.62.76,17.27,17.27,0,0,1,8.29,5.7,47.34,47.34,0,0,0,4.74,4.87,32.53,32.53,0,0,1,3.34,4,1,1,0,0,1,.24.62,8.88,8.88,0,0,0,.92,3,58,58,0,0,1,1.57,5.67,33.15,33.15,0,0,1,.34,6.59,15.55,15.55,0,0,1-.66,3.77,12.39,12.39,0,0,1-1.18,3.42,10.81,10.81,0,0,0-.72,1.92,10.76,10.76,0,0,1-1.27,2.65,26.56,26.56,0,0,0-1.68,3.22c-.17.34-.28.79-.56,1a10.51,10.51,0,0,0-2.73,3,5.17,5.17,0,0,1-1.83,1.32c-1.66.92-3.32,1.82-5,2.79-1.22.73-2.36,1.58-3.59,2.35,3.36,2,6.59,3.87,9.68,5.91a9.44,9.44,0,0,1,3.78,4.42c.64,1.62,1.55,3.11,1.66,4.9a1.76,1.76,0,0,0,.28.87,6,6,0,0,1,.74,4.17,6.2,6.2,0,0,0,.28,2.22A14.38,14.38,0,0,1,818,564c.09,1.81.07,3.64.09,5.46a4.27,4.27,0,0,0,0,1.13c.56,2,.18,3.92.17,5.89,0,.3-.17.62-.11.9.47,2,.11,4.08.28,6.11a7,7,0,0,0,2,4.47,27.1,27.1,0,0,0,3,2.48c1.44,1.07,1.47,1.08.87,3a4.64,4.64,0,0,1-3.49.54c-1,1-2.24.59-3.43.48a18,18,0,0,0-2.94,0c-1.36.1-2.71.3-4.07.44a2.22,2.22,0,0,1-.68,0c-2-.37-4.07,0-6.11,0a14.59,14.59,0,0,1-2.91-.47,11.1,11.1,0,0,0-4.51-.32c-1.38.27-2.66-.42-4-.29-2,.18-4.09.23-6.13.32a5,5,0,0,0-2.55.87,2.54,2.54,0,0,1-2.36.17,4.84,4.84,0,0,1-3.52-4.32c-.14-.89-.12-1.82-.18-2.73s-.12-2-.2-3c0-.3-.21-.61-.17-.89.41-3-.42-6-.25-9a32.6,32.6,0,0,0-.24-5.92c-.17-1.49-.73-2.93-1-4.41a61.94,61.94,0,0,0-1.84-6.56,6.06,6.06,0,0,0-3.06-3.78c-1.14-.57-2.16-1.41-3.55-1.33a1.89,1.89,0,0,1-.88-.25,4.24,4.24,0,0,0-4.53.29A11,11,0,0,1,760.53,553.74Zm1.23-26.56a31.34,31.34,0,0,1,4.14-.69,18.74,18.74,0,0,0,3.58-.52,10.26,10.26,0,0,0,6-3.29,6.76,6.76,0,0,0,1.64-2.9c.24-1.11.33-2.24.46-3.37a1.94,1.94,0,0,0-.11-.66c-.14-.59-.25-1.18-.43-1.76a34.25,34.25,0,0,0-1.53-4.48c-.89-1.85-2.28-3.2-4.58-3.17-.68,0-1.36-.2-2-.17a30.82,30.82,0,0,1-6.58-.2c-.32-.05-.7.21-1.1.34a51,51,0,0,0-.52,7.27c0,1.6.12,3.19.09,4.78s.39,3.29.12,5a17.24,17.24,0,0,0-.07,2A1.83,1.83,0,0,0,761.76,527.18Z"/><path class="w" d="M397.89,400.63c1.64,1.83,1.87,4.07,1.91,6.37a7.58,7.58,0,0,0,0,1.58,30.46,30.46,0,0,1,.35,9.9c-.21,2.51-1,4.91-1,7.44a17.37,17.37,0,0,1-.86,3.52,32.71,32.71,0,0,1-1.68,5.68,38.44,38.44,0,0,1-2.64,5,11.64,11.64,0,0,1-3.87,3.48c-1.29.78-2.69,1.39-4,2.08a3.17,3.17,0,0,0-.79.43c-1.72,1.52-3.87,2.37-5.7,3.72a1.51,1.51,0,0,1-.62.28c-2.18.3-4.18,1.29-6.42,1.44a13,13,0,0,0-5.63,1.48,6.12,6.12,0,0,1-2.15.71c-2.27.27-4.54.44-6.81.64-2,.16-3.9.35-5.85.67a12.52,12.52,0,0,1-6.53-.34c-1.56-.57-3.2-.89-4.8-1.36-.65-.19-1.28-.47-1.92-.72a5.86,5.86,0,0,0-1.25-.53c-2.11-.3-3.74-1.63-5.6-2.47a7.29,7.29,0,0,1-1.11-.76c-.3-.22-.59-.48-.91-.68-2.56-1.63-5.13-3.23-7.69-4.86a45.71,45.71,0,0,1-4.73-3.15,19.82,19.82,0,0,1-2.72-3.34c-.27-.36-.38-.84-.67-1.18a19.65,19.65,0,0,1-3.76-8.19,13.66,13.66,0,0,0-.77-2.14c-.3-.7-.67-1.36-1-2.06a14.82,14.82,0,0,0-1.64-3.49,3.42,3.42,0,0,1-.51-1.26,8.15,8.15,0,0,0-1-3,1.44,1.44,0,0,1-.19-.88c.08-1.67-.78-3.23-.58-4.93a4.85,4.85,0,0,0-.17-1.35c-.25-1.35-.46-2.7-.77-4a20,20,0,0,0-.84-2.59,7.35,7.35,0,0,1-.47-2.64c0-1.87.14-3.8-.76-5.56a1.35,1.35,0,0,1-.25-.85c.51-2.08-.42-4.2.17-6.27a18.6,18.6,0,0,1,.32-5.86,7.22,7.22,0,0,1,.31-1.55,5.86,5.86,0,0,0,.25-3.15,7.26,7.26,0,0,1,0-2,10.65,10.65,0,0,1,1.82-5.09,3.12,3.12,0,0,0,.55-1.69,13.45,13.45,0,0,1,1.23-4.82,22.61,22.61,0,0,0,1.7-5.65,6.06,6.06,0,0,1,1-3,2,2,0,0,0,.34-.83,19.88,19.88,0,0,1,2.49-5.84,10.69,10.69,0,0,1,3.44-3.61c.91-.66,1.84-1.31,2.76-1.95a7,7,0,0,1,1.33-.89,13,13,0,0,0,3.58-2.77,16.25,16.25,0,0,1,7.45-4.07c2.23-.44,4.49-.77,6.73-1.15.45-.08.89-.17,1.33-.29a32.67,32.67,0,0,1,4.16-1.09c1.58-.19,3.08-.65,4.62-1a12.47,12.47,0,0,1,2.93-.22c1.21,0,2.42.14,3.62.24a15.1,15.1,0,0,1,2.71.32,23.27,23.27,0,0,0,5.63.75c1.28,0,2.56.33,3.83.49a28.22,28.22,0,0,1,2.93.32,80.64,80.64,0,0,1,9.86,2.66,30,30,0,0,1,4.94,2.81c1.35.8,2.64,1.69,4,2.41a15.7,15.7,0,0,1,5.62,4.88,7,7,0,0,0,1,1.23,14.31,14.31,0,0,1,4,6.22,27.17,27.17,0,0,1,1.42,4.31c.4,2.23.62,4.49,1,6.73a2.32,2.32,0,0,1,.06.45q-.07,3.78-.16,7.54a3.2,3.2,0,0,1-.19,1.11,2.05,2.05,0,0,0,.16,2,4.21,4.21,0,0,1,.37,1.28c.19,1,.35,1.93.49,2.91a2.76,2.76,0,0,1-2.51,2.95,14.18,14.18,0,0,1-1.59-.12,25.31,25.31,0,0,0-2.73-.22,35.21,35.21,0,0,1-6.8-.73c-1.35-.22-2.71-.33-4.07-.48a5.09,5.09,0,0,1-.68,0c-2.43-.83-4.93-.6-7.43-.6a38.05,38.05,0,0,0-5.65.4c-.82.13-1.63.36-2.44.55a2.59,2.59,0,0,1-3.22-1.76,2.39,2.39,0,0,1-.09-.45,22.68,22.68,0,0,1,.12-6.58c.21-.88.44-1.76.6-2.66a4.76,4.76,0,0,0,0-1.36c-.18-1.5-.41-3-.44-4.52a3.49,3.49,0,0,0-1.67-2.61,1,1,0,0,0-.62-.23c-1.2.17-2.39-.27-3.62.11a12.67,12.67,0,0,1-3.15.3,4.14,4.14,0,0,0-3.66,2.65c-.07.13-.08.29-.14.43a9.43,9.43,0,0,0-1.24,4.75c.13,1.64-.34,3.29-.16,5a60,60,0,0,1,.09,6.15,4,4,0,0,1-.23.87,17.37,17.37,0,0,0-.33,3.81c-.06,2.6.67,5.15.49,7.7-.15,2.2.18,4.41-.29,6.58a8.91,8.91,0,0,0,0,1.36c-.07,1.82.2,3.62.07,5.46a15.4,15.4,0,0,0,.82,4.93,8.65,8.65,0,0,1,.41,2.43c0,3.19,1.12,6.1,2.28,9a2.71,2.71,0,0,0,2.48,1.76,12,12,0,0,0,3.85-.15,22.69,22.69,0,0,0,4-2.07.38.38,0,0,0,.15-.16c.75-2,2.51-3.69,2.11-6.11a.85.85,0,0,1,0-.22,21.47,21.47,0,0,0-1.37-8.94,3.75,3.75,0,0,1-.16-1.12c-.09-1.41.87-2.47,2.2-2.14a7.82,7.82,0,0,0,4-.13,6.6,6.6,0,0,1,2.47.2,11.25,11.25,0,0,0,3.17-.07,28.51,28.51,0,0,1,4.53-.12,5.32,5.32,0,0,0,2.42-.45,22.65,22.65,0,0,1,12.53-1.34C396.43,400.59,397,400.58,397.89,400.63Z"/><path class="w" d="M454.59,594.15c-2.1-1.31-2.63-3.09-3-5-.41-2.23-.47-4.55-1.78-6.68a2.27,2.27,0,0,0-1.83-.11,8.21,8.21,0,0,1-4.06.17,1.45,1.45,0,0,0-.67-.09,13.48,13.48,0,0,1-4.52.26c-2.35,0-4.7,0-7.06,0-.38,0-.76,0-1.14,0a1.17,1.17,0,0,0-1.22,1.33c0,.31,0,.61.06.91s.17.65.07.91c-.67,1.76-.3,3.62-.6,5.41a11.86,11.86,0,0,1-.77,2.61,3.91,3.91,0,0,1-4,1.87c-1.73-.56-3.44-1.18-5.39-1.85-2.67,0-5.61-.07-8.56-.08a20.52,20.52,0,0,0-2.48.17c-1.58.19-3.15.47-4.72.63a27.54,27.54,0,0,1-5.21.41,4.42,4.42,0,0,0-1.55.28,3,3,0,0,1-3.58-1.15c-.32-.43-.6-.89-.88-1.34a2.94,2.94,0,0,1-.25-3,6.14,6.14,0,0,0,.54-2.87,13.54,13.54,0,0,1,.46-3.14c.37-1.64.82-3.25,1.23-4.87.28-1.1.58-2.2.82-3.3A18.59,18.59,0,0,1,395.9,571c.83-1.6.6-3.4.7-5.12.17-2.94.36-5.89.69-8.82a7.75,7.75,0,0,1,1.26-3.62,9.83,9.83,0,0,0,1.34-3.62,8.6,8.6,0,0,1,.4-1.53c1.29-3.17,2-6.5,3.24-9.7.58-1.55,1.1-3.11,1.77-4.63a22.22,22.22,0,0,0,.95-4.21,11.09,11.09,0,0,1,.45-1.52c.61-1.64,1.26-3.26,1.88-4.89a4.6,4.6,0,0,0,.4-1.31c.07-2.8,1.35-5.28,2-7.93.53-2.21,1-4.44,1.44-6.67.11-.51.22-1,.35-1.55.31-1.33,1.05-2.55,1-4s.49-2.65.38-4a7.62,7.62,0,0,1,.61-3.57,10.21,10.21,0,0,0,.89-4.41,3.6,3.6,0,0,1,.73-2.34,9.09,9.09,0,0,0,1.57-4.88c.12-1.43.45-2.84.67-4.16l1.4-1.19,4.58-.45c1.95-.19,3.86-.91,5.86-.47,2.53-.74,5.12,0,7.66-.26,1.91.74,3.88-.25,5.85.25,1,.26,2.25-.18,3.38-.24a87.11,87.11,0,0,0,10.46-.86,6.14,6.14,0,0,1,1.79.17,12.12,12.12,0,0,0,4.95.3,2.58,2.58,0,0,1,3,1,2.05,2.05,0,0,1,.32,1.93,3,3,0,0,0-.15,1.32c.24,1.88.54,3.76.8,5.64.13,1,.19,1.93.34,2.89a14,14,0,0,0,.61,2.65c.46,1.19,1.07,2.33,1.62,3.49a5.37,5.37,0,0,1,.58,1.21,7,7,0,0,0,.78,1.85,13.24,13.24,0,0,1,1,3.23c.54,2.82,1.18,5.63,1.45,8.52a24.36,24.36,0,0,0,1.69,6.61c.76,2,1.26,4,2,6a43.1,43.1,0,0,0,1.85,4.64,54.82,54.82,0,0,1,2.31,6.19c.24.71.55,1.41.79,2.12a12,12,0,0,1,.34,1.31c.16.66.31,1.32.46,2a34.89,34.89,0,0,1,1.15,4.36,24,24,0,0,0,1,3.72,11.53,11.53,0,0,1,.52,2.22,15.11,15.11,0,0,0,2.09,6.22,6.5,6.5,0,0,1,.91,3.22,18.56,18.56,0,0,0,.77,3.77,9.69,9.69,0,0,1,.48,3.59,5.23,5.23,0,0,0,.22,1.55c0,.22.22.43.23.64.07,3.58,2,6.64,2.74,10,1.14,2.14,1.29,4.48,1.52,6.82a12.73,12.73,0,0,0,.74,4,9.1,9.1,0,0,1,.35,2,2.27,2.27,0,0,1-1.48,2.89,5.1,5.1,0,0,1-2,.41,26,26,0,0,0-6.35.14c-1.66-.51-3.3,0-4.94.14a10.61,10.61,0,0,0-1.13.17,15,15,0,0,1-6.56.31,1.31,1.31,0,0,0-.68,0c-1.68.41-3.31-.09-5-.2a50.36,50.36,0,0,0-8.6-.33C458.43,594.3,456.44,594.15,454.59,594.15ZM439.86,522c-.24.19-.33.22-.35.28-.53,1.73-.64,3.59-1.56,5.22-.14.24-.06.6-.14.89-.53,2.2-.28,4.5-.87,6.71a30.52,30.52,0,0,0-.7,4.26c-.29,2.41-.63,4.82-.69,7.24a20.4,20.4,0,0,1-.18,2.93,21.08,21.08,0,0,0-.11,2.85c3.9.53,7.61.62,9.45.2-.15-1.63-.22-3.29-.47-4.92s-.73-3.26-1-4.91-.33-3.17-.49-4.75a19.17,19.17,0,0,1-.27-2.25,42.05,42.05,0,0,0-1-7.67c-.19-1-.35-2.08-.49-3.13A4.42,4.42,0,0,0,439.86,522Z"/><path class="w" d="M566.83,729.55c-2.1-1.31-2.64-3.1-3-5-.41-2.23-.47-4.55-1.78-6.69a2.28,2.28,0,0,0-1.83-.1,8.21,8.21,0,0,1-4.06.16,1.45,1.45,0,0,0-.67-.08,13.23,13.23,0,0,1-4.52.25c-2.36,0-4.71,0-7.06,0-.38,0-.76,0-1.14,0a1.18,1.18,0,0,0-1.22,1.34c0,.3,0,.61.06.91s.17.65.07.9c-.67,1.77-.3,3.63-.6,5.42a11.86,11.86,0,0,1-.77,2.61,3.9,3.9,0,0,1-4.05,1.86c-1.73-.55-3.44-1.17-5.39-1.84-2.67,0-5.62-.07-8.56-.08a20.83,20.83,0,0,0-2.49.17c-1.57.19-3.14.47-4.72.63a26.63,26.63,0,0,1-5.2.4,4.76,4.76,0,0,0-1.56.28,3,3,0,0,1-3.58-1.14c-.31-.43-.59-.89-.87-1.34a3,3,0,0,1-.25-3,6.18,6.18,0,0,0,.53-2.87,14,14,0,0,1,.47-3.14c.36-1.64.81-3.25,1.23-4.87.28-1.1.58-2.2.82-3.3a18.16,18.16,0,0,1,1.43-4.54c.83-1.61.6-3.4.7-5.12.17-2.94.36-5.89.69-8.82a7.64,7.64,0,0,1,1.26-3.62,9.9,9.9,0,0,0,1.34-3.62,8.93,8.93,0,0,1,.4-1.54c1.28-3.16,2.05-6.49,3.24-9.69.58-1.55,1.1-3.11,1.77-4.63a22.4,22.4,0,0,0,1-4.21,11.62,11.62,0,0,1,.44-1.53c.62-1.63,1.26-3.25,1.88-4.88a4,4,0,0,0,.4-1.31c.07-2.8,1.36-5.28,2-7.93.53-2.21,1-4.44,1.44-6.67.11-.52.22-1,.34-1.55.32-1.33,1.06-2.55,1-4s.49-2.65.39-4.06a7.57,7.57,0,0,1,.6-3.56,10.11,10.11,0,0,0,.9-4.41,3.61,3.61,0,0,1,.72-2.35,9,9,0,0,0,1.58-4.87c.12-1.43.45-2.84.67-4.17l1.4-1.18,4.58-.45c2-.19,3.86-.91,5.86-.47,2.53-.74,5.11,0,7.66-.27,1.91.75,3.88-.24,5.84.26,1.05.26,2.25-.19,3.39-.24a87.28,87.28,0,0,0,10.46-.86,5.73,5.73,0,0,1,1.78.17c1.64.26,3.24.71,5,.3a2.57,2.57,0,0,1,3,1,2,2,0,0,1,.33,1.93,3,3,0,0,0-.15,1.32c.24,1.88.54,3.76.8,5.64.13,1,.18,1.93.34,2.88a13.79,13.79,0,0,0,.61,2.65c.46,1.2,1.07,2.34,1.62,3.5a5.47,5.47,0,0,1,.57,1.2,7.63,7.63,0,0,0,.78,1.86,12.48,12.48,0,0,1,1,3.22c.55,2.83,1.19,5.64,1.46,8.53a24.9,24.9,0,0,0,1.68,6.61c.77,2,1.27,4,2,6a45.34,45.34,0,0,0,1.86,4.64,54.82,54.82,0,0,1,2.31,6.19c.24.71.55,1.41.79,2.12a12,12,0,0,1,.34,1.31c.16.66.31,1.32.46,2a36.71,36.71,0,0,1,1.15,4.36,22.89,22.89,0,0,0,1,3.72,12.42,12.42,0,0,1,.52,2.21,15.1,15.1,0,0,0,2.09,6.23,6.5,6.5,0,0,1,.91,3.21,18.66,18.66,0,0,0,.77,3.78,9.66,9.66,0,0,1,.48,3.59,4.92,4.92,0,0,0,.22,1.55c0,.22.22.43.23.64.07,3.58,2,6.64,2.74,10.05,1.14,2.14,1.29,4.47,1.52,6.82a12.39,12.39,0,0,0,.74,4,9.3,9.3,0,0,1,.35,2,2.27,2.27,0,0,1-1.48,2.89,5.33,5.33,0,0,1-2,.41,26.46,26.46,0,0,0-6.35.13c-1.67-.51-3.3,0-5,.15a10.82,10.82,0,0,0-1.12.17,15.14,15.14,0,0,1-6.56.31,1.42,1.42,0,0,0-.68,0c-1.68.42-3.31-.08-5-.2a51.4,51.4,0,0,0-8.6-.32C570.67,729.7,568.68,729.55,566.83,729.55ZM552.1,657.36c-.24.19-.34.23-.35.29-.54,1.73-.64,3.59-1.56,5.21-.14.25-.07.61-.14.9-.54,2.2-.29,4.5-.87,6.71a30.54,30.54,0,0,0-.71,4.26c-.28,2.41-.62,4.82-.68,7.24a22,22,0,0,1-.18,2.93,19.49,19.49,0,0,0-.11,2.84A32.23,32.23,0,0,0,557,688c-.15-1.63-.23-3.29-.47-4.92s-.73-3.26-1-4.91-.33-3.17-.5-4.76a19,19,0,0,1-.26-2.24,41.21,41.21,0,0,0-1-7.67c-.18-1-.34-2.09-.48-3.14A4.51,4.51,0,0,0,552.1,657.36Z"/><path class="w" d="M367.29,733.11c-2.1-1.31-2.63-3.09-3-5-.4-2.23-.46-4.56-1.78-6.69a2.27,2.27,0,0,0-1.83-.11,8.17,8.17,0,0,1-4.05.17,1.33,1.33,0,0,0-.67-.08,13.79,13.79,0,0,1-4.53.25c-2.35,0-4.7,0-7.05,0-.38,0-.76,0-1.14,0A1.17,1.17,0,0,0,342,723a6.84,6.84,0,0,0,.06.91c0,.31.16.65.07.91-.67,1.76-.31,3.62-.6,5.41a11.6,11.6,0,0,1-.78,2.62,3.91,3.91,0,0,1-4,1.86c-1.73-.56-3.44-1.18-5.39-1.85-2.67,0-5.62-.07-8.57-.08a20.66,20.66,0,0,0-2.48.17c-1.58.19-3.14.47-4.72.63a27.47,27.47,0,0,1-5.21.41,4.5,4.5,0,0,0-1.55.28,3,3,0,0,1-3.58-1.15c-.31-.43-.59-.89-.87-1.34a2.91,2.91,0,0,1-.26-3,6.2,6.2,0,0,0,.54-2.88,13.54,13.54,0,0,1,.46-3.14c.37-1.63.82-3.25,1.23-4.87.28-1.1.58-2.19.83-3.3a17.76,17.76,0,0,1,1.43-4.54c.83-1.6.59-3.39.69-5.11.17-2.95.37-5.9.69-8.83a7.69,7.69,0,0,1,1.27-3.62,9.81,9.81,0,0,0,1.33-3.62,9.82,9.82,0,0,1,.4-1.53c1.29-3.16,2.05-6.5,3.24-9.7.58-1.55,1.11-3.11,1.78-4.63a23.88,23.88,0,0,0,.95-4.21,10.14,10.14,0,0,1,.44-1.52c.61-1.64,1.26-3.26,1.88-4.89a4.3,4.3,0,0,0,.4-1.31c.07-2.79,1.35-5.28,2-7.93.52-2.21,1-4.44,1.44-6.66.11-.52.22-1,.34-1.56.31-1.32,1.06-2.55,1-4s.49-2.64.38-4a7.64,7.64,0,0,1,.61-3.57,10,10,0,0,0,.9-4.41,3.6,3.6,0,0,1,.72-2.34,9.19,9.19,0,0,0,1.58-4.88c.11-1.43.44-2.84.67-4.16l1.4-1.19,4.58-.45c2-.19,3.85-.91,5.85-.47,2.53-.73,5.12,0,7.67-.26,1.9.75,3.88-.24,5.84.25,1,.26,2.25-.18,3.38-.24a89.55,89.55,0,0,0,10.47-.85,5.71,5.71,0,0,1,1.78.16,12.17,12.17,0,0,0,5,.3,2.58,2.58,0,0,1,3,1,2,2,0,0,1,.32,1.93,2.81,2.81,0,0,0-.14,1.32c.23,1.88.54,3.76.8,5.64.13,1,.18,1.93.34,2.89a13.22,13.22,0,0,0,.6,2.65c.46,1.19,1.08,2.33,1.63,3.49a5.54,5.54,0,0,1,.57,1.21,7.73,7.73,0,0,0,.78,1.85,12.55,12.55,0,0,1,1,3.23,84.18,84.18,0,0,1,1.45,8.52,24.9,24.9,0,0,0,1.69,6.62c.76,2,1.26,4,2,6a45.34,45.34,0,0,0,1.86,4.64,54.76,54.76,0,0,1,2.3,6.19c.25.72.55,1.41.8,2.12.14.43.23.87.34,1.31.15.66.31,1.33.46,2a36.85,36.85,0,0,1,1.14,4.37,22.82,22.82,0,0,0,1,3.71,12.33,12.33,0,0,1,.52,2.22,15,15,0,0,0,2.08,6.22,6.54,6.54,0,0,1,.92,3.22,17.3,17.3,0,0,0,.77,3.77,9.9,9.9,0,0,1,.48,3.59,5,5,0,0,0,.21,1.56c0,.21.23.42.23.63.07,3.58,2.05,6.64,2.74,10,1.15,2.14,1.3,4.48,1.52,6.83a13,13,0,0,0,.74,4,9.1,9.1,0,0,1,.36,2,2.28,2.28,0,0,1-1.49,2.89,4.91,4.91,0,0,1-2,.41A26.45,26.45,0,0,0,400,733c-1.67-.51-3.3,0-5,.15a8.39,8.39,0,0,0-1.12.16,15,15,0,0,1-6.56.31,1.42,1.42,0,0,0-.68,0c-1.68.41-3.32-.09-5-.2a51.44,51.44,0,0,0-8.6-.33C371.13,733.27,369.14,733.11,367.29,733.11Zm-14.73-72.18c-.24.19-.33.22-.35.28-.53,1.73-.63,3.59-1.56,5.22-.14.24-.06.6-.13.89-.54,2.21-.29,4.5-.87,6.71a30.54,30.54,0,0,0-.71,4.26c-.29,2.41-.62,4.82-.69,7.24a20.4,20.4,0,0,1-.17,2.93,21.11,21.11,0,0,0-.12,2.85c3.9.53,7.62.62,9.45.2-.14-1.63-.22-3.29-.47-4.92s-.73-3.26-1-4.91-.33-3.17-.5-4.75a19.17,19.17,0,0,1-.27-2.25,41.09,41.09,0,0,0-1-7.66c-.18-1-.34-2.09-.49-3.14A4.37,4.37,0,0,0,352.56,660.93Z"/><path class="w" d="M350,564a39.8,39.8,0,0,0,4.34.66,61.53,61.53,0,0,0,6.37,0,10.66,10.66,0,0,1,2.71-.16c.21,0,.45-.08.67-.08,1.38,0,2.63-.72,4-.66s2.73.11,4.09.21a17,17,0,0,1,2.24.32,11.62,11.62,0,0,0,4.27.41,4.63,4.63,0,0,1,.91,0,20,20,0,0,0,5.4-.46,3.62,3.62,0,0,1,1.57,0c2.21.52,2.79,1.19,2.68,3.51a43.66,43.66,0,0,1-.72,4.49c-.26,1.58-.48,3.16-.75,4.73a16.88,16.88,0,0,0,.64,6.74c.09.37.17.74.29,1.1a18.37,18.37,0,0,1,.53,7c-.07,1.42-1,2.32-2.2,3.37-2.37.13-4.94.43-7.5.37-1.82,0-3.59.25-5.37.28-1.95,0-3.93.56-5.87-.16a3.1,3.1,0,0,0-1.14-.09c-2.66,0-5.33,0-8,.14-2.41.12-4.82.44-7.23.67a4.49,4.49,0,0,1-1.36.08,8.61,8.61,0,0,0-3.12,0,22.54,22.54,0,0,1-3.84-.14,65.76,65.76,0,0,1-8.17-.61,34.5,34.5,0,0,0-4.32-.06,27.45,27.45,0,0,1-7.19-1.13,16.08,16.08,0,0,0-5.62-.68,46.87,46.87,0,0,1-6.15-.19,5.88,5.88,0,0,0-3.06.71,8.19,8.19,0,0,1-2.11.8,2,2,0,0,1-2.19-.9,1.92,1.92,0,0,1,0-2.35,3.27,3.27,0,0,0,.58-2.35,20.83,20.83,0,0,1,.37-4.5,16,16,0,0,0,.16-5.9,43.74,43.74,0,0,1-.5-5,31,31,0,0,0-1.23-7.36,4.67,4.67,0,0,1-.27-2.69.87.87,0,0,0,0-.45c-.54-2.41,0-4.86-.2-7.28a5.48,5.48,0,0,1,.25-2,27.5,27.5,0,0,0,1-6.26c.1-2.35.46-4.69.67-7a62.57,62.57,0,0,0,.1-8.66c-.07-1.44-.16-2.88-.32-4.31-.29-2.65-.07-5.3-.1-8,0-.76-.11-1.52-.07-2.27a17.24,17.24,0,0,0-.66-6.27c.42-2.56-.25-5.12.05-7.71a23.12,23.12,0,0,0-.31-5.92,27.79,27.79,0,0,1-.2-6.37c.14-1.66.15-3.33.25-5a26.12,26.12,0,0,0,0-3.19c-.07-1,.38-1.89.23-2.93a2.51,2.51,0,0,1,2.6-2.56.81.81,0,0,1,.22,0c3.11.63,6.18-.09,9.26-.33a20,20,0,0,1,6.31.25,5.49,5.49,0,0,0,1.81,0c2.05-.24,4.09-.51,6.07.37.29.13.72-.07,1.08-.1a4.63,4.63,0,0,1,1.56-.1c1.6.42,3.17-.19,4.75,0s3.18.31,4.77.39c1.13,0,2.28-.12,3.4,0a7.37,7.37,0,0,1,2.4.65,3,3,0,0,1,2,3.29,70.8,70.8,0,0,0-.07,9.77,33.13,33.13,0,0,1-.48,7,25.41,25.41,0,0,0-.55,7.45,14,14,0,0,1-.09,2.74c-.23,2.65.33,5.32-.18,8a23.65,23.65,0,0,1,.05,5.45,1,1,0,0,0,0,.45c1,1.69.34,3.57.64,5.34a4.28,4.28,0,0,1,0,1.13,4.21,4.21,0,0,0,.55,3.27,2.46,2.46,0,0,1,.34,1.31c.14,2.72.39,5.42.26,8.15-.08,1.89.12,3.78.06,5.67-.07,2.87.36,5.77-.37,8.62-.24.95-.17,2-.35,2.94a22,22,0,0,1-.74,2.87C349.76,563,349.63,563.57,350,564Z"/><path class="w" d="M515.05,401.67c.08-1.14.15-2.28.23-3.41a10.07,10.07,0,0,0,.09-1.81,62.28,62.28,0,0,1,.11-8.42,3.65,3.65,0,0,0-.79-2.7c-1.12-1.37-.75-2.7.71-3.69a4.41,4.41,0,0,1,2.38-.67,27.89,27.89,0,0,0,4.76-.41,31.69,31.69,0,0,1,6.37-.42c1.51,0,3,0,4.54-.11a27.44,27.44,0,0,1,5.87.06,21.94,21.94,0,0,0,3.62,0c1.66,0,3.32-.06,5,0,2,0,3.94.12,5.92.12a16.59,16.59,0,0,1,6,.93,4.9,4.9,0,0,0,4.38-.47,6.56,6.56,0,0,1,3.54-.59c1.14,0,2.09,1.31,2.16,2.82.06,1.22,0,2.44,0,3.65a23.29,23.29,0,0,1-.16,4.1c-.34,1.69,0,3.32.08,5a21.23,21.23,0,0,0,.34,2.47,10.41,10.41,0,0,1,.16,1.12c.12,2,.21,3.92.33,5.89a2.73,2.73,0,0,1-1,2.63,3.6,3.6,0,0,1-2.56.61c-2-.19-4.08-.55-6,.37a2.28,2.28,0,0,1-.87,0,11.77,11.77,0,0,0-1.57,0,57.51,57.51,0,0,1-6.82.25c-2.65,0-5.31.06-8,.05-.76,0-1.51-.09-2.27-.16-.45,0-.94-.27-1.34-.15-1.18.36-2.27-.12-3.34-.35a7.2,7.2,0,0,0-2.69-.19,2.53,2.53,0,0,1-.91,0c-2.14-.48-4.24,0-6.35.2a28.56,28.56,0,0,1-6.6.13,11.32,11.32,0,0,1-4-1.58,2.75,2.75,0,0,1-1.41-2.68c0-.84,0-1.68,0-2.51Z"/><path class="w" d="M825,544.75c.08-1.13.15-2.27.23-3.41a10,10,0,0,0,.09-1.81,62.11,62.11,0,0,1,.11-8.41,3.67,3.67,0,0,0-.79-2.71c-1.12-1.36-.75-2.69.71-3.69a4.4,4.4,0,0,1,2.38-.66,26.92,26.92,0,0,0,4.76-.42,32.44,32.44,0,0,1,6.37-.42c1.51,0,3,0,4.54-.1a28.1,28.1,0,0,1,5.87,0,20.89,20.89,0,0,0,3.62,0c1.66,0,3.32-.06,5,0,2,0,3.94.12,5.92.13a16.59,16.59,0,0,1,6,.93,4.94,4.94,0,0,0,4.38-.48,6.55,6.55,0,0,1,3.54-.58c1.14,0,2.09,1.3,2.16,2.82.06,1.21,0,2.43,0,3.65a23.14,23.14,0,0,1-.16,4.09c-.34,1.7,0,3.33.08,5a20.65,20.65,0,0,0,.34,2.47,11.18,11.18,0,0,1,.16,1.12c.12,2,.21,3.93.33,5.89a2.74,2.74,0,0,1-1,2.64,3.55,3.55,0,0,1-2.56.6c-2-.18-4.08-.54-6,.37a2.1,2.1,0,0,1-.87,0,13.7,13.7,0,0,0-1.57,0,57.51,57.51,0,0,1-6.82.25c-2.65,0-5.31,0-8,0-.76,0-1.51-.09-2.27-.16a3.73,3.73,0,0,0-1.34-.15c-1.18.36-2.27-.13-3.34-.35a7,7,0,0,0-2.69-.19,2.53,2.53,0,0,1-.91,0c-2.14-.47-4.24,0-6.35.21a29.13,29.13,0,0,1-6.6.12,11.14,11.14,0,0,1-4-1.58,2.73,2.73,0,0,1-1.41-2.67c0-.84,0-1.68,0-2.52Z"/><path class="w" d="M465.8,655.59a22.32,22.32,0,0,0-.12,6.58,1.64,1.64,0,0,0,.09.44,2.59,2.59,0,0,0,3.22,1.77c.81-.19,1.62-.42,2.44-.55a36.71,36.71,0,0,1,5.64-.4c2.5,0,5-.23,7.44.59a3.78,3.78,0,0,0,.68,0c1.35.15,2.72.26,4.06.48a35.38,35.38,0,0,0,6.8.73,23.16,23.16,0,0,1,2.74.22c.53,0,1.06.13,1.59.12a2.77,2.77,0,0,0,2.51-3c-.14-1-.31-1.95-.49-2.92a4.15,4.15,0,0,0-.37-1.27,2.07,2.07,0,0,1-.16-2,3.12,3.12,0,0,0,.19-1.11q.09-3.76.16-7.53a2.32,2.32,0,0,0-.06-.45c-.39-2.24-.61-4.5-1-6.74a28.11,28.11,0,0,0-1.42-4.3,14.31,14.31,0,0,0-4-6.22,7,7,0,0,1-1-1.23,15.82,15.82,0,0,0-5.62-4.89c-1.41-.72-2.7-1.6-4.05-2.4a29.3,29.3,0,0,0-4.94-2.81,82.53,82.53,0,0,0-9.86-2.67c-1-.21-2-.19-2.93-.31-1.28-.16-2.55-.45-3.83-.49a23.78,23.78,0,0,1-5.63-.76,14.24,14.24,0,0,0-2.71-.31c-1.21-.11-2.41-.23-3.62-.25a13.73,13.73,0,0,0-2.94.22c-1.53.33-3,.8-4.61,1a32.67,32.67,0,0,0-4.16,1.09c-.44.11-.89.21-1.33.28-2.24.39-4.5.71-6.73,1.16a16.27,16.27,0,0,0-7.45,4.06,12.82,12.82,0,0,1-3.58,2.78,7.13,7.13,0,0,0-1.33.88c-.92.65-1.85,1.3-2.76,2a10.7,10.7,0,0,0-3.45,3.6,20.67,20.67,0,0,0-2.49,5.84,2,2,0,0,1-.33.84,6.06,6.06,0,0,0-1,3,23,23,0,0,1-1.7,5.64,13.5,13.5,0,0,0-1.23,4.82,3.15,3.15,0,0,1-.55,1.7A10.73,10.73,0,0,0,404,658a7.66,7.66,0,0,0,0,2,5.92,5.92,0,0,1-.25,3.14,6.85,6.85,0,0,0-.31,1.56,18.6,18.6,0,0,0-.32,5.86c-.59,2.07.34,4.18-.18,6.26a1.48,1.48,0,0,0,.26.86c.9,1.76.74,3.69.76,5.55a7.36,7.36,0,0,0,.47,2.65,20,20,0,0,1,.84,2.59c.31,1.33.52,2.68.77,4a4.85,4.85,0,0,1,.17,1.35c-.2,1.69.66,3.25.58,4.93a1.45,1.45,0,0,0,.19.88,8.27,8.27,0,0,1,1,3,3.42,3.42,0,0,0,.51,1.26,15.19,15.19,0,0,1,1.63,3.49c.3.7.67,1.36,1,2.06a14,14,0,0,1,.78,2.13,19.63,19.63,0,0,0,3.76,8.2c.29.34.4.82.67,1.18a20.65,20.65,0,0,0,2.72,3.34,43.66,43.66,0,0,0,4.73,3.15c2.56,1.63,5.13,3.23,7.69,4.85.32.21.61.46.91.69a7.29,7.29,0,0,0,1.11.76c1.86.84,3.49,2.17,5.6,2.46a6.47,6.47,0,0,1,1.25.54c.64.25,1.27.52,1.92.72l.08,0-.06,2.19a27.52,27.52,0,0,0,.12,5.13,24.4,24.4,0,0,1,.15,3.83,3.63,3.63,0,0,0,.43,1.93c.7,1.21,1.69,1.55,2.75.69a2.65,2.65,0,0,1,2.07-.56,41.84,41.84,0,0,0,6.33.34,7.83,7.83,0,0,1,1.36.13l2.56.29v.07c.63,0,1.26,0,1.89.08a2,2,0,0,0,2.06-1,9.39,9.39,0,0,0,1.32-3.17,25.41,25.41,0,0,0,.12-5.3,30.37,30.37,0,0,1-.14-3.93c1-.09,2-.19,2.95-.3a6.12,6.12,0,0,0,2.15-.71,13,13,0,0,1,5.63-1.48c2.23-.16,4.24-1.14,6.42-1.44a1.51,1.51,0,0,0,.62-.28c1.82-1.35,4-2.21,5.7-3.73a4,4,0,0,1,.79-.43c1.35-.68,2.75-1.29,4-2.07a11.67,11.67,0,0,0,3.87-3.49,38.32,38.32,0,0,0,2.64-5,32.71,32.71,0,0,0,1.68-5.68,18,18,0,0,0,.86-3.53c.08-2.52.84-4.93,1.05-7.43a30.26,30.26,0,0,0-.36-9.91,7.5,7.5,0,0,1,0-1.57c0-2.3-.27-4.54-1.91-6.37-.86,0-1.46,0-2.05-.13A22.56,22.56,0,0,0,484.86,686a5.5,5.5,0,0,1-2.43.45,28.51,28.51,0,0,0-4.53.12,11.55,11.55,0,0,1-3.16.06,6.82,6.82,0,0,0-2.47-.2,7.72,7.72,0,0,1-4,.13c-1.33-.32-2.29.74-2.2,2.15a3.84,3.84,0,0,0,.16,1.12,21.47,21.47,0,0,1,1.37,8.94.57.57,0,0,0,0,.22c.4,2.42-1.37,4.09-2.11,6.11a.35.35,0,0,1-.16.16c-1,.52-1.88,1.16-2.86,1.63h-.13l-4.44.09a7.89,7.89,0,0,0-.85.09l-.72.1a2.82,2.82,0,0,1-1.28-1.45c-1.17-2.89-2.31-5.81-2.28-9a8.65,8.65,0,0,0-.41-2.42,15.41,15.41,0,0,1-.82-4.94c.12-1.84-.15-3.64-.07-5.45a8.91,8.91,0,0,1,0-1.36c.46-2.18.13-4.39.29-6.58.18-2.55-.55-5.1-.49-7.7a17.32,17.32,0,0,1,.33-3.81,3.47,3.47,0,0,0,.22-.87,57.29,57.29,0,0,0-.08-6.15c-.18-1.7.29-3.35.16-5a9.53,9.53,0,0,1,1.23-4.75c.06-.14.08-.3.15-.43a4.14,4.14,0,0,1,3.66-2.65,12.67,12.67,0,0,0,3.15-.3c1.23-.38,2.42.06,3.62-.12a1,1,0,0,1,.61.24,3.44,3.44,0,0,1,1.67,2.61c0,1.52.27,3,.45,4.52a4.76,4.76,0,0,1,0,1.36C466.24,653.82,466,654.71,465.8,655.59Z"/><path class="w" d="M604.1,560.49a9.81,9.81,0,0,1-.87-3,13.21,13.21,0,0,0-1.16-3.92,2.94,2.94,0,0,1-.28-1.31,4.7,4.7,0,0,0-.6-2.16,24.31,24.31,0,0,1-1.11-2.75,9,9,0,0,0-1.84-2.85c-2.14-2.41-5.08-3.57-7.79-5.05-2.38-1.31-5-2.29-7.82-3.59a17.09,17.09,0,0,1,1.76-1,9.94,9.94,0,0,0,4.06-2.86A11.63,11.63,0,0,1,590,530.7a26,26,0,0,0,3.65-3,58.46,58.46,0,0,0,3.84-4.77c1.1-1.53,2-3.18,3-4.8a4,4,0,0,0,.54-1.47,16.52,16.52,0,0,0,.08-6.07,7.45,7.45,0,0,1-.05-1.83c.08-2.35.22-4.69-.7-7a10,10,0,0,1-.36-2.47,7.34,7.34,0,0,0-.15-1.35c-.89-2.52-1.88-5-3.85-6.89-1.45-1.39-2.69-3-4.72-3.81a13.11,13.11,0,0,1-4.48-2.61,3.26,3.26,0,0,0-1.23-.58c-1.56-.55-3.13-1.08-4.7-1.61a39.42,39.42,0,0,0-5.15-1.73,23.44,23.44,0,0,0-2.65-.53c-.68-.06-1.36-.2-2-.31a7.06,7.06,0,0,0-2.66-.38,11.26,11.26,0,0,1-2.91-.28c-.91-.09-1.82-.15-2.73-.23s-1.66-.2-2.49-.2c-3,0-5.92,0-8.88,0a14.2,14.2,0,0,1-4.31-.32,5.5,5.5,0,0,0-1.81-.18c-4,.1-7.89-.35-11.84,0a6.88,6.88,0,0,1-.9-.05c-2.28,0-4.54-.53-6.83-.1a3.72,3.72,0,0,1-1.13-.12,2.93,2.93,0,0,0-1.12-.11,15.35,15.35,0,0,1-4.73.32c-1.53,0-3-.24-4.55-.13a43.81,43.81,0,0,1-4.73-.24,14.46,14.46,0,0,0-2-.22c-2.41.31-4.8.72-7.2,1.08a1.63,1.63,0,0,0-1.24.91c-.28.53-.48,1.1-.74,1.68l1.24,1.13a25.17,25.17,0,0,1,.13,5.21c-.06,1.12.16,2.26.18,3.39s-.1,2.4-.1,3.61c0,1.66.43,3.32,0,5,.44,2.59-.16,5.16-.22,7.74A73.12,73.12,0,0,0,500,519a45.21,45.21,0,0,1,.31,6.78c0,.76.05,1.52.1,2.28s.18,1.5.17,2.25c0,2.43-.15,4.86-.16,7.29s0,5,.13,7.53a17.2,17.2,0,0,1-.23,4.53,1.32,1.32,0,0,0-.07.67c.61,1.71.18,3.47.26,5.2a65.79,65.79,0,0,1,0,10.22c-.19,1.88-.19,3.77-.35,5.66a27.57,27.57,0,0,0,.26,6.35c.28,1.94.34,3.92.64,5.87a10.39,10.39,0,0,1-.21,2c0,1.12,0,2.25,0,3.38a8.6,8.6,0,0,1,.12,1.58,10.46,10.46,0,0,0,.46,3.61,2.37,2.37,0,0,0,1.34,1.75,5.48,5.48,0,0,0,2,.48c3.43.2,6.82-.38,10.23-.57,1.9-.1,3.78-.47,5.67-.45a28.38,28.38,0,0,0,6.11-.24,1.61,1.61,0,0,1,.9,0,7,7,0,0,0,3.11.26,26.19,26.19,0,0,0,.4,4.59,6.83,6.83,0,0,1,.05,1.36c0,.86,0,1.72,0,2.58h-.06c.05.63.13,1.26.16,1.89a2,2,0,0,0,1.31,1.91,9.3,9.3,0,0,0,3.31.9,25.16,25.16,0,0,0,5.27-.57,17.42,17.42,0,0,1,5.08-.61,2,2,0,0,0,.72-.07,6.32,6.32,0,0,1,2.17-.05,5.48,5.48,0,0,0,2.7,0,3.35,3.35,0,0,1,1.09,0c.61,0,1.22,0,1.82,0,2.13-.19,4.25-.41,6.37-.61a50.05,50.05,0,0,0,5.45-.67,10.37,10.37,0,0,1,1.25-.12,2,2,0,0,0,.7-.08c1.52-.83,3.2-.71,4.82-.71a3,3,0,0,0,2-.64,2,2,0,0,0,.63-2.05c-.23-1.46-.43-2.93-.66-4.4a8.34,8.34,0,0,0-.2-.83,14.75,14.75,0,0,1-.44-1.83c-.1-.82-.31-1.63-.4-2.46a29.36,29.36,0,0,1,5.16-1.23,10.24,10.24,0,0,0,1.7-.62,18.41,18.41,0,0,1,3.66-1.14c2.59-.26,4.5-1.78,6.39-3.24s3.15-3.07,4.8-4.52c1.84-1.62,3-3.79,4.66-5.56.59-1.55,1.61-2.9,2-4.58s1-3.17,1.58-4.75A8.77,8.77,0,0,0,604.1,560.49Zm-41.75-1a14.82,14.82,0,0,1-2.55,6.23,1.5,1.5,0,0,1-.49.45,18.58,18.58,0,0,1-7.29,2.41,16.21,16.21,0,0,1-3.6-.34,13.18,13.18,0,0,0-5-.16,6.68,6.68,0,0,1,.17-1.62c1-2.39.85-4.9.75-7.4s-.32-5-.47-7.45c-.06-1.08.34-1.45,1.48-1.47.45,0,.9-.06,1.35-.07,1.34,0,2.66-.13,4,0s3,0,4.49.3c.08,0,.17,0,.23,0,1.66.69,3.33,1.36,5,2.13a2.39,2.39,0,0,1,.86,1C562.86,556.3,562.87,556.31,562.35,559.5Zm-17.86-52.89c2.33.19,4.66-.69,7,.09a2.64,2.64,0,0,0,1.54-.11,3.69,3.69,0,0,1,2.23.08,20.5,20.5,0,0,0,2.84.75,3.1,3.1,0,0,1,2.67,2.72,6,6,0,0,1,0,2.71A35.87,35.87,0,0,0,560,518a3.3,3.3,0,0,1-1.49,2.63c-1,.68-1.89,1.52-2.92,2.17a5.75,5.75,0,0,1-3.44.94c-1.19-.07-2.4.29-3.6.33a21.34,21.34,0,0,1-3.39-.17,1.21,1.21,0,0,1-1.06-1.29c0-1.13,0-2.26,0-3.39a15.79,15.79,0,0,0-.54-5.16,4.29,4.29,0,0,1-.2-1.78,12.1,12.1,0,0,0-.05-4.07A1.19,1.19,0,0,1,544.49,506.61Z"/><path class="w" d="M712.18,551.8a5.65,5.65,0,0,0,0-.92c-.23-3.25-.5-6.5-.69-9.76-.12-2-.16-4.08-.14-6.12a48.43,48.43,0,0,1,.27-5.91,19.88,19.88,0,0,0,0-4.56c-.16-1.41-.21-2.85-.29-4.26a9.14,9.14,0,0,0-.54-3.77,5.67,5.67,0,0,1-.29-1.56c-.32-1.72-.7-3.42-.93-5.15-.21-1.56-.67-3.12-.3-4.74a2.9,2.9,0,0,0-.32-2c-.48-.94-.85-1.93-1.33-3a13.39,13.39,0,0,0,1.24-.76c.5-.4.45-1.16-.13-1.26a3.47,3.47,0,0,1-2.43-1.89c-.91-1.49-1.78-3-2.55-4.56a25.43,25.43,0,0,0-2.6-3.71c-2.51-1.57-4.44-3.93-7.13-5.25-.33-.17-.6-.46-.92-.66-2.18-1.36-4.31-2.82-6.9-3.39a11.7,11.7,0,0,1-3.24-1,5.19,5.19,0,0,0-2.82-.7,3,3,0,0,1-2.5-.84,1.42,1.42,0,0,0-1-.46,32.28,32.28,0,0,1-3.83-.43,55.73,55.73,0,0,0-8-.42c-.83.05-1.65.16-2.48.2-2.56.12-5.13.08-7.69.33a9.34,9.34,0,0,1-3.38.18,1.76,1.76,0,0,0-1.08.28c-1.54.83-3.27.58-4.9.9-3.07-.5-5.85.7-8.66,1.55-2,.61-4,1.52-6,2.22a15.89,15.89,0,0,0-4.09,2,5.85,5.85,0,0,1-2.75.93,11.61,11.61,0,0,0-4.32,1.3,16.54,16.54,0,0,0-4.78,4.17,4.67,4.67,0,0,1-1,1.2,9.66,9.66,0,0,0-4.07,5.29c-.58,1.64-1.59,3.12-2.16,4.76a16.26,16.26,0,0,0-1.08,4.87,28.47,28.47,0,0,1-.77,4.89,30.73,30.73,0,0,0-.58,3.13c-.18,1.66-.29,3.33-.39,5s-.25,3.63-.25,5.45c0,2.28.12,4.55.2,6.83,0,1,.14,1.95.16,2.92.05,3.56.09,7.13.12,10.69,0,1.06-.07,2.12,0,3.18.11,2-.26,4,.11,6.09.49,2.82,1.54,5.55,1.45,8.47,0,.22.15.43.2.65.13.67.24,1.34.35,2s.24,1.34.34,2a30.62,30.62,0,0,0,1.45,5.49c.37,1.07.71,2.13,1.17,3.18.87,2,1.34,4.18,2.67,6a6.91,6.91,0,0,0,2.3,3.58c1.31,1.28,2.64,2.52,4,3.76a19,19,0,0,0,7.08,4.42,10.12,10.12,0,0,1,2.68,1.22,6.77,6.77,0,0,0,2.11.79q4.4,1.17,8.82,2.25a18.28,18.28,0,0,0,2.46.4c2.94.32,5.92-.54,8.84.3a.59.59,0,0,0,.23,0,29.27,29.27,0,0,1,7.48.17,4.49,4.49,0,0,0,1.36.08c2.16-.45,4.37,0,6.55-.41s4.66-.39,7-1.05c2-.55,4-.59,6-1.06a22.8,22.8,0,0,0,8.25-3.72,9.27,9.27,0,0,1,1.4-.73,43.52,43.52,0,0,0,5.11-2.43,38.53,38.53,0,0,0,4.53-3.77,18.13,18.13,0,0,1,2.44-2.37,8.36,8.36,0,0,0,2.58-2.51c.84-1.16,1.72-2.3,2.53-3.49a21.79,21.79,0,0,0,2-3.25c.93-2.07,1.62-4.25,2.54-6.33a8,8,0,0,0,.8-4.19,2.62,2.62,0,0,1,0-.68C712.19,558.46,711.89,555.12,712.18,551.8Zm-83.27-8.69a19.83,19.83,0,0,1-2.14-2.36c-1.1-1.63-2.2-3.29-1.62-5.46a5.9,5.9,0,0,0,0-1.47c1.31-1.94,3.26-2.92,5.09-3.93a8.23,8.23,0,0,1,5.3-.94,3.58,3.58,0,0,0,1.11.13c2.86-.48,5.74-.16,8.61-.25a2,2,0,0,0,.9-.07c1.41-.75,2.94-.58,4.44-.69a33.57,33.57,0,0,0,3.59-.59,9.66,9.66,0,0,1,3.89-.24,222.5,222.5,0,0,0-17.77,18.94,25.75,25.75,0,0,0-3.85.86,1.38,1.38,0,0,1-1.76-.64,1.51,1.51,0,0,0-1.11-.7A8.69,8.69,0,0,1,628.91,543.11Zm63.28-3.06a3.25,3.25,0,0,1-1.72,2,25.85,25.85,0,0,1-4.26,1.61c-1.6.38-3.2,1-4.92.6a1.87,1.87,0,0,0-.9.11c-2.41.78-4.93.76-7.41,1s-4.74-.1-7.09.16l13.78-17.84a2.14,2.14,0,0,0,1-.18c1.69-.87,3.43-.44,5.14-.16a3,3,0,0,1,2.5,1.75,1.38,1.38,0,0,0,.37.57c1.65,1.38,2.32,3.36,3.12,5.23A6.83,6.83,0,0,1,692.19,540.05Z"/><path class="w" d="M511.11,405.6a5.53,5.53,0,0,0,0-.91c-.23-3.25-.51-6.5-.7-9.76-.12-2-.16-4.08-.14-6.13a52.91,52.91,0,0,1,.27-5.91,19.79,19.79,0,0,0,0-4.55c-.15-1.42-.21-2.85-.28-4.26a9.15,9.15,0,0,0-.55-3.77,6.52,6.52,0,0,1-.29-1.57c-.31-1.71-.7-3.41-.92-5.14-.21-1.57-.67-3.12-.3-4.74a2.93,2.93,0,0,0-.33-2c-.48-.93-.85-1.92-1.32-3,.6-.37.94-.53,1.23-.76.5-.41.45-1.17-.12-1.26a3.48,3.48,0,0,1-2.44-1.9c-.91-1.48-1.77-3-2.55-4.55a24.07,24.07,0,0,0-2.6-3.72c-2.5-1.57-4.43-3.92-7.12-5.25a9.82,9.82,0,0,1-.93-.66c-2.18-1.36-4.31-2.81-6.89-3.38a11.88,11.88,0,0,1-3.25-1,5.09,5.09,0,0,0-2.81-.7,3,3,0,0,1-2.5-.85,1.47,1.47,0,0,0-1-.45,32.68,32.68,0,0,1-3.84-.43,57.18,57.18,0,0,0-7.95-.43c-.83.06-1.66.17-2.49.21-2.56.12-5.12.08-7.68.33a9.37,9.37,0,0,1-3.38.18,1.74,1.74,0,0,0-1.09.28c-1.54.83-3.27.58-4.89.89-3.07-.49-5.85.71-8.67,1.56-2,.61-4,1.52-6,2.22a15.72,15.72,0,0,0-4.09,2,6,6,0,0,1-2.75.93,11.5,11.5,0,0,0-4.31,1.3,16.41,16.41,0,0,0-4.78,4.17,4.49,4.49,0,0,1-1.05,1.19A9.69,9.69,0,0,0,408.6,349c-.57,1.64-1.58,3.13-2.15,4.77a16.21,16.21,0,0,0-1.09,4.87,26.64,26.64,0,0,1-.77,4.89c-.22,1-.46,2.07-.58,3.12-.18,1.67-.28,3.34-.38,5s-.25,3.63-.25,5.45c0,2.27.12,4.55.2,6.82,0,1,.14,1.95.15,2.93.06,3.56.09,7.12.12,10.69,0,1.06-.07,2.12,0,3.17.11,2-.25,4,.11,6.09.49,2.82,1.55,5.56,1.45,8.48,0,.21.16.43.2.65.13.67.24,1.34.35,2s.24,1.34.34,2a30.65,30.65,0,0,0,1.46,5.49c.37,1.07.7,2.12,1.16,3.17.88,2,1.35,4.19,2.67,6a7,7,0,0,0,2.31,3.59c1.3,1.27,2.64,2.52,4,3.76a19.12,19.12,0,0,0,7.08,4.42,9.52,9.52,0,0,1,2.68,1.21,6.6,6.6,0,0,0,2.12.8q4.39,1.15,8.81,2.25a18.81,18.81,0,0,0,2.46.4c2.94.31,5.92-.55,8.85.3a.54.54,0,0,0,.22,0,29.26,29.26,0,0,1,7.48.18,4.85,4.85,0,0,0,1.36.08c2.17-.45,4.37,0,6.56-.41s4.66-.4,6.95-1.05c2-.56,4.06-.59,6-1.06a23,23,0,0,0,8.25-3.72,9.31,9.31,0,0,1,1.4-.73,42.77,42.77,0,0,0,5.11-2.43,38.63,38.63,0,0,0,4.54-3.77A18.07,18.07,0,0,1,500.2,436a8.51,8.51,0,0,0,2.59-2.51c.84-1.17,1.71-2.31,2.53-3.49a23.06,23.06,0,0,0,2-3.26c.93-2.06,1.62-4.24,2.53-6.32a7.82,7.82,0,0,0,.8-4.19,3.14,3.14,0,0,1,0-.68C511.13,412.27,510.82,408.93,511.11,405.6Zm-75.69-4.75a1.4,1.4,0,0,1-1.77-.64,1.48,1.48,0,0,0-1.1-.7,8.63,8.63,0,0,1-4.7-2.59,20.64,20.64,0,0,1-2.14-2.36c-1.1-1.63-2.21-3.3-1.62-5.46a6.57,6.57,0,0,0,0-1.48c1.31-1.93,3.27-2.91,5.09-3.92a8.3,8.3,0,0,1,5.3-.95,3.32,3.32,0,0,0,1.11.14,29.4,29.4,0,0,1,5.38-.26,26.43,26.43,0,0,0,.89,5.26c.72,3.92-.28,7.92-.53,11.9A23.46,23.46,0,0,0,435.42,400.85ZM456.09,399a22.62,22.62,0,0,0-3.76-.31l-.43-2.47a5.41,5.41,0,0,1-.12-1.79,9.94,9.94,0,0,1,.62-1.76,10.73,10.73,0,0,0,.42-3.83c-.05-2.49-.16-5-.35-7.46l.68-.13a8.66,8.66,0,0,1,4.26-.15,1.4,1.4,0,0,0,.89.07c1.18-.71,2.22-.15,3.23.35a9.61,9.61,0,0,0,2.34.78q.31,8.48.1,16.94C461.36,398.89,458.71,399.38,456.09,399Zm35-5.19a3.18,3.18,0,0,1-1.72,2,26.67,26.67,0,0,1-4.25,1.61c-1.6.37-3.21,1-4.93.6a1.77,1.77,0,0,0-.9.11,18.44,18.44,0,0,1-3.88.73q-.27-8.39-.55-16.76a4.56,4.56,0,0,0,1.17-.21,6.2,6.2,0,0,1,2.45-.41,2.15,2.15,0,0,0,1.1-.17c1.7-.87,3.44-.44,5.14-.16a3,3,0,0,1,2.5,1.75,1.4,1.4,0,0,0,.38.57c1.64,1.38,2.31,3.36,3.11,5.22A6.79,6.79,0,0,1,491.12,393.85Z"/><path class="w" d="M719.3,684.86a5.42,5.42,0,0,0,0-.9c-.23-3.21-.51-6.42-.69-9.63-.12-2-.16-4-.14-6a51.38,51.38,0,0,1,.27-5.83,19.28,19.28,0,0,0,0-4.49c-.16-1.4-.21-2.81-.28-4.21a9,9,0,0,0-.54-3.71,6.45,6.45,0,0,1-.29-1.55c-.31-1.69-.69-3.37-.91-5.07-.2-1.55-.66-3.08-.3-4.68a2.84,2.84,0,0,0-.32-2c-.47-.92-.83-1.89-1.3-3,.59-.36.93-.52,1.22-.75.49-.4.44-1.15-.13-1.24a3.46,3.46,0,0,1-2.4-1.87c-.9-1.46-1.75-3-2.51-4.49a25.41,25.41,0,0,0-2.57-3.67c-2.47-1.55-4.37-3.87-7-5.18a10.87,10.87,0,0,1-.91-.65c-2.15-1.34-4.25-2.78-6.8-3.34a11.51,11.51,0,0,1-3.2-1,5,5,0,0,0-2.78-.69,2.94,2.94,0,0,1-2.46-.84,1.47,1.47,0,0,0-1-.45,31.67,31.67,0,0,1-3.78-.42,55.66,55.66,0,0,0-7.85-.42c-.81.06-1.63.16-2.45.2-2.52.13-5.05.08-7.58.33a9.31,9.31,0,0,1-3.33.18,1.72,1.72,0,0,0-1.07.27c-1.52.82-3.23.57-4.83.89-3-.49-5.77.69-8.55,1.53-2,.6-3.91,1.5-5.88,2.19a15.81,15.81,0,0,0-4,1.93,5.69,5.69,0,0,1-2.71.92A11.47,11.47,0,0,0,628,618.5a16.21,16.21,0,0,0-4.71,4.11,4.56,4.56,0,0,1-1,1.18,9.61,9.61,0,0,0-4,5.22c-.57,1.62-1.56,3.09-2.12,4.7a16.18,16.18,0,0,0-1.07,4.8,27.77,27.77,0,0,1-.76,4.83,29.27,29.27,0,0,0-.57,3.08c-.18,1.64-.28,3.29-.38,4.93s-.25,3.59-.25,5.38c0,2.25.12,4.49.2,6.73,0,1,.14,1.93.15,2.89.05,3.51.09,7,.12,10.54,0,1-.07,2.09,0,3.13.11,2-.25,4,.11,6,.48,2.78,1.52,5.48,1.43,8.36,0,.21.15.42.19.64.13.66.24,1.32.35,2s.24,1.32.33,2a30.61,30.61,0,0,0,1.44,5.41c.36,1.05.7,2.1,1.15,3.13.86,2,1.33,4.13,2.63,5.91A6.91,6.91,0,0,0,623.4,717c1.29,1.25,2.61,2.48,3.93,3.71a18.61,18.61,0,0,0,7,4.35,9.88,9.88,0,0,1,2.65,1.2A6.6,6.6,0,0,0,639,727q4.34,1.14,8.69,2.21a18.37,18.37,0,0,0,2.43.4c2.9.31,5.84-.54,8.72.29a.59.59,0,0,0,.23,0,28.86,28.86,0,0,1,7.37.17,4.78,4.78,0,0,0,1.35.09c2.13-.45,4.3,0,6.46-.41s4.59-.39,6.86-1c1.93-.55,4-.58,6-1a22.79,22.79,0,0,0,8.14-3.67,8.2,8.2,0,0,1,1.38-.72,43.11,43.11,0,0,0,5-2.4,39.26,39.26,0,0,0,4.47-3.71,17.7,17.7,0,0,1,2.4-2.35,8.14,8.14,0,0,0,2.55-2.47c.83-1.15,1.69-2.28,2.5-3.45a21.37,21.37,0,0,0,2-3.2c.93-2,1.61-4.19,2.51-6.24a7.81,7.81,0,0,0,.79-4.13,2.62,2.62,0,0,1,0-.68C719.32,691.43,719,688.13,719.3,684.86Zm-27.1-33.15a25.58,25.58,0,0,1-1.85,4.09c-.85,1.38-1.53,2.94-3,3.86a1.71,1.71,0,0,0-.56.7c-1.13,2.23-2.9,4-4.43,5.89-1.25,1.56-2.81,2.8-4.15,4.25a5.26,5.26,0,0,0,.51.62,18.26,18.26,0,0,0,3.8,3.15,4.3,4.3,0,0,1,1.13.73,22.47,22.47,0,0,0,5.44,4,1.36,1.36,0,0,1,.79,1.68,1.47,1.47,0,0,0,.28,1.25,8.54,8.54,0,0,1,1.47,5.09,20.46,20.46,0,0,1-.15,3.14c-.37,1.9-.76,3.83-2.68,4.94a6.46,6.46,0,0,0-1,1c-2.26.44-4.31-.24-6.28-.81a8.09,8.09,0,0,1-4.36-3,3.7,3.7,0,0,0-.68-.87l-.35-.26c.1.42.22.83.34,1.24a1.38,1.38,0,0,1-.63,1.75,1.47,1.47,0,0,0-.69,1.08,8.5,8.5,0,0,1-2.55,4.64,20.09,20.09,0,0,1-2.33,2.11c-1.61,1.09-3.25,2.17-5.39,1.6a6.25,6.25,0,0,0-1.45,0c-1.91-1.29-2.87-3.22-3.87-5a8.06,8.06,0,0,1-.93-5.22,3.52,3.52,0,0,0,.13-1.1l-.06-.43c-.22.36-.43.74-.64,1.11a1.36,1.36,0,0,1-1.68.79,1.47,1.47,0,0,0-1.25.28,8.5,8.5,0,0,1-5.09,1.47,19.32,19.32,0,0,1-3.14-.15c-1.9-.37-3.83-.76-4.93-2.68a6.56,6.56,0,0,0-1-1c-.44-2.26.24-4.3.81-6.28a8.15,8.15,0,0,1,3-4.36,3.28,3.28,0,0,0,.87-.68c1.66-2.33,3.89-4.12,5.83-6.18.2-.22.5-.41.58-.67.45-1.47,1.58-2.41,2.53-3.5-.39-.41-.78-.8-1.18-1.2-.94-.93-2.26-1.45-3.14-2.51a15.76,15.76,0,0,0-1.42-1.41,5.84,5.84,0,0,0-1.25-.92,6.17,6.17,0,0,1-2-1.43,2.16,2.16,0,0,0-.89-.64c-1.79-.58-2.7-2.09-3.7-3.48a2.9,2.9,0,0,1-.51-3,1.5,1.5,0,0,0,.13-.66c-.19-2.11.73-4,1.47-5.81a6.72,6.72,0,0,1,3.29-3.82,3.15,3.15,0,0,1,2.61-.21,25.53,25.53,0,0,1,4.09,1.84c1.37.85,2.94,1.53,3.85,3a1.83,1.83,0,0,0,.7.55l.8.44a4.26,4.26,0,0,1,0-.8,2.11,2.11,0,0,0-.17-1.09c-.86-1.67-.43-3.39-.16-5.07a2.91,2.91,0,0,1,1.73-2.46,1.52,1.52,0,0,0,.56-.37c1.36-1.62,3.31-2.29,5.15-3.07a6.71,6.71,0,0,1,5-.38,3.16,3.16,0,0,1,2,1.7,25.94,25.94,0,0,1,1.59,4.19c.37,1.58,1,3.17.59,4.86a1.83,1.83,0,0,0,.11.89c.09.29.17.58.25.87a4.2,4.2,0,0,1,.55-.57,2.22,2.22,0,0,0,.65-.9c.58-1.78,2.09-2.7,3.47-3.69a2.9,2.9,0,0,1,3-.52,1.35,1.35,0,0,0,.65.13c2.11-.18,4,.73,5.82,1.47A6.73,6.73,0,0,1,692,649.1,3.16,3.16,0,0,1,692.2,651.71Z"/></svg>