<svg id="Camada_1" data-name="Camada 1" xmlns="http://www.w3.org/2000/svg" viewBox="0 0 1080 1080"><defs><style>.cls-1{fill:#f6b844;}</style></defs><path class="cls-1" d="M682.87,541c38.51-37.45,77-65.55,115.53-86.26-42.75-24.51-85.51-36.41-128.27-41.9,12.11-33.45,24.22-65,36.33-95.61a769.76,769.76,0,0,0-128.67,44.37c-20-35.4-40.08-71.21-60.12-110.83-16.69,33-33.38,68.87-50.07,106.08C433,334.7,398.35,308.4,363.72,278.7q1,93.63,2.06,179.25c-42.95,9.8-85.9,14.51-128.85,8,21.28,27.72,42.57,53.32,63.85,76.26-31.53,19.82-63.06,33.92-94.6,41.7,54.57,42,109.14,61.64,163.71,73Q357,728.82,344.16,792.28a902.08,902.08,0,0,0,80.43-41.16c9,25.7,18,51.51,27,78.12,29.29-38,58.58-82.72,87.87-130,50.58,19.49,101.16,46.26,151.74,78.1-6.53-44-13.06-86.8-19.58-128,29.72.3,59.44,3.47,89.16,11C734.79,617.57,708.83,577,682.87,541Z"/><path d="M873.8,650a5.08,5.08,0,0,0,0-.78c-.2-2.79-.43-5.58-.59-8.37-.11-1.75-.14-3.5-.13-5.26a45.17,45.17,0,0,1,.24-5.07,17,17,0,0,0,0-3.9c-.13-1.22-.17-2.45-.24-3.66a7.74,7.74,0,0,0-.47-3.23,5.68,5.68,0,0,1-.25-1.34c-.27-1.47-.6-2.93-.79-4.41a11.15,11.15,0,0,1-.26-4.07,2.48,2.48,0,0,0-.28-1.71c-.41-.8-.72-1.64-1.13-2.59A11.89,11.89,0,0,0,871,605c.42-.35.38-1-.11-1.08a3,3,0,0,1-2.09-1.63c-.78-1.27-1.52-2.57-2.19-3.9a20.26,20.26,0,0,0-2.23-3.19c-2.15-1.35-3.8-3.37-6.11-4.5-.28-.15-.51-.4-.79-.57a19.11,19.11,0,0,0-5.92-2.91,9.72,9.72,0,0,1-2.78-.89,4.36,4.36,0,0,0-2.41-.59,2.64,2.64,0,0,1-2.15-.73,1.21,1.21,0,0,0-.86-.39,27.83,27.83,0,0,1-3.29-.37,48.55,48.55,0,0,0-6.82-.36c-.71,0-1.42.14-2.13.17-2.2.11-4.4.07-6.59.29a8.3,8.3,0,0,1-2.9.15,1.47,1.47,0,0,0-.93.24c-1.32.71-2.81.49-4.2.77-2.63-.43-5,.6-7.44,1.33-1.74.52-3.4,1.3-5.11,1.9a13.86,13.86,0,0,0-3.51,1.69,5.26,5.26,0,0,1-2.36.8,9.71,9.71,0,0,0-3.7,1.11,14,14,0,0,0-4.1,3.57,3.93,3.93,0,0,1-.9,1,8.3,8.3,0,0,0-3.49,4.54c-.5,1.4-1.36,2.68-1.85,4.09a13.83,13.83,0,0,0-.93,4.17,23.31,23.31,0,0,1-.66,4.19c-.19.9-.4,1.79-.5,2.69-.15,1.42-.24,2.86-.33,4.29s-.21,3.12-.21,4.68c0,1.95.1,3.9.17,5.85,0,.84.12,1.67.13,2.51,0,3,.08,6.11.11,9.17,0,.9-.07,1.82,0,2.72a43.43,43.43,0,0,0,.1,5.22c.42,2.42,1.33,4.77,1.24,7.28,0,.18.14.36.17.55.12.58.21,1.15.31,1.73s.2,1.14.29,1.72a25.55,25.55,0,0,0,1.25,4.71c.31.91.6,1.82,1,2.72.75,1.72,1.15,3.59,2.29,5.14a6,6,0,0,0,2,3.08c1.12,1.09,2.27,2.16,3.41,3.22a16.21,16.21,0,0,0,6.08,3.79,8.38,8.38,0,0,1,2.3,1,6,6,0,0,0,1.81.68c2.51.66,5,1.31,7.56,1.93a16.56,16.56,0,0,0,2.11.34c2.52.27,5.08-.47,7.58.25a.46.46,0,0,0,.2,0,25.09,25.09,0,0,1,6.42.15,3.8,3.8,0,0,0,1.16.07c1.86-.39,3.75,0,5.63-.35s4-.34,6-.9c1.68-.48,3.48-.51,5.18-.91a19.79,19.79,0,0,0,7.08-3.19,7.2,7.2,0,0,1,1.2-.63,38.26,38.26,0,0,0,4.38-2.08,33.16,33.16,0,0,0,3.89-3.23,15.42,15.42,0,0,1,2.09-2,7.24,7.24,0,0,0,2.22-2.15c.72-1,1.47-2,2.17-3a18.88,18.88,0,0,0,1.75-2.79c.8-1.77,1.39-3.64,2.17-5.42a6.82,6.82,0,0,0,.69-3.6,2.26,2.26,0,0,1,0-.58C873.81,655.75,873.55,652.88,873.8,650Zm-58-5.24a4.16,4.16,0,0,1-1.14.25,19.55,19.55,0,0,0-5.78.91,1.18,1.18,0,0,1-1.52-.55,1.25,1.25,0,0,0-.94-.59,7.4,7.4,0,0,1-4-2.23,16.69,16.69,0,0,1-1.84-2c-.94-1.4-1.89-2.83-1.39-4.68a5.32,5.32,0,0,0,0-1.27,11.39,11.39,0,0,1,4.37-3.36,7,7,0,0,1,4.55-.81,3.12,3.12,0,0,0,.95.11,55.1,55.1,0,0,1,7.38-.22,1.82,1.82,0,0,0,.78-.05,4.72,4.72,0,0,1,1.88-.51c-.13.12-.25.25-.37.38a9,9,0,0,0,1.72,13.71,6.65,6.65,0,0,0,.75.64c-.36,0-.74-.11-1.11-.11A15.75,15.75,0,0,0,815.79,644.79ZM856.65,640a2.73,2.73,0,0,1-1.47,1.74,22.75,22.75,0,0,1-3.65,1.38c-1.37.32-2.75.87-4.23.52a1.47,1.47,0,0,0-.77.09,31.75,31.75,0,0,1-6.35.89c-2.07.24-4.14-.09-6.19.15a13.52,13.52,0,0,0-2.91-.25,9.55,9.55,0,0,0,3.56-5.25,10,10,0,0,0-2.87-9.59,13.84,13.84,0,0,0,5.41.72c1.15,0,2.28-.49,3.47-.39a12.63,12.63,0,0,0,1.74,0,5.42,5.42,0,0,0,1.34-.2,5.23,5.23,0,0,1,2.1-.36,1.79,1.79,0,0,0,.95-.15c1.45-.74,3-.37,4.41-.13a2.52,2.52,0,0,1,2.14,1.5,1.27,1.27,0,0,0,.32.49c1.41,1.18,2,2.88,2.67,4.48A5.77,5.77,0,0,1,856.65,640Z"/><path d="M679.15,653.4a11.23,11.23,0,0,0-.12,2c.29,2.06.72,4.11,1,6.18a20.72,20.72,0,0,1,.15,4.09c-.12,1.68-.46,3.34-.71,5a35,35,0,0,0-.1,6.23c0,1,.06,2.08.06,3.12s0,1.94,0,2.91a2.18,2.18,0,0,1-.14,1,2.36,2.36,0,0,0,0,1.88c.33,1.25,0,1.87-1.19,2.27a19.4,19.4,0,0,1-5.93,1.11c-2.41,0-4.77-.44-7.19-.38a75.34,75.34,0,0,0-7.81.15c-1.39.19-2.69-.25-4.05-.25-1.09,0-2.19-.1-3.29-.18a7.63,7.63,0,0,1-1.15-.18c-.12,0-.25-.17-.35-.15-1.47.29-2.77-.53-4.18-.64s-1.77-.7-1.76-1.87c0-.45,0-.9,0-1.35a30.66,30.66,0,0,0,0-3.71,10.15,10.15,0,0,1,.09-2.53,5.92,5.92,0,0,0,0-3.26,1,1,0,0,1,0-.39c.24-2.49-.42-4.92-.47-7.38a52.72,52.72,0,0,1-.08-6,26.54,26.54,0,0,0-.13-4.08,102.55,102.55,0,0,1,0-11c0-.91.23-1.81.29-2.72a8.42,8.42,0,0,0-.07-2.13c-.36-1.72-.22-3.47-.48-5.19a6.64,6.64,0,0,1,.69-3.2,5.18,5.18,0,0,0,.15-3.06,6.52,6.52,0,0,1-.12-2.71,8.5,8.5,0,0,0,0-2.71c-.2-1.29-.14-2.61-.29-3.9a12.65,12.65,0,0,1,.44-5.39,8,8,0,0,0,.08-3.3c-.14-1.1-.07-2.2-.21-3.29-.06-.51-.13-1-.21-1.54,0-.19-.19-.39-.15-.55.38-1.58-.12-3.11-.24-4.66a4.58,4.58,0,0,1,.06-1.17,2.7,2.7,0,0,0-.11-1.73,1.5,1.5,0,0,1,0-1.12,2,2,0,0,0,0-1.15c-.55-1.47-.25-3-.19-4.46a3.16,3.16,0,0,1,.3-1.12,1.61,1.61,0,0,1,2.53-.82,6.89,6.89,0,0,1,.8.72c1.7-.15,3.44-.37,5.19-.43,2.35-.09,4.7,0,7,0,.46,0,.92.06,1.37,0a13.28,13.28,0,0,1,3.09-.36,23.57,23.57,0,0,0,2.91,0c1.42,0,2.86,0,4.27.15a5.45,5.45,0,0,0,2.13-.06,1.67,1.67,0,0,1,.59-.05,31.53,31.53,0,0,0,3.86.31c2-.1,4,.27,6-.31a9,9,0,0,1,3.11.07,7.23,7.23,0,0,0,2.13.06,1.84,1.84,0,0,1,1,0,4,4,0,0,0,2.31,0,5,5,0,0,1,1.34-.08,20.4,20.4,0,0,0,5.06,0,4.1,4.1,0,0,1,1,.1c.91.06,1.82.08,2.73.15.52,0,1,.12,1.54.18l1.35.1c.37,0,.75,0,1.12.07a4,4,0,0,0,1.15.15,8.3,8.3,0,0,1,2.9.27c1.1.13,2.19.28,3.28.49a22,22,0,0,1,2.24.65,14.88,14.88,0,0,1,7.12,4.89,40,40,0,0,0,4.06,4.18,28.24,28.24,0,0,1,2.87,3.45.87.87,0,0,1,.2.53,7.62,7.62,0,0,0,.79,2.6,49.85,49.85,0,0,1,1.35,4.86,29,29,0,0,1,.29,5.65,14,14,0,0,1-.56,3.24,10.63,10.63,0,0,1-1,2.93,9.64,9.64,0,0,0-.62,1.65,9.12,9.12,0,0,1-1.09,2.27,25.88,25.88,0,0,0-1.44,2.77c-.14.28-.24.68-.48.82a8.93,8.93,0,0,0-2.34,2.56,4.26,4.26,0,0,1-1.57,1.13c-1.42.79-2.85,1.56-4.24,2.4-1,.62-2,1.36-3.08,2,2.88,1.74,5.65,3.31,8.3,5.07a8,8,0,0,1,3.24,3.79,13.83,13.83,0,0,1,1.43,4.2,1.47,1.47,0,0,0,.23.74,5.12,5.12,0,0,1,.64,3.58,5.31,5.31,0,0,0,.24,1.9,12.26,12.26,0,0,1,.43,2.7c.08,1.55.06,3.12.08,4.68a3.5,3.5,0,0,0,0,1c.47,1.68.15,3.37.14,5,0,.26-.15.54-.09.78.4,1.73.09,3.49.24,5.24a5.94,5.94,0,0,0,1.69,3.83,23.78,23.78,0,0,0,2.55,2.13c1.23.91,1.26.92.74,2.59a4,4,0,0,1-3,.46c-.88.88-1.92.51-2.95.41a16.31,16.31,0,0,0-2.52,0c-1.16.09-2.32.26-3.49.38a1.88,1.88,0,0,1-.58,0,31.62,31.62,0,0,0-5.24,0,12.76,12.76,0,0,1-2.5-.4,9.5,9.5,0,0,0-3.86-.27c-1.19.23-2.28-.36-3.46-.25-1.75.16-3.51.2-5.26.27a4.29,4.29,0,0,0-2.19.75,2.22,2.22,0,0,1-2,.15,4.16,4.16,0,0,1-3-3.71c-.12-.77-.1-1.56-.15-2.34s-.11-1.69-.18-2.53c0-.26-.18-.52-.14-.77.35-2.59-.36-5.15-.21-7.75a29.63,29.63,0,0,0-.21-5.07c-.15-1.28-.63-2.52-.9-3.79a50,50,0,0,0-1.58-5.63,5.19,5.19,0,0,0-2.62-3.24c-1-.49-1.85-1.21-3.05-1.14a1.55,1.55,0,0,1-.74-.22,3.67,3.67,0,0,0-3.9.25A8.13,8.13,0,0,1,679.15,653.4Zm1.05-22.79a26.8,26.8,0,0,1,3.55-.59,15.78,15.78,0,0,0,3.07-.44,8.86,8.86,0,0,0,5.16-2.83,5.72,5.72,0,0,0,1.41-2.49,27.89,27.89,0,0,0,.4-2.89,1.67,1.67,0,0,0-.1-.57c-.11-.5-.21-1-.37-1.5a29.56,29.56,0,0,0-1.31-3.85,4.18,4.18,0,0,0-3.92-2.72c-.59,0-1.18-.17-1.76-.14a26.62,26.62,0,0,1-5.64-.17c-.28,0-.6.18-.94.29a42.35,42.35,0,0,0-.45,6.24c0,1.36.1,2.73.07,4.1a30.13,30.13,0,0,1,.11,4.25,12.69,12.69,0,0,0-.06,1.75A1.56,1.56,0,0,0,680.2,630.61Z"/><path d="M433.53,688.82a5.65,5.65,0,0,1-2.56-4.29c-.35-1.92-.4-3.91-1.53-5.74a1.92,1.92,0,0,0-1.56-.09,7,7,0,0,1-3.48.14,1.32,1.32,0,0,0-.58-.07,11.51,11.51,0,0,1-3.88.22c-2,0-4,0-6.05,0-.33,0-.65,0-1,0a1,1,0,0,0-1.05,1.14,7.18,7.18,0,0,0,.06.79c0,.26.14.55.05.77-.57,1.51-.25,3.11-.51,4.64a10.38,10.38,0,0,1-.66,2.25,3.34,3.34,0,0,1-3.47,1.59c-1.49-.47-2.95-1-4.63-1.58-2.29,0-4.81-.06-7.34-.07a16.81,16.81,0,0,0-2.13.15c-1.35.16-2.7.4-4.05.54a23.92,23.92,0,0,1-4.47.35,3.71,3.71,0,0,0-1.33.24,2.6,2.6,0,0,1-3.07-1c-.27-.37-.51-.76-.75-1.15a2.51,2.51,0,0,1-.22-2.59,5.27,5.27,0,0,0,.46-2.47,11.82,11.82,0,0,1,.4-2.69c.32-1.4.7-2.79,1.06-4.18.23-.94.49-1.88.7-2.83a15.59,15.59,0,0,1,1.23-3.89c.71-1.38.51-2.92.6-4.39.14-2.53.31-5.05.59-7.57a6.6,6.6,0,0,1,1.08-3.11,8.47,8.47,0,0,0,1.15-3.1,7.53,7.53,0,0,1,.34-1.32c1.1-2.71,1.76-5.57,2.78-8.31.5-1.33.95-2.67,1.52-4a19.16,19.16,0,0,0,.82-3.61,8.41,8.41,0,0,1,.38-1.3c.52-1.4,1.08-2.8,1.61-4.2a3.53,3.53,0,0,0,.34-1.12c.06-2.4,1.16-4.53,1.71-6.8.45-1.9.82-3.81,1.23-5.72.1-.44.19-.89.3-1.33.27-1.14.9-2.19.85-3.4s.42-2.27.32-3.47a6.62,6.62,0,0,1,.53-3.06,8.89,8.89,0,0,0,.77-3.78,3.1,3.1,0,0,1,.61-2,7.84,7.84,0,0,0,1.36-4.18c.1-1.22.38-2.43.57-3.57l1.2-1,3.93-.38c1.67-.17,3.31-.79,5-.41,2.18-.63,4.39,0,6.58-.22,1.63.64,3.33-.21,5,.21a10.33,10.33,0,0,0,2.9-.2,75.15,75.15,0,0,0,9-.74,5,5,0,0,1,1.53.15,10.82,10.82,0,0,0,4.25.26,2.2,2.2,0,0,1,2.59.89,1.74,1.74,0,0,1,.28,1.65,2.55,2.55,0,0,0-.13,1.13c.21,1.62.47,3.23.69,4.84.11.82.16,1.66.29,2.48a12.46,12.46,0,0,0,.52,2.27c.39,1,.92,2,1.4,3a5.38,5.38,0,0,1,.49,1,6,6,0,0,0,.67,1.59,11,11,0,0,1,.88,2.77c.47,2.42,1,4.83,1.25,7.31a20.92,20.92,0,0,0,1.44,5.67c.66,1.69,1.09,3.47,1.68,5.18a39.28,39.28,0,0,0,1.59,4,44.66,44.66,0,0,1,2,5.31c.21.61.47,1.21.69,1.82.12.37.2.75.29,1.12l.39,1.71a33.14,33.14,0,0,1,1,3.74,18.46,18.46,0,0,0,.88,3.19,10.69,10.69,0,0,1,.45,1.9,12.77,12.77,0,0,0,1.79,5.34,5.59,5.59,0,0,1,.78,2.76,16,16,0,0,0,.66,3.23,8.28,8.28,0,0,1,.41,3.09,4.41,4.41,0,0,0,.19,1.33c0,.19.19.36.2.54.06,3.08,1.75,5.7,2.34,8.63a14.72,14.72,0,0,1,1.31,5.85,11,11,0,0,0,.63,3.4,8,8,0,0,1,.31,1.71,2,2,0,0,1-1.27,2.48,4.26,4.26,0,0,1-1.71.35,23.11,23.11,0,0,0-5.45.12c-1.42-.44-2.83,0-4.24.13a7.93,7.93,0,0,0-1,.14,12.91,12.91,0,0,1-5.63.27,1.14,1.14,0,0,0-.58,0c-1.44.35-2.85-.08-4.27-.18a44.21,44.21,0,0,0-7.37-.28C436.82,689,435.11,688.82,433.53,688.82ZM420.89,626.9c-.2.17-.28.2-.3.25-.45,1.48-.54,3.08-1.33,4.47-.12.21-.06.52-.12.77-.46,1.89-.25,3.86-.75,5.75a28,28,0,0,0-.61,3.66c-.24,2.06-.53,4.13-.58,6.21a20.88,20.88,0,0,1-.15,2.51A16.77,16.77,0,0,0,417,653a27.77,27.77,0,0,0,8.1.18c-.12-1.4-.19-2.82-.4-4.22s-.63-2.8-.85-4.21-.28-2.72-.42-4.08a16.11,16.11,0,0,1-.23-1.93,35.6,35.6,0,0,0-.85-6.58c-.16-.89-.3-1.79-.42-2.69A3.79,3.79,0,0,0,420.89,626.9Z"/><path d="M479.32,615.92l-8.29.17c-1.21.48-2.43.17-3.66.13-1.43-.05-2.87.09-4.3.15a16.38,16.38,0,0,0-6.1,1.17,1.4,1.4,0,0,1-1.7-.63,6.72,6.72,0,0,1-1.12-3.86,9.72,9.72,0,0,0-.12-2.52,5.92,5.92,0,0,1,.2-2.31c.21-1.09.55-2.14.76-3.23a4.63,4.63,0,0,1,.59-1.83,2.07,2.07,0,0,0,.3-1.3,43.41,43.41,0,0,1-.47-5.46,6.51,6.51,0,0,0-.29-.92c-.13-.71-.24-1.42-.31-2.13a4.4,4.4,0,0,1,1.45-3.51,1.7,1.7,0,0,1,1-.49c1.5-.1,2.91-.71,4.44-.61a8.06,8.06,0,0,0,1.33-.23,3.69,3.69,0,0,1,1.14-.07,4.1,4.1,0,0,0,2.3-.13,6,6,0,0,1,1.71-.09c2.4-.15,4.83-.16,7.2-.53,2-.3,3.9.15,5.83-.19a4.36,4.36,0,0,1,1.55.16,47.38,47.38,0,0,0,7.15.5c3.72.13,7.43-.39,11.15-.06a16.91,16.91,0,0,0,2.91-.21,5.2,5.2,0,0,1,1.16-.12,35.21,35.21,0,0,0,4.82-.06,39.85,39.85,0,0,0,4.89,0c1.44-.16,2.86-.17,4.29-.26a47,47,0,0,1,7.22.24,17,17,0,0,0,4.1.05c.83-.11,1.69.07,2.54,0,2.2-.06,4.4-.17,6.69-.26l1.08.67c.11.07.28.14.3.23.33,1.4,1.68,2.58.94,4.21a3.51,3.51,0,0,0-.26,2.28,1.47,1.47,0,0,1,0,.78,9.86,9.86,0,0,0-.17,4.25c.1,1.25-.26,2.48,0,3.65a22.72,22.72,0,0,1,0,3.69,32.69,32.69,0,0,0,.39,3.83,10.71,10.71,0,0,0,.83,2.08,1.89,1.89,0,0,1-.74,1.59,3.46,3.46,0,0,1-2.42.61c-.38-.08-.77-.13-1.16-.21a12,12,0,0,0-5,.11,2.76,2.76,0,0,1-1.13.11,13.42,13.42,0,0,0-4.29,0c-.91.07-1.82.21-2.73.22a25.44,25.44,0,0,0-3.89.34c-.76.14-1.54.14-2.42.21a9.61,9.61,0,0,0-.22,1.12c-.11,1.48-.2,3-.31,4.45a3.35,3.35,0,0,1-.13.77,21.82,21.82,0,0,0-.61,6.39c0,1.16.22,2.33.31,3.49s.17,2.47.18,3.71a6.64,6.64,0,0,0,.45,2.68,3,3,0,0,1,.33,1.3,29.4,29.4,0,0,0,0,3.87,8.52,8.52,0,0,0,.05,2.31,1.07,1.07,0,0,1,0,.59c-.46,1.77-.31,3.62-.81,5.41a9.21,9.21,0,0,0-.06,3.19,2.58,2.58,0,0,1-.19,1.87c-.11.15-.23.43-.16.54.73,1.14-.09,2.28,0,3.43s-.14,2.22-.08,3.32c.15,2.6-.36,5.21.11,7.8a8.71,8.71,0,0,1,0,1.77,25.61,25.61,0,0,0,.24,4.87,10.34,10.34,0,0,1,0,1.76c0,.38,0,.77,0,1.16.07,1.16.2,2.33.22,3.49a2.06,2.06,0,0,1-1.69,2.1,9.69,9.69,0,0,1-3.47.39,3.64,3.64,0,0,0-1.36,0c-2,.73-4.09.52-6.17.5a20.37,20.37,0,0,1-4.68-.19,2.33,2.33,0,0,0-1,.1c-1.91.39-3.9.28-5.78.88a1.59,1.59,0,0,1-.38.06c-2.15,0-4.31.17-6.46.05a24.24,24.24,0,0,1-4.41-.37,1.71,1.71,0,0,0-1.12.2,1.76,1.76,0,0,1-1.5.1c-1.51-.47-1.68-.76-1.62-2.4.05-1.3,0-2.6,0-3.9.06-1.55.19-3.1.26-4.65s.12-3,.13-4.48a4.61,4.61,0,0,1,.22-1.73,2.62,2.62,0,0,0,.13-1.15,26.11,26.11,0,0,1,.33-7.38c.39-2.3.6-4.63.8-7,.1-1.09.3-2.17.32-3.29,0-1.57-.18-3.12-.29-4.67s-.2-3-.25-4.48a19.21,19.21,0,0,0-.74-6,8.25,8.25,0,0,1-.13-1.74c-.13-1.23-.32-2.45-.43-3.69a29.81,29.81,0,0,1-.06-7,67.92,67.92,0,0,0,.41-7.39C479.46,617.63,479.37,616.86,479.32,615.92Z"/><path d="M776.05,591.93a4.08,4.08,0,0,1,.77,2.62,45,45,0,0,1-.53,6.46c-.26,1.37-.67,2.72-.82,4.1a31.29,31.29,0,0,0-.12,7.43c.19,1.5.07,3,.13,4.56,0,.76.15,1.52.23,2.28a5.57,5.57,0,0,1,.12,1.13,5.18,5.18,0,0,0,.34,3.18.62.62,0,0,1,.05.38c-.27,1.52.14,3,0,4.54a1.25,1.25,0,0,0,0,.38c.51,1.64.13,3.28.07,4.93s-.13,3.31-.1,5a27.53,27.53,0,0,0,.75,6.63,4.33,4.33,0,0,1,.21,1.32c-.15,1.77.46,3.54,0,5.31a13.16,13.16,0,0,1-.43,4.71.82.82,0,0,0,0,.38c.48,2.4-.2,4.81.1,7.24a40.05,40.05,0,0,1-.11,5.89,10.15,10.15,0,0,0,.24,3.8,1.78,1.78,0,0,1,.07.57c.19,3,.36,6.09.56,9.13,0,.44.16.88.21,1.32a5.13,5.13,0,0,1-.79,3.49,1.87,1.87,0,0,1-1.6.94,24.08,24.08,0,0,1-3.5,0,25,25,0,0,1-3.64-.53,1.41,1.41,0,0,0-.58,0,25.59,25.59,0,0,1-6.77-.14,8.92,8.92,0,0,0-5.35.74,2.5,2.5,0,0,1-.91.3c-1.29.08-2.58.15-3.87.16a12.93,12.93,0,0,1-2.32-.22,16,16,0,0,1-4-.9,1,1,0,0,0-.39-.07h-4.19a11,11,0,0,1-1-1.35,2.39,2.39,0,0,1-.19-1.1c.05-1,.16-2,.24-3a2.73,2.73,0,0,1,.07-.76,15,15,0,0,0,.79-3.73,7.24,7.24,0,0,0,.16-1.86c-.23-2.67-.33-5.34-.56-8a10.39,10.39,0,0,0-.6-3,11.08,11.08,0,0,1-.45-5.1,57.26,57.26,0,0,0-.15-9.35,2.32,2.32,0,0,1,0-.38,34.1,34.1,0,0,1,.54-5.27,14.9,14.9,0,0,0,.23-4.74c-.07-1.33,0-2.66,0-4,0-1.78.09-3.56,0-5.35a22.89,22.89,0,0,1,.14-3.41,3.08,3.08,0,0,0-.09-1.48,2.9,2.9,0,0,1,0-1.14,8.31,8.31,0,0,0,.16-3.22c-.06-.21.12-.49.18-.73s.32-.8.21-1.11c-.38-1.07.39-2.14-.07-3.2-.08-.19.09-.48.13-.73a5.52,5.52,0,0,0,.13-1.13c-.12-1.77.21-3.57-.27-5.32a1.58,1.58,0,0,1,0-.38c-.21-2.28-.41-4.57-.64-6.85-.11-1-.33-2-.4-3a29.5,29.5,0,0,1-.1-3.64,6.05,6.05,0,0,0-.53-3.35,1.77,1.77,0,0,1,.26-2,3.7,3.7,0,0,1,3.52-1.67,2.58,2.58,0,0,0,1.33-.05,5.56,5.56,0,0,1,3.81-.1,10.54,10.54,0,0,0,2.31.18,17.66,17.66,0,0,1,2.71.2,41.53,41.53,0,0,1,8.42,1.64,16.19,16.19,0,0,0,7.12.57,39.08,39.08,0,0,1,5.63-.43A7.74,7.74,0,0,1,776.05,591.93Z"/><path d="M518.11,519.84c2.47,1.12,4.67,2,6.71,3.08,2.32,1.27,4.85,2.27,6.68,4.33a7.47,7.47,0,0,1,1.58,2.45,21.78,21.78,0,0,0,.95,2.35,3.93,3.93,0,0,1,.51,1.86,2.73,2.73,0,0,0,.25,1.12,11.37,11.37,0,0,1,1,3.37,8.25,8.25,0,0,0,.75,2.6,7.49,7.49,0,0,1,.15,5.89c-.46,1.36-1,2.69-1.35,4.08a31.36,31.36,0,0,1-1.72,3.93c-1.42,1.51-2.42,3.37-4,4.76-1.41,1.25-2.62,2.74-4.11,3.88s-3.26,2.56-5.49,2.78a15.3,15.3,0,0,0-3.13,1,8.27,8.27,0,0,1-1.46.53,26.42,26.42,0,0,0-5.48,1.41,2.94,2.94,0,0,1-1.35.14,46.46,46.46,0,0,0-5.66.07,3.73,3.73,0,0,0-1.16.13,11.23,11.23,0,0,1-4,.46,23.74,23.74,0,0,0-4.84.1,8.63,8.63,0,0,1-1.75-.07,4,4,0,0,0-.77-.07c-1.29.15-2.57.35-3.87.48s-2.85.26-4.28.34-2.59.07-3.88.1-2.61.07-3.91.06a9.18,9.18,0,0,1-3.5-.2,1.43,1.43,0,0,0-.77,0,25.5,25.5,0,0,1-5.24.21c-1.62,0-3.24.29-4.86.38a78,78,0,0,1-8.78.49,4.82,4.82,0,0,1-1.67-.41,2,2,0,0,1-1.15-1.51,8.7,8.7,0,0,1-.39-3.09,8,8,0,0,0-.11-1.36c0-1,0-1.93,0-2.9a10.6,10.6,0,0,0,.18-1.74c-.26-1.68-.32-3.37-.56-5a24.26,24.26,0,0,1-.22-5.45c.14-1.61.14-3.24.31-4.86a58.08,58.08,0,0,0,0-8.75c-.07-1.49.3-3-.22-4.47a1.15,1.15,0,0,1,.06-.57,14.91,14.91,0,0,0,.19-3.89c-.08-2.15-.11-4.31-.1-6.46s.11-4.17.13-6.25c0-.64-.1-1.29-.14-1.93s-.1-1.31-.09-2a39.1,39.1,0,0,0-.26-5.82,61.81,61.81,0,0,1-.51-9.91c0-2.21.57-4.41.19-6.63.4-1.42,0-2.85,0-4.27,0-1,.1-2.07.08-3.1s-.2-1.94-.14-2.91a22.14,22.14,0,0,0-.12-4.46l-1.06-1c.22-.5.39-1,.63-1.44a1.37,1.37,0,0,1,1.06-.78c2.06-.31,4.11-.67,6.18-.93a11.71,11.71,0,0,1,1.74.19,36.67,36.67,0,0,0,4.06.2c1.29-.09,2.59.13,3.9.12a13.19,13.19,0,0,0,4.06-.28,2.5,2.5,0,0,1,1,.1,3.3,3.3,0,0,0,1,.1c2-.37,3.91,0,5.86.08a6.81,6.81,0,0,0,.78,0c3.38-.3,6.76.09,10.14,0a4.79,4.79,0,0,1,1.56.15,12.09,12.09,0,0,0,3.69.27c2.54,0,5.08,0,7.62,0,.71,0,1.43.12,2.14.18l2.34.19a9.42,9.42,0,0,0,2.5.24,6,6,0,0,1,2.28.33c.58.09,1.15.21,1.74.26a19,19,0,0,1,2.27.46,34.73,34.73,0,0,1,4.42,1.48c1.35.46,2.69.91,4,1.38a2.81,2.81,0,0,1,1.06.5,11.49,11.49,0,0,0,3.84,2.24c1.74.71,2.81,2.07,4.05,3.26a14.41,14.41,0,0,1,3.3,5.91,6.34,6.34,0,0,1,.13,1.16,8.61,8.61,0,0,0,.31,2.12,14.12,14.12,0,0,1,.6,6,6.76,6.76,0,0,0,0,1.56,14.48,14.48,0,0,1-.06,5.21,3.63,3.63,0,0,1-.47,1.26c-.82,1.39-1.62,2.81-2.56,4.12s-2.14,2.78-3.29,4.09a23.06,23.06,0,0,1-3.14,2.6,10.33,10.33,0,0,0-1.34,1.12,8.45,8.45,0,0,1-3.48,2.45A15.07,15.07,0,0,0,518.11,519.84Zm-33.64,27.68a11.28,11.28,0,0,1,4.29.13,13,13,0,0,0,3.1.29,15.91,15.91,0,0,0,6.25-2.06,1.2,1.2,0,0,0,.42-.39,12.6,12.6,0,0,0,2.18-5.33c.45-2.74.44-2.75-.93-5.13a2.11,2.11,0,0,0-.74-.89c-1.4-.65-2.83-1.22-4.25-1.82-.06,0-.13,0-.2,0-1.28-.23-2.58-.14-3.85-.26s-2.31,0-3.46,0c-.39,0-.77.06-1.15.06-1,0-1.33.34-1.27,1.26.12,2.13.32,4.26.4,6.4s.24,4.29-.64,6.34A5.59,5.59,0,0,0,484.47,547.52Zm.57-41.94c0,1,0,1.94,0,2.91a1,1,0,0,0,.9,1.1,16.65,16.65,0,0,0,2.91.15c1,0,2.07-.34,3.09-.28a4.93,4.93,0,0,0,2.95-.81c.88-.55,1.65-1.27,2.51-1.85a2.86,2.86,0,0,0,1.27-2.26,31.36,31.36,0,0,1,.66-4.4,5.19,5.19,0,0,0,0-2.32,2.64,2.64,0,0,0-2.29-2.34,18.9,18.9,0,0,1-2.43-.64,3.14,3.14,0,0,0-1.92-.07,2.31,2.31,0,0,1-1.32.09c-2-.67-4,.09-6-.07a1,1,0,0,0-1,1.35,10.49,10.49,0,0,1,0,3.49,3.54,3.54,0,0,0,.17,1.52A13.57,13.57,0,0,1,485,505.58Z"/><path d="M320.76,655.17a10.38,10.38,0,0,0-.11,2c.29,2.07.72,4.12,1,6.18a22.4,22.4,0,0,1,.15,4.09c-.12,1.68-.47,3.35-.71,5a34.12,34.12,0,0,0-.1,6.23c0,1,.06,2.08.06,3.12s0,1.94,0,2.91a2.26,2.26,0,0,1-.13,1,2.35,2.35,0,0,0,0,1.89c.33,1.25,0,1.87-1.19,2.27a19.46,19.46,0,0,1-5.93,1.11c-2.41,0-4.78-.44-7.2-.38a72.42,72.42,0,0,0-7.8.15c-1.4.19-2.7-.25-4.05-.25-1.1,0-2.2-.1-3.29-.18a8.87,8.87,0,0,1-1.15-.18c-.12,0-.25-.18-.35-.16-1.47.3-2.77-.52-4.18-.64s-1.77-.7-1.77-1.86c0-.45,0-.9.05-1.35a33,33,0,0,0,.05-3.72,10.09,10.09,0,0,1,.08-2.52,5.92,5.92,0,0,0,0-3.26.86.86,0,0,1,0-.39c.24-2.49-.43-4.92-.47-7.39a52.65,52.65,0,0,1-.09-6,25.37,25.37,0,0,0-.13-4.08,100,100,0,0,1,0-11c0-.9.23-1.8.28-2.71a8.42,8.42,0,0,0-.07-2.13c-.35-1.72-.21-3.48-.47-5.19a6.48,6.48,0,0,1,.69-3.21,5.15,5.15,0,0,0,.15-3,6.52,6.52,0,0,1-.12-2.71,8.87,8.87,0,0,0,0-2.72c-.19-1.28-.13-2.6-.28-3.89a12.63,12.63,0,0,1,.44-5.39,8,8,0,0,0,.08-3.3c-.15-1.1-.08-2.2-.21-3.29-.06-.51-.13-1-.21-1.54,0-.19-.2-.39-.16-.56.38-1.58-.11-3.1-.24-4.65a5.08,5.08,0,0,1,.06-1.17,2.7,2.7,0,0,0-.1-1.73,1.52,1.52,0,0,1,0-1.13,2,2,0,0,0,0-1.14c-.55-1.47-.25-3-.2-4.46a3.53,3.53,0,0,1,.31-1.13,1.61,1.61,0,0,1,2.53-.81,6.89,6.89,0,0,1,.8.72c1.69-.15,3.44-.37,5.19-.44,2.34-.08,4.7,0,7.05,0a12.56,12.56,0,0,0,1.37,0,13.78,13.78,0,0,1,3.08-.37,21.79,21.79,0,0,0,2.91,0c1.43,0,2.86,0,4.28.15a5.45,5.45,0,0,0,2.13-.06,1.61,1.61,0,0,1,.58,0,29.8,29.8,0,0,0,3.87.3c2-.09,4.05.28,6-.3a9,9,0,0,1,3.11.07,7.24,7.24,0,0,0,2.13.05,2,2,0,0,1,1,0,4.07,4.07,0,0,0,2.32,0,4.59,4.59,0,0,1,1.34-.08,20.89,20.89,0,0,0,5.06,0,4.15,4.15,0,0,1,1,.1c.91,0,1.82.08,2.73.14.51,0,1,.13,1.54.18s.89.07,1.34.11.76,0,1.13.07a4.28,4.28,0,0,0,1.15.15,8.51,8.51,0,0,1,2.89.26c1.1.13,2.2.28,3.28.5a23,23,0,0,1,2.25.65,14.85,14.85,0,0,1,7.11,4.89,40.12,40.12,0,0,0,4.07,4.18,28.24,28.24,0,0,1,2.87,3.45.87.87,0,0,1,.2.53,7.57,7.57,0,0,0,.79,2.59q.79,2.4,1.35,4.87a29,29,0,0,1,.29,5.65,13.53,13.53,0,0,1-.57,3.23,10,10,0,0,1-1,2.94,10.16,10.16,0,0,0-.61,1.65,9.12,9.12,0,0,1-1.09,2.27,23.3,23.3,0,0,0-1.44,2.76c-.15.29-.24.68-.48.83a8.79,8.79,0,0,0-2.34,2.56,4.56,4.56,0,0,1-1.57,1.13c-1.42.79-2.85,1.56-4.25,2.39-1.05.63-2,1.36-3.07,2,2.87,1.75,5.64,3.32,8.3,5.07a8,8,0,0,1,3.23,3.79,13.71,13.71,0,0,1,1.43,4.21,1.58,1.58,0,0,0,.24.74,5.21,5.21,0,0,1,.64,3.57,5.57,5.57,0,0,0,.23,1.91,11.7,11.7,0,0,1,.43,2.69c.08,1.56.06,3.12.08,4.69a4.49,4.49,0,0,0,0,1c.48,1.67.16,3.36.14,5,0,.26-.14.53-.08.77.4,1.74.09,3.5.24,5.24a6,6,0,0,0,1.68,3.84,24.83,24.83,0,0,0,2.56,2.12c1.23.92,1.25.93.74,2.59a4,4,0,0,1-3,.47c-.87.88-1.91.51-2.94.41a15.15,15.15,0,0,0-2.52,0c-1.17.08-2.33.25-3.49.38a2.33,2.33,0,0,1-.59,0,30.45,30.45,0,0,0-5.23,0,12.53,12.53,0,0,1-2.5-.4,9.38,9.38,0,0,0-3.87-.27c-1.18.23-2.28-.36-3.46-.26-1.74.16-3.5.2-5.25.28a4.29,4.29,0,0,0-2.19.75,2.19,2.19,0,0,1-2,.14,4.12,4.12,0,0,1-3-3.7c-.12-.77-.11-1.56-.16-2.34s-.1-1.69-.17-2.53c0-.26-.18-.53-.15-.77.36-2.59-.36-5.16-.21-7.75a28.76,28.76,0,0,0-.2-5.08c-.15-1.28-.63-2.51-.9-3.78A52.23,52.23,0,0,0,332,659.1a5.19,5.19,0,0,0-2.62-3.24c-1-.49-1.86-1.21-3-1.15a1.47,1.47,0,0,1-.75-.21,3.65,3.65,0,0,0-3.89.25A8.89,8.89,0,0,1,320.76,655.17Zm1.05-22.79a28.59,28.59,0,0,1,3.56-.58,15.69,15.69,0,0,0,3.06-.45,8.78,8.78,0,0,0,5.17-2.82A5.82,5.82,0,0,0,335,626c.2-.95.28-1.92.39-2.89a1.93,1.93,0,0,0-.09-.57c-.12-.5-.22-1-.37-1.5a29.6,29.6,0,0,0-1.32-3.85,4.13,4.13,0,0,0-3.92-2.72c-.58,0-1.17-.17-1.75-.14a26.58,26.58,0,0,1-5.64-.18c-.28,0-.6.18-.95.3a43.76,43.76,0,0,0-.45,6.24c0,1.36.11,2.73.08,4.09a28.84,28.84,0,0,1,.1,4.26,16.86,16.86,0,0,0-.06,1.75A1.57,1.57,0,0,0,321.81,632.38Z"/><path d="M360.41,406.17c1.41,1.57,1.61,3.49,1.64,5.47a6.09,6.09,0,0,0,0,1.35,26,26,0,0,1,.3,8.49c-.18,2.15-.83,4.21-.9,6.38a15.84,15.84,0,0,1-.74,3,27.76,27.76,0,0,1-1.44,4.87A31.85,31.85,0,0,1,357,440a10,10,0,0,1-3.32,3c-1.11.67-2.31,1.19-3.47,1.78a3.18,3.18,0,0,0-.68.37c-1.47,1.3-3.32,2-4.89,3.19a1.07,1.07,0,0,1-.53.24c-1.87.26-3.59,1.11-5.5,1.24a11.18,11.18,0,0,0-4.84,1.27,5.19,5.19,0,0,1-1.84.61c-1.94.23-3.89.37-5.84.54-1.68.15-3.35.31-5,.58a10.8,10.8,0,0,1-5.6-.29c-1.34-.49-2.75-.77-4.12-1.17-.56-.16-1.1-.4-1.64-.61a4.62,4.62,0,0,0-1.08-.46c-1.8-.26-3.2-1.4-4.8-2.12a6.41,6.41,0,0,1-.95-.65c-.26-.19-.5-.41-.78-.59l-6.59-4.16a38.65,38.65,0,0,1-4.06-2.7,17.19,17.19,0,0,1-2.33-2.87c-.24-.3-.33-.72-.58-1a16.72,16.72,0,0,1-3.22-7,13.37,13.37,0,0,0-.67-1.83c-.25-.6-.57-1.17-.83-1.77a12.53,12.53,0,0,0-1.4-3,3.12,3.12,0,0,1-.44-1.08,7,7,0,0,0-.87-2.58,1.24,1.24,0,0,1-.16-.76c.06-1.44-.67-2.77-.5-4.23a4.3,4.3,0,0,0-.15-1.16c-.21-1.15-.39-2.31-.66-3.45a15.54,15.54,0,0,0-.72-2.22,6.42,6.42,0,0,1-.4-2.27c0-1.6.12-3.26-.65-4.77a1.26,1.26,0,0,1-.22-.73c.44-1.79-.36-3.6.15-5.38a16,16,0,0,1,.27-5,6,6,0,0,1,.27-1.34,5.08,5.08,0,0,0,.22-2.7,6.68,6.68,0,0,1,0-1.73,9.17,9.17,0,0,1,1.57-4.37,2.72,2.72,0,0,0,.47-1.46,11.45,11.45,0,0,1,1.06-4.13,19.74,19.74,0,0,0,1.45-4.84,5.29,5.29,0,0,1,.86-2.58,1.69,1.69,0,0,0,.29-.72,17.23,17.23,0,0,1,2.14-5,9.08,9.08,0,0,1,2.95-3.09l2.37-1.68a6.12,6.12,0,0,1,1.14-.76,10.83,10.83,0,0,0,3.07-2.38,14,14,0,0,1,6.39-3.49c1.92-.38,3.85-.66,5.77-1a10.46,10.46,0,0,0,1.14-.24,26.93,26.93,0,0,1,3.58-.93c1.35-.17,2.63-.57,3.95-.85a11.18,11.18,0,0,1,2.52-.19c1,0,2.07.12,3.11.21a13.74,13.74,0,0,1,2.32.27,20.21,20.21,0,0,0,4.83.65c1.1,0,2.19.29,3.29.42.83.1,1.69.09,2.51.27a71.24,71.24,0,0,1,8.45,2.28,25.68,25.68,0,0,1,4.24,2.42c1.16.68,2.26,1.44,3.48,2.06a13.66,13.66,0,0,1,4.82,4.19,5.43,5.43,0,0,0,.85,1.05,12.31,12.31,0,0,1,3.46,5.34,23.79,23.79,0,0,1,1.22,3.69c.34,1.92.53,3.86.87,5.78a1.72,1.72,0,0,1,0,.39c0,2.15-.08,4.31-.13,6.46a2.54,2.54,0,0,1-.17.95,1.79,1.79,0,0,0,.14,1.68,3.35,3.35,0,0,1,.32,1.09c.16.83.3,1.66.42,2.5a2.36,2.36,0,0,1-2.15,2.53,12.62,12.62,0,0,1-1.37-.1,20.5,20.5,0,0,0-2.34-.19,30.77,30.77,0,0,1-5.83-.62c-1.16-.19-2.33-.29-3.49-.42a2.77,2.77,0,0,1-.58,0c-2.09-.7-4.24-.51-6.38-.51a32.77,32.77,0,0,0-4.85.34c-.7.11-1.39.31-2.08.47a2.22,2.22,0,0,1-2.77-1.51,1.22,1.22,0,0,1-.07-.38,19.38,19.38,0,0,1,.09-5.64c.19-.76.38-1.52.52-2.29a4.1,4.1,0,0,0,0-1.16,38.6,38.6,0,0,1-.38-3.88,3,3,0,0,0-1.44-2.24.83.83,0,0,0-.53-.2c-1,.15-2-.23-3.1.1a11.51,11.51,0,0,1-2.7.26A3.54,3.54,0,0,0,320.8,374c-.06.11-.07.25-.12.37a8,8,0,0,0-1.06,4.07c.11,1.41-.29,2.82-.14,4.28a51.6,51.6,0,0,1,.07,5.28,3.06,3.06,0,0,1-.19.75,14.23,14.23,0,0,0-.28,3.26c-.06,2.23.57,4.42.42,6.61-.14,1.88.15,3.77-.25,5.64a7.69,7.69,0,0,0,0,1.17c-.06,1.55.17,3.1.06,4.68a13.25,13.25,0,0,0,.7,4.23,7.32,7.32,0,0,1,.36,2.08,19.92,19.92,0,0,0,2,7.71,2.3,2.3,0,0,0,2.12,1.51,10.08,10.08,0,0,0,3.3-.13,18.9,18.9,0,0,0,3.39-1.77.27.27,0,0,0,.14-.14c.64-1.73,2.15-3.17,1.81-5.24a.65.65,0,0,1,0-.19,18.35,18.35,0,0,0-1.17-7.66,3.45,3.45,0,0,1-.14-1c-.08-1.2.75-2.12,1.89-1.84a6.58,6.58,0,0,0,3.44-.11,6,6,0,0,1,2.12.17,9.92,9.92,0,0,0,2.72-.05,23.93,23.93,0,0,1,3.88-.1,4.65,4.65,0,0,0,2.08-.39,19.4,19.4,0,0,1,10.76-1.15C359.16,406.13,359.68,406.13,360.41,406.17Z"/><path d="M408.28,569.88a5.67,5.67,0,0,1-2.56-4.3c-.34-1.91-.4-3.9-1.52-5.74a2,2,0,0,0-1.57-.09,7,7,0,0,1-3.48.14,1.32,1.32,0,0,0-.58-.07,11.5,11.5,0,0,1-3.88.22c-2,0-4,0-6.05,0-.32,0-.65,0-1,0a1,1,0,0,0-1,1.15,6.81,6.81,0,0,0,.05.78c0,.26.14.55.06.77-.58,1.51-.26,3.11-.52,4.65a9.29,9.29,0,0,1-.66,2.24,3.36,3.36,0,0,1-3.47,1.6c-1.48-.48-2.95-1-4.62-1.59-2.29,0-4.82-.06-7.35-.06a16.93,16.93,0,0,0-2.13.14c-1.35.17-2.69.4-4.05.54a22.94,22.94,0,0,1-4.46.35,4,4,0,0,0-1.34.24,2.6,2.6,0,0,1-3.07-1c-.26-.36-.5-.76-.75-1.14a2.51,2.51,0,0,1-.21-2.6,5.48,5.48,0,0,0,.46-2.46,11.38,11.38,0,0,1,.4-2.7c.31-1.4.7-2.78,1.05-4.18.24-.94.5-1.88.71-2.83a15.29,15.29,0,0,1,1.22-3.89c.72-1.38.52-2.91.6-4.39.15-2.53.31-5,.59-7.57a6.57,6.57,0,0,1,1.09-3.1,8.69,8.69,0,0,0,1.14-3.11,8.15,8.15,0,0,1,.35-1.31c1.1-2.72,1.75-5.58,2.78-8.32.49-1.33.94-2.66,1.51-4a19.34,19.34,0,0,0,.82-3.61,9.83,9.83,0,0,1,.38-1.31c.53-1.4,1.08-2.79,1.61-4.19a3.72,3.72,0,0,0,.35-1.12c.06-2.4,1.16-4.53,1.7-6.81.45-1.89.83-3.81,1.24-5.71.09-.45.18-.9.29-1.34.27-1.13.91-2.18.85-3.39s.42-2.27.33-3.48a6.48,6.48,0,0,1,.52-3.06,8.74,8.74,0,0,0,.77-3.78,3,3,0,0,1,.62-2,7.78,7.78,0,0,0,1.35-4.18c.1-1.23.38-2.44.57-3.58l1.21-1,3.92-.39c1.68-.17,3.31-.78,5-.4,2.17-.64,4.39,0,6.57-.23,1.64.64,3.33-.21,5,.22a10.81,10.81,0,0,0,2.91-.21,76.92,76.92,0,0,0,9-.73,5,5,0,0,1,1.53.14,10.48,10.48,0,0,0,4.25.26,2.21,2.21,0,0,1,2.6.89,1.72,1.72,0,0,1,.27,1.65,2.45,2.45,0,0,0-.12,1.14c.2,1.61.46,3.22.68,4.83.12.83.16,1.66.29,2.48a11.53,11.53,0,0,0,.53,2.27c.39,1,.92,2,1.39,3a5.08,5.08,0,0,1,.49,1,6.61,6.61,0,0,0,.67,1.6,11,11,0,0,1,.88,2.76c.47,2.43,1,4.83,1.25,7.31a21.46,21.46,0,0,0,1.44,5.68c.66,1.69,1.09,3.46,1.69,5.17a38.09,38.09,0,0,0,1.59,4,47.52,47.52,0,0,1,2,5.3c.21.62.47,1.21.68,1.83.12.36.2.74.29,1.12.13.56.27,1.13.39,1.7a29.09,29.09,0,0,1,1,3.75,20.33,20.33,0,0,0,.88,3.18,9.89,9.89,0,0,1,.45,1.9,12.92,12.92,0,0,0,1.79,5.34,5.52,5.52,0,0,1,.78,2.76,15.57,15.57,0,0,0,.67,3.24,8.41,8.41,0,0,1,.41,3.08,4.39,4.39,0,0,0,.18,1.33c0,.19.2.36.2.55.06,3.07,1.76,5.69,2.35,8.62a14.93,14.93,0,0,1,1.3,5.85,10.88,10.88,0,0,0,.64,3.41,7.84,7.84,0,0,1,.3,1.71,2,2,0,0,1-1.27,2.48,4.43,4.43,0,0,1-1.71.35,22.51,22.51,0,0,0-5.44.11c-1.43-.43-2.83,0-4.24.13a7.83,7.83,0,0,0-1,.15,12.85,12.85,0,0,1-5.62.26,1.18,1.18,0,0,0-.59,0c-1.44.35-2.84-.07-4.26-.17a44.33,44.33,0,0,0-7.38-.29A48.67,48.67,0,0,1,408.28,569.88ZM395.65,508c-.21.16-.29.19-.3.24-.46,1.49-.55,3.08-1.34,4.47-.12.21-.06.52-.12.77-.46,1.89-.24,3.86-.75,5.76a26.45,26.45,0,0,0-.6,3.65c-.25,2.07-.53,4.14-.59,6.21a17.44,17.44,0,0,1-.15,2.51,18.46,18.46,0,0,0-.1,2.45,27.76,27.76,0,0,0,8.11.17c-.13-1.4-.19-2.82-.41-4.22s-.62-2.8-.84-4.21-.29-2.72-.43-4.08a17.83,17.83,0,0,1-.23-1.93,35.5,35.5,0,0,0-.85-6.57c-.16-.9-.29-1.79-.42-2.69A3.79,3.79,0,0,0,395.65,508Z"/><path d="M318.54,544a35.25,35.25,0,0,0,3.73.57,49.73,49.73,0,0,0,5.46,0,9.47,9.47,0,0,1,2.32-.14c.18,0,.39-.06.58-.06,1.18,0,2.25-.62,3.44-.57s2.34.09,3.51.18a14.11,14.11,0,0,1,1.92.28,10.06,10.06,0,0,0,3.66.35,4.08,4.08,0,0,1,.78,0,17.63,17.63,0,0,0,4.64-.4,2.89,2.89,0,0,1,1.34,0c1.9.44,2.4,1,2.29,3a33.69,33.69,0,0,1-.61,3.84c-.22,1.36-.41,2.72-.65,4.07a14.62,14.62,0,0,0,.56,5.77,7.81,7.81,0,0,0,.25,1,15.82,15.82,0,0,1,.45,6c-.06,1.22-.89,2-1.89,2.89-2,.11-4.23.37-6.43.31-1.56,0-3.08.22-4.61.24s-3.37.48-5-.13a2.82,2.82,0,0,0-1-.08c-2.28,0-4.57,0-6.85.12-2.07.11-4.14.38-6.21.58a3.79,3.79,0,0,1-1.16.06,7.54,7.54,0,0,0-2.68,0,19.17,19.17,0,0,1-3.29-.12,56.71,56.71,0,0,1-7-.52,28.49,28.49,0,0,0-3.7-.05,23.5,23.5,0,0,1-6.17-1,13.7,13.7,0,0,0-4.82-.58,42.4,42.4,0,0,1-5.28-.16,4.94,4.94,0,0,0-2.62.6,7.26,7.26,0,0,1-1.81.69,1.75,1.75,0,0,1-1.88-.77,1.65,1.65,0,0,1,0-2,2.83,2.83,0,0,0,.5-2,17.54,17.54,0,0,1,.32-3.87,14,14,0,0,0,.14-5.05,34.28,34.28,0,0,1-.43-4.28,26.45,26.45,0,0,0-1.06-6.31A4.11,4.11,0,0,1,279,544a.89.89,0,0,0,.05-.39c-.47-2.07,0-4.17-.18-6.25a4.76,4.76,0,0,1,.21-1.71,22.76,22.76,0,0,0,.9-5.38c.09-2,.4-4,.58-6a54.05,54.05,0,0,0,.09-7.42c-.06-1.24-.14-2.47-.28-3.7a67.47,67.47,0,0,1-.08-6.82c0-.65-.1-1.3-.07-1.95a14.63,14.63,0,0,0-.56-5.38c.36-2.19-.21-4.39,0-6.61a19.66,19.66,0,0,0-.27-5.07,24.49,24.49,0,0,1-.17-5.47c.12-1.42.13-2.85.22-4.28a22.77,22.77,0,0,0,0-2.74c-.06-.85.33-1.62.2-2.51a2.14,2.14,0,0,1,2.22-2.2h.2c2.67.54,5.3-.07,7.94-.28a17,17,0,0,1,5.41.22,4.53,4.53,0,0,0,1.56,0c1.75-.2,3.5-.44,5.2.32.25.11.62-.06.93-.09a4.1,4.1,0,0,1,1.34-.08c1.37.36,2.71-.16,4.07,0s2.72.27,4.09.33c1,0,1.95-.1,2.92,0a6.44,6.44,0,0,1,2.06.56,2.62,2.62,0,0,1,1.69,2.83,61.53,61.53,0,0,0-.06,8.37,29.75,29.75,0,0,1-.41,6,21.34,21.34,0,0,0-.47,6.39,12.36,12.36,0,0,1-.09,2.35c-.19,2.28.29,4.57-.15,6.84a20.83,20.83,0,0,1,.05,4.67.84.84,0,0,0,0,.39c.82,1.45.29,3.06.54,4.58a3.51,3.51,0,0,1,0,1,3.6,3.6,0,0,0,.47,2.8,2.11,2.11,0,0,1,.29,1.13c.12,2.32.34,4.65.23,7-.08,1.61.09,3.24.05,4.86-.07,2.47.31,5-.32,7.4-.21.81-.15,1.69-.3,2.52a18.77,18.77,0,0,1-.64,2.45C318.37,543.17,318.25,543.65,318.54,544Z"/><path d="M461.67,407.06c.07-1,.13-1.95.2-2.93a9,9,0,0,0,.08-1.55,51,51,0,0,1,.09-7.21,3.14,3.14,0,0,0-.68-2.33c-1-1.16-.64-2.31.61-3.16a3.74,3.74,0,0,1,2-.57,23.21,23.21,0,0,0,4.09-.36,27.75,27.75,0,0,1,5.46-.36c1.3,0,2.6,0,3.89-.09a24.17,24.17,0,0,1,5,.05,18,18,0,0,0,3.11,0c1.43,0,2.85-.05,4.27,0,1.7,0,3.39.11,5.08.11a14.15,14.15,0,0,1,5.2.8,4.21,4.21,0,0,0,3.75-.41,5.59,5.59,0,0,1,3-.5c1,0,1.79,1.12,1.85,2.42.05,1,0,2.09,0,3.13a19.53,19.53,0,0,1-.14,3.51,19,19,0,0,0,.07,4.27,17.16,17.16,0,0,0,.3,2.12c0,.32.11.64.13,1,.1,1.69.18,3.37.28,5.05a2.31,2.31,0,0,1-.87,2.26,3,3,0,0,1-2.19.52c-1.72-.16-3.5-.46-5.19.32a1.87,1.87,0,0,1-.75,0,12,12,0,0,0-1.34,0,49.74,49.74,0,0,1-5.85.21c-2.28,0-4.55.05-6.83.05-.65,0-1.3-.08-1.94-.14a3.36,3.36,0,0,0-1.15-.13,5.46,5.46,0,0,1-2.87-.3,6,6,0,0,0-2.31-.16,2,2,0,0,1-.78,0c-1.83-.4-3.63,0-5.45.18a24.91,24.91,0,0,1-5.66.11,9.49,9.49,0,0,1-3.43-1.36,2.37,2.37,0,0,1-1.21-2.3c0-.71,0-1.43,0-2.15Z"/><path d="M638.17,527c.07-1,.14-1.95.2-2.93a9,9,0,0,0,.08-1.55,52.56,52.56,0,0,1,.09-7.21,3.14,3.14,0,0,0-.68-2.33c-1-1.16-.64-2.31.62-3.16a3.69,3.69,0,0,1,2-.57,23.21,23.21,0,0,0,4.09-.36,27.8,27.8,0,0,1,5.46-.36c1.3,0,2.6,0,3.9-.09a24.17,24.17,0,0,1,5,.05,17.86,17.86,0,0,0,3.1,0c1.43,0,2.85-.05,4.27,0,1.7,0,3.39.11,5.08.11a14.15,14.15,0,0,1,5.2.8,4.21,4.21,0,0,0,3.75-.41,5.59,5.59,0,0,1,3-.5c1,0,1.79,1.12,1.85,2.42.05,1,0,2.09,0,3.13a20.5,20.5,0,0,1-.15,3.51,19.64,19.64,0,0,0,.07,4.27,17.16,17.16,0,0,0,.3,2.12c0,.32.11.64.13,1,.1,1.69.18,3.37.29,5a2.35,2.35,0,0,1-.87,2.26,3,3,0,0,1-2.19.52c-1.73-.16-3.51-.46-5.2.32a1.82,1.82,0,0,1-.74,0,12.16,12.16,0,0,0-1.35,0,49.74,49.74,0,0,1-5.85.21c-2.28,0-4.55,0-6.83,0-.65,0-1.29-.08-1.94-.14a3.36,3.36,0,0,0-1.15-.13,5.46,5.46,0,0,1-2.87-.3,6,6,0,0,0-2.31-.16,2,2,0,0,1-.78,0c-1.83-.4-3.63,0-5.45.18a24.88,24.88,0,0,1-5.66.11,9.49,9.49,0,0,1-3.43-1.36,2.37,2.37,0,0,1-1.21-2.3c0-.71,0-1.43,0-2.15Z"/><path d="M637.61,640.33c-.1-1.74-.13-3.5-.12-5.25a42.82,42.82,0,0,1,.23-5.07,16.51,16.51,0,0,0,0-3.91c-.13-1.21-.18-2.44-.25-3.65a7.88,7.88,0,0,0-.46-3.23,5,5,0,0,1-.25-1.35c-.27-1.47-.6-2.93-.8-4.41a11.35,11.35,0,0,1-.25-4.07,2.51,2.51,0,0,0-.28-1.7c-.41-.8-.73-1.65-1.14-2.6a10.56,10.56,0,0,0,1.06-.65c.43-.34.39-1-.11-1.08a3,3,0,0,1-2.08-1.62c-.79-1.27-1.53-2.57-2.19-3.91a22.22,22.22,0,0,0-2.23-3.19c-2.15-1.34-3.8-3.36-6.11-4.5a8.68,8.68,0,0,1-.79-.56,19.33,19.33,0,0,0-5.92-2.91,9.94,9.94,0,0,1-2.78-.89,4.4,4.4,0,0,0-2.42-.6,2.58,2.58,0,0,1-2.14-.72,1.3,1.3,0,0,0-.86-.4,27.36,27.36,0,0,1-3.29-.36,47.17,47.17,0,0,0-6.82-.37c-.71,0-1.42.14-2.13.18l-1.46,0,0,0a3.66,3.66,0,0,0,1.2-1.49c.06-.23.33-.4.49-.6s.54-.67.78-1c.82-1.27,1.62-2.55,2.43-3.83a33.27,33.27,0,0,0,2-3.35,8.63,8.63,0,0,1,.48-.75c.09-.14.24-.27.26-.42a3.88,3.88,0,0,1,.14-.61c1.32-.23,2.67-.33,4-.63a19.87,19.87,0,0,0,7.08-3.19,7.2,7.2,0,0,1,1.2-.63,39.08,39.08,0,0,0,4.38-2.08,33.16,33.16,0,0,0,3.89-3.23,14.87,14.87,0,0,1,2.09-2,7.2,7.2,0,0,0,2.21-2.15c.73-1,1.48-2,2.18-3a18,18,0,0,0,1.74-2.79c.8-1.77,1.4-3.64,2.18-5.42a6.82,6.82,0,0,0,.69-3.6,2.26,2.26,0,0,1,0-.58c.34-2.85.08-5.72.33-8.57a5.08,5.08,0,0,0,0-.78c-.2-2.79-.43-5.58-.6-8.37-.1-1.75-.13-3.51-.12-5.26a45.17,45.17,0,0,1,.24-5.07,17,17,0,0,0,0-3.9c-.13-1.22-.18-2.45-.24-3.66a7.74,7.74,0,0,0-.47-3.23,5.22,5.22,0,0,1-.25-1.34c-.27-1.47-.6-2.93-.79-4.41a11.15,11.15,0,0,1-.26-4.07,2.48,2.48,0,0,0-.28-1.71c-.41-.8-.73-1.65-1.13-2.59a10.15,10.15,0,0,0,1-.65c.43-.35.39-1-.1-1.08a3,3,0,0,1-2.09-1.63c-.78-1.27-1.52-2.57-2.19-3.9a20.94,20.94,0,0,0-2.23-3.19c-2.15-1.35-3.8-3.37-6.11-4.51a8.68,8.68,0,0,1-.79-.56,19.22,19.22,0,0,0-5.92-2.91,9.72,9.72,0,0,1-2.78-.89,4.37,4.37,0,0,0-2.42-.59,2.63,2.63,0,0,1-2.14-.73,1.26,1.26,0,0,0-.86-.4,25.86,25.86,0,0,1-3.29-.36,47.1,47.1,0,0,0-6.82-.37c-.71.05-1.42.15-2.13.18-2.2.11-4.4.07-6.6.28a8,8,0,0,1-2.9.16,1.5,1.5,0,0,0-.93.24c-1.32.71-2.8.49-4.19.77-2.64-.43-5,.6-7.44,1.33-1.74.52-3.4,1.3-5.12,1.9a13.53,13.53,0,0,0-3.51,1.69,5.06,5.06,0,0,1-2.36.79,10,10,0,0,0-3.7,1.12,14.24,14.24,0,0,0-4.1,3.57,3.72,3.72,0,0,1-.89,1,8.3,8.3,0,0,0-3.49,4.54c-.5,1.4-1.36,2.68-1.85,4.09a13.83,13.83,0,0,0-.93,4.17,23.31,23.31,0,0,1-.66,4.19c-.19.89-.4,1.79-.5,2.69-.15,1.42-.24,2.86-.33,4.29s-.21,3.12-.21,4.67c0,2,.1,3.91.17,5.86,0,.84.12,1.67.13,2.51q.07,4.57.1,9.17c0,.9-.06,1.82,0,2.72a43.43,43.43,0,0,0,.1,5.22c.42,2.42,1.33,4.77,1.24,7.27,0,.19.14.37.17.56.11.58.21,1.15.31,1.73s.2,1.14.28,1.72a25.58,25.58,0,0,0,1.26,4.71c.31.91.6,1.82,1,2.72.75,1.72,1.16,3.59,2.29,5.14a5.92,5.92,0,0,0,2,3.08c1.12,1.09,2.27,2.16,3.41,3.22a16.25,16.25,0,0,0,6.07,3.79,8.25,8.25,0,0,1,2.3,1,6.16,6.16,0,0,0,1.81.68q3.78,1,7.57,1.93a16.56,16.56,0,0,0,2.11.34c2.52.27,5.08-.47,7.58.25a.44.44,0,0,0,.2,0l.46-.06a5.43,5.43,0,0,1-.64,1,16.08,16.08,0,0,0-1.85,2.79c-.42.75-.9,1.48-1.35,2.21a18,18,0,0,0-1.77,3.19,16,16,0,0,1-1.28,2.41,2.48,2.48,0,0,0-.41,1.34,1.36,1.36,0,0,0,0,.29l-1.21.38c-1.74.53-3.4,1.31-5.12,1.91a13.5,13.5,0,0,0-3.51,1.68,5.11,5.11,0,0,1-2.36.8,10,10,0,0,0-3.7,1.11,14.3,14.3,0,0,0-4.1,3.58,3.87,3.87,0,0,1-.89,1,8.29,8.29,0,0,0-3.5,4.53c-.49,1.41-1.35,2.69-1.85,4.09a14.13,14.13,0,0,0-.93,4.18,22.58,22.58,0,0,1-.66,4.19c-.18.89-.39,1.78-.49,2.68-.16,1.43-.25,2.86-.33,4.29s-.22,3.12-.22,4.68c0,2,.1,3.9.17,5.86,0,.83.12,1.67.14,2.5q.06,4.59.1,9.17c0,.91-.06,1.82,0,2.73.1,1.73-.22,3.45.09,5.22.43,2.42,1.33,4.77,1.25,7.27,0,.19.13.37.17.56.11.57.21,1.15.3,1.72s.21,1.15.29,1.73a26.49,26.49,0,0,0,1.25,4.7c.32.92.61,1.83,1,2.73.75,1.72,1.16,3.59,2.29,5.14a5.89,5.89,0,0,0,2,3.07c1.12,1.09,2.26,2.16,3.41,3.23a16.18,16.18,0,0,0,6.07,3.79,8.35,8.35,0,0,1,2.3,1,5.64,5.64,0,0,0,1.81.68q3.78,1,7.56,1.93a15.1,15.1,0,0,0,2.12.34c2.52.28,5.07-.46,7.58.26a.41.41,0,0,0,.19,0,25.08,25.08,0,0,1,6.42.15,3.88,3.88,0,0,0,1.17.07c1.85-.39,3.74,0,5.62-.36s4-.33,6-.9c1.67-.47,3.47-.51,5.18-.9a19.75,19.75,0,0,0,7.07-3.19,6.86,6.86,0,0,1,1.2-.63,36.84,36.84,0,0,0,4.39-2.09,33,33,0,0,0,3.89-3.23,16,16,0,0,1,2.08-2,7.1,7.1,0,0,0,2.22-2.14c.72-1,1.48-2,2.17-3a19.42,19.42,0,0,0,1.75-2.79c.8-1.78,1.39-3.64,2.18-5.43a6.78,6.78,0,0,0,.68-3.59,2.83,2.83,0,0,1,0-.58c.34-2.85.08-5.72.32-8.57a4.07,4.07,0,0,0,0-.78C638,645.92,637.77,643.13,637.61,640.33ZM605.93,512.92a1.83,1.83,0,0,0,.87-.16c1.45-.74,2.94-.37,4.41-.13a2.52,2.52,0,0,1,2.14,1.5,1.27,1.27,0,0,0,.32.49c1.41,1.18,2,2.88,2.67,4.48a5.82,5.82,0,0,1,.33,4.36,2.75,2.75,0,0,1-1.48,1.74,22.3,22.3,0,0,1-3.64,1.38c-1.38.32-2.76.87-4.23.52a1.47,1.47,0,0,0-.77.09,31.74,31.74,0,0,1-6.36.89c-2,.23-4.06-.08-6.08.14Zm-33.74,15.8a23.47,23.47,0,0,0-3.3.74,1.19,1.19,0,0,1-1.52-.55,1.27,1.27,0,0,0-.94-.59,7.4,7.4,0,0,1-4-2.23,16.62,16.62,0,0,1-1.84-2c-.95-1.4-1.89-2.83-1.39-4.68a5.32,5.32,0,0,0,0-1.27,11.39,11.39,0,0,1,4.37-3.36,7,7,0,0,1,4.54-.82,2.94,2.94,0,0,0,1,.12,55.1,55.1,0,0,1,7.38-.22,1.82,1.82,0,0,0,.78-.05c1.2-.65,2.52-.5,3.81-.6a27.46,27.46,0,0,0,3.08-.51,8.33,8.33,0,0,1,3.33-.2A191.71,191.71,0,0,0,572.19,528.72Zm42.44,91.94a22.36,22.36,0,0,1-1.6,3.56c-.74,1.2-1.33,2.56-2.62,3.35a1.46,1.46,0,0,0-.48.61,31.65,31.65,0,0,1-3.87,5.13c-1.08,1.36-2.43,2.44-3.6,3.7a5.75,5.75,0,0,0,.44.54,16.1,16.1,0,0,0,3.31,2.73,3.86,3.86,0,0,1,1,.64,19.76,19.76,0,0,0,4.73,3.44,1.19,1.19,0,0,1,.69,1.46,1.28,1.28,0,0,0,.24,1.09,7.38,7.38,0,0,1,1.28,4.42,17.71,17.71,0,0,1-.13,2.73c-.32,1.65-.66,3.33-2.33,4.29a5,5,0,0,0-.9.89,11.5,11.5,0,0,1-5.47-.71,7.08,7.08,0,0,1-3.79-2.64,3.22,3.22,0,0,0-.59-.76l-.31-.22c.1.36.19.72.3,1.07a1.19,1.19,0,0,1-.55,1.52,1.29,1.29,0,0,0-.59,1,7.47,7.47,0,0,1-2.23,4,17.39,17.39,0,0,1-2,1.83c-1.4,1-2.83,1.89-4.68,1.39a5.9,5.9,0,0,0-1.27,0,11.32,11.32,0,0,1-3.36-4.37,7,7,0,0,1-.82-4.54,2.91,2.91,0,0,0,.12-1l-.06-.37c-.18.32-.37.64-.55,1a1.18,1.18,0,0,1-1.46.68,1.29,1.29,0,0,0-1.09.25,7.45,7.45,0,0,1-4.42,1.28,16.54,16.54,0,0,1-2.73-.14c-1.65-.31-3.34-.66-4.29-2.32a5.37,5.37,0,0,0-.89-.91,11.35,11.35,0,0,1,.71-5.46,7,7,0,0,1,2.64-3.79,3.22,3.22,0,0,0,.76-.59c1.44-2,3.38-3.58,5.06-5.38.18-.19.44-.36.51-.59a8.69,8.69,0,0,1,2.2-3c-.33-.36-.68-.71-1-1-.81-.81-2-1.26-2.73-2.18a13,13,0,0,0-1.23-1.23,4.93,4.93,0,0,0-1.09-.8,5.33,5.33,0,0,1-1.74-1.24,1.77,1.77,0,0,0-.77-.56c-1.56-.51-2.35-1.82-3.22-3a2.55,2.55,0,0,1-.45-2.58,1.3,1.3,0,0,0,.12-.57c-.16-1.84.63-3.45,1.28-5.06a5.8,5.8,0,0,1,2.86-3.32,2.71,2.71,0,0,1,2.27-.18,22.26,22.26,0,0,1,3.55,1.6c1.2.74,2.56,1.33,3.36,2.62a1.46,1.46,0,0,0,.61.48l.69.39a4.07,4.07,0,0,1,0-.7,1.93,1.93,0,0,0-.15-.95c-.74-1.45-.37-2.94-.14-4.4a2.55,2.55,0,0,1,1.51-2.15,1.23,1.23,0,0,0,.48-.32c1.19-1.41,2.89-2,4.49-2.67a5.87,5.87,0,0,1,4.36-.33,2.75,2.75,0,0,1,1.74,1.48,22.06,22.06,0,0,1,1.38,3.65c.32,1.37.87,2.75.52,4.22a1.47,1.47,0,0,0,.09.77c.08.26.15.51.22.77a3.82,3.82,0,0,1,.48-.51,1.74,1.74,0,0,0,.56-.78c.5-1.55,1.82-2.34,3-3.21a2.55,2.55,0,0,1,2.58-.45,1.27,1.27,0,0,0,.57.12c1.84-.16,3.44.63,5.06,1.28a5.82,5.82,0,0,1,3.32,2.85A2.75,2.75,0,0,1,614.63,620.66Z"/><path d="M457.53,410.44a5.21,5.21,0,0,0,0-.79c-.2-2.79-.43-5.58-.59-8.37-.11-1.75-.14-3.5-.12-5.25a42.72,42.72,0,0,1,.23-5.07,17,17,0,0,0,0-3.91c-.13-1.21-.17-2.44-.24-3.65a7.79,7.79,0,0,0-.47-3.24,5.68,5.68,0,0,1-.25-1.34c-.26-1.47-.6-2.93-.79-4.41a11.37,11.37,0,0,1-.26-4.07,2.45,2.45,0,0,0-.28-1.7c-.41-.8-.72-1.65-1.13-2.6a11.89,11.89,0,0,0,1.06-.65c.42-.35.38-1-.11-1.08a3,3,0,0,1-2.09-1.63c-.78-1.27-1.52-2.57-2.18-3.9a21.51,21.51,0,0,0-2.24-3.19c-2.15-1.35-3.8-3.37-6.11-4.5-.28-.14-.51-.4-.79-.57a18.87,18.87,0,0,0-5.92-2.9,9.74,9.74,0,0,1-2.78-.9,4.45,4.45,0,0,0-2.41-.59,2.58,2.58,0,0,1-2.15-.73,1.21,1.21,0,0,0-.86-.39,27.83,27.83,0,0,1-3.29-.37,48.55,48.55,0,0,0-6.82-.36c-.71.05-1.42.14-2.13.17-2.2.11-4.4.07-6.59.29a8.07,8.07,0,0,1-2.9.15,1.48,1.48,0,0,0-.93.24c-1.32.71-2.81.5-4.2.77-2.63-.43-5,.6-7.44,1.33-1.74.52-3.4,1.31-5.11,1.91a13.5,13.5,0,0,0-3.51,1.68,5.15,5.15,0,0,1-2.36.8,9.71,9.71,0,0,0-3.7,1.11,13.87,13.87,0,0,0-4.1,3.58,4,4,0,0,1-.9,1,8.34,8.34,0,0,0-3.49,4.54c-.5,1.41-1.36,2.68-1.85,4.09a13.83,13.83,0,0,0-.93,4.17,23.42,23.42,0,0,1-.66,4.2c-.19.89-.4,1.78-.5,2.68-.15,1.43-.24,2.86-.33,4.29s-.21,3.12-.21,4.68c0,1.95.1,3.9.17,5.85,0,.84.12,1.67.13,2.51.05,3.06.08,6.11.11,9.17,0,.91-.07,1.82,0,2.72a43.64,43.64,0,0,0,.1,5.23c.42,2.42,1.33,4.76,1.25,7.27,0,.18.13.37.17.56.11.57.2,1.14.3,1.72s.2,1.15.29,1.72a25.55,25.55,0,0,0,1.25,4.71c.31.92.6,1.83,1,2.73.75,1.71,1.15,3.58,2.29,5.13a6,6,0,0,0,2,3.08c1.12,1.09,2.27,2.16,3.41,3.23a16.47,16.47,0,0,0,6.08,3.79,8.35,8.35,0,0,1,2.3,1,5.47,5.47,0,0,0,1.81.68c2.51.66,5,1.31,7.56,1.93a16.56,16.56,0,0,0,2.11.34c2.52.27,5.08-.47,7.59.26a.61.61,0,0,0,.19,0,25.55,25.55,0,0,1,6.42.15,4.18,4.18,0,0,0,1.16.08c1.86-.39,3.75,0,5.63-.36s4-.34,6-.9c1.68-.48,3.48-.51,5.18-.91a19.46,19.46,0,0,0,7.08-3.19,8,8,0,0,1,1.2-.63,35.17,35.17,0,0,0,4.38-2.08,33.16,33.16,0,0,0,3.89-3.23,15.42,15.42,0,0,1,2.09-2,7.24,7.24,0,0,0,2.22-2.15c.72-1,1.47-2,2.17-3a18.38,18.38,0,0,0,1.75-2.79c.8-1.77,1.39-3.64,2.17-5.42a6.79,6.79,0,0,0,.69-3.59,3,3,0,0,1,0-.59C457.54,416.16,457.28,413.29,457.53,410.44Zm-64.93-4.08a1.19,1.19,0,0,1-1.51-.55,1.3,1.3,0,0,0-.95-.6,7.45,7.45,0,0,1-4-2.22,17.57,17.57,0,0,1-1.84-2c-.94-1.39-1.89-2.82-1.39-4.68a5.27,5.27,0,0,0,0-1.27,11.56,11.56,0,0,1,4.36-3.36,7,7,0,0,1,4.55-.81,3.14,3.14,0,0,0,.95.12,25.4,25.4,0,0,1,4.61-.23,23.11,23.11,0,0,0,.76,4.51c.63,3.36-.23,6.79-.45,10.21A20,20,0,0,0,392.6,406.36Zm17.73-1.55a19.35,19.35,0,0,0-3.22-.27l-.37-2.12a4.71,4.71,0,0,1-.1-1.54,9.23,9.23,0,0,1,.53-1.5,9.11,9.11,0,0,0,.36-3.29q-.06-3.21-.3-6.4l.58-.11a7.52,7.52,0,0,1,3.65-.13c.25.07.58.17.76.06,1-.6,1.92-.12,2.78.3a8.19,8.19,0,0,0,2,.67q.27,7.26.08,14.53C414.85,404.68,412.58,405.09,410.33,404.81Zm30.05-4.45a2.74,2.74,0,0,1-1.47,1.73,22.8,22.8,0,0,1-3.65,1.39c-1.37.32-2.75.86-4.23.51a1.58,1.58,0,0,0-.77.09,15.18,15.18,0,0,1-3.33.63q-.23-7.18-.47-14.37a4.11,4.11,0,0,0,1-.18,5.05,5.05,0,0,1,2.1-.35,1.89,1.89,0,0,0,.95-.16c1.46-.74,2.95-.37,4.41-.13a2.54,2.54,0,0,1,2.14,1.5,1.27,1.27,0,0,0,.32.49c1.41,1.18,2,2.88,2.67,4.48A5.79,5.79,0,0,1,440.38,400.36Z"/></svg>