<svg id="Camada_1" data-name="Camada 1" xmlns="http://www.w3.org/2000/svg" viewBox="0 0 1080 1080"><path d="M467.76,395.27a5.91,5.91,0,0,0,0-1c-.26-3.65-.57-7.3-.78-11-.13-2.28-.18-4.58-.16-6.87a56.45,56.45,0,0,1,.31-6.64,22.4,22.4,0,0,0,0-5.11c-.17-1.59-.23-3.2-.32-4.78s.07-2.86-.61-4.23a6.69,6.69,0,0,1-.32-1.76c-.36-1.93-.79-3.84-1.05-5.78-.23-1.75-.75-3.5-.33-5.32a3.22,3.22,0,0,0-.37-2.23c-.53-1.05-1-2.16-1.48-3.4a15.22,15.22,0,0,0,1.38-.85c.56-.45.51-1.31-.14-1.41a3.93,3.93,0,0,1-2.73-2.13c-1-1.66-2-3.37-2.86-5.11a29,29,0,0,0-2.92-4.18c-2.81-1.76-5-4.4-8-5.89a10.39,10.39,0,0,1-1-.74c-2.45-1.53-4.84-3.16-7.74-3.8a13.14,13.14,0,0,1-3.64-1.17,5.8,5.8,0,0,0-3.16-.78,3.42,3.42,0,0,1-2.81-1,1.64,1.64,0,0,0-1.12-.51,38.65,38.65,0,0,1-4.31-.48,61.93,61.93,0,0,0-8.93-.48c-.93.06-1.85.18-2.78.23-2.88.14-5.76.09-8.63.37-1.25.12-2.5.54-3.8.2a2,2,0,0,0-1.22.31c-1.73.94-3.67.65-5.49,1-3.45-.55-6.57.79-9.73,1.74-2.28.69-4.45,1.71-6.7,2.5a17.48,17.48,0,0,0-4.59,2.2,6.73,6.73,0,0,1-3.09,1.05,12.91,12.91,0,0,0-4.84,1.45,18.46,18.46,0,0,0-5.37,4.68,5.09,5.09,0,0,1-1.17,1.34,10.93,10.93,0,0,0-4.57,5.94c-.65,1.84-1.78,3.51-2.42,5.35a18.05,18.05,0,0,0-1.22,5.47,30.49,30.49,0,0,1-.87,5.49c-.24,1.16-.51,2.33-.64,3.51-.21,1.86-.32,3.74-.44,5.61-.12,2-.28,4.08-.28,6.13,0,2.55.14,5.1.23,7.66,0,1.09.15,2.18.17,3.28q.09,6,.14,12c0,1.19-.08,2.38,0,3.57.13,2.27-.28,4.51.13,6.83.55,3.17,1.73,6.24,1.63,9.52,0,.24.17.48.22.73.14.75.27,1.5.4,2.25s.26,1.51.37,2.26a34.55,34.55,0,0,0,1.64,6.16c.41,1.2.79,2.39,1.31,3.57,1,2.24,1.51,4.69,3,6.72a7.73,7.73,0,0,0,2.58,4c1.47,1.43,3,2.82,4.46,4.22a21.35,21.35,0,0,0,7.95,5,11,11,0,0,1,3,1.36,7.71,7.71,0,0,0,2.37.9c3.29.86,6.59,1.71,9.9,2.52a21.45,21.45,0,0,0,2.76.45c3.3.35,6.65-.61,9.93.33a.53.53,0,0,0,.25,0,32.8,32.8,0,0,1,8.4.2,5.32,5.32,0,0,0,1.53.09c2.43-.51,4.9,0,7.36-.46s5.23-.44,7.81-1.18c2.19-.62,4.55-.67,6.78-1.19a25.75,25.75,0,0,0,9.26-4.17,8.66,8.66,0,0,1,1.57-.82,48,48,0,0,0,5.74-2.74,43.33,43.33,0,0,0,5.09-4.22c1-.85,1.66-2.05,2.73-2.67a9.38,9.38,0,0,0,2.9-2.81c.94-1.31,1.93-2.59,2.84-3.92a25.42,25.42,0,0,0,2.29-3.66c1-2.32,1.82-4.76,2.85-7.09a8.86,8.86,0,0,0,.89-4.71,3.89,3.89,0,0,1,.05-.76C467.78,402.75,467.43,399,467.76,395.27Zm-75.92-6.86a5.3,5.3,0,0,1-1.5.32,25.52,25.52,0,0,0-7.56,1.19,1.54,1.54,0,0,1-2-.71,1.68,1.68,0,0,0-1.24-.78,9.84,9.84,0,0,1-5.28-2.91,22.26,22.26,0,0,1-2.4-2.66c-1.24-1.82-2.47-3.69-1.82-6.12a7,7,0,0,0,0-1.66c1.47-2.17,3.66-3.27,5.71-4.4a9.2,9.2,0,0,1,5.95-1.06,4.23,4.23,0,0,0,1.25.15c3.21-.54,6.44-.19,9.66-.29a2.43,2.43,0,0,0,1-.07,6.23,6.23,0,0,1,2.46-.66c-.17.16-.33.32-.48.49a12.16,12.16,0,0,0-2.39,12.2,12,12,0,0,0,4.64,5.74,8.68,8.68,0,0,0,1,.85c-.46,0-1-.16-1.44-.15A20.22,20.22,0,0,0,391.84,388.41Zm53.47-6.34a3.59,3.59,0,0,1-1.93,2.28,30,30,0,0,1-4.77,1.81c-1.8.42-3.6,1.13-5.53.67a2.09,2.09,0,0,0-1,.12c-2.71.88-5.53.85-8.32,1.17s-5.4-.12-8.1.19a17.37,17.37,0,0,0-3.8-.32,12.54,12.54,0,0,0,4.65-6.88,13.11,13.11,0,0,0-3.74-12.54,18.48,18.48,0,0,0,7.07.94c1.5,0,3-.65,4.55-.52a15.64,15.64,0,0,0,2.27,0,6.73,6.73,0,0,0,1.75-.26,6.86,6.86,0,0,1,2.76-.46,2.48,2.48,0,0,0,1.24-.2c1.9-1,3.85-.49,5.77-.18a3.32,3.32,0,0,1,2.8,2,1.52,1.52,0,0,0,.42.63c1.85,1.55,2.6,3.78,3.5,5.87A7.62,7.62,0,0,1,445.31,382.07Z"/><path d="M548.29,702.55c3.22,1.46,6.1,2.56,8.78,4,3,1.67,6.34,3,8.74,5.67a10,10,0,0,1,2.07,3.21,26.41,26.41,0,0,0,1.24,3.08,5,5,0,0,1,.67,2.43,3.54,3.54,0,0,0,.32,1.47,14.77,14.77,0,0,1,1.3,4.4,11.16,11.16,0,0,0,1,3.42,9.81,9.81,0,0,1,.2,7.7c-.6,1.78-1.35,3.52-1.77,5.34s-1.59,3.39-2.25,5.14c-1.86,2-3.16,4.42-5.23,6.24-1.85,1.63-3.44,3.58-5.38,5.07-2.13,1.64-4.27,3.35-7.18,3.64a20.12,20.12,0,0,0-4.11,1.28,10.68,10.68,0,0,1-1.91.69,35.31,35.31,0,0,0-7.17,1.85,3.9,3.9,0,0,1-1.76.19c-2.48-.3-5,.08-7.42.08a4.84,4.84,0,0,0-1.52.18,14.44,14.44,0,0,1-5.27.59,32.78,32.78,0,0,0-6.34.13,11,11,0,0,1-2.29-.08,5.86,5.86,0,0,0-1-.1c-1.69.2-3.37.46-5.06.63q-2.81.28-5.61.44c-1.69.1-3.38.1-5.07.14s-3.42.09-5.12.08c-1.53,0-3.08.34-4.58-.26a1.91,1.91,0,0,0-1-.05,32.11,32.11,0,0,1-6.86.28c-2.12,0-4.24.38-6.36.5-3.83.21-7.64.87-11.49.64a6.13,6.13,0,0,1-2.19-.54,2.66,2.66,0,0,1-1.51-2,11.51,11.51,0,0,1-.5-4.05,10.73,10.73,0,0,0-.14-1.77c0-1.27-.05-2.54,0-3.8a13,13,0,0,0,.24-2.29c-.35-2.19-.42-4.4-.73-6.58a31.05,31.05,0,0,1-.29-7.14c.18-2.11.18-4.24.4-6.35a75.72,75.72,0,0,0,0-11.47c-.1-1.94.39-3.92-.3-5.84a1.43,1.43,0,0,1,.08-.75,19.28,19.28,0,0,0,.25-5.09c-.11-2.82-.14-5.63-.13-8.45s.14-5.46.17-8.19c0-.84-.13-1.68-.19-2.52s-.12-1.71-.11-2.56a49.8,49.8,0,0,0-.35-7.62,82.54,82.54,0,0,1-.66-13c.07-2.9.74-5.78.25-8.68.53-1.86,0-3.73,0-5.59,0-1.35.13-2.7.11-4s-.26-2.55-.2-3.81a29.19,29.19,0,0,0-.14-5.84c-.46-.41-.89-.81-1.39-1.27.28-.66.51-1.3.82-1.89a1.85,1.85,0,0,1,1.39-1c2.7-.4,5.38-.87,8.09-1.21a15.28,15.28,0,0,1,2.28.25,49.43,49.43,0,0,0,5.31.26c1.69-.12,3.39.17,5.1.15a17.31,17.31,0,0,0,5.32-.36,3.32,3.32,0,0,1,1.26.13,4.22,4.22,0,0,0,1.26.13c2.57-.48,5.11.06,7.66.11a9,9,0,0,0,1,.06c4.42-.39,8.85.12,13.28,0a6.26,6.26,0,0,1,2,.2,15.79,15.79,0,0,0,4.84.36c3.32,0,6.64-.06,10-.05.93,0,1.87.14,2.8.22s2,.16,3.06.26a12.71,12.71,0,0,0,3.27.31,7.73,7.73,0,0,1,3,.43c.76.12,1.52.28,2.28.34a26.46,26.46,0,0,1,3,.6,47.4,47.4,0,0,1,5.79,1.94c1.76.6,3.52,1.19,5.27,1.81a3.65,3.65,0,0,1,1.39.65,14.79,14.79,0,0,0,5,2.93c2.27.93,3.67,2.71,5.3,4.27,2.2,2.11,3.31,4.92,4.31,7.74a7.53,7.53,0,0,1,.18,1.52,11,11,0,0,0,.4,2.77c1,2.55.87,5.18.78,7.82a9.23,9.23,0,0,0,.06,2A18.83,18.83,0,0,1,569,681a4.91,4.91,0,0,1-.61,1.65c-1.08,1.82-2.13,3.68-3.36,5.4a64.89,64.89,0,0,1-4.31,5.34,29.21,29.21,0,0,1-4.1,3.41,13.09,13.09,0,0,0-1.75,1.47,11,11,0,0,1-4.56,3.2A20.41,20.41,0,0,0,548.29,702.55Zm-44,36.23a14.58,14.58,0,0,1,5.63.17,17.32,17.32,0,0,0,4,.38,20.92,20.92,0,0,0,8.17-2.7,1.7,1.7,0,0,0,.56-.51,16.65,16.65,0,0,0,2.86-7c.59-3.58.57-3.59-1.23-6.71a2.75,2.75,0,0,0-1-1.15c-1.83-.86-3.71-1.61-5.57-2.39-.07,0-.17,0-.25,0-1.68-.3-3.39-.18-5-.33a42.76,42.76,0,0,0-4.53,0c-.5,0-1,.07-1.51.08-1.28,0-1.73.43-1.66,1.64.17,2.79.42,5.58.53,8.37s.32,5.62-.84,8.31A7.9,7.9,0,0,0,504.25,738.78Zm.75-54.9c0,1.27,0,2.54,0,3.81a1.36,1.36,0,0,0,1.19,1.45,24.19,24.19,0,0,0,3.8.19c1.35-.05,2.71-.44,4-.37a6.38,6.38,0,0,0,3.87-1.06c1.15-.72,2.15-1.66,3.28-2.43a3.67,3.67,0,0,0,1.66-3,40.47,40.47,0,0,1,.87-5.76,6.78,6.78,0,0,0,0-3,3.47,3.47,0,0,0-3-3.06,25.35,25.35,0,0,1-3.19-.83,4,4,0,0,0-2.5-.09,3.06,3.06,0,0,1-1.74.11c-2.61-.87-5.23.12-7.84-.09a1.33,1.33,0,0,0-1.35,1.76,13.81,13.81,0,0,1,.06,4.58,4.63,4.63,0,0,0,.23,2A17.45,17.45,0,0,1,505,683.88Z"/><path d="M748,722.67a14.72,14.72,0,0,0-.15,2.66c.38,2.7.95,5.37,1.28,8.08a27.38,27.38,0,0,1,.2,5.35c-.16,2.2-.61,4.38-.93,6.57a45.28,45.28,0,0,0-.13,8.15c0,1.36.08,2.72.08,4.08s0,2.54-.06,3.81a2.82,2.82,0,0,1-.17,1.25,3.12,3.12,0,0,0,0,2.47c.43,1.63,0,2.45-1.55,3a25.15,25.15,0,0,1-7.76,1.45c-3.16,0-6.25-.57-9.42-.49-3.4.09-6.83-.26-10.22.2-1.82.24-3.52-.34-5.3-.33-1.43,0-2.87-.14-4.3-.24a12.33,12.33,0,0,1-1.5-.23c-.17,0-.33-.23-.46-.21-1.93.39-3.63-.68-5.47-.84s-2.33-.91-2.32-2.44c0-.59.05-1.17.07-1.76a41.68,41.68,0,0,0,.06-4.87,13,13,0,0,1,.11-3.3,7.84,7.84,0,0,0,0-4.27,1.09,1.09,0,0,1,0-.51c.31-3.26-.56-6.44-.62-9.66a71.59,71.59,0,0,1-.11-7.89,34.13,34.13,0,0,0-.17-5.34,134.31,134.31,0,0,1,0-14.33c0-1.19.3-2.37.37-3.56a11.23,11.23,0,0,0-.09-2.78c-.46-2.25-.28-4.55-.62-6.8-.23-1.55.44-2.87.91-4.19a6.78,6.78,0,0,0,.19-4,8.68,8.68,0,0,1-.16-3.55,11.43,11.43,0,0,0,0-3.55c-.26-1.68-.17-3.41-.37-5.1a16.37,16.37,0,0,1,.57-7.05,10.49,10.49,0,0,0,.11-4.33c-.19-1.43-.1-2.87-.28-4.3q-.12-1-.27-2c0-.25-.26-.52-.21-.73.5-2.07-.15-4.07-.31-6.1a6,6,0,0,1,.08-1.52,3.49,3.49,0,0,0-.14-2.26,2,2,0,0,1,0-1.48,2.73,2.73,0,0,0,0-1.5c-.72-1.93-.33-3.89-.26-5.84a4.36,4.36,0,0,1,.4-1.47,2.12,2.12,0,0,1,3.31-1.07,8.4,8.4,0,0,1,1.05,1c2.22-.2,4.5-.49,6.79-.57,3.07-.11,6.15-.06,9.23-.07a17.85,17.85,0,0,0,1.79,0,18.26,18.26,0,0,1,4-.48,30.34,30.34,0,0,0,3.81,0c1.86,0,3.74,0,5.6.2a7,7,0,0,0,2.78-.09,2.16,2.16,0,0,1,.76-.06,41.37,41.37,0,0,0,5.06.4c2.63-.12,5.3.36,7.89-.4,1.37-.41,2.72,0,4.07.1a9.65,9.65,0,0,0,2.79.06,2.65,2.65,0,0,1,1.25,0,5.3,5.3,0,0,0,3,0,6.07,6.07,0,0,1,1.76-.11c2.2.06,4.41.45,6.62,0a4.62,4.62,0,0,1,1.26.13c1.2.07,2.39.1,3.58.18.67,0,1.34.17,2,.24s1.17.09,1.75.13,1,0,1.48.1a5.37,5.37,0,0,0,1.5.19c1.32-.28,2.54.2,3.8.35,1.43.17,2.87.37,4.29.65,1,.2,2,.55,2.93.85a19.37,19.37,0,0,1,9.32,6.4,52.7,52.7,0,0,0,5.31,5.47A35.68,35.68,0,0,1,811.6,659a1.18,1.18,0,0,1,.27.7c0,1.26.66,2.27,1,3.39a65.31,65.31,0,0,1,1.76,6.38c.55,2.46.32,4.93.39,7.39a18.41,18.41,0,0,1-.74,4.23A14,14,0,0,1,813,685a12.31,12.31,0,0,0-.8,2.15,12.13,12.13,0,0,1-1.43,3,31,31,0,0,0-1.89,3.62c-.19.38-.31.89-.62,1.08a11.81,11.81,0,0,0-3.07,3.35,5.68,5.68,0,0,1-2.06,1.48c-1.85,1-3.72,2-5.55,3.13-1.37.82-2.65,1.79-4,2.65,3.76,2.28,7.39,4.34,10.86,6.63a10.5,10.5,0,0,1,4.24,5c.72,1.82,1.75,3.49,1.87,5.51a2,2,0,0,0,.31,1c1,1.43.94,3.07.83,4.67a7,7,0,0,0,.31,2.5,15.48,15.48,0,0,1,.56,3.52c.11,2,.08,4.09.11,6.13a5,5,0,0,0,0,1.28c.63,2.19.21,4.4.19,6.6,0,.34-.19.71-.11,1,.52,2.27.12,4.58.31,6.86a7.78,7.78,0,0,0,2.21,5,30.85,30.85,0,0,0,3.34,2.79c1.61,1.2,1.65,1.21,1,3.39a5.23,5.23,0,0,1-3.92.6c-1.15,1.16-2.51.67-3.85.55a20.2,20.2,0,0,0-3.3,0c-1.53.12-3,.34-4.57.51a2.77,2.77,0,0,1-.76,0c-2.29-.41-4.57,0-6.86,0a16.52,16.52,0,0,1-3.26-.52,12.43,12.43,0,0,0-5.07-.36c-1.55.31-3-.47-4.53-.33-2.28.21-4.58.26-6.88.36a5.67,5.67,0,0,0-2.86,1,2.87,2.87,0,0,1-2.65.19c-2.48-.75-3.57-2.49-3.94-4.85-.16-1-.14-2-.21-3.06s-.13-2.21-.23-3.31a5.42,5.42,0,0,1-.19-1c.47-3.39-.47-6.74-.27-10.14a37.92,37.92,0,0,0-.27-6.65c-.2-1.67-.83-3.29-1.18-5a67.71,67.71,0,0,0-2.06-7.37,6.83,6.83,0,0,0-3.43-4.24c-1.28-.64-2.43-1.58-4-1.5a1.91,1.91,0,0,1-1-.28,4.8,4.8,0,0,0-5.1.33A10.83,10.83,0,0,1,748,722.67Zm1.38-29.83a34.29,34.29,0,0,1,4.65-.76,21.55,21.55,0,0,0,4-.59,11.54,11.54,0,0,0,6.76-3.7,7.6,7.6,0,0,0,1.85-3.25,36.9,36.9,0,0,0,.51-3.78A2.22,2.22,0,0,0,767,680c-.15-.66-.28-1.32-.49-2a37.25,37.25,0,0,0-1.72-5c-1-2.08-2.56-3.6-5.13-3.56-.76,0-1.53-.23-2.29-.19A34.48,34.48,0,0,1,750,669c-.36,0-.78.24-1.23.39a56.2,56.2,0,0,0-.59,8.16c0,1.79.14,3.58.1,5.37s.44,3.69.14,5.56a17.47,17.47,0,0,0-.08,2.29A2.06,2.06,0,0,0,749.38,692.84Z"/><path d="M670.91,547.57c.79-1.31,1.38-2.22,1.3-3.21-.15-1.93.6-3.7.66-5.58a35.71,35.71,0,0,0,.18-3.57c-.22-3.6.55-7.09.91-10.63.12-1.11.11-2.22.14-3.33.07-2.55.12-5.11.21-7.67.05-1.36.26-2.72.21-4.07-.1-2.88,1-5.47,1.77-8.16a7.18,7.18,0,0,0,.43-1.73,20.87,20.87,0,0,1,1.33-5.69c.33-1.05.52-2.15.78-3.22a10.62,10.62,0,0,1,.43-1.46c.69-1.74,1.53-3.43,2.1-5.22a41.17,41.17,0,0,0,.9-4.5c.18-.91.34-1.83.61-2.72a1.83,1.83,0,0,1,2.32-1.48,15.75,15.75,0,0,0,8-.77,10.63,10.63,0,0,1,2.51-.42c2.11-.17,4.19-.69,6.35-.31a12.22,12.22,0,0,0,3-.28,38,38,0,0,1,3.83-.31,54.23,54.23,0,0,0,9.94-.51,21.33,21.33,0,0,1,3.58-.06c1.71,0,3.41.05,5.12,0a3.86,3.86,0,0,1,3.79,5.24,14.85,14.85,0,0,0-.87,3.18,19,19,0,0,1-1.11,3.12,5.34,5.34,0,0,0-.56,3,4.93,4.93,0,0,1-.89,3.15,5.47,5.47,0,0,0-1,3.12,4.06,4.06,0,0,1-.29,1.24c-.93,3.54-1.88,7.07-2.78,10.62a65.25,65.25,0,0,1-1.93,6.86,20.38,20.38,0,0,0-.64,3.76c-.1.59-.22,1.18-.32,1.77-.28,1.77-.47,3.55-.85,5.3-.63,2.9-1.29,5.81-2.1,8.66-1,3.6-2.22,7.15-3.33,10.73a12.19,12.19,0,0,0-.25,1.51,2.68,2.68,0,0,1-.16,1c-.91,1.39-1,3-1.48,4.57-.61,2-1.14,4.09-1.69,6.13-.09.33-.13.67-.24,1-.81,2.5-1.54,5-2.47,7.5-.67,1.74-.79,3.67-1.85,5.28a1.14,1.14,0,0,0-.14.75c.28,1.72-.49,3.17-1.21,4.61a8.8,8.8,0,0,0-1,3.92,6.54,6.54,0,0,1-.67,2.17,42.37,42.37,0,0,1-2.68,6.89,2,2,0,0,0-.17.49c-.88,3.29-1.78,6.57-2.62,9.87a8,8,0,0,0-.18,2.29c.08,1.94-.59,3.86-.11,5.82.16.66-.36,1.13-.92,1.41a6.84,6.84,0,0,1-3.71.77c-2.3-.18-4.58-.56-6.88-.61-3.07-.08-6.08-.74-9.18-.54-3.49.23-7,.18-10.49.11a80.83,80.83,0,0,0-9.72-.08c-2.26-1-4.55.15-6.82,0-1.53-.13-3.07,0-4.61,0a6.72,6.72,0,0,0-2.77.29,2.8,2.8,0,0,1-2.69-.31,3,3,0,0,1-1.19-2.12,38.16,38.16,0,0,0-1.58-4.29c-.7-1.92-1.35-3.86-2-5.79-.89-2.66-1.78-5.33-2.63-8a19.63,19.63,0,0,1-.65-3,19.1,19.1,0,0,0-1.28-4.64,50,50,0,0,1-2-6.85,10.59,10.59,0,0,0-.8-2.38,19.48,19.48,0,0,1-1.4-4.06c-.57-2.14-1-4.31-1.58-6.45a38.07,38.07,0,0,1-1.44-5.42,42.83,42.83,0,0,0-1.48-6.92c-.53-1.93-1-3.92-1.43-5.91a7,7,0,0,1-.2-1c-.14-2.74-1-5.34-1.55-8-.58-3.08-1.48-6.13-1.57-9.3a3.88,3.88,0,0,0-.32-1.75c-.9-1.55-.89-3.28-1.16-5a10.31,10.31,0,0,0-1-3.38,9.93,9.93,0,0,1-.92-3.67,47.1,47.1,0,0,0-1.91-8.48,2.59,2.59,0,0,0-.43-.92,11.46,11.46,0,0,1-2-5.17,5.32,5.32,0,0,0-.25-1,24.59,24.59,0,0,1-1.71-5.55,1.77,1.77,0,0,0-.21-.74c-1.76-2.26-2-5.21-3.55-7.58a3.34,3.34,0,0,1-.37-1.21,2.29,2.29,0,0,1,2.55-2.87c.85,0,1.7,0,2.55,0a3.15,3.15,0,0,1,1,0,20.48,20.48,0,0,0,5.76.94,7.44,7.44,0,0,0,2.26,0,2.18,2.18,0,0,1,1-.07c2.35.66,4.77.24,7.14.5a11.84,11.84,0,0,0,2.3-.09,16.37,16.37,0,0,1,4.84-.19,1.26,1.26,0,0,0,.51,0c3-.71,6.1-.48,9.11-.9,2.62-.37,5.22-.37,7.84-.48a22.66,22.66,0,0,1,4.28,0,2.38,2.38,0,0,1,2.21,1.79c.46,1.54,1.66,2.76,2,4.37.05.25.23.47.28.71a61.22,61.22,0,0,0,1.65,6.93,27,27,0,0,1,.59,3.25c.53,2.68,1.12,5.34,1.6,8a34.87,34.87,0,0,0,1,3.67c.73,2.62,1.51,5.31,1.19,8.06-.34,3,.47,5.93.58,8.9,1.3,4.27,1.47,8.72,2.11,13.1.08.59.21,1.18.34,1.76q1.08,4.86,2.19,9.72A13.32,13.32,0,0,0,670.91,547.57Z"/><path d="M424,522.29a11.85,11.85,0,0,1,1.64,7.58,3.5,3.5,0,0,0,0,1c.74,3,.11,6.07,0,9.1,0,.76,0,1.53-.07,2.28-.08,1-.19,2-.31,3a38.81,38.81,0,0,0,.07,7.15,3.73,3.73,0,0,1-3.9,4.31,24.71,24.71,0,0,0-5.07.51,20.47,20.47,0,0,1-4.57.17,32.59,32.59,0,0,0-6.62.4,1.1,1.1,0,0,1-.51,0c-1.68-.46-3.37-.13-5.06-.13-1.44,0-2.88-.18-4.31-.32-.93-.09-1.85-.34-2.77-.34-1.43,0-2.86.13-4.28.28a1.17,1.17,0,0,0-1,1.08,15.65,15.65,0,0,0-.47,4.31,28.45,28.45,0,0,1-.17,5.31c0,.84,0,1.69,0,2.56a10.71,10.71,0,0,0,5,1.07,73.78,73.78,0,0,1,8.67,0,48.15,48.15,0,0,0,5.09-.08,12.73,12.73,0,0,1,4.53.61,5.56,5.56,0,0,0,2.26.26,13.38,13.38,0,0,1,4.59.28,3,3,0,0,0,1,0c1.35-.15,2.7-.42,4.05-.45,2.55,0,5.11,0,7.67.07a2.78,2.78,0,0,1,2.93,2.26c.4,1.21.88,2.39.28,3.7-.15.33,0,.83.09,1.25a16.59,16.59,0,0,1-.53,5.82,12.7,12.7,0,0,0-.47,5.53,24.19,24.19,0,0,1,.09,4.09c0,.67,0,1.35.09,2a53.14,53.14,0,0,0,.58,5.74c.33,1.6-1.68,3.81-3.33,4s-3,.61-4.54,0a1.66,1.66,0,0,0-.77,0A27.63,27.63,0,0,1,418,607c-1.1-.07-2.21.19-3.31.14-1.27,0-2.54-.42-3.8-.37s-2.31.34-3.51.36a84.28,84.28,0,0,0-9.92.63,5.51,5.51,0,0,1-1.28,0,9.6,9.6,0,0,0-5,.5,5.12,5.12,0,0,1-1.76.28,58.55,58.55,0,0,1-8.16.41,10.36,10.36,0,0,0-3,.33,15.46,15.46,0,0,1-4.29.24c-2.73-.13-5.46-.2-8.19-.31-1.45,0-2.89-.11-4.34-.21-2.47-.17-4.93-.49-7.41-.55-2,0-4.06.23-6.1.27-1,0-2-.16-3-.21-1.77-.07-3.55-.09-5.32-.17a7.48,7.48,0,0,1-2-.24,2.57,2.57,0,0,1-2.06-2.35,37.46,37.46,0,0,1-.19-4.85,39.08,39.08,0,0,0-.05-6.12,18.29,18.29,0,0,1,.2-3.29c.25-2.87,1-5.67,1.1-8.59.1-2.37-.38-4.74.05-7.12a4.76,4.76,0,0,0-.35-2.51,14.1,14.1,0,0,1-1-5.48c0-.82-.1-1.66-.14-2.49-.17-3.72.94-7.27,1.12-10.93.06-1.19-.06-2.38-.07-3.57a28.75,28.75,0,0,1,.07-3.83,63.82,63.82,0,0,0,.08-8.18,19.06,19.06,0,0,1,.16-3.3,33.49,33.49,0,0,0,.56-7.12c-.13-3.4-.25-6.8-.1-10.21.08-2-.09-4.08-.12-6.12,0-1.71,0-3.42-.05-5.12a4.18,4.18,0,0,0-.06-1.28c-1-3.05-.76-6.24-1-9.38a7.07,7.07,0,0,0,0-1.53c-.66-2.27-.33-4.58-.34-6.88s-.08-4.62-.08-6.93a3.37,3.37,0,0,0-.54-1.65,3,3,0,0,1,2.05-4.53,10.68,10.68,0,0,1,3.26-.19,30.22,30.22,0,0,0,7.36-.05,10.76,10.76,0,0,1,3.05.07,32.87,32.87,0,0,0,5.61.19c2.22,0,4.44-.09,6.66-.07,1.27,0,2.54.24,3.81.21,2.18-.05,4.39.35,6.56-.28a2,2,0,0,1,1,0c2,.55,4.07.16,6.1,0,1.09-.08,2.25.29,3.28,0a38.86,38.86,0,0,1,8.14-.46c2.54.07,5.08.43,7.62,0a8,8,0,0,1,1.77-.05,18.67,18.67,0,0,0,3.33.13c3.92-.57,7.8.18,11.7.2,1.62,0,3.23.17,4.83.19a40.45,40.45,0,0,0,4.54,0c1.76-.16,3.11.8,4.62,1.33a1.29,1.29,0,0,1,.73,1.25c0,1.28.15,2.56.21,3.84.11,2,.19,4.08.31,6.12a17.14,17.14,0,0,0,.26,1.77,5.28,5.28,0,0,1-.34,3.47c-.44.89-.39,2-.75,3a15.22,15.22,0,0,0-.69,5.49c0,2-.32,4,.33,6.08a2.56,2.56,0,0,1-2.8,3.1c-1.51-.29-2.84.46-4.31.26a39.62,39.62,0,0,0-4.08,0c-1.53,0-3.07-.1-4.59-.26a39.85,39.85,0,0,0-11,.34c-1.68.29-3.36.54-5.05.74a13.25,13.25,0,0,1-2.27,0,6.27,6.27,0,0,1-.75-.17,21.37,21.37,0,0,0-7.69.91,16.64,16.64,0,0,1-.85,4.1,19.48,19.48,0,0,0-.28,4.09c.45.29.79.7,1.14.71,1.94,0,3.77,1,5.77.51a8.7,8.7,0,0,1,2.79,0c1.78.19,3.54.54,5.31.72a27.86,27.86,0,0,0,4.08.12c2.72-.12,5.45.07,8.16-.1,2-.13,4.06-.41,6.11-.42A8.53,8.53,0,0,1,424,522.29Z"/><path d="M340.89,388.85c1.84,2.06,2.11,4.58,2.15,7.16a8.64,8.64,0,0,0,0,1.76,34.65,34.65,0,0,1,.41,11.13c-.24,2.81-1.09,5.51-1.19,8.34a19.56,19.56,0,0,1-1,4,36,36,0,0,1-1.88,6.37,42.84,42.84,0,0,1-3,5.61,13.09,13.09,0,0,1-4.35,3.92c-1.45.87-3,1.55-4.54,2.32a4.16,4.16,0,0,0-.88.49c-1.93,1.7-4.35,2.66-6.4,4.18a1.53,1.53,0,0,1-.7.31c-2.44.34-4.69,1.45-7.2,1.62a14.76,14.76,0,0,0-6.33,1.66,6.6,6.6,0,0,1-2.41.8c-2.54.3-5.09.49-7.64.71-2.2.19-4.38.4-6.57.76a14.19,14.19,0,0,1-7.33-.38c-1.75-.64-3.6-1-5.39-1.53-.73-.22-1.44-.52-2.15-.81a6.64,6.64,0,0,0-1.41-.6c-2.36-.33-4.2-1.82-6.28-2.76a8.07,8.07,0,0,1-1.24-.86c-.35-.25-.67-.54-1-.77-2.87-1.82-5.76-3.62-8.63-5.45a48.92,48.92,0,0,1-5.31-3.53,22.8,22.8,0,0,1-3.05-3.75c-.31-.4-.44-.95-.76-1.33a22,22,0,0,1-4.22-9.2,15.9,15.9,0,0,0-.87-2.39c-.33-.79-.75-1.53-1.08-2.31a17.12,17.12,0,0,0-1.83-3.93,4,4,0,0,1-.58-1.41,9.15,9.15,0,0,0-1.14-3.38,1.73,1.73,0,0,1-.22-1c.09-1.88-.87-3.63-.65-5.53a5.33,5.33,0,0,0-.19-1.52c-.27-1.51-.52-3-.86-4.52a23,23,0,0,0-.94-2.91,8.23,8.23,0,0,1-.53-3c0-2.09.15-4.26-.86-6.23a1.65,1.65,0,0,1-.28-1c.58-2.34-.47-4.71.2-7a20.71,20.71,0,0,1,.35-6.57,8.35,8.35,0,0,1,.35-1.75,6.7,6.7,0,0,0,.29-3.54,8.22,8.22,0,0,1,0-2.27,12.06,12.06,0,0,1,2-5.72,3.5,3.5,0,0,0,.62-1.9,15,15,0,0,1,1.38-5.41,25.28,25.28,0,0,0,1.9-6.33,6.88,6.88,0,0,1,1.13-3.38,2.49,2.49,0,0,0,.38-.94c.42-2.41,1.69-4.45,2.79-6.56a12.05,12.05,0,0,1,3.86-4c1-.74,2.07-1.46,3.11-2.19a7.87,7.87,0,0,1,1.49-1c1.65-.65,2.76-2,4-3.12a18.42,18.42,0,0,1,8.37-4.57c2.51-.49,5-.86,7.56-1.29.5-.09,1-.19,1.49-.32a37.33,37.33,0,0,1,4.67-1.22c1.78-.22,3.46-.74,5.18-1.11a15.11,15.11,0,0,1,3.29-.25c1.36,0,2.72.16,4.07.28a16.29,16.29,0,0,1,3.05.35,25.85,25.85,0,0,0,6.31.85c1.44,0,2.87.37,4.31.55a32.24,32.24,0,0,1,3.28.35,92.29,92.29,0,0,1,11.07,3,33.92,33.92,0,0,1,5.54,3.16c1.52.9,3,1.89,4.56,2.7a17.84,17.84,0,0,1,6.3,5.48,8,8,0,0,0,1.12,1.38,16.09,16.09,0,0,1,4.53,7,30.71,30.71,0,0,1,1.6,4.83c.44,2.51.69,5.05,1.13,7.56a3,3,0,0,1,.06.51q-.08,4.23-.18,8.46a3.48,3.48,0,0,1-.21,1.24,2.28,2.28,0,0,0,.18,2.19,5,5,0,0,1,.42,1.44c.2,1.08.39,2.17.55,3.27A3.1,3.1,0,0,1,342,367.3a15.39,15.39,0,0,1-1.79-.13,26.46,26.46,0,0,0-3.07-.25,39.86,39.86,0,0,1-7.63-.82c-1.51-.24-3-.37-4.57-.54a3.7,3.7,0,0,1-.75,0c-2.74-.92-5.55-.66-8.35-.66a40.84,40.84,0,0,0-6.35.45c-.92.14-1.82.4-2.73.61a2.9,2.9,0,0,1-3.61-2,2.11,2.11,0,0,1-.1-.5c-.14-2.46-.46-4.93.13-7.38.23-1,.49-2,.67-3a5.23,5.23,0,0,0,0-1.53,47.81,47.81,0,0,1-.5-5.07,3.91,3.91,0,0,0-1.88-2.93,1,1,0,0,0-.69-.26c-1.35.19-2.68-.3-4.07.13a14.2,14.2,0,0,1-3.53.33,4.66,4.66,0,0,0-4.11,3c-.08.15-.09.33-.16.49-.75,1.7-1.55,3.31-1.39,5.33.15,1.84-.38,3.69-.18,5.6a66.26,66.26,0,0,1,.1,6.91,4.56,4.56,0,0,1-.25,1,19,19,0,0,0-.37,4.27c-.07,2.92.75,5.78.55,8.65-.18,2.46.19,4.94-.33,7.38a9.84,9.84,0,0,0,0,1.53c-.08,2,.22,4.06.08,6.12a17.53,17.53,0,0,0,.92,5.54,10.08,10.08,0,0,1,.47,2.72c0,3.59,1.25,6.86,2.56,10.1a3,3,0,0,0,2.77,2,13.57,13.57,0,0,0,4.33-.17,24.81,24.81,0,0,0,4.44-2.33.35.35,0,0,0,.18-.18c.83-2.26,2.81-4.14,2.36-6.85a1.11,1.11,0,0,1-.05-.25,24,24,0,0,0-1.53-10,4.09,4.09,0,0,1-.18-1.26c-.1-1.58,1-2.78,2.47-2.41a8.63,8.63,0,0,0,4.51-.15,7.57,7.57,0,0,1,2.77.23,13.28,13.28,0,0,0,3.56-.07,30.75,30.75,0,0,1,5.08-.14,6,6,0,0,0,2.72-.5,25.47,25.47,0,0,1,14.08-1.51C339.26,388.81,339.93,388.8,340.89,388.85Z"/><path d="M404.54,768c-2.36-1.48-3-3.47-3.34-5.62-.46-2.51-.53-5.11-2-7.51a2.55,2.55,0,0,0-2.05-.12,9.15,9.15,0,0,1-4.56.19,1.42,1.42,0,0,0-.75-.09,15.49,15.49,0,0,1-5.08.28c-2.64,0-5.28,0-7.92,0-.43,0-.85,0-1.28,0a1.32,1.32,0,0,0-1.37,1.5,8.74,8.74,0,0,0,.07,1,2.76,2.76,0,0,1,.08,1c-.76,2-.34,4.07-.68,6.08a13.21,13.21,0,0,1-.86,2.94,4.38,4.38,0,0,1-4.55,2.08c-1.94-.61-3.86-1.31-6.05-2.07-3,0-6.3-.08-9.61-.09a21.68,21.68,0,0,0-2.79.2c-1.77.21-3.53.52-5.3.71a30.81,30.81,0,0,1-5.84.45,5.13,5.13,0,0,0-1.75.31,3.37,3.37,0,0,1-4-1.29c-.36-.48-.67-1-1-1.5a3.3,3.3,0,0,1-.28-3.4,7,7,0,0,0,.6-3.22,15.29,15.29,0,0,1,.52-3.53c.41-1.83.92-3.65,1.38-5.47.32-1.23.65-2.46.93-3.7a20,20,0,0,1,1.6-5.1c.94-1.8.67-3.81.78-5.74.2-3.31.41-6.61.78-9.91a8.55,8.55,0,0,1,1.42-4.06,11.18,11.18,0,0,0,1.5-4.06,9.36,9.36,0,0,1,.45-1.73c1.44-3.54,2.3-7.29,3.63-10.88.65-1.74,1.24-3.49,2-5.2a25.12,25.12,0,0,0,1.07-4.72,12.43,12.43,0,0,1,.5-1.71c.69-1.84,1.41-3.66,2.11-5.49a5.08,5.08,0,0,0,.45-1.47c.08-3.14,1.52-5.93,2.23-8.9.59-2.48,1.08-5,1.62-7.49.12-.58.24-1.16.38-1.74.35-1.49,1.19-2.86,1.11-4.45s.55-3,.43-4.55a8.57,8.57,0,0,1,.68-4,11.18,11.18,0,0,0,1-5,4.07,4.07,0,0,1,.81-2.63,10.16,10.16,0,0,0,1.77-5.47c.13-1.61.51-3.19.75-4.68l1.58-1.33,5.14-.51c2.19-.21,4.33-1,6.57-.53,2.84-.82,5.75,0,8.61-.29,2.14.84,4.35-.27,6.56.28,1.16.3,2.52-.2,3.8-.27a98.31,98.31,0,0,0,11.74-1,6.53,6.53,0,0,1,2,.19c1.84.3,3.64.8,5.57.34a2.89,2.89,0,0,1,3.39,1.17,2.26,2.26,0,0,1,.36,2.16,3.23,3.23,0,0,0-.16,1.48c.26,2.12.6,4.22.89,6.33.15,1.08.21,2.17.39,3.24a14.83,14.83,0,0,0,.68,3c.51,1.34,1.2,2.62,1.82,3.92a6.5,6.5,0,0,1,.65,1.36,8.26,8.26,0,0,0,.87,2.08,14.17,14.17,0,0,1,1.16,3.62c.61,3.17,1.33,6.32,1.63,9.57a27.37,27.37,0,0,0,1.89,7.42c.86,2.21,1.42,4.54,2.2,6.78a51,51,0,0,0,2.09,5.21,63.58,63.58,0,0,1,2.59,6.94c.27.81.61,1.59.89,2.39.16.48.26,1,.38,1.47.18.74.35,1.48.51,2.23a39.6,39.6,0,0,1,1.29,4.9,25.41,25.41,0,0,0,1.16,4.17,12.84,12.84,0,0,1,.58,2.49,16.92,16.92,0,0,0,2.35,7,7.33,7.33,0,0,1,1,3.62,20.39,20.39,0,0,0,.87,4.23,11.25,11.25,0,0,1,.54,4,5.58,5.58,0,0,0,.24,1.74c0,.24.25.47.26.71.08,4,2.3,7.46,3.07,11.29,1.29,2.39,1.46,5,1.71,7.66a14.24,14.24,0,0,0,.83,4.45,10.19,10.19,0,0,1,.4,2.24,2.56,2.56,0,0,1-1.67,3.25,5.59,5.59,0,0,1-2.23.45,29.85,29.85,0,0,0-7.13.16c-1.87-.57-3.7,0-5.55.17a10.92,10.92,0,0,0-1.26.18c-2.44.48-4.87,1-7.36.35a1.82,1.82,0,0,0-.77,0c-1.88.47-3.72-.09-5.58-.22a57.55,57.55,0,0,0-9.65-.37C408.85,768.2,406.62,768,404.54,768ZM388,687c-.27.22-.38.26-.4.32-.59,2-.71,4-1.75,5.86-.15.27-.07.67-.15,1-.6,2.48-.32,5.06-1,7.54a34.53,34.53,0,0,0-.79,4.78c-.32,2.7-.7,5.41-.77,8.12a24,24,0,0,1-.2,3.29,23.06,23.06,0,0,0-.12,3.2c4.37.6,8.54.69,10.6.23-.16-1.83-.25-3.69-.52-5.52s-.82-3.67-1.11-5.51-.37-3.56-.56-5.34a22.07,22.07,0,0,1-.3-2.53,47,47,0,0,0-1.11-8.6c-.21-1.17-.39-2.35-.55-3.52A5,5,0,0,0,388,687Z"/><path d="M464.48,510.62l-10.85.22c-1.58.63-3.19.22-4.8.17-1.87-.07-3.75.12-5.62.2a21.3,21.3,0,0,0-8,1.53,1.81,1.81,0,0,1-2.21-.83,8.67,8.67,0,0,1-1.47-5.05,13.12,13.12,0,0,0-.17-3.3,7.67,7.67,0,0,1,.27-3c.27-1.42.72-2.81,1-4.22a6.16,6.16,0,0,1,.78-2.41,2.66,2.66,0,0,0,.39-1.69,57,57,0,0,1-.62-7.14,10,10,0,0,0-.37-1.22c-.17-.92-.32-1.85-.41-2.78a5.81,5.81,0,0,1,1.89-4.59,2.2,2.2,0,0,1,1.33-.64c2-.13,3.81-.94,5.8-.81a8.91,8.91,0,0,0,1.75-.3,5,5,0,0,1,1.49-.09,5.25,5.25,0,0,0,3-.17,8.24,8.24,0,0,1,2.24-.11c3.14-.2,6.32-.21,9.43-.69,2.55-.4,5.09.19,7.62-.26a5.7,5.7,0,0,1,2,.21,61,61,0,0,0,9.35.65c4.87.18,9.73-.51,14.59-.07a22.4,22.4,0,0,0,3.82-.28,6.64,6.64,0,0,1,1.52-.15c2.11.31,4.21-.11,6.31-.08a50.57,50.57,0,0,0,6.4-.06c1.88-.21,3.74-.22,5.61-.33a60.82,60.82,0,0,1,9.45.31,22.88,22.88,0,0,0,5.36.07c1.09-.15,2.22.09,3.33.05,2.88-.08,5.76-.22,8.76-.34l1.41.88c.14.09.36.17.39.3.44,1.83,2.21,3.37,1.23,5.51a4.57,4.57,0,0,0-.34,3,2,2,0,0,1,0,1c-.67,1.83-.37,3.75-.23,5.56.14,1.63-.34,3.25,0,4.78s-.1,3.22,0,4.82a40.41,40.41,0,0,0,.5,5,13.35,13.35,0,0,0,1.09,2.71,2.52,2.52,0,0,1-1,2.09,4.49,4.49,0,0,1-3.17.79c-.5-.1-1-.17-1.51-.28a15.89,15.89,0,0,0-6.55.15,3.46,3.46,0,0,1-1.48.14,17.89,17.89,0,0,0-5.61,0c-1.19.09-2.38.27-3.57.29a31.18,31.18,0,0,0-5.1.45c-1,.17-2,.17-3.16.26a14.11,14.11,0,0,0-.29,1.47c-.15,1.94-.27,3.88-.41,5.82a4.27,4.27,0,0,1-.17,1,28.41,28.41,0,0,0-.79,8.36c0,1.53.28,3.05.39,4.58s.23,3.23.24,4.85a9,9,0,0,0,.59,3.51,3.91,3.91,0,0,1,.44,1.7,39,39,0,0,0-.05,5.07,11.34,11.34,0,0,0,.07,3,1.31,1.31,0,0,1,0,.76c-.6,2.32-.4,4.75-1.06,7.09a12.39,12.39,0,0,0-.08,4.17,3.33,3.33,0,0,1-.25,2.46c-.13.19-.29.56-.2.7,1,1.49-.12,3,0,4.49s-.19,2.9-.11,4.34c.2,3.41-.47,6.82.15,10.22a11.76,11.76,0,0,1,0,2.3,33.32,33.32,0,0,0,.32,6.39,13.48,13.48,0,0,1,0,2.29c0,.51,0,1,0,1.53.09,1.52.26,3,.28,4.56a2.68,2.68,0,0,1-2.21,2.75,12.71,12.71,0,0,1-4.55.51,4.56,4.56,0,0,0-1.77,0c-2.64,1-5.36.68-8.07.65a26.76,26.76,0,0,1-6.13-.25,3.12,3.12,0,0,0-1.27.13c-2.5.51-5.1.37-7.56,1.15a1.75,1.75,0,0,1-.51.08c-2.81,0-5.64.23-8.44.07a31.19,31.19,0,0,1-5.78-.49,2.21,2.21,0,0,0-1.46.27,2.33,2.33,0,0,1-2,.13c-2-.62-2.21-1-2.13-3.15.07-1.7,0-3.4.06-5.1.07-2,.24-4,.33-6.08s.16-3.91.17-5.87a6.17,6.17,0,0,1,.29-2.26,3.19,3.19,0,0,0,.17-1.5,33.66,33.66,0,0,1,.44-9.66c.5-3,.78-6.06,1-9.1.13-1.43.4-2.84.41-4.31,0-2.06-.23-4.07-.37-6.1s-.26-3.91-.33-5.87c-.09-2.63-.05-5.28-1-7.83a10,10,0,0,1-.17-2.28c-.17-1.61-.42-3.21-.57-4.82a39.63,39.63,0,0,1-.08-9.17,89.4,89.4,0,0,0,.54-9.67C464.66,512.86,464.54,511.85,464.48,510.62Z"/><path d="M287.09,734.19a45.46,45.46,0,0,0,4.88.73,68.21,68.21,0,0,0,7.15,0,12.35,12.35,0,0,1,3-.19,4.09,4.09,0,0,0,.76-.08c1.54,0,2.95-.82,4.5-.74s3.06.12,4.59.23a21.36,21.36,0,0,1,2.51.36,13.41,13.41,0,0,0,4.8.47,4.34,4.34,0,0,1,1-.06,22.88,22.88,0,0,0,6.06-.52,4,4,0,0,1,1.76,0c2.49.58,3.14,1.34,3,3.94a48.72,48.72,0,0,1-.81,5c-.29,1.77-.53,3.55-.84,5.32-.46,2.59.16,5.07.72,7.56a12.54,12.54,0,0,0,.33,1.24c.88,2.56.71,5.19.59,7.81-.08,1.6-1.16,2.6-2.47,3.78-2.66.15-5.54.49-8.42.42-2,0-4,.28-6,.31-2.19,0-4.41.63-6.59-.18a3.59,3.59,0,0,0-1.27-.1c-3,0-6,0-9,.16-2.72.14-5.42.5-8.13.76a5.22,5.22,0,0,1-1.52.08,9.63,9.63,0,0,0-3.51,0,26.08,26.08,0,0,1-4.31-.15,73.86,73.86,0,0,1-9.16-.69,39.17,39.17,0,0,0-4.85-.07,30.67,30.67,0,0,1-8.07-1.26,18.12,18.12,0,0,0-6.31-.76,53.25,53.25,0,0,1-6.91-.22,6.55,6.55,0,0,0-3.43.79,9.14,9.14,0,0,1-2.37.91,2.3,2.3,0,0,1-2.47-1,2.16,2.16,0,0,1,0-2.64,3.72,3.72,0,0,0,.65-2.63,22.19,22.19,0,0,1,.42-5.05,18.37,18.37,0,0,0,.18-6.62,43.92,43.92,0,0,1-.56-5.59,34.57,34.57,0,0,0-1.39-8.27,5.25,5.25,0,0,1-.31-3,1.12,1.12,0,0,0,.06-.51c-.61-2.71,0-5.46-.23-8.18a5.93,5.93,0,0,1,.28-2.24,30.76,30.76,0,0,0,1.18-7c.11-2.64.51-5.26.75-7.89a71.67,71.67,0,0,0,.12-9.72c-.08-1.62-.19-3.24-.36-4.84-.33-3-.08-6-.12-8.93,0-.85-.13-1.7-.08-2.55a19,19,0,0,0-.74-7c.47-2.87-.28-5.74.05-8.65a25.58,25.58,0,0,0-.35-6.64,31.77,31.77,0,0,1-.22-7.15c.16-1.87.17-3.74.28-5.61a28.51,28.51,0,0,0,0-3.58c-.08-1.11.44-2.12.26-3.29-.22-1.52,1.33-2.87,2.92-2.88a1,1,0,0,1,.25,0c3.49.7,6.94-.1,10.39-.38a22.5,22.5,0,0,1,7.09.29,6.27,6.27,0,0,0,2,0c2.3-.26,4.58-.57,6.82.42.32.14.8-.08,1.2-.12a5.59,5.59,0,0,1,1.76-.11c1.79.47,3.55-.21,5.33,0s3.56.35,5.35.43c1.27.06,2.56-.12,3.82,0a8.22,8.22,0,0,1,2.7.74,3.41,3.41,0,0,1,2.21,3.69,80.19,80.19,0,0,0-.08,11,38,38,0,0,1-.54,7.88,28.84,28.84,0,0,0-.62,8.36,15.8,15.8,0,0,1-.1,3.07c-.25,3,.37,6-.2,9a27.14,27.14,0,0,1,.06,6.11,1.22,1.22,0,0,0,.05.51c1.08,1.9.38,4,.72,6a5.41,5.41,0,0,1,0,1.27c-.13,1.28-.27,2.53.61,3.67a2.76,2.76,0,0,1,.39,1.47,90.13,90.13,0,0,1,.29,9.15c-.1,2.12.13,4.25.07,6.37-.09,3.22.4,6.47-.42,9.68-.27,1.06-.19,2.21-.39,3.3a25.68,25.68,0,0,1-.84,3.21C286.87,733.07,286.71,733.7,287.09,734.19Z"/><path d="M285.7,476a4.15,4.15,0,0,0,.64,1.32c1.41,1.37,1.37,3,1.15,4.77a3.28,3.28,0,0,0-.12,1,24.78,24.78,0,0,1,.25,6.32,7.48,7.48,0,0,1-.08,2.26,1.93,1.93,0,0,0-.08,1c.41,2.16-.13,4.25-.36,6.37a7.61,7.61,0,0,0,0,3.29,3.57,3.57,0,0,1,0,1.26c-.07,1.87-.19,3.73-.21,5.59a15.94,15.94,0,0,0,.31,2c.08.58.11,1.17.16,1.75.05.76.09,1.53.15,2.28a9.9,9.9,0,0,1,.15,1.51,18.49,18.49,0,0,0,.35,4.33c.19,1.16.06,2.37.2,3.54a145.81,145.81,0,0,1,.76,14.77c0,2.73-.23,5.45-.34,8.18-.08,2-.14,4.06-.2,6.09,1,3.27,0,6.62.4,9.92a7.91,7.91,0,0,1-.07,1.28c-.14,2.55-.29,5.1-.44,7.78a5.15,5.15,0,0,0,1.5.44c1.86-.08,3.72-.23,5.58-.41a23.2,23.2,0,0,1,3.82,0c1.77.11,3.54.6,5.33.23,2.68.77,5.39.45,8.12.37a58.68,58.68,0,0,1,7.37.37c2.4.25,4.72-.48,7.09-.45a21.49,21.49,0,0,1,2.54.1c1.21.16,2,.79,1.9,2-.1,2.14.58,4.2.25,6.36-.29,1.92-.07,3.92-.32,5.85-.55,4.32-.83,8.66-1,13a2.64,2.64,0,0,0,.21,1.48c1.39,2,.67,3.5-1,5-1.11-.08-2.32.33-3.4-.49a1.09,1.09,0,0,0-.74-.11c-2.76.53-5.64,0-8.38.9a7.62,7.62,0,0,1-3.05.23,39.7,39.7,0,0,0-7.63.42,27.22,27.22,0,0,1-4.33,0,13.89,13.89,0,0,0-3.81,0,7,7,0,0,1-2.26-.21c-2-.27-4.09-.1-6.06-.74a.92.92,0,0,0-.5-.1c-2.13.49-4.23-.07-6.34-.15s-4.06-.43-6.1-.57a26.65,26.65,0,0,0-3.57.09c-2.64.19-5.26-.12-7.89-.17a3.47,3.47,0,0,1-1,0c-2.1-.67-4.21-.29-6.33-.14a12.89,12.89,0,0,1-3,0,5.58,5.58,0,0,0-2.51.14c-1.4.35-2.81.71-4.24.94a10.11,10.11,0,0,1-3,.14,29.36,29.36,0,0,0-7.37-.14,4.27,4.27,0,0,1-2-2.81c1.11-1.22,1-2.84,1-4.47s.26-3.41.32-5.11c.11-3.24.44-6.49-.38-9.69a8,8,0,0,1-.1-2.49,22.14,22.14,0,0,0-.24-7.12,16.23,16.23,0,0,1-.18-3.83c0-1.36,0-2.73.06-4.09,0-1,.17-2,.26-3,0-.6.3-1.28.09-1.76a4.46,4.46,0,0,1,.11-3.26c.57-1.84.33-3.73.48-5.59a18.58,18.58,0,0,0-.06-5.62,22.06,22.06,0,0,1-.19-7.34c.26-2.36.18-4.76.27-7.14,0-.59.1-1.19.17-1.78a4.54,4.54,0,0,0,.14-1,49.35,49.35,0,0,1-.22-8.42,7.83,7.83,0,0,0-.26-1.51c-.42-2.09-1-4.15-.47-6.32a4,4,0,0,0-.2-1.5,27.08,27.08,0,0,1-.41-6.1c.09-1.87-.06-3.74-.08-5.61,0-.94.12-1.88,0-2.81-.14-1.7-.34-3.39-.58-5.08s-.85-3.3-.24-5a1.51,1.51,0,0,0-.08-1c-.81-1.71-.55-3.5-.41-5.28a15.52,15.52,0,0,0,.13-2,3,3,0,0,1,.6-1.89,3.93,3.93,0,0,1,4.41-1.81,17.08,17.08,0,0,0,6.83.13,7.86,7.86,0,0,1,1.53-.15c1.25-.07,2.54.68,3.74-.21a7.08,7.08,0,0,0,3.53-.36.8.8,0,0,1,.5-.05c1.36.49,2.7,0,4.05-.07a24.84,24.84,0,0,1,5.1,0,8.51,8.51,0,0,0,2.28-.19c2.2-.23,4.44-.8,6.6-.59a63.56,63.56,0,0,0,6.62,0A11.16,11.16,0,0,1,285.7,476Z"/><path d="M599.82,476.4a5.61,5.61,0,0,1,1,3.51,64.11,64.11,0,0,1-.7,8.64c-.34,1.83-.88,3.64-1.07,5.49a42.26,42.26,0,0,0-.17,9.93c.26,2,.11,4.06.19,6.09,0,1,.18,2,.29,3.06a7.16,7.16,0,0,1,.15,1.51,7,7,0,0,0,.46,4.25.89.89,0,0,1,.06.51c-.36,2,.18,4.05.06,6.08a1.76,1.76,0,0,0,0,.51c.67,2.18.17,4.38.09,6.58s-.17,4.43-.13,6.65a37.2,37.2,0,0,0,1,8.86,5.44,5.44,0,0,1,.27,1.77c-.19,2.37.61,4.73,0,7.1.38,2.15-.2,4.22-.56,6.3a1.48,1.48,0,0,0,0,.51c.63,3.22-.25,6.44.14,9.69a54.7,54.7,0,0,1-.15,7.88,13.75,13.75,0,0,0,.32,5.07,3.22,3.22,0,0,1,.09.76c.24,4.08.47,8.15.73,12.22,0,.59.21,1.18.27,1.77a6.9,6.9,0,0,1-1,4.66,2.42,2.42,0,0,1-2.1,1.26,30.33,30.33,0,0,1-4.57,0,32,32,0,0,1-4.76-.72,1.94,1.94,0,0,0-.76,0,32.54,32.54,0,0,1-8.87-.18,11.48,11.48,0,0,0-7,1,3.17,3.17,0,0,1-1.19.4c-1.68.11-3.37.21-5.06.21a16.3,16.3,0,0,1-3-.28,21.2,21.2,0,0,1-5.21-1.2,1.24,1.24,0,0,0-.5-.1h-5.5a14.91,14.91,0,0,1-1.26-1.81,3,3,0,0,1-.25-1.46c.07-1.35.21-2.7.31-4a3.34,3.34,0,0,1,.1-1,20.71,20.71,0,0,0,1-5,10.39,10.39,0,0,0,.2-2.5c-.3-3.56-.44-7.14-.73-10.7a14.35,14.35,0,0,0-.79-4,15.12,15.12,0,0,1-.59-6.83,77.85,77.85,0,0,0-.2-12.5,4.43,4.43,0,0,1-.06-.51,45.64,45.64,0,0,1,.71-7,21,21,0,0,0,.3-6.35c-.09-1.77,0-3.55,0-5.31,0-2.38.12-4.76,0-7.14a30.33,30.33,0,0,1,.18-4.57,4.26,4.26,0,0,0-.11-2,3.88,3.88,0,0,1-.05-1.52c.14-1.43.62-2.84.21-4.32-.08-.28.16-.64.24-1,.11-.5.42-1.07.28-1.48-.51-1.44.51-2.86-.1-4.28-.11-.26.12-.65.17-1a7.78,7.78,0,0,0,.18-1.51c-.17-2.37.26-4.77-.37-7.12a4,4,0,0,1-.06-.5c-.28-3.06-.54-6.11-.84-9.16-.13-1.35-.42-2.69-.52-4.05a41.35,41.35,0,0,1-.13-4.85,8.24,8.24,0,0,0-.7-4.49,2.44,2.44,0,0,1,.35-2.64,4.78,4.78,0,0,1,4.6-2.22,3.53,3.53,0,0,0,1.75-.07c1.66-.88,3.35-.46,5-.15a12.71,12.71,0,0,0,3,.25,23.56,23.56,0,0,1,3.55.26,54.21,54.21,0,0,1,11,2.2,20.87,20.87,0,0,0,9.32.77,48.81,48.81,0,0,1,7.36-.58C597.07,476,598.41,475.79,599.82,476.4Z"/><path d="M472.42,390c.08-1.28.17-2.55.26-3.83a11.6,11.6,0,0,0,.1-2,67.73,67.73,0,0,1,.13-9.45,4.14,4.14,0,0,0-.9-3c-1.25-1.52-.84-3,.8-4.14a5.07,5.07,0,0,1,2.67-.75,29.73,29.73,0,0,0,5.35-.46,36.48,36.48,0,0,1,7.14-.47c1.7,0,3.41,0,5.11-.12a31.48,31.48,0,0,1,6.58.06,24.11,24.11,0,0,0,4.07-.05c1.86,0,3.72-.07,5.58-.05,2.22,0,4.44.14,6.65.14a18.68,18.68,0,0,1,6.8,1,5.51,5.51,0,0,0,4.92-.53,7.35,7.35,0,0,1,4-.65c1.28,0,2.34,1.46,2.42,3.16.07,1.37,0,2.74,0,4.1a27,27,0,0,1-.19,4.6c-.37,1.9,0,3.73.09,5.59a22,22,0,0,0,.39,2.77c.06.42.15.84.17,1.26.13,2.2.24,4.41.37,6.61a3,3,0,0,1-1.14,3,4,4,0,0,1-2.86.68c-2.25-.21-4.59-.61-6.8.41a2.24,2.24,0,0,1-1,0,14.93,14.93,0,0,0-1.77,0,65.13,65.13,0,0,1-7.65.28c-3,0-6,.06-8.94.06-.85,0-1.7-.11-2.54-.18-.51,0-1.06-.31-1.51-.17-1.32.4-2.54-.14-3.75-.4a8.35,8.35,0,0,0-3-.21,2.92,2.92,0,0,1-1,0c-2.4-.53-4.76,0-7.13.23a32.2,32.2,0,0,1-7.41.14,12.53,12.53,0,0,1-4.49-1.77,3.08,3.08,0,0,1-1.58-3c0-.94,0-1.88,0-2.82Z"/><path d="M847.42,557.56a5.91,5.91,0,0,0,0-1c-.26-3.65-.57-7.3-.78-11q-.2-3.44-.16-6.88a56.39,56.39,0,0,1,.31-6.63,22.4,22.4,0,0,0,0-5.11c-.17-1.59-.23-3.2-.32-4.79s.07-2.86-.61-4.23a6.54,6.54,0,0,1-.32-1.75c-.36-1.93-.79-3.84-1.05-5.78-.23-1.76-.75-3.5-.33-5.32a3.22,3.22,0,0,0-.37-2.23c-.53-1.05-1-2.16-1.48-3.4a15.22,15.22,0,0,0,1.38-.85c.56-.46.51-1.31-.14-1.41a3.93,3.93,0,0,1-2.73-2.13c-1-1.66-2-3.37-2.86-5.11a28.42,28.42,0,0,0-2.92-4.18c-2.81-1.76-5-4.4-8-5.89a11.68,11.68,0,0,1-1-.74c-2.45-1.53-4.84-3.16-7.74-3.8a13.14,13.14,0,0,1-3.64-1.17,5.8,5.8,0,0,0-3.16-.78,3.42,3.42,0,0,1-2.81-.95,1.66,1.66,0,0,0-1.12-.52,36.41,36.41,0,0,1-4.31-.47,61.93,61.93,0,0,0-8.93-.48c-.93.06-1.85.18-2.78.23-2.88.14-5.76.09-8.63.37-1.25.12-2.5.54-3.8.2a2,2,0,0,0-1.22.31c-1.73.93-3.67.65-5.49,1-3.45-.56-6.57.79-9.73,1.74-2.28.69-4.45,1.71-6.7,2.5a17.48,17.48,0,0,0-4.59,2.2,6.61,6.61,0,0,1-3.09,1,13.1,13.1,0,0,0-4.84,1.46,18.46,18.46,0,0,0-5.37,4.68,5.25,5.25,0,0,1-1.17,1.34,10.9,10.9,0,0,0-4.57,5.94c-.65,1.84-1.78,3.51-2.42,5.35a18.06,18.06,0,0,0-1.22,5.46,30.45,30.45,0,0,1-.86,5.5,34.94,34.94,0,0,0-.65,3.51c-.21,1.86-.32,3.74-.44,5.61-.12,2-.28,4.08-.28,6.12,0,2.56.14,5.11.23,7.67,0,1.09.15,2.18.17,3.28q.09,6,.14,12c0,1.19-.08,2.38,0,3.57.13,2.27-.28,4.51.13,6.83.55,3.17,1.73,6.24,1.63,9.52,0,.24.17.48.22.73.14.75.27,1.5.4,2.25s.26,1.5.37,2.26a34.55,34.55,0,0,0,1.64,6.16c.41,1.2.79,2.39,1.31,3.57,1,2.24,1.51,4.69,3,6.72a7.77,7.77,0,0,0,2.58,4c1.47,1.42,3,2.82,4.46,4.22a21.35,21.35,0,0,0,7.95,5,11,11,0,0,1,3,1.36,7.44,7.44,0,0,0,2.37.89q4.94,1.31,9.9,2.53a23.34,23.34,0,0,0,2.76.45c3.3.35,6.65-.61,9.93.33a.53.53,0,0,0,.25,0,32.8,32.8,0,0,1,8.4.2,5.32,5.32,0,0,0,1.53.09c2.43-.51,4.9,0,7.36-.46s5.23-.45,7.81-1.18c2.19-.63,4.55-.67,6.78-1.19a25.75,25.75,0,0,0,9.26-4.17,8.7,8.7,0,0,1,1.57-.83,48,48,0,0,0,5.74-2.73,43.33,43.33,0,0,0,5.09-4.22c.95-.85,1.66-2,2.73-2.67a9.38,9.38,0,0,0,2.9-2.81c.94-1.31,1.93-2.59,2.84-3.93a24.79,24.79,0,0,0,2.29-3.65c1-2.32,1.82-4.76,2.85-7.1a8.81,8.81,0,0,0,.89-4.7,4,4,0,0,1,0-.77C847.44,565,847.09,561.28,847.42,557.56Zm-30.85-37.73a29.11,29.11,0,0,1-2.1,4.65c-1,1.57-1.75,3.35-3.43,4.39a2,2,0,0,0-.63.8c-1.29,2.54-3.31,4.51-5,6.71-1.42,1.78-3.19,3.19-4.72,4.84a6.74,6.74,0,0,0,.58.7,20.14,20.14,0,0,0,4.33,3.58,5.86,5.86,0,0,1,1.28.83,25.36,25.36,0,0,0,6.19,4.5,1.57,1.57,0,0,1,.9,1.91,1.67,1.67,0,0,0,.32,1.43,9.69,9.69,0,0,1,1.67,5.79,22.43,22.43,0,0,1-.17,3.58c-.42,2.16-.87,4.36-3,5.61a7.09,7.09,0,0,0-1.18,1.16c-2.58.5-4.91-.28-7.16-.93a9.16,9.16,0,0,1-5-3.45,4.07,4.07,0,0,0-.78-1l-.4-.3q.18.71.39,1.41a1.57,1.57,0,0,1-.72,2,1.66,1.66,0,0,0-.78,1.23,9.7,9.7,0,0,1-2.91,5.28,22.18,22.18,0,0,1-2.65,2.4c-1.82,1.24-3.7,2.48-6.13,1.82a7.48,7.48,0,0,0-1.65,0c-2.17-1.47-3.27-3.67-4.41-5.72a9.26,9.26,0,0,1-1.06-5.95,4.17,4.17,0,0,0,.16-1.25c0-.16-.06-.32-.08-.49-.25.42-.49.84-.72,1.27a1.55,1.55,0,0,1-1.91.9,1.67,1.67,0,0,0-1.43.32,9.74,9.74,0,0,1-5.79,1.68,23.53,23.53,0,0,1-3.57-.18c-2.17-.42-4.37-.87-5.62-3.05a7.49,7.49,0,0,0-1.16-1.18c-.49-2.57.28-4.9.93-7.15a9.24,9.24,0,0,1,3.45-5,4.12,4.12,0,0,0,1-.78c1.88-2.65,4.42-4.68,6.63-7,.23-.25.57-.47.66-.77.51-1.67,1.8-2.73,2.88-4-.44-.47-.89-.93-1.34-1.38-1.07-1.05-2.57-1.65-3.58-2.85a16.21,16.21,0,0,0-1.61-1.6,6.88,6.88,0,0,0-1.43-1.06,6.89,6.89,0,0,1-2.27-1.62,2.44,2.44,0,0,0-1-.73c-2-.66-3.07-2.38-4.2-4a3.31,3.31,0,0,1-.59-3.37,1.65,1.65,0,0,0,.15-.75c-.21-2.4.83-4.51,1.67-6.62a7.67,7.67,0,0,1,3.74-4.34,3.57,3.57,0,0,1,3-.24,28.78,28.78,0,0,1,4.66,2.09c1.57,1,3.35,1.75,4.39,3.44a2.1,2.1,0,0,0,.8.63,9.84,9.84,0,0,1,.9.5,5.51,5.51,0,0,1,0-.91,2.36,2.36,0,0,0-.2-1.24c-1-1.91-.49-3.86-.17-5.77a3.31,3.31,0,0,1,2-2.81,1.59,1.59,0,0,0,.63-.42c1.55-1.84,3.77-2.6,5.87-3.49a7.62,7.62,0,0,1,5.71-.43,3.57,3.57,0,0,1,2.27,1.93,29.37,29.37,0,0,1,1.81,4.77c.42,1.8,1.13,3.61.68,5.54a1.93,1.93,0,0,0,.12,1c.1.34.2.67.28,1a6.5,6.5,0,0,1,.63-.66,2.49,2.49,0,0,0,.74-1c.66-2,2.38-3.07,4-4.2a3.32,3.32,0,0,1,3.38-.59,1.61,1.61,0,0,0,.74.15c2.41-.21,4.51.83,6.62,1.68a7.62,7.62,0,0,1,4.35,3.74A3.61,3.61,0,0,1,816.57,519.83Z"/><path d="M693.28,719.72a7,7,0,0,0,0-1c-.26-3.66-.57-7.31-.78-11-.14-2.29-.18-4.59-.16-6.88a58.62,58.62,0,0,1,.3-6.63,21.85,21.85,0,0,0,0-5.11c-.18-1.6-.24-3.2-.32-4.79a10.34,10.34,0,0,0-.61-4.23,7,7,0,0,1-.33-1.76c-.35-1.92-.78-3.83-1-5.77-.23-1.76-.75-3.51-.33-5.33a3.29,3.29,0,0,0-.37-2.23c-.54-1-1-2.15-1.48-3.39a12.92,12.92,0,0,0,1.38-.86c.56-.45.51-1.3-.14-1.41a3.88,3.88,0,0,1-2.73-2.13c-1-1.66-2-3.36-2.87-5.11a27.59,27.59,0,0,0-2.92-4.17c-2.81-1.76-5-4.41-8-5.89-.38-.19-.68-.52-1-.74-2.45-1.53-4.84-3.17-7.74-3.81a12.7,12.7,0,0,1-3.64-1.16,5.75,5.75,0,0,0-3.17-.78,3.4,3.4,0,0,1-2.8-.95,1.64,1.64,0,0,0-1.13-.52,34.07,34.07,0,0,1-4.3-.48,65,65,0,0,0-8.93-.48c-.93.07-1.86.19-2.79.23-2.87.14-5.75.09-8.63.38a10.71,10.71,0,0,1-3.79.2,1.93,1.93,0,0,0-1.22.31c-1.73.93-3.67.65-5.5,1-3.44-.56-6.56.79-9.73,1.74-2.27.68-4.45,1.71-6.7,2.49a18.3,18.3,0,0,0-4.59,2.2,6.62,6.62,0,0,1-3.09,1,12.91,12.91,0,0,0-4.84,1.45,18.64,18.64,0,0,0-5.37,4.69,4.89,4.89,0,0,1-1.17,1.34,10.9,10.9,0,0,0-4.57,5.94c-.64,1.84-1.77,3.51-2.42,5.35a18.68,18.68,0,0,0-1.22,5.46,29.36,29.36,0,0,1-.86,5.49c-.24,1.17-.52,2.33-.65,3.51-.2,1.87-.32,3.74-.43,5.62-.13,2-.28,4.08-.28,6.12,0,2.55.13,5.11.22,7.66,0,1.1.16,2.19.18,3.28q.09,6,.13,12c0,1.19-.08,2.39,0,3.57.12,2.27-.28,4.52.12,6.84.56,3.16,1.74,6.23,1.63,9.51,0,.24.18.48.22.73.15.75.27,1.51.4,2.26s.27,1.5.38,2.25a33.82,33.82,0,0,0,1.64,6.17c.41,1.2.79,2.38,1.3,3.56,1,2.25,1.51,4.7,3,6.73a7.83,7.83,0,0,0,2.58,4c1.47,1.43,3,2.83,4.47,4.22a21.23,21.23,0,0,0,7.95,5,11.36,11.36,0,0,1,3,1.37,7.27,7.27,0,0,0,2.37.89q4.94,1.31,9.89,2.53a21.58,21.58,0,0,0,2.77.44c3.3.36,6.64-.61,9.93.34a.7.7,0,0,0,.25,0,33.27,33.27,0,0,1,8.4.19,5,5,0,0,0,1.53.1c2.43-.51,4.9,0,7.35-.47s5.23-.44,7.81-1.17c2.2-.63,4.55-.67,6.78-1.19a25.62,25.62,0,0,0,9.26-4.18,9.84,9.84,0,0,1,1.58-.82,47.09,47.09,0,0,0,5.73-2.73,43.42,43.42,0,0,0,5.09-4.23c1-.84,1.67-2,2.74-2.67a9.38,9.38,0,0,0,2.9-2.81c.94-1.31,1.93-2.59,2.84-3.92a25.32,25.32,0,0,0,2.29-3.65c1-2.32,1.82-4.77,2.84-7.1a8.83,8.83,0,0,0,.9-4.7,3.36,3.36,0,0,1,.05-.77C693.3,727.21,693,723.45,693.28,719.72Zm-22.44-13.19a3.57,3.57,0,0,1-1.93,2.27,29,29,0,0,1-4.77,1.81c-1.8.42-3.61,1.13-5.54.68a1.92,1.92,0,0,0-1,.11c-2.71.89-5.54.86-8.32,1.18-2.26.25-4.51,0-6.76.09a7,7,0,0,0-.09.9,20.61,20.61,0,0,0,.53,5.59,5.3,5.3,0,0,1,.32,1.5,25.53,25.53,0,0,0,1.2,7.56,1.55,1.55,0,0,1-.72,2,1.68,1.68,0,0,0-.78,1.24,9.84,9.84,0,0,1-2.91,5.28,23,23,0,0,1-2.65,2.4c-1.83,1.24-3.7,2.47-6.13,1.82a7,7,0,0,0-1.66,0c-2.17-1.47-3.27-3.66-4.4-5.71a9.2,9.2,0,0,1-1.06-6,3.89,3.89,0,0,0,.15-1.25c-.54-3.21-.18-6.44-.28-9.66a2.44,2.44,0,0,0-.08-1c-.84-1.58-.65-3.3-.78-5H623a21,21,0,0,0-5.59.53,5.78,5.78,0,0,1-1.5.33,25.2,25.2,0,0,0-7.56,1.19,1.57,1.57,0,0,1-2-.72,1.64,1.64,0,0,0-1.23-.78,9.7,9.7,0,0,1-5.28-2.91,22.18,22.18,0,0,1-2.4-2.65c-1.24-1.83-2.48-3.7-1.82-6.13a7.49,7.49,0,0,0,0-1.65c1.47-2.17,3.67-3.27,5.72-4.41a9.26,9.26,0,0,1,5.95-1.06,3.86,3.86,0,0,0,1.25.15c3.21-.54,6.44-.18,9.66-.28a2.56,2.56,0,0,0,1-.07c1.54-.83,3.21-.67,4.85-.78,0-.64,0-1.28,0-1.92,0-1.5-.65-3-.51-4.55a17.2,17.2,0,0,0,0-2.27,6.39,6.39,0,0,0-.26-1.75,6.86,6.86,0,0,1-.46-2.76,2.48,2.48,0,0,0-.2-1.24c-1-1.9-.49-3.85-.18-5.76a3.33,3.33,0,0,1,2-2.81,1.62,1.62,0,0,0,.64-.42c1.55-1.85,3.77-2.6,5.86-3.5a7.64,7.64,0,0,1,5.72-.42,3.55,3.55,0,0,1,2.27,1.93,30,30,0,0,1,1.81,4.77c.42,1.8,1.13,3.6.67,5.53a2.09,2.09,0,0,0,.12,1c.88,2.71.86,5.53,1.17,8.32.26,2.23,0,4.45.09,6.66.86.05,1.73.05,2.6.05,1.5,0,3-.64,4.54-.51a15.77,15.77,0,0,0,2.28,0,6.39,6.39,0,0,0,1.75-.26,6.81,6.81,0,0,1,2.75-.46,2.46,2.46,0,0,0,1.24-.2c1.91-1,3.86-.49,5.77-.18a3.35,3.35,0,0,1,2.81,2,1.56,1.56,0,0,0,.42.64c1.84,1.55,2.6,3.77,3.49,5.86A7.65,7.65,0,0,1,670.84,706.53Z"/></svg>