<svg id="Camada_1" data-name="Camada 1" xmlns="http://www.w3.org/2000/svg" viewBox="0 0 1920 1920"><defs><style>.cls-1{fill:#f6b844;}.cls-2,.cls-3,.cls-5{fill:#0f0f0f;}.cls-3{font-size:57.73px;}.cls-3,.cls-5,.cls-8{font-family:FuturaPT-Bold, Futura PT;font-weight:700;}.cls-4{letter-spacing:-0.06em;}.cls-5,.cls-8{font-size:58.39px;}.cls-6{letter-spacing:-0.04em;}.cls-7{letter-spacing:0em;}.cls-8{fill:#f9f4ed;}.cls-9{letter-spacing:-0.02em;}.cls-10{font-size:50.52px;font-family:SerifaStd-Roman, Serifa Std;}.cls-11{letter-spacing:0.02em;}.cls-12{letter-spacing:0em;}</style></defs><path class="cls-1" d="M981.05,858.34a197,197,0,0,1,170.68,98.53,196.15,196.15,0,0,0,26.37-98.53c0-108.83-88.22-197.05-197-197.05S784,749.51,784,858.34a196.15,196.15,0,0,0,26.37,98.53A197,197,0,0,1,981.05,858.34Z"/><path class="cls-2" d="M981.05,1055.39a197,197,0,0,1-170.69-98.52A196.08,196.08,0,0,0,784,1055.39c0,108.83,88.23,197.06,197.06,197.06s197-88.23,197-197.06a196.08,196.08,0,0,0-26.37-98.52A197,197,0,0,1,981.05,1055.39Z"/><text class="cls-3" transform="translate(858.46 973.42)">CU<tspan class="cls-4" x="75.62" y="0">L</tspan><tspan x="99.18" y="0">TURA</tspan></text><text class="cls-5" transform="translate(880.21 806.96)">CI<tspan class="cls-6" x="52.66" y="0">D</tspan><tspan class="cls-7" x="91.08" y="0">ADE</tspan></text><text class="cls-8" transform="translate(914.72 1149.99)">A<tspan class="cls-9" x="41.45" y="0">R</tspan><tspan x="76.6" y="0">TE</tspan></text><path d="M1296.09,427.73c-11.57,1-22.18,1.93-32.77,3-2.91.29-3.51,2.32-2.87,4.87,2.08,8.34,4.2,16.66,6.26,25,.72,2.91,1.25,5.86,2,8.77.66,2.75-.72,3.78-3.17,4.24a49.91,49.91,0,0,0-6.73,1.72c-4.06,1.38-5.77.65-6.14-3.62-.56-6.49-.31-13.05-1-19.52a63.08,63.08,0,0,0-3.39-14c-.36-1-3.79-2-5.18-1.46-9.5,3.82-18.86,8-28.19,12.21-3.75,1.69-5.73.8-6-3.38-.59-10.65-.85-21.33-1.68-32a203.46,203.46,0,0,0-2.87-20.38c-.52-2.9.06-4.12,2.91-5.18q22.08-8.16,44-16.76c6.75-2.63,13.41-5.52,20-8.49,1.52-.68,2.73-2.13,4-3.31.56-.52.83-1.63,1.42-1.79,7.22-2,9.17-8.86,13.1-13.89,4.65-5.94,9.36-11.82,14-17.79,6-7.78,11.9-15.67,18-23.41,1-1.23,2.66-2.77,3.91-2.68,2.44.18,3.16,2.37,2.82,4.72-1,6.59,1.28,12.47,3.39,18.58,2.78,8.09,4.44,16.56,6.83,24.8,3.43,11.86,7.14,23.64,10.6,35.5,2.14,7.35,4,14.79,6,22.18,1,3.74,2.1,7.48,3.17,11.22s2,7.28,3.19,10.83c.88,2.55,2.37,4.9,3.25,7.45.5,1.46.88,3.43.26,4.63-.46.89-2.61,1.3-4,1.26-15.63-.36-30.36-5.51-45.46-8.65C1308.85,431,1302.09,429.18,1296.09,427.73Z"/><path d="M1399.52,292.8a6.48,6.48,0,0,1-.77.1c-1.86,0-4.4.71-4.36-2.18,0-.72,2.73-2.08,4.15-2,11,.43,19.21,6.38,27,13.4,9.59,8.68,13.67,20.38,18,32,.82,2.2,1.69,4.38,2.54,6.56,2,5.17,3,10.37,1.89,16-.79,3.93-1.53,8.06-1.18,12,.76,8.66-1.92,16.73-3.42,25a8.67,8.67,0,0,1-2.18,3.79c-.26.31-2.25-.18-2.31-.51a9.45,9.45,0,0,1,0-4.39c4.82-15.51,7.1-31.62,3.85-47.33-3.66-17.7-11.28-34.23-26.64-45.43C1411.23,296.25,1406.26,292.16,1399.52,292.8Z"/><path d="M1407.13,363.1c1,9.16-3.92,18.59-6.13,28.58a3.84,3.84,0,0,1-1,2.09,17.15,17.15,0,0,1-3.1,1.61c-.51-1.09-1.61-2.3-1.42-3.26.38-2,1.5-3.82,2.22-5.75,7.25-19.41,6.67-38.78-2.26-57.29-4.56-9.44-11.85-17-24.11-16.11-1.21.09-2.53-1.45-3.8-2.23,1.25-.67,2.49-1.9,3.74-1.92,12.43-.22,21.26,6,27.42,16.26C1403.43,333,1407.83,352.83,1407.13,363.1Z"/><path d="M1379.53,369.48c-.79,6.46-1.46,11.63-2,16.8-.17,1.53.22,3.19-.22,4.61s-1.63,2.7-2.49,4c-.81-1.39-2.37-2.83-2.27-4.15.23-3.19,1.31-6.3,1.92-9.47,2.14-11,1-21.59-5-31.22-2.9-4.65-6.47-8.74-12.77-9-1.23-.05-3.43-1.82-3.37-2.66.22-2.65,2.47-2,4.25-1.58,10.66,2.66,16.7,10,19.68,20.09C1378.53,361.38,1378.93,366.11,1379.53,369.48Z"/><text class="cls-10" transform="translate(1187.76 549.6)">Ativismo<tspan x="19.68" y="60.62">Urbano</tspan></text><path d="M895.8,368.11c.1,3.05.31,6.11.28,9.17,0,4.38-.29,8.75-.38,13.12-.06,2.94-1.65,4-4.37,3.85-14.12-1-28.23-2.55-42.37-2.93-14.61-.4-29.26.2-43.89.59-11.38.31-22.47-1.36-33.66-3.3-7.18-1.24-14.71-.58-22.08-.51a85.81,85.81,0,0,0-10.58,1.08c-2.39.33-3.15-.75-2.69-2.83.66-3,1.59-6,2.3-8.94,2-8.22,3.39-16.49,2.39-25a18.55,18.55,0,0,1,.06-3.57c.3-4.21,2.22-5.28,6.49-4.64,5.12.76,10.32,1.05,15.49,1.34,2.53.14,4-1.19,4.83-3.79,2.75-8.29,1.92-16.72,1.08-25.08-.52-5.19,1.46-7.17,6.72-6.26,6.18,1.06,12.46,1.58,18.71,2.25,2,.22,3.19-.83,3.16-2.91,0-4.16-.23-8.32-.21-12.48a53.65,53.65,0,0,1,.49-8.51c.58-3.54,1.74-4.05,5.26-3.05a72.26,72.26,0,0,0,28.54,2.68c6-.7,6.06-.79,6.5-6.83.41-5.55,1-11.09,1.6-16.62.3-2.72,2.18-3.49,4.63-3.24L885.92,266c1.89.19,3.77.39,5.66.63,2.11.28,2.84,1.47,2.3,3.53-.48,1.81-.88,3.64-1.32,5.48a3.2,3.2,0,0,1-.62-.05c-.55-4.95-4.45-4.83-8.05-5.74-11.91-3-24.1-2.05-36.15-2.88-4.63-.32-5.16.39-5.33,5-.2,5.23-.32,10.47-.19,15.7.08,3.26-1.25,4.72-4.38,4.58-10.2-.47-20.42-.82-30.6-1.56-5.93-.43-6.33-.24-6,5.67s.53,11.65.75,17.47c.12,3-1.52,4-4.51,3.57q-10.89-1.49-21.87-2.29c-.79-.06-2.42,1.8-2.47,2.83-.19,3.56.37,7.15.23,10.7-.25,6-.67,12.08-1.39,18.07-.11.93-2.15,2.3-3.33,2.34a166.86,166.86,0,0,1-17.47-.15c-5.05-.36-6.13.2-6.44,5.37a56.85,56.85,0,0,0-.18,7.14c.47,6.56-1.22,12.69-3.18,18.84-1,3.17,0,4.3,3.41,4.22,3.69-.1,7.38-.27,11-.57,8.46-.67,16.43,2.33,24.64,3.12a202.69,202.69,0,0,0,32.77.71c14.4-1,28.62-1.42,43,.49,10.46,1.39,21.14,1.1,31.73,1.34,4.25.09,5-1.25,5.07-5.45.09-5.31.63-10.61,1-15.91Z"/><text class="cls-10" transform="translate(670.92 478.01)">Pedagogia <tspan x="44.94" y="60.62">Urbana</tspan></text><path d="M1498.41,1218.92c-7.71-1.84-14.77-3.6-21.88-5.19a20.3,20.3,0,0,0-5.76-.48c-4,.27-5.89-1.48-4.7-5.3a121.85,121.85,0,0,1,6.67-17.92c3.51-7.09,7.26-14.23,12.08-20.44,9.16-11.78,21.64-19.44,36.44-20.67,10.72-.89,16.82-6.35,22.12-14.33,7.64-11.52,15.59-22.84,22.82-34.6,3.17-5.16,4.92-11.19,7.27-16.84.45-1.08.6-2.28,1-3.36,2.75-6.56,4.39-7.07,10.45-3.61,4.64,2.65,9.2,5.52,14.12,7.5,2.55,1,5.84.06,8.71.53a121.71,121.71,0,0,1,13.73,3.12c.48.14.92,2.84.38,3.75-5.67,9.48-11.55,18.84-17.37,28.23q-11.32,18.27-22.67,36.53c-2.13,3.42-.66,5.4,1.93,8a86.1,86.1,0,0,1,10.34,13,25.68,25.68,0,0,1,3.33,8.61c.69,3.09-1.25,4.63-4.24,5.45-10.91,3-21.76,6.18-32.65,9.25-4,1.13-8.08,2.07-12.09,3.21-10.41,3-20.8,6-31.19,9a3.37,3.37,0,0,0-1.45.57c-4.51,4.85-11.39,3-16.58,5.87A1.32,1.32,0,0,1,1498.41,1218.92Zm67.54-63.54a18.3,18.3,0,0,0,3.26-3.31c5.28-8.78,10.51-17.59,15.59-26.49,6-10.43,11.73-20.95,17.59-31.43,1.68-3,.47-4.25-2.55-5.4a86.55,86.55,0,0,1-13.36-6.37c-4.76-2.83-5.89-2.31-8.34,2.78a285.86,285.86,0,0,1-13.85,26.13c-7,11.32-14.73,22.13-22.07,33.22-2.25,3.42-1.56,4.87,2.33,5.68.89.19,1.79.34,2.68.55Zm-6.41,4.94c-1.25-1-1.83-1.86-2.58-2.07-7.41-2.07-14.75-5.23-22.28-5.79-18.13-1.35-33.67,5.45-45.23,19.36-5.74,6.9-9.61,15.4-14.06,23.33a40.71,40.71,0,0,0-3.22,8.77c-.83,2.88.19,4.66,3.46,5.21,5,.84,9.93,2.23,15,2.95,1.38.2,3.83-.78,4.34-1.89,2.46-5.39,4.59-10.76,8.33-15.65,7.1-9.27,15-17.67,24.88-23.66,8.29-5,17.18-9.4,27.46-9C1556.71,1161.9,1557.84,1161,1559.54,1160.32Zm-32.13,43.57c-4.5-4.44-9-3.67-10.28.38-.22.69,1.33,2.74,1.64,2.66C1521.7,1206.1,1524.54,1205,1527.41,1203.89Zm17.25-28.88c-1.66-1.29-2.6-2.58-3.54-2.58s-1.79,1.36-2.69,2.11c.88.74,1.68,1.88,2.67,2.08C1541.9,1176.79,1542.94,1175.84,1544.66,1175Z"/><path d="M1585.91,1033.23a24.41,24.41,0,0,1,1.13,4.51c.39,6.62.71,13.25.84,19.88,0,1-1.15,2-1.77,3-1-.73-2.42-1.28-2.78-2.24a12.67,12.67,0,0,1-.25-4.62q.33-9,.77-18a11.36,11.36,0,0,1,.67-2.44Z"/><path d="M1612.93,1041.35c.18.67.65,1.43.5,2-1.59,6.42-3.2,12.83-5,19.18-.22.79-1.65,1.23-2.53,1.83-.51-1-1.68-2.14-1.44-2.83,2.35-6.71,4.93-13.35,7.48-20C1612,1041.44,1612.38,1041.46,1612.93,1041.35Z"/><path d="M1645.33,1060.92c-.07,7.32-11.83,17.95-17.29,15.56C1634.17,1071.68,1638.45,1065.38,1645.33,1060.92Z"/><text class="cls-10" transform="translate(1424.6 1283)">Ativação<tspan x="18.29" y="60.62">Urbana</tspan></text><path d="M1192.41,1442.1c-4.65,1.69-9.33,3.29-13.94,5.08-5.75,2.23-11.42,4.65-17.14,6.94-5.44,2.17-10.91,4.25-16.34,6.43-1.44.58-2.77,1.42-4.18,2.08-1.84.85-3.72,1.6-5.54,2.5-.61.31-1.38.88-1.49,1.44s.65,1.18,1.18,1.58c3.14,2.36,6.42,4.56,9.48,7,4.39,3.54,8.58,7.3,12.93,10.89,3.94,3.25,8.05,6.31,12,9.62s7.28,6.64,11,9.87c2.27,2,5.07,1.23,7.46.55,6.21-1.8,12.36-3.85,18.44-6.07,4.56-1.67,8.93-3.86,13.46-5.64,7.28-2.86,14.61-5.58,21.94-8.32,2.06-.78,3-1.73,3.66-4.52l4.17,2.41c-3.7,3.31-4.48,7.58-5.54,11.58-1,3.8-1.18,7.81-1.77,11.73q-2.09,13.74-4.21,27.48a4.59,4.59,0,0,0-.16,1.63c.87,3.76-2,4.8-4.43,6.14-4,2.2-8.06,4.46-12.15,6.58-6.75,3.52-13.72,6.68-20.29,10.5a149.7,149.7,0,0,0-14.17,9.94c-3.59,2.69-7,5.68-10.45,8.5-.93.74-4.21-.67-5.17-2.17-1.59-2.46-3.06-5-4.77-7.39a77.53,77.53,0,0,0-6.19-7.77,82,82,0,0,1-10.76-14c-1.38-2.32-3.38-4.25-5-6.44-3-4.08-5.93-8.27-9.05-12.29-.95-1.23-2.56-1.94-3.63-3.11a4.67,4.67,0,0,1-1.34-2.92c.24-7.58.8-15.16,1-22.74.25-9.76.27-19.54.32-29.3a2.86,2.86,0,0,0-.85-1.95c-1.21-1.1-.91-2,.29-2.57,8.47-3.85,17-7.68,25.48-11.39,4.62-2,9.34-3.75,14-5.58,1.77-.69,3.56-1.34,5.38-1.88,3.12-.92,6.29-1.69,9.4-2.64,2.31-.7,4.56-1.59,6.83-2.4Zm-60.09,73.66c-.82,3.91.57,6.81,3.34,9.82,4.85,5.3,9,11.24,13.38,17,3,4,5.63,8.37,8.85,12.22,5.15,6.15,10.93,11.78,14.5,19.12a1.79,1.79,0,0,0,1.46.77c.36,0,.84-.77.93-1.25.47-2.67.81-5.37,1.25-8,.67-4.1,1.92-8.19,1.92-12.28,0-5.8.15-11.55.67-17.34.78-8.56.89-17.18,1.21-25.78a5.19,5.19,0,0,0-2-4.82,56.55,56.55,0,0,1-5.23-4.82c-2.76-2.62-5.5-5.28-8.28-7.89a27.46,27.46,0,0,0-2.66-2.15c-2.9-2.1-5.87-4.1-8.71-6.28-4.41-3.38-8.73-6.88-13.09-10.32-1.32-1-2.63-2.12-4-3.08a1.69,1.69,0,0,0-1.47-.2,1.75,1.75,0,0,0-.62,1.31c-.07,1,.08,1.91,0,2.86Q1133.05,1495.18,1132.32,1515.76Zm53.65-7.48c-3.59,0-4.27.54-4.38,2.85-.26,5.92-.54,11.83-.78,17.75-.18,4.41-.3,8.82-.47,13.23-.1,2.59-.59,5.21-.31,7.75.52,4.74-.54,9.19-1.64,13.69a43,43,0,0,0-.85,5.65,2,2,0,0,0,.65,1.34c.12.12.76-.1,1.06-.32,3.18-2.32,6.23-4.82,9.51-7,5.84-3.85,11.73-7.62,17.74-11.18,3.63-2.14,7.52-3.84,11.31-5.71,2.8-1.38,5.67-2.64,8.46-4.07,3.06-1.56,5.58-3.75,6.38-7.26,1.06-4.64,2.06-9.31,2.84-14,1.34-8,2.46-16,3.74-24.06.32-2,.93-4,1.38-6,.37-1.65-.34-2.22-1.89-1.7-3.6,1.21-7.22,2.36-10.77,3.73-5.75,2.22-11.42,4.68-17.18,6.89q-10,3.84-20.1,7.4A28.45,28.45,0,0,1,1186,1508.28Z"/><path d="M1252.65,1552c-.05,2.17-1,2.92-2.46,2.08a4.77,4.77,0,0,0-5.21.37c-4.64,2.86-9.17,5.89-13.84,8.72-3.25,2-6.67,3.65-10,5.54q-6.62,3.78-13.16,7.69a90.45,90.45,0,0,0-16.13,12.44c-1.71,1.63-1.62,2.43.26,3.94a19.47,19.47,0,0,1,2.84,2.31c.39.45.16,1.43.21,2.17-.65-.17-1.47-.13-1.92-.53-2.86-2.51-5.64-5.1-8.43-7.69-.4-.37-.9-.82-1-1.29a7.34,7.34,0,0,1,.29-2,5.38,5.38,0,0,1,1.94.49c.93.68,1.63,2.16,2.53,2.24s1.79-1.22,2.63-2a116.2,116.2,0,0,1,17.9-13.56c2.91-1.77,6-3.27,8.9-5,6.59-3.94,13.13-8,19.69-11.93,2.49-1.51,5-3.07,7.49-4.51,1.79-1,2-1.63.86-3.36-.31-.45-.86-.86-.91-1.33a2.44,2.44,0,0,1,.49-1.76c.21-.23,1.24-.07,1.56.25,1.71,1.74,3.34,3.55,4.93,5.41A3.47,3.47,0,0,1,1252.65,1552Z"/><path d="M1148,1593.69c-1.15-2-.91-2.75,1.07-3.66,2.16-1,2.09-1,.83-3-4.64-7.35-9.18-14.76-13.82-22.11a44.2,44.2,0,0,0-8.89-10.53c-2.75-2.32-4.75-5.55-7-8.48-1.3-1.73-2.3-3.67-3.47-5.49-.67-1.05-1.39-1.41-2.43-.27-.34.38-1.14.36-1.72.52,0-.69-.19-1.75.16-2,2.13-1.51,3.82-3.82,7-3.55,1,.09,2-.94,3-1.39a9.68,9.68,0,0,1,2-.64c.08,0,.52.82.4,1a6,6,0,0,1-1.65,1.85c-1.19.76-2.57,1.21-3.76,2a1.82,1.82,0,0,0-.51,2.84c2.52,3.4,5,6.87,7.66,10.09,1.6,1.9,4,3.16,5.47,5.14,2.68,3.65,4.9,7.64,7.33,11.47q2.12,3.36,4.29,6.68,4,6.08,8,12.12c1.23,1.85,2.12,2,4.11,1a5.55,5.55,0,0,1,1.67-.76,5.18,5.18,0,0,1,1.71.4c-.31.58-.47,1.47-1,1.7-2.64,1.25-5.36,2.31-8,3.51A21,21,0,0,0,1148,1593.69Z"/><path d="M1233.14,1573.63a14.3,14.3,0,0,1-.36,2.46c-1.38,4.24-2.83,8.46-4.26,12.69-.31.9-.33,2.4-1.78,1.75-.48-.21-.43-1.71-.54-2.63,0-.22.23-.48.34-.72,2-4.26,1.65-5.13-2.67-6.87a3.35,3.35,0,0,1-1.51-1.47c-.14-.23.44-1.23.68-1.23a3.51,3.51,0,0,1,2,.62c3,2.31,4,2,5.31-1.68a25.23,25.23,0,0,1,1.75-3.33Z"/><path d="M1123.68,1561.87c.19.48.46.82.39,1.06-.79,2.52.57,3.12,2.7,3.2,1.21,0,2,.77,1.63,2-.09.29-1.4.51-2,.32-2.71-.88-3.37-.54-4,2.29a2.42,2.42,0,0,1-1,1.46,9.18,9.18,0,0,0-.51-1.74,6.08,6.08,0,0,0-1.3-2c-1-.82-.91-1.84.05-2,2.13-.47,2.72-2,3.25-3.68C1123,1562.45,1123.32,1562.25,1123.68,1561.87Z"/><path d="M1215.12,1440.15c-1.93-.89-3.37-2-4.91-2.15s-3.15.65-4.75.93a9.05,9.05,0,0,1-3.58-.09c.8-.34,1.57-.76,2.39-1,2.39-.74,4.77-1.52,7.21-2.07a2.54,2.54,0,0,1,2.12.82A18.15,18.15,0,0,1,1215.12,1440.15Z"/><path d="M1217.7,1443c2.11,3,5.82,4.86,6.43,9l-.7.5-6.35-9Z"/><path d="M1229.86,1461.41l-4.1-5.65.67-.49c1.37,1.89,2.74,3.77,4.1,5.66Z"/><path d="M1238.53,1472.16l2.39,3.26-.6.44c-1.89-.25-2.11-1.77-2.41-3.24Z"/><text class="cls-10" transform="translate(1092.59 1645.72)">Projetos</text><path d="M828.49,1573c-5.2,4.13-31.94,5.51-36.31,1.31,1.63-.63,3-1.52,4.3-1.57,3.5-.15,4.94-2.2,3.9-5-3.66-10.06-2-20.53-2.72-30.8-.24-3.34-1.31-5.25-4.6-5.47q-8.73-.59-17.5-.88c-3.19-.1-6.47.58-9.54,0-5.23-1-9.86-1-13.28,4.39-2.54-3.35-5.31-5.37-8.89-2.6a3.44,3.44,0,0,0-.48,3.28c2.1,3.94,5,1.36,8.7-.34-4.94,9.46-9.35,17.62-13.49,25.93-2.68,5.35-1.17,8.27,4.66,8.82,9.58.91,19.16,3.84,28.86.42.87-.3,2.3,1,3.46,1.52-.89.9-1.69,2.45-2.69,2.59-11.52,1.63-23.38,5.43-34.53,4-16.48-2.16-32.54,1.75-48.76.19a16.25,16.25,0,0,0-6.62.89c-8.46,2.94-16.38-.35-24.35-2.15-1.58-.35-3.87-3.54-3.59-5,.64-3.36,3.64-2.34,5.82-1.27,9.94,4.85,19.07,3.09,28-2.8a74.84,74.84,0,0,0,24.43-25.5c6-10.48,13.36-20.2,20-30.32,8.05-12.21,15.85-24.58,24.06-36.68,2.93-4.32,6.75-8,10.13-12.06.9-1.07,1.68-2.23,2.5-3.36,2.78-3.84,5.52-6.82,11.3-6.27,8.22.79,16.57.22,24.86.32,5.42.06,6.26,1.38,4.31,6.17a17.58,17.58,0,0,0-1.23,4.1c-1.32,9.11-2.83,18.22-3.77,27.38-1.19,11.71-2.6,23.48-2.64,35.22,0,13,1.46,25.92,2.15,38.89.26,5,2.67,6.64,7.46,6.17,5.29-.51,10.63-.57,15.94-.82Zm-69.81-52.28c.76-2.84,1.52-5.69,2.3-8.63-6.83-.09-12.46,7.17-10.12,12.89.3.74,3.46,1.26,4.36.6,1.56-1.14,2.4-3.28,3.54-5,1.79,3.38,3.79,5.81,8.41,5.66,8.73-.27,17.49.23,26.23.45,3.51.08,4-2,4.26-5,1-11.73,2.15-23.44,3.34-35.15.34-3.33,1.19-6.61,1.43-9.93.13-1.95-.5-3.94-.78-5.91-2.17.69-5.13.71-6.36,2.19-7.11,8.5-14,17.22-20.53,26.17-2,2.75-3.83,4.82-7.35,5.31-1.53.22-2.92,1.44-4.38,2.2,1.57.31,2.57-.47,3.69-.85a2.37,2.37,0,0,1,2.11.53,2.18,2.18,0,0,1,0,2.1C765.52,1512.52,762.08,1516.59,758.68,1520.69ZM741,1550.08l3.2-6.76c-1.43-.53-3.55-1.9-4.17-1.4a10.94,10.94,0,0,0-3.09,5C736.83,1547.36,739,1548.56,741,1550.08Zm61.14-88.6-.48-1.56c-1.34-.29-3.07-1.23-3.93-.72-1.62,1-2.74,2.75-4.06,4.19,1.23.61,2.78,2,3.64,1.68C799.14,1464.36,800.58,1462.73,802.17,1461.48Z"/><text class="cls-10" transform="translate(652.47 1645.72)">Editorial</text><path d="M378.82,990.06c-2.71-3.65-6.51-4.84-10.21-5.77-5.2-1.29-10.53-2.08-15.82-2.95a6.51,6.51,0,0,0-3.14.52c-3,1.12-4.57.32-4.9-2.86-.17-1.61.15-3.27.08-4.9-.13-3.09-.36-6.18-.6-9.27-.17-2.08-1.56-2.67-3.43-2.69-2.64,0-5.3.05-7.91-.22-5.14-.54-7-3.9-7.58-8.91-.63-5.36,1.7-8.48,6.69-9.69a60.29,60.29,0,0,1,8.34-1.42,3.58,3.58,0,0,0,3.61-3.68c.38-5.27.39-10.58,1-15.83a33,33,0,0,1,2.56-9.28,42.63,42.63,0,0,1,5.59-9.64c5.75-7.13,13.62-7.2,21.71-5.55,8.41,1.72,14.53,7.24,19.54,13.57a197.27,197.27,0,0,1,15,22.38,122.67,122.67,0,0,1,15.68,42,97.2,97.2,0,0,1,.49,31.3,45,45,0,0,1-12.39,25.24c-5.28,5.43-11.16,10.28-19.22,11.08-10.62,1-21.12,1.27-30.9-4.11-10.69-5.86-14.54-15.71-15.94-27-.28-2.26-.39-4.54-.7-6.8-.29-2.09.2-3.29,2.46-4.07,9.21-3.18,18.33-6.59,27.47-10A17.15,17.15,0,0,0,378.82,990.06Zm5.47,50c8.4-.53,16.37-1.44,23-7.54,4.73-4.37,8.83-9.06,11.68-14.91,2.25-4.63,2.82-9.55,3.58-14.5,1.66-10.9.58-21.67-2-32.27a111.82,111.82,0,0,0-4.93-14.74c-2.74-6.9-5.21-14-8.95-20.38a184.14,184.14,0,0,0-15.73-22.27c-4.78-5.9-10.58-10.86-18.68-11.93a16.77,16.77,0,0,0-12,2.55c-4.63,3.19-7.4,8.17-9.27,13.19-1.75,4.67-2.14,9.91-2.72,15a52.35,52.35,0,0,0,0,10.62c.22,2.45-.13,3.18-2.64,3.36a86.44,86.44,0,0,0-10.79,1.2,8.57,8.57,0,0,0-4.3,2.68c-2.09,2.31-1.09,6.33,1.87,7.06a29,29,0,0,0,8.57.6c4.52-.29,6.39,1,6.63,5.44.18,3.37.37,6.74.5,10.11a3,3,0,0,0,2.66,3.2c5.09,1,10.16,2.14,15.24,3.16q9,1.8,18,3.47c2.09.39,5.62,5,5,7a3.82,3.82,0,0,1-2.14,2.11c-4.22,1.4-8.59,2.35-12.74,3.9-6.64,2.49-13.15,5.34-19.71,8a4,4,0,0,0-2.68,4.28,47.89,47.89,0,0,0,3,16.83c2.93,7.33,8.83,11,15.73,13.07C374.71,1039.68,379.6,1039.56,384.29,1040.09Z"/><path d="M336.48,872.94a44.4,44.4,0,0,0-5.37-.25c-3.33.27-4,0-4.43-3.17-.35-2.42-2.14-2.4-3.66-2.31-3.28.18-5.49-1.52-7.66-3.56a6.76,6.76,0,0,1-1.73-7.54c1-3,2.85-5.58,6.62-5.5,2.53,0,4-1,4.62-3.58,1.9-7.62,7.44-12,14.2-15.11,3.93-1.79,7.34,0,10.78,1.92a36.18,36.18,0,0,1,16.57,19.22c2.59,6.62,2.47,13.59.71,20.47-1.47,5.72-3.94,11-8.5,14.87a14.29,14.29,0,0,1-5.44,2.75A86.18,86.18,0,0,1,342,893.4c-6.39.8-10.16-1.55-12.59-7.43-.65-1.58-1.36-3.16-1.87-4.79s-.32-2.89,1.9-3.33C333.45,877,335,875.9,336.48,872.94Zm4.11,16.13c11.27.09,20-4.38,23.23-16.78,3.31-12.73-3.27-28.53-15.16-34.65-3.08-1.58-6.23-2.19-9.42-.51-4.63,2.44-8.29,5.81-10.16,10.88-.58,1.59-1.26,3,.16,4.53a2.58,2.58,0,0,1,0,2.47c-.33.49-1.51.5-2.32.52a59,59,0,0,0-6.52.06c-1.86.25-3.35,1.75-2.92,3.63a5.07,5.07,0,0,0,3,2.9,7.68,7.68,0,0,0,4.22-.24c3-.75,4.5.08,5.09,3.06s1.93,4,4.81,4.25a74,74,0,0,1,7.6.71c1.11.19,2.07,1.15,3.1,1.76-.66,1.1-1.06,2.58-2,3.24a79,79,0,0,1-8.9,5.29c-2.14,1.08-2.43,2.47-1.61,4.45C334.43,888.64,337.78,889.29,340.59,889.07Z"/><path d="M438.11,884.05c-1,3.66-1.4,7.57-3,10.92-3.8,7.86-10.13,10.87-19,9A32,32,0,0,1,405,899.25c-4.15-2.83-5.66-7.38-4.87-12.52.28-1.85,1.45-2.52,3.09-3a19.84,19.84,0,0,0,4.74-1.87c.68-.4.89-1.58,1.31-2.41a12.21,12.21,0,0,0-2.47-.56c-1.45,0-2.9.31-4.35.28-3.87-.08-5.4-1.53-5.06-5.39.25-2.7-.81-3.74-3.19-4.41a24.32,24.32,0,0,1-6.46-2.61c-2.12-1.36-2-3.51-.35-5.38a10.26,10.26,0,0,1,8.69-3.74c2.3.16,3.83-.7,4.71-3.18,1.72-4.83,5.25-8.51,9.15-11.61,1.11-.87,3.92-.56,5.44.21,5.21,2.65,10.59,5.18,14.3,10a12.71,12.71,0,0,1,1.76,2.75c3.73,9,6.32,18.21,6,28.08Zm-25.95-8.91v0c.63,0,1.41-.24,1.88,0a11,11,0,0,1,3.23,2.58c.21.28-.93,1.93-1.75,2.56-2.88,2.17-5.9,4.16-8.86,6.24-1.52,1.07-3.23,2.29-2.44,4.39.72,1.88,1.68,4.09,3.22,5.13a29.51,29.51,0,0,0,8.56,3.8,14.74,14.74,0,0,0,17.19-8.71c1.71-4.23.82-8.41.91-12.65.14-7-2.9-13.17-5.25-19.33-2.41-6.32-8.94-9.17-14.79-12.12a1.89,1.89,0,0,0-1.54-.08,18.48,18.48,0,0,0-9.2,11.87c-.85,3.34-1.17,3.87-4.6,3.64a24.47,24.47,0,0,0-4.84.22,1.8,1.8,0,0,0-1.16,1.29,1.83,1.83,0,0,0,1.09,1.35,16.16,16.16,0,0,0,3.47.6c3.85.36,4.43,1,4.3,4.94a6.17,6.17,0,0,1-.16,1.36c-.52,2,.66,2.75,2.3,2.82C406.53,875.22,409.34,875.14,412.16,875.14Z"/><path d="M365.82,938.51c-1.38-1.85-2.59-2.84-2.91-4.06a1.88,1.88,0,0,1,2.32-2.45,6.9,6.9,0,0,1,3.28,3C368.72,935.41,367.17,936.82,365.82,938.51Z"/><path d="M345.38,848.11c-1.5,1.23-2.68,2.59-3,2.41a7.71,7.71,0,0,1-2.83-2.84c-.15-.25,1.48-2.19,2-2.08C342.71,845.82,343.68,846.91,345.38,848.11Z"/><path d="M414.05,860.41l-3.42-2.63,3-3.11c.94.94,2.2,1.73,2.67,2.86C416.48,858,415,859.19,414.05,860.41Z"/><text class="cls-10" transform="translate(272.63 1117.55)">Eventos <tspan x="-19.63" y="60.62">&amp; Oficinas</tspan></text><path d="M484.42,1311.52c-.8,0-1.6,0-2.4,0a5.11,5.11,0,0,0-4.59,1.9c-4.07,4.86-8.38,9.54-12.39,14.45s-7.79,10.22-11.77,15.26-8.28,10.17-12.4,15.28c-2,2.53-3.88,5.2-6,7.64a3.7,3.7,0,0,1-2.82,1c-2.5-.3-5-1-7.43-1.43-1.8-.32-2.58-1.67-1.39-3.08,3.6-4.26,7.39-8.37,11-12.58,3.46-4,6.85-8.05,10.28-12.06q8.37-9.81,16.77-19.61c2.07-2.41,4.11-4.85,6.19-7.25,1.13-1.31.89-2.45-.49-3.24a6.5,6.5,0,0,1-3.64-4.32c-.14-.59-.88-1.12-1.45-1.52-4.34-3.1-6.95-7.29-8.82-12.3-3-8.07-2-15.8,1.58-23.19,2.77-5.76,6.77-10.72,12.64-13.88,2.62-1.41,4.9-3.45,7.57-4.71,6.64-3.12,13.2-6.34,21.08-4.8a49.73,49.73,0,0,1,9.62,3.16,19.31,19.31,0,0,0,3.29.53,3.82,3.82,0,0,1,1.86.79c3.73,3.9,8.34,7.16,10.17,12.52,1.92,5.61,3.34,11.29,1.72,17.38-2.26,8.53-5.87,16.38-11.81,22.87a23.14,23.14,0,0,1-10.12,6.81c-3.71,1.14-7.25,2.83-10.94,4a26.17,26.17,0,0,1-5.35.58ZM516.56,1274c-.59-6.06,0-12.1-4-16.94a57,57,0,0,0-6.25-6.18,14.16,14.16,0,0,0-9.57-3.59,56.34,56.34,0,0,0-20.32,4.16c-7.18,2.77-12.42,8.29-17.06,14-5.58,6.88-5.75,15-2,23,3.63,7.72,11.2,10.64,18.29,13.71,3.42,1.48,7.48,1.64,11.29,2a11,11,0,0,0,5.68-1,90,90,0,0,0,12.63-7.14,33.09,33.09,0,0,0,7.92-7.92C516,1283.91,515.76,1278.63,516.56,1274Zm-17.88,29.66c2,1,4.53-.21,5.63-2.15L504,1301Zm-66.44,58.82c-.65-.53-1.22-1.11-1.3-1a10.54,10.54,0,0,0-1.39,1.44c.35.26.78.8,1.05.73C431.11,1363.51,431.52,1363,432.24,1362.51Z"/><path d="M498.71,1285c-3.44,0-6,.1-8.64,0-1.75-.09-2.28-1-1.29-2.36q6.87-9.29,13.94-18.42c1-1.28,2.46-.78,2.54.61a35.39,35.39,0,0,1-.35,8.73c-.6,3.22-1.91,6.3-2.83,9.45C501.4,1285.33,499.66,1285.14,498.71,1285Zm5-15.73c-.29-.51-.67-1.66-1-1.65a3,3,0,0,0-2.1,1.08c-1.2,1.53-2.15,3.25-3.28,4.83-1.64,2.3-3.41,4.49-5,6.84a3.43,3.43,0,0,0-.1,2.38c0,.17,1.23.16,1.88.12,1.16-.06,2.31-.33,3.46-.31,2.5,0,3.67-1.41,4.15-3.6C502.45,1275.88,503.05,1272.74,503.75,1269.3Z"/><path d="M490.38,1297.62a13.16,13.16,0,0,0,2-1.33c1.24-1.29,2.3-2.77,3.64-3.93.48-.41,1.55-.13,2.35-.17-.22.66-.26,1.5-.69,2-1.64,1.69-3.41,3.27-5.14,4.88-1.46,1.35-3.06.43-3.83-.51a12.7,12.7,0,0,1-2.52-5.32c-.14-.69,1.51-2,2.59-2.61a12.49,12.49,0,0,1,4.33-1.08c.74-.07,1.54.51,2.31.8a7.32,7.32,0,0,1-1.58,1.35c-1.26.53-2.67.73-3.87,1.34-.74.38-1.84,1.47-1.7,1.87A10.64,10.64,0,0,0,490.38,1297.62Z"/><text class="cls-10" transform="translate(339.85 1435.72)">Pesquisa</text><path d="M535.52,586.26c3.23-2.57,6-4.56,8.54-6.89s4.58-5.1,7.06-7.45a6.28,6.28,0,0,1,3.52-1.14c2.37-.24,4.79,0,7.14-.38a5.25,5.25,0,0,1,5.54,2.11c2.48,3.29,5,6.53,7.51,9.81a6,6,0,0,1,1,1.78c.49,1.62-.47,2.62-2,2-4.8-1.77-9-.42-13.36,1.8A24.49,24.49,0,0,0,548.6,599.8a50.38,50.38,0,0,0-2.29,6.84c-.49,1.74-.61,3.58-1.15,5.3a22.48,22.48,0,0,0,0,15.2c.73,1.91-.3,2.8-2.32,2.49-4.89-.74-9.79-1.43-14.7-2s-9.89-1.17-14.85-1.57c-4.28-.34-8.59-.32-12.87-.67-6.35-.52-12.68-1.3-19-1.84-7.44-.64-14.89-1.18-22.34-1.71-3.52-.25-7-.43-10.58-.56-1,0-2.08.25-3.13.29-1.42.06-2.84.06-4.26,0-1.61,0-3.24-.31-4.84-.19-2.21.16-2.95-.44-2.77-2.6.3-3.68.56-7.35.83-11,.5-6.91,1.15-13.82,1.46-20.74.32-7.38.32-14.78.46-22.17.1-5,.42-9.94.25-14.9-.17-5.25-.76-10.49-1.28-15.73-.07-.73-.83-1.36-1.1-2.1a10.76,10.76,0,0,1-.94-3.67c0-.42,1.56-.88,2.45-1.19a30.8,30.8,0,0,1,6-1.85q11.88-1.44,23.81-2.48a127.86,127.86,0,0,1,30,1.46c5.65.85,11.46.63,17.12,1.47,4.66.69,9.18,2.27,13.79,3.38,2.25.54,4.6.73,6.81,1.39,5.35,1.6,10.22,4.14,13.87,8.48a5.52,5.52,0,0,1,1.09,3.83c-.21,1.6-1.49,2.59-3.33,2.88a4.62,4.62,0,0,0-2.66,1.75c-2.66,3.65-3.62,8-5.16,12.19-2.77,7.51-2.64,15.24-2.59,23C534.43,583.71,535,584.67,535.52,586.26ZM436,610.58c.17,8.56.17,8.5,6.44,8.58,4.37.06,8.75.22,13.11.53,7.36.54,14.73,1.13,22.08,1.9,4.65.48,9.23,1.59,13.88,1.94,6.54.49,13.12.4,19.66.79,5.79.34,11.57,1,17.35,1.52,2,.18,4,.45,6.08.61,2.46.21,2.93-.25,3-2.66a31.84,31.84,0,0,1,.4-5.63c1.49-6.52,3.49-12.95,4.65-19.52.87-5,3.7-8.35,7.23-11.28,5-4.12,10.88-6.29,17.16-7.51.6-.12,1.55-.52,1.59-.89a3.45,3.45,0,0,0-.58-2.24,15.17,15.17,0,0,0-2.63-2.74,4.68,4.68,0,0,0-2.5-1.34c-3.94.05-7.9.37-11.11,3q-6.39,5.22-12.58,10.68a50.7,50.7,0,0,0-4.57,4.92c-.93,1.08-1.53,1.12-2.46-.07-2.69-3.4-3.25-7.51-4-11.55a14.83,14.83,0,0,1,.1-4c.39-4.05.93-8.09,1.25-12.15A42.16,42.16,0,0,1,534,547a25.49,25.49,0,0,0,1.09-2.88,24,24,0,0,0-3.37-.33c-5.18.16-10.35.4-15.53.61-1,0-2,0-2.95,0-9.87,0-19.74.07-29.61-.14A110.78,110.78,0,0,1,465.49,542a102.35,102.35,0,0,1-25.07-7.86c-.48-.23-1.37-.33-1.64-.06a2.47,2.47,0,0,0-.47,1.75c.07,1.79.39,3.58.4,5.38.07,8.66.19,17.33.05,26-.13,8-.37,16-.89,24C437.38,598.45,436.45,605.69,436,610.58Zm65.43-67.68v-.18c6,0,11.93.26,17.88-.07,6.84-.37,13.66-1.18,20.46-2,.95-.12,1.74-1.47,2.61-2.25a7.48,7.48,0,0,0-1.58-1.68c-2.37-1.27-4.78-2.47-7.23-3.57a22.78,22.78,0,0,0-4.47-1.49c-2.34-.51-4.74-.77-7.11-1.2-4.8-.88-9.58-2-14.41-2.64-5-.7-10-1-15.06-1.51-4.72-.49-9.45-1.5-14.17-1.49q-13.69,0-27.38,1c-4.23.3-8.41,1.59-12.58,2.58a2.29,2.29,0,0,0-1.37,1.7c0,.49.92,1.12,1.55,1.46.78.42,1.72.52,2.53.9a93.61,93.61,0,0,0,30.46,8.88C481.43,542.35,491.42,542.42,501.38,542.9Z"/><path d="M455.7,598.52c.28-7.23.52-14.46.91-21.69,0-.82.92-1.59,1.41-2.39.36.82,1.05,1.66,1,2.47-.23,7.31-.61,14.62-.89,21.92-.06,1.58.21,3.17.1,4.74a7.51,7.51,0,0,1-1,2.29c-.54-.71-1.45-1.37-1.56-2.15a37.4,37.4,0,0,1-.08-5.19Z"/><path d="M469.76,574.9c0,2.84,0,5.69,0,8.53,0,.5-.51,1-.78,1.47-.47-.42-1.29-.79-1.34-1.26-.23-1.92-.25-3.86-.3-5.79-.08-3.22-.22-6.45-.12-9.66,0-.91.71-2.44,1.32-2.56,1.62-.32,1.54,1.15,1.54,2.29,0,2.33,0,4.65,0,7Z"/><path d="M484.47,586.5a12.78,12.78,0,0,1,.48,3.19c-.5,5.15-1.11,10.28-1.72,15.42-.12,1-.38,2-.58,2.94l-.83.11a7.55,7.55,0,0,1-.74-2.45q.56-8.3,1.35-16.58a11.21,11.21,0,0,1,1-2.7Z"/><path d="M506.32,581.78c-.19,5-.34,10.05-.62,15.07,0,.68-.73,1.32-1.12,2A15.22,15.22,0,0,1,503,597a2.26,2.26,0,0,1-.16-1.33c.51-4.71,1-9.42,1.63-14.12.07-.53.87-1,1.33-1.46l1.27,1.49Z"/><path d="M496.44,575.34c.29-3.71.52-7.54.94-11.35.07-.63,1-1.17,1.52-1.75.36.69,1,1.39,1,2.07-.06,4.11-.22,8.23-.49,12.33-.05.72-.82,1.39-1.25,2.08a11.42,11.42,0,0,1-1.49-1.71A4.66,4.66,0,0,1,496.44,575.34Z"/><path d="M489.43,539.11q-7.83-1.41-15.68-2.82c-2.07-.37-4.15-.66-6.19-1.13-.58-.14-1-.8-1.56-1.23.68-.22,1.44-.78,2-.63,8.56,2.25,17.18,3.82,26.08,2.89a10.34,10.34,0,0,0,2.36-.86c-.47-.72-.83-1.91-1.44-2.07a18.82,18.82,0,0,0-5.23-.56c-3.37.12-6.73.52-10.1.69-.36,0-.75-.71-1.13-1.09.44-.37.89-1,1.34-1,3.46-.08,6.93-.09,10.39,0a25.44,25.44,0,0,1,5.23.63,7,7,0,0,1,2.88,1.66c1.74,1.57,1.45,3.54-.81,4.11a66.2,66.2,0,0,1-8,1.06Z"/><text class="cls-10" transform="translate(359.49 686.42)">Produção<tspan x="7.81" y="60.62">A</tspan><tspan class="cls-11" x="47.11" y="60.62">r</tspan><tspan class="cls-12" x="67.97" y="60.62">tística</tspan></text><text class="cls-10" transform="translate(1408.71 863)">Fabricação<tspan x="50.54" y="60.62">Digital</tspan></text><path d="M1618.83,746.26c.38,2.92.71,5.84,1.17,8.75.53,3.36-.08,4-3.52,4.19a23.94,23.94,0,0,0-5.46,1.1c-4.22,1.23-8.35,1.77-12.49-.35-1.85-.94-2.36-2.26-2.06-4.24,1.59-10.58,3.5-21.15,4.5-31.79.54-5.76-.42-11.67-.88-17.49-.17-2.12-1.48-2.73-3.58-2-8.71,3-17.42,5.9-26.11,8.93a20,20,0,0,0-3.93,2,2.1,2.1,0,0,0-.78,1.45c-.53,5.8-1.09,11.6-1.46,17.41-.51,8-.75,16-1.32,24-.46,6.48-1.27,12.93-1.87,19.4-.27,2.89-2.46,4.43-5.42,4.14-6.13-.62-10.53-3.49-12.77-9.3a6.36,6.36,0,0,1-.32-3.6c2.47-9.94,4.4-19.93,4.67-30.24.1-4.14,1.55-8.24,2.19-12.39a44.29,44.29,0,0,0,.46-7.37c0-.56-1-1.47-1.68-1.6-5.49-1.06-11-2-16.52-3a19.63,19.63,0,0,1-3.76-1.13c-2.32-1-3.33-.54-3.91,2-1.34,5.77-2.52,11.57-4,17.32-.82,3.34-2,6.6-3,9.88-1.31,4-2.83,7.89-4,11.9-.61,2.06-1.64,2.73-3.76,3.1-6.21,1.08-11.67-.58-17-3.51-2.71-1.5-3-2-1.7-4.8,2.59-5.68,5.43-11.27,7.62-17.1,2.33-6.23,4-12.68,6-19a3.26,3.26,0,0,0-.06-2.14c-.62-1.36-.69-2.39.49-3.54s.79-2.2-.84-2.68c-.79-.23-1.59-.44-2.37-.7-2.33-.78-3-2.19-2.57-4.56a50,50,0,0,0,.57-5.62c.32-4.09.58-8.19.91-12.29a2.26,2.26,0,0,0-1.63-2.63c-.78-.32-1.26-1.39-1.88-2.12.79-.63,1.49-1.57,2.38-1.81,2.6-.69,5.31-1,7.92-1.65,6.38-1.62,12.81-3.12,19.07-5.13,7.12-2.27,14.07-5.09,21.14-7.55a7,7,0,0,1,3.84-.19c7.66,2,15.22,4.32,22.92,6,10.68,2.38,21.46,4.28,32.19,6.4,2.47.49,4.91,1.16,7.39,1.56a6,6,0,0,0,2.44-.63c.77-.25,2-1,2.19-.76a46.76,46.76,0,0,1,4.51,5.13,23.22,23.22,0,0,1,2,3.62c1.43,2.83,3,5.64,4.19,8.57.67,1.58.07,2.74-1.89,3.23a79.79,79.79,0,0,0-9.35,2.93,3.17,3.17,0,0,0-1.26,2.55c.18,8.73.34,17.47.83,26.19.32,5.75,1.17,11.47,1.75,17.21.14,1.31.14,2.63.2,4Zm-69.43-82.21c-2.75.73-5.62,1.41-8.43,2.27-7.15,2.19-14.26,4.51-21.42,6.68-3.62,1.1-7.3,2-10.94,3-.46.14-1.09.66-1.12,1s.48,1,.9,1.27a10.64,10.64,0,0,0,1.84.71c6.92,2.8,13.9,5.48,20.76,8.44,7.1,3.07,14,6.57,21.13,9.58,3.75,1.58,7.67,3.39,11.94,1.88,7.35-2.59,14.74-5.1,22-8,8-3.18,15.9-6.7,23.81-10.14.74-.32,1.24-1.16,1.85-1.76-.66-.51-1.25-1.32-2-1.49-5.86-1.37-11.75-2.63-17.63-3.9-9.33-2-18.68-4-28-6.08C1559.26,666.52,1554.49,665.28,1549.4,664.05Zm-46.85,32.4c.71,1.4,1.15,3.38,2.39,4.45s3.39,1.49,5.14,2.16c4.06,1.55,8.13,3.08,12.19,4.62,2.6,1,5.13,2.33,7.82,2.87,7.08,1.43,14.23,2.49,21.35,3.71,3.4.58,5.34-.59,6.29-3.79.21-.71.55-1.39.75-2.1,1.25-4.57,1.6-4.51-3.32-6.81-5.36-2.49-11-4.47-16.24-7.1-10.62-5.27-21.11-10.76-32.84-13.28-1.71-.37-2.47-.08-2.58,1.76C1503.25,687.27,1502.9,691.6,1502.55,696.45Zm109,13.46h-.11c0-2.22,0-4.45,0-6.67-.1-3.56-1.23-4.18-4.5-2.61a10.47,10.47,0,0,1-1.6.64c-1.58.47-1.92,1.58-1.76,3.07.5,4.56,1.17,9.12,1.36,13.7a70.71,70.71,0,0,1-.44,11.82c-.92,7.35-2,14.69-3.39,22-1.21,6.17-.27,6.17,6.06,6a4.55,4.55,0,0,0,.73-.09c2.66-.47,3.31-1.47,2.75-4.11a10.45,10.45,0,0,1-.37-2.92c.33-3.94.76-7.86,1.18-11.78.36-3.35,1.12-6.7,1.08-10.05C1612.44,722.57,1611.91,716.24,1611.56,709.91Zm-110.21,43.71c.36-.29,1.39-.73,1.74-1.49,1.91-4.09,3.81-8.19,5.39-12.41,2.09-5.54,3.9-11.18,5.79-16.79q1.82-5.37,3.5-10.77a2.16,2.16,0,0,0-1.59-3.06,19.76,19.76,0,0,1-2.77-1.59c-2.6-1.39-4.19-.59-4.74,2.32a23.91,23.91,0,0,1-.56,2.4c-2,6.55-3.91,13.09-5.9,19.62a35.57,35.57,0,0,1-1.58,4.41c-1.65,3.54-3.63,6.94-5.06,10.56S1496.8,753.71,1501.35,753.62Zm57.43-32.38c-.07-3.22-.48-4.12-2-4.06-2,.07-3.37,1.93-3.34,4.46,0,.25.09.49.07.74a30.5,30.5,0,0,1-.23,3.18c-.7,4.14-1.52,8.25-2.17,12.4-1.31,8.28-2.66,16.56-3.74,24.87a36.92,36.92,0,0,0,0,9.51c.13,1,2.13,2.41,3.36,2.5,1.49.11,3.65-.14,4-2.43.53-3.24,1.18-6.48,1.43-9.75.37-4.93.32-9.89.64-14.82C1557.42,739,1558.13,730.1,1558.78,721.24Zm64.68-35.74c-1.11,2.14-2,4-3.07,6a3.62,3.62,0,0,0,4.42-2.18A2.82,2.82,0,0,0,1623.46,685.5Zm-1.94-3.57a23.46,23.46,0,0,0-2.74-2.3,11,11,0,0,0-1.4,1.56,20,20,0,0,0,2.39,1.95C1620,683.25,1620.62,682.57,1621.52,681.93Z"/><path d="M1527.25,703.84c-.92.28-2,1-2.73.77-3.68-1.08-7.32-2.33-10.88-3.75-.72-.3-1-1.62-1.54-2.46.8-.41,1.61-1.15,2.42-1.15a11.59,11.59,0,0,1,3.56.83,62.86,62.86,0,0,1,6.43,2.42,15.09,15.09,0,0,1,2.86,2.31Z"/><path d="M1526.73,696.6c0-2.89,1.09-3.61,3.06-2.91,1.62.56,3.31,1,4.86,1.67a6,6,0,0,1,2.17,2,1.85,1.85,0,0,1,0,1.76,2.77,2.77,0,0,1-2,.34,42,42,0,0,1-5.9-1.32A7.89,7.89,0,0,1,1526.73,696.6Z"/></svg>