<svg id="Camada_1" data-name="Camada 1" xmlns="http://www.w3.org/2000/svg" viewBox="0 0 1080 1080"><path d="M549.7,699.83c-8.25-11.13-19.84-14.77-31.13-17.58-15.84-4-32.08-6.36-48.23-9-3-.5-6.57.47-9.57,1.59-9.13,3.41-13.92,1-14.93-8.72-.52-4.92.46-10,.24-14.94-.41-9.42-1.1-18.84-1.84-28.25-.5-6.37-4.73-8.16-10.44-8.21-8.05-.08-16.15.15-24.14-.68-15.64-1.63-21.31-11.89-23.09-27.14-1.91-16.37,5.2-25.87,20.39-29.56A185.42,185.42,0,0,1,432.38,553c7.26-.73,10.55-4.73,11-11.2,1.15-16.08,1.18-32.28,3.07-48.25a100.65,100.65,0,0,1,7.81-28.3c4.53-10.33,10-20.67,17-29.4,17.53-21.74,41.52-21.93,66.2-16.91,25.64,5.22,44.29,22.07,59.56,41.35,16.95,21.38,31.71,44.7,45.62,68.25,23.45,39.71,40.06,82.41,47.79,128,5.35,31.57,6.43,63.22,1.49,95.42-4.62,30.21-17.06,55.61-37.77,76.93-16.09,16.57-34,31.34-58.6,33.78-32.37,3.22-64.37,3.87-94.21-12.51-32.57-17.89-44.31-47.92-48.59-82.4-.85-6.88-1.17-13.83-2.13-20.7-.88-6.38.61-10,7.52-12.43,28.06-9.68,55.88-20.07,83.75-30.31C544.4,703.41,546.56,701.67,549.7,699.83Zm16.68,152.51c25.6-1.63,49.91-4.4,70-23C650.8,816,663.29,801.74,672,783.9c6.86-14.11,8.61-29.12,10.91-44.19,5.06-33.25,1.76-66.06-6.15-98.38-3.75-15.3-9.18-30.28-15-44.94-8.38-21-15.91-42.76-27.29-62.13-14-23.82-30.55-46.37-48-67.88-14.57-18-32.25-33.13-56.94-36.38-13.23-1.75-25.93.32-36.68,7.76-14.09,9.74-22.53,24.93-28.25,40.21-5.33,14.26-6.53,30.23-8.29,45.6a159.89,159.89,0,0,0-.11,32.37c.68,7.45-.38,9.7-8,10.24-11,.77-22.1,1.53-32.89,3.66-4.78.94-9.75,4.45-13.12,8.17-6.36,7-3.33,19.29,5.72,21.51,8.38,2.06,17.46,2.37,26.13,1.83,13.75-.87,19.45,3.19,20.19,16.6.57,10.27,1.14,20.53,1.53,30.8.21,5.48,2.43,8.66,8.12,9.77,15.52,3,30.95,6.53,46.46,9.63q27.33,5.48,54.75,10.57c6.38,1.19,17.12,15.31,15.16,21.38a11.56,11.56,0,0,1-6.52,6.44c-12.85,4.26-26.19,7.15-38.84,11.89-20.24,7.58-40.07,16.26-60.09,24.44-5.88,2.41-8.33,6.66-8.16,13,.46,17.58,2.4,34.65,9.06,51.32,8.92,22.33,26.92,33.58,47.94,39.83C537.18,851.1,552.07,850.73,566.38,852.34Z"/><path d="M420.61,342.8c-6.45-.35-11.45-1.17-16.36-.78-10.16.82-12.14,0-13.52-9.68-1-7.35-6.52-7.29-11.16-7-10,.56-16.7-4.62-23.33-10.85-7-6.57-8.06-14.75-5.27-23,3.15-9.25,8.67-17,20.17-16.77,7.72.16,12.09-2.91,14.09-10.92,5.8-23.23,22.68-36.66,43.29-46.05,12-5.47,22.39.09,32.87,5.83,24.24,13.28,40.66,33.44,50.51,58.61,7.9,20.19,7.54,41.42,2.16,62.39-4.48,17.44-12,33.43-25.92,45.34a43.39,43.39,0,0,1-16.59,8.37,256.21,256.21,0,0,1-34.24,6.87c-19.46,2.44-30.95-4.73-38.35-22.63-2-4.84-4.16-9.64-5.73-14.61-1.61-5.14-1-8.81,5.8-10.17C411.38,355.24,416.16,351.81,420.61,342.8ZM433.14,392c34.37.26,61-13.36,70.84-51.18,10.09-38.8-10-87-46.24-105.61-9.37-4.82-19-6.69-28.71-1.57-14.1,7.43-25.26,17.72-31,33.18-1.78,4.83-3.85,9,.49,13.79,1.33,1.47,1.24,5.76,0,7.54-1,1.48-4.62,1.54-7.09,1.6-6.63.16-13.36-.73-19.86.16-5.68.77-10.22,5.35-8.91,11.07.83,3.58,5.37,7.49,9.12,8.86s8.7.32,12.85-.73c9.07-2.31,13.74.22,15.52,9.31,1.71,8.76,5.88,12.36,14.67,13,7.75.53,15.56.8,23.18,2.13,3.36.59,6.31,3.52,9.45,5.38-2,3.37-3.24,7.87-6.17,9.89a239.54,239.54,0,0,1-27.12,16.1c-6.53,3.31-7.41,7.53-4.9,13.57C414.39,390.64,424.59,392.62,433.14,392Z"/><path d="M730.45,376.65c-3,11.15-4.27,23.08-9.2,33.28-11.57,24-30.87,33.15-57.88,27.36a97.92,97.92,0,0,1-34-14.29c-12.66-8.65-17.27-22.52-14.88-38.18.87-5.64,4.44-7.67,9.43-9a60.22,60.22,0,0,0,14.46-5.72c2.06-1.2,2.7-4.81,4-7.33-2.51-.6-5-1.68-7.53-1.7-4.41,0-8.84.93-13.25.84-11.81-.26-16.49-4.66-15.42-16.43.74-8.24-2.47-11.42-9.73-13.45-6.8-1.91-13.82-4.21-19.69-8-6.47-4.13-6.21-10.71-1.07-16.38,7.11-7.86,15.58-12.17,26.49-11.42,7,.49,11.66-2.13,14.34-9.68,5.24-14.73,16-26,27.92-35.4,3.37-2.67,11.93-1.71,16.56.65,15.88,8.07,32.31,15.77,43.61,30.5a39.33,39.33,0,0,1,5.36,8.38c11.38,27.37,19.26,55.53,18.37,85.6Zm-79.13-27.17v.06c1.95,0,4.31-.71,5.74.14,3.64,2.15,7.41,4.59,9.85,7.86.64.85-2.83,5.89-5.34,7.79-8.79,6.63-18,12.7-27,19-4.65,3.27-9.86,7-7.43,13.38,2.19,5.73,5.11,12.48,9.82,15.65A89.92,89.92,0,0,0,663.05,425c18.79,5.19,43.24-4,52.38-26.54,5.24-12.91,2.52-25.64,2.78-38.57.43-21.31-8.84-40.14-16-58.91-7.35-19.29-27.24-28-45.08-37a5.9,5.9,0,0,0-4.71-.25,56.39,56.39,0,0,0-28,36.21c-2.62,10.18-3.57,11.79-14,11.1a74.2,74.2,0,0,0-14.74.65c-1.42.19-3.48,2.53-3.53,3.94s1.83,3.66,3.31,4.13A50,50,0,0,0,606,321.57c11.73,1.08,13.52,3.05,13.11,15.06a19,19,0,0,1-.47,4.14c-1.6,6.12,2,8.39,7,8.61C634.17,349.74,642.75,349.48,651.32,349.48Z"/><path d="M510.06,542.67c-4.2-5.63-7.89-8.65-8.87-12.38-1.22-4.64,2.46-9,7.09-7.48,4,1.32,7.7,5.5,10,9.33C518.92,533.22,514.19,537.52,510.06,542.67Z"/><path d="M447.74,267.1c-4.56,3.75-8.14,7.88-9.16,7.32a23.65,23.65,0,0,1-8.63-8.63c-.46-.78,4.5-6.7,6.21-6.37C439.63,260.1,442.57,263.43,447.74,267.1Z"/><path d="M657.11,304.6c-4.45-3.43-7.44-5.74-10.44-8l9.05-9.46c2.87,2.84,6.72,5.27,8.16,8.71C664.5,297.29,660.11,300.86,657.11,304.6Z"/></svg>