<svg id="Camada_1" data-name="Camada 1" xmlns="http://www.w3.org/2000/svg" viewBox="0 0 1080 1080"><path d="M374.94,808.25c-22.25-5.33-42.67-10.39-63.19-15a58.46,58.46,0,0,0-16.67-1.38c-11.39.77-17-4.28-13.57-15.31,5.48-17.58,11.12-35.37,19.26-51.79,10.14-20.47,21-41.12,34.92-59C362.15,631.66,398.21,609.53,441,606c31-2.57,48.6-18.33,63.9-41.4,22.07-33.27,45-66,66-100,9.16-14.89,14.21-32.31,21-48.64,1.29-3.12,1.72-6.6,3-9.72,7.94-19,12.7-20.41,30.21-10.41,13.39,7.65,26.59,15.94,40.79,21.67,7.37,3,16.88.17,25.18,1.52a357.24,357.24,0,0,1,39.67,9c1.38.39,2.66,8.21,1.08,10.84-16.39,27.39-33.37,54.44-50.19,81.57Q648.9,573.23,616.13,626c-6.17,9.89-1.92,15.6,5.55,23.07,11.25,11.26,21,24.28,29.9,37.54,4.85,7.23,7.67,16.27,9.61,24.89,2,8.93-3.62,13.37-12.26,15.73-31.52,8.62-62.88,17.87-94.34,26.75-11.59,3.27-23.34,6-34.93,9.26-30.07,8.53-60.1,17.24-90.13,25.9-1.45.42-3.26.66-4.18,1.65-13,14-32.92,8.56-47.91,17A3.85,3.85,0,0,1,374.94,808.25Zm195.19-183.6c2.67-2.66,7-5.55,9.4-9.57,15.27-25.36,30.38-50.84,45.05-76.55,17.2-30.12,33.9-60.52,50.82-90.8,4.86-8.7,1.38-12.3-7.36-15.62a249.18,249.18,0,0,1-38.6-18.41c-13.76-8.16-17-6.66-24.11,8.05-12.33,25.66-25.09,51.3-40,75.51-20.13,32.69-42.59,63.94-63.77,96-6.53,9.87-4.51,14.06,6.71,16.41,2.58.54,5.19,1,7.75,1.59C533.23,615.49,550.44,619.77,570.13,624.65ZM551.6,638.93c-3.62-3-5.3-5.4-7.48-6-21.39-6-42.61-15.09-64.37-16.71-52.37-3.9-97.29,15.75-130.69,55.92-16.59,20-27.77,44.52-40.63,67.42-4.35,7.75-6.8,16.7-9.29,25.33-2.4,8.33.56,13.47,10,15.05,14.48,2.44,28.71,6.47,43.22,8.55,4,.57,11.08-2.26,12.54-5.46,7.13-15.59,13.27-31.11,24.09-45.24,20.51-26.78,43.33-51,71.89-68.36,23.95-14.51,49.64-27.14,79.34-26.06C543.4,643.49,546.68,640.93,551.6,638.93ZM458.76,764.82c-13-12.82-26.05-10.62-29.73,1.09-.62,2,3.86,7.93,4.75,7.68C442.26,771.21,450.47,767.88,458.76,764.82Zm49.84-83.45c-4.8-3.72-7.52-7.46-10.22-7.44s-5.19,3.9-7.78,6.09c2.54,2.12,4.84,5.41,7.7,6C500.63,686.51,503.62,683.78,508.6,681.37Z"/><path d="M627.77,271.69c1.14,4.35,3,8.64,3.27,13,1.15,19.13,2.07,38.28,2.43,57.44,0,2.83-3.31,5.72-5.09,8.59-2.8-2.12-7-3.72-8-6.49-1.48-4-.88-8.87-.72-13.35q.92-25.95,2.21-51.87c.12-2.37,1.27-4.7,1.94-7Z"/><path d="M705.87,295.17c.51,1.94,1.87,4.12,1.44,5.86-4.59,18.54-9.26,37.06-14.5,55.41-.65,2.28-4.79,3.55-7.31,5.29-1.48-2.76-4.87-6.18-4.17-8.17,6.79-19.41,14.25-38.58,21.6-57.78C703.07,295.42,704.27,295.48,705.87,295.17Z"/><path d="M799.5,351.71c-.23,21.16-34.2,51.86-50,45C767.24,382.81,779.6,364.61,799.5,351.71Z"/></svg>