<svg id="Camada_1" data-name="Camada 1" xmlns="http://www.w3.org/2000/svg" viewBox="0 0 1080 1080"><path d="M680.13,585.86c14.58-11.64,27.31-20.63,38.6-31.15s20.73-23.09,32-33.71c3.69-3.49,10.39-4.63,15.88-5.19,10.73-1.09,21.72,0,32.32-1.69s18.61.94,25.07,9.51c11.21,14.89,22.71,29.56,34,44.42a26.38,26.38,0,0,1,4.36,8c2.19,7.34-2.13,11.86-9.22,9.25-21.72-8-40.76-1.93-60.47,8.11-24,12.26-42.27,29.33-53.31,53.68-4.48,9.87-7.38,20.5-10.36,31-2.24,7.84-2.77,16.19-5.24,23.95-7.33,23-8.5,45.73.17,68.76,3.27,8.68-1.38,12.67-10.53,11.29-22.13-3.34-44.28-6.5-66.49-9.21s-44.74-5.26-67.18-7.07c-19.37-1.56-38.88-1.47-58.25-3.06-28.71-2.36-57.34-5.86-86-8.33-33.66-2.9-67.37-5.31-101.07-7.72-15.93-1.14-31.88-1.94-47.84-2.54-4.7-.17-9.43,1.14-14.17,1.34-6.42.26-12.86.25-19.29.08-7.3-.19-14.65-1.4-21.88-.87-10,.74-13.36-2-12.56-11.78,1.37-16.62,2.55-33.26,3.76-49.89,2.28-31.27,5.22-62.51,6.6-93.82,1.48-33.4,1.45-66.86,2.11-100.3.44-22.48,1.87-45,1.13-67.44-.8-23.76-3.47-47.47-5.79-71.16-.33-3.29-3.76-6.17-5-9.52-2-5.41-4.41-11.09-4.28-16.6,0-1.89,7.07-4,11.11-5.35,9-3.09,18-7.27,27.26-8.39,35.85-4.34,71.78-8.15,107.76-11.23,45.49-3.9,90.63-.18,135.76,6.61,25.57,3.85,51.85,2.86,77.43,6.66,21.09,3.13,41.57,10.26,62.4,15.28,10.19,2.45,20.8,3.33,30.8,6.31,24.22,7.21,46.25,18.72,62.76,38.35,3.61,4.29,5.67,11.78,4.93,17.33-1,7.25-6.72,11.72-15.05,13-4.38.69-9.32,4.23-12,7.93-12,16.5-16.4,36.29-23.34,55.12-12.53,34-12,68.95-11.75,104.06C675.19,574.3,677.8,578.67,680.13,585.86Zm-450.51,110c.76,38.75.76,38.45,29.13,38.83,19.78.26,39.58,1,59.3,2.41,33.34,2.42,66.68,5.11,99.92,8.58,21,2.19,41.78,7.21,62.82,8.78,29.57,2.2,59.32,1.82,88.93,3.58,26.21,1.55,52.33,4.47,78.48,6.86,9.18.84,18.33,2,27.52,2.8,11.13.92,13.24-1.14,13.75-12.08.4-8.51-.07-17.25,1.8-25.44,6.74-29.52,15.83-58.58,21.06-88.34,3.94-22.43,16.75-37.75,32.7-51,22.4-18.63,49.21-28.44,77.66-34,2.68-.52,7-2.36,7.18-4a15.65,15.65,0,0,0-2.65-10.17,67.15,67.15,0,0,0-11.88-12.36c-3.29-2.72-7.53-6.12-11.31-6.08-17.8.21-35.73,1.66-50.28,13.55q-28.9,23.6-56.9,48.29c-7.56,6.68-14.08,14.6-20.69,22.28-4.2,4.88-6.92,5-11.14-.31-12.14-15.4-14.7-34-18-52.26-1.07-5.89-.14-12.23.45-18.31,1.76-18.33,4.21-36.6,5.64-55,2-26.11,7.76-51.09,19.9-74.47,2.13-4.1,3.33-8.67,5-13-5.08-.55-10.18-1.69-15.25-1.53-23.43.73-46.85,1.85-70.28,2.77-4.43.17-8.88.12-13.32.11-44.65-.14-89.32.29-134-.64-27.53-.57-54.69-4.89-81.89-10-39.39-7.39-77.24-18.5-113.42-35.59-2.16-1-6.17-1.49-7.42-.28-1.7,1.67-2.24,5.23-2.13,7.93.35,8.13,1.79,16.23,1.85,24.35.29,39.19.82,78.39.2,117.58-.57,36.15-1.65,72.33-4,108.4C236.11,641,231.87,673.78,229.62,695.88Zm296-306.19,0-.82c27,0,54,1.16,80.9-.31,30.95-1.68,61.81-5.33,92.59-9.11,4.28-.52,7.87-6.65,11.78-10.18-2.35-2.58-4.23-6-7.13-7.58-10.7-5.76-21.61-11.2-32.71-16.16a104.6,104.6,0,0,0-20.22-6.74c-10.62-2.3-21.46-3.5-32.16-5.45-21.75-3.95-43.36-8.87-65.22-11.93-22.58-3.17-45.42-4.48-68.12-6.84-21.38-2.23-42.74-6.76-64.11-6.73-41.3.06-82.67,1.63-123.87,4.59-19.17,1.38-38.05,7.22-56.91,11.69-2.7.65-6.18,5-6.23,7.69-.05,2.21,4.17,5.07,7,6.62,3.51,1.9,7.77,2.36,11.41,4.07,43.87,20.57,89.77,35.35,137.84,40.19C435.38,387.19,480.6,387.52,525.64,389.69Z"/><path d="M319,641.33c1.28-32.71,2.36-65.43,4.11-98.12.2-3.71,4.17-7.23,6.39-10.84,1.62,3.73,4.74,7.51,4.63,11.19-1,33.07-2.73,66.13-4,99.19-.27,7.12.95,14.32.45,21.41-.25,3.54-2.82,6.92-4.33,10.38-2.48-3.22-6.59-6.22-7.08-9.72-1.09-7.7-.34-15.65-.34-23.5Z"/><path d="M382.57,534.46c0,12.87.17,25.74-.17,38.6-.06,2.25-2.29,4.45-3.52,6.67-2.12-1.9-5.82-3.61-6.07-5.73-1-8.67-1.11-17.46-1.33-26.2-.37-14.57-1-29.16-.56-43.7.13-4.1,3.22-11,6-11.56,7.35-1.48,7,5.19,7,10.35q0,15.78,0,31.56Z"/><path d="M449.17,587c.77,4.81,2.59,9.72,2.14,14.42-2.25,23.29-5,46.53-7.77,69.77-.53,4.47-1.74,8.87-2.63,13.3l-3.77.49c-1.18-3.69-3.57-7.47-3.33-11.07q2.52-37.54,6.12-75c.4-4.19,3.08-8.16,4.71-12.23Z"/><path d="M548,565.61c-.85,22.72-1.51,45.45-2.77,68.14-.17,3.09-3.31,6-5.08,9-2.43-2.76-5.18-5.31-7.16-8.36-1-1.52-.91-4-.7-6,2.3-21.31,4.55-42.63,7.36-63.88.32-2.43,3.92-4.43,6-6.63q2.89,3.39,5.78,6.77Z"/><path d="M503.3,536.44c1.29-16.75,2.33-34.09,4.26-51.33.32-2.85,4.49-5.28,6.88-7.91,1.61,3.12,4.63,6.25,4.59,9.34q-.39,27.93-2.21,55.81c-.22,3.25-3.69,6.28-5.66,9.42-2.3-2.56-5-4.85-6.74-7.75C503.31,542.15,503.67,539.4,503.3,536.44Z"/><path d="M471.6,372.54q-35.49-6.39-71-12.77c-9.34-1.67-18.76-3-28-5.11-2.64-.61-4.71-3.64-7-5.55,3.06-1,6.51-3.52,9.13-2.84,38.71,10.16,77.72,17.25,118,13,3.66-.38,7.14-2.53,10.7-3.86-2.15-3.26-3.74-8.64-6.55-9.36a83.41,83.41,0,0,0-23.62-2.55c-15.25.54-30.45,2.34-45.69,3.11-1.63.08-3.43-3.2-5.16-4.93,2-1.65,4-4.7,6.09-4.74,15.66-.35,31.33-.39,47,.06a115,115,0,0,1,23.71,2.85c4.69,1.13,9.33,4.2,13,7.5,7.88,7.08,6.54,16-3.66,18.57-11.73,3-24.12,3.32-36.23,4.81Z"/></svg>