<svg id="Camada_1" data-name="Camada 1" xmlns="http://www.w3.org/2000/svg" viewBox="0 0 1080 1080"><path d="M752,630.54c1.37,10.42,2.52,20.87,4.17,31.25,1.9,12-.29,14.3-12.56,15-6.56.35-13.15,2.1-19.52,4-15,4.37-29.8,6.31-44.58-1.25-6.61-3.38-8.43-8.07-7.37-15.14,5.68-37.81,12.5-75.53,16.08-113.55,1.94-20.55-1.5-41.67-3.15-62.48-.6-7.55-5.28-9.73-12.79-7.18C641.13,491.64,610,502.19,579,513a71.91,71.91,0,0,0-14,7.22c-1.47.91-2.63,3.35-2.8,5.19-1.89,20.71-3.89,41.42-5.21,62.17-1.81,28.51-2.66,57.09-4.7,85.58-1.65,23.14-4.55,46.18-6.69,69.29-1,10.31-8.77,15.83-19.35,14.76-21.88-2.2-37.6-12.45-45.6-33.18a22.87,22.87,0,0,1-1.15-12.88c8.84-35.5,15.7-71.16,16.66-108,.39-14.81,5.54-29.44,7.84-44.26a160.87,160.87,0,0,0,1.64-26.32c0-2-3.61-5.25-6-5.71-19.61-3.8-39.35-7-59-10.58a68.65,68.65,0,0,1-13.44-4c-8.29-3.4-11.89-1.92-14,7-4.79,20.6-9,41.33-14.08,61.85-3,11.92-7,23.59-10.86,35.27-4.68,14.21-10.13,28.19-14.36,42.52-2.18,7.37-5.88,9.76-13.44,11.08-22.16,3.87-41.68-2.07-60.71-12.55-9.7-5.34-10.66-7-6.06-17.14,9.23-20.29,19.38-40.25,27.18-61.08,8.32-22.22,14.43-45.28,21.3-68a11.77,11.77,0,0,0-.2-7.65c-2.24-4.83-2.47-8.53,1.73-12.63,4.42-4.32,2.82-7.86-3-9.57-2.82-.83-5.68-1.58-8.48-2.5-8.32-2.77-10.78-7.84-9.17-16.3,1.24-6.57,1.52-13.34,2-20,1.13-14.63,2.06-29.27,3.24-43.9.39-4.75-1-7.45-5.79-9.4-2.81-1.14-4.52-5-6.72-7.58,2.81-2.23,5.31-5.61,8.49-6.46,9.29-2.48,18.95-3.52,28.28-5.89,22.79-5.8,45.74-11.16,68.12-18.31,25.43-8.14,50.24-18.2,75.47-27a25.17,25.17,0,0,1,13.73-.68c27.35,7,54.35,15.44,81.87,21.56,38.13,8.47,76.64,15.26,115,22.85,8.83,1.74,17.53,4.14,26.4,5.55,2.72.43,5.83-1.32,8.71-2.24s7-3.58,7.83-2.73a168.86,168.86,0,0,1,16.08,18.34c3,3.89,5,8.5,7.25,12.91,5.13,10.14,10.56,20.16,15,30.61,2.4,5.66.26,9.81-6.74,11.55a286.1,286.1,0,0,0-33.41,10.46c-2.38.91-4.56,6-4.49,9.11.64,31.18,1.21,62.38,2.94,93.52,1.14,20.54,4.2,41,6.28,61.46.47,4.68.47,9.41.69,14.12ZM504,336.92c-9.82,2.63-20.06,5.05-30.1,8.12-25.54,7.82-50.94,16.1-76.49,23.87-12.92,3.93-26.09,7-39.08,10.78-1.65.47-3.91,2.35-4,3.71s1.71,3.54,3.22,4.54c1.9,1.26,4.38,1.63,6.56,2.52,24.74,10,49.66,19.57,74.14,30.16,25.35,11,50.05,23.47,75.49,34.21,13.38,5.65,27.39,12.09,42.64,6.71,26.25-9.25,52.63-18.23,78.5-28.49,28.63-11.36,56.79-23.94,85-36.24,2.61-1.14,4.41-4.13,6.59-6.27-2.36-1.83-4.48-4.7-7.13-5.32-20.92-4.89-41.94-9.38-62.93-13.94C623.1,364.05,589.7,357,556.39,349.59,539.22,345.77,522.19,341.34,504,336.92ZM336.68,452.63c2.53,5,4.12,12.09,8.52,15.92,4.76,4.14,12.12,5.3,18.38,7.69q21.75,8.29,43.53,16.52c9.29,3.52,18.33,8.32,27.94,10.25,25.28,5.08,50.82,8.9,76.25,13.25,12.15,2.07,19.07-2.1,22.47-13.55.75-2.54,2-4.94,2.65-7.49,4.46-16.31,5.73-16.13-11.86-24.31-19.12-8.9-39.12-16-58-25.37-37.9-18.82-75.37-38.45-117.26-47.43-6.1-1.31-8.83-.29-9.21,6.29C339.19,419.87,337.93,435.31,336.68,452.63ZM726,500.72l-.41,0c0-7.95.2-15.9,0-23.84-.39-12.71-4.42-14.95-16.11-9.33a37.11,37.11,0,0,1-5.68,2.3c-5.66,1.67-6.88,5.64-6.3,11,1.78,16.29,4.19,32.57,4.87,48.91a254.7,254.7,0,0,1-1.6,42.24c-3.28,26.24-7,52.47-12.1,78.41-4.32,22-1,22.06,21.64,21.58a18,18,0,0,0,2.63-.3c9.49-1.69,11.8-5.26,9.82-14.69-.72-3.44-1.62-7-1.33-10.45,1.17-14,2.71-28.06,4.22-42.07,1.3-12,4-23.93,3.85-35.87C729.16,545.93,727.25,523.33,726,500.72ZM332.41,656.83c1.27-1.05,4.95-2.62,6.21-5.32,6.8-14.6,13.58-29.26,19.25-44.32,7.45-19.78,13.93-39.93,20.68-60Q385,528.07,391,508.75c1.65-5.27.15-9-5.67-10.91-3.53-1.18-6.52-3.91-9.87-5.7-9.3-5-15-2.1-16.95,8.29a87,87,0,0,1-2,8.59q-10.47,35-21.07,70.06a119.77,119.77,0,0,1-5.64,15.74c-5.89,12.65-13,24.79-18.07,37.73S316.14,657.15,332.41,656.83ZM537.52,541.18c-.26-11.5-1.73-14.7-7.17-14.51-7.05.26-12,6.89-11.92,15.94,0,.88.31,1.77.26,2.63a102.26,102.26,0,0,1-.84,11.37c-2.48,14.78-5.42,29.48-7.75,44.27-4.67,29.59-9.47,59.16-13.33,88.85a131.31,131.31,0,0,0,0,34c.49,3.63,7.63,8.6,12,8.92,5.31.39,13-.48,14.38-8.67,1.92-11.59,4.24-23.17,5.11-34.84,1.31-17.6,1.15-35.31,2.28-52.92C532.64,604.49,535.19,572.84,537.52,541.18Zm231-127.65-11,21.26c8.46,1.93,13.17-2.39,15.78-7.8C775.67,422.12,774,416.86,768.5,413.53Zm-6.94-12.75c-4.06-3.6-6.69-6.27-9.77-8.19-.37-.23-3.27,3.6-5,5.55,2.81,2.4,5.45,5.06,8.55,7C756,405.5,758.36,403.08,761.56,400.78Z"/><path d="M424.88,479.05c-3.27,1-7,3.55-9.74,2.74-13.13-3.88-26.14-8.32-38.85-13.41-2.59-1-3.71-5.75-5.51-8.77,2.89-1.46,5.76-4.09,8.65-4.1,4.24,0,8.58,1.57,12.71,3,7.75,2.63,15.59,5.18,23,8.63,3.84,1.79,6.82,5.45,10.19,8.26Z"/><path d="M423,453.19c0-10.31,3.89-12.88,10.93-10.42,5.78,2,11.83,3.45,17.36,6,3.06,1.41,5.77,4.25,7.75,7.07,1,1.48,1,5.39,0,6.27-1.65,1.33-4.77,1.63-7.07,1.24a153.11,153.11,0,0,1-21.06-4.72C427.46,457.51,424.68,454.37,423,453.19Z"/></svg>