<svg id="Camada_1" data-name="Camada 1" xmlns="http://www.w3.org/2000/svg" viewBox="0 0 1080 1080"><path d="M769.31,655.37c.3,8.79.89,17.58.81,26.37-.12,12.57-.83,25.14-1.08,37.71-.17,8.45-4.76,11.61-12.57,11-40.59-2.91-81.13-7.33-121.76-8.43-42-1.13-84.1.59-126.13,1.71-32.72.88-64.6-3.92-96.73-9.49-20.63-3.57-42.28-1.66-63.46-1.45-10.15.1-20.31,1.7-30.4,3.09-6.87.94-9.08-2.15-7.75-8.12,1.91-8.63,4.57-17.1,6.62-25.7,5.63-23.62,9.74-47.39,6.87-71.85a55.89,55.89,0,0,1,.16-10.26c.88-12.11,6.4-15.17,18.67-13.34,14.7,2.2,29.64,3,44.5,3.86,7.28.41,11.42-3.43,13.89-10.89,7.91-23.84,5.52-48,3.11-72.08-1.49-14.9,4.19-20.6,19.31-18,17.77,3.06,35.81,4.54,53.76,6.47,5.81.63,9.17-2.39,9.1-8.38-.14-11.95-.68-23.9-.63-35.84,0-8.17.1-16.45,1.41-24.47,1.66-10.19,5-11.65,15.12-8.76,26.86,7.67,54.09,11,82,7.69,17.19-2,17.42-2.26,18.69-19.62,1.17-15.95,2.87-31.87,4.61-47.77.85-7.81,6.26-10,13.29-9.32q60.1,6.17,120.18,12.42c5.43.56,10.85,1.13,16.26,1.83,6.06.79,8.16,4.22,6.62,10.12-1.37,5.22-2.54,10.48-3.8,15.75a10,10,0,0,1-1.78-.12c-1.56-14.25-12.78-13.88-23.13-16.51-34.22-8.69-69.25-5.88-103.89-8.28-13.32-.92-14.82,1.13-15.32,14.29-.57,15-.93,30.1-.54,45.13.23,9.35-3.59,13.55-12.59,13.14-29.32-1.35-58.67-2.33-87.94-4.47-17-1.24-18.19-.7-17.09,16.28,1.08,16.72,1.52,33.48,2.15,50.23.33,8.66-4.37,11.41-13,10.25q-31.29-4.26-62.83-6.59c-2.27-.17-6.95,5.18-7.11,8.15-.54,10.21,1.08,20.53.66,30.75-.7,17.34-1.93,34.69-4,51.91-.32,2.7-6.18,6.62-9.58,6.73-16.71.54-33.52.78-50.19-.42-14.53-1-17.63.58-18.5,15.43-.4,6.83-1,13.73-.53,20.52,1.35,18.85-3.51,36.47-9.14,54.13-2.92,9.13,0,12.37,9.81,12.13,10.59-.27,21.19-.77,31.76-1.62,24.29-1.94,47.21,6.68,70.8,8.94,31.2,3,62.95,4.17,94.18,2.05,41.39-2.8,82.25-4.06,123.64,1.43,30,4,60.76,3.14,91.19,3.83,12.2.28,14.34-3.59,14.55-15.65.27-15.26,1.82-30.49,2.81-45.74Z"/></svg>