<svg id="Camada_1" data-name="Camada 1" xmlns="http://www.w3.org/2000/svg" viewBox="0 0 1080 1080"><path d="M672.43,626.84c11-3,22-6.23,33.06-9.06,21.75-5.57,43.73-10.35,65.21-16.79,5.29-1.6,10.51-7.72,12.77-13,.88-2.09-5.69-9.65-10.14-11.33-29.87-11.25-59.39-24.26-92.46-22.93-8.65.35-14.79-9.94-9.8-17.23,12.48-18.26,18.74-38.72,21.73-60.12,4.21-30,9.61-60.23,9.82-90.39.11-16.95-6.91-35.16-15-50.59C681,322.6,666,318.11,650.82,318.18c-24.79.11-48,5.75-69.06,19.11C555.33,354.08,528,369.73,503,388.43c-39,29.12-72.72,63.17-95.63,107.4-12.6,24.31-30.15,46-44.74,69.36-11.73,18.77-22.4,38.21-33.44,57.41-10.08,17.5-20.18,35-30,52.64-5.88,10.59-11.6,21.32-16.59,32.34-3.59,7.91.72,11.88,8.58,13.6,12.85,2.83,25.59,6.18,38.15,12.25-3.78.32-7.61,1.16-11.34.86-16.53-1.33-33.06-2.78-49.53-4.72-2.68-.31-7.22-3.34-7.17-5,.17-5.72.1-13.19,3.51-16.79,17-17.91,27.5-39.55,38.7-61,11.57-22.21,24.11-43.94,36.89-65.49,21.24-35.82,42.52-71.64,64.75-106.85,12.63-20,24.89-41.11,41.35-57.72,33.42-33.73,69.79-64.33,113.84-84.34,15.74-7.16,29.7-19.39,46-24,19.11-5.38,40.29-8.41,59.74-5.92,15.65,2,30,14.45,36.67,30.66,13.5,32.63,17.36,66.36,9.79,101.32-6.24,28.77-6.73,58.77-21,85.76-5.09,9.64,2.8,19.83,13.82,20.31A141.54,141.54,0,0,1,769,558.32c10.86,6,23.35,9,34.74,14.16a35.75,35.75,0,0,1,12.33,9.65c5.7,6.89,1.45,15.4-7.33,17.16-12.17,2.44-24.22,5.49-36.27,8.45-26.34,6.46-52.64,13-79,19.53-6.66,1.65-13.35,3.13-20,4.69Z"/><path d="M589.87,508.84c-23.31-.62-43.58-8.54-64.35-18.41-21.74-10.32-35.8-26.06-48.55-45.19-6.66-10-2.81-16.47,4.67-19.72,14.68-6.36,30.09-12.83,45.75-14.73,20.49-2.49,41.53-3.93,61.69,5.87,22.2,10.78,47.69,50.89,44.94,75.52-.47,4.17-5.56,10.09-9.59,11.15C613.21,506.31,601.43,507.16,589.87,508.84ZM583.75,495c11.24-1.58,19.31-1.41,26.2-4.16,4.24-1.7,10.37-9.79,9.36-11.74-7.26-14-14.71-28.39-25.06-40.05-5.91-6.68-12.74-.62-13.6,9.22-.68,7.76-3.92,15.38-6.58,22.87-2.29,6.46-5.36,12.64-8.09,18.95Zm-32.51-63.85c-2.73-2.06-5.55-5.89-7.71-5.55-14.56,2.3-29.33,4.39-43.31,8.82-7.79,2.47-8.22,11.3-3.4,17.43a104.64,104.64,0,0,0,19.76,19.46c8.92,6.57,16.76,2.93,20.71-7.64,2.67-7.14,6.09-14,9.14-21C547.86,439.39,549.2,436.07,551.24,431.17Z"/><path d="M661.23,635.27c-5.71,3.08-11.38,6.26-17.15,9.23-33.34,17.2-42.73,50.91-56.68,81.6-4.31,9.49-10.21,18.24-15,27.55a123.32,123.32,0,0,0-6.1,15.49c-2.51,7.19-7,11-14.77,8.6-17.2-5.23-34.17-11.31-51.55-15.83-15.61-4-31.57-6.88-47.51-9.47-11.34-1.84-22.9-2.23-34.34-3.56-3.27-.39-6.42-1.79-9.62-2.73,0-1.08.08-2.16.11-3.24,4.43-.77,9-2.67,13.27-2.12,31.29,4.09,62.67,7.81,93.73,13.32,41.41,7.34,46.36,2.93,62.39-36,11.43-27.74,29.32-52.84,44.79-78.85,1.76-3,6.4-5.56,9.92-5.86,9.4-.81,18.91-.27,28.38-.27Z"/><path d="M380.13,735.81,399,737.44l-.62,5.95L379.59,741Z"/></svg>