<?xml version="1.0" encoding="utf-8"?>
<!-- Generator: Adobe Illustrator 24.1.2, SVG Export Plug-In . SVG Version: 6.00 Build 0)  -->
<svg version="1.1" id="Camada_1" xmlns="http://www.w3.org/2000/svg" xmlns:xlink="http://www.w3.org/1999/xlink" x="0px" y="0px"
	 viewBox="0 0 1080 1080" style="enable-background:new 0 0 1080 1080;" xml:space="preserve">
<style type="text/css">
	.st0{fill:#FFFFFF;}
</style>
<g>
	<path d="M537.27,315.89c0.43-0.36,0.85-0.54,0.92-0.8c1.14-4.33,4.23-7.45,6.79-10.88c2-2.68,5.03-4.13,7.83-5.81
		c2.36-1.42,4.66-3.05,7.19-4.06c5.54-2.22,10.99-4.74,16.81-6.22c1.17-0.3,2.34-0.59,3.46-1.01c3.07-1.17,6.18-2.05,9.48-2.44
		c3.92-0.47,7.7-1.8,11.7-2.05c5.83-0.36,11.63-1.23,17.46-1.42c7.92-0.26,15.78,0.09,23.42,2.89c8.2,3,13.64,8.57,16.8,16.49
		c1.53,3.83,2.65,7.84,3.97,11.76c0.49,1.45,1,2.89,1.56,4.49c1.21-0.38,2.23-0.56,3.12-1c3.85-1.93,7.84-3.43,11.93-4.81
		c4.42-1.48,8.93-2.55,13.33-3.96c4.48-1.43,8.97-2.23,13.56-2.92c3.57-0.53,7.08-1.44,10.65-2.03c1.52-0.25,3.09-0.16,4.64-0.17
		c1.21-0.01,2.51,0.37,3.61,0.04c4.16-1.28,8.47-0.91,12.69-1.39c0.85-0.1,1.73-0.09,2.58-0.02c4.1,0.31,8.2,0.77,12.3,0.94
		c1.82,0.07,3.41,0.6,4.88,1.5c2.93,1.81,5.89,3.59,8.65,5.65c1.93,1.44,3.57,3.24,3.86,5.9c0.11,1,0.64,1.95,0.95,2.94
		c0.93,2.95,1.98,5.88,1.26,9.07c-0.11,0.49-0.12,1.06,0,1.55c1.46,5.78-0.12,11.33-1.49,16.81c-0.69,2.78-2.14,5.45-3.64,7.93
		c-3.46,5.75-6.58,11.73-10.98,16.86c-4.48,5.22-9.08,10.36-13.74,15.42c-1.39,1.51-3.19,2.63-4.77,3.97
		c-1.3,1.1-2.56,2.27-3.78,3.36c0.5,4.53,1,8.79,1.42,13.05c0.08,0.84-0.21,1.71-0.28,2.57c-0.12,1.38-0.51,2.82-0.23,4.12
		c0.95,4.42-0.47,8.56-1.3,12.76c-0.23,1.16-0.68,2.43-1.44,3.29c-4.55,5.16-8.6,10.89-14.52,14.63
		c-8.6,5.44-17.34,10.66-27.63,12.36c-0.13,0.02-0.24,0.19-0.57,0.46c1.32,3.04,3.82,5.16,6.18,7.4c2,1.9,3.98,3.82,5.98,5.72
		c4.29,4.07,6.13,9.49,8.09,14.81c0.67,1.82,1.24,3.62,2.69,4.92c2,1.79,3.11,4.1,4.09,6.5c0.46,1.12,0.79,2.31,1.38,3.35
		c1.69,2.98,2.24,6.1,1.59,9.46c-0.16,0.84-0.19,1.74-0.1,2.58c0.81,7.03-2.17,12.7-6.31,18.02c-2.44,3.13-4.65,6.44-7.1,9.56
		c-2.24,2.84-4.52,5.69-7.06,8.25c-3.8,3.82-7.06,8-9.72,12.68c-1.87,3.29-3.87,6.52-5.72,9.83c-1.85,3.31-3.37,6.83-5.46,9.98
		c-1.94,2.91-3.32,5.97-4.23,9.3c-0.18,0.66-0.23,1.45-0.63,1.95c-2.38,3.07-3.3,6.82-4.82,10.28c-1.11,2.53-2.65,4.86-3.67,7.37
		c-2.64,6.51-5,13.15-6.89,19.93c-0.97,3.47-1.64,7.01-2.93,10.41c-1.03,2.7-1.41,5.64-2.21,8.44c-0.62,2.14-1.46,4.21-2.16,6.19
		c0.49,1.9,2.24,1.57,3.37,2.21c2.65,1.49,2.99,3.26,0.75,5.26c-2.69,2.41-5.47,4.73-8.34,6.92c-1.27,0.97-2.2,1.89-2.81,3.49
		c-0.93,2.43-1.6,4.88-2.24,7.39c-0.88,3.5-2.07,6.94-3.4,10.29c-0.9,2.26-1.6,4.52-2.08,6.91c-0.4,2.02-1.13,3.99-1.87,5.92
		c-3.73,9.69-4.53,19.69-3.32,29.93c0.16,1.34-0.04,2.75-0.2,4.11c-0.34,2.96-0.12,5.84,0.81,8.7c0.42,1.29,0.64,2.68,0.71,4.03
		c0.12,2.23,0.51,4.44,0.71,6.62c0.41,4.58,0.77,9.2,0.84,13.82c0.01,0.8-0.37,1.7-0.82,2.39c-0.56,0.85-1.31,1.62-2.1,2.26
		c-5.72,4.63-11.41,9.32-18.32,12.17c-0.95,0.39-1.89,0.84-2.78,1.36c-2.55,1.49-5.12,2.78-8.18,2.87
		c-1.17,0.04-2.43,0.41-3.48,0.95c-3.47,1.77-7.3,1.97-11,2.71c-3.21,0.64-6.45,1.16-9.67,1.79c-6.1,1.18-12.14,2.87-18.29,3.45
		c-5.43,0.52-10.95,1.1-16.46,0.35c-2.04-0.28-4.11-0.5-6.17-0.47c-4.77,0.06-9.14-1.4-13.51-3.06c-2.61-1-5-2.27-7.1-4.14
		c-1.15-1.01-2.56-1.73-3.85-2.58c-0.14-0.09-0.32-0.12-0.48-0.2c-7.12-3.64-8.36-10.23-6.22-16.64c1.14-3.43,2.44-6.8,3.59-10.23
		c0.78-2.3,1.1-4.6,0.64-7.11c-0.66-3.57-0.62-7.21,0.02-10.83c0.51-2.88,0.51-5.79,0.04-8.76c-0.57-0.11-1.08-0.36-1.53-0.27
		c-4.32,0.83-8.6-0.05-12.9-0.12c-5.15-0.09-10.31,0.36-15.39-0.99c-0.65-0.17-1.38-0.09-2.07-0.03c-7.62,0.7-14.67-1.35-21.53-4.38
		c-2.37-1.05-4.81-1.93-7.18-2.96c-3.32-1.45-5.63-3.93-7.03-7.25c-1.68-3.97-3.34-7.95-4.97-11.94c-2.15-5.27-4.43-10.47-4.7-16.32
		c-0.14-2.9-1.01-5.76-1.41-8.66c-0.38-2.73-0.97-5.51-0.76-8.21c0.43-5.68-0.71-11.03-2.73-16.2c-2.36-6.04-3.12-12.32-3.64-18.7
		c-0.41-4.98-0.63-9.99-1.98-14.85c-0.23-0.83-0.3-1.72-0.66-2.48c-2.81-5.89-3.48-12.14-3.76-18.58c-0.18-4.02,0.04-7.88,0.86-11.8
		c0.43-2.06,1.02-3.99,2.03-5.82c3.07-5.57,5.94-11.27,11-15.45c1.17-0.97,1.97-2.38,3.16-3.87c-3.02-3.14-4.41-7.18-6.04-11.1
		c-0.39-0.95-0.83-1.9-1.41-2.74c-5.15-7.48-5.81-15.67-3.71-24.22c0.44-1.82,1.33-3.57,2.26-5.21c2.19-3.9,4.52-7.72,6.93-11.81
		c-0.36-1.8-0.98-3.8-1.1-5.83c-0.16-2.73-0.13-5.52,0.2-8.23c0.34-2.82,2.93-4.11,4.8-5.85c0.24-0.22,0.65-0.24,0.94-0.43
		c4.84-3.18,9.98-3.34,15.45-1.37c2.78-3.92,3.7-8.55,5.58-12.72c1.91-4.23,3.45-8.65,5.6-12.75c2.19-4.19,2.71-8.8,4.74-13.42
		c-1.42,0-2.26-0.1-3.08,0.02c-3.24,0.46-6.48,0.98-9.72,1.47c-0.85,0.13-1.72,0.36-2.57,0.31c-5.33-0.3-10.67-0.55-15.98-1.07
		c-1.84-0.18-3.69-0.89-5.39-1.69c-4.49-2.1-8.95-4.25-12.57-7.82c-2.45-2.42-5.17-4.56-7.69-6.91c-1-0.93-1.79-2.09-2.67-3.15
		c-1.44-1.72-2.86-3.46-4.31-5.17c-0.33-0.39-0.92-0.66-1.08-1.1c-1.56-4.38-5.27-7.22-7.75-10.92c-2-2.99-3.48-6.31-5.3-9.43
		c-0.94-1.61-2.09-3.09-3.38-4.96c-0.86,0.85-1.57,1.31-1.94,1.96c-0.94,1.64-1.84,3.33-2.55,5.08c-2.36,5.84-7.31,9.49-11.52,13.77
		c-6.07,2.71-11.56,7-18.66,6.92c-3.28,1.25-6.76,0.9-10.15,1.22c-1.19,0.11-2.46,0.26-3.58-0.04c-3.48-0.93-6.93-2.01-10.34-3.17
		c-0.94-0.32-1.73-1.12-2.52-1.77c-0.8-0.66-1.43-1.56-2.29-2.09c-4.76-2.89-7.68-7.28-10.08-12.12c-0.15-0.31-0.33-0.61-0.54-0.89
		c-4.68-6.07-4.87-13.53-5.97-20.58c-0.65-4.16,0.41-8.49,1.68-12.71c1.31-4.35,3.07-8.27,5.86-11.86c2.74-3.52,5.21-7.2,8.25-10.53
		c3.73-4.09,8.12-7.4,11.99-11.31c1.79-1.81,4.35-2.84,6.21-4.61c4.64-4.4,9.83-8.11,14.77-12.13c0.67-0.54,1.37-1.06,2.1-1.51
		c5.69-3.53,11.28-7.26,17.13-10.5c4.19-2.31,8.79-3.86,13.12-5.93c5.32-2.53,11.09-3.66,16.61-5.55c3.08-1.05,6.38-1.48,9.58-2.17
		c1.85-0.4,3.71-0.77,5.56-1.17c0.5-0.11,1.02-0.41,1.5-0.36c6.21,0.7,12.27-1.23,18.49-0.95c6.35,0.29,12.73-0.09,19.1-0.17
		c0.17,0,0.39-0.08,0.51,0c3.4,2.19,7.37,0.83,11,1.8c2.81,0.75,5.81,0.79,8.69,1.32c3.2,0.59,6.37,1.4,9.55,2.09
		c2.17,0.47,4.34,0.97,6.53,1.34c6.13,1.03,11.83,3.83,18.09,4.4c1.16,0.11,2.33,0.63,3.41,1.16c4.36,2.12,8.9,3.66,13.59,4.85
		C532.54,313.92,534.73,314.95,537.27,315.89z M644.1,641.5c-0.55,0.35-1.36,0.58-1.62,1.08c-1.41,2.83-3.89,4.79-5.71,7.27
		c-2.63,3.57-6.31,4.6-10.41,4.78c-3,0.13-6.93-2.99-7.63-5.95c-0.08-0.32-0.08-0.69-0.03-1.02c0.37-2.37,2.02-5,5.52-3.24
		c2.75,1.38,4.62,0.47,6.46-1.36c3.05-3.04,4.61-6.86,5.2-11.02c0.88-6.17,0.56-12.41,0.54-18.61c-0.01-2.35-0.95-4.71-1.5-7.05
		c-0.49-2.1-2.05-3.08-3.96-3.71c-1.81-0.59-3.14,0-3.51,1.88c-0.34,1.68-0.3,3.43-0.54,5.14c-0.21,1.52-0.51,3.03-0.9,4.51
		c-0.29,1.09-1.14,1.72-2.26,1.86c-1.43,0.17-2.31-0.74-2.81-1.86c-0.48-1.09-0.85-2.3-0.93-3.48c-0.18-2.75-0.06-5.52-0.24-8.27
		c-0.18-2.71,1-4.58,3.06-6.18c1.86-1.44,3.85-2.28,6.2-2.21c1.55,0.05,3.11,0.19,4.66,0.22c3.42,0.06,5.9,1.64,7.61,4.56
		c0.78,1.34,1.75,2.58,2.43,3.97c0.63,1.28,0.99,2.68,1.5,4.13c1.65-1.5,3.05-2.76,4.44-4.05c4.55-4.21,3.95-9.62,3.42-14.98
		c-0.06-0.6-0.67-1.18-1.09-1.72c-2.53-3.25-5.07-6.49-7.41-9.47c-2.78-0.51-5.13-0.94-7.45-1.36c-0.49,0.41-0.9,0.72-1.28,1.06
		c-5.39,4.82-11.02,9.2-17.69,12.28c-6.26,2.89-12.5,5.75-19.1,7.78c-1.3,0.4-2.69,0.63-4.05,0.71c-4.99,0.31-9.98,0.55-14.93,1.35
		c-2.38,0.39-5.01,0.17-7-1.2c-5.16-3.58-11.54-5.71-14.64-11.86c-0.22-0.44-0.73-0.73-1.06-1.13c-3.88-4.6-8.1-8.98-9.61-15.11
		c-0.16-0.65-0.58-1.25-0.96-1.83c-4.7-7.31-6.65-15.39-6.8-23.99c-0.05-2.74-0.29-5.47-0.43-8.05c-4.63-2.18-5.38-2.28-11.18-1.5
		c0.62,4.08,0.54,4.03-1.61,7.5c-2.08,3.36-4.01,6.82-5.94,10.27c-1.94,3.45-3.67,7.02-5.73,10.39c-3.07,5-5.98,10.08-8.5,15.38
		c-2.73,5.74-6.03,11.2-8.42,17.13c-1.06,2.61-2.46,5.43-5.18,6.93c-4.07,2.24-5.23,6.16-6.24,10.23c-0.61,2.46-0.06,4.4,2.06,5.89
		c0.7,0.49,1.53,1.01,1.89,1.72c1.36,2.67,4.01,3.05,6.42,3.87c1.13,0.39,2.48,0.34,3.47,0.93c2.08,1.21,4.32,1.16,6.53,1.18
		c2.23,0.02,4.45-0.25,6.12-0.36c2.32-1.78,4.21-3.24,6.11-4.68c1.86-1.41,3.83-1.46,5.81-0.3c1.19,0.7,2.41,1.4,3.41,2.32
		c0.54,0.5,0.88,1.48,0.86,2.23c-0.02,0.95-0.91,1.48-1.83,1.48c-2.35,0-3.68,1.12-4.8,3.19c-1.84,3.4-4.91,5.35-8.87,5.29
		c-6.5-0.1-13,0.42-19.36-2.14c-3.24-1.3-6.33-2.63-9.06-4.75c-1.48-1.15-2.72-2.62-4.09-3.93c-2.34-2.24-3.84-4.86-3.83-8.19
		c0.01-5.22,0.62-10.25,3.48-14.88c1.29-2.1,2.9-3.83,4.48-5.65c2.11-2.41,5.25-4.17,5.16-8.02c-0.01-0.3,0.24-0.68,0.48-0.9
		c1.72-1.6,2.08-3.92,3.12-5.87c1.38-2.58,2.71-5.2,4.17-7.73c2.07-3.58,4.28-7.07,6.35-10.65c1.98-3.43,3.54-7.14,5.83-10.35
		c2.31-3.23,3.32-7.14,6.07-10.14c1.79-1.95,2.83-4.59,4.2-6.92c-0.33-0.16-0.61-0.4-0.91-0.43c-0.5-0.04-1.01,0.07-1.68,0.12
		c-0.22,0.79-0.34,1.62-0.66,2.37c-1.83,4.34-6.4,5.21-9.6,1.76c-0.91-0.99-1.52-2.28-2.15-3.49c-2.32-4.4-3.8-9.26-7.19-13.36
		c-1.87,2.18-2.76,5.35-6.18,5.75c0.36,1.45,0.73,2.6,0.9,3.79c0.09,0.63-0.02,1.41-0.34,1.95c-1.54,2.63-4.54,3.4-7.13,1.83
		c-1.17-0.71-2.14-1.84-3.37-2.37c-7.22-3.1-14.16-6.87-22.07-8.28c-7.1-1.27-13.73-4.28-20.74-6.6c-0.65,0.94-1.45,1.86-1.99,2.92
		c-1.88,3.67-4.3,7.08-5.26,11.21c-0.98,4.22-0.76,8.56,1.28,12.08c2.28,3.93,4.02,7.99,5.61,12.17c0.52,1.37,1.4,2.28,2.51,3.17
		c3.89,3.12,7.62,6.44,11.56,9.5c1.46,1.14,3.24,2.29,5,2.54c5.17,0.73,9.64,3.47,14.68,4.58c2.53,0.56,4.97,1.37,7.6,1.22
		c2.23-0.13,4.47-0.38,6.7-0.37c3.91,0.01,5.62,2.75,4.03,6.27c-0.67,1.48-1.63,2.65-3.34,2.96c-1.87,0.34-3.73,0.92-5.6,0.95
		c-6.6,0.1-13.07-1.04-19.2-3.37c-2.41-0.92-4.79-1.62-7.24-2.34c-3.05-0.89-6.12-2.12-8.44-4.79c-2.15-2.47-5.23-3.72-8.36-4.61
		c-4.78,5-8.31,10.53-11.51,16.23c-1.87,3.33-2.75,7.06-2.44,10.98c0.13,1.72,0.19,3.45,0.21,5.17c0.04,3.49,0.62,6.91,2,10.08
		c3.15,7.27,3.78,15.01,4.25,22.74c0.37,6.1,1.38,12.08,3.62,17.68c2.5,6.24,3.67,12.72,3.44,19.23c-0.17,4.95,1.73,9.45,1.73,14.27
		c0,2.02,0.41,4.14,1.09,6.04c1.46,4.05,3.22,7.99,4.86,11.98c0.98,2.39,2.12,4.74,2.86,7.2c0.65,2.17,1.77,3.7,3.88,4.49
		c1.61,0.61,3.22,1.21,4.83,1.83c1.6,0.62,3.28,1.11,4.76,1.95c2.47,1.4,5.09,2.22,7.89,2.27c4.65,0.1,9.24,0.87,13.88,1.12
		c6.35,0.34,12.72,0.85,19.06,0.66c3.67-0.11,7.49-0.53,11.15-2.07c-0.09-2.23,0-4.22,1.15-6.11c1.52-2.5,2.61-5.22,3.21-8.14
		c0.34-1.67,1.18-3.24,1.85-4.82c0.93-2.18,2.23-3.12,3.76-2.8c1.62,0.34,2.78,1.69,3.11,3.71c0.11,0.67,0.24,1.41,0.07,2.05
		c-1.06,4.15-1.31,8.56-3.93,12.21c-0.2,0.28-0.03,0.84-0.03,1.78c1.1-0.72,1.79-1.19,2.49-1.62c1.91-1.17,3.7-2.67,5.76-3.42
		c3.88-1.41,6.46-4.56,9.77-6.71c3.31-2.16,7.12-3.44,10.05-6.32c2.06-2.03,4.75-3.41,7.12-5.12c1.53-1.11,3.57-1.99,4.37-3.51
		c2.02-3.79,5.34-6.29,8.11-9.33c1.27-1.39,2.78-2.57,4.11-3.91c1.94-1.95,3.63-4.02,4.63-6.71c1.06-2.85,4.13-4.76,7.53-2.05
		c0.93,0.74,1.83,1.52,2.79,2.31c0,1.51-0.01,2.88,0,4.25c0.01,1.38,0.15,2.78-0.77,3.72c-1.94,0.77-3.96,1.1-5.33,2.22
		c-2.78,2.27-5.3,4.88-7.74,7.53c-2.43,2.64-4.63,5.51-6.93,8.27c-0.44,0.53-0.82,1.15-1.36,1.56c-4.54,3.37-9.09,6.75-13.7,10.03
		c-1.94,1.38-4.11,2.44-6.08,3.79c-1.83,1.26-3.42,2.88-5.3,4.04c-3.97,2.44-8.08,4.64-12.09,7.03c-2.07,1.24-4.06,2.57-6.48,3.11
		c-0.39,0.09-0.66,0.74-1.15,1.32c0.72,1.32,1.53,2.63,2.13,4.03c0.23,0.53,0.17,1.46-0.17,1.87c-0.34,0.41-1.22,0.62-1.81,0.54
		c-1.47-0.2-2.92-1.08-4.51,0.06c-0.2,3.77-0.45,7.54-0.59,11.32c-0.07,1.7,0.1,3.42,0.08,5.13c-0.03,2.06,0.17,4.19-0.31,6.15
		c-1.18,4.84-2.69,9.61-4.08,14.4c-0.75,2.56-0.25,3.91,1.99,5.14c1.66,0.91,3.61,1.48,4.96,2.72c3.8,3.48,8.53,4.63,13.27,5.27
		c9.25,1.26,18.57,0.93,27.82-0.3c5.11-0.68,10.26-1.47,15.22-2.84c5.16-1.43,10.67-1.13,15.61-3.42
		c6.17-0.59,11.35-3.87,16.91-6.13c4.56-1.85,8.06-5.25,12.09-7.88c1.72-1.12,2.03-2.94,1.78-5.03c-0.62-5.29-0.98-10.61-1.46-15.92
		c-0.08-0.85,0.03-1.83-0.34-2.54c-1.28-2.44-1.18-4.93-0.87-7.57c0.2-1.67-0.12-3.43-0.34-5.13c-0.46-3.61-0.7-7.19-0.11-10.83
		c0.49-3.05,0.46-6.18,0.99-9.22c0.85-4.92,1.46-9.98,3.11-14.64c1.83-5.15,4.01-10.18,5.68-15.4c1.68-5.24,3.54-10.43,5.29-15.65
		c0.55-1.63,1.3-3.3,1.35-4.98c0.08-2.88,1.08-5.38,2.38-7.82c1.95-3.68,3.31-7.55,4.08-11.69c0-0.39,0-0.78,0-1.17
		c-0.02,0-0.04,0-0.06,0C644.06,640.64,644.08,641.07,644.1,641.5z M663.2,587.87c1-1.78,1.62-2.77,2.13-3.8
		c1.52-3.08,3.01-6.18,4.5-9.27c0.3-0.62,0.65-1.25,0.75-1.91c0.35-2.32,1.52-4.16,2.97-5.94c0.96-1.19,1.62-2.63,2.42-3.95
		c1.16-1.91,2.3-3.83,3.48-5.72c0.45-0.73,1.21-1.34,1.43-2.12c1.56-5.37,6.92-8.07,9.07-13.02c0.25-0.57,1.07-0.86,1.54-1.36
		c2.24-2.38,4.56-4.71,6.64-7.22c2.2-2.65,4.2-5.47,6.23-8.26c3.35-4.63,6.75-9.25,5.68-15.53c-0.14-0.81,0.39-1.74,0.27-2.56
		c-0.57-3.86-0.7-7.82-3.74-10.94c-1.52-1.56-2.94-3.57-3.52-5.63c-1.3-4.59-4.06-8.39-6.2-12.5c-1.57-3.02-3.7-5.79-6.67-7.76
		c-4.78-3.17-7.52-7.99-10.05-12.92c-0.54-1.05-0.79-2.3-0.95-3.49c-0.56-4,2.22-7.45,6.3-7.76c7.17-0.54,13.9-2.32,19.91-6.46
		c2.26-1.56,4.9-2.63,6.97-4.39c3.55-3.02,6.89-6.29,10.11-9.67c2.56-2.69,4.19-6.06,4.01-9.81c-0.13-2.75-0.15-5.47-0.15-8.21
		c0-2.89-0.52-5.77-0.8-8.51c-1.83-0.8-3.45-1.39-4.94-2.2c-1.67-0.9-2.5-2.48-2.21-4.34c0.31-1.98,1.42-3.74,3.53-3.98
		c3.27-0.37,5.93-1.57,7.96-4.17c0.21-0.26,0.54-0.42,0.82-0.63c4.72-3.48,8.26-8.2,12.6-12.08c0.63-0.56,1-1.4,1.51-2.1
		c1.01-1.38,1.87-2.94,3.1-4.1c2.81-2.64,4.79-5.84,6.75-9.08c1.33-2.2,2.56-4.47,3.94-6.65c3.86-6.14,6.09-12.66,5.04-20.04
		c-0.14-1,0-2.06,0.14-3.08c0.51-3.83-1.36-7.02-2.78-10.31c-0.38-0.89-1.26-1.66-2.08-2.25c-3.31-2.35-6.96-3.74-11.09-3.66
		c-1.38,0.03-2.88,0.22-4.11-0.23c-4.15-1.53-8.19-0.27-12.28,0.08c-2.73,0.24-5.47,0.68-8.2,0.69c-4.52,0.02-8.94,0.36-13.26,1.84
		c-1.62,0.56-3.37,0.97-5.06,0.99c-3.69,0.03-7.1,1.14-10.6,2.08c-4.17,1.13-8.2,2.71-12.32,3.84c-3.59,0.99-6.8,2.45-9.87,4.31
		c-2.43,1.47-5.1,2.03-7.71,2.89c-3.23,1.06-7.25-1.49-8.05-4.74c-0.87-3.51-1.65-7.06-2.82-10.47c-1.33-3.88-2.32-7.9-4.47-11.48
		c-1.27-2.12-2.78-4-4.92-5.2c-2.4-1.34-4.91-2.51-7.44-3.57c-1.08-0.46-2.36-0.71-3.53-0.67c-7.89,0.3-15.75-0.77-23.7,0.12
		c-10.67,1.2-21.14,3.01-31.32,6.39c-2.61,0.87-5.07,2.21-7.71,3c-6.36,1.91-11.99,5.2-17.44,8.85c-1.12,0.75-2.41,1.64-2.95,2.79
		c-1.16,2.44-3.56,4.29-3.67,7.37c0.52,0.48,0.95,1.04,1.52,1.38c3.27,1.92,6.53,3.87,9.89,5.63c5.67,2.97,10.05,7.24,13.02,12.87
		c0.78,1.48,1.07,3.25,1.37,4.92c0.26,1.44-0.41,2.63-1.44,3.7c-3.33,3.46-7.3,4.4-11.83,3.14c-1.99-0.55-3.96-1.21-5.9-1.95
		c-0.77-0.29-1.47-0.84-2.11-1.39c-1.58-1.33-3.21-2.63-4.62-4.12c-3.7-3.92-6.94-8.14-8.05-13.63c-0.3-1.48-0.97-2.88-1.37-4.02
		c-4.47-1.59-8.63-2.75-12.51-4.53c-6.46-2.98-13.18-4.99-20.07-6.59c-1.34-0.31-2.68-0.67-3.99-1.1c-4.1-1.33-8.21-2.62-12.57-2.81
		c-1.02-0.05-2.12-0.15-3.04-0.55c-4.7-2.01-9.67-2.25-14.67-2.49c-3.07-0.14-6.23-0.38-9.15-1.25c-2.24-0.67-4.38-0.81-6.61-0.76
		c-7.76,0.19-15.52,0.44-23.28,0.6c-6.22,0.13-12.32,1.28-18.44,2.23c-0.51,0.08-1,0.27-1.5,0.4c-3.17,0.84-6.33,1.68-9.5,2.51
		c-1.17,0.31-2.37,0.5-3.49,0.92c-11.66,4.43-22.51,10.46-33,17.14c-3.04,1.93-5.92,4.15-8.75,6.38c-3.37,2.65-6.61,5.48-9.93,8.19
		c-0.8,0.65-1.64,1.33-2.58,1.73c-2.31,0.98-4.01,2.63-5.56,4.52c-0.76,0.93-1.66,1.74-2.51,2.59
		c-5.61,5.58-11.57,10.77-15.54,17.87c-3.15,5.63-4.89,11.35-4.06,17.75c0.31,2.39,1.05,4.72,1.31,7.11
		c0.59,5.34,3.52,9.56,6.38,13.81c2.46,3.66,6.29,5.82,9.82,8.2c2.44,1.64,5.26,2.4,8.38,1.94c3.23-0.48,6.52-0.58,9.79-0.78
		c1.94-0.12,3.74-0.61,5.42-1.56c0.9-0.51,1.75-1.18,2.71-1.5c7.33-2.43,12.08-7.86,15.77-14.18c1.57-2.69,3.27-5.51,3.24-9.09
		c-0.02-2.24,1.41-4.53,2.95-6.47c0.99-1.24,2.14-1.58,3.62-1.46c2.45,0.21,4.12,1.54,5.46,3.49c3.9,5.67,6.76,11.94,10.77,17.58
		c3.89,5.46,7.12,11.38,11.58,16.47c3.29,3.75,6.5,7.55,10.34,10.77c1.05,0.88,1.98,1.93,3.12,2.67c2.59,1.67,5.11,3.64,7.95,4.66
		c2.85,1.02,6.05,1.13,9.11,1.47c2.03,0.23,4.13-0.07,6.13,0.28c5.79,1.01,11.31-0.62,16.91-1.5c0.84-0.13,1.63-0.55,2.45-0.8
		c1.7-0.52,3.18-1.28,4.04-2.97c1.21-2.38,3.33-2.76,5.73-2.52c1.01,0.1,2.15,0.47,3,0.13c4.03-1.6,7.14-4.73,8.55-8.51
		c1.4-3.75,1.67-8.06,1.08-12.25c-0.46-3.25-0.69-6.52-0.98-9.79c-0.09-1.02-0.24-2.11,0-3.08c0.28-1.14,0.77-2.29,2.12-2.74
		c2.57-0.85,4.8-0.31,6.43,1.79c0.83,1.07,1.39,2.36,2.16,3.48c1.16,1.69,2.34,3.38,3.64,4.96c0.87,1.05,1.98,1.9,2.96,2.86
		c3.84,3.77,8.54,6.4,12.74,9.7c0.27,0.21,0.59,0.37,0.91,0.49c5.64,2.09,10.87,5.19,16.9,6.35c5.24,1.01,10.28,2.94,15.72,3.01
		c5.16,0.06,10.32,0.43,15.48,0.48c5.18,0.05,10.43,0.39,15.51-0.34c8.16-1.16,16.51-1.32,24.42-4.14
		c4.37-1.55,8.84-2.81,13.25-4.25c3.63-1.19,6.61-3.72,10.08-5.17c5.63-2.36,10.56-5.82,15.69-8.99c2.35-1.45,4.42-3.25,6.53-5.03
		c2.62-2.2,5.61-3.99,8.58-5.72c2.03-1.19,3.46-0.54,4.74,1.55c1.57,2.55,1.24,4.89-0.72,7.28c-2.09,0.34-4.38,0.51-6.05,2.24
		c-6.31,6.55-14.43,10.5-21.99,15.24c-4.07,2.55-8.16,5.14-12.94,6.34c-1.14,0.29-2.16,1.07-3.23,1.64
		c-0.61,0.33-1.16,0.82-1.8,1.01c-5.12,1.51-10.2,3.21-15.39,4.38c-4.52,1.02-9.16,1.45-13.76,2.08c-1.36,0.19-2.75,0.2-4.12,0.29
		c-3.1,0.2-6.19,0.4-9.29,0.57c-1.37,0.08-2.74,0.08-4.11,0.11c-1.54,0.04-3.08,0.11-4.62,0.12c-1.19,0.01-2.39-0.03-3.58-0.09
		c-1.53-0.08-3.06-0.25-4.6-0.29c-1.2-0.02-2.42,0.27-3.59,0.14c-4.96-0.55-9.93-1.09-14.87-1.86c-9.82-1.53-18.75-5.69-27.72-9.7
		c-0.16-0.07-0.31-0.16-0.44-0.27c-2.49-1.84-4.95-3.72-7.48-5.52c-1.12-0.8-2.31-1.51-3.55-2.11c-1.17-0.57-1.71-2.11-3.5-2.33
		c-0.25,1.41-0.39,2.57-0.67,3.7c-0.81,3.35-1.09,6.98-2.66,9.93c-1.57,2.95-4.14,5.61-6.85,7.63c-1.87,1.39-2.45,3.03-2.84,4.86
		c-3.8,0.04-3.8,0.04-9.73,3.37c-2.67,7.18-5.17,14.52-8.12,21.67c-2.94,7.11-6.46,13.99-9.14,21.36c0.96,0.63,1.65,1.15,2.39,1.54
		c2.9,1.52,6.05,2.68,8.68,4.56c3.24,2.31,6.6,2.53,10.3,2.19c2.56-0.24,5.16-0.17,7.74-0.12c5.5,0.1,9.38,2.43,11.74,7.68
		c2.72,6.07,5.61,12.12,9.71,17.46c6.04-0.2,12.06-0.47,18.08-0.59c6.05-0.13,11.93,1.15,17.75,2.51c0.87-0.69,1.76-1.25,2.47-1.99
		c1.6-1.67,1.78-2.96,0.14-4.95c-1.41-1.71-1.4-3.42-0.98-5.33c0.67-3.02,2.56-4.2,5.71-3.52c0.66,0.14,1.28,0.45,2.02,0.73
		c2.1-1.95,4.49-3.21,7.29-3.77c0.94-0.19,1.99-0.77,2.62-1.5c2.63-3.02,5.7-5.44,9.1-7.57c3.94-2.48,7.77-5.07,12.22-6.65
		c2.91-1.03,5.65-2.51,8.49-3.73c3.32-1.43,6.61-2.98,10.02-4.17c3.6-1.25,7.3-2.05,11.16-0.82c1.11,0.35,2.39,0.13,3.6,0.2
		c1.19,0.07,2.41,0.04,3.57,0.28c6.37,1.3,11.99,4.36,17.34,7.88c1.68,1.11,3.03,2.8,4.32,4.4c1.33,1.65,1.82,3.69,1.81,5.83
		c-0.01,1.71-0.03,3.41-0.06,5.12c-0.08,5.56-4.63,9.68-10.09,9.39c-2.91-0.15-5.85,0.07-8.78,0.17c-0.47,0.02-0.93,0.25-1.79,0.49
		c2.8,4.93,5.12,9.97,8.3,14.37c4.31,5.96,5.82,12.85,7.21,19.69c0.87,4.28,0.07,8.9,0.05,13.36c0,0.98,0.11,1.97,0.17,2.89
		c4.71,0.61,4.75,0.58,7.71,3.86c1.5,1.66,2.64,3.69,4.32,5.11C659.07,578.9,661.17,582.77,663.2,587.87z M578.43,517.41
		c-3.83-0.79-6.53-0.97-9.23-0.8c-3.24,0.21-5.28,2.15-6.64,5c-0.66,1.38-1.37,2.77-2.28,3.99c-3.5,4.67-7.1,9.27-10.81,14.09
		c-0.42,3.69-0.32,7.63,0.91,11.47c0.57,1.78,1.41,3.48,2.03,5.25c2.45,6.99,5.48,13.57,10.11,19.53
		c3.56,4.58,7.32,8.58,12.51,11.17c0.31,0.15,0.6,0.35,0.85,0.59c1.56,1.43,3.61,1.77,5.33,1.13c2.91-1.08,5.78-0.59,8.69-0.64
		c1.35-0.03,2.71-0.23,4.05-0.46c3.95-0.68,7.45-2.73,11.23-3.8c6.27-1.77,11.78-4.79,16.97-8.58c1.93-1.41,4.22-2.37,5.57-4.53
		c-0.12-0.7-0.3-1.37-0.33-2.04c-0.14-2.75,0.33-3.39,2.85-4.04c0.96-0.25,1.93-0.47,2.68-0.65c0.98-2.07,1.58-3.77,0.78-5.77
		c-0.36-0.89-0.27-2.07-0.09-3.06c0.62-3.39-0.4-6.53-1.5-9.6c-1.12-3.17-0.94-6.93-4.21-9.2c-0.75-0.52-0.96-1.8-1.48-2.69
		c-1.13-1.92-2.16-3.93-3.5-5.7c-1.57-2.08-2.94-4.18-3.97-6.61c-2.08-4.91-2.97-5.29-8.31-4.72c-0.68,0.07-1.36,0.23-2.03,0.42
		c-5.12,1.43-10.24,2.87-15.35,4.34c-1.16,0.33-2.29,0.76-3.4,1.22c-2.87,1.18-5.76,2.31-8.56,3.62c-3.7,1.73-7.85,2.74-10.47,6.28
		c-0.2,0.27-0.48,0.5-0.76,0.7c-2.04,1.47-4.66,0.4-5.17-2.1c-0.63-3.13,1.04-6.67,3.92-8.32
		C571.65,521.28,574.49,519.66,578.43,517.41z M579.8,507.6c1.69,0,2.54,0.02,3.4,0c7-0.17,13.95-1.79,21-0.74
		c3.38-0.9,6.73-0.35,10.14-0.09c3.76,0.29,7.56,0.14,11.33,0.02c4.22-0.13,8.5,0.85,12.72-0.48c1.29-2.23,0.38-4.36,0.04-6.36
		c-6.88-4.64-8.04-5.35-14.82-7.11c-3.11-0.8-6.37-1.01-9.58-1.38c-0.82-0.09-1.74,0.1-2.53,0.38c-2.91,1.02-5.82,2.07-8.67,3.24
		c-4.45,1.81-8.82,3.86-13.31,5.56C585.89,502,582.95,504.18,579.8,507.6z M490.52,525.15c0.6-3.33-0.53-5.9-3.28-7.95
		c-3.32-2.48-6.84-4.61-10.4-6.72c-2.67-1.58-5.56-1.96-8.45-1.74c-5.5,0.42-10.97,1.02-16.49,0.13c-0.99-0.16-2.05,0.13-3.08,0.22
		c-0.69,0.06-1.37,0.15-1.25,1.26c0.33,0.21,0.72,0.58,1.17,0.72c4.28,1.28,8.53,2.72,12.88,3.72c6.75,1.56,13.27,3.67,19.51,6.66
		c2.77,1.33,5.53,2.68,8.31,3.97C489.68,525.52,490.07,525.27,490.52,525.15z M645.1,635.45c0.22,0.04,0.44,0.07,0.66,0.11
		c2.04-6.77,4.08-13.53,6.17-20.42c-2.06-0.52-3.83-0.97-5.89-1.5c-0.11,3.77-0.18,7.31-0.33,10.85
		C645.55,628.14,645.31,631.8,645.1,635.45z M550.42,334.23c0.31,0.6,0.54,1.26,0.95,1.78c2.19,2.76,5.49,4.01,8.29,5.94
		c0.27,0.19,0.93-0.17,1.57-0.32C558.88,337.34,554.95,335.44,550.42,334.23z M452.15,498.26c-3.55-2.11-6.73-1.71-10.45,0.02
		C447.61,499.13,449.91,499.15,452.15,498.26z M492.82,510.05c-0.39-0.26-0.76-0.5-1.13-0.74c-0.07,0.28-0.26,0.61-0.17,0.82
		c0.11,0.24,0.45,0.45,0.73,0.52C492.35,510.68,492.57,510.32,492.82,510.05z"/>
	<path class="st0" d="M492.82,510.05c-0.25,0.27-0.47,0.63-0.58,0.6c-0.28-0.08-0.62-0.28-0.73-0.52c-0.09-0.2,0.1-0.54,0.17-0.82
		C492.06,509.55,492.43,509.8,492.82,510.05z"/>
	<path class="st0" d="M644.1,641.5c-0.02-0.43-0.04-0.86-0.06-1.3c0.02,0,0.04,0,0.06,0c0,0.39,0,0.78,0.01,1.2
		C644.13,641.43,644.1,641.5,644.1,641.5z"/>
	<path d="M537.9,649.73c0.65,0.12,1.32,0.23,1.99,0.36c1.73,0.33,2.63,1.41,3.02,3.11c1.37,6.03-1.58,11.67-5.73,14.5
		c-2.55,1.74-5.13,3.45-7.84,4.9c-1.48,0.79-3.24,1.24-4.93,1.47c-6.28,0.88-12.54,2.04-18.92,2.11c-1.52,0.02-3.12,0.89-4.54,0.62
		c-4.56-0.87-9.37,0.12-13.76-1.77c-3.43-1.48-7.07-2.74-10.1-4.84c-3.66-2.54-6.73-5.95-9.05-9.81c-1.13-1.88-1.88-4.06-2.46-6.19
		c-0.49-1.84-0.48-3.81,1.33-5.18c1.95-1.47,3.78-2.74,6.57-1.6c4.33,1.77,8.53,3.65,11.98,6.91c0.37,0.35,0.79,0.7,1.25,0.91
		c7.62,3.51,14.9,8.02,23.65,8.34c0.51,0.02,1.02,0.13,1.52,0.27c4.84,1.34,4.84,1.34,10.77,0.4c0.29-0.43,0.71-0.97,1.04-1.55
		c1.08-1.88,2.7-2.54,4.8-2.23c0.85,0.13,1.72,0.26,2.57,0.19c1.63-0.12,3.19-1.71,3.36-3.36c0.09-0.84-0.08-1.72,0.06-2.55
		c0.14-0.79,0.53-1.53,0.94-2.64c-4.04,0.39-6.14-1.56-7.34-4.81c-0.53-1.43-1.31-2.77-1.79-4.22c-0.26-0.78-0.18-1.7-0.12-2.54
		c0.1-1.32,0.81-2.24,2.1-2.66c1.14-0.36,2.12,0.1,2.78,0.89c1.32,1.58,2.6,3.22,3.69,4.97
		C535.84,645.47,536.68,647.37,537.9,649.73z"/>
	<path d="M472.68,543.76c-3.59-0.96-6.88-1.81-10.17-2.72c-1.99-0.55-3.99-1.12-5.95-1.78c-3-1.01-3.89-5.46-1.42-7.53
		c0.7-0.59,1.91-0.88,2.85-0.81c3.97,0.28,7.87,1.03,11.63,2.38c3.89,1.41,7.77,2.75,11.99,2.97c3.07,0.16,5.05,2.32,5.78,5.52
		c0.34,1.51,0.89,2.98,1.18,4.5c0.57,2.98-0.52,5.22-3.18,6.9c-0.87,0.55-1.72,1.13-2.54,1.75c-3.74,2.88-9.01,1.24-10.24-3.33
		C471.94,549.15,471.79,546.58,472.68,543.76z"/>
	<path d="M540.19,640.03c0.34-1.53,0.9-2.8,2.38-3.24c1.4-0.41,2.73,0.05,3.92,0.83c0.57,0.38,1.2,0.75,1.62,1.27
		c1.94,2.4,3.89,4.79,5.69,7.3c1.35,1.89,1.16,3.88-0.23,5.75c-1.45,1.95-4.24,2.07-5.7,0.13c-1.85-2.47-3.67-4.97-5.37-7.55
		C541.56,643.09,540.92,641.48,540.19,640.03z"/>
	<path d="M481.61,636.44c-0.09,0.31-0.22,0.81-0.37,1.3c-1.01,3.32-3.4,5.54-6.08,7.48c-1.61,1.17-3.09,1.08-4.24,0.07
		c-1.62-1.43-2.16-3.36-1.33-5.09c0.29-0.61,0.77-1.13,1.17-1.69c1.02-1.39,2.04-2.77,3.07-4.15c0.31-0.41,0.61-0.84,0.99-1.19
		c1.22-1.1,2.63-1.63,4.27-1.1C480.36,632.5,481.66,634.69,481.61,636.44z"/>
	<path d="M508.06,712.71c-0.06,5.54-4.83,11.02-9.95,11.3c-0.77,0.04-1.75-0.28-2.31-0.78c-0.85-0.76-0.74-1.98-0.16-2.85
		c2.07-3.15,4.26-6.23,6.41-9.32c0.19-0.28,0.49-0.48,0.75-0.7c0.96-0.81,2.04-1.33,3.32-0.98
		C507.21,709.67,508.07,711.24,508.06,712.71z"/>
	<path d="M466.05,633.01c-0.47,0.83-0.96,2.45-2.03,3.41c-1.8,1.63-3.46,3.24-4.56,5.47c-0.64,1.29-2.52,1.23-3.57,0.13
		c-2.53-2.64-2.12-7.53,0.95-9.47c1.74-1.1,3.65-1.95,5.55-2.75C464.02,629.14,466.02,630.62,466.05,633.01z"/>
	<path d="M521.7,652.54c-1.89,1.96-3.65,1.95-5.58,0.43c-3.79-2.99-4.53-7.05-4.04-11.49c0.12-1.13,1.14-1.62,2.23-1.82
		c1.06-0.2,2.18-0.25,2.78,0.75C519.37,644.19,521.66,648,521.7,652.54z"/>
	<path d="M465.29,716.25c-0.81-0.33-2.06-0.46-2.53-1.13c-0.74-1.05-1.32-2.47-1.33-3.73c-0.01-2.02,0.51-4.04,0.81-6.05
		c0.21-1.35,1.06-2.04,2.34-2.36c0.9-0.22,1.75-0.17,2.28,0.61c0.56,0.83,1.34,1.77,1.37,2.68
		C468.35,709.78,468.8,713.47,465.29,716.25z"/>
	<path d="M477.47,722.25c-0.07-0.03-1.06-0.3-1.91-0.8c-0.93-0.54-1.34-2.03-0.64-2.69c1.69-1.61,2.28-3.8,3.43-5.68
		c0.66-1.08,1.69-1.74,3.03-1.53c1.29,0.2,2.36,1.51,2.44,2.95c0.13,2.12-0.3,4.13-1.5,5.89
		C481.42,721.72,480.16,722.6,477.47,722.25z"/>
	<path d="M582.42,549.28c-3.94,1.81-7.48,3.47-11.06,5.06c-1.08,0.48-2.23,0.94-3.4,1.09c-1.42,0.18-2.76-0.24-3.57-1.6
		c-0.77-1.3-0.65-3.05,0.55-4.28c1.44-1.47,2.92-2.97,4.63-4.09c6.17-4.07,13.13-6.02,20.38-6.8c2.29-0.25,4.82-0.22,6.8,1.71
		c1.38,1.35,2.21,2.8,1.27,4.58c-1.03,1.97-0.89,3.98-0.83,6.05c0.15,5.41-2.41,8.88-7.51,10.27c-2.1,0.57-4.64-0.86-5.28-3.09
		c-0.33-1.15-0.37-2.39-0.64-3.56C583.41,552.97,582.95,551.34,582.42,549.28z"/>
</g>
</svg>
