<?xml version="1.0" encoding="utf-8"?>
<!-- Generator: Adobe Illustrator 24.1.2, SVG Export Plug-In . SVG Version: 6.00 Build 0)  -->
<svg version="1.1" id="Camada_1" xmlns="http://www.w3.org/2000/svg" xmlns:xlink="http://www.w3.org/1999/xlink" x="0px" y="0px"
	 viewBox="0 0 1080 1080" style="enable-background:new 0 0 1080 1080;" xml:space="preserve">
<style type="text/css">
	.st0{fill:#FFFFFF;}
</style>
<g>
	<path d="M417.62,595.54c0.23-2.1,0.27-4.26,0.75-6.28c0.47-1.99,1-5,2.21-5.51c2.81-1.19,4.28,1.32,5.32,4.14
		c2.49,6.73,3.55,13.48,2.93,20.89c-0.69,8.19-0.33,16.52-0.03,24.77c0.24,6.72,0.06,13.77,1.86,20.04
		c3.05,10.64,8.65,19.94,15.17,28.6c3.82,5.07,6.65,11.06,9.93,16.63c3.28,5.56,6.56,11.12,9.84,16.68c0.3,0.51,0.65,1.02,0.81,1.58
		c2.8,9.86,8.91,17.61,13.8,26.1c2.73,4.73,6.46,8.74,9.55,13.23c3.71,5.4,9.83,6.49,14.56,6.62c8.7,0.22,14.7,5.55,21.52,9.64
		c4.89,2.93,9.11,6.73,15.76,3.69c4.18-1.91,9.66-0.6,14.53-0.27c4.12,0.28,7.97,0.99,10.95-3.53c0.74-1.13,3.36-1.4,4.93-1.04
		c2.62,0.59,3.91-0.76,5.62-2.55c3.34-3.49,7.19-6.39,10.62-9.79c3.05-3.03,5.73-6.51,8.73-9.6c4.56-4.7,9.25-9.24,13.88-13.86
		c1.3-1.3,2.6-2.6,3.87-3.94c0.7-0.73,1.26-2.14,1.99-2.23c6.78-0.91,6.61-8.22,9.67-12.54c1.32-1.87,2.92-3.92,4.81-4.79
		c2.93-1.34,4.99-3.16,5.61-6.59c0.84-4.64,3.71-7.42,7.15-9.41c5.44-3.15,8.14-8.65,10.97-14.22c1.33-2.61,3.16-4.95,4.96-7.23
		c4.76-6.03,9.12-12.31,11.48-20.04c0.22-0.71,0.66-1.33,1.01-1.98c5.3-9.61,10.65-19.18,15.88-28.83c2.6-4.8,2.86-10.01,2.12-15.5
		c-0.39-2.93,0.33-6.02,0.24-9.02c-0.12-4.08-0.55-8.15-0.84-12.22c-0.12-1.7-0.05-3.45-0.35-5.11c-1.09-6.2-2.25-12.39-3.53-18.55
		c-0.13-0.63-1.35-0.89-1.75-1.56c-0.97-1.62-1.99-3.29-2.53-5.1c-0.4-1.35,0.32-3.17-0.17-4.44c-1.29-3.34-0.62-4.76,2.71-5.02
		c0.78-0.06,1.86-1.58,2.11-2.64c0.55-2.3,0.76-4.72,0.93-7.11c0.41-5.53,0.68-11.07,1.08-16.6c0.12-1.66,0.32-3.35,0.76-4.93
		c0.8-2.82,4.13-3.53,5.74-1.15c0.77,1.13,1.37,2.73,1.37,4.12c0,4.97-0.35,9.94-0.46,14.91c-0.09,3.89-0.02,7.78-0.02,11.67
		c0.37,0.2,0.74,0.39,1.12,0.59c0.64-1.27,1.62-2.46,1.88-3.82c0.99-5.28,2.14-10.57,2.52-15.93c0.59-8.23,0.62-16.5,0.85-24.76
		c0.1-3.79,0.34-7.59,0.09-11.35c-0.18-2.65-1.04-5.26-1.65-7.87c-0.93-4.01-1.9-8.01-2.84-12.02c-0.68-2.88-2.51-3.52-4.98-3.63
		c-5.86-0.25-6.33-0.84-5.18-6.84c0.58-3.02,2.05-5.82,2.62-8.84c0.56-2.97,0.52-6.08,0.7-9.13c0.2-3.51,0.33-7.03,0.52-10.55
		c0.06-1,0.32-1.99,0.36-2.99c0.26-7.66,0.69-15.32,0.64-22.97c-0.03-4.95-1.02-9.89-1.13-14.85c-0.09-3.94,0.66-7.89,0.78-11.84
		c0.22-7.13,0.79-14.31,0.21-21.38c-0.8-9.72-2.47-19.36-3.91-29.01c-0.49-3.32-1.65-6.54-1.97-9.86c-0.1-1.1,1.42-3.3,2.31-3.38
		c1.28-0.12,3.52,0.92,3.88,2.04c2.31,7.22,4.91,14.46,6.09,21.95c1.42,8.98,1.9,18.21,2.11,27.35c0.33,14.03,0.17,28.08,0.03,42.11
		c-0.03,3.16-1.06,6.29-1.22,9.46c-0.18,3.52,0.11,7.07,0.18,10.61c0.02,1.21,0.34,2.59-0.07,3.6c-2.43,5.87-0.55,11.6,0.09,17.41
		c0.36,3.23,0.06,6.55,0.06,9.63c2.71,4.58,7.74,6.82,9.06,13.56c1.29,6.54,1.21,12.82,1.21,19.31c-0.01,6.97,1.05,13.95,1,20.92
		c-0.04,5.5-0.44,11.2-1.82,16.44c-1.16,4.4-1.29,8.44-0.66,12.78c0.23,1.57,0.5,3.8-0.25,4.78c-3.69,4.81-7.73,9.3-13.12,15.66
		c1.24,6.92,3,16.22,4.51,25.58c0.41,2.55,0.11,5.26,0.03,7.89c-0.2,6.05-0.56,12.09-0.68,18.14c-0.12,6.19-2.66,11.39-4.61,16.99
		c-2.12,6.11-7.98,9.64-8.19,17.03c-0.07,2.56-2.86,5.34-4.88,7.46c-4.39,4.62-3.46,10.24-3.39,15.98
		c0.14,11.34,4.58,21.55,6.32,32.44c1.64,10.32,3.46,20.67,3.95,31.09c0.13,2.84,0.84,5.29,1.09,7.94
		c0.35,3.66-0.66,7.53-0.04,11.08c1.73,9.97,2.55,20.6,6.47,29.49c3.44,7.8,0.45,12.47-2.45,17.71c-3.95,7.14-9.37,12.83-16.61,16
		c-0.6,0.26-1.04,0.96-1.58,1.43c-4.25,3.63-7.42,8.45-13.9,8.86c-4.87,0.31-9.47,4.29-14.39,5.89c-9.18,2.98-18.46,5.62-27.78,7.97
		c-2.92,0.73-6.13-0.05-9.21,0.04c-2.94,0.08-5.87,0.41-8.81,0.58c-1.2,0.07-2.43,0.16-3.61-0.03c-1.83-0.31-3.64-1.3-5.43-1.22
		c-5.13,0.25-10.23,1.13-15.35,1.29c-2.66,0.08-5.34-1.28-8.01-1.23c-4.9,0.09-9.79,0.98-14.7,1.1c-5.32,0.13-10.65-0.19-15.98-0.42
		c-7.24-0.31-14.47-0.88-21.71-1.07c-9.05-0.24-12.63-4.81-11.99-14.97c0.27-4.19-0.43-8.45-0.56-12.68c-0.1-3.25,0-6.5-0.02-9.75
		c-0.04-5.71-0.13-11.42-0.15-17.13c-0.01-2.93-1.4-4.54-3.7-5.76c-5.95-3.18-11.31-6.95-14.79-13.77
		c-2.19-4.28-6.02-7.49-8.86-11.4c-2.16-2.98-4.04-6.23-5.85-9.5c-3.07-5.56-6.6-10.95-8.81-16.92c-2.56-6.89-8.59-11.76-9.01-19.8
		c-0.04-0.79-0.64-1.95-1.25-2.24c-5.9-2.83-7.21-9.42-10.11-14.75c-2.17-3.98-4.97-7.52-7.15-11.49c-3.01-5.5-5.79-11.18-8.5-16.87
		c-2.77-5.81-3.99-12.01-4.15-18.67c-0.2-8.47-1.14-16.92-1.68-25.38c-0.16-2.54-0.14-5.11-0.03-7.66c0.13-3.13-0.6-5.04-3.82-5.67
		c-3.36-0.65-5.95-2.66-7.47-6.58c-1.01-2.58-3.53-4.38-5-6.81c-1.34-2.2-2.43-4.68-3.18-7.21c-1.83-6.15-3.49-12.36-5.04-18.6
		c-1.5-6.06-2.5-12.29-4.23-18.27c-2.29-7.95,0.84-14.45,3.89-20.99c1.65-3.55,11.19-3.51,11.92,0.18c0.46,2.3-1.27,6.73-3.09,7.69
		c-5.49,2.88-5.06,8.18-4.69,12.78c0.4,4.9,1.85,10,3.95,14.36c3.37,7,5.29,14.3,6.95,21.93c0.87,3.99,4.17,7.34,6.37,10.97
		C416.69,595.77,417.16,595.66,417.62,595.54z M512.56,783.15c-0.16,2.57-0.3,3.71-0.29,4.84c0.03,10.67,0.1,21.35,0.13,32.02
		c0.02,8.49,3.76,12.21,12.23,11.01c3.17-0.45,6.45-0.16,9.67,0.02c2.3,0.13,4.58,0.86,6.88,0.91c8,0.17,16,0.08,23.99,0.25
		c6.76,0.14,13.56,1.11,20.27,0.59c8.5-0.66,16.91-2.32,25.46-0.69c1.94,0.37,4.09,0.61,5.95,0.07c5.9-1.69,11.7-3.77,17.54-5.71
		c2.4-0.8,4.77-1.67,7.18-2.4c6.82-2.08,13.66-4.1,20.48-6.17c0.37-0.11,0.67-0.51,1-0.79c2.95-2.48,6.03-4.8,8.83-7.48
		c4.43-4.24,9.31-7.82,13.08-13.04c2.3-3.2,3.3-5.33,1.24-9.1c-1.42-2.62-2.08-5.87-2.62-8.94c-1.45-8.22-2.69-16.48-3.9-24.75
		c-0.21-1.42,0.1-2.96,0.25-4.43c0.18-1.72,1.2-3.98,0.56-5.05c-2.62-4.39-1.66-9.1-1.73-13.74c-0.03-2.12,0.32-4.33-0.07-6.36
		c-1.08-5.7-2.77-11.28-3.64-17.02c-1.38-9.01-2.25-18.12-3.42-27.18c-0.2-1.55-0.8-3.03-1.28-4.77
		c-4.27,4.3-4.95,11.37-10.64,13.69c-0.33,0.13-0.53,1.05-0.57,1.62c-0.41,6.16-4.3,9.75-8.48,12.39
		c-4.01,2.53-6.08,6.14-8.01,10.43c-1,2.23-3.13,3.86-4.78,5.72c-1.75,1.96-4.54,3.57-5.12,5.87c-1.87,7.43-5.87,11.71-12.53,13.38
		c-1.1,0.28-2.6,1.27-2.9,2.3c-1.76,6.06-6.67,8.49-10.66,12c-0.52,0.46-1.18,0.96-1.39,1.6c-1.93,5.83-7.25,7.7-10.94,11.43
		c-2.46,2.48-5.84,3.79-8.52,6.06c-3.83,3.25-7.1,7.39-11.12,10.26c-4.6,3.29-9.74,5.66-14.71,8.3c-0.8,0.43-1.89,0.27-2.84,0.22
		c-9.49-0.47-19-0.66-28.46-1.59C523.42,788.42,517.57,789.42,512.56,783.15z"/>
	<path d="M569.05,529.21c-9.74,1.39-18.93,2.69-28.85,4.1c-0.57,1.44-1.31,4.03-2.53,6.3c-4.26,7.91-7.98,16.39-13.3,23.32
		c-3.85,5.02-9.89,7.99-15.03,11.76c-4.74,3.48-9.51,6.94-14.39,10.16c-6.86,4.52-13.76,8.21-22.36,5.76
		c-3.59-1.02-7.76,0.55-11.67,0.74c-9.27,0.47-16.32-5.55-24.02-9.94c-5.79-3.3-8.64-9.01-12.03-14.56
		c-3.7-6.05-6.13-12.67-8.33-19.43c-1.42-4.35-2.12-8.58-0.8-13.52c1.14-4.29,0.24-9.25,0.24-14.25c-1.86,2.23-3.12,5.02-4.57,5.15
		c-1.86,0.16-3.96-1.66-5.74-2.97c-0.62-0.46-0.97-2.04-0.84-3c1.6-11.29-1.98-21.26-5.57-31.51c-3.37-9.64-5.69-19.78-7.9-29.85
		c-1.85-8.43-2.9-17.08-4.2-25.65c-0.29-1.91-0.04-3.92-0.21-5.86c-0.29-3.18-0.12-6.62-1.2-9.46c-2.55-6.72-1.93-13.48-1.45-20.36
		c0.24-3.46-0.08-6.97,0.16-10.44c0.13-1.87,0.91-3.69,1.41-5.55c6.09,2.53,6.63,5.4,6.06,11.98c-0.56,6.46,0.64,13.14,1.3,19.7
		c0.82,8.12,1.33,16.34,2.97,24.27c2.28,11.03,1.38,22.88,7.34,34.29c0.21-2.34,0.65-3.71,0.39-4.88c-1.69-7.32-3.8-14.52-5.22-21.9
		c-0.81-4.23-1.03-8.75-0.67-13.05c0.43-5.06,7.31-7.98,11.37-5.31c0.56,0.37,1.27,0.82,1.86,0.75c5.95-0.79,10.26,3.05,14.85,6.21
		c0.7,0.48,2.01,0.68,2.64,0.27c0.55-0.36,0.68-1.75,0.77-2.72c0.91-10.1-2.74-19.13-5.73-28.24c-1.84-5.59-4.64-10.78-6.67-16.3
		c-0.44-1.21,0.14-3.66,1.04-4.47c0.78-0.71,3.3-0.54,3.95,0.29c2.14,2.76,4.12,5.82,5.54,9.09c3.08,7.12,5.76,14.47,8.65,21.7
		c3.53,8.84,1.55,18,1.08,27.02c-0.06,1.2-2.79,3.15-4.28,3.15c-4.49-0.01-8.94,0.63-13.3-2.69c-3.88-2.95-8.92-4.04-14.67-6.46
		c0.57,3.71,0.89,6.82,1.57,9.83c0.77,3.46,1.96,6.8,2.79,10.25c1.06,4.39,2.24,8.77,2.82,13.25c0.91,7.08,1.1,14.27,2.11,21.32
		c0.42,2.91,2.17,5.58,3.29,8.37c0.45,1.13,1.06,2.27,1.18,3.46c0.2,1.96,0.05,3.96,0.05,5.94c0.41,0.17,0.82,0.34,1.23,0.51
		c1.88-2.43,3.87-4.77,5.62-7.32c3.37-4.89,6.36-10.13,9.99-14.77c1.96-2.51,4.88-4.1,7.39-6.05c3.1-2.4,6.02-5.23,9.38-7.04
		c7.09-3.81,14.62-6.08,22.58-6.41c3.6-0.15,7.27-1.51,10.77-1.02c6.89,0.95,14.41,1.26,20.33,4.69
		c7.15,4.13,15.76,6.73,20.28,15.61c1.13,2.23,3.74,3.49,5.53,5.35c5.73,5.98,6.09,13.98,6.86,21.96
		c1.11,11.52,5.06,14.67,14.44,12.23c4.84-1.26,9.74-2.21,15.16-3.42c-0.17-0.8-0.3-2.08-0.69-3.24c-1.78-5.3-2.77-10.49-1.07-16.22
		c1.09-3.68,1.16-7.75,1.64-11.65c1.2-9.7,5.01-17.53,12.35-23.38c5.26-4.19,10.04-9.13,15.06-13.7c2.37-2.15,4.54-5,7.27-6.13
		c3.41-1.4,7.3-1.43,11-1.91c4.02-0.53,8.33-2.1,12.02-1.05c5.34,1.51,11.4,0.39,16.05,5.29c2.46,2.59,5.97,3.92,8.93,5.96
		c4.17,2.88,8.71,5.36,12.25,9.02c2.46,2.54,4.95,5.5,5.62,10.08c0.7,4.75,3.47,9.08,4.95,13.74c1.98,6.23,4.11,12.49,3.12,19.35
		c-0.41,2.82-0.72,5.66-0.88,8.51c-0.52,9.64-4.66,17.4-10.17,24.44c-3.78,4.84-7.65,9.61-11.58,14.31
		c-4.99,5.97-11.17,8.97-18.55,9.6c-5.56,0.47-11.05,2.55-16.58,2.61c-10.25,0.11-20.9,2.04-30.56-2.79
		c-4.65-2.32-9.27-5.4-12.81-10.41c-3.51-4.97-5.46-10.29-6.76-16.11C568.69,533.94,569.05,531.77,569.05,529.21z M474.74,473.51
		c-7.68,1.77-14.71,1.31-19.88,7.77c-2.37,2.97-5.38,5.51-8.48,7.5c-5.14,3.28-9.3,7.26-11.52,13.55c-0.52,1.47-1.92,2.53-2.85,3.84
		c-1.65,2.3-4.21,4.43-4.7,7.02c-1.36,7.23-2.18,14.65-2.59,22.03c-0.38,6.93,0.63,13.74,4.06,19.87c2.71,4.86,5.2,9.87,7.82,14.79
		c0.18,0.35,0.66,0.52,1.02,0.73c5.23,3.1,10.22,6.97,15.76,9.03c4.3,1.6,9.28,1.11,13.96,1.23c4.03,0.11,8.28-1.15,12.02-0.06
		c2.58,0.75,4.43,0.57,6.43-0.58c5.13-2.97,10.32-5.87,15.23-9.26c4.61-3.19,8.88-6.98,13.3-10.5c1.18-0.94,2.72-1.57,3.51-2.81
		c2.9-4.53,5.59-9.22,8.28-13.9c1.51-2.63,3.82-5.24,4.1-8.07c0.6-5.93,0.18-11.99,0-17.99c-0.05-1.56-1.21-3.15-1.08-4.64
		c1.16-12.84-5-24.6-15.64-29.74c-4.54-2.2-8.98-4.66-13.48-6.95c-0.96-0.49-1.99-1.05-3.02-1.14
		C489.25,474.56,481.5,474.02,474.74,473.51z M614.05,451.26c-4.97-0.96-7.11,3.97-10.56,6.11c-9.74,6.05-18.28,13.47-23.95,24.38
		c-1.05,2.02-2.05,4.24-2.39,6.5c-0.88,5.87-1.1,11.87-2.14,17.7c-0.7,3.91-0.4,7.13,1.32,10.69c1.51,3.13,3.37,7.27,2.65,10.24
		c-1.24,5.1-0.91,9.59,0.78,14.11c2.02,5.41,5.21,10.54,10.4,11.69c5.96,1.33,11.59,4.88,18.18,3.34c3.54-0.83,7.47,0.7,11.17,0.4
		c4.55-0.38,9.04-2.24,13.56-2.23c6.88,0.02,10.99-4.96,15.5-9.2c3.06-2.88,5.47-6.61,8.36-9.74c6.12-6.66,11-13.45,10.23-24.17
		c-0.57-7.93,0.39-15.91-3.89-22.99c-0.25-0.41-0.06-1.13-0.19-1.67c-0.98-4.23-1-9.29-3.21-12.47c-3.51-5.04-7.9-10.48-13-12.72
		c-6.88-3.02-12.35-10.39-21.08-8.67C622.06,453.29,617.97,451.76,614.05,451.26z"/>
	<path d="M382.31,360.58c2.3-0.82,4.6-1.62,6.89-2.48c3.4-1.28,6.71-3.17,10.2-3.72c2.4-0.38,2.6-1.49,2.66-3.39
		c0.22-6.44,2.6-8.74,8.2-8.26c4.04,0.35,8.23,1.11,12.13,0.35c3.66-0.71,4.75,1.75,5.23,4.08c0.39,1.88-0.41,5.29-1.7,6.13
		c-4.05,2.67-8.53,4.59-12.94,6.51c-2.29,1-4.82,1.29-7.2,2.07c-7.27,2.38-14.53,4.8-21.78,7.27c-3.1,1.06-6.1,2.55-9.25,3.35
		c-4.4,1.12-6.31-1.05-4.77-5.61c2.24-6.62,4.66-13.21,7.57-19.49c4.58-9.91,9.53-19.62,14.54-29.27c1.19-2.29,3.27-4.02,4.92-6.02
		c1.51-1.82,3.01-3.66,4.51-5.48c-0.2-0.38-0.39-0.76-0.59-1.14c-5.15,0-10.3,0.01-15.44-0.01c-2.39-0.01-4.78-0.1-7.17-0.09
		c-1.33,0-2.86,0.63-3.93,0.08c-2.02-1.03-4.22-2.36-5.4-4.28c-0.43-0.7,1.78-3.51,2.94-5.23c0.4-0.6,1.37-0.7,1.88-1.26
		c5.62-6.18,10.84-12.9,16.93-18.44c3.6-3.28,8.49-4.88,12.9-6.98c8.51-4.05,17.01-8.13,25.67-11.76c4.28-1.79,8.94-2.41,13.32-3.95
		c2.86-1.01,5.52-2.72,7.96-3.96c-2.39-0.55-5.4-0.95-8.21-2.01c-1.35-0.51-2.78-2.07-3.25-3.53c-0.23-0.69,1.55-3.01,2.68-3.28
		c3.67-0.87,7.44-1.39,11.19-1.6c7.4-0.4,14.81-0.42,22.22-0.75c4.25-0.19,8.5-1.13,12.72-0.93c6.69,0.32,13.36,1.31,20.04,2
		c0.81,0.08,1.62,0.06,2.44,0.07c11.07,0.17,22.16,0.03,33.21,0.59c8.65,0.44,17.29,1.48,25.88,2.74
		c7.88,1.16,15.72,2.76,23.51,4.54c7.37,1.69,14.72,3.62,21.96,5.91c3.89,1.23,7.47,3.61,11.3,5.14
		c8.98,3.61,18.08,6.89,27.03,10.61c2.53,1.05,4.64,4.21,7.1,4.46c3.33,0.34,6.04,1.77,6.89,4.61c1.34,4.43,1.61,9.31,1.93,14.03
		c0.06,0.96-1.7,2.06-2.61,3.1c-0.86-1.05-1.88-1.99-2.54-3.18c-0.85-1.54-1.23-3.4-2.11-4.9c-3.63-6.16-9.78-8.22-15.39-10.78
		c-8.32-3.81-16.91-6.93-25.46-10.08c-5.24-1.93-10.58-3.6-15.96-5c-10.67-2.79-21.3-6-32.12-7.74
		c-10.14-1.63-20.51-1.56-30.77-2.29c-1.18-0.08-2.34-0.45-3.51-0.72c-1.98-0.46-3.94-1.26-5.93-1.36
		c-5.64-0.3-11.29-0.38-16.93-0.45c-5.56-0.07-11.12-0.01-16.81-0.01c1.27,7.92,0.57,8.84-6,8.65c-8.66-0.25-17.32-0.92-25.96-0.69
		c-4.42,0.12-8.88,1.51-13.18,2.86c-4.97,1.56-9.77,3.8-14.69,5.58c-5.61,2.03-11.35,3.65-16.91,5.86
		c-6.6,2.63-13.09,5.61-19.56,8.61c-1.72,0.8-3.26,2.18-4.77,3.45c-3.41,2.88-6.81,5.81-10.1,8.86c-0.99,0.91-1.64,2.27-1.88,2.61
		c4.7,0,9.69-0.3,14.64,0.06c10.74,0.8,20.65-2.99,30.7-6.2c1.91-0.61,4.42-1.29,5.95-0.42c1.75,1,4.17,4.72,3.74,5.48
		c-1.35,2.4-3.66,4.98-6.02,5.68c-7.29,2.15-15.07,2.63-21.33,8.02c-2.31,1.99-4.31,4.45-6.27,6.89c-3.16,3.93-6.4,7.82-9.17,12.08
		c-2.56,3.95-4.59,8.33-6.79,12.56c-2.15,4.13-4.26,8.28-6.34,12.45c-1.35,2.7-2.62,5.45-3.92,8.18
		C381.58,359.79,381.94,360.18,382.31,360.58z"/>
	<path d="M462.73,645.18c4.34-4.35,8.17-0.16,12.08,0c0.3,0.01,0.69,0.89,0.85,1.44c2.69,9.34,9.6,13.22,17.28,14.3
		c12.74,1.79,25.62,2.43,38.46,3.28c6.49,0.43,13.02,0.45,19.52,0.27c4.31-0.12,8.6-1,12.91-1.41c2.02-0.19,4.1,0.17,6.07-0.2
		c2.96-0.56,5.85-1.51,8.76-2.37c5.91-1.74,12.05-2.88,17.64-5.48c5.77-2.68,10.98-6.82,16.46-10.29c6.34-4,12.64-8.09,19.09-11.85
		c1.48-0.86,3.13-0.78,3.67,2.35c0.52,3.01,2.56,5.66,3.69,8.58c0.67,1.74,1.64,4.04,1.13,5.51c-0.96,2.73-2.63,5.34-4.49,7.48
		c-9.02,10.33-12.31,23.14-13.39,36.97c-0.07,0.84,0.26,1.76,0.52,2.59c0.22,0.69,0.61,1.32,0.74,1.6
		c-1.51,4.63-3.93,6.43-8.33,6.46c-4.19,0.02-8.32,2.38-12.56,2.84c-7.02,0.76-14.12,0.57-21.14,1.29
		c-4.64,0.48-9.19,2.03-13.81,2.78c-5.87,0.96-11.78,2.1-17.68,2.25c-7.95,0.2-15.91-0.58-23.86-0.74
		c-5.25-0.1-10.52-0.05-15.75,0.33c-2.33,0.17-4.68,1.14-6.88,2.12c-3.02,1.35-6.93-0.11-8.96-3.32c-1.22-1.94-2.96-3.47-4.33-5.32
		c-2.38-3.21-5.08-6.25-6.88-9.84c-3.69-7.34-6.93-14.95-10.23-22.53c-1.39-3.19-2.45-6.57-3.65-9.86
		c-2.07-5.67-4.14-11.35-6.21-17.02C463.2,646.69,462.99,645.98,462.73,645.18z M629.92,648.08c-2.01-2.82-4.03-2.21-5.48-0.39
		c-7.07,8.88-17.37,11.65-26.42,16.24c-10.18,5.17-21.37,7.63-32.96,8.43c-12.38,0.86-24.65,2.38-37.09,1.06
		c-8.44-0.9-16.97-1.41-25.44-1.17c-5.92,0.17-11.08-1.54-16.25-4.23c-1.36-0.71-2.95-0.86-4.87-1.39
		c3.3,8.64,5.75,16.75,9.44,24.11c2.47,4.93,6.68,8.79,10.18,13.07c0.26,0.31,1.04,0.18,1.56,0.12c12.74-1.45,25.5-2.07,38.26-0.52
		c9.54,1.16,18.83-0.16,28.19-2.07c7.54-1.54,15.21-2.3,22.84-3.24c7.42-0.91,14.86-1.61,22.98-2.47
		C612.75,676.41,620.08,661.65,629.92,648.08z"/>
	<path d="M494.38,360.52c-5.57,2.83-10.13,5.62-14.97,7.49c-5.95,2.3-12.07,4.21-18.25,5.59c-3.88,0.87-8,0.82-11.99,0.58
		c-6-0.36-10.8-5.02-11.78-11.54c-0.38-2.49,0.14-5.34,0.89-7.79c0.8-2.62,4.94-2.9,7.2-1.09c2.13,1.71,4.47,3.09,7.65,5.25
		c1.57,6.45,2.52,6.84,10.01,4.05c3.77-1.41,7.83-1.88,11.6-3.3c3.19-1.19,6.32-2.82,9.18-4.8c8.43-5.84,17.13-10.97,27.02-12.76
		c1.56-0.28,3.99,1.35,5.03,2.91c0.64,0.95-0.12,3.9-1.09,5.17c-2.5,3.27-5.7,5.88-8.16,9.18c-2.76,3.69-5.01,7.84-7.48,11.79
		c0.34,0.52,0.67,1.05,1.01,1.57c1.88-0.73,3.79-1.37,5.64-2.2c5.27-2.36,10.42-5.09,15.78-7.12c5.74-2.18,11.82-3.31,17.49-5.68
		c5.51-2.3,10.6-5.84,16.05-8.38c5.49-2.55,11.24-4.42,16.8-6.81c2.79-1.2,5.34-3.07,8.11-4.29c1.42-0.63,3.16-0.82,4.68-0.61
		c1.48,0.21,2.88,1.18,4.32,1.82c-0.76,2.01-1.02,4.89-2.38,5.87c-4.7,3.36-9.35,6.81-15.44,7.15c-3.02,0.17-6.17,2.41-8.82,4.42
		c-3.44,2.61-6.54,5.33-11.07,5.42c-1.82,0.04-3.52,2.31-5.44,2.99c-8.14,2.87-16.76,4.54-24.43,8.51c-10.34,5.35-22.3,6.98-31,16.2
		c-1.86,1.97-8.5,1.42-10.14-0.61c-2.85-3.52-2.49-6.35,0.82-10.33c3.96-4.76,7.72-9.73,11.49-14.69
		C493.35,363.64,493.6,362.41,494.38,360.52z"/>
	<path d="M666.79,406.35c2.37-5,4.48-10.19,7.21-14.94c1.56-2.71,4.06-4.79,6.3-6.94c0.47-0.45,2.02-0.35,2.45,0.15
		c0.93,1.08,2,2.56,2.05,3.93c0.29,7.83,0.49,15.68,0.35,23.51c-0.23,12.86-0.85,25.72-1.09,38.58c-0.08,4.53,0.47,9.08,0.77,13.61
		c0.21,3.19,1.23,6.62,0.49,9.5c-0.6,2.3-3.24,5.36-5.09,5.47c-2.07,0.12-5.78-2.38-6.13-4.34c-0.92-5.08-1.04-10.33-0.03-15.8
		c0.94-5.14,3.76-9.98,2.11-16.02c-1.14-4.18,0.36-9.17,0.12-13.77c-0.27-5.2-1.16-10.36-1.93-16.79c-4.8,6.43-9.6,4.52-13.39,0.82
		c-2.74-2.67-5.29-6.78-5.9-10.65c-0.94-5.93-0.62-12.27,0.05-18.31c0.65-5.93,1.87-11.96,3.83-17.51c2.1-5.93,5.05-11.59,8.3-16.86
		c0.99-1.61,4.64-2.69,6.3-1.93c2.06,0.95,2.1,3.73,0.5,6.54c-2.94,5.16-6.13,10.51-7.56,16.28c-1.88,7.62-2.46,15.69-3,23.62
		c-0.26,3.83,0.86,7.78,1.35,11.67C665.48,406.26,666.14,406.3,666.79,406.35z"/>
	<path d="M571.45,616.4c-2.98,3.78-5.7,7.35-8.59,10.74c-0.43,0.5-1.68,0.06-2.53,0.21c-3.74,0.66-7.52,2.14-11.19,1.87
		c-4.18-0.3-8.43-1.71-12.35-3.47c-2.85-1.28-5-0.93-7.22,0.88c-6.4,5.21-15.12,2.84-18.42-4.93c-0.72-1.69-2.17-2.98-2.94-4.66
		c-2.3-5.07,0.02-9.36,2.26-13.53c0.38-0.72,2.03-1.5,2.33-1.22c2.34,2.14,4.49,4.53,7.08,7.24c-2.05,1.39-3.07,2.08-4.8,3.25
		c1.46,2.18,2.54,4.77,4.37,6.13c0.93,0.69,3.96-0.27,4.73-1.5c2.78-4.42,5.8-5.72,10.04-3.37c0.73,0.41,1.61,0.69,2.14,1.32
		c5.05,5.91,11.69,5.04,17.93,4.7c2.42-0.13,5.25-2.2,6.98-4.31c2.46-2.99,3.95-6.94,6.16-10.23c0.7-1.04,2.65-2.13,3.52-1.75
		c2.21,0.96,4.32,2.5,6.14,4.23c2.31,2.2,4.6,3.32,7.76,4.02c6.26,1.38,11.97,0.89,17.75-1.7c1.49-0.67,3.38-0.36,4.78-1.16
		c3.63-2.08,5.14-5.46,4.57-10.13c-0.16-1.29,0.97-2.78,1.51-4.18c1.23,0.92,3.16,1.55,3.57,2.8c3.1,9.41,3.85,17.18-7.47,20.87
		c-5.29,1.72-10.72,3.23-16.18,3.97C585.56,623.58,578.15,621.5,571.45,616.4z"/>
	<path d="M632.52,619.55c7.08-2.3,16.03,3.99,16.55,11.37c0.11,1.53-1.93,3.53-3.37,4.75c-0.45,0.38-2.48-0.79-3.26-1.77
		c-2.72-3.42-5.23-7.05-7.78-10.65C633.93,622.22,633.38,621.05,632.52,619.55z"/>
	<path d="M476.2,532.77c-2.99,0.72-7,1.88-11.07,2.6c-3.34,0.59-6.75,0.82-10.13,0.85c-0.72,0.01-2.02-1.5-2.05-2.35
		c-0.05-1.5,0.25-3.55,1.15-4.44c1.36-1.36,3.3-2.15,5.1-2.78c3.57-1.24,7.17-2.53,10.85-3.18c2.97-0.52,6.18-0.7,9.09-0.03
		c5.02,1.16,9.94,2.95,14.8,4.77c1.89,0.71,3.7,2.03,5.24,3.48c0.89,0.83,1.18,2.46,1.74,3.73c-1.37,0.71-2.84,2.2-4.08,1.99
		c-3.99-0.67-7.88-2.03-11.84-2.99C482.51,533.82,479.97,533.46,476.2,532.77z"/>
	<path d="M464.28,511.45c1.2-0.91,3.42-2.6,5.64-4.27c3.9-2.92,7.68-6.07,11.78-8.6c1.07-0.66,3.64,0.1,4.55,1.19
		c0.7,0.85,0.48,3.95-0.36,4.85c-4.96,5.3-10.16,10.32-17.05,12.49c-2.72,0.86-5.3,2.23-7.96,3.32c-2.74,1.12-4.08,0.14-3.37-3.16
		C458.17,514.21,458.68,510.77,464.28,511.45z"/>
	<path d="M627.58,511.77c-1.03,1.85-1.84,3.36-2.71,4.83c-0.34,0.58-0.79,1.46-1.25,1.51c-7.68,0.89-13.58,5.17-19.03,11.04
		c-1.42,1.53-4.5,4.75-7.38,1.12c-2.13-2.68-1.83-6.36,1.62-8.99c6.42-4.89,13.07-9.48,19.9-13.62
		C622.65,505.3,624.85,506.73,627.58,511.77z"/>
	<path d="M612.28,476.92c4.78,1.54,8.43,2.12,11.55,3.86c5.19,2.89,10.12,6.39,14.97,9.95c1.03,0.75,1.27,2.82,1.87,4.28
		c-1.79,0.58-3.81,2.05-5.32,1.56c-4.1-1.32-7.93-3.6-11.96-5.24c-3.24-1.32-6.9-1.69-9.84-3.53c-2.23-1.39-4.01-4.23-5.13-6.88
		C608.15,480.3,611.33,477.87,612.28,476.92z"/>
</g>
</svg>
