<?xml version="1.0" encoding="utf-8"?>
<!-- Generator: Adobe Illustrator 24.1.2, SVG Export Plug-In . SVG Version: 6.00 Build 0)  -->
<svg version="1.1" id="Camada_1" xmlns="http://www.w3.org/2000/svg" xmlns:xlink="http://www.w3.org/1999/xlink" x="0px" y="0px"
	 viewBox="0 0 1080 1080" style="enable-background:new 0 0 1080 1080;" xml:space="preserve">
<style type="text/css">
	.st0{fill:#FFFFFF;}
</style>
<g>
	<path d="M456.42,774.96c-0.7,1.24-1.26,2.6-2.14,3.71c-2.4,3.06-6.68,2.37-8.09-1.28c-0.71-1.82-1.18-3.71-0.12-5.62
		c1.32-2.37,1.26-4.85,0.88-7.5c-0.43-3.01-0.32-6.1-0.52-9.14c-0.29-4.49-0.11-9-1.21-13.44c-0.73-2.94,0.16-6.13-1.11-9.04
		c-0.25-0.58-0.15-1.45-0.55-1.81c-2.01-1.77-1.76-4-1.51-6.26c0.33-2.98-0.7-5.74-1.43-8.55c-0.42-1.63-0.45-3.14,0.63-4.6
		c0.97-1.32,2.11-1.95,3.73-1.56c0.75,0.18,1.48,0.4,2.55,0.69c-0.15-2.51-1.28-4.28-2.29-6.01c-1.45-2.47-1.98-5.06-1.92-7.87
		c0.06-2.54,0.01-5.09,0.01-7.69c-1.78,0.1-3.35,0.18-5.16,0.28c-1.54,2.45-3.54,4.64-6.52,5.87c-1.37,0.56-2.73,0.8-4.12,1.15
		c-5.58,1.37-11.24,0.44-16.85,0.85c-4.22,0.31-8.45-0.4-12.43-1.66c-4.28-1.35-8.33-3.39-12.5-5.08c-2.54-1.03-4.92-2.19-7.1-3.96
		c-1.96-1.6-4.37-2.69-6.66-3.85c-6.23-3.17-11.25-7.98-16.7-12.19c-2.42-1.87-4.56-4.1-6.88-6.11c-1.6-1.38-3-2.83-3.98-4.79
		c-0.68-1.35-2.23-2.24-3.05-3.55c-3.42-5.48-6.7-11.04-6.02-17.93c0.07-0.73-0.24-1.62-0.66-2.25c-1.33-2.01-2.9-3.85-4.16-5.89
		c-1.33-2.17-2.67-4.4-3.53-6.78c-1.36-3.75-2.96-7.5-2.84-11.64c0.02-0.64-0.03-1.33-0.26-1.91c-1.7-4.15-1.04-8.51-1.23-12.8
		c-0.06-1.28-0.26-2.56-0.36-3.84c-0.57-7.09,1.39-13.47,6.04-18.79c7.38-8.46,16.7-10.99,27.52-8.17c1.09,0.28,2.18,0.54,3.26,0.86
		c1.54,0.45,3.15,0.76,4.57,1.46c5.06,2.52,10.27,4.6,15.73,6.12c3.86,1.07,7.66,2.36,11.43,3.72c2.1,0.76,3.77,0.07,5.65-1.04
		c0.83-2.1,1.95-4.29,2.54-6.6c0.5-1.99,0.4-4.13,0.57-6.2c0.19-2.24,0.44-4.47,0.6-6.71c0.06-0.95-0.05-1.92-0.1-2.87
		c-0.04-0.8-0.2-1.62-0.12-2.4c0.09-0.85,0.62-1.6,1.54-1.52c0.51,0.04,1.21,0.53,1.43,1c0.47,1.01,0.88,2.13,0.96,3.23
		c0.41,5.38,2.5,10.35,3.82,15.49c0.73,2.84,1.2,5.29-0.9,7.67c-0.4,0.46-0.59,1.15-0.77,1.76c-1.67,5.93-6.48,7.6-11.73,8.58
		c-0.89,0.17-2.01-0.07-2.82-0.5c-4.49-2.37-9.56-2.94-14.24-4.65c-5.14-1.88-10.17-4.07-15.31-5.93
		c-3.78-1.37-7.62-2.65-11.52-3.57c-1.79-0.42-3.88-0.22-5.68,0.26c-4.81,1.29-8.71,4.01-11.65,8.12c-1.6,2.24-1.89,4.83-1.99,7.37
		c-0.17,4.33-0.11,8.68,0.1,13.02c0.43,8.8,2.79,17.01,7.89,24.31c0.44-0.23,0.86-0.3,0.99-0.53c2.86-5.06,7.71-8.12,11.99-11.7
		c2.34-1.95,5.23-3.21,8.27-3.86c4.4-0.93,8.07,1.25,9.28,5.57c0.38,1.36,0.42,2.84,0.49,4.27c0.15,3.21,0.48,6.44,0.24,9.63
		c-0.33,4.43-1.94,8.48-5.19,11.69c-2.12,2.09-4.57,3.55-7.65,3.71c-0.97,0.05-1.97,0.07-2.88,0.33c-2.4,0.69-4.74,0.88-7.06-0.25
		c-0.21-0.1-0.59,0.13-0.9,0.21c-0.78,0.84-0.68,1.8-0.12,2.63c0.64,0.93,1.48,1.71,2.21,2.57c0.83,0.98,1.81,1.88,2.44,2.98
		c2.2,3.88,5.51,6.86,8.9,9.41c4.34,3.28,8.56,6.74,12.98,9.93c2.65,1.91,5.52,3.16,8.32,4.66c2.7,1.45,5.28,3.12,7.98,4.55
		c1.42,0.75,2.97,1.29,4.52,1.71c1.74,0.47,3.29,1.19,4.84,2.1c2.37,1.38,4.9,2.28,7.81,2.19c4.67-0.15,9.35,0.06,14.02,0.09
		c0.97,0.01,1.96,0.03,2.9-0.15c2.06-0.38,4.37-0.43,6.07-1.46c1.67-1,2.71-3.05,4.05-4.66c-0.56-2.32-0.92-4.56-1.66-6.66
		c-1.52-4.32-1.61-8.84-2.05-13.3c-0.26-2.57-0.23-5.1-2.2-7.2c-1.19-1.27-1.2-3.05-0.54-4.59c1.77-4.17,1.41-8.53,1.45-12.88
		c0.02-2.25,0.12-4.52,0.33-6.76c0.21-2.29,1.34-3.06,3.61-2.56c0.55,0.12,1.05,0.49,1.69,0.8c1.35-2.27,1.89-4.4,1.97-6.7
		c0.09-2.41,0.3-4.81,0.47-7.21c0.46-6.79,2.19-13.33,4.14-19.81c0.27-0.9,0.8-1.73,1.18-2.6c0.44-1.02,0.91-2.03,1.24-3.08
		c0.68-2.14,1.42-4.28,1.89-6.47c0.44-2.04,1.74-3.44,3.07-4.83c1.71-1.78,4.71-1.14,5.41,1.21c0.31,1.03,0.4,2.29,0.09,3.29
		c-1.44,4.61-1.72,9.55-4.14,13.89c-0.51,0.91-0.38,2.18-0.55,3.32c0.53,0.29,0.94,0.52,1.35,0.73c2.52,1.3,2.66,1.56,2.27,4.04
		c-0.1,0.64-0.15,1.3-0.36,1.9c-2.02,5.78-3.75,11.69-6.21,17.28c-1.46,3.32-2.18,6.72-2.83,10.17c-0.51,2.68-0.55,5.44-0.82,8.17
		c-0.32,3.27-0.89,3.72-4.66,3.74c-0.14,0-0.28,0.16-0.67,0.39c-0.1,0.39-0.43,1.01-0.37,1.58c0.82,8,1.45,16.04,2.66,23.99
		c0.59,3.89,1.21,7.94,3.23,11.64c1.79-2.93,2.12-5.32,1.29-9.02c-0.25-1.1-0.47-2.21-0.86-3.26c-1.53-4.11-1.37-8.5-2.04-12.75
		c-0.27-1.69,0.08-3.53,0.39-5.26c0.27-1.48,1.76-2.34,3.29-2.25c1.31,0.08,2.4,0.96,2.66,2.41c0.68,3.81,1.26,7.63,1.88,11.45
		c0.27,1.7,0.42,3.46,2,5.09c1.14-2.85,2.36-5.27,3.05-7.83c0.76-2.83,1.57-5.56,3.52-7.62c-0.48-3.06-0.93-5.89-1.38-8.75
		c-0.75,0.3-1.61,0.7-2.51,1c-2.42,0.79-3.49,0.2-4.36-2.31c-0.82-2.38-0.48-4.8-0.21-7.19c1.01-9.12,2.28-18.2,3.87-27.24
		c0.67-3.82,1.41-7.62,2.99-11.2c0.4-0.9,0.93-1.66,2.02-1.89c1.69-0.35,2.85,0.16,3.51,1.76c0.56,1.35,0.83,2.7,0.65,4.23
		c-0.78,6.72-1.67,13.42-3.27,20.01c-0.3,1.25-0.74,2.5,0.42,3.99c0.49-0.67,1.1-1.2,1.32-1.85c1.92-5.81,3.84-11.63,5.62-17.49
		c0.49-1.63,1.2-3,2.57-3.96c0.64-0.44,1.42-0.79,2.18-0.94c2.54-0.47,4.54,1.85,3.45,4.17c-1.26,2.67-1.71,5.49-2.33,8.32
		c-0.8,3.59-2.14,7.07-3.21,10.6c-0.31,1.03-0.51,2.1-0.77,3.21c0.62,0,1.1,0.09,1.15-0.01c1.41-3.23,4.7-4.72,6.86-7.29
		c1.15-1.37,2.24-2.66,3-4.26c1.24-2.62,2.53-5.22,3.82-7.81c0.54-1.08,1.38-1.74,2.64-1.86c1.73-0.16,2.82,0.62,3.06,2.3
		c0.29,2.11,0.11,4.13-0.65,6.18c-2.12,5.74-4.25,11.49-6.03,17.34c-1.73,5.68-3.82,11.29-4.55,17.24
		c-0.12,0.95-0.49,1.87-0.79,2.79c-0.86,2.61-1.42,5.26-1.76,8.01c-0.45,3.67-1.33,7.28-1.97,10.93c-0.79,4.58-0.24,9.2-0.82,13.76
		c1.48,0.19,1.95-0.48,2.21-1.25c1.94-5.85,5.1-11.08,8.16-16.36c0.32-0.56,0.67-1.14,0.81-1.75c1.28-5.96,4.87-10.84,7.54-16.15
		c1.66-3.3,3.66-6.44,5.56-9.62c0.62-1.04,1.62-1.7,2.85-1.37c0.72,0.19,1.5,0.67,1.93,1.25c0.65,0.89,1.02,1.98,1.64,3.26
		c0.72-0.43,1.64-0.74,2.22-1.37c2.22-2.43,5.12-2.51,8.04-2.41c2.52,0.09,3.89,1.23,4.49,3.64c0.27,1.08,0.41,2.24,0.36,3.35
		c-0.24,4.83-0.57,9.66-0.87,14.51c0.12,0.26,0.21,0.58,0.4,0.82c2.3,2.96,2.26,3.07,0.56,5.87c-2.5,4.13-4.99,8.27-7.31,12.5
		c-0.91,1.66-1.33,3.58-2,5.44c0.89,0.74,1.39-0.29,1.95-0.66c1.75-1.16,3.44-2.39,5.12-3.65c0.63-0.47,1.27-1,1.7-1.63
		c3.31-4.87,6.13-7.49,11.08-10.06c0-1.44,0.05-3.04-0.01-4.64c-0.18-4.68,0.72-9.28,0.92-13.93c0.01-0.32-0.01-0.66,0.09-0.96
		c2.07-6.3,4.61-12.35,9.39-17.18c1.01-1.03,1.97-2.11,2.93-3.19c1.06-1.19,2.08-2.42,3.15-3.61c0.53-0.59,1.35-1.03,1.65-1.72
		c0.82-1.86,2.29-3.07,3.73-4.37c1.19-1.08,2.05-2.52,3.26-3.56c1.17-1,2.59-1.7,4.18-2.71c-6.24-1.33-6.04-1.43-8.88-7.22
		c-1.52-3.1-1.83-6.47-3.04-9.6c-0.17-0.43-0.13-0.96-0.12-1.43c0.11-3.87,0.23-7.74,0.39-11.61c0.03-0.79,0.09-1.65,0.42-2.34
		c2.37-4.94,4.5-10.02,7.89-14.41c2.93-3.79,8.62-5.98,13.27-5.23c2.59,0.42,3.91,2.19,4.82,4.3c0.88,2.03-0.09,3.81-1.48,5.27
		c-0.75,0.78-1.75,1.32-2.66,1.98c-1.32-0.66-2.45-1.22-3.5-1.75c-8.31,3.63-12.67,24-6.36,31.92c2.38,0.42,4.89,0.02,7.38-0.6
		c0.94-0.23,1.86-0.54,2.78-0.84c3.36-1.11,6.7-2.02,10.31-2.25c3.97-0.26,7.88-1.43,11.84-2.09c4.43-0.74,8.89-1.34,13.33-2.02
		c0.95-0.14,1.98-0.18,2.8-0.61c2.06-1.08,4.39-0.94,6.49-1.64c2.22-0.74,4.39-0.94,6.67-0.8c0.47,0.03,1,0.03,1.43-0.15
		c4.66-2,9.58-2.57,14.57-2.8c0.32-0.01,0.66-0.03,0.96-0.14c2.72-1.07,5.55-1.6,8.46-1.92c2.37-0.26,3.34-1.33,3.98-3.99
		c1.35-5.6,0.94-11.19,1.15-16.81c0.19-5.16-0.73-10.3-0.02-15.44c0.06-0.47,0.05-1.01-0.12-1.43c-1.01-2.51-0.74-5.12-0.43-7.67
		c0.6-4.98-0.03-9.98,0.36-14.96c0.09-1.11-0.07-2.25-0.25-3.35c-0.34-2.07-0.95-4.11-1.13-6.19c-0.44-4.92-2.34-9.3-4.47-13.66
		c-1.63-3.33-2.99-6.8-4.54-10.17c-0.53-1.16-1.14-2.36-1.99-3.28c-2.53-2.75-4.73-5.71-6.6-8.93c-1.67-2.87-4.54-4.55-6.75-6.88
		c-1.22-1.28-2.6-2.43-3.68-3.82c-1.11-1.43-2.42-2.45-3.9-3.49c-6.49-4.56-13.35-3.82-20.32-1.73c-3.57,1.07-6.7,3.13-9.81,5.08
		c-3.03,1.89-5.04,4.95-6.76,8.05c-0.58,1.05-0.6,2.53-0.52,3.79c0.12,1.9-0.65,3.43-1.45,5.03c-0.58,1.15-1.38,1.71-2.68,1.63
		c-1.41-0.08-2.47-0.56-2.99-2c-1.99-5.54-1.35-10.76,1.83-15.69c0.35-0.54,0.76-1.05,1.11-1.59c0.07-0.11,0.03-0.3,0.06-0.76
		c-0.86-0.41-1.9-0.75-2.75-1.37c-0.9-0.65-1.62-1.56-2.42-2.36c-1.68-1.66-2.07-3.65-1.21-5.79c0.67-1.67,1.3-3.29,0.83-5.23
		c-0.32-0.25-0.73-0.49-1.05-0.83c-1.76-1.88-4.83-2.53-5.77-4.99c-2-5.23-5.1-10.11-5.16-16.01c-0.03-2.76,0.44-5.1,2.75-6.85
		c1.15-0.88,2.15-1.97,3.33-2.8c2.49-1.75,5.02-3.46,7.61-5.05c1.21-0.75,2.6-1.23,3.94-1.76c0.9-0.36,1.89-0.5,2.77-0.89
		c6.45-2.86,13.37-3.55,20.26-4.03c4.96-0.34,9.97-0.7,14.94,0.31c1.01,0.21,2.13-0.13,3.52-0.24c0.1-2.51,0.3-4.74,0.24-6.96
		c-0.07-2.41-0.27-4.84-0.65-7.22c-0.25-1.57-0.75-3.16-1.44-4.59c-1.59-3.28-3.73-5.93-7.73-6.54c-2.22-0.34-4.36-0.94-6.66-1.06
		c-4.48-0.24-8.97-0.71-13.41-1.38c-2.2-0.33-4.38-1.14-6.41-2.07c-3.2-1.47-5.23-3.97-6.32-7.44c-1.28-4.07-1.47-8.14-1.66-12.36
		c-0.22-5.19,0.43-10.31,0.45-15.47c0.01-3.19,0.66-6.39,1.07-9.58c0.2-1.55,1.16-2.62,2.4-3.48c0.99-0.69,2.01-0.96,3.19-0.46
		c1.36,0.58,2.07,1.66,2,3.03c-0.14,2.71-0.47,5.42-0.74,8.13c-0.1,0.95-0.37,1.91-0.35,2.86c0.16,7.25-0.34,14.51,0.37,21.76
		c0.29,3.01,1.53,4.83,4.3,5.69c2.15,0.67,4.27,1.25,6.61,1.23c3.21-0.02,6.42,0.48,9.63,0.75c0.96,0.08,1.93,0.21,2.89,0.18
		c4.04-0.11,7.57,1.3,10.8,3.59c1.05,0.75,1.99,1.66,3.07,2.37c1.98,1.31,3.13,3.14,3.86,5.36c0.45,1.36,0.98,2.76,1.77,3.94
		c1.42,2.12,1.91,4.42,1.93,6.88c0.04,6.62,0.06,13.24,0.06,19.86c0,0.96-0.27,1.92-0.33,2.88c-0.11,1.76-0.24,3.52-0.22,5.27
		c0.05,4.52-1.18,8.28-5.74,10.18c-1.48,0.62-2.97,1.21-4.48,1.76c-1.36,0.49-2.88,0.68-4.11,1.39c-3.9,2.26-8.19,2.69-12.52,3.24
		c-4.15,0.53-8.26,1.41-12.4,2.11c-1.69,0.28-3,1.12-4.11,2.62c0.02,2.06,1.32,3.8,1.97,5.75c0.64,1.95,0.95,4,1.45,6.19
		c3.41-1.32,6.71-2.55,9.99-3.86c2.88-1.15,5.74-2.17,8.91-1.26c0.59,0.17,1.29,0.13,1.91,0.04c4.34-0.62,8.26,0.59,12.02,2.63
		c1.13,0.61,2.33,1.12,3.44,1.77c0.97,0.57,2.18,1.07,2.72,1.95c1.48,2.43,3.7,4.02,5.82,5.74c1.99,1.62,3.32,3.84,5.43,5.44
		c1.85,1.4,3.02,3.73,4.44,5.68c1.34,1.82,2.6,3.7,3.94,5.52c0.76,1.03,1.64,1.96,2.41,2.98c0.56,0.75,1.29,1.51,1.5,2.37
		c1.06,4.45,3.41,8.31,5.42,12.33c2.17,4.33,3.84,8.7,4.56,13.62c0.67,4.62,1.06,9.26,1.61,13.88c0.31,2.53,0.2,5.11,0.23,7.66
		c0.06,5.16,0.44,10.34,0.03,15.47c-0.52,6.45,0.78,12.91-0.44,19.31c1.01,7.11-1.2,14.07-0.95,21.16c0.15,4.27-2.84,6.42-6.99,5.7
		c-3.84-0.66-7.65-0.64-11.47,0.44c-2.31,0.65-4.71,1.1-7.09,1.33c-2.75,0.27-5.39,0.75-7.92,1.91c-1.02,0.46-2.14,0.8-3.25,0.91
		c-4.3,0.41-8.6,0.68-12.68,2.37c-0.99,0.41-2.24,0.2-3.36,0.31c-5.91,0.6-11.65,2.36-17.62,2.57c-5.96,2.19-12.3,2.41-18.46,3.61
		c-0.44,0.09-0.83,0.42-1.49,0.78c0.43,0.71,0.93,1.29,1.18,1.97c0.77,2.12,0.29,3.93-1.57,5.07c-1.63,1-3.39,1.85-5.19,2.48
		c-2.48,0.87-4.51,2.03-6.35,4.1c-2.68,3.02-5.47,5.89-7.62,9.34c-0.76,1.22-1.79,2.31-2.85,3.28c-4.72,4.29-7.43,9.52-8.03,15.93
		c-0.21,2.22-0.6,4.35-0.27,6.63c0.27,1.86-0.24,3.82-0.42,6.03c0.91,0.89,2.08,1.79,2.92,2.92c0.72,0.96,1.06,2.19,1.61,3.39
		c5.79-4.35,10.04-9.8,14.55-14.97c3.48-4,5.14-8.89,5.74-14.14c0.09-0.8,0.04-1.63,0.22-2.41c0.59-2.52,3.31-4.28,5.93-3.8
		c0.58,0.11,1.29,0.46,1.61,0.93c0.98,1.45,1.84,2.84,1.64,4.88c-0.31,3.03-0.63,6.04-1.12,9.06c-0.39,2.44,0.23,5.09,0.66,7.6
		c0.14,0.83,1.01,1.63,1.71,2.24c1.23,1.07,2.71,1.15,4.04,0.27c1.64-1.07,3.11-2.36,3.89-4.22c1.12-2.68,2.33-5.35,3.16-8.12
		c0.45-1.49,0.5-3.24,0.2-4.78c-1.03-5.3-0.37-10.64-0.51-15.95c-0.06-2.4,1.95-4.49,4.04-4.62c3.13-0.2,5.35,1.22,5.55,4.08
		c0.18,2.54,0.81,5.07,0.32,7.67c-0.23,1.24-0.07,2.57-0.02,3.85c0.16,4.22,3.19,6.18,6.46,7.68c1.66,0.76,3.44-0.03,4.96-1.16
		c2.55-1.9,4.18-4.55,5.47-7.28c1.98-4.19,4.08-8.34,4.28-13.22c0.14-3.54,3.6-5.56,6.99-4.48c1.51,0.48,2.98,1.22,4.32,2.07
		c7.6,4.81,15.84,7.85,24.74,9.07c1.54,0.21,3.59,0.78,4.43-0.84c1.04-1.99-1.06-3.17-2.21-4.37c-2.78-2.92-5.75-5.64-8.58-8.51
		c-1.01-1.03-1.83-2.25-2.74-3.38c-1.25-1.56-0.5-4.26,1.3-6.14c1.29-1.35,4.05-1.27,5.76,0.18c0.98,0.84,1.82,1.83,2.76,2.73
		c2.79,2.67,5.55,5.37,8.41,7.97c2.67,2.44,5.79,4.01,9.69,4.53c0.5-1.25,1.02-2.39,1.41-3.57c0.59-1.8,1.82-3.06,3.38-3.95
		c0.99-0.57,2.17-0.76,3.2,0.05c0.84,0.67,1.02,1.59,0.76,2.62c-0.16,0.63-0.27,1.26-0.41,1.89c-0.28,1.24,0.14,2.2,1.13,2.97
		c0.78,0.61,1.56,1.21,2.61,0.79c1.06-0.42,1.27-1.38,1.3-2.38c0.12-4.39-1.37-8.16-4.36-11.38c-1.75-1.89-3.37-3.91-5.08-5.84
		c-0.4-0.45-0.95-1.05-1.45-1.06c-3.4-0.09-3.39-2.88-4.05-5.07c-0.15-0.51,0.12-1.39,0.52-1.77c1.54-1.49,3.26-2.64,5.61-1.87
		c3.3,1.09,6.16,2.83,8.24,5.65c2.86,3.87,5.61,7.83,8.01,12.01c0.47,0.81,0.77,1.78,0.9,2.72c0.65,4.48,0.49,8.94-0.67,13.58
		c1.22,1.46,2.96,2.23,4.84,2.73c1.58,0.42,3.06,0.92,4.27,2.12c0.55,0.54,1.35,0.96,2.1,1.12c3.09,0.69,5.59,2.55,8.07,4.26
		c4.76,3.3,9.35,6.86,13.9,10.45c1.49,1.17,2.62,2.79,3.92,4.21c7.62,8.29,11.9,17.81,11.12,29.33c-0.28,4.21-2.43,6.93-5.91,8.73
		c-1.53,0.79-3.37,1.29-5.09,1.36c-3.37,0.14-6.75-0.14-10.13-0.19c-0.93-0.01-1.87,0.16-2.81,0.23c-0.63,0.05-1.34,0.27-1.89,0.07
		c-2.79-1.02-5.78-0.65-8.59-1.22c-4.71-0.95-9.39-2.14-13.98-3.59c-0.72-0.23-1.44-0.44-2.31-0.71c-0.51,1.8,0.16,3.14,0.7,4.41
		c1.3,3,1.99,6.07,2.02,9.36c0.02,2.9,0.2,5.83,0.67,8.69c0.98,5.99-1.49,11.07-4.01,16.11c-0.76,1.53-2.14,2.81-3.44,3.99
		c-4.33,3.94-8.9,7.11-15.21,7.48c-4.7,0.28-8.93-0.79-13.22-2.16c-0.88-0.28-1.65-0.96-2.41-1.54c-1.92-1.45-3.78-2.99-5.72-4.41
		c-0.74-0.54-1.65-0.86-2.86-1.47c0,4.29-0.06,8.1,0.02,11.92c0.08,4.21-1.09,7.65-4.18,10.86c-2.77,2.87-5.81,5.05-9.26,6.78
		c-1.21,0.61-2.26,1.2-2.87,2.4c-2.17,4.29-4.73,8.39-5.62,13.27c-0.6,3.3-1.81,6.48-2.69,9.73c-0.38,1.39-0.83,2.81-0.88,4.23
		c-0.24,5.81-1.66,11.47-2.02,17.25c-0.17,2.77-1.79,4.48-4.03,5.58c-2.01,0.98-4.18,1.67-6.34,2.29c-2.95,0.84-5.91,1.62-8.6,3.17
		c-0.42,0.24-0.85,0.55-1.31,0.61c-5.05,0.62-9.45,3.1-14.14,4.76c-1.36,0.48-2.8,0.93-4.22,1.03c-5.44,0.38-10.8,1.65-16.36,0.9
		c-3.3-0.44-6.74,0.08-10.12,0.27c-3.08,0.17-6.09,0.15-9.11-0.72c-1.68-0.49-3.5-0.54-5.26-0.63c-4.42-0.22-8.32-2.31-12.51-3.38
		c-0.62-0.16-1.24-0.42-1.78-0.76c-5.47-3.48-11.72-5.33-17.36-8.45c-0.83-0.46-1.65-0.96-2.43-1.5c-3.06-2.1-6.17-4.12-9.13-6.35
		c-5.27-3.97-11.16-7.07-15.76-11.98c-1.94-2.07-4.68-3.4-7.05-5.08c-0.65-0.46-1.57-0.8-1.87-1.42c-1.34-2.87-4.35-3.77-6.44-5.72
		c-2.12-1.97-4.17-4.02-6.28-6.01C457.15,775.04,456.76,775.05,456.42,774.96z M626.82,636.57c-1.66,1.15-1.86,3.36-3.84,3.34
		c-2.05-0.02-2.77,1.41-3.48,2.87c-1.26,2.61-2.42,5.28-3.67,7.9c-3.48,7.3-13.61,11.99-21.23,6.93c-0.5-0.33-1.15-0.44-1.91-0.71
		c-0.38,0.69-0.71,1.21-0.96,1.76c-1.75,3.82-3.57,7.63-6.35,10.82c-4.36,5.01-8.66,6.02-13.76,4.22c-2.2-0.78-4.16-1.64-5.61-3.54
		c-0.84-1.11-1.91-2.04-3.12-3.31c-1.8,1.95-3.53,3.62-5.03,5.49c-2.84,3.54-6.16,6.58-9.66,9.44c-2,1.64-4.07,3.15-6.62,3.92
		c-1.71,0.51-3.13,1.46-4.1,3.17c-0.6,1.06-1.77,1.86-2.82,2.57c-1.69,1.16-3.47,0.62-4.49-1.16c-0.6-1.05-0.64-2.14-0.27-3.27
		c0.5-1.53,1.12-3.03,1.48-4.6c0.21-0.93,0-1.94-1.25-2.2c-3.04,2.48-5.8,5.15-6.38,9.3c-0.02,0.16-0.09,0.31-0.15,0.46
		c-0.46,1.14-1.31,1.83-2.51,2.04c-0.79,0.14-1.6,0.28-2.4,0.26c-1.26-0.03-2.11,0.53-2.88,1.47c-3.19,3.91-5.66,8.22-7.56,12.89
		c-0.56,1.39-0.84,2.73-0.74,4.22c0.29,4.33,0.46,8.67,0.76,13c0.19,2.68,1.43,4.94,3.19,6.91c1.18,1.32,2.78,1.06,3.44-0.61
		c0.9-2.27,1.55-4.68,0.92-7.09c-0.43-1.64-0.33-3.18-0.14-4.78c0.32-2.67,1.91-4.4,4.54-4.78c0.59-0.09,1.34,0.03,1.85,0.33
		c1.41,0.83,2.69,1.87,2.86,3.67c0.25,2.72,0.78,5.48,0.52,8.15c-0.23,2.36,0.21,4.46,0.8,6.63c0.83,3.03,2.83,5.39,4.4,8.01
		c3.5,5.85,7.43,11.3,12.91,15.49c0.63,0.48,1.21,1.08,1.68,1.73c1.8,2.52,4.05,4.53,6.51,6.41c5.44,4.14,5.88,4.36,12.49,5.79
		c4.43,0.96,8.29,0.09,11.76-3.06c0.34-3.17,1.32-6.46,0.87-9.54c-0.74-5.09-0.08-10.23-1.53-15.33
		c-1.44-5.06-1.56-10.49-2.43-15.73c-0.41-2.49,0.39-4.41,1.91-6.23c0.69-0.82,1.58-1.25,2.55-1.05c1.24,0.26,2.76,0.45,3.57,1.25
		c2.04,2.03,4.01,4.22,5.53,6.65c2.14,3.42,4.45,6.7,6.94,9.87c2.6,3.3,5.97,5.84,8.81,8.89c2.84,3.06,6.37,4.91,10,6.65
		c1.25,0.6,2.75,0.73,4.15,0.97c3.7,0.65,7.38,0.04,11.08-0.08c2.37-0.08,3.96-1.08,5.45-2.62c1.72-1.77,3.17-3.74,3.29-6.29
		c0.1-2.25,0.04-4.53-0.19-6.76c-0.48-4.63-0.77-9.32-3.52-13.39c-0.5-0.74-0.73-1.83-0.69-2.74c0.11-2.51,1.57-4.15,3.83-5.11
		c2.11-0.9,4.1-0.86,5.79,0.9c2.13,2.22,4.46,4.18,7.08,5.79c0.27,0.17,0.5,0.42,0.7,0.66c2.73,3.31,6.84,4.8,9.97,7.59
		c0.45,0.4,1.17,0.51,1.78,0.72c4.17,1.43,8.29,0.85,12.35-0.41c1.04-0.32,2.12-0.98,2.84-1.79c2.77-3.1,5.76-6.09,6.36-10.55
		c0.62-4.66-0.29-9.31,0-13.96c-1.81-3.96-1.99-8.46-4.19-12.32c-1.13-1.97-1.46-4.27-1.17-6.58c0.33-2.61,1.61-3.83,4.2-4.58
		c2.62-0.76,5.06-0.45,7.52,0.58c2.08,0.87,4.18,1.71,6.34,2.35c2.93,0.87,5.95,1.44,8.88,2.32c3.42,1.02,6.81,1.9,10.44,1.14
		c0.91-0.19,1.92,0.04,2.88,0.1c2.24,0.14,4.49,0.5,6.73,0.42c6.61-0.23,6.73-2.09,6.25-7.62c-0.42-4.84-2.34-9.44-5.4-13.3
		c-5.15-6.48-11.06-12.16-18.31-16.31c-2.35-1.35-4.56-2.96-6.94-4.25c-3.39-1.83-7.01-3.25-10.3-5.23
		c-3.82-2.31-7.75-3.74-12.26-3.99c-3.61-0.2-7.33,0.12-10.9-1.62c-0.66,1.44-1.19,2.59-1.72,3.73c-0.86,1.88-2.37,3.26-4.28,3.67
		c-2.49,0.54-5.16,1.05-7.64,0.72c-7.15-0.97-14.49-1.38-20.94-5.27C630.18,638.05,628.53,637.4,626.82,636.57z M466.62,770.83
		c1.63,2.32,2.95,4.56,5.69,5.35c0.58,0.17,1.14,0.66,1.53,1.15c2.17,2.71,5.26,4.23,7.94,6.28c1.4,1.07,2.73,2.22,4.05,3.39
		c2.04,1.81,3.76,4.2,6.11,5.38c3.47,1.75,6.45,4.16,9.66,6.22c4.86,3.11,8.96,7.39,14.67,9.16c0.3,0.09,0.58,0.28,0.86,0.45
		c5.61,3.62,11.73,5.98,18.23,7.38c3.62,0.78,7.34,1.17,10.89,2.2c1.77,0.51,3.48,0.91,5.19,0.58c3.52-0.7,7.03-0.51,10.57-0.53
		c4.98-0.02,9.96-0.39,14.93-0.68c0.94-0.06,1.95-0.31,2.78-0.75c4.48-2.36,9.45-3.17,14.19-4.72c1.22-0.4,2.5-0.75,3.56-1.42
		c1.83-1.16,3.79-1.77,5.88-2.11c1.9-0.31,3.82-0.57,5.59-1.98c0.69-5.18,1.37-10.44,2.1-15.69c0.18-1.27,0.46-2.53,0.75-3.78
		c1.08-4.7,3.31-9.06,4.14-13.83c0.31-1.79,0.98-3.38,1.93-4.91c1-1.61,2.03-3.28,1.69-5.62c-1.32-0.06-2.59-0.09-3.85-0.18
		c-1.27-0.09-2.67,0.05-3.79-0.42c-3.26-1.37-6.67-2.62-9.55-4.61c-4.48-3.09-8.3-7.04-12.21-10.84c-1.49-1.46-2.68-3.22-4.07-4.78
		c-0.43-0.48-1.09-0.76-1.69-1.15c0.22,4.33,0.43,8.34,0.64,12.34c0.06,1.13-0.02,2.29,0.24,3.38c1.05,4.38,0.55,8.55-0.85,12.82
		c-1.14,3.48-3.18,6.19-6.25,7.64c-7.92,3.72-15.95,3.25-23.79-0.51c-4.55-2.19-8.41-5.34-12.09-8.79
		c-5.77-5.41-11.42-10.87-15.88-17.48c-1.71-2.54-3.69-4.88-4.79-7.79c-0.22-0.58-0.67-1.11-1.11-1.57
		c-0.82-0.88-1.86-1.46-3.03-0.84c-2.48,1.32-5,0.77-7.56,0.41c-2.6-0.37-4.4-1.62-5.76-3.89c-2.2-3.65-3.55-7.58-4.62-11.66
		c-0.14-0.55-0.03-1.37-1.5-1.3c-0.45,2.63-0.78,5.83-4.9,5.74c-3.39-2.08-4.24-5.27-3.53-9.11c0.18-0.95,0.4-1.92,0.39-2.87
		c-0.04-5.76,1.65-11.13,3.73-16.38c2.19-5.51,4.07-11.14,6.77-16.43c3.14-6.15,5.66-12.65,10.56-17.79
		c1.06-1.11,2.14-2.48,1.96-4.29c-0.37-3.65-0.73-7.3-1.09-10.82c-1.73-0.72-2.78,0.04-3.66,1.04c-2.96,3.37-6.3,6.38-8.97,10.03
		c-2.37,3.25-5.08,6.24-6.97,9.85c-1.11,2.13-2.64,4.03-3.91,6.09c-0.84,1.35-1.59,2.77-2.29,4.2c-0.49,1-0.81,2.09-1.25,3.11
		c-1.15,2.66-2.36,5.29-3.47,7.97c-0.2,0.47-0.03,1.09-0.03,2.52c1.74-2.17,2.92-3.67,4.14-5.13c0.4-0.48,0.89-0.91,1.4-1.29
		c0.55-0.4,2.01,0.3,1.87,0.92c-0.57,2.66-0.78,5.53-1.99,7.88c-2.12,4.15-4.65,8.16-8.92,10.6c-0.54,0.31-0.97,0.79-1.01,0.82
		c-0.64,2.89-0.91,5.34-1.79,7.56c-0.53,1.34-2,2.31-3.17,3.57c0.46,0.46,0.81,1.06,1.34,1.31c3.24,1.58,5.87,3.95,8.6,6.23
		c3.95,3.29,7.86,6.64,13.02,8.12c2.75,0.79,4.91,2.65,5.37,5.7c0.32,2.05,0.43,4.17,0.3,6.24c-0.13,2.11-1.24,3.23-2.8,3.45
		c-2.04,0.28-3.53-0.41-4.44-2.14c-0.3-0.57-0.53-1.18-0.73-1.79c-0.8-2.5-2.6-3.97-4.9-5.02c-1.6-0.73-3.29-1.42-4.64-2.5
		c-3.78-3-8.11-5.31-11.27-9.08c-0.3-0.36-0.76-0.6-1.17-0.85c-2.87-1.77-5.74-3.55-8.64-5.3c-2.63-1.58-5.13-3.24-6.86-5.92
		c-1.09-1.69-2.44-3.29-4.7-4.36c0.94,5.44,1.57,10.55,2.74,15.54c1.52,6.47,2.1,12.98,2.03,19.58c-0.01,0.62,0.13,1.3,0.39,1.86
		c0.69,1.53,0.72,3.07,0.64,4.72c-0.08,1.57,0.27,3.17,0.43,4.84c3.42,1.79,6.71,3.49,9.96,5.24c0.39,0.21,0.64,0.68,1.07,1.16
		C467.35,768.78,467.04,769.67,466.62,770.83z M569.43,442.11c3.58,0.81,6.74,0.42,9.64-1.24c2.84-1.63,5.82-2.78,9.03-3.32
		c4.61-0.78,9.21-1.57,13.84-2.25c2.97-0.44,9.21-2.47,12.01-4.07c0.68-2.42,1.33-4.71,1.93-6.85c-0.96-1.98-2.52-2.61-4.43-2.67
		c-5.16-0.15-10.31-0.35-15.4,0.87c-1.71,0.41-3.49,0.73-5.24,0.76c-2.95,0.04-5.7,0.79-8.49,1.6c-4.57,1.33-8.44,3.84-12.19,6.62
		c-1.13,0.84-3.08,0.97-3.21,2.63c-0.13,1.54,0.29,3.19,0.73,4.71C567.96,439.96,568.73,440.88,569.43,442.11z M465.45,659.57
		c-0.45,0.41-0.78,0.57-0.87,0.81c-2.16,5.88-4.31,11.76-6.41,17.65c-0.54,1.5-0.87,3.08-1.35,4.6c-0.57,1.8-0.46,3.49,0.58,5.1
		c0.7,1.08,1.22,2.36,2.13,3.2c2.55,2.37,2.66,5.78,4.01,8.66c0.19,0.4,0.21,1.03,0.03,1.42c-0.32,0.68-0.75,1.44-1.35,1.79
		c-0.38,0.22-1.32-0.08-1.73-0.45c-1.76-1.58-3.41-3.28-5.17-5.01c-2.13,3.19-2.2,5.96,0.5,8.78c1.76,1.85,3.04,4.15,4.7,6.11
		c2.06,2.43,4.65,4.26,7.47,6c-0.1-4.73-1.32-9.26,1.22-13.47c0.31-0.51,0.26-1.25,0.32-1.89c0.19-2.38,0.36-4.75,0.54-7.13
		c-0.31-0.05-0.62-0.14-0.92-0.14c-5.14,0.07-6.99-1.47-6.59-6.44c0.41-5.13,0.08-10.33,1.2-15.41c0.63-2.82,1.16-5.67,1.67-8.52
		C465.75,663.43,465.89,661.58,465.45,659.57z M360.71,619.56c-2.76,1.37-4.83,2.94-6.87,4.82c-2.73,2.52-5.16,5.23-7.44,8.11
		c-1.04,1.31-0.75,2.33,0.51,3.25c2.56,1.88,5.47,1.4,8.33,1.44c1.6,0.02,2.71-0.66,3.78-1.76c1.64-1.69,2.64-3.63,2.68-5.99
		c0.04-2.73,0.02-5.46-0.06-8.19C361.62,620.83,361.2,620.43,360.71,619.56z M499.05,719.67c0.03-0.08,0.09-0.16,0.09-0.24
		c0.01-0.15-0.02-0.29-0.04-0.44c-0.04,0.08-0.1,0.16-0.11,0.24C499,719.37,499.03,719.52,499.05,719.67z"/>
	<path d="M546.05,287.55c2.25,0.73,4.31,0.08,6.39-0.01c3.21-0.13,6.42-0.01,9.63,0.05c6.93,0.14,13.84,0.51,20.69,1.55
		c1.59,0.24,3.24,0.49,4.71,1.1c7.59,3.14,15.58,5.08,23.11,8.46c5.29,2.38,10.12,5.51,15.3,8.02c2.6,1.26,4.99,2.96,7.6,4.18
		c4.65,2.17,8.14,5.75,11.66,9.28c4.33,4.33,8.27,8.97,10.71,14.71c0.82,1.94,2.21,3.37,4.05,4.62c2.39,1.62,4.41,3.78,7.24,4.74
		c0.15,0.05,0.34,0.11,0.43,0.22c2.93,3.97,7.74,5.79,10.84,9.56c0.31,0.37,0.7,0.69,0.96,1.09c1.16,1.77,2.39,3.35,4.46,4.27
		c1.1,0.49,2.17,1.57,2.72,2.66c0.91,1.8,2.28,3.12,3.65,4.47c5.08,5,9.1,10.79,12.61,16.97c1.27,2.24,2.56,4.49,4.08,6.55
		c3.74,5.07,4.89,11.2,6.89,16.94c1.65,4.73,1.2,9.86,1.32,14.85c0.02,0.97-0.16,1.94-0.1,2.9c0.5,7.96-3.81,12.61-10.62,15.56
		c-0.72,0.31-1.48,0.54-2.4,0.87c0.08,2.36,0.37,4.43,1.64,6.47c0.99,1.59,1.38,3.57,2.03,5.37c2.82,7.84,3.38,16.03,3.59,24.24
		c0.07,2.55-0.5,5.12-0.81,7.93c1.41,1.22,3.3,1.53,5.2,1.7c3.21,0.28,5.74,1.58,7.97,3.99c2.65,2.86,5.38,5.56,6.59,9.4
		c0.14,0.46,0.33,0.95,0.64,1.3c2.39,2.68,2.5,6.23,3.41,9.42c0.82,2.9,1.05,6.02,1.18,9.05c0.15,3.53-0.09,7.07-0.19,10.61
		c-0.03,1.13-0.35,2.27-0.23,3.37c0.54,5.16-1.34,9.81-2.92,14.53c-0.21,0.61-0.4,1.26-0.77,1.77c-3.68,5.1-6.01,11.01-9.99,15.95
		c-2.42,3-5.3,5.59-7.35,8.95c-1.03,1.68-3.17,2.67-4.77,4.01c-0.71,0.6-1.33,1.32-2.01,2.01c1.53,1.72,2.84,3.34,4.3,4.82
		c2.95,3.01,4.49,6.32,2.42,10.39c1.89,2.56,4.41,3.96,7.12,5.05c0.73,0.3,1.54,0.47,2.33,0.52c1.55,0.11,2.81-0.36,3.6-1.88
		c1.42-2.71,2.96-5.36,4.42-8.05c0.62-1.13,1.17-2.3,1.73-3.47c1.76-3.68,4.58-5.48,8.74-5.86c4.05-0.37,7.8,0.52,11.28,2.1
		c2.96,1.34,4.96,4.15,5.81,7.39c0.91,3.45,1.46,6.94-0.43,10.37c-0.6,1.08-0.56,2.5-1.06,3.66c-0.56,1.3-1.17,2.71-2.15,3.69
		c-1.92,1.94-4.01,3.74-6.2,5.37c-7.07,5.26-14.73,9.27-23.66,10.19c-5.28,0.55-10.59,1.23-15.88,1.22
		c-3.54-0.01-7.28-1.32-9.73-3.84c-3.7-3.8-6.85-8.15-6.32-14.1c0.27-3.02-0.01-6.1,0.02-9.15c0.01-1.44-0.52-2.55-1.82-3.14
		c-3.67-1.66-7.38-3.25-11.06-4.88c-1.91-0.84-4.02-1.41-5.67-2.61c-2.7-1.96-3.63-5.08-1.59-8.04c1.52-2.21,4.08-3.11,6.4-2.57
		c4.06,0.93,8.06-0.24,12.06,0.3c0.76,0.1,1.8,0.04,2.32-0.41c2.68-2.29,6.34-3.13,8.65-5.94c0.51-0.62,1.05-1.23,1.65-1.75
		c4.39-3.83,7.85-8.51,11.59-12.91c2.73-3.21,4.13-7.26,6.18-10.9c3.05-5.4,3.46-11.33,3.59-17.32c0.07-3.38,0.29-6.81-0.17-10.14
		c-0.88-6.34-1.62-12.74-5.52-18.26c-3.51-4.96-9.72-6.8-14.94-5.78c-1.65,0.32-3.28,1.38-4.64,2.45
		c-3.59,2.81-7.67,3.13-11.92,2.69c-1.44-0.15-2.83-0.65-4.27-0.85c-3.5-0.49-5.92-4.86-2.67-8.63c2.05-2.39,4.66-3.99,7.94-4.12
		c1.77-0.07,3.55,0.01,5.33-0.06c3.44-0.13,5.07-1.27,6.03-4.5c1.03-3.45,0.98-7.02,0.59-10.55c-0.59-5.28-1.49-10.53-2.95-15.65
		c-0.75-2.63-1.27-5.42-2.54-7.79c-1.65-3.07-3.64-5.99-7.93-6.09c-7.29-0.17-12.63-4.42-17.6-9.16c-0.88-0.84-1.53-2.1-1.91-3.28
		c-1.22-3.73,1.13-6.59,5.22-6.46c1.93,0.06,3.86,0.29,5.78,0.32c6,0.09,10.73,2.93,14.98,6.83c0.47,0.43,0.79,1.03,1.27,1.46
		c1.43,1.29,2.99,1.9,4.83,0.78c0.55-0.33,1.14-0.68,1.75-0.81c4.05-0.82,5.36-3.53,5.52-7.36c0.32-7.82-0.25-15.49-3.44-22.75
		c-1.55-3.52-3.29-6.93-5.36-10.22c-3.09-4.91-6.22-9.79-9.59-14.5c-0.84-1.17-2-2.1-2.87-3.25c-3.13-4.12-6.82-7.69-10.69-11.1
		c-2.78-2.44-5.38-5.08-8.16-7.52c-1.39-1.22-3.01-2.18-4.73-3.4c-0.94,1.38-0.84,2.66-0.82,3.9c0.05,3.54,0.37,7.1-0.64,10.56
		c-0.3,1.04-0.84,2.04-1.37,2.99c-0.31,0.55-0.93,0.93-1.22,1.49c-1.53,2.84-3.96,4.35-6.87,5.71c-6.57,3.09-12.27,1.09-17.77-2.36
		c-1.89-1.19-3.26-3.04-3.78-5.43c-0.41-1.88-1.2-3.68-1.82-5.51c-0.1-0.31-0.27-0.61-0.29-0.92c-0.26-4.32-0.51-8.65-0.73-12.97
		c-0.02-0.46,0.09-1.02,0.34-1.39c3-4.39,5.9-8.91,11.63-10.17c2.67-0.59,5.35-1.11,8.37-1.72c-0.34-0.78-0.55-1.5-0.94-2.11
		c-3.42-5.39-8.2-9.51-13.25-13.18c-4.02-2.92-8.53-5.19-12.95-7.5c-5.42-2.83-10.91-5.51-16.48-8.02
		c-3.07-1.38-6.34-2.32-9.54-3.38c-3.51-1.16-7-2.44-10.59-3.29c-3.12-0.74-6.37-0.97-9.56-1.39c-6.26-0.81-12.56-0.76-18.85-0.65
		c-0.47,0.01-0.96,0.12-1.4,0.29c-0.28,0.11-0.48,0.41-0.66,0.57c0,2.14-0.07,4.23,0.02,6.31c0.07,1.63,0.02,3.17-0.6,4.74
		c-0.66,1.68-0.48,3.43,0.02,5.22c1,3.57,1.58,7.18,1.08,10.96c-0.33,2.53-0.14,5.15,0.07,7.71c0.43,5.21-0.92,9.96-3.9,14.1
		c-2.62,3.64-4.96,7.58-8.7,10.3c-1.15,0.84-2.25,1.76-3.4,2.61c-0.25,0.19-0.69,0.16-0.88,0.38c-2.57,2.86-6.09,4.08-9.44,5.61
		c-3.64,1.66-7.19,3.52-10.85,5.16c-2.35,1.05-4.81,1.86-7.22,2.75c-0.76,0.28-1.54,0.55-2.33,0.65c-4.14,0.57-8.3,1.02-12.44,1.64
		c-2.21,0.33-4.53,0.03-6.61,1.26c-0.62,0.36-1.56,0.28-2.34,0.26c-9.49-0.24-18.97,0.93-28.46,0.26c-0.31-0.02-0.62,0.13-1.29,0.29
		c0.28,0.85,0.38,1.78,0.85,2.47c1.09,1.59,2.43,3.01,3.53,4.6c3.29,4.77,5.27,10.26,8.19,15.24c0.47,0.8,0.53,1.85,0.79,2.78
		c0.26,0.93,0.31,2.01,0.83,2.77c2.67,3.85,2.68,8.58,4.36,12.74c0.18,0.44,0.33,0.95,0.29,1.41c-0.45,5.65,1.35,11.19,0.88,16.84
		c-0.04,0.48-0.06,0.98,0.02,1.45c0.94,5.73-0.43,11.12-2.41,16.43c-0.34,0.9-0.45,1.88-0.77,2.79c-0.37,1.05-0.62,2.29-1.33,3.07
		c-4.04,4.36-7.17,9.56-12.17,13.06c-1.99,1.4-3.85,2.93-6.22,3.65c-0.61,0.19-1.36,0.36-1.72,0.81c-1.55,1.92-3.85,2.32-5.96,2.99
		c-3.98,1.27-8.04,2.31-12.06,3.47c-7.08,2.04-14.33,1.89-21.58,1.66c-3.68-0.11-7.36-0.33-11.35-0.51
		c-0.57,0.35-0.43,1.13-0.11,1.91c0.8,1.94,1.53,3.92,2.46,5.79c1.45,2.92,2.41,5.91,2.65,9.2c0.21,2.87,1.1,5.68,1.37,8.55
		c0.38,4,0.6,8.02-0.65,11.98c-1.26,3.97-3.49,6.65-7.66,7.93c-5,1.54-10.13,1.87-15.24,2.39c-2.87,0.3-5.77-0.29-8.57-1.24
		c-3.48-1.18-7.08-2-10.21-4.11c-2.4-1.62-4.97-2.95-6.78-5.36c-0.73-0.98-1.98-1.56-2.94-2.28c-0.94,0.72-0.42,1.28-0.14,1.79
		c1.59,2.8,3.24,5.57,4.82,8.39c0.55,0.97,0.96,2.03,1.4,3.05c0.77,1.78,1.14,3.89,2.35,5.28c3.44,3.96,4.93,9.08,8.25,13.07
		c0.62,0.74,1.12,1.58,1.6,2.42c0.74,1.29,0.4,2.46-0.46,3.58c-0.69,0.9-1.56,1.19-2.55,0.78c-0.88-0.36-1.84-0.79-2.47-1.46
		c-1.97-2.08-4.16-3.91-5.65-6.51c-2.07-3.62-4.88-6.79-6.72-10.59c-0.91-1.88-2.04-3.64-3-5.5c-3.68-7.16-7.64-14.18-10.35-21.8
		c-0.32-0.89-0.99-1.65-1.43-2.51c-0.51-1.01-1.22-2.02-1.36-3.09c-0.52-3.84-2.41-7.23-3.41-10.89c-1.01-3.7-1.54-7.54-2.26-11.32
		c-0.09-0.47-0.03-0.97-0.04-1.45c-0.06-3.18-1.55-6.09-1.01-9.5c0.48-3.07-0.47-6.35-0.68-9.54c-0.12-1.77-0.16-3.57,0.03-5.32
		c0.18-1.61,0.55-3.17-0.14-4.75c-0.12-0.28-0.14-0.65-0.08-0.96c1.51-7.09,0.42-14.52,2.71-21.51c1.4-4.27,1.95-8.75,3.75-12.93
		c1.84-4.28,2.98-8.86,4.81-13.14c3.52-8.27,6.47-16.83,11.63-24.34c1.45-2.11,2.47-4.53,3.68-6.81c2.42-4.56,4.99-8.99,8.56-12.81
		c2.08-2.23,3.76-4.82,5.72-7.17c1.55-1.85,3.32-3.46,5.32-4.88c1.69-1.2,3.09-2.83,4.6-4.28c1.02-0.98,1.28-2.15,1.04-3.54
		c-0.98-5.63-0.7-11.26,0.65-16.76c0.68-2.77,2.13-5.38,3.4-7.98c0.84-1.73,1.98-3.32,2.97-4.98c0.25-0.41,0.3-1.06,0.65-1.27
		c2.72-1.71,3.45-4.98,5.71-7.07c2.12-1.96,3.79-4.47,6.1-6.14c3.39-2.45,6.39-5.37,9.99-7.58c5.63-3.45,11.18-7.05,16.55-10.88
		c5.03-3.58,10.73-5.9,16-9c2.36-1.39,4.79-2.66,7.22-3.93c1.99-1.04,3.96-2.05,6.12-2.8c3.93-1.36,7.68-3.26,11.46-5.05
		c2.49-1.18,11.11-3.9,13.78-4.24c2.24-0.28,4.48-0.59,6.68-1.03c4.04-0.82,8.01-0.23,12.02,0.3c11.94,1.57,21.31,7.76,29.5,16.11
		c3.36,3.42,6.65,6.92,9.81,10.53C542.33,282.3,544.03,284.86,546.05,287.55z M384.71,354.69c-1.18,0.71-2.25,1.38-3.34,2.02
		c-3.9,2.31-5.95,6.32-8.44,9.78c-3.47,4.8-7.67,9.18-9.88,14.84c-3.59,4.25-5.25,9.59-8.07,14.27c-1.42,2.35-2.09,5.02-3.03,7.58
		c-0.98,2.68-3.21,4.87-3.11,7.98c-1.73,3.46-3.11,7.06-4.27,10.75c-1.2,3.83-2.55,7.62-3.82,11.43c-0.15,0.45-0.23,0.94-0.27,1.42
		c-0.35,4-0.71,8-1.02,12c-0.33,4.34-0.6,8.68-0.86,13.02c-0.06,0.93-0.19,1.99,1.29,2.4c1.98-3.09,5.29-3.89,8.67-4.33
		c2.77-0.36,5.84,0.61,7.92-2.18c2.37-0.58,4.75-0.9,7.2-0.52c2.76,0.43,5.06,1.96,7.57,3c6.4,2.64,11.67,6.69,16.36,11.64
		c0.76,0.8,1.61,1.67,2.59,2.09c5.95,2.56,12,4.82,18.66,4.48c0.8-0.04,1.63-0.11,2.41,0.04c5,0.93,9.92-0.85,14.91-0.4
		c0.31,0.03,0.66-0.04,0.95-0.16c5.04-2.03,10.57-2.32,15.49-5.03c4.21-2.32,8.81-3.91,11.96-7.8c3.12-1.64,4.47-5.02,7.04-7.23
		c0.77-0.67,1.03-1.96,1.45-3c1.92-4.71,1.56-9.83,2.56-14.71c0.16-0.76-0.07-1.6-0.15-2.39c-0.18-1.76-0.4-3.52-0.55-5.28
		c-0.25-2.89-0.32-5.81-0.7-8.68c-0.38-2.83-1.04-5.63-1.61-8.43c-0.13-0.63-0.26-1.3-0.58-1.84c-2.44-3.99-3.41-8.6-5.58-12.76
		c-3.53-6.77-7.4-13.04-13.18-18.21c-2.69-2.41-5.36-3.8-8.86-4.34c-5.27-0.81-10.38-2.36-15.22-4.66c-3.05-1.46-4-4.07-3.04-7.79
		c0.54-2.09,2.92-3.58,5.79-3.42c1.28,0.07,2.53,0.46,3.8,0.72c0.78,0.16,1.62,0.62,2.33,0.46c2.06-0.45,3.81,0.03,5.49,1.18
		c1.72,1.17,3.94,0.78,5.72,2.32c3.66,3.17,8.05,4.56,12.99,3.37c0.61-0.15,1.28-0.02,1.93-0.03c9.17-0.07,18.34-0.12,27.51-0.23
		c1.28-0.02,2.55-0.39,3.83-0.56c1.26-0.17,2.53-0.31,3.79-0.47c3.67-0.45,7.39-0.67,11-1.41c5.19-1.06,10.48-1.93,15.09-4.9
		c1.32-0.85,2.91-1.28,4.38-1.9c0.59-0.25,1.18-0.49,1.74-0.8c1.83-1.01,3.62-2.08,5.46-3.06c3.27-1.75,6.58-3.42,8.64-6.75
		c0.49-0.79,1.37-1.35,2.11-1.97c3.8-3.21,5.74-7.32,5.92-12.25c0.15-4.02,0.29-8.04,0.27-12.06c-0.01-1-0.66-1.99-0.99-2.92
		c-0.66,0.1-1.03,0.05-1.29,0.2c-3.8,2.3-8.16,3.01-12.34,4.16c-1.8,0.49-3.89,0.47-5.74,0.1c-3.29-0.67-6.04-2.28-6.99-5.91
		c-0.23-0.89-0.68-1.72-0.97-2.44c-0.62-0.07-0.93-0.13-1.25-0.14c-1.97-0.09-3.8,0.45-5.62,1.18c-1.16,0.46-2.25-0.47-2.32-1.72
		c-0.11-2.11,0.56-3.19,2.72-4.03c1.92-0.74,3.9-1.34,6.02-2.06c0-1.36,0.09-2.49-0.02-3.59c-0.16-1.56,0.36-2.86,1.29-4.04
		c3.01-3.82,6.15-7.48,11.15-8.79c1.4-0.37,2.83-0.69,4.16-1.24c1.28-0.53,2.87-0.72,3.51-2.62c-0.74-1.05-1.41-2.39-2.42-3.37
		c-5.65-5.47-10.79-11.5-17.37-15.99c-4.98-3.39-10.14-6.3-16.32-6.64c-3.37-0.18-6.76-0.91-10.11-0.08
		c-6.39,1.58-12.8,3.04-18.96,5.55c-5.66,2.31-11.13,4.89-16.56,7.69c-6.74,3.48-13.35,7.14-19.86,11.06
		c-3.68,2.21-6.88,5.27-11.07,6.64c-4.47,3.95-10.08,6.37-14.3,10.67c-1.46,1.49-3.13,2.8-4.54,4.34c-2.95,3.19-5.96,6.35-8.61,9.78
		c-1.34,1.73-2.08,3.99-2.81,6.1c-0.73,2.12-1.05,4.38-1.66,6.56c-0.81,2.91-0.01,5.65,0.55,8.75c1.62-0.43,3.04-0.67,4.36-1.18
		c4.78-1.84,9.42-1.41,14.15,0.35c1.99,0.74,3.53,1.87,4.17,3.72c1.04,3.04,1.87,6.18,2.42,9.35c0.29,1.7-0.02,3.56-0.35,5.3
		c-0.72,3.82-3.27,6.56-6.7,7.67c-3.44,1.12-7.18,1.72-10.97,0.6c-5.12-1.52-9.48-3.93-12.15-8.78
		C385.88,355.62,385.29,355.26,384.71,354.69z M396.43,513c0.01,0.13,0.02-0.69-0.15-1.47c-0.98-4.55-2.8-8.91-2.98-13.63
		c-0.01-0.3-0.24-0.59-0.38-0.88c-2.33-4.74-4.62-9.51-7.03-14.22c-0.74-1.45-2.04-2.41-3.56-3.14c-3.04-1.47-6.03-3.05-8.99-4.67
		c-1.7-0.93-3.24-2.03-5.39-1.24c-0.59,0.22-1.58-0.28-2.23-0.7c-1.22-0.77-2.28-1.76-3.48-2.57c-2.13-1.44-4.16-3.14-6.48-4.14
		c-5.67-2.45-10.43,1.38-9.62,7.49c0.13,0.95,0.13,1.93,0.21,2.89c0.34,4.01,0.32,8.1,1.16,12c0.83,3.88,2.46,7.61,3.88,11.35
		c1.15,3.03,3.39,5.46,4.91,8.27c2.21,4.08,6.12,6.45,8.99,9.84c1.36,1.61,3.27,2.59,5.37,3.09c2.81,0.67,5.61,1.33,8.41,2.01
		c4.73,1.15,9.23-0.37,13.78-1.22c1.8-0.34,2.77-1.56,3.01-3.33C396.06,517.12,396.18,515.52,396.43,513z M701.62,603.25
		c-0.25,1.93-0.38,3.66-0.72,5.36c-0.32,1.58,0.07,2.87,1.09,4.03c1.06,1.21,2.07,2.46,3.23,3.57c1.1,1.05,2.53,1.4,4.04,1.28
		c4.97-0.4,9.95-0.77,14.92-1.23c1.26-0.12,2.55-0.4,3.72-0.88c3.27-1.37,6.57-2.7,9.67-4.37c4.51-2.43,8.04-6.01,10.18-10.68
		c1.72-3.76-0.36-7.33-4.3-7.98c-1.96-0.32-3.59,0.22-4.57,1.96c-1.1,1.96-2.21,3.96-2.92,6.07c-1.02,3.01-2.85,5.58-5,7.61
		c-2.27,2.14-5.18,3.96-8.61,3.88c-5.67-0.13-10.84-1.87-15.01-5.76C705.7,604.57,703.94,603.86,701.62,603.25z M649.84,346.16
		c-3.33-1.04-6.3-0.76-9.26,0.29c-2.81,1-4.54,2.9-5.21,5.81c-0.94,4.07-0.07,7.9,1.25,11.75c0.64,1.86,1.79,3.02,3.43,3.78
		c2.62,1.23,5.2,1.09,7.85-0.21c2.26-1.1,2.68-3.12,3-5.16c0.3-1.89,0.13-3.86,0.4-5.76C651.81,353.08,651.47,349.65,649.84,346.16z
		 M401.17,356.06c5.56,0.05,7.4-2.44,5.94-6.79c-0.25-0.74-0.59-1.6-1.16-2.06c-0.83-0.66-1.94-1.46-2.88-1.4
		c-3.2,0.2-6.33,0.91-9.2,2.46c-0.94,0.51-1.22,1.57-0.67,2.46C395.24,354.05,397.87,356.43,401.17,356.06z M540.17,309.05
		c-1.84-1.83-3.75-1.15-5.15-0.39c-1.89,1.02-3.91,1.37-5.86,2.05c-1.34,0.47-2.65,1.11-3.84,1.87c-0.33,0.21-0.39,1.14-0.28,1.68
		c0.06,0.3,0.76,0.75,1.09,0.69c2.04-0.37,4.04-0.95,6.07-1.31C535.31,313.09,537.88,311.68,540.17,309.05z M527.25,302.85
		c1.28,0.67,2.25-0.29,3.07-0.81c2.94-1.85,5.99-2.98,9.51-2.76c0.43,0.03,0.9-0.55,1.66-1.06c-0.92-0.28-1.46-0.65-1.8-0.51
		c-3.12,1.25-6.72,0.92-9.62,2.85C529.08,301.23,527.59,301.31,527.25,302.85z"/>
	<path d="M554.95,452.85c0,1.45-0.15,2.92,0.03,4.36c0.37,3.01-1.41,4.9-3.42,6.52c-0.75,0.6-2.24,0.89-3.15,0.59
		c-4.9-1.61-9.55,0.05-14.28,0.77c-5.15,0.79-9.53,3.68-14.39,5.29c-7.01,2.32-13.84,5.17-20.75,7.79
		c-1.36,0.51-2.83,0.84-4.04,1.58c-3.6,2.21-7.68,2.31-11.66,2.88c-0.93,0.13-1.94-0.03-2.88-0.21c-3.51-0.67-5.85-3.82-5.33-7.39
		c1.19-8.22,5.01-14.86,11.98-19.55c1.2-0.81,2.38-1.66,3.61-2.43c0.96-0.6,1.94-1.46,2.98-1.56c5.63-0.55,10.13-3.88,15.1-6.02
		c2.53-1.09,5.02-2.13,7.72-2.73c6.91-1.52,13.8-3.15,20.8-4.16c3.17-0.46,6.44-0.33,9.66-0.35c0.76-0.01,1.66,0.27,2.27,0.72
		c2.93,2.14,5.42,4.6,5.53,8.58c0.05,1.77,0.19,3.53,0.29,5.3C555,452.84,554.98,452.84,554.95,452.85z M545.27,448.16
		c-0.91-0.18-1.37-0.34-1.83-0.34c-7.93-0.01-15.6,1.69-23.23,3.6c-0.77,0.19-1.46,0.67-2.21,0.95c-5.25,2.01-10.41,4.33-15.78,5.9
		c-4.77,1.4-8.79,3.7-12.4,7c-1.98,1.81-3.17,3.95-3.63,6.61c1.58,0.56,2.94,0.45,4.34-0.17c1.76-0.78,3.52-1.84,5.37-2.09
		c5.09-0.68,8.67-4.87,13.7-5.61c0.41-0.06,0.73-0.63,1.15-0.85c0.56-0.3,1.16-0.67,1.76-0.69c3.67-0.11,6.78-1.92,9.99-3.33
		c2.09-0.92,4.16-1.78,6.39-2.09c4.91-0.69,9.69-2.28,14.72-2.25c1.48,0.01,2.3-1.01,2.21-2.56
		C545.74,450.97,545.49,449.71,545.27,448.16z"/>
	<path d="M430.45,577.59c1.16,0.12,1.77,0.21,2.38,0.25c1.28,0.09,2.1,0.8,2.47,1.97c0.34,1.07,0.79,2.19,0.79,3.28
		c0.01,4.64,0.37,9.32-0.66,13.91c-1.96,8.78-3.95,17.56-5.96,26.34c-0.25,1.09-0.69,2.15-1.12,3.19c-0.24,0.59-0.59,1.15-1,1.65
		c-1.27,1.57-3.77,2.44-5.16,1.85c-1.22-0.52-1.97-2.42-1.56-4.68c0.58-3.17,1.15-6.36,2.06-9.44c0.91-3.05,0.93-6.05,0.15-9.04
		c-0.99-3.79-1.19-7.62-1.1-11.49c0.1-4.34,0.43-8.68,0.31-13.01c-0.14-4.92,1.1-9.57,2.21-14.26c0.21-0.88,0.75-1.81,1.42-2.42
		c1.09-1,2.49-1.65,3.99-0.95c1.3,0.6,1.78,1.93,1.77,3.23c-0.01,1.75-0.34,3.51-0.53,5.26
		C430.78,574.49,430.65,575.76,430.45,577.59z"/>
	<path d="M536.92,488.06c-2.5-4.94-2.88-9.53-2.3-14.25c0.08-0.64,0.09-1.3,0.24-1.92c0.96-3.79,4.43-5.32,7.78-3.25
		c3.4,2.1,5.83,4.98,6.35,9.18c0.21,1.74,0.7,3.44,0.99,4.83c1.76,0.7,3.28,1.12,4.6,1.87c1.54,0.88,1.82,2.17,1.1,3.69
		c-0.71,1.5-1.72,2.73-3.31,3.36c-4.03,1.61-8.06,3.24-12.13,4.75c-2.1,0.78-4.31,1.26-6.46,1.93c-1.86,0.58-3.09,0.14-4.56-1.72
		c-1.09-1.38-1.23-3.05-0.17-4.44c1.09-1.41,2.31-2.7,4.21-3.06C534.34,488.84,535.38,488.48,536.92,488.06z"/>
	<path d="M664.73,478.09c-0.23,1.09-0.34,2.41-0.8,3.58c-0.87,2.2-2.94,2.97-5.17,2.09c-1.11-0.44-1.93-1.16-2.02-2.45
		c-0.08-1.12-0.05-2.25-0.18-3.37c-0.46-3.83-2.67-6.05-6.51-6.58c-0.79-0.11-1.62-0.01-2.39-0.18c-2.07-0.43-2.94-2.96-1.55-4.53
		c3.59-4.05,7.67-4.11,12.91-0.63c2.2,2.94,4.88,5.6,5.4,9.5C664.51,476.31,664.61,477.1,664.73,478.09z"/>
	<path d="M679.01,540.28c0.39-0.75,0.76-1.63,1.27-2.42c0.52-0.8,1.23-1.49,1.78-2.27c1.62-2.28,1.52-3.31-0.43-5.42
		c-1.81-1.95-1.81-1.95-1.24-5.04c2.26-1.9,4.67-1.61,7.18-0.53c1.75,0.76,2.9,2.04,3.43,3.8c1.22,4.05,0.94,8.16-1.42,11.57
		c-1.47,2.13-4.1,3.59-7.06,3.41C680.7,543.28,679.68,542.09,679.01,540.28z"/>
	<path d="M659.49,432.29c-1.76-0.19-2.77-1.13-3.58-2.41c-0.51-0.8-1.12-1.54-1.69-2.3c-1.2-1.57-2.71-2.18-4.66-1.52
		c-0.6,0.2-1.26,0.5-1.85,0.43c-2.1-0.24-3.92-2.11-2.67-4.47c1.46-2.75,5.57-4.54,8.7-3.64c3.48,1,6.06,3.32,7.31,6.54
		C662.02,427.43,661.9,430.28,659.49,432.29z"/>
	<path d="M604.83,350.98c0.75,0.21,1.32,0.2,1.62,0.49c1.34,1.3,3.03,1.84,4.76,2.18c2.62,0.52,3.37,4.12,1.11,6.69
		c-0.6,0.68-2.34,0.61-2.52-0.22c-0.5-2.2-2.34-2.89-3.86-4.01c-1.05-0.77-2.02-1.75-2.01-3.14
		C603.94,352.32,604.51,351.67,604.83,350.98z"/>
	<path class="st0" d="M499.05,719.67c-0.02-0.15-0.05-0.3-0.05-0.44c0-0.08,0.07-0.16,0.11-0.24c0.01,0.15,0.04,0.29,0.04,0.44
		C499.14,719.51,499.08,719.59,499.05,719.67z"/>
	<path d="M549.11,728.46c0.31-1.86,0.27-4.26,1.15-6.25c1.02-2.3,1.08-4.67,1.57-7c0.59-2.81,1.13-5.64,1.73-8.45
		c0.13-0.62,0.39-1.23,0.65-1.81c0.56-1.25,1.47-2.16,2.86-2.34c1.34-0.17,3.36,1.15,3.71,2.58c0.38,1.54,0.84,3.25,0.5,4.72
		c-0.5,2.23-0.76,4.41-0.78,6.67c-0.01,1.11-0.35,2.22-0.59,3.32c-0.78,3.44-1.57,6.88-2.38,10.31c-0.19,0.78-0.44,1.56-0.74,2.3
		c-0.73,1.79-2.39,2.92-4.08,2.85c-1.41-0.06-3.04-1.78-3.35-3.65C549.2,730.77,549.21,729.79,549.11,728.46z"/>
	<path d="M602.25,704.84c-0.32,3.75-0.56,7.11-0.91,10.46c-0.16,1.57-1.33,2.5-2.96,2.6c-3.5,0.2-5.24-1.35-4.98-4.77
		c0.31-3.99,0.84-7.96,1.33-11.94c0.1-0.78,0.33-1.57,0.64-2.29c0.64-1.49,2.01-2.16,3.46-2.24c1.47-0.08,2.35,1.15,2.63,2.41
		C601.91,701.08,602.04,703.16,602.25,704.84z"/>
	<path d="M625.76,698.81c-0.34-1.9-0.04-3.93,0.87-5.9c0.59-1.27,1.44-2.16,2.87-2.26c1.32-0.09,2.64,1.02,2.92,2.7
		c0.48,2.85,0.91,5.73,1.08,8.61c0.07,1.2-0.41,2.54-0.98,3.64c-0.85,1.66-2.65,1.93-4.11,0.79c-1.59-1.24-2.65-2.81-2.66-4.92
		C625.76,700.67,625.76,699.86,625.76,698.81z"/>
	<path d="M610.29,685.78c0-1.72-0.05-2.52,0.01-3.32c0.14-1.87,2.14-3.53,3.98-3.23c1.16,0.19,2.24,0.85,2.48,2.01
		c0.51,2.49,1,5.02,1.09,7.55c0.08,2.13-1.4,3.6-3.06,3.68c-1.68,0.08-3.49-1.08-3.96-2.87
		C610.43,688.06,610.38,686.45,610.29,685.78z"/>
	<path d="M565.8,692.73c-3.29,0.08-4.74-2.94-3.26-5.24c0.78-1.21,1.29-2.59,1.93-3.89c0.5-1.03,1-2.11,2.37-2.09
		c1.74,0.03,3.12,0.73,3.85,2.4c0.83,1.89,0.68,3.69-0.18,5.58C569.39,691.92,568.34,692.77,565.8,692.73z"/>
	<path d="M397.82,442.82c0.13-4.34,1.9-7.68,5.13-10.52c2.67-2.35,5.16-4.87,8.7-5.82c1.54-0.41,3.13-0.63,4.7-0.9
		c1.38-0.24,2.47,0.33,3.52,1.19c1.11,0.92,1.46,2.04,1.31,3.41c-0.17,1.53-1.23,2.35-2.53,2.52c-2.61,0.36-4.97,1.28-7.08,2.77
		c-1.17,0.82-2.24,1.82-3.19,2.89c-1.23,1.39-1.72,3.03-1.09,4.92c0.35,1.06,0.59,2.19,0.67,3.3c0.16,2.28-1.46,3.95-3.8,4.07
		c-2.96,0.15-4.67-0.99-5.72-4.09C398.04,445.38,398.01,444.07,397.82,442.82z"/>
	<path d="M387.47,408.93c0.15-0.78,0.16-1.62,0.46-2.33c1.55-3.66,3.01-7.38,6.34-9.92c0.75-0.57,1.27-1.44,2-2.05
		c2.11-1.75,5.39-1.04,6.44,1.5c0.32,0.78,0.29,1.98-0.1,2.72c-0.87,1.7-1.96,3.31-3.14,4.81c-2.54,3.22-3.86,6.92-4.59,10.87
		c-0.4,2.17-1.92,2.98-3.74,1.84C388.41,414.67,387.49,412.04,387.47,408.93z"/>
</g>
</svg>
