<svg id="Camada_1" data-name="Camada 1" xmlns="http://www.w3.org/2000/svg" viewBox="0 0 1080 1080"><defs><style>.cls-1{fill:#b3d0c7;}</style></defs><path class="cls-1" d="M749.84,541.15c44.75-43.52,89.5-76.17,134.25-100.24-49.68-28.48-99.37-42.3-149.05-48.69,14.07-38.87,28.14-75.55,42.21-111.1a893.85,893.85,0,0,0-149.51,51.56c-23.3-41.13-46.59-82.75-69.88-128.79-19.39,38.3-38.78,80-58.17,123.27-40.24-25.73-80.48-56.29-120.71-90.8q1.18,108.79,2.39,208.29c-49.91,11.39-99.82,16.87-149.73,9.26,24.73,32.2,49.46,62,74.19,88.61-36.64,23-73.28,39.42-109.92,48.45,63.41,48.81,126.82,71.63,190.23,84.9q-15,83.53-29.9,157.29a1049.34,1049.34,0,0,0,93.46-47.83c10.45,29.86,20.9,59.85,31.34,90.78C515.08,832,549.12,780,583.16,725c58.77,22.65,117.55,53.75,176.32,90.75C751.9,764.6,744.31,714.88,736.72,667c34.54.35,69.08,4,103.61,12.75C810.17,630.13,780,583,749.84,541.15Z"/><path d="M517.54,433.35c2.68,3,3.06,6.66,3.13,10.42a11.72,11.72,0,0,0,0,2.58c1.29,5.37,1.05,10.75.58,16.2-.34,4.09-1.58,8-1.72,12.16-.07,1.93-.92,3.84-1.41,5.76-.8,3.13-1.37,6.31-2.74,9.29a62.39,62.39,0,0,1-4.32,8.17,19.14,19.14,0,0,1-6.33,5.71c-2.12,1.28-4.41,2.27-6.62,3.39a6.14,6.14,0,0,0-1.29.7c-2.81,2.49-6.33,3.88-9.32,6.09a2.31,2.31,0,0,1-1,.46c-3.55.5-6.84,2.11-10.49,2.36a21.34,21.34,0,0,0-9.22,2.42,10,10,0,0,1-3.51,1.16c-3.7.44-7.43.72-11.14,1-3.2.28-6.38.58-9.57,1.11a20.67,20.67,0,0,1-10.68-.56c-2.55-.93-5.24-1.46-7.85-2.23-1.07-.32-2.09-.76-3.13-1.17a9.6,9.6,0,0,0-2.05-.88c-3.45-.48-6.12-2.65-9.16-4a11.94,11.94,0,0,1-1.81-1.25c-.5-.36-1-.78-1.49-1.11-4.19-2.66-8.39-5.29-12.58-7.95a70.06,70.06,0,0,1-7.73-5.14c-1.77-1.49-3-3.6-4.45-5.47-.45-.58-.63-1.38-1.1-1.93-3.28-3.92-5-8.54-6.15-13.41a24,24,0,0,0-1.27-3.49c-.48-1.14-1.09-2.22-1.57-3.36-.82-1.94-1.36-4-2.68-5.72a6,6,0,0,1-.84-2.06c-.43-1.68-.57-3.44-1.65-4.92a2.33,2.33,0,0,1-.32-1.44c.13-2.74-1.28-5.29-.95-8.06a7.66,7.66,0,0,0-.28-2.21c-.4-2.2-.75-4.42-1.26-6.59a30.79,30.79,0,0,0-1.37-4.24,11.87,11.87,0,0,1-.77-4.33c0-3.05.23-6.2-1.25-9.08a2.4,2.4,0,0,1-.41-1.4c.84-3.4-.68-6.86.29-10.25-.53-3.23,0-6.4.51-9.58a11.34,11.34,0,0,1,.52-2.54,9.76,9.76,0,0,0,.41-5.15,11.91,11.91,0,0,1,0-3.32,17.51,17.51,0,0,1,3-8.33,5.1,5.1,0,0,0,.9-2.77c0-2.82,1.05-5.36,2-7.88,1.15-3,2.41-5.95,2.77-9.23a10,10,0,0,1,1.64-4.92,3.41,3.41,0,0,0,.55-1.37c.61-3.51,2.46-6.49,4.07-9.55a17.45,17.45,0,0,1,5.63-5.9c1.5-1.08,3-2.14,4.52-3.2a11.51,11.51,0,0,1,2.17-1.44c2.41-1,4-2.93,5.86-4.55,3.64-3.22,7.7-5.76,12.19-6.65,3.65-.72,7.34-1.26,11-1.88.73-.13,1.46-.28,2.18-.47a51.71,51.71,0,0,1,6.81-1.78c2.58-.32,5-1.07,7.54-1.62a22,22,0,0,1,4.8-.35c2,0,3.95.22,5.93.39a25.05,25.05,0,0,1,4.43.52,38.19,38.19,0,0,0,9.21,1.24c2.09.06,4.17.54,6.27.8a47.19,47.19,0,0,1,4.78.51,132.77,132.77,0,0,1,16.12,4.36c3,1.09,5.42,3,8.08,4.6,2.22,1.31,4.32,2.75,6.64,3.93a25.94,25.94,0,0,1,9.19,8,11,11,0,0,0,1.62,2,23.34,23.34,0,0,1,6.6,10.17,44.76,44.76,0,0,1,2.33,7.05c.65,3.65,1,7.36,1.66,11a3.65,3.65,0,0,1,.08.74c-.08,4.1-.15,8.21-.26,12.32a5,5,0,0,1-.31,1.81,3.35,3.35,0,0,0,.27,3.2,6.56,6.56,0,0,1,.6,2.09c.3,1.58.58,3.16.81,4.76a4.53,4.53,0,0,1-4.11,4.83,25.47,25.47,0,0,1-2.61-.2,37.38,37.38,0,0,0-4.47-.35,58.5,58.5,0,0,1-11.12-1.2c-2.2-.36-4.43-.54-6.65-.79a5.84,5.84,0,0,1-1.11,0c-4-1.35-8.07-1-12.16-1a60.64,60.64,0,0,0-9.24.66c-1.34.21-2.66.58-4,.9a4.24,4.24,0,0,1-5.27-2.89,3,3,0,0,1-.14-.73c-.2-3.59-.67-7.18.18-10.76.35-1.44.72-2.89,1-4.35a7.51,7.51,0,0,0,0-2.22c-.3-2.46-.67-4.91-.73-7.4,0-1.87-1.29-3.18-2.73-4.26a1.51,1.51,0,0,0-1-.39c-2,.29-3.9-.43-5.92.19a20.85,20.85,0,0,1-5.15.49c-3,.14-4.76,1.83-6,4.33-.11.22-.13.48-.23.71-1.09,2.47-2.26,4.82-2,7.76.21,2.68-.55,5.38-.26,8.17a99,99,0,0,1,.14,10.05,6.12,6.12,0,0,1-.36,1.43,27.63,27.63,0,0,0-.55,6.23c-.1,4.25,1.1,8.42.8,12.6-.25,3.59.29,7.2-.47,10.76a13.85,13.85,0,0,0,.06,2.22c-.12,3,.32,5.92.11,8.93-.18,2.65.63,5.43,1.34,8.06a14.5,14.5,0,0,1,.68,4c-.05,5.22,1.82,10,3.73,14.71a4.43,4.43,0,0,0,4,2.88c2.1.09,4.35.35,6.3-.24,2.29-.7,4.33-2.22,6.47-3.39a.59.59,0,0,0,.26-.26c1.21-3.31,4.1-6,3.44-10a2.29,2.29,0,0,1-.07-.36,34.88,34.88,0,0,0-2.23-14.62,6.25,6.25,0,0,1-.27-1.84c-.14-2.3,1.43-4,3.6-3.5a12.76,12.76,0,0,0,6.58-.22c1.23-.32,2.69.14,4,.33a19.22,19.22,0,0,0,5.19-.1,45.76,45.76,0,0,1,7.41-.2,8.9,8.9,0,0,0,4-.74c6.59-2.85,13.48-3.22,20.5-2.19C515.16,433.28,516.14,433.27,517.54,433.35Z"/><path d="M768.47,640.76c4.27,1.93,8.09,3.39,11.64,5.34,4,2.21,8.41,3.94,11.59,7.52a13.39,13.39,0,0,1,2.75,4.25,35.24,35.24,0,0,0,1.64,4.09,6.87,6.87,0,0,1,.9,3.22,4.53,4.53,0,0,0,.42,2,19.54,19.54,0,0,1,1.72,5.84,15.07,15.07,0,0,0,1.3,4.53c1.63,3.34,1.42,6.78.27,10.22-.8,2.36-1.79,4.67-2.35,7.08s-2.11,4.5-3,6.82c-2.46,2.63-4.19,5.85-6.93,8.27-2.46,2.16-4.56,4.75-7.14,6.73-2.82,2.17-5.67,4.44-9.52,4.83a26.2,26.2,0,0,0-5.45,1.7,15.45,15.45,0,0,1-2.54.91,46.4,46.4,0,0,0-9.5,2.46,5.33,5.33,0,0,1-2.35.24c-3.28-.4-6.55.11-9.83.11a6.41,6.41,0,0,0-2,.24,19.71,19.71,0,0,1-7,.79,42.23,42.23,0,0,0-8.41.17,14.06,14.06,0,0,1-3-.12,8.89,8.89,0,0,0-1.34-.12c-2.24.26-4.47.61-6.72.83-2.47.26-5,.46-7.44.59-2.24.12-4.48.13-6.73.18s-4.53.12-6.79.1c-2,0-4.07.45-6.07-.34a2.43,2.43,0,0,0-1.34-.06c-3,.62-6.05.39-9.1.36-2.81,0-5.62.51-8.43.67-5.08.28-10.13,1.15-15.24.85a8.3,8.3,0,0,1-2.91-.72,3.52,3.52,0,0,1-2-2.61c-.32-1.77-1-3.49-.67-5.37a13.61,13.61,0,0,0-.19-2.35c0-1.68-.06-3.36,0-5a17.8,17.8,0,0,0,.31-3c-.46-2.91-.55-5.85-1-8.74a41.62,41.62,0,0,1-.38-9.46c.24-2.81.23-5.64.53-8.43a99,99,0,0,0,0-15.21c-.12-2.58.53-5.21-.39-7.75a1.92,1.92,0,0,1,.11-1,26,26,0,0,0,.34-6.76c-.15-3.73-.2-7.47-.18-11.2s.18-7.24.22-10.86c0-1.12-.18-2.23-.25-3.35s-.16-2.27-.15-3.39a65.76,65.76,0,0,0-.46-10.11,107.43,107.43,0,0,1-.87-17.21c.09-3.84,1-7.66.32-11.52.71-2.46,0-4.93.06-7.4,0-1.8.17-3.59.15-5.38s-.35-3.37-.26-5a38.64,38.64,0,0,0-.2-7.76l-1.84-1.68c.38-.88.68-1.72,1.09-2.5a2.42,2.42,0,0,1,1.85-1.36c3.57-.53,7.13-1.15,10.72-1.61a21.12,21.12,0,0,1,3,.33,63.7,63.7,0,0,0,7.06.35c2.23-.16,4.49.22,6.76.2s4.72.27,7-.48a4.27,4.27,0,0,1,1.67.17,5.77,5.77,0,0,0,1.68.18c3.4-.64,6.78.07,10.16.14a12.37,12.37,0,0,0,1.35.08c5.88-.51,11.75.16,17.62,0a8.71,8.71,0,0,1,2.7.27,20.69,20.69,0,0,0,6.41.47c4.41,0,8.82-.07,13.23-.06,1.24,0,2.48.19,3.72.3s2.7.2,4,.34,3,.66,4.34.4,2.65.36,4,.58c1,.17,2,.37,3,.45a34.53,34.53,0,0,1,3.95.8c2.7.52,5.12,1.72,7.67,2.58,2.34.78,4.67,1.57,7,2.39a4.84,4.84,0,0,1,1.83.86,19.46,19.46,0,0,0,6.68,3.89c3,1.23,4.86,3.6,7,5.67,2.93,2.8,4.4,6.51,5.72,10.26a10.14,10.14,0,0,1,.24,2,14.65,14.65,0,0,0,.53,3.67c1.37,3.39,1.16,6.88,1,10.38a11.75,11.75,0,0,0,.08,2.72,25,25,0,0,1-.12,9,6.17,6.17,0,0,1-.8,2.18c-1.44,2.42-2.83,4.88-4.46,7.16a86.34,86.34,0,0,1-5.71,7.09,40.22,40.22,0,0,1-5.44,4.53,17.5,17.5,0,0,0-2.33,1.94,14.58,14.58,0,0,1-6,4.25A27.32,27.32,0,0,0,768.47,640.76Zm-58.42,48a19.59,19.59,0,0,1,7.46.23,22.76,22.76,0,0,0,5.38.5c3.89-.25,7.41-1.81,10.84-3.57a2.19,2.19,0,0,0,.74-.68,22,22,0,0,0,3.79-9.27c.78-4.75.75-4.77-1.62-8.9a3.7,3.7,0,0,0-1.29-1.53c-2.42-1.14-4.91-2.13-7.38-3.17-.09,0-.23,0-.34,0-2.22-.4-4.48-.24-6.69-.44a57.16,57.16,0,0,0-6,0c-.67,0-1.34.1-2,.11-1.7,0-2.3.58-2.2,2.18.22,3.7.56,7.4.7,11.1s.43,7.45-1.11,11A9.92,9.92,0,0,0,710.05,688.81Zm1-72.81c0,1.68,0,3.37,0,5a1.79,1.79,0,0,0,1.58,1.92,32.62,32.62,0,0,0,5,.26c1.79-.07,3.59-.6,5.36-.5a8.48,8.48,0,0,0,5.13-1.4c1.52-1,2.85-2.21,4.35-3.22a4.93,4.93,0,0,0,2.21-3.92,53.77,53.77,0,0,1,1.14-7.64,9.13,9.13,0,0,0,0-4c-.44-2.09-1.57-3.69-4-4.06a31.74,31.74,0,0,1-4.23-1.11,5.38,5.38,0,0,0-3.32-.11,4,4,0,0,1-2.3.15c-3.46-1.16-6.93.15-10.4-.13a1.77,1.77,0,0,0-1.79,2.34,18.2,18.2,0,0,1,.07,6.07,6.26,6.26,0,0,0,.31,2.65C711.18,610.82,711,613.43,711.05,616Z"/><path d="M577.8,729.87c-3.13-2-3.92-4.61-4.44-7.46-.6-3.32-.7-6.78-2.65-10a3.4,3.4,0,0,0-2.72-.16,12.24,12.24,0,0,1-6,.25,2.09,2.09,0,0,0-1-.12c-2.22.72-4.48.41-6.74.37-3.5,0-7,0-10.5,0-.57,0-1.14-.06-1.7,0a1.74,1.74,0,0,0-1.82,2,12.24,12.24,0,0,0,.09,1.35c0,.46.25,1,.1,1.35-1,2.62-.45,5.4-.89,8.06a16.9,16.9,0,0,1-1.15,3.89c-.81,1.91-4.08,3.39-6,2.77-2.57-.82-5.12-1.75-8-2.75-4,0-8.37-.1-12.75-.11a30.39,30.39,0,0,0-3.7.25c-2.35.29-4.68.7-7,.94-2.58.27-5.13.83-7.76.6a7,7,0,0,0-2.31.42,4.51,4.51,0,0,1-5.33-1.71c-.46-.64-.88-1.32-1.3-2a4.38,4.38,0,0,1-.38-4.51,9.31,9.31,0,0,0,.81-4.27,19.84,19.84,0,0,1,.69-4.69c.54-2.43,1.21-4.83,1.82-7.25.42-1.63.87-3.26,1.23-4.91a27.26,27.26,0,0,1,2.13-6.76c1.24-2.39.89-5.05,1-7.62.25-4.39.54-8.77,1-13.14a11.34,11.34,0,0,1,1.88-5.39,14.59,14.59,0,0,0,2-5.39,14.41,14.41,0,0,1,.6-2.28c1.92-4.71,3.05-9.68,4.83-14.44.86-2.31,1.64-4.63,2.64-6.9.84-1.92.95-4.17,1.41-6.26a17.4,17.4,0,0,1,.66-2.27c.92-2.43,1.88-4.85,2.8-7.28a6.46,6.46,0,0,0,.6-2c.1-4.16,2-7.86,3-11.81.79-3.29,1.44-6.61,2.15-9.92.17-.78.33-1.55.51-2.32.47-2,1.57-3.79,1.48-5.89s.73-3.94.57-6a11.32,11.32,0,0,1,.9-5.31,15.18,15.18,0,0,0,1.34-6.56,5.39,5.39,0,0,1,1.07-3.5,13.44,13.44,0,0,0,2.35-7.25c.18-2.13.67-4.23,1-6.21l2.09-1.76,6.81-.68c2.9-.28,5.74-1.35,8.72-.7,3.77-1.09,7.62,0,11.42-.39,2.84,1.12,5.77-.36,8.7.38,1.55.39,3.34-.27,5-.36a131.07,131.07,0,0,0,15.57-1.27,8.67,8.67,0,0,1,2.66.25c2.44.39,4.82,1,7.38.45,1.65-.39,3.4-.21,4.5,1.54a3,3,0,0,1,.48,2.87,4.26,4.26,0,0,0-.21,2c.35,2.8.8,5.6,1.18,8.4.2,1.43.28,2.87.51,4.3a20.14,20.14,0,0,0,.91,3.94c.68,1.79,1.59,3.48,2.42,5.21a8.85,8.85,0,0,1,.85,1.79,11,11,0,0,0,1.16,2.76,18.74,18.74,0,0,1,1.53,4.81c.81,4.21,1.77,8.38,2.17,12.69a36.79,36.79,0,0,0,2.51,9.85c1.13,2.93,1.88,6,2.92,9a65.44,65.44,0,0,0,2.76,6.91,79.58,79.58,0,0,1,3.43,9.21c.37,1.06.82,2.1,1.19,3.16a19.23,19.23,0,0,1,.5,2c.24,1,.47,2,.69,3,.49,2.18,1.48,4.21,1.71,6.5a33.72,33.72,0,0,0,1.53,5.53,17.57,17.57,0,0,1,.78,3.3,22.5,22.5,0,0,0,3.1,9.27,9.51,9.51,0,0,1,1.36,4.79,27.27,27.27,0,0,0,1.16,5.62,14.64,14.64,0,0,1,.71,5.35,7.49,7.49,0,0,0,.32,2.31c.06.33.34.63.34,1,.11,5.33,3,9.89,4.08,15,1.7,3.17,1.93,6.66,2.27,10.15a18.94,18.94,0,0,0,1.1,5.92,14.07,14.07,0,0,1,.53,3c.39,2.12-.26,3.54-2.21,4.3a7.65,7.65,0,0,1-3,.61c-3.16-.14-6.32-.42-9.46.2-2.48-.76-4.91,0-7.36.22a16.21,16.21,0,0,0-1.68.25c-3.23.63-6.46,1.27-9.76.46a2.2,2.2,0,0,0-1,0c-2.5.62-4.93-.12-7.4-.3-4.26-.3-8.49-.9-12.8-.49C583.51,730.09,580.55,729.87,577.8,729.87ZM555.86,622.38c-.35.28-.49.33-.52.42-.79,2.58-.94,5.35-2.32,7.77-.21.36-.09.89-.2,1.33-.8,3.28-.43,6.7-1.3,10a46.58,46.58,0,0,0-1,6.34c-.43,3.59-.93,7.18-1,10.78a31.51,31.51,0,0,1-.26,4.36,29.05,29.05,0,0,0-.17,4.25c5.8.79,11.33.92,14.07.3-.22-2.43-.34-4.9-.7-7.33s-1.09-4.85-1.47-7.3-.49-4.73-.74-7.09a29.52,29.52,0,0,1-.4-3.34,61.79,61.79,0,0,0-1.48-11.42c-.27-1.55-.51-3.11-.72-4.67S557.2,623.62,555.86,622.38Z"/><path d="M709.17,428c.13-1.86.25-3.72.38-5.58a17.33,17.33,0,0,0,.15-3c-.5-4.59,0-9.17.18-13.76a6,6,0,0,0-1.3-4.43c-1.83-2.22-1.22-4.4,1.17-6a7.12,7.12,0,0,1,3.89-1.09,45.73,45.73,0,0,0,7.78-.67c3.47-.77,6.94-.63,10.42-.69,2.47,0,5,0,7.43-.17a44.58,44.58,0,0,1,9.59.09,35.66,35.66,0,0,0,5.93-.08c2.71,0,5.43-.1,8.14-.07,3.23,0,6.46.2,9.69.21a26.88,26.88,0,0,1,9.9,1.51,8,8,0,0,0,7.16-.77c1.88-1.09,3.85-1,5.79-1s3.41,2.13,3.53,4.61c.1,2,0,4,0,6a38.18,38.18,0,0,1-.27,6.69c-.54,2.77.06,5.44.13,8.15a33,33,0,0,0,.57,4c.08.61.22,1.21.25,1.83.19,3.21.34,6.42.54,9.63.11,1.71-.18,3.28-1.66,4.31a5.76,5.76,0,0,1-4.17,1c-3.29-.3-6.68-.89-9.91.61a3.71,3.71,0,0,1-1.42,0,22,22,0,0,0-2.57,0,94.37,94.37,0,0,1-11.15.4c-4.34,0-8.68.09-13,.09-1.24,0-2.47-.15-3.7-.27-.74-.07-1.55-.44-2.2-.24-1.93.59-3.71-.2-5.47-.58a11.9,11.9,0,0,0-4.4-.3,4.39,4.39,0,0,1-1.49,0c-3.49-.78-6.92,0-10.39.33a47.45,47.45,0,0,1-10.79.21,18.45,18.45,0,0,1-6.54-2.59,4.5,4.5,0,0,1-2.31-4.38c.06-1.37,0-2.74,0-4.11Z"/><path d="M492.66,590.16c-.38-2.35-.71-4.71-1.12-7-.6-3.44.22-6.73,1-10,.13-.55.25-1.11.43-1.65,1.17-3.38.94-6.88.78-10.36-.1-2.12-1.54-3.45-3.27-5-3.53-.2-7.35-.64-11.16-.55-2.71.07-5.35-.38-8-.42-2.9,0-5.85-.83-8.74.24a5,5,0,0,1-1.69.14c-4-.05-7.94,0-11.9-.21-3.6-.19-7.18-.67-10.77-1a6.92,6.92,0,0,0-2-.11,12.76,12.76,0,0,1-4.65,0c-1.86-.28-3.81.16-5.72.2a97.14,97.14,0,0,0-12.16.92,52.93,52.93,0,0,1-6.43.09A40.83,40.83,0,0,0,396.5,557a23.89,23.89,0,0,1-8.38,1,72,72,0,0,0-9.16.29,8.73,8.73,0,0,1-4.55-1,12,12,0,0,0-3.15-1.2,3,3,0,0,0-3.26,1.34,2.88,2.88,0,0,0,0,3.51,4.84,4.84,0,0,1,.86,3.48,29.93,29.93,0,0,0,.56,6.71,24.4,24.4,0,0,1,.24,8.78,61.75,61.75,0,0,0-.75,7.42,45.7,45.7,0,0,1-1.84,11,7,7,0,0,0-.4,4,1.54,1.54,0,0,1,.07.67c-.81,3.6,0,7.24-.3,10.85a7.93,7.93,0,0,0,.36,3,40.83,40.83,0,0,1,1.57,9.33c.14,3.5.69,7,1,10.47a92.42,92.42,0,0,1,.16,12.89c-.1,2.14-.24,4.29-.48,6.42-.43,3.95-.1,7.9-.15,11.84,0,1.13-.17,2.26-.11,3.38a25.41,25.41,0,0,1-1,9.34c.63,3.81-.37,7.62.07,11.48a34.29,34.29,0,0,1-.46,8.8,41.42,41.42,0,0,0-.29,9.49c.21,2.48.22,5,.36,7.43a36,36,0,0,1,0,4.76c-.1,1.47.58,2.81.35,4.35-.3,2,1.76,3.82,3.86,3.83a1.87,1.87,0,0,0,.34,0c4.64-.93,9.2.13,13.79.5a29.9,29.9,0,0,0,9.39-.38,7.89,7.89,0,0,1,2.7,0c3.05.35,6.08.76,9-.56.43-.19,1.06.1,1.6.15a6.92,6.92,0,0,0,2.33.16c2.38-.63,4.71.27,7.07,0s4.73-.47,7.1-.58c1.69-.08,3.39.17,5.07,0a11,11,0,0,0,3.58-1,4.54,4.54,0,0,0,2.93-4.9c-.6-4.85-.18-9.7-.1-14.54a51.05,51.05,0,0,0-.72-10.45,37.76,37.76,0,0,1-.82-11.1,22.26,22.26,0,0,0-.14-4.07c-.34-3.95.49-7.93-.27-11.87.56-2.66.15-5.32.09-8a3.87,3.87,0,0,0,.8-.15c.59-.18,1.33.16,2,.22,1.12.1,2.25.25,3.37.25,3.95,0,7.91-.07,11.86-.08a88.14,88.14,0,0,0,10.15-.37,20.3,20.3,0,0,1,2.34,0,3.3,3.3,0,0,0,1.3,0c2.93-1.36,6-.83,9-.55a5.34,5.34,0,0,0,3.8-.9,4.06,4.06,0,0,0,1.51-3.93c-.18-2.92-.32-5.84-.49-8.77,0-.56-.15-1.11-.23-1.66a31,31,0,0,1-.52-3.68c-.06-2.47-.61-4.9-.11-7.42a36.26,36.26,0,0,0,.24-6.09c0-1.82.1-3.63,0-5.44-.11-2.26-1.52-4.19-3.21-4.2s-3.56-.12-5.27.87a7.32,7.32,0,0,1-6.52.7,24.49,24.49,0,0,0-9-1.37c-2.94,0-5.88-.16-8.82-.19-2.47,0-4.94,0-7.41.06-.64,0-1.29.06-1.94.1a28.55,28.55,0,0,0-.62-8c-.36-1.42-.25-2.94-.51-4.39a35.09,35.09,0,0,0-1.11-4.26c-.29-.91-.49-1.74,0-2.38a61.81,61.81,0,0,1,6.48-1,90.65,90.65,0,0,1,9.47.06,16.52,16.52,0,0,0,4,.25,5.88,5.88,0,0,1,1,.11c2.05,0,3.92,1.08,6,1s4.06-.16,6.09-.31a28.71,28.71,0,0,0,3.33-.48c2.11-.42,4.19-1,6.37-.62a6.76,6.76,0,0,0,1.35.07,30.6,30.6,0,0,1,8,.69,5.44,5.44,0,0,0,2.34.05c3.3-.78,4.16-1.78,4-5.23A61.45,61.45,0,0,0,492.66,590.16Z"/><path d="M701.75,441.74a10.58,10.58,0,0,0,0-1.49c-.38-5.32-.83-10.64-1.14-16-.2-3.33-.26-6.68-.23-10a81.89,81.89,0,0,1,.44-9.66,32,32,0,0,0,0-7.45c-.25-2.32-.34-4.66-.47-7-.11-2.11.1-4.17-.88-6.16a10.09,10.09,0,0,1-.48-2.57c-.51-2.8-1.15-5.59-1.52-8.41-.33-2.56-1.09-5.1-.49-7.76a4.68,4.68,0,0,0-.53-3.24c-.78-1.53-1.38-3.15-2.16-5a20.7,20.7,0,0,0,2-1.24c.81-.66.73-1.9-.21-2a5.72,5.72,0,0,1-4-3.11c-1.49-2.42-2.9-4.9-4.17-7.44a41.09,41.09,0,0,0-4.25-6.08c-4.1-2.57-7.26-6.42-11.66-8.59-.54-.27-1-.75-1.51-1.08-3.57-2.22-7.05-4.61-11.28-5.54a18.58,18.58,0,0,1-5.3-1.7,8.4,8.4,0,0,0-4.61-1.13,5,5,0,0,1-4.09-1.39,2.35,2.35,0,0,0-1.64-.75c-2.14.1-4.18-.55-6.27-.7-4.33-.31-8.65-1-13-.69-1.35.09-2.7.26-4.06.33-4.19.2-8.39.13-12.58.54-1.82.18-3.63.78-5.53.3a2.76,2.76,0,0,0-1.77.45c-2.52,1.36-5.34,1-8,1.47-5-.81-9.57,1.15-14.18,2.54-3.32,1-6.48,2.49-9.76,3.63a25.77,25.77,0,0,0-6.69,3.21,9.69,9.69,0,0,1-4.5,1.52,18.94,18.94,0,0,0-7.06,2.12,27.23,27.23,0,0,0-7.82,6.82,7.54,7.54,0,0,1-1.7,2,15.77,15.77,0,0,0-6.66,8.65c-1,2.68-2.59,5.12-3.53,7.8a26.68,26.68,0,0,0-1.78,8,44.44,44.44,0,0,1-1.25,8c-.36,1.69-.76,3.39-.95,5.11-.3,2.72-.47,5.45-.63,8.18-.18,3-.41,5.95-.41,8.92,0,3.72.19,7.45.33,11.17,0,1.59.23,3.18.25,4.78q.14,8.74.2,17.48c0,1.74-.12,3.47,0,5.2.18,3.31-.41,6.58.18,10,.81,4.61,2.53,9.08,2.37,13.86,0,.35.26.71.33,1.07.21,1.09.39,2.19.58,3.28s.38,2.19.55,3.29a49.73,49.73,0,0,0,2.38,9c.6,1.75,1.16,3.48,1.91,5.19,1.43,3.28,2.2,6.84,4.36,9.8.48,2.45,2.06,4.21,3.77,5.87,2.14,2.08,4.32,4.11,6.5,6.15a31.09,31.09,0,0,0,11.59,7.23,15.83,15.83,0,0,1,4.38,2,10.86,10.86,0,0,0,3.45,1.3q7.2,1.91,14.42,3.68a30.47,30.47,0,0,0,4,.65c4.81.52,9.68-.89,14.46.49a.77.77,0,0,0,.37,0c4.1-.62,8.17-.13,12.24.29a7.68,7.68,0,0,0,2.23.14c3.54-.75,7.14,0,10.72-.68,3.75-.72,7.61-.64,11.37-1.71,3.2-.92,6.63-1,9.88-1.74a37.62,37.62,0,0,0,13.5-6.08,14.56,14.56,0,0,1,2.28-1.2c2.8-1.31,5.79-2.32,8.36-4a61.92,61.92,0,0,0,7.42-6.15c1.39-1.24,2.43-3,4-3.89a13.7,13.7,0,0,0,4.23-4.1c1.37-1.91,2.81-3.77,4.14-5.71a35.66,35.66,0,0,0,3.33-5.33c1.53-3.38,2.66-6.94,4.15-10.34a12.84,12.84,0,0,0,1.31-6.85,4.64,4.64,0,0,1,.07-1.11C701.78,452.65,701.28,447.18,701.75,441.74Zm-110.62-10a7.6,7.6,0,0,1-2.18.47,37,37,0,0,0-11,1.74,2.27,2.27,0,0,1-2.89-1,2.45,2.45,0,0,0-1.81-1.13,14.23,14.23,0,0,1-7.68-4.24,32.8,32.8,0,0,1-3.51-3.87c-1.8-2.66-3.6-5.38-2.65-8.92a10.11,10.11,0,0,0,0-2.42c2.14-3.16,5.34-4.76,8.33-6.41a13.4,13.4,0,0,1,8.66-1.55,5.81,5.81,0,0,0,1.82.22c4.68-.79,9.39-.27,14.08-.41a3.76,3.76,0,0,0,1.48-.11,9.06,9.06,0,0,1,3.58-1c-.24.23-.47.46-.7.71A17.22,17.22,0,0,0,600,430a12.79,12.79,0,0,0,1.43,1.22c-.68,0-1.42-.22-2.11-.21A30.23,30.23,0,0,0,591.13,431.75Zm77.92-9.23a5.21,5.21,0,0,1-2.81,3.31,42.86,42.86,0,0,1-7,2.64c-2.62.61-5.25,1.64-8.06,1a2.89,2.89,0,0,0-1.47.18c-3.94,1.28-8.06,1.24-12.12,1.7s-7.88-.18-11.8.28a25.14,25.14,0,0,0-5.54-.47,18.27,18.27,0,0,0,6.78-10,19.1,19.1,0,0,0-5.46-18.28c3.31,1.34,6.84,1.38,10.31,1.37,2.19,0,4.35-.94,6.62-.75a23,23,0,0,0,3.32,0,9.83,9.83,0,0,0,2.55-.38,9.83,9.83,0,0,1,4-.68,3.47,3.47,0,0,0,1.81-.29c2.77-1.41,5.61-.71,8.4-.26a4.84,4.84,0,0,1,4.09,2.88,2.39,2.39,0,0,0,.61.92c2.69,2.26,3.79,5.5,5.1,8.55A11.18,11.18,0,0,1,669.05,422.52Z"/></svg>