<svg id="Camada_1" data-name="Camada 1" xmlns="http://www.w3.org/2000/svg" viewBox="0 0 1080 1080"><path d="M465.09,432.5c3.18,3.55,3.64,7.9,3.71,12.37a14.82,14.82,0,0,0,0,3.05c1.54,6.38,1.25,12.77.7,19.24-.42,4.85-1.89,9.53-2.05,14.43-.08,2.29-1.1,4.56-1.68,6.84-.94,3.71-1.62,7.48-3.25,11a73.56,73.56,0,0,1-5.13,9.7,22.54,22.54,0,0,1-7.5,6.77c-2.52,1.52-5.23,2.7-7.86,4a6.65,6.65,0,0,0-1.53.84c-3.34,3-7.52,4.6-11.07,7.22a2.79,2.79,0,0,1-1.2.55c-4.22.58-8.12,2.49-12.45,2.79a25.67,25.67,0,0,0-10.95,2.87,11.47,11.47,0,0,1-4.17,1.38c-4.39.53-8.81.86-13.22,1.24-3.8.33-7.57.69-11.36,1.31-4.16.7-8.47.89-12.67-.66-3-1.11-6.22-1.74-9.32-2.65-1.27-.37-2.49-.9-3.72-1.39a11.62,11.62,0,0,0-2.43-1c-4.09-.57-7.27-3.15-10.87-4.78a13.27,13.27,0,0,1-2.15-1.48c-.6-.43-1.15-.93-1.77-1.33-5-3.15-10-6.27-14.93-9.43a84,84,0,0,1-9.18-6.1c-2.1-1.76-3.58-4.27-5.28-6.49-.53-.69-.75-1.63-1.3-2.3-3.9-4.64-5.9-10.12-7.3-15.9a28.65,28.65,0,0,0-1.51-4.15c-.57-1.35-1.3-2.64-1.87-4-1-2.3-1.61-4.74-3.17-6.78a6.89,6.89,0,0,1-1-2.45c-.51-2-.68-4.08-2-5.84a2.83,2.83,0,0,1-.38-1.71c.15-3.25-1.51-6.28-1.12-9.57a9.23,9.23,0,0,0-.34-2.63c-.47-2.61-.89-5.23-1.49-7.82a37.21,37.21,0,0,0-1.63-5,14.31,14.31,0,0,1-.92-5.14c0-3.62.28-7.36-1.47-10.79a2.83,2.83,0,0,1-.49-1.65c1-4-.81-8.15.34-12.17-.63-3.83,0-7.6.61-11.37a13.71,13.71,0,0,1,.61-3,11.51,11.51,0,0,0,.49-6.11,14.77,14.77,0,0,1,0-3.93,21,21,0,0,1,3.54-9.89,6.08,6.08,0,0,0,1.07-3.29c0-3.35,1.25-6.37,2.4-9.36,1.37-3.59,2.86-7.06,3.29-10.95a11.84,11.84,0,0,1,1.94-5.85,3.92,3.92,0,0,0,.66-1.62c.72-4.16,2.92-7.7,4.83-11.34a20.79,20.79,0,0,1,6.68-7q2.67-1.92,5.37-3.79a13.33,13.33,0,0,1,2.58-1.72c2.85-1.12,4.77-3.47,6.94-5.39,4.32-3.82,9.14-6.84,14.47-7.9,4.33-.86,8.71-1.49,13.06-2.23.87-.15,1.74-.33,2.59-.56,2.69-.71,5.34-1.77,8.08-2.11,3.07-.38,6-1.27,8.95-1.92a25.85,25.85,0,0,1,5.7-.42c2.34,0,4.69.27,7,.47a29.64,29.64,0,0,1,5.27.61,45.23,45.23,0,0,0,10.92,1.47c2.49.07,5,.65,7.44.95a56.55,56.55,0,0,1,5.69.62,159.38,159.38,0,0,1,19.13,5.16c3.55,1.29,6.43,3.59,9.59,5.46,2.62,1.56,5.13,3.27,7.87,4.67A30.72,30.72,0,0,1,455.89,324a14,14,0,0,0,1.93,2.38,27.78,27.78,0,0,1,7.83,12.07c1,2.78,2.26,5.51,2.77,8.37.76,4.33,1.2,8.73,2,13.07a4.4,4.4,0,0,1,.1.88c-.09,4.88-.18,9.75-.31,14.62a6.2,6.2,0,0,1-.36,2.16,4,4,0,0,0,.31,3.79,8.26,8.26,0,0,1,.72,2.48q.54,2.82,1,5.65a5.39,5.39,0,0,1-4.88,5.74,29.4,29.4,0,0,1-3.1-.24,47.48,47.48,0,0,0-5.3-.42c-4.48.14-8.82-.71-13.2-1.42-2.62-.42-5.26-.64-7.9-.94a7.13,7.13,0,0,1-1.31,0c-4.72-1.6-9.58-1.16-14.44-1.16a73,73,0,0,0-11,.78c-1.6.24-3.16.69-4.73,1.07a5,5,0,0,1-6.25-3.43,3.72,3.72,0,0,1-.17-.87c-.24-4.26-.79-8.52.22-12.76.41-1.72.85-3.44,1.17-5.17a9.34,9.34,0,0,0,0-2.64c-.36-2.92-.8-5.82-.87-8.78-.05-2.22-1.54-3.78-3.24-5.06a1.92,1.92,0,0,0-1.2-.46c-2.33.34-4.63-.52-7,.23a25.28,25.28,0,0,1-6.12.58c-3.51.16-5.64,2.17-7.11,5.13-.13.26-.16.57-.27.84-1.29,2.94-2.68,5.73-2.4,9.22.25,3.18-.66,6.39-.31,9.69a113.15,113.15,0,0,1,.16,11.94,7.54,7.54,0,0,1-.42,1.7,32.63,32.63,0,0,0-.65,7.39c-.12,5,1.3,10,.95,14.95-.3,4.26.34,8.55-.56,12.77a16.76,16.76,0,0,0,.07,2.64c-.14,3.53.38,7,.14,10.59-.22,3.15.74,6.45,1.58,9.58a16.74,16.74,0,0,1,.81,4.71c-.06,6.19,2.16,11.85,4.43,17.46a5.26,5.26,0,0,0,4.8,3.42c2.5.1,5.17.41,7.48-.29,2.72-.83,5.14-2.64,7.68-4a.77.77,0,0,0,.31-.31c1.44-3.93,4.86-7.17,4.08-11.86a3.25,3.25,0,0,1-.08-.43,41.24,41.24,0,0,0-2.65-17.35,7.51,7.51,0,0,1-.31-2.18c-.18-2.74,1.69-4.8,4.27-4.16a15.06,15.06,0,0,0,7.8-.26c1.46-.38,3.19.17,4.79.39a22.32,22.32,0,0,0,6.16-.12,54.82,54.82,0,0,1,8.79-.24,10.43,10.43,0,0,0,4.7-.87c7.83-3.39,16-3.82,24.34-2.6C462.26,432.41,463.43,432.4,465.09,432.5Z"/><path d="M762.92,678.68c5.07,2.29,9.6,4,13.82,6.33,4.79,2.62,10,4.67,13.75,8.92a15.65,15.65,0,0,1,3.26,5.05,45.51,45.51,0,0,0,2,4.85,8.19,8.19,0,0,1,1.06,3.83,5.43,5.43,0,0,0,.5,2.31,23.74,23.74,0,0,1,2.05,6.93,17.54,17.54,0,0,0,1.54,5.38c1.93,4,1.69,8.05.31,12.13-.94,2.8-2.12,5.54-2.79,8.4s-2.49,5.35-3.54,8.1c-2.92,3.12-5,7-8.23,9.81-2.92,2.57-5.41,5.65-8.47,8-3.35,2.57-6.73,5.27-11.31,5.73-2.2.22-4.31,1.29-6.46,2a17.57,17.57,0,0,1-3,1.09,55.49,55.49,0,0,0-11.28,2.91,6.25,6.25,0,0,1-2.78.29c-3.91-.47-7.79.13-11.67.13a7.71,7.71,0,0,0-2.4.28,23,23,0,0,1-8.3.94,49.83,49.83,0,0,0-10,.21,17.38,17.38,0,0,1-3.59-.14,8.72,8.72,0,0,0-1.59-.15c-2.66.3-5.31.72-8,1-2.94.3-5.89.54-8.83.7-2.66.14-5.33.16-8,.21s-5.38.14-8.06.12c-2.4,0-4.84.54-7.2-.41a3.05,3.05,0,0,0-1.59-.07c-3.59.74-7.19.47-10.81.43-3.33,0-6.67.61-10,.79-6,.33-12,1.37-18.08,1a9.62,9.62,0,0,1-3.46-.85,4.19,4.19,0,0,1-2.37-3.1c-.38-2.1-1.16-4.14-.8-6.37a15.72,15.72,0,0,0-.22-2.79c0-2-.07-4,0-6,0-1.21.55-2.45.37-3.6-.53-3.45-.65-6.94-1.14-10.37a49.14,49.14,0,0,1-.45-11.23c.28-3.33.27-6.69.62-10,.64-6,.29-12,0-18-.15-3.06.62-6.18-.47-9.2a2.34,2.34,0,0,1,.13-1.18,30.34,30.34,0,0,0,.4-8c-.18-4.42-.23-8.86-.22-13.29s.22-8.59.28-12.89c0-1.33-.22-2.65-.3-4s-.2-2.69-.18-4a78.85,78.85,0,0,0-.54-12,126.59,126.59,0,0,1-1-20.43c.1-4.55,1.16-9.09.38-13.66.84-2.93,0-5.87.06-8.8,0-2.12.21-4.25.18-6.38s-.41-4-.31-6a45.57,45.57,0,0,0-.23-9.2l-2.18-2c.44-1,.8-2,1.29-3a2.85,2.85,0,0,1,2.19-1.6c4.24-.64,8.47-1.37,12.73-1.91,1.16-.15,2.39.35,3.59.39,2.79.09,5.54.62,8.37.41,2.65-.19,5.33.26,8,.24s5.6.31,8.36-.57a5.17,5.17,0,0,1,2,.2,6.85,6.85,0,0,0,2,.21c4-.76,8,.09,12.06.17a14.61,14.61,0,0,0,1.61.09c7-.6,13.94.2,20.91,0a10,10,0,0,1,3.2.32c2.51.78,5.07.56,7.61.56,5.24,0,10.47-.09,15.7-.08,1.47,0,2.94.23,4.41.35s3.22.25,4.82.41,3.51.78,5.14.48,3.15.43,4.7.68c1.2.2,2.39.45,3.59.54a40,40,0,0,1,4.68.95c3.21.62,6.08,2,9.11,3.06,2.77.93,5.55,1.87,8.31,2.84a5.58,5.58,0,0,1,2.17,1c2.25,2.24,5.17,3.49,7.93,4.62,3.57,1.46,5.77,4.27,8.34,6.72,3.47,3.33,5.22,7.74,6.79,12.18a11.66,11.66,0,0,1,.27,2.39,17.72,17.72,0,0,0,.63,4.36c1.63,4,1.38,8.16,1.24,12.32a13.84,13.84,0,0,0,.09,3.22,29.54,29.54,0,0,1-.13,10.73,7.38,7.38,0,0,1-1,2.59c-1.7,2.87-3.35,5.79-5.29,8.5a103.15,103.15,0,0,1-6.78,8.42c-1.85,2.1-4.25,3.63-6.45,5.37a20,20,0,0,0-2.77,2.31,17.5,17.5,0,0,1-7.17,5A29.64,29.64,0,0,0,762.92,678.68Zm-69.33,57a23,23,0,0,1,8.85.27,27.54,27.54,0,0,0,6.38.6c4.62-.3,8.8-2.16,12.87-4.25a2.56,2.56,0,0,0,.87-.8,26.13,26.13,0,0,0,4.51-11c.93-5.65.89-5.66-1.93-10.56a4.34,4.34,0,0,0-1.52-1.83c-2.88-1.35-5.83-2.53-8.77-3.76-.11,0-.27,0-.39,0-2.64-.48-5.33-.29-8-.53a67.8,67.8,0,0,0-7.13,0c-.79,0-1.58.11-2.37.12-2,0-2.73.69-2.62,2.59.26,4.4.66,8.78.84,13.18s.5,8.84-1.33,13.07A11.66,11.66,0,0,0,693.59,735.71Zm1.18-86.42c0,2,0,4,0,6a2.14,2.14,0,0,0,1.87,2.28,37.52,37.52,0,0,0,6,.3c2.13-.07,4.26-.7,6.36-.58a10.08,10.08,0,0,0,6.09-1.66c1.81-1.14,3.39-2.63,5.16-3.83a5.82,5.82,0,0,0,2.62-4.65,63.65,63.65,0,0,1,1.36-9.07,10.57,10.57,0,0,0,0-4.78c-.52-2.48-1.86-4.38-4.7-4.82a38.34,38.34,0,0,1-5-1.31,6.31,6.31,0,0,0-3.94-.14,4.75,4.75,0,0,1-2.73.18c-4.11-1.38-8.23.18-12.34-.15a2.1,2.1,0,0,0-2.13,2.78,21.49,21.49,0,0,1,.09,7.2,7.27,7.27,0,0,0,.36,3.14C694.92,643.14,694.7,646.23,694.77,649.29Z"/><path d="M536.61,784.44c-3.71-2.33-4.65-5.47-5.27-8.85-.71-4-.82-8.05-3.14-11.82a4.06,4.06,0,0,0-3.23-.2,14.4,14.4,0,0,1-7.17.3,2.38,2.38,0,0,0-1.19-.14c-2.63.86-5.31.48-8,.44-4.15-.06-8.31,0-12.46,0-.67,0-1.35-.07-2,0a2.08,2.08,0,0,0-2.16,2.36c0,.54.07,1.08.11,1.62s.29,1.14.12,1.59c-1.18,3.11-.53,6.41-1.06,9.57a20.61,20.61,0,0,1-1.36,4.62c-1,2.27-4.85,4-7.16,3.29-3.05-1-6.07-2.08-9.52-3.27-4.72,0-9.93-.12-15.13-.13a35.7,35.7,0,0,0-4.39.3c-2.79.34-5.56.83-8.35,1.12-3.06.31-6.08,1-9.2.71a8,8,0,0,0-2.74.49c-2.67.75-4.78.11-6.33-2-.55-.77-1-1.57-1.54-2.37a5.2,5.2,0,0,1-.46-5.35,11,11,0,0,0,1-5.07,23.58,23.58,0,0,1,.82-5.56c.64-2.89,1.44-5.74,2.17-8.61.49-1.94,1-3.88,1.45-5.83a32,32,0,0,1,2.53-8c1.47-2.84,1.06-6,1.23-9,.3-5.21.65-10.42,1.22-15.6a13.5,13.5,0,0,1,2.24-6.4,17.41,17.41,0,0,0,2.35-6.39,16.46,16.46,0,0,1,.71-2.72c2.28-5.58,3.62-11.48,5.73-17.13,1-2.74,1.95-5.49,3.13-8.19,1-2.28,1.13-5,1.68-7.44A19.29,19.29,0,0,1,452,668c1.08-2.89,2.22-5.75,3.32-8.64A7.07,7.07,0,0,0,456,657c.13-4.94,2.4-9.33,3.52-14,.93-3.9,1.7-7.85,2.54-11.78.2-.91.39-1.83.61-2.75.55-2.34,1.86-4.5,1.75-7s.87-4.68.68-7.17a13.48,13.48,0,0,1,1.07-6.3,17.89,17.89,0,0,0,1.59-7.79,6.34,6.34,0,0,1,1.27-4.15,16,16,0,0,0,2.79-8.61c.21-2.53.79-5,1.18-7.36l2.48-2.1,8.09-.8c3.45-.33,6.82-1.61,10.35-.83,4.48-1.3,9,.05,13.55-.46,3.37,1.32,6.85-.43,10.33.45,1.84.46,4-.33,6-.43a156.93,156.93,0,0,0,18.49-1.51,10.35,10.35,0,0,1,3.15.29c2.9.47,5.72,1.25,8.76.54,2-.47,4-.25,5.34,1.83a3.55,3.55,0,0,1,.57,3.41,5.25,5.25,0,0,0-.26,2.33c.42,3.33,1,6.65,1.42,10,.23,1.7.32,3.42.6,5.1a24.74,24.74,0,0,0,1.07,4.69c.81,2.11,1.9,4.12,2.87,6.17a10.36,10.36,0,0,1,1,2.13,13.16,13.16,0,0,0,1.37,3.28,22.59,22.59,0,0,1,1.83,5.7c1,5,2.09,10,2.56,15.06a43.77,43.77,0,0,0,3,11.7c1.35,3.48,2.24,7.13,3.47,10.66a77.58,77.58,0,0,0,3.28,8.21,97.67,97.67,0,0,1,4.07,10.93c.43,1.27,1,2.49,1.41,3.76.26.75.41,1.54.6,2.31q.42,1.75.81,3.51c.58,2.59,1.76,5,2,7.72.22,2.22,1.21,4.37,1.82,6.56a21,21,0,0,1,.92,3.92,26.6,26.6,0,0,0,3.69,11,11.42,11.42,0,0,1,1.61,5.69c0,2.23.85,4.45,1.37,6.66s1.14,4.14.85,6.36a8.76,8.76,0,0,0,.38,2.74c.07.39.4.75.4,1.12.13,6.33,3.63,11.74,4.84,17.77,2,3.77,2.3,7.9,2.69,12.06a22.68,22.68,0,0,0,1.31,7,16.19,16.19,0,0,1,.63,3.53c.47,2.52-.31,4.2-2.63,5.11a8.93,8.93,0,0,1-3.51.72c-3.75-.16-7.49-.5-11.22.24-2.94-.9-5.83,0-8.74.26a16.77,16.77,0,0,0-2,.3c-3.84.75-7.67,1.5-11.59.54a2.75,2.75,0,0,0-1.21,0c-3,.73-5.85-.15-8.78-.35-5-.36-10.08-1.07-15.2-.59C543.4,784.71,539.88,784.44,536.61,784.44Zm-26-127.58c-.42.33-.59.39-.62.5-.94,3.06-1.12,6.35-2.76,9.22-.24.43-.11,1.06-.24,1.58-.95,3.89-.5,8-1.54,11.86a55.79,55.79,0,0,0-1.25,7.53c-.5,4.25-1.09,8.51-1.21,12.79a37,37,0,0,1-.31,5.17,35.88,35.88,0,0,0-.2,5c6.89.94,13.45,1.09,16.7.36-.26-2.88-.39-5.81-.83-8.69s-1.29-5.77-1.74-8.68-.59-5.6-.88-8.41a35.54,35.54,0,0,1-.48-4c0-4.6-1-9.06-1.75-13.54-.32-1.85-.6-3.7-.86-5.55S512.16,658.33,510.58,656.86Z"/><path d="M692.54,426.12l.45-6.62a19.77,19.77,0,0,0,.18-3.51c-.6-5.45.05-10.89.21-16.33a7.11,7.11,0,0,0-1.54-5.26c-2.17-2.64-1.45-5.23,1.39-7.16a8.51,8.51,0,0,1,4.61-1.29,54.54,54.54,0,0,0,9.24-.8c4.12-.91,8.23-.74,12.36-.82,2.94-.06,5.89,0,8.82-.2a53.56,53.56,0,0,1,11.39.1c2.28.36,4.68-.05,7-.09,3.22-.05,6.45-.11,9.67-.08,3.83,0,7.66.23,11.49.24a32.2,32.2,0,0,1,11.76,1.8,9.54,9.54,0,0,0,8.5-.92c2.23-1.29,4.56-1.14,6.88-1.13s4,2.53,4.18,5.47c.11,2.36,0,4.73,0,7.09,0,2.66.18,5.38-.32,7.95-.65,3.29.07,6.45.15,9.67a41.47,41.47,0,0,0,.67,4.79c.11.73.26,1.45.31,2.18.22,3.81.4,7.62.64,11.43.12,2-.22,3.89-2,5.12a7,7,0,0,1-5,1.17c-3.89-.36-7.92-1.06-11.75.72a4.31,4.31,0,0,1-1.69.05,25.86,25.86,0,0,0-3.05,0,112.44,112.44,0,0,1-13.23.48c-5.16,0-10.31.11-15.46.11-1.47,0-2.93-.19-4.4-.33-.87-.08-1.84-.52-2.6-.29-2.3.7-4.4-.23-6.49-.68a14,14,0,0,0-5.23-.36,4.74,4.74,0,0,1-1.76,0c-4.15-.92-8.22,0-12.33.39s-8.51.85-12.81.25a21.81,21.81,0,0,1-7.77-3.07,5.33,5.33,0,0,1-2.74-5.2c.08-1.62,0-3.25,0-4.87Z"/><path d="M435.56,618.62c-.45-2.79-.84-5.59-1.33-8.37-.71-4.08.26-8,1.15-11.91a19.29,19.29,0,0,1,.51-2c1.39-4,1.12-8.16.93-12.29-.12-2.52-1.82-4.1-3.88-6-4.19-.24-8.73-.77-13.25-.66-3.22.08-6.35-.45-9.51-.49-3.44,0-6.94-1-10.37.27a5.56,5.56,0,0,1-2,.17c-4.71-.06-9.43,0-14.13-.25-4.27-.22-8.52-.79-12.78-1.2a8.49,8.49,0,0,0-2.4-.12,15.52,15.52,0,0,1-5.52,0c-2.2-.33-4.52.19-6.79.24a114.45,114.45,0,0,0-14.43,1.09c-2.49.37-5.08,0-7.63.1a48.49,48.49,0,0,0-12.71,2,28.38,28.38,0,0,1-9.94,1.2,84.33,84.33,0,0,0-10.88.34,10.32,10.32,0,0,1-5.4-1.25,14.71,14.71,0,0,0-3.73-1.42,3.6,3.6,0,0,0-3.87,1.59,3.41,3.41,0,0,0,0,4.16c1,1.28,1,2.61,1,4.14a35.91,35.91,0,0,0,.66,8,28.68,28.68,0,0,1,.28,10.42,72.25,72.25,0,0,0-.88,8.8,54.56,54.56,0,0,1-2.18,13c-.44,1.55-1,3.09-.48,4.75a1.66,1.66,0,0,1,.08.79c-.95,4.27,0,8.59-.35,12.87a9.3,9.3,0,0,0,.43,3.54A48.55,48.55,0,0,1,288,661.23c.17,4.15.81,8.28,1.18,12.42A111.75,111.75,0,0,1,289.4,689c-.13,2.54-.29,5.08-.57,7.61-.52,4.69-.13,9.38-.18,14.06,0,1.34-.21,2.68-.14,4a29.85,29.85,0,0,1-1.16,11.08c.74,4.53-.44,9,.09,13.63a40.85,40.85,0,0,1-.55,10.45,49.46,49.46,0,0,0-.35,11.26c.25,2.94.26,5.88.44,8.82a44.38,44.38,0,0,1,0,5.65c-.12,1.75.69,3.33.41,5.17-.35,2.39,2.1,4.53,4.59,4.53a2.8,2.8,0,0,0,.41,0c5.49-1.11,10.91.15,16.35.58a35.06,35.06,0,0,0,11.15-.45,9.6,9.6,0,0,1,3.21,0c3.62.41,7.21.9,10.73-.67.5-.22,1.26.13,1.9.19a8.72,8.72,0,0,0,2.76.18c2.82-.75,5.59.32,8.39,0s5.62-.56,8.43-.69c2-.1,4,.2,6,0a13.1,13.1,0,0,0,4.24-1.15c2.42-1.11,3.82-3.07,3.48-5.81-.7-5.76-.21-11.51-.12-17.27a60.08,60.08,0,0,0-.85-12.39,45,45,0,0,1-1-13.18,25.27,25.27,0,0,0-.17-4.83c-.4-4.69.58-9.41-.32-14.09.66-3.16.18-6.32.1-9.48a5.4,5.4,0,0,0,1-.18c.7-.22,1.58.19,2.38.26,1.33.12,2.66.29,4,.29,4.69,0,9.39-.07,14.08-.09a103.19,103.19,0,0,0,12.05-.44,23.27,23.27,0,0,1,2.77,0,3.93,3.93,0,0,0,1.54,0c3.48-1.61,7.15-1,10.7-.65a6.29,6.29,0,0,0,4.51-1.07c1.59-1.12,1.91-2.81,1.79-4.66-.21-3.47-.37-6.94-.58-10.41,0-.66-.18-1.32-.28-2a38.09,38.09,0,0,1-.61-4.36c-.07-2.93-.73-5.81-.14-8.81a41.3,41.3,0,0,0,.3-7.23c0-2.15.11-4.31,0-6.45-.13-2.68-1.81-5-3.81-5s-4.23-.15-6.26,1a8.7,8.7,0,0,1-7.74.83,29.29,29.29,0,0,0-10.7-1.63c-3.49,0-7-.19-10.47-.23-2.93,0-5.87,0-8.8.08-.76,0-1.53.06-2.3.12a34.39,34.39,0,0,0-.73-9.53c-.43-1.67-.3-3.48-.61-5.2a40.47,40.47,0,0,0-1.32-5.06c-.34-1.07-.58-2.06,0-2.82a72.81,72.81,0,0,1,7.68-1.17,105.55,105.55,0,0,1,11.25.08c1.59.09,3.15.59,4.78.29a7.21,7.21,0,0,1,1.2.13c2.43,0,4.64,1.28,7.09,1.17s4.82-.19,7.22-.36a33.15,33.15,0,0,0,4-.58c2.49-.49,5-1.16,7.55-.73a7.87,7.87,0,0,0,1.61.09,35.69,35.69,0,0,1,9.55.82,6.32,6.32,0,0,0,2.77,0c3.91-.92,4.93-2.11,4.72-6.2A71.87,71.87,0,0,0,435.56,618.62Z"/><path d="M683.73,442.46a11.63,11.63,0,0,0,0-1.77c-.45-6.32-1-12.63-1.35-18.95-.23-4-.31-7.93-.28-11.9a102,102,0,0,1,.53-11.47,37.9,37.9,0,0,0,.06-8.84c-.3-2.75-.4-5.53-.55-8.27-.14-2.51.11-4.95-1.06-7.32a11.45,11.45,0,0,1-.56-3c-.61-3.33-1.36-6.63-1.8-10-.4-3.05-1.3-6.06-.58-9.21a5.65,5.65,0,0,0-.64-3.86c-.93-1.81-1.64-3.73-2.56-5.87a24.76,24.76,0,0,0,2.39-1.48c1-.78.88-2.26-.24-2.44-2.34-.37-3.65-1.93-4.73-3.68-1.77-2.87-3.44-5.82-5-8.84-1.33-2.68-3.29-4.86-5-7.22-4.86-3-8.6-7.62-13.83-10.19a21.58,21.58,0,0,1-1.79-1.27c-4.24-2.65-8.37-5.48-13.39-6.58a22.17,22.17,0,0,1-6.29-2,10,10,0,0,0-5.47-1.35c-1.83,0-3.5-.19-4.86-1.64a2.82,2.82,0,0,0-1.94-.9c-2.54.12-5-.64-7.45-.82-5.14-.38-10.26-1.19-15.44-.83-1.61.11-3.21.32-4.82.4-5,.24-10,.15-14.92.64-2.16.21-4.32.93-6.57.35a3.34,3.34,0,0,0-2.1.54c-3,1.61-6.34,1.12-9.5,1.74-6-1-11.36,1.37-16.83,3-3.94,1.19-7.69,3-11.58,4.32a30.61,30.61,0,0,0-8,3.8,11.37,11.37,0,0,1-5.34,1.81,22.39,22.39,0,0,0-8.37,2.52,31.87,31.87,0,0,0-9.28,8.09,8.68,8.68,0,0,1-2,2.33,18.78,18.78,0,0,0-7.9,10.27c-1.12,3.18-3.07,6.07-4.19,9.25a31.85,31.85,0,0,0-2.11,9.45,51.7,51.7,0,0,1-1.49,9.49c-.42,2-.89,4-1.12,6.08-.35,3.22-.55,6.46-.75,9.7-.21,3.53-.48,7.06-.48,10.59,0,4.42.23,8.84.38,13.25.07,1.9.28,3.78.3,5.68q.17,10.37.24,20.75c0,2.06-.14,4.12,0,6.17.22,3.93-.48,7.8.22,11.82,1,5.47,3,10.78,2.82,16.45,0,.42.3.84.38,1.27.25,1.3.47,2.6.69,3.9s.46,2.6.65,3.9a59.52,59.52,0,0,0,2.83,10.65c.72,2.08,1.37,4.13,2.26,6.17,1.7,3.89,2.62,8.12,5.19,11.63.56,2.91,2.44,5,4.47,7,2.54,2.47,5.13,4.89,7.72,7.3a36.72,36.72,0,0,0,13.74,8.58,19,19,0,0,1,5.21,2.36,12.88,12.88,0,0,0,4.1,1.54q8.54,2.26,17.11,4.37a36.61,36.61,0,0,0,4.78.77c5.71.62,11.49-1,17.17.58a1.09,1.09,0,0,0,.44,0c4.86-.75,9.69-.16,14.52.34a9.14,9.14,0,0,0,2.64.16c4.2-.88,8.48,0,12.73-.81,4.45-.85,9-.76,13.5-2,3.79-1.08,7.87-1.15,11.73-2.06a44.34,44.34,0,0,0,16-7.22,17.1,17.1,0,0,1,2.72-1.42c3.32-1.55,6.86-2.75,9.92-4.72a75.24,75.24,0,0,0,8.81-7.31c1.65-1.46,2.88-3.54,4.72-4.61a16.3,16.3,0,0,0,5-4.86c1.63-2.27,3.33-4.48,4.91-6.79a43,43,0,0,0,4-6.31c1.81-4,3.15-8.24,4.92-12.28a15.32,15.32,0,0,0,1.55-8.13,6,6,0,0,1,.08-1.33C683.76,455.4,683.17,448.91,683.73,442.46ZM552.44,430.6a9.54,9.54,0,0,1-2.59.56,43.91,43.91,0,0,0-13.07,2.06,2.69,2.69,0,0,1-3.43-1.24,2.88,2.88,0,0,0-2.14-1.35,16.9,16.9,0,0,1-9.13-5,39.82,39.82,0,0,1-4.15-4.59c-2.14-3.15-4.28-6.39-3.15-10.59a12.3,12.3,0,0,0,0-2.87c2.54-3.75,6.34-5.65,9.88-7.61A16,16,0,0,1,535,398.1a7.11,7.11,0,0,0,2.16.27c5.55-.94,11.14-.33,16.71-.5a4.18,4.18,0,0,0,1.75-.12,10.71,10.71,0,0,1,4.26-1.15c-.29.28-.57.55-.83.84a21,21,0,0,0-4.12,21.11,20.77,20.77,0,0,0,8,9.93,16.86,16.86,0,0,0,1.69,1.46c-.81,0-1.68-.26-2.5-.26A35.8,35.8,0,0,0,552.44,430.6Zm92.48-11a6.19,6.19,0,0,1-3.34,3.92,49.49,49.49,0,0,1-8.26,3.13c-3.1.73-6.22,2-9.56,1.17a3.54,3.54,0,0,0-1.75.21c-4.68,1.52-9.56,1.48-14.38,2s-9.35-.21-14,.33a30.38,30.38,0,0,0-6.58-.56,21.63,21.63,0,0,0,8-11.89,22.66,22.66,0,0,0-6.48-21.69c3.93,1.59,8.12,1.63,12.24,1.62,2.6,0,5.16-1.11,7.86-.88a28.79,28.79,0,0,0,3.94,0,11.34,11.34,0,0,0,3-.46,11.87,11.87,0,0,1,4.76-.79,4.22,4.22,0,0,0,2.14-.35c3.29-1.67,6.67-.85,10-.31,2,.34,4,1.21,4.85,3.41a2.85,2.85,0,0,0,.72,1.1c3.2,2.68,4.5,6.52,6,10.14C645.52,412.89,646.14,416.21,644.92,419.65Z"/></svg>