<svg id="Camada_1" data-name="Camada 1" xmlns="http://www.w3.org/2000/svg" viewBox="0 0 1080 1080"><path d="M940,717.71a6.25,6.25,0,0,0,0-1.06c-.27-3.74-.58-7.48-.8-11.23-.14-2.35-.18-4.7-.16-7a59.48,59.48,0,0,1,.31-6.81,22.32,22.32,0,0,0,0-5.23c-.17-1.64-.23-3.28-.32-4.91s.06-2.93-.63-4.34a7,7,0,0,1-.33-1.8c-.36-2-.81-3.93-1.07-5.92-.24-1.8-.77-3.59-.34-5.46a3.36,3.36,0,0,0-.38-2.28c-.55-1.08-1-2.22-1.52-3.49a14.91,14.91,0,0,0,1.42-.87c.57-.47.52-1.34-.15-1.45a4,4,0,0,1-2.8-2.18c-1-1.71-2-3.45-2.93-5.24a27.85,27.85,0,0,0-3-4.28c-2.88-1.81-5.1-4.52-8.2-6-.38-.19-.69-.53-1.06-.76-2.51-1.57-5-3.25-7.94-3.9a13.14,13.14,0,0,1-3.73-1.2,6,6,0,0,0-3.24-.8,3.5,3.5,0,0,1-2.88-1,1.65,1.65,0,0,0-1.15-.53,38.06,38.06,0,0,1-4.42-.49,63.55,63.55,0,0,0-9.15-.49c-1,.07-1.91.19-2.86.23-2.95.15-5.9.1-8.85.39-1.28.12-2.56.55-3.89.2a2,2,0,0,0-1.25.32c-1.77,1-3.76.67-5.63,1-3.53-.57-6.73.82-10,1.79-2.33.7-4.56,1.75-6.87,2.56a18.38,18.38,0,0,0-4.71,2.25,6.77,6.77,0,0,1-3.16,1.08,13.23,13.23,0,0,0-5,1.49,19.08,19.08,0,0,0-5.5,4.8,5.19,5.19,0,0,1-1.2,1.38,11.1,11.1,0,0,0-4.68,6.09c-.67,1.88-1.83,3.59-2.49,5.48a18.92,18.92,0,0,0-1.25,5.6,31,31,0,0,1-.88,5.63c-.25,1.2-.53,2.39-.67,3.6-.21,1.91-.33,3.84-.44,5.76-.13,2.09-.29,4.18-.29,6.27,0,2.62.14,5.24.23,7.86,0,1.12.16,2.24.18,3.37q.09,6.15.14,12.3c0,1.22-.08,2.44,0,3.66.13,2.33-.28,4.62.13,7,.57,3.25,1.78,6.4,1.67,9.76,0,.25.18.5.23.75.15.77.28,1.54.41,2.31s.27,1.54.38,2.32a35.38,35.38,0,0,0,1.68,6.31c.43,1.23.82,2.45,1.34,3.66,1,2.3,1.55,4.81,3.08,6.89a7.91,7.91,0,0,0,2.65,4.13c1.5,1.47,3,2.9,4.57,4.33a22.09,22.09,0,0,0,8.15,5.09,11.45,11.45,0,0,1,3.09,1.39,7.65,7.65,0,0,0,2.43.92q5.07,1.34,10.15,2.59a22.25,22.25,0,0,0,2.83.46c3.38.36,6.81-.63,10.18.34a.75.75,0,0,0,.26,0,34,34,0,0,1,8.61.2,5.58,5.58,0,0,0,1.57.1c2.49-.53,5,0,7.54-.48s5.36-.45,8-1.21c2.26-.64,4.67-.68,7-1.22a26.2,26.2,0,0,0,9.49-4.28,10.7,10.7,0,0,1,1.61-.84,48.91,48.91,0,0,0,5.89-2.8,45.41,45.41,0,0,0,5.22-4.33c1-.87,1.7-2.1,2.8-2.74a9.51,9.51,0,0,0,3-2.88c1-1.34,2-2.66,2.92-4a25.75,25.75,0,0,0,2.34-3.75c1.08-2.38,1.87-4.88,2.92-7.27a9.12,9.12,0,0,0,.92-4.83,3.45,3.45,0,0,1,0-.78C940,725.38,939.64,721.53,940,717.71Zm-77.84-7a5.69,5.69,0,0,1-1.54.34,25.83,25.83,0,0,0-7.75,1.22,1.59,1.59,0,0,1-2-.74,1.74,1.74,0,0,0-1.27-.8,10,10,0,0,1-5.41-3,23.42,23.42,0,0,1-2.47-2.72c-1.26-1.87-2.53-3.79-1.86-6.28a7.3,7.3,0,0,0,0-1.7c1.5-2.23,3.75-3.35,5.86-4.51a9.36,9.36,0,0,1,6.09-1.09,4.13,4.13,0,0,0,1.29.15c3.29-.55,6.6-.19,9.9-.29a2.53,2.53,0,0,0,1-.07,6.2,6.2,0,0,1,2.52-.68c-.17.16-.33.32-.49.5a12.45,12.45,0,0,0-2.44,12.51,12.31,12.31,0,0,0,4.75,5.89,9.07,9.07,0,0,0,1,.86c-.48,0-1-.15-1.48-.15A21.68,21.68,0,0,0,862.14,710.67ZM917,704.18a3.66,3.66,0,0,1-2,2.33,29.66,29.66,0,0,1-4.9,1.85c-1.84.44-3.69,1.16-5.67.7a2,2,0,0,0-1,.12c-2.77.9-5.67.87-8.52,1.2s-5.55-.13-8.31.2a18.22,18.22,0,0,0-3.89-.34,12.82,12.82,0,0,0,4.76-7,13.42,13.42,0,0,0-3.84-12.86,18.85,18.85,0,0,0,7.26,1c1.54,0,3.06-.66,4.66-.52a16.47,16.47,0,0,0,2.33,0,6.75,6.75,0,0,0,1.8-.26,7,7,0,0,1,2.82-.48,2.49,2.49,0,0,0,1.27-.2c1.95-1,3.95-.5,5.91-.18a3.39,3.39,0,0,1,2.88,2,1.89,1.89,0,0,0,.43.65c1.9,1.59,2.67,3.86,3.59,6A7.81,7.81,0,0,1,917,704.18Z"/><path d="M678.78,722.22a14.58,14.58,0,0,0-.16,2.72c.39,2.77,1,5.52,1.31,8.29a28,28,0,0,1,.21,5.49c-.16,2.26-.62,4.49-.95,6.74a46.56,46.56,0,0,0-.14,8.35c0,1.39.08,2.79.09,4.18s0,2.61-.07,3.91a2.81,2.81,0,0,1-.18,1.28,3.18,3.18,0,0,0,0,2.53c.44,1.68,0,2.52-1.6,3a26,26,0,0,1-7.95,1.49c-3.24,0-6.41-.59-9.66-.51-3.49.09-7-.26-10.47.2-1.87.26-3.62-.34-5.43-.34-1.48,0-2.95-.13-4.42-.23-.52,0-1-.15-1.54-.24-.17,0-.34-.24-.47-.21-2,.39-3.72-.71-5.61-.86s-2.38-.95-2.37-2.51c0-.6,0-1.2.06-1.8a41.64,41.64,0,0,0,.07-5,13.68,13.68,0,0,1,.11-3.39,8,8,0,0,0,0-4.38,1,1,0,0,1,0-.52c.32-3.34-.57-6.6-.63-9.91a70.39,70.39,0,0,1-.12-8.09,34.73,34.73,0,0,0-.17-5.48,135.82,135.82,0,0,1,0-14.69c.05-1.22.31-2.43.38-3.64a11.87,11.87,0,0,0-.09-2.86c-.48-2.31-.3-4.66-.64-7-.23-1.59.45-2.94.93-4.3a6.83,6.83,0,0,0,.19-4.09,9.13,9.13,0,0,1-.16-3.64,11.4,11.4,0,0,0,0-3.64c-.26-1.73-.18-3.5-.38-5.24a16.86,16.86,0,0,1,.59-7.22,10.68,10.68,0,0,0,.11-4.44c-.2-1.47-.1-2.94-.28-4.4-.09-.7-.18-1.39-.29-2.07,0-.26-.26-.53-.21-.75.52-2.12-.15-4.17-.32-6.25a5.83,5.83,0,0,1,.09-1.56,3.61,3.61,0,0,0-.15-2.32,2,2,0,0,1,0-1.51,2.69,2.69,0,0,0,0-1.54c-.74-2-.34-4-.26-6a4.51,4.51,0,0,1,.4-1.51,2.17,2.17,0,0,1,3.4-1.09,8.67,8.67,0,0,1,1.08,1c2.27-.2,4.61-.5,6.95-.59,3.16-.11,6.31,0,9.47-.07a16.14,16.14,0,0,0,1.84,0,19.16,19.16,0,0,1,4.14-.49,29.91,29.91,0,0,0,3.9,0c1.91,0,3.84,0,5.74.2a7.44,7.44,0,0,0,2.86-.08,2,2,0,0,1,.78-.06,41.35,41.35,0,0,0,5.18.4c2.7-.12,5.44.37,8.09-.41,1.41-.42,2.79,0,4.17.1a9.79,9.79,0,0,0,2.86.07,2.56,2.56,0,0,1,1.29,0,5.4,5.4,0,0,0,3.11,0,6.28,6.28,0,0,1,1.79-.11c2.27.07,4.53.47,6.8,0a5.28,5.28,0,0,1,1.29.13c1.22.08,2.45.11,3.67.19.69,0,1.38.18,2.07.25s1.2.09,1.8.13,1,0,1.51.1a5.3,5.3,0,0,0,1.54.2c1.35-.29,2.6.2,3.89.36,1.47.17,2.95.37,4.4.66,1,.21,2,.56,3,.87a20,20,0,0,1,9.55,6.56,53.42,53.42,0,0,0,5.45,5.61A38.28,38.28,0,0,1,744,657a1.18,1.18,0,0,1,.28.72c0,1.29.67,2.33,1.06,3.48a66.34,66.34,0,0,1,1.8,6.53c.57,2.53.33,5.06.4,7.58a19.38,19.38,0,0,1-.76,4.34,14,14,0,0,1-1.37,3.94,14,14,0,0,0-.83,2.21,11.82,11.82,0,0,1-1.46,3,30.42,30.42,0,0,0-1.93,3.72c-.2.38-.32.91-.64,1.11a12.11,12.11,0,0,0-3.15,3.43,6.06,6.06,0,0,1-2.11,1.52c-1.9,1.06-3.82,2.09-5.69,3.21-1.41.84-2.72,1.83-4.13,2.71,3.86,2.34,7.58,4.45,11.14,6.8a10.77,10.77,0,0,1,4.34,5.09c.74,1.86,1.8,3.57,1.92,5.64a2.07,2.07,0,0,0,.32,1c1.05,1.47,1,3.15.86,4.79a7.15,7.15,0,0,0,.31,2.56,16.28,16.28,0,0,1,.58,3.61c.11,2.09.08,4.19.1,6.29a5.65,5.65,0,0,0,0,1.3c.65,2.25.21,4.52.2,6.78,0,.35-.2.72-.12,1,.54,2.33.12,4.69.32,7a8,8,0,0,0,2.26,5.14,31.32,31.32,0,0,0,3.43,2.86c1.65,1.23,1.69,1.24,1,3.47a5.32,5.32,0,0,1-4,.63c-1.18,1.18-2.58.68-4,.55a21.32,21.32,0,0,0-3.39,0c-1.56.12-3.12.35-4.68.51a2.62,2.62,0,0,1-.79,0c-2.34-.42-4.68,0-7,0a16.71,16.71,0,0,1-3.35-.54,12.66,12.66,0,0,0-5.19-.36c-1.59.31-3.06-.49-4.65-.34-2.34.21-4.7.26-7.05.37a5.75,5.75,0,0,0-2.94,1,3,3,0,0,1-2.72.2,5.56,5.56,0,0,1-4-5c-.16-1-.14-2.1-.21-3.15s-.14-2.26-.23-3.39c0-.35-.24-.7-.2-1,.48-3.48-.48-6.92-.28-10.4a39.76,39.76,0,0,0-.27-6.81c-.21-1.72-.85-3.38-1.21-5.08a66.25,66.25,0,0,0-2.12-7.56,6.91,6.91,0,0,0-3.51-4.34c-1.32-.66-2.5-1.62-4.1-1.54a2,2,0,0,1-1-.29,4.88,4.88,0,0,0-5.22.34C679.67,721.83,679.35,722,678.78,722.22Zm1.4-30.58a35,35,0,0,1,4.78-.79,21,21,0,0,0,4.11-.6,11.79,11.79,0,0,0,6.93-3.79,7.85,7.85,0,0,0,1.9-3.34c.27-1.27.37-2.58.52-3.87a2.29,2.29,0,0,0-.12-.77c-.16-.67-.29-1.36-.5-2A39.72,39.72,0,0,0,696,671.3c-1-2.13-2.62-3.68-5.26-3.65-.78,0-1.57-.23-2.35-.19a35.5,35.5,0,0,1-7.57-.23c-.38-.06-.81.24-1.27.39A57.77,57.77,0,0,0,679,676c0,1.84.14,3.67.1,5.5s.46,3.79.14,5.71a22.68,22.68,0,0,0-.08,2.34A2.11,2.11,0,0,0,680.18,691.64Z"/><path d="M349.19,769.75c-2.42-1.51-3-3.56-3.43-5.76-.47-2.57-.54-5.24-2.05-7.7a2.63,2.63,0,0,0-2.1-.12,9.36,9.36,0,0,1-4.67.19,1.54,1.54,0,0,0-.78-.09c-1.71.56-3.46.31-5.21.29-2.7,0-5.41,0-8.11,0-.44,0-.88,0-1.32,0a1.36,1.36,0,0,0-1.4,1.54,9.26,9.26,0,0,0,.07,1c0,.35.19.75.08,1-.77,2-.35,4.17-.69,6.23a13.71,13.71,0,0,1-.89,3,4.49,4.49,0,0,1-4.66,2.14c-2-.63-4-1.35-6.21-2.12-3.07,0-6.46-.09-9.85-.09a25,25,0,0,0-2.86.19c-1.81.22-3.62.54-5.43.73a30.87,30.87,0,0,1-6,.46,5.09,5.09,0,0,0-1.78.33,3.49,3.49,0,0,1-4.12-1.32c-.36-.5-.69-1-1-1.55a3.37,3.37,0,0,1-.29-3.48,7.18,7.18,0,0,0,.62-3.3,15.45,15.45,0,0,1,.53-3.62c.42-1.88.94-3.74,1.42-5.61.32-1.26.66-2.52.94-3.8a21,21,0,0,1,1.65-5.22c1-1.85.69-3.91.8-5.89.2-3.39.42-6.78.8-10.16a8.7,8.7,0,0,1,1.45-4.16,11.35,11.35,0,0,0,1.54-4.17,10.59,10.59,0,0,1,.46-1.76c1.48-3.64,2.36-7.48,3.73-11.16.66-1.79,1.27-3.58,2-5.33a26.5,26.5,0,0,0,1.09-4.85,13.46,13.46,0,0,1,.51-1.75c.71-1.88,1.45-3.75,2.17-5.63a5.29,5.29,0,0,0,.46-1.5c.08-3.22,1.55-6.08,2.28-9.13.61-2.55,1.11-5.12,1.66-7.67.13-.6.25-1.2.4-1.79.36-1.53,1.21-2.94,1.14-4.56s.56-3,.44-4.67a8.62,8.62,0,0,1,.7-4.1,11.75,11.75,0,0,0,1-5.07,4.14,4.14,0,0,1,.83-2.71,10.51,10.51,0,0,0,1.82-5.61c.13-1.64.51-3.26.76-4.79l1.62-1.36,5.27-.52c2.24-.22,4.44-1,6.74-.55,2.91-.84,5.89,0,8.82-.3,2.2.86,4.47-.28,6.73.29,1.2.31,2.59-.21,3.89-.27a101.09,101.09,0,0,0,12-1,6.62,6.62,0,0,1,2.06.2c1.89.3,3.72.81,5.7.34a3,3,0,0,1,3.48,1.2,2.3,2.3,0,0,1,.37,2.22,3.39,3.39,0,0,0-.17,1.52c.28,2.16.63,4.32.92,6.49.16,1.1.22,2.22.4,3.32a15.71,15.71,0,0,0,.7,3.05c.52,1.38,1.23,2.69,1.87,4a6.24,6.24,0,0,1,.65,1.39,9.16,9.16,0,0,0,.9,2.14,14.89,14.89,0,0,1,1.19,3.71c.63,3.25,1.36,6.48,1.67,9.81a28.31,28.31,0,0,0,1.94,7.61c.88,2.27,1.46,4.65,2.26,7a50.32,50.32,0,0,0,2.13,5.34,62.85,62.85,0,0,1,2.66,7.12c.28.83.63,1.62.91,2.45.17.49.27,1,.39,1.5.18.76.36,1.53.53,2.29.38,1.69,1.15,3.25,1.32,5a27.73,27.73,0,0,0,1.19,4.27,13.48,13.48,0,0,1,.6,2.55,17.24,17.24,0,0,0,2.4,7.16,7.46,7.46,0,0,1,1.05,3.71,21.46,21.46,0,0,0,.89,4.34,11.33,11.33,0,0,1,.55,4.14,6.17,6.17,0,0,0,.25,1.78c.05.26.26.49.27.74.08,4.12,2.36,7.64,3.15,11.57,1.32,2.45,1.49,5.15,1.75,7.85a14.71,14.71,0,0,0,.85,4.57,10.65,10.65,0,0,1,.41,2.29,2.62,2.62,0,0,1-1.71,3.33,5.9,5.9,0,0,1-2.29.47,30.31,30.31,0,0,0-7.31.16c-1.91-.59-3.79,0-5.69.17a11.47,11.47,0,0,0-1.29.19c-2.5.49-5,1-7.55.36a1.63,1.63,0,0,0-.79,0c-1.93.48-3.81-.09-5.71-.23a59.51,59.51,0,0,0-9.9-.38C353.61,769.93,351.32,769.75,349.19,769.75Zm-17-83.08c-.27.22-.38.26-.4.32-.61,2-.73,4.14-1.79,6-.16.28-.08.69-.16,1-.62,2.53-.33,5.18-1,7.72a35.29,35.29,0,0,0-.82,4.9c-.33,2.77-.71,5.55-.79,8.33a23.55,23.55,0,0,1-.2,3.37,22.83,22.83,0,0,0-.13,3.28c4.49.62,8.76.72,10.88.24-.17-1.88-.26-3.78-.54-5.66s-.84-3.76-1.14-5.65-.38-3.65-.57-5.48a22.69,22.69,0,0,1-.31-2.58,47.76,47.76,0,0,0-1.14-8.83c-.21-1.2-.4-2.4-.56-3.61A5.12,5.12,0,0,0,332.23,686.67Z"/><path d="M410.64,671.93l-11.13.23c-1.62.64-3.26.23-4.91.17-1.92-.07-3.85.13-5.77.21a21.72,21.72,0,0,0-8.19,1.56,1.86,1.86,0,0,1-2.27-.85,8.94,8.94,0,0,1-1.51-5.18,13.29,13.29,0,0,0-.16-3.38,8.08,8.08,0,0,1,.26-3.1c.29-1.45.74-2.87,1-4.33a6.65,6.65,0,0,1,.8-2.46,2.73,2.73,0,0,0,.4-1.74,59.74,59.74,0,0,1-.63-7.32,9,9,0,0,0-.39-1.25c-.17-.94-.32-1.89-.41-2.85a5.89,5.89,0,0,1,1.94-4.7,2.25,2.25,0,0,1,1.36-.66c2-.13,3.9-1,5.95-.83a8.73,8.73,0,0,0,1.79-.31,5.3,5.3,0,0,1,1.53-.09,5.44,5.44,0,0,0,3.09-.17,8.19,8.19,0,0,1,2.29-.12c3.22-.21,6.48-.21,9.67-.71,2.62-.41,5.22.2,7.81-.26a6,6,0,0,1,2.08.21,62.85,62.85,0,0,0,9.59.67c5,.19,10-.52,15-.07a22.45,22.45,0,0,0,3.91-.29,6.44,6.44,0,0,1,1.56-.15c2.17.32,4.32-.12,6.48-.09a51.27,51.27,0,0,0,6.56-.05c1.92-.22,3.83-.23,5.75-.34a61.44,61.44,0,0,1,9.69.31,23,23,0,0,0,5.5.07,32.48,32.48,0,0,1,3.41.06c2.95-.09,5.9-.23,9-.35l1.45.9c.15.09.38.18.41.31.44,1.87,2.26,3.45,1.26,5.64a4.68,4.68,0,0,0-.35,3.06,2.07,2.07,0,0,1,0,1.05c-.7,1.87-.39,3.84-.24,5.7.14,1.67-.35,3.33,0,4.9s-.1,3.31,0,4.95a42,42,0,0,0,.51,5.14,14.13,14.13,0,0,0,1.12,2.79,2.56,2.56,0,0,1-1,2.14,4.59,4.59,0,0,1-3.24.81c-.52-.1-1-.17-1.55-.28a16.19,16.19,0,0,0-6.72.15,3.47,3.47,0,0,1-1.52.14,18.48,18.48,0,0,0-5.75,0c-1.22.09-2.44.28-3.66.3a31.45,31.45,0,0,0-5.22.46c-1,.18-2.08.18-3.25.27a14.73,14.73,0,0,0-.3,1.5c-.15,2-.27,4-.41,6a5.17,5.17,0,0,1-.18,1,29.09,29.09,0,0,0-.81,8.57c0,1.56.29,3.13.4,4.69s.23,3.32.25,5a9,9,0,0,0,.6,3.6,3.86,3.86,0,0,1,.45,1.75,40.86,40.86,0,0,0-.05,5.19,11.13,11.13,0,0,0,.08,3.1,1.62,1.62,0,0,1,0,.79c-.62,2.37-.42,4.86-1.09,7.26a12.52,12.52,0,0,0-.08,4.28,3.44,3.44,0,0,1-.26,2.52c-.14.2-.3.57-.21.71,1,1.54-.12,3.07,0,4.61s-.19,3-.11,4.45c.2,3.49-.48,7,.15,10.48a12.38,12.38,0,0,1,0,2.36,33.28,33.28,0,0,0,.32,6.54,12.41,12.41,0,0,1,0,2.36c0,.52,0,1,0,1.56.09,1.56.27,3.12.29,4.68a2.74,2.74,0,0,1-2.27,2.82,13.09,13.09,0,0,1-4.66.52,4.77,4.77,0,0,0-1.81,0c-2.72,1-5.5.7-8.28.67a28.19,28.19,0,0,1-6.29-.25,3.25,3.25,0,0,0-1.3.12c-2.56.53-5.23.38-7.75,1.18a1.58,1.58,0,0,1-.52.09c-2.89,0-5.78.23-8.66.07a31.84,31.84,0,0,1-5.92-.5,2.34,2.34,0,0,0-1.5.27,2.37,2.37,0,0,1-2,.14c-2-.64-2.27-1-2.18-3.23.07-1.74,0-3.49.06-5.23.07-2.08.25-4.15.34-6.23s.17-4,.18-6a6.28,6.28,0,0,1,.29-2.32,3.23,3.23,0,0,0,.17-1.54,34.7,34.7,0,0,1,.46-9.91c.51-3.08.79-6.2,1.06-9.32.13-1.47.41-2.91.43-4.42,0-2.11-.24-4.18-.39-6.26s-.26-4-.33-6c-.09-2.7-.06-5.42-1-8a9.85,9.85,0,0,1-.17-2.33c-.18-1.65-.44-3.29-.59-4.94a40.51,40.51,0,0,1-.08-9.4,94.2,94.2,0,0,0,.56-9.91C410.83,674.22,410.7,673.19,410.64,671.93Z"/><path d="M808.8,639.74a5.39,5.39,0,0,1,1,3.51,61.32,61.32,0,0,1-.71,8.67c-.35,1.84-.9,3.66-1.1,5.51a42,42,0,0,0-.17,10c.27,2,.11,4.08.19,6.12,0,1,.19,2,.3,3.06a7.28,7.28,0,0,1,.16,1.52,7,7,0,0,0,.46,4.27.78.78,0,0,1,.07.5c-.37,2,.18,4.07.06,6.1a1.48,1.48,0,0,0,0,.51c.69,2.2.17,4.4.09,6.61s-.17,4.44-.13,6.67a36.46,36.46,0,0,0,1,8.89,5.51,5.51,0,0,1,.28,1.78c-.19,2.37.62,4.74,0,7.12.39,2.16-.2,4.23-.58,6.32a1.47,1.47,0,0,0,0,.51c.64,3.23-.26,6.46.14,9.72.32,2.59-.08,5.27-.15,7.9a13.49,13.49,0,0,0,.32,5.1,2.4,2.4,0,0,1,.09.76c.25,4.09.49,8.17.75,12.26,0,.59.21,1.18.28,1.78a6.74,6.74,0,0,1-1.06,4.67,2.49,2.49,0,0,1-2.14,1.27,32.1,32.1,0,0,1-4.7,0,35.21,35.21,0,0,1-4.88-.71,2,2,0,0,0-.77,0,34.24,34.24,0,0,1-9.1-.18,11.93,11.93,0,0,0-7.17,1,3.27,3.27,0,0,1-1.22.41c-1.73.11-3.46.2-5.2.21a18.09,18.09,0,0,1-3.11-.29,21.65,21.65,0,0,1-5.34-1.2,1.34,1.34,0,0,0-.52-.1h-5.63a15.09,15.09,0,0,1-1.29-1.81,2.94,2.94,0,0,1-.26-1.47c.07-1.36.21-2.71.32-4.06a3.4,3.4,0,0,1,.1-1,20.43,20.43,0,0,0,1.06-5,9.91,9.91,0,0,0,.21-2.5c-.31-3.57-.45-7.16-.75-10.74a13.75,13.75,0,0,0-.81-4,15,15,0,0,1-.61-6.85,77.2,77.2,0,0,0-.19-12.54,2.35,2.35,0,0,1-.06-.51,43.68,43.68,0,0,1,.72-7.08,20.47,20.47,0,0,0,.31-6.37c-.1-1.78,0-3.56,0-5.32,0-2.39.12-4.78,0-7.17a28.16,28.16,0,0,1,.19-4.59,4.46,4.46,0,0,0-.12-2,3.68,3.68,0,0,1-.05-1.52c.14-1.44.63-2.85.21-4.33-.08-.28.17-.64.25-1,.11-.5.43-1.08.28-1.49-.51-1.44.53-2.87-.09-4.29-.11-.26.11-.65.16-1a7.09,7.09,0,0,0,.19-1.51c-.17-2.38.27-4.79-.37-7.14a2.85,2.85,0,0,1-.07-.51c-.28-3.06-.55-6.13-.86-9.19-.14-1.36-.43-2.7-.54-4.06a41.69,41.69,0,0,1-.13-4.87,8,8,0,0,0-.71-4.5,2.38,2.38,0,0,1,.36-2.65,4.93,4.93,0,0,1,4.71-2.23,3.56,3.56,0,0,0,1.79-.07c1.71-.88,3.44-.46,5.12-.14a12.81,12.81,0,0,0,3.09.24,23.47,23.47,0,0,1,3.64.27,56.09,56.09,0,0,1,11.29,2.2,21.68,21.68,0,0,0,9.57.77,52.5,52.5,0,0,1,7.54-.58C806,639.35,807.36,639.12,808.8,639.74Z"/><path d="M462.69,543c3.31,1.49,6.26,2.62,9,4.12,3.12,1.71,6.51,3,9,5.81a10.15,10.15,0,0,1,2.12,3.29,31.09,31.09,0,0,0,1.27,3.16,5.19,5.19,0,0,1,.7,2.49,3.46,3.46,0,0,0,.33,1.51,15.51,15.51,0,0,1,1.33,4.51,11.39,11.39,0,0,0,1,3.5,10.08,10.08,0,0,1,.21,7.9,56.72,56.72,0,0,0-1.82,5.48c-.45,1.92-1.63,3.47-2.31,5.27-1.9,2-3.24,4.52-5.36,6.39-1.9,1.67-3.52,3.67-5.52,5.21-2.18,1.67-4.38,3.43-7.36,3.73a20.06,20.06,0,0,0-4.21,1.31,12.48,12.48,0,0,1-2,.71,35.75,35.75,0,0,0-7.35,1.89,4,4,0,0,1-1.81.19c-2.54-.31-5.06.09-7.6.09a5.09,5.09,0,0,0-1.56.18,14.91,14.91,0,0,1-5.4.61,33,33,0,0,0-6.51.13,10.26,10.26,0,0,1-2.34-.09,6.15,6.15,0,0,0-1-.09c-1.74.2-3.46.47-5.19.64q-2.88.3-5.76.46c-1.73.09-3.46.1-5.2.14s-3.5.09-5.25.08c-1.56,0-3.15.34-4.69-.27a2,2,0,0,0-1-.05,32.52,32.52,0,0,1-7,.28c-2.17,0-4.34.4-6.52.52-3.93.21-7.83.89-11.78.66a6.48,6.48,0,0,1-2.25-.56,2.72,2.72,0,0,1-1.54-2,11.85,11.85,0,0,1-.52-4.15,10.36,10.36,0,0,0-.14-1.82c0-1.29-.05-2.59,0-3.89a12.73,12.73,0,0,0,.24-2.34c-.35-2.25-.42-4.52-.74-6.76a31.41,31.41,0,0,1-.3-7.31c.19-2.17.18-4.36.41-6.52a76.81,76.81,0,0,0,0-11.75c-.1-2,.4-4-.31-6a1.58,1.58,0,0,1,.08-.76,19.87,19.87,0,0,0,.27-5.22c-.12-2.89-.15-5.78-.14-8.67s.14-5.59.17-8.39c0-.86-.14-1.72-.19-2.59s-.13-1.75-.12-2.62a51,51,0,0,0-.35-7.81,83.21,83.21,0,0,1-.68-13.3c.07-3,.76-5.93.25-8.91.55-1.9,0-3.81,0-5.72,0-1.39.14-2.77.12-4.16s-.27-2.61-.2-3.9a30,30,0,0,0-.15-6l-1.43-1.3c.29-.68.53-1.33.85-1.94a1.87,1.87,0,0,1,1.43-1c2.76-.42,5.51-.89,8.28-1.25a15.81,15.81,0,0,1,2.34.26,52.07,52.07,0,0,0,5.45.27c1.73-.13,3.47.17,5.23.15a17.51,17.51,0,0,0,5.45-.37,3.44,3.44,0,0,1,1.29.13,4.18,4.18,0,0,0,1.3.14c2.63-.49,5.24.06,7.85.11a9.37,9.37,0,0,0,1.05.06c4.54-.39,9.08.13,13.62,0a6.58,6.58,0,0,1,2.08.21,16,16,0,0,0,5,.36c3.41,0,6.82-.06,10.22-.05,1,0,1.92.15,2.88.23s2.09.16,3.13.27a12.53,12.53,0,0,0,3.35.31,8.12,8.12,0,0,1,3.06.45c.78.12,1.56.28,2.34.35a25.72,25.72,0,0,1,3.05.61,47.44,47.44,0,0,1,5.93,2c1.81.61,3.61,1.22,5.41,1.85a3.89,3.89,0,0,1,1.42.67,15.14,15.14,0,0,0,5.16,3c2.33.95,3.76,2.78,5.43,4.38,2.26,2.16,3.4,5,4.42,7.93a7.15,7.15,0,0,1,.18,1.55,11.39,11.39,0,0,0,.41,2.84c1.06,2.62.9,5.32.81,8a8.58,8.58,0,0,0,.06,2.09,19.32,19.32,0,0,1-.09,7,4.92,4.92,0,0,1-.62,1.69c-1.11,1.87-2.19,3.77-3.45,5.54a70,70,0,0,1-4.41,5.48,32,32,0,0,1-4.2,3.49,12.6,12.6,0,0,0-1.81,1.51,11.3,11.3,0,0,1-4.67,3.28A19.64,19.64,0,0,0,462.69,543Zm-45.15,37.14a15.11,15.11,0,0,1,5.77.17,17.69,17.69,0,0,0,4.15.39,21.43,21.43,0,0,0,8.38-2.76,1.61,1.61,0,0,0,.57-.53,16.88,16.88,0,0,0,2.93-7.16c.61-3.67.59-3.68-1.25-6.88a2.84,2.84,0,0,0-1-1.18c-1.88-.88-3.8-1.65-5.71-2.45-.07,0-.18,0-.26,0-1.72-.31-3.47-.19-5.17-.34a42.22,42.22,0,0,0-4.64,0c-.52,0-1,.07-1.55.08-1.32,0-1.78.45-1.71,1.69.18,2.86.44,5.71.55,8.58s.32,5.76-.87,8.51A7.86,7.86,0,0,0,417.54,580.15Zm.77-56.28c0,1.3,0,2.6,0,3.9a1.39,1.39,0,0,0,1.22,1.48,23.12,23.12,0,0,0,3.9.2c1.38-.05,2.77-.45,4.14-.38a6.58,6.58,0,0,0,4-1.08c1.18-.74,2.21-1.71,3.37-2.49a3.83,3.83,0,0,0,1.7-3,41.15,41.15,0,0,1,.89-5.91,7.09,7.09,0,0,0,0-3.11,3.56,3.56,0,0,0-3.06-3.14,23.63,23.63,0,0,1-3.28-.86,4.22,4.22,0,0,0-2.56-.09,3,3,0,0,1-1.78.12c-2.68-.9-5.36.12-8-.1a1.37,1.37,0,0,0-1.38,1.81,13.94,13.94,0,0,1,0,4.69,4.89,4.89,0,0,0,.24,2C418.41,519.86,418.26,521.88,418.31,523.87Z"/><path d="M197.87,724.6a14.62,14.62,0,0,0-.15,2.73c.38,2.77,1,5.51,1.31,8.29a28,28,0,0,1,.2,5.49c-.16,2.25-.62,4.49-.95,6.73a46.69,46.69,0,0,0-.14,8.36c.05,1.39.09,2.79.09,4.18s0,2.61-.06,3.91a3.16,3.16,0,0,1-.18,1.28,3.18,3.18,0,0,0,0,2.53c.45,1.67,0,2.51-1.59,3a26,26,0,0,1-7.95,1.48c-3.24,0-6.41-.59-9.66-.5-3.49.09-7-.27-10.48.2-1.87.25-3.61-.34-5.43-.34-1.47,0-2.94-.14-4.42-.24a13.67,13.67,0,0,1-1.54-.24c-.16,0-.33-.24-.47-.21-2,.4-3.72-.7-5.6-.86s-2.39-.94-2.38-2.5c0-.61.06-1.21.07-1.81a41.57,41.57,0,0,0,.06-5,14.19,14.19,0,0,1,.11-3.39,8,8,0,0,0,0-4.38,1.29,1.29,0,0,1,0-.52c.32-3.34-.57-6.6-.63-9.9a72.91,72.91,0,0,1-.11-8.1,34.58,34.58,0,0,0-.18-5.47,138.43,138.43,0,0,1,0-14.69c.06-1.22.31-2.43.38-3.65a10.85,10.85,0,0,0-.09-2.85c-.47-2.31-.29-4.67-.63-7-.24-1.6.44-2.94.92-4.3a6.87,6.87,0,0,0,.2-4.1,8.77,8.77,0,0,1-.16-3.64,12,12,0,0,0,0-3.64c-.27-1.72-.18-3.5-.38-5.23a16.89,16.89,0,0,1,.58-7.23,10.47,10.47,0,0,0,.11-4.43c-.19-1.48-.1-2.95-.28-4.41-.08-.69-.17-1.38-.28-2.07,0-.25-.26-.52-.21-.74.51-2.12-.16-4.17-.32-6.25a6.34,6.34,0,0,1,.08-1.57,3.68,3.68,0,0,0-.14-2.32,2,2,0,0,1,0-1.51,2.69,2.69,0,0,0,0-1.54c-.74-2-.34-4-.26-6a4.53,4.53,0,0,1,.41-1.51,2.16,2.16,0,0,1,3.39-1.1,9.67,9.67,0,0,1,1.08,1c2.27-.2,4.61-.5,7-.58,3.15-.11,6.31-.06,9.46-.07.62,0,1.24.08,1.84,0a18.06,18.06,0,0,1,4.14-.49,30,30,0,0,0,3.91,0c1.91,0,3.83,0,5.74.21a7.39,7.39,0,0,0,2.85-.09,2.29,2.29,0,0,1,.78-.06,43.36,43.36,0,0,0,5.19.41c2.7-.13,5.43.37,8.09-.42,1.41-.41,2.79,0,4.17.11a9.77,9.77,0,0,0,2.86.06,2.68,2.68,0,0,1,1.29,0,5.45,5.45,0,0,0,3.1,0,6.35,6.35,0,0,1,1.8-.11c2.26.06,4.52.46,6.79,0a4.91,4.91,0,0,1,1.3.13c1.22.07,2.44.11,3.66.19.69,0,1.38.17,2.07.24s1.2.1,1.8.14,1,0,1.52.1a5.62,5.62,0,0,0,1.54.2c1.35-.3,2.6.2,3.89.35,1.47.18,2.94.38,4.4.67a29.44,29.44,0,0,1,3,.87,19.91,19.91,0,0,1,9.54,6.56,53.52,53.52,0,0,0,5.46,5.61,38.44,38.44,0,0,1,3.85,4.63,1.18,1.18,0,0,1,.27.71c0,1.29.68,2.33,1.06,3.48.71,2.15,1.31,4.32,1.81,6.54.56,2.52.33,5,.39,7.58a18.15,18.15,0,0,1-.76,4.33,13.93,13.93,0,0,1-1.37,3.95,12.4,12.4,0,0,0-.82,2.21,12.36,12.36,0,0,1-1.47,3,34.25,34.25,0,0,0-1.93,3.71c-.19.39-.32.92-.64,1.11a12,12,0,0,0-3.14,3.44,6,6,0,0,1-2.11,1.51c-1.91,1.06-3.82,2.1-5.7,3.22-1.4.83-2.71,1.82-4.12,2.71,3.86,2.34,7.57,4.45,11.13,6.8a10.71,10.71,0,0,1,4.35,5.08c.74,1.87,1.79,3.58,1.92,5.65a1.91,1.91,0,0,0,.32,1c1,1.47,1,3.15.85,4.8a6.89,6.89,0,0,0,.32,2.55,15.79,15.79,0,0,1,.57,3.62c.11,2.09.08,4.19.11,6.28a4.79,4.79,0,0,0,0,1.31c.64,2.25.21,4.52.19,6.77,0,.35-.19.72-.12,1,.54,2.33.13,4.7.33,7a7.94,7.94,0,0,0,2.26,5.14,32.29,32.29,0,0,0,3.42,2.85c1.65,1.24,1.69,1.24,1,3.48a5.35,5.35,0,0,1-4,.62c-1.18,1.19-2.57.68-3.95.56a19.08,19.08,0,0,0-3.38,0c-1.57.11-3.12.34-4.68.51a3,3,0,0,1-.79,0c-2.34-.43-4.68,0-7-.05a16.81,16.81,0,0,1-3.35-.53,12.65,12.65,0,0,0-5.19-.37c-1.59.31-3.06-.48-4.64-.34-2.34.22-4.7.27-7.06.37a5.81,5.81,0,0,0-2.93,1,2.92,2.92,0,0,1-2.72.2c-2.54-.77-3.66-2.56-4-5-.17-1-.14-2.09-.21-3.14s-.14-2.27-.24-3.4c0-.34-.24-.7-.19-1,.47-3.48-.49-6.91-.28-10.4a38.78,38.78,0,0,0-.28-6.81c-.2-1.72-.85-3.37-1.21-5.08a68.76,68.76,0,0,0-2.11-7.55,7,7,0,0,0-3.52-4.35c-1.31-.66-2.49-1.62-4.09-1.53a2.21,2.21,0,0,1-1-.29,4.91,4.91,0,0,0-5.22.33A11.58,11.58,0,0,1,197.87,724.6ZM199.28,694a36.09,36.09,0,0,1,4.77-.78,21.9,21.9,0,0,0,4.12-.6,11.91,11.91,0,0,0,6.93-3.79,7.89,7.89,0,0,0,1.89-3.34c.27-1.27.38-2.58.53-3.88a2.29,2.29,0,0,0-.13-.76c-.16-.68-.29-1.36-.5-2a39.18,39.18,0,0,0-1.76-5.16c-1-2.13-2.63-3.69-5.26-3.66-.79,0-1.58-.22-2.35-.18a35.58,35.58,0,0,1-7.58-.24c-.37-.06-.8.24-1.26.39a57.81,57.81,0,0,0-.6,8.38c0,1.83.13,3.67.1,5.5s.45,3.79.14,5.7a20.43,20.43,0,0,0-.09,2.35A2.12,2.12,0,0,0,199.28,694Z"/><path d="M251.07,390.47c1.89,2.11,2.16,4.69,2.21,7.33a8.53,8.53,0,0,0,0,1.82,35.18,35.18,0,0,1,.41,11.4c-.24,2.88-1.12,5.65-1.21,8.56a19.81,19.81,0,0,1-1,4.05,37.67,37.67,0,0,1-1.92,6.54,45,45,0,0,1-3,5.75,13.4,13.4,0,0,1-4.46,4c-1.49.9-3.1,1.6-4.65,2.39a4,4,0,0,0-.91.5c-2,1.75-4.46,2.73-6.56,4.28a1.67,1.67,0,0,1-.72.32c-2.5.35-4.81,1.48-7.38,1.66a15.21,15.21,0,0,0-6.49,1.7,6.74,6.74,0,0,1-2.47.82c-2.61.31-5.22.51-7.84.73-2.25.2-4.49.41-6.73.78a14.49,14.49,0,0,1-7.52-.39c-1.79-.66-3.68-1-5.52-1.57-.75-.22-1.48-.53-2.2-.82a6.73,6.73,0,0,0-1.45-.62c-2.42-.34-4.31-1.87-6.44-2.84a8.26,8.26,0,0,1-1.28-.87c-.35-.26-.68-.56-1-.79L164,439.62a50.37,50.37,0,0,1-5.44-3.62,23.17,23.17,0,0,1-3.13-3.85c-.32-.41-.44-1-.77-1.36a22.34,22.34,0,0,1-4.33-9.43,16.16,16.16,0,0,0-.9-2.46c-.33-.8-.76-1.56-1.1-2.36a17.81,17.81,0,0,0-1.88-4,4,4,0,0,1-.59-1.45,9.53,9.53,0,0,0-1.17-3.46,1.64,1.64,0,0,1-.22-1c.09-1.93-.9-3.73-.67-5.68a5.2,5.2,0,0,0-.2-1.55c-.28-1.55-.53-3.11-.88-4.64a22.53,22.53,0,0,0-1-3,8.45,8.45,0,0,1-.54-3.05c0-2.14.16-4.36-.88-6.39a1.73,1.73,0,0,1-.29-1c.59-2.4-.48-4.83.21-7.22a21.21,21.21,0,0,1,.36-6.74,8.24,8.24,0,0,1,.36-1.79,6.8,6.8,0,0,0,.29-3.62,8.65,8.65,0,0,1,0-2.33,12.54,12.54,0,0,1,2.1-5.87,3.57,3.57,0,0,0,.64-1.95,15.27,15.27,0,0,1,1.42-5.54,26.64,26.64,0,0,0,1.95-6.5,7,7,0,0,1,1.15-3.46,2.36,2.36,0,0,0,.39-1c.43-2.46,1.73-4.56,2.86-6.72a12.47,12.47,0,0,1,4-4.15c1.06-.76,2.12-1.5,3.19-2.25a7.5,7.5,0,0,1,1.53-1c1.69-.67,2.83-2.06,4.11-3.2a18.66,18.66,0,0,1,8.58-4.68c2.57-.51,5.17-.89,7.75-1.33.51-.09,1-.19,1.53-.33a37.53,37.53,0,0,1,4.79-1.25c1.82-.22,3.54-.75,5.31-1.14a15.8,15.8,0,0,1,3.37-.25c1.4,0,2.79.16,4.18.28a17.05,17.05,0,0,1,3.12.37,27.78,27.78,0,0,0,6.48.87c1.47,0,2.93.38,4.41.56,1.12.14,2.27.11,3.37.36a93.1,93.1,0,0,1,11.34,3.07,34.22,34.22,0,0,1,5.69,3.23c1.55.92,3,1.94,4.66,2.77a18.21,18.21,0,0,1,6.47,5.62,8,8,0,0,0,1.14,1.42,16.41,16.41,0,0,1,4.65,7.16,32,32,0,0,1,1.64,5c.45,2.56.71,5.17,1.16,7.75a2.31,2.31,0,0,1,.06.52q-.08,4.34-.18,8.67a3.45,3.45,0,0,1-.22,1.28,2.35,2.35,0,0,0,.19,2.24,4.88,4.88,0,0,1,.42,1.47c.21,1.12.41,2.23.57,3.35a3.19,3.19,0,0,1-2.89,3.41,16.3,16.3,0,0,1-1.84-.15,27.65,27.65,0,0,0-3.14-.24,40.36,40.36,0,0,1-7.83-.85c-1.55-.25-3.12-.38-4.68-.55a4,4,0,0,1-.78,0c-2.8-.94-5.68-.68-8.56-.68a42.79,42.79,0,0,0-6.5.46c-.94.14-1.87.41-2.8.63a3,3,0,0,1-3.71-2,2.28,2.28,0,0,1-.1-.52c-.14-2.52-.47-5.05.13-7.56.25-1,.51-2,.69-3.07a5.1,5.1,0,0,0,0-1.56c-.21-1.73-.47-3.45-.51-5.21a4,4,0,0,0-1.92-3,1.15,1.15,0,0,0-.72-.27c-1.38.2-2.74-.31-4.16.13a14.53,14.53,0,0,1-3.63.35,4.78,4.78,0,0,0-4.21,3c-.08.16-.1.34-.17.5-.76,1.74-1.58,3.4-1.42,5.47.15,1.88-.39,3.78-.18,5.74a69.6,69.6,0,0,1,.1,7.08,4.18,4.18,0,0,1-.26,1,20.05,20.05,0,0,0-.38,4.38c-.07,3,.77,5.92.56,8.86-.18,2.53.2,5.07-.33,7.58a10.26,10.26,0,0,0,0,1.56c-.08,2.09.23,4.16.08,6.28a17.84,17.84,0,0,0,.94,5.68,9.78,9.78,0,0,1,.48,2.79c0,3.67,1.28,7,2.63,10.35a3.11,3.11,0,0,0,2.85,2,13.62,13.62,0,0,0,4.43-.18,24.72,24.72,0,0,0,4.55-2.38.42.42,0,0,0,.19-.18c.85-2.33,2.88-4.25,2.42-7a1.19,1.19,0,0,1,0-.26,24.53,24.53,0,0,0-1.57-10.28,4.64,4.64,0,0,1-.19-1.3c-.1-1.62,1-2.84,2.53-2.46a9.08,9.08,0,0,0,4.63-.15,7.53,7.53,0,0,1,2.84.23,13.14,13.14,0,0,0,3.65-.08,33.5,33.5,0,0,1,5.21-.14,6.24,6.24,0,0,0,2.79-.51,26.08,26.08,0,0,1,14.43-1.55C249.4,390.42,250.09,390.41,251.07,390.47Z"/><path d="M315.31,610.14c-2.42-1.51-3-3.56-3.43-5.76-.47-2.57-.54-5.24-2.05-7.7a2.62,2.62,0,0,0-2.1-.12,9.47,9.47,0,0,1-4.67.19,1.67,1.67,0,0,0-.78-.1c-1.71.57-3.46.32-5.2.3-2.71-.05-5.42,0-8.12,0-.44,0-.88-.05-1.31,0a1.36,1.36,0,0,0-1.41,1.54,9.26,9.26,0,0,0,.07,1c0,.35.19.74.08,1-.77,2-.35,4.17-.69,6.23a13.18,13.18,0,0,1-.89,3,4.51,4.51,0,0,1-4.66,2.14c-2-.63-4-1.35-6.2-2.13-3.08,0-6.47-.08-9.86-.08a22.89,22.89,0,0,0-2.86.19c-1.81.22-3.61.54-5.43.73a31.57,31.57,0,0,1-6,.46,5.1,5.1,0,0,0-1.79.33,3.49,3.49,0,0,1-4.12-1.32c-.36-.5-.68-1-1-1.55a3.37,3.37,0,0,1-.29-3.48,7.2,7.2,0,0,0,.62-3.3,16,16,0,0,1,.53-3.62c.43-1.88.94-3.74,1.42-5.61.32-1.26.66-2.52,1-3.8a20.44,20.44,0,0,1,1.64-5.22c1-1.85.69-3.91.8-5.89.2-3.39.42-6.78.8-10.16a8.81,8.81,0,0,1,1.45-4.16,11.41,11.41,0,0,0,1.54-4.17,10.34,10.34,0,0,1,.46-1.76c1.48-3.64,2.36-7.48,3.73-11.16.67-1.79,1.27-3.58,2-5.34a25.43,25.43,0,0,0,1.09-4.84,13.5,13.5,0,0,1,.52-1.75c.7-1.88,1.45-3.75,2.16-5.63a4.72,4.72,0,0,0,.46-1.5c.08-3.22,1.56-6.08,2.29-9.13.6-2.55,1.1-5.12,1.65-7.67.13-.6.26-1.2.4-1.8.36-1.52,1.21-2.93,1.14-4.55s.56-3,.44-4.67a8.73,8.73,0,0,1,.7-4.1,11.62,11.62,0,0,0,1-5.08,4.24,4.24,0,0,1,.83-2.7,10.43,10.43,0,0,0,1.82-5.61c.13-1.64.51-3.27.77-4.79l1.61-1.37,5.27-.52c2.24-.21,4.44-1,6.74-.54,2.92-.84,5.89,0,8.82-.3,2.2.86,4.47-.28,6.73.29,1.2.31,2.59-.21,3.9-.27a103.4,103.4,0,0,0,12-1,6.57,6.57,0,0,1,2.05.19c1.89.31,3.73.82,5.7.35a3,3,0,0,1,3.48,1.2,2.32,2.32,0,0,1,.38,2.21,3.18,3.18,0,0,0-.17,1.53c.27,2.16.62,4.32.92,6.48.15,1.11.21,2.23.39,3.33a15.71,15.71,0,0,0,.7,3.05c.53,1.38,1.23,2.69,1.87,4a6.77,6.77,0,0,1,.66,1.39,8.88,8.88,0,0,0,.89,2.13,14.68,14.68,0,0,1,1.19,3.72,97.51,97.51,0,0,1,1.67,9.81,28.4,28.4,0,0,0,1.94,7.61c.88,2.27,1.46,4.65,2.26,7a50.39,50.39,0,0,0,2.14,5.34,62.79,62.79,0,0,1,2.65,7.12c.28.82.63,1.62.92,2.45.16.49.27,1,.39,1.5.18.76.35,1.53.52,2.29a42.08,42.08,0,0,1,1.33,5,26.72,26.72,0,0,0,1.18,4.28,13.48,13.48,0,0,1,.6,2.55,17.38,17.38,0,0,0,2.4,7.16,7.57,7.57,0,0,1,1.06,3.71,20.8,20.8,0,0,0,.89,4.34,11.33,11.33,0,0,1,.55,4.14,5.83,5.83,0,0,0,.24,1.78c0,.26.26.49.27.74.08,4.12,2.36,7.64,3.15,11.57,1.32,2.45,1.49,5.14,1.75,7.85a14.54,14.54,0,0,0,.86,4.57,10.65,10.65,0,0,1,.4,2.29,2.62,2.62,0,0,1-1.71,3.33,5.85,5.85,0,0,1-2.28.47,30.3,30.3,0,0,0-7.31.16c-1.92-.59-3.8,0-5.69.17a11.31,11.31,0,0,0-1.3.19c-2.5.49-5,1-7.55.35a1.71,1.71,0,0,0-.78,0c-1.94.48-3.82-.1-5.72-.23a59.47,59.47,0,0,0-9.9-.38C319.73,610.32,317.44,610.14,315.31,610.14Zm-16.95-83.08c-.28.21-.39.25-.41.32-.61,2-.73,4.14-1.79,6-.16.29-.07.7-.16,1-.62,2.53-.33,5.18-1,7.72a35,35,0,0,0-.81,4.9c-.33,2.77-.72,5.55-.8,8.33a25.1,25.1,0,0,1-.19,3.37,22.8,22.8,0,0,0-.14,3.28c4.49.62,8.76.72,10.88.24-.17-1.88-.26-3.79-.54-5.66s-.84-3.76-1.14-5.65-.38-3.65-.57-5.48a22.69,22.69,0,0,1-.31-2.58,47.76,47.76,0,0,0-1.14-8.83c-.21-1.2-.39-2.4-.56-3.61A5.06,5.06,0,0,0,298.36,527.06Z"/><path d="M194.89,575.44a47.85,47.85,0,0,0,5,.76,68.94,68.94,0,0,0,7.33-.05,12.43,12.43,0,0,1,3.11-.19c.25,0,.52-.09.79-.08,1.58,0,3-.84,4.61-.77s3.14.13,4.7.24a20.29,20.29,0,0,1,2.58.37,13.4,13.4,0,0,0,4.92.48,5.25,5.25,0,0,1,1-.06,23.17,23.17,0,0,0,6.21-.53,4.1,4.1,0,0,1,1.81,0c2.55.6,3.21,1.37,3.08,4a47.94,47.94,0,0,1-.83,5.17c-.3,1.82-.55,3.64-.87,5.45-.46,2.66.17,5.2.75,7.75.1.43.19.86.33,1.28.91,2.61.73,5.31.61,8-.08,1.64-1.19,2.67-2.53,3.88-2.73.15-5.68.5-8.63.42-2.09,0-4.13.3-6.19.32-2.24,0-4.52.65-6.76-.18a3.72,3.72,0,0,0-1.3-.1c-3.07,0-6.14,0-9.2.16-2.78.14-5.55.51-8.32.78a5.58,5.58,0,0,1-1.57.08,9.85,9.85,0,0,0-3.59,0,27.4,27.4,0,0,1-4.42-.16,73.92,73.92,0,0,1-9.4-.71,41.1,41.1,0,0,0-5-.07,31.49,31.49,0,0,1-8.28-1.29,18.53,18.53,0,0,0-6.47-.78,55.89,55.89,0,0,1-7.08-.22,6.6,6.6,0,0,0-3.52.81,9.57,9.57,0,0,1-2.43.92,2.33,2.33,0,0,1-2.52-1,2.22,2.22,0,0,1,0-2.71,3.81,3.81,0,0,0,.67-2.7,22.71,22.71,0,0,1,.43-5.18,18.87,18.87,0,0,0,.18-6.79,48.13,48.13,0,0,1-.57-5.73,35.66,35.66,0,0,0-1.43-8.47,5.48,5.48,0,0,1-.31-3.1,1.16,1.16,0,0,0,.06-.52c-.63-2.78,0-5.59-.24-8.38a6.23,6.23,0,0,1,.29-2.3,31.79,31.79,0,0,0,1.21-7.21c.11-2.7.53-5.39.77-8.09a72.11,72.11,0,0,0,.12-10c-.09-1.65-.19-3.31-.37-5-.34-3-.08-6.1-.12-9.15,0-.87-.13-1.75-.09-2.62a19.51,19.51,0,0,0-.75-7.21c.48-2.95-.29-5.89.05-8.88a26.36,26.36,0,0,0-.35-6.8,31.64,31.64,0,0,1-.23-7.33c.16-1.92.17-3.84.28-5.75a28.24,28.24,0,0,0,0-3.68c-.08-1.14.45-2.17.27-3.36-.23-1.56,1.37-3,3-3a1.11,1.11,0,0,1,.26,0c3.58.72,7.11-.11,10.65-.39a23,23,0,0,1,7.27.3,6.31,6.31,0,0,0,2.08,0c2.36-.26,4.7-.58,7,.44.33.15.82-.08,1.24-.12a5.56,5.56,0,0,1,1.8-.12c1.84.49,3.64-.21,5.46,0s3.66.36,5.49.45c1.31.06,2.62-.13,3.92,0a8.33,8.33,0,0,1,2.76.75,3.49,3.49,0,0,1,2.27,3.78c-.46,3.75-.13,7.5-.08,11.25a39.23,39.23,0,0,1-.55,8.07,29.62,29.62,0,0,0-.64,8.58,17.39,17.39,0,0,1-.1,3.14c-.26,3.06.38,6.14-.21,9.18.43,2.09.1,4.18.06,6.27a1.12,1.12,0,0,0,.06.52c1.1,2,.39,4.11.73,6.15a4.72,4.72,0,0,1,0,1.3c-.13,1.31-.27,2.59.63,3.76a2.93,2.93,0,0,1,.4,1.51c.16,3.13.45,6.24.3,9.38-.1,2.17.13,4.36.07,6.53-.09,3.31.41,6.63-.44,9.92-.27,1.09-.19,2.27-.39,3.39a28.93,28.93,0,0,1-.86,3.29C194.66,574.3,194.5,575,194.89,575.44Z"/><path d="M387,391.66l.27-3.92a13.31,13.31,0,0,0,.11-2.08,68.12,68.12,0,0,1,.12-9.69,4.14,4.14,0,0,0-.92-3.11c-1.28-1.57-.86-3.1.83-4.25a5,5,0,0,1,2.73-.77,32.09,32.09,0,0,0,5.48-.47,36.84,36.84,0,0,1,7.33-.49c1.74,0,3.49,0,5.23-.12a32.41,32.41,0,0,1,6.75.07,25.3,25.3,0,0,0,4.17-.06c1.91,0,3.82-.07,5.73,0,2.27,0,4.55.14,6.82.15a19.21,19.21,0,0,1,7,1.06,5.64,5.64,0,0,0,5-.54,7.44,7.44,0,0,1,4.07-.67c1.31,0,2.4,1.5,2.49,3.24.06,1.4,0,2.81,0,4.21a27.34,27.34,0,0,1-.19,4.71c-.39,1.95,0,3.82.09,5.73a22.83,22.83,0,0,0,.4,2.84c.06.43.15.86.18,1.29.13,2.26.24,4.52.38,6.78a3.16,3.16,0,0,1-1.17,3,4.13,4.13,0,0,1-2.94.69c-2.31-.22-4.7-.63-7,.43a2.55,2.55,0,0,1-1,0,15.61,15.61,0,0,0-1.81,0,66.2,66.2,0,0,1-7.84.28c-3.06,0-6.11.06-9.17.06-.87,0-1.74-.11-2.6-.19-.52,0-1.09-.31-1.55-.17-1.36.41-2.61-.14-3.85-.4a8.09,8.09,0,0,0-3.09-.22,3.09,3.09,0,0,1-1,0c-2.46-.55-4.87,0-7.31.23a33.28,33.28,0,0,1-7.6.15,13,13,0,0,1-4.6-1.82,3.15,3.15,0,0,1-1.62-3.08c0-1,0-1.93,0-2.89Z"/><path d="M623.79,552.63l.27-3.92a12.14,12.14,0,0,0,.11-2.08c-.36-3.24,0-6.46.12-9.69a4.17,4.17,0,0,0-.91-3.11c-1.29-1.57-.86-3.1.82-4.25a5.13,5.13,0,0,1,2.74-.77,31.27,31.27,0,0,0,5.48-.47,36.79,36.79,0,0,1,7.32-.49c1.75,0,3.49,0,5.23-.11a31.73,31.73,0,0,1,6.75.06,24.25,24.25,0,0,0,4.17-.06c1.91,0,3.82-.06,5.73,0,2.28,0,4.55.14,6.82.15a19,19,0,0,1,7,1.07,5.67,5.67,0,0,0,5-.55,7.47,7.47,0,0,1,4.08-.67c1.3,0,2.4,1.5,2.48,3.24.07,1.4,0,2.81,0,4.21a27.34,27.34,0,0,1-.19,4.71c-.38,1.95,0,3.82.09,5.73a22.83,22.83,0,0,0,.4,2.84c.06.43.15.86.18,1.29.13,2.26.24,4.52.38,6.78a3.16,3.16,0,0,1-1.17,3,4.13,4.13,0,0,1-2.94.69c-2.31-.21-4.7-.62-7,.43a2.6,2.6,0,0,1-1,0,15.44,15.44,0,0,0-1.8,0,66.37,66.37,0,0,1-7.85.28c-3.06,0-6.11.07-9.17.06-.86,0-1.73-.11-2.6-.19-.52,0-1.09-.31-1.55-.17-1.36.42-2.61-.14-3.84-.4a8.35,8.35,0,0,0-3.1-.22,2.85,2.85,0,0,1-1,0c-2.46-.55-4.87,0-7.31.23a32.64,32.64,0,0,1-7.59.15,12.94,12.94,0,0,1-4.61-1.82,3.17,3.17,0,0,1-1.62-3.08c0-1,0-1.93,0-2.89Z"/><path d="M623,704.69c-.14-2.35-.18-4.7-.16-7.05a59.48,59.48,0,0,1,.31-6.81,22.32,22.32,0,0,0,0-5.23c-.17-1.64-.23-3.28-.32-4.91s.06-2.93-.63-4.34a7,7,0,0,1-.33-1.8c-.36-2-.81-3.93-1.07-5.92-.24-1.8-.77-3.59-.34-5.46a3.36,3.36,0,0,0-.38-2.28c-.55-1.08-1-2.22-1.52-3.49a14.91,14.91,0,0,0,1.42-.87c.57-.47.52-1.34-.15-1.45a4,4,0,0,1-2.8-2.18c-1.05-1.71-2-3.45-2.93-5.24a28.5,28.5,0,0,0-3-4.28c-2.89-1.81-5.11-4.52-8.2-6a13,13,0,0,1-1.07-.76c-2.51-1.57-5-3.25-7.94-3.9a13.14,13.14,0,0,1-3.73-1.2,6,6,0,0,0-3.24-.8,3.51,3.51,0,0,1-2.88-1,1.69,1.69,0,0,0-1.15-.53,38.06,38.06,0,0,1-4.42-.49,63.55,63.55,0,0,0-9.15-.49c-.95.07-1.9.19-2.86.23l-1.95.07,0,0a5,5,0,0,0,1.62-2c.08-.3.43-.52.65-.8a17.18,17.18,0,0,0,1-1.38c1.11-1.71,2.18-3.44,3.28-5.15a48.26,48.26,0,0,0,2.67-4.49,9.1,9.1,0,0,1,.65-1c.12-.19.32-.37.34-.57a5,5,0,0,1,.2-.81c1.76-.32,3.58-.44,5.32-.85a26.41,26.41,0,0,0,9.5-4.28,9.1,9.1,0,0,1,1.61-.84,51.19,51.19,0,0,0,5.88-2.8,43.85,43.85,0,0,0,5.22-4.34c1-.87,1.71-2.1,2.8-2.73a9.77,9.77,0,0,0,3-2.88c1-1.35,2-2.66,2.91-4a26,26,0,0,0,2.35-3.74c1.07-2.38,1.86-4.89,2.92-7.28a9.16,9.16,0,0,0,.92-4.82,3,3,0,0,1,0-.79c.46-3.82.11-7.67.44-11.49a7.36,7.36,0,0,0,0-1c-.27-3.75-.59-7.49-.81-11.24-.13-2.34-.18-4.7-.16-7.05a59.31,59.31,0,0,1,.31-6.8,22.41,22.41,0,0,0,0-5.24c-.18-1.63-.24-3.28-.33-4.91s.07-2.93-.62-4.33a7,7,0,0,1-.34-1.8c-.36-2-.8-3.94-1.07-5.93-.23-1.8-.77-3.59-.34-5.45a3.33,3.33,0,0,0-.38-2.29c-.55-1.07-1-2.21-1.52-3.48a14.54,14.54,0,0,0,1.42-.88c.58-.46.52-1.34-.14-1.44a4,4,0,0,1-2.8-2.19c-1.05-1.7-2.05-3.45-2.94-5.24a29,29,0,0,0-3-4.28c-2.89-1.8-5.1-4.52-8.2-6A11.35,11.35,0,0,1,596,481c-2.52-1.56-5-3.24-7.94-3.9a13.4,13.4,0,0,1-3.74-1.19,5.81,5.81,0,0,0-3.24-.8,3.46,3.46,0,0,1-2.87-1,1.78,1.78,0,0,0-1.16-.53,35.83,35.83,0,0,1-4.41-.49,65.24,65.24,0,0,0-9.16-.49c-1,.07-1.9.19-2.85.24-2.95.14-5.91.09-8.85.38a10.85,10.85,0,0,1-3.9.21,2,2,0,0,0-1.24.32c-1.78.95-3.76.66-5.64,1-3.53-.57-6.73.81-10,1.79-2.34.7-4.57,1.75-6.87,2.55a18.41,18.41,0,0,0-4.71,2.26,6.8,6.8,0,0,1-3.17,1.07,13.31,13.31,0,0,0-5,1.49,19,19,0,0,0-5.5,4.8,5.38,5.38,0,0,1-1.2,1.38,11.15,11.15,0,0,0-4.69,6.09c-.66,1.89-1.82,3.6-2.48,5.49a18.61,18.61,0,0,0-1.25,5.6,31,31,0,0,1-.89,5.63c-.25,1.19-.53,2.39-.66,3.6-.21,1.91-.33,3.83-.45,5.75-.12,2.09-.28,4.19-.28,6.28,0,2.62.13,5.24.23,7.86,0,1.12.16,2.24.17,3.36q.11,6.15.14,12.3c0,1.22-.08,2.45,0,3.66.13,2.33-.29,4.63.13,7,.56,3.24,1.78,6.39,1.67,9.76,0,.24.18.49.23.75.14.76.27,1.54.4,2.31s.27,1.54.39,2.31a35.48,35.48,0,0,0,1.68,6.32c.42,1.23.81,2.45,1.34,3.65,1,2.31,1.55,4.82,3.07,6.9a8,8,0,0,0,2.65,4.13c1.51,1.46,3,2.89,4.58,4.32a21.68,21.68,0,0,0,8.15,5.09,11.12,11.12,0,0,1,3.08,1.4,7.82,7.82,0,0,0,2.43.91q5.07,1.33,10.15,2.59a20.75,20.75,0,0,0,2.84.46c3.38.37,6.81-.63,10.17.35a.57.57,0,0,0,.26,0l.63-.07a7.29,7.29,0,0,1-.87,1.29A21.13,21.13,0,0,0,545,619c-.57,1-1.21,2-1.82,3a24,24,0,0,0-2.37,4.27,21.72,21.72,0,0,1-1.71,3.23,3.27,3.27,0,0,0-.56,1.81c0,.14,0,.27,0,.39l-1.62.51c-2.33.7-4.56,1.75-6.86,2.56a18.23,18.23,0,0,0-4.71,2.25,6.85,6.85,0,0,1-3.17,1.08,13.13,13.13,0,0,0-5,1.49,19,19,0,0,0-5.51,4.8,5.19,5.19,0,0,1-1.2,1.38,11.1,11.1,0,0,0-4.68,6.09c-.67,1.88-1.83,3.59-2.49,5.48a18.92,18.92,0,0,0-1.25,5.6,30.16,30.16,0,0,1-.88,5.63c-.25,1.2-.53,2.39-.66,3.6-.21,1.91-.33,3.84-.45,5.76-.13,2.09-.28,4.18-.29,6.27,0,2.62.14,5.24.23,7.86,0,1.12.16,2.24.18,3.37q.09,6.15.14,12.3c0,1.22-.08,2.44,0,3.66.14,2.33-.28,4.62.13,7,.57,3.25,1.79,6.4,1.67,9.76a4.3,4.3,0,0,0,.23.75c.15.77.28,1.54.41,2.31s.27,1.54.39,2.32a34.52,34.52,0,0,0,1.67,6.31c.43,1.23.82,2.45,1.34,3.66,1,2.3,1.55,4.81,3.08,6.89a7.91,7.91,0,0,0,2.65,4.13c1.5,1.47,3,2.9,4.58,4.33a21.93,21.93,0,0,0,8.15,5.09,11.25,11.25,0,0,1,3.08,1.4,7.88,7.88,0,0,0,2.43.91q5.07,1.34,10.15,2.59a22.25,22.25,0,0,0,2.83.46c3.38.36,6.82-.63,10.18.34a.76.76,0,0,0,.26,0,34,34,0,0,1,8.61.2,5.58,5.58,0,0,0,1.57.1c2.49-.53,5,0,7.54-.48s5.36-.45,8-1.21c2.25-.64,4.66-.68,6.95-1.22a26.12,26.12,0,0,0,9.49-4.28,10.34,10.34,0,0,1,1.62-.84,48.77,48.77,0,0,0,5.88-2.8,43.76,43.76,0,0,0,5.22-4.33c1-.87,1.71-2.1,2.8-2.74a9.51,9.51,0,0,0,3-2.88c1-1.34,2-2.66,2.92-4a25.75,25.75,0,0,0,2.34-3.75c1.08-2.38,1.87-4.88,2.92-7.27a9.12,9.12,0,0,0,.92-4.83,3.45,3.45,0,0,1,0-.78c.46-3.82.1-7.67.44-11.49a6.25,6.25,0,0,0,0-1.06C623.58,712.18,623.26,708.44,623,704.69Zm-42.51-171a2.42,2.42,0,0,0,1.17-.21c1.95-1,3.95-.5,5.91-.18a3.42,3.42,0,0,1,2.88,2,1.52,1.52,0,0,0,.43.65c1.89,1.59,2.66,3.87,3.58,6a7.84,7.84,0,0,1,.44,5.85,3.67,3.67,0,0,1-2,2.33,30.52,30.52,0,0,1-4.89,1.86c-1.85.43-3.7,1.16-5.68.69a2.17,2.17,0,0,0-1,.12c-2.78.91-5.67.88-8.53,1.2s-5.45-.11-8.16.19Q572.59,544,580.53,533.71Zm-45.28,21.21a29.37,29.37,0,0,0-4.42,1,1.6,1.6,0,0,1-2-.73,1.71,1.71,0,0,0-1.27-.8,10,10,0,0,1-5.41-3,22.55,22.55,0,0,1-2.46-2.72c-1.27-1.87-2.54-3.79-1.87-6.28a7.21,7.21,0,0,0,0-1.69c1.51-2.23,3.76-3.36,5.86-4.52a9.45,9.45,0,0,1,6.1-1.09,4.09,4.09,0,0,0,1.28.16c3.29-.56,6.61-.19,9.91-.29a2.52,2.52,0,0,0,1-.08c1.62-.87,3.38-.67,5.11-.8a36.27,36.27,0,0,0,4.13-.68,11.12,11.12,0,0,1,4.48-.28A255.48,255.48,0,0,0,535.25,554.92Zm57,123.37a30.72,30.72,0,0,1-2.15,4.78c-1,1.6-1.79,3.43-3.52,4.5a2.09,2.09,0,0,0-.65.81c-1.32,2.61-3.39,4.63-5.18,6.88-1.45,1.83-3.27,3.27-4.83,5a6,6,0,0,0,.59.72,21.17,21.17,0,0,0,4.44,3.67,5.27,5.27,0,0,1,1.31.85,26.5,26.5,0,0,0,6.35,4.62,1.59,1.59,0,0,1,.92,1.95,1.72,1.72,0,0,0,.33,1.47,10,10,0,0,1,1.72,5.93,24.8,24.8,0,0,1-.18,3.67c-.43,2.22-.89,4.47-3.13,5.76a6.71,6.71,0,0,0-1.21,1.19c-2.64.5-5-.29-7.34-1a9.43,9.43,0,0,1-5.08-3.54,4.27,4.27,0,0,0-.79-1,3.91,3.91,0,0,1-.41-.3c.12.49.25,1,.4,1.45a1.59,1.59,0,0,1-.74,2,1.71,1.71,0,0,0-.8,1.27,10,10,0,0,1-3,5.41,24.27,24.27,0,0,1-2.72,2.47c-1.87,1.26-3.79,2.53-6.28,1.86a7.3,7.3,0,0,0-1.7,0c-2.23-1.5-3.36-3.75-4.52-5.86a9.5,9.5,0,0,1-1.09-6.1,4.05,4.05,0,0,0,.16-1.28c0-.16,0-.33-.08-.5-.25.43-.5.86-.74,1.3a1.59,1.59,0,0,1-1.95.92,1.76,1.76,0,0,0-1.47.33,10,10,0,0,1-5.93,1.72,23.51,23.51,0,0,1-3.67-.18c-2.22-.43-4.47-.89-5.76-3.12a6.74,6.74,0,0,0-1.19-1.22c-.5-2.64.29-5,1-7.33a9.46,9.46,0,0,1,3.54-5.09,4,4,0,0,0,1-.79c1.93-2.72,4.53-4.81,6.79-7.21.24-.26.59-.49.68-.79.52-1.71,1.85-2.8,3-4.08-.45-.47-.92-.94-1.38-1.4-1.09-1.09-2.63-1.7-3.67-2.93a16,16,0,0,0-1.65-1.64,6.81,6.81,0,0,0-1.46-1.08,7.14,7.14,0,0,1-2.33-1.66,2.6,2.6,0,0,0-1-.76c-2.08-.68-3.15-2.44-4.31-4.05a3.4,3.4,0,0,1-.6-3.46,1.74,1.74,0,0,0,.15-.77c-.21-2.46.85-4.62,1.72-6.79a7.87,7.87,0,0,1,3.83-4.45,3.72,3.72,0,0,1,3.05-.25,30.61,30.61,0,0,1,4.77,2.15c1.61,1,3.43,1.79,4.5,3.52a2.12,2.12,0,0,0,.82.65,10.53,10.53,0,0,1,.93.52,5.88,5.88,0,0,1,0-.94,2.58,2.58,0,0,0-.2-1.27c-1-2-.51-4-.19-5.92a3.41,3.41,0,0,1,2-2.87,1.72,1.72,0,0,0,.65-.43c1.59-1.9,3.87-2.67,6-3.59a7.86,7.86,0,0,1,5.86-.44,3.75,3.75,0,0,1,2.33,2,30.58,30.58,0,0,1,1.85,4.9c.43,1.84,1.16,3.69.69,5.67a2,2,0,0,0,.13,1c.11.34.2.68.29,1a5.11,5.11,0,0,1,.64-.68,2.57,2.57,0,0,0,.76-1c.68-2.09,2.44-3.15,4-4.31a3.38,3.38,0,0,1,3.46-.61,1.75,1.75,0,0,0,.77.16c2.46-.22,4.62.85,6.79,1.71a7.85,7.85,0,0,1,4.45,3.84A3.7,3.7,0,0,1,592.21,678.29Z"/><path d="M381.4,396.2a6.14,6.14,0,0,0,0-1.05c-.27-3.75-.58-7.49-.8-11.24-.14-2.35-.18-4.7-.16-7.05a59.2,59.2,0,0,1,.31-6.8,22.41,22.41,0,0,0,0-5.24c-.17-1.64-.23-3.28-.32-4.91s.06-2.93-.63-4.34a6.84,6.84,0,0,1-.33-1.8c-.36-2-.81-3.93-1.07-5.92-.24-1.8-.77-3.59-.34-5.46a3.36,3.36,0,0,0-.38-2.28c-.55-1.08-1-2.22-1.52-3.49a14.91,14.91,0,0,0,1.42-.87c.57-.47.52-1.34-.15-1.45a4,4,0,0,1-2.8-2.18c-1.05-1.71-2-3.45-2.93-5.24a28.56,28.56,0,0,0-3-4.28c-2.88-1.81-5.1-4.52-8.2-6-.38-.19-.69-.53-1.06-.76-2.51-1.57-5-3.24-7.94-3.9a13,13,0,0,1-3.73-1.2,6,6,0,0,0-3.24-.8,3.46,3.46,0,0,1-2.88-1,1.69,1.69,0,0,0-1.15-.53,36,36,0,0,1-4.42-.49,65,65,0,0,0-9.15-.49c-1,.07-1.91.19-2.86.23-3,.15-5.9.1-8.85.39-1.28.12-2.56.55-3.89.2a2,2,0,0,0-1.25.32c-1.77,1-3.76.67-5.63,1-3.53-.56-6.73.82-10,1.79-2.33.7-4.56,1.75-6.87,2.56a18.09,18.09,0,0,0-4.71,2.26,6.88,6.88,0,0,1-3.16,1.07,13.41,13.41,0,0,0-5,1.49,19,19,0,0,0-5.5,4.8,5.19,5.19,0,0,1-1.2,1.38,11.05,11.05,0,0,0-4.68,6.09c-.67,1.88-1.83,3.6-2.49,5.48a18.92,18.92,0,0,0-1.25,5.6,30.87,30.87,0,0,1-.88,5.63c-.25,1.2-.53,2.39-.67,3.6-.21,1.91-.33,3.84-.44,5.76-.13,2.09-.29,4.18-.29,6.28,0,2.61.14,5.23.23,7.85,0,1.12.16,2.24.18,3.37q.09,6.15.14,12.3c0,1.22-.09,2.44,0,3.66.13,2.33-.29,4.63.13,7,.57,3.24,1.78,6.39,1.67,9.75,0,.25.18.5.23.75.15.77.28,1.54.41,2.31s.27,1.54.38,2.32a35.38,35.38,0,0,0,1.68,6.31c.43,1.23.82,2.45,1.34,3.66,1,2.3,1.55,4.81,3.08,6.89a7.91,7.91,0,0,0,2.65,4.13c1.5,1.47,3,2.9,4.57,4.33a22,22,0,0,0,8.15,5.09,11.18,11.18,0,0,1,3.09,1.4,7.88,7.88,0,0,0,2.43.91q5.06,1.33,10.15,2.59a22.25,22.25,0,0,0,2.83.46c3.38.36,6.81-.63,10.18.34a.57.57,0,0,0,.26,0,34,34,0,0,1,8.61.2,5.24,5.24,0,0,0,1.57.1c2.49-.53,5,0,7.54-.48s5.36-.45,8-1.21c2.25-.64,4.67-.68,7-1.21a26.54,26.54,0,0,0,9.49-4.28,9.51,9.51,0,0,1,1.61-.85,48.91,48.91,0,0,0,5.89-2.8A45.41,45.41,0,0,0,366,434c1-.87,1.7-2.1,2.8-2.74a9.51,9.51,0,0,0,3-2.88c1-1.34,2-2.66,2.91-4a25,25,0,0,0,2.35-3.75c1.07-2.38,1.87-4.88,2.92-7.27a9.1,9.1,0,0,0,.92-4.82,3.5,3.5,0,0,1,0-.79C381.41,403.87,381.06,400,381.4,396.2Zm-87.13-5.48a1.59,1.59,0,0,1-2-.74,1.74,1.74,0,0,0-1.27-.8,9.94,9.94,0,0,1-5.41-3,23.42,23.42,0,0,1-2.47-2.72c-1.26-1.87-2.53-3.79-1.86-6.28a7.3,7.3,0,0,0,0-1.7c1.5-2.23,3.75-3.35,5.86-4.51a9.36,9.36,0,0,1,6.09-1.09,4.47,4.47,0,0,0,1.29.16,33.66,33.66,0,0,1,6.18-.31c-.06,1.95.66,4.08,1,6.06.84,4.51-.31,9.11-.61,13.7A26.84,26.84,0,0,0,294.27,390.72Zm23.79-2.07a25.19,25.19,0,0,0-4.32-.36l-.5-2.85a6.23,6.23,0,0,1-.13-2.06,11.65,11.65,0,0,1,.71-2,12.55,12.55,0,0,0,.48-4.41c-.05-2.86-.19-5.72-.4-8.58l.78-.15a10,10,0,0,1,4.9-.17c.33.09.78.22,1,.08,1.37-.81,2.57-.17,3.72.4a10.85,10.85,0,0,0,2.7.9q.36,9.75.11,19.5C324.12,388.47,321.08,389,318.06,388.65Zm40.32-6a3.65,3.65,0,0,1-2,2.33,30.16,30.16,0,0,1-4.89,1.86c-1.84.43-3.69,1.15-5.67.69a2,2,0,0,0-1,.12,20.65,20.65,0,0,1-4.46.84l-.63-19.29a5.53,5.53,0,0,0,1.34-.23,7,7,0,0,1,2.82-.48,2.49,2.49,0,0,0,1.27-.2c1.95-1,3.95-.5,5.91-.18a3.39,3.39,0,0,1,2.88,2,1.8,1.8,0,0,0,.43.65c1.9,1.59,2.67,3.86,3.59,6A7.82,7.82,0,0,1,358.38,382.67Z"/></svg>