<svg id="Camada_1" data-name="Camada 1" xmlns="http://www.w3.org/2000/svg" viewBox="0 0 1080 1080"><path d="M741.16,556.19A14.71,14.71,0,0,0,741,559c.4,2.86,1,5.69,1.36,8.55a29.79,29.79,0,0,1,.21,5.66c-.17,2.33-.64,4.63-1,6.94a47.75,47.75,0,0,0-.15,8.62c0,1.44.09,2.88.09,4.31s0,2.69-.06,4a3.21,3.21,0,0,1-.19,1.33,3.26,3.26,0,0,0,0,2.6c.46,1.73,0,2.6-1.65,3.15a26.94,26.94,0,0,1-8.2,1.53c-3.34,0-6.61-.61-10-.52-3.6.09-7.22-.27-10.8.21-1.93.26-3.73-.35-5.6-.35-1.52,0-3-.14-4.55-.25a13.85,13.85,0,0,1-1.59-.25c-.17,0-.35-.24-.49-.21-2,.4-3.83-.73-5.78-.89s-2.46-1-2.45-2.58c0-.62.06-1.24.07-1.87a46.43,46.43,0,0,0,.07-5.14,14.11,14.11,0,0,1,.11-3.5c.23-1.51.57-3,0-4.51a1.09,1.09,0,0,1,0-.54c.32-3.44-.59-6.81-.65-10.21a72.64,72.64,0,0,1-.12-8.35,35.53,35.53,0,0,0-.18-5.64,141.78,141.78,0,0,1,0-15.15c0-1.26.32-2.51.39-3.76a11.53,11.53,0,0,0-.09-2.94c-.49-2.39-.3-4.82-.66-7.19-.24-1.65.46-3,1-4.43a7.14,7.14,0,0,0,.2-4.23,9.13,9.13,0,0,1-.17-3.75,11.86,11.86,0,0,0,0-3.76c-.27-1.78-.18-3.6-.39-5.39a17.43,17.43,0,0,1,.61-7.45,11.18,11.18,0,0,0,.11-4.58c-.2-1.52-.11-3-.29-4.54-.09-.72-.18-1.43-.3-2.14,0-.26-.27-.54-.21-.76.53-2.19-.16-4.31-.33-6.45a6.67,6.67,0,0,1,.08-1.61,3.75,3.75,0,0,0-.14-2.39,2.06,2.06,0,0,1,0-1.56,2.78,2.78,0,0,0,0-1.59c-.76-2-.35-4.11-.27-6.17a4.52,4.52,0,0,1,.42-1.56,2.23,2.23,0,0,1,3.5-1.13,9.32,9.32,0,0,1,1.11,1c2.34-.2,4.76-.51,7.18-.6,3.25-.12,6.5-.06,9.76-.07.63,0,1.27.08,1.89,0,1.43-.16,2.89-.68,4.27-.51a31.94,31.94,0,0,0,4,0c2,0,4,0,5.92.21a7.65,7.65,0,0,0,2.94-.09,2.21,2.21,0,0,1,.81-.06,43.81,43.81,0,0,0,5.35.42c2.78-.13,5.6.38,8.34-.43,1.45-.43,2.87,0,4.3.11a10.39,10.39,0,0,0,2.95.07,2.68,2.68,0,0,1,1.32,0,5.66,5.66,0,0,0,3.21,0,6.32,6.32,0,0,1,1.85-.11c2.34.06,4.67.48,7,0a5.19,5.19,0,0,1,1.33.14c1.26.08,2.52.11,3.78.2.71.05,1.42.18,2.14.25s1.23.1,1.85.14,1.05.05,1.56.1a5.66,5.66,0,0,0,1.59.21c1.4-.31,2.68.21,4,.36,1.52.19,3,.39,4.54.69a30.49,30.49,0,0,1,3.1.9,20.58,20.58,0,0,1,9.85,6.76,53.86,53.86,0,0,0,5.62,5.79,38.19,38.19,0,0,1,4,4.77,1.29,1.29,0,0,1,.29.74c-.05,1.33.69,2.4,1.09,3.59q1.1,3.31,1.86,6.73c.58,2.61.34,5.22.41,7.82a18.92,18.92,0,0,1-.79,4.47,14.16,14.16,0,0,1-1.41,4.07,13.52,13.52,0,0,0-.85,2.28,12.61,12.61,0,0,1-1.51,3.14,33,33,0,0,0-2,3.83c-.2.39-.33.94-.66,1.14a12.29,12.29,0,0,0-3.24,3.54,6.08,6.08,0,0,1-2.18,1.56c-2,1.1-3.94,2.17-5.87,3.32-1.45.86-2.8,1.88-4.26,2.79,4,2.41,7.82,4.59,11.49,7a11.06,11.06,0,0,1,4.48,5.24c.76,1.92,1.85,3.69,2,5.82a2.11,2.11,0,0,0,.32,1c1.09,1.52,1,3.25.89,5a7.37,7.37,0,0,0,.32,2.64,16.7,16.7,0,0,1,.6,3.72c.11,2.16.08,4.32.11,6.49a5,5,0,0,0,0,1.34c.66,2.32.21,4.66.19,7,0,.36-.19.74-.12,1.07.56,2.4.13,4.84.34,7.25a8.2,8.2,0,0,0,2.33,5.31,33.34,33.34,0,0,0,3.53,2.94c1.7,1.27,1.74,1.28,1,3.58a5.46,5.46,0,0,1-4.14.64c-1.21,1.23-2.65.71-4.07.58a20.34,20.34,0,0,0-3.49,0c-1.61.12-3.22.35-4.83.53a3.15,3.15,0,0,1-.81,0c-2.41-.44-4.83,0-7.24,0a17.1,17.1,0,0,1-3.46-.56,13.26,13.26,0,0,0-5.35-.37c-1.64.32-3.16-.5-4.79-.35-2.41.22-4.85.27-7.27.38a6,6,0,0,0-3,1,3.06,3.06,0,0,1-2.8.21c-2.63-.8-3.78-2.64-4.17-5.13-.17-1.06-.15-2.16-.22-3.24s-.14-2.34-.24-3.5c0-.36-.25-.72-.2-1.06.49-3.59-.5-7.14-.29-10.73a40.2,40.2,0,0,0-.29-7c-.21-1.77-.87-3.48-1.24-5.24a70.32,70.32,0,0,0-2.18-7.79,7.18,7.18,0,0,0-3.63-4.48c-1.35-.68-2.57-1.67-4.22-1.59a2.21,2.21,0,0,1-1-.29,5,5,0,0,0-5.38.35C742.09,555.79,741.75,555.91,741.16,556.19Zm1.45-31.53a35.71,35.71,0,0,1,4.92-.81,22.46,22.46,0,0,0,4.25-.62,12.28,12.28,0,0,0,7.15-3.91,8.2,8.2,0,0,0,2-3.44c.28-1.31.39-2.66.54-4a2.47,2.47,0,0,0-.13-.79c-.16-.69-.3-1.4-.52-2.08a39.64,39.64,0,0,0-1.81-5.32c-1.06-2.2-2.71-3.8-5.43-3.77-.81,0-1.62-.23-2.42-.19a37.1,37.1,0,0,1-7.81-.24c-.39-.06-.83.24-1.31.4a60,60,0,0,0-.62,8.63c0,1.9.15,3.79.11,5.68s.46,3.9.14,5.88a19.44,19.44,0,0,0-.08,2.42A2.17,2.17,0,0,0,742.61,524.66Z"/><path d="M310.73,374.46c1.95,2.17,2.23,4.83,2.27,7.56a9.73,9.73,0,0,0,0,1.87,36.26,36.26,0,0,1,.42,11.76c-.25,3-1.15,5.82-1.25,8.82a21.06,21.06,0,0,1-1,4.18,38.87,38.87,0,0,1-2,6.74,43.61,43.61,0,0,1-3.14,5.93,13.7,13.7,0,0,1-4.59,4.14c-1.53.93-3.19,1.65-4.8,2.46a4.2,4.2,0,0,0-.93.52c-2,1.8-4.6,2.81-6.77,4.41a1.73,1.73,0,0,1-.74.34c-2.58.36-5,1.52-7.61,1.7a15.68,15.68,0,0,0-6.69,1.76,7,7,0,0,1-2.55.84c-2.69.32-5.39.53-8.08.76-2.33.2-4.63.42-6.95.8a14.94,14.94,0,0,1-7.75-.4c-1.84-.68-3.8-1.06-5.69-1.62-.78-.23-1.52-.55-2.27-.85a7.3,7.3,0,0,0-1.49-.63c-2.5-.35-4.45-1.93-6.65-2.93a8.1,8.1,0,0,1-1.31-.91c-.37-.26-.7-.57-1.08-.81-3-1.92-6.1-3.83-9.13-5.76a52.51,52.51,0,0,1-5.61-3.73,23.14,23.14,0,0,1-3.23-4c-.33-.42-.46-1-.8-1.41a23.1,23.1,0,0,1-4.46-9.72,17.81,17.81,0,0,0-.92-2.53c-.35-.83-.8-1.62-1.15-2.44a17.44,17.44,0,0,0-1.94-4.15,4.51,4.51,0,0,1-.61-1.5,9.56,9.56,0,0,0-1.2-3.57,1.73,1.73,0,0,1-.23-1c.09-2-.92-3.84-.69-5.85a5.27,5.27,0,0,0-.2-1.61c-.29-1.6-.55-3.2-.91-4.78a23.41,23.41,0,0,0-1-3.07,8.75,8.75,0,0,1-.56-3.15c0-2.21.17-4.5-.9-6.59a1.76,1.76,0,0,1-.3-1c.61-2.47-.49-5,.21-7.44a21.93,21.93,0,0,1,.37-6.95,8.81,8.81,0,0,1,.38-1.85,7,7,0,0,0,.29-3.74,8.77,8.77,0,0,1,0-2.4,12.78,12.78,0,0,1,2.16-6,3.68,3.68,0,0,0,.66-2,16,16,0,0,1,1.46-5.73,27.35,27.35,0,0,0,2-6.69,7.22,7.22,0,0,1,1.18-3.58,2.33,2.33,0,0,0,.4-1c.45-2.54,1.79-4.71,3-6.93a12.74,12.74,0,0,1,4.08-4.28l3.28-2.32a8.85,8.85,0,0,1,1.58-1.05c1.75-.69,2.92-2.12,4.25-3.3a19.36,19.36,0,0,1,8.84-4.82c2.65-.53,5.33-.91,8-1.37.53-.09,1.06-.2,1.58-.34a38.22,38.22,0,0,1,4.94-1.29c1.88-.23,3.65-.78,5.47-1.17a15,15,0,0,1,3.48-.26c1.44,0,2.87.16,4.31.29a18.15,18.15,0,0,1,3.22.37,27.85,27.85,0,0,0,6.68.9c1.52,0,3,.39,4.54.58,1.16.14,2.35.12,3.48.37a99.06,99.06,0,0,1,11.7,3.16c2.17.79,3.93,2.2,5.86,3.34,1.6.95,3.13,2,4.81,2.86a18.67,18.67,0,0,1,6.67,5.79,8,8,0,0,0,1.18,1.46,17.08,17.08,0,0,1,4.79,7.38,33.35,33.35,0,0,1,1.69,5.12c.47,2.65.74,5.34,1.2,8a2.48,2.48,0,0,1,.06.54q-.07,4.47-.19,8.94a3.66,3.66,0,0,1-.22,1.32,2.41,2.41,0,0,0,.19,2.31,5.13,5.13,0,0,1,.44,1.52c.22,1.15.42,2.3.59,3.46a3.29,3.29,0,0,1-3,3.5,17.16,17.16,0,0,1-1.89-.14,29.46,29.46,0,0,0-3.24-.26,42,42,0,0,1-8.07-.87c-1.6-.26-3.22-.39-4.83-.57a4.24,4.24,0,0,1-.8,0c-2.89-1-5.86-.7-8.83-.7a42.88,42.88,0,0,0-6.7.47c-1,.15-1.93.43-2.89.65a3.06,3.06,0,0,1-3.82-2.09,1.93,1.93,0,0,1-.11-.53c-.14-2.61-.48-5.21.14-7.81.25-1.05.52-2.09.71-3.16a5.78,5.78,0,0,0,0-1.61,53.34,53.34,0,0,1-.53-5.37,4.12,4.12,0,0,0-2-3.09,1.22,1.22,0,0,0-.74-.28c-1.42.21-2.83-.32-4.29.14a15.47,15.47,0,0,1-3.74.35,4.93,4.93,0,0,0-4.35,3.14c-.08.16-.1.35-.17.52-.79,1.79-1.64,3.5-1.46,5.63.15,1.95-.4,3.91-.19,5.93a71,71,0,0,1,.1,7.3,4.86,4.86,0,0,1-.26,1,20.12,20.12,0,0,0-.4,4.52c-.07,3.08.8,6.11.58,9.14-.18,2.61.21,5.23-.34,7.81a9.68,9.68,0,0,0,0,1.61c-.09,2.16.24,4.3.09,6.48a18,18,0,0,0,1,5.85,10.48,10.48,0,0,1,.49,2.88c0,3.79,1.32,7.25,2.71,10.68a3.19,3.19,0,0,0,2.93,2.09,14.27,14.27,0,0,0,4.58-.18,26,26,0,0,0,4.69-2.46.39.39,0,0,0,.19-.19c.88-2.4,3-4.38,2.5-7.24a.86.86,0,0,1-.05-.27,25.45,25.45,0,0,0-1.62-10.61,4.51,4.51,0,0,1-.2-1.33c-.1-1.67,1-2.93,2.62-2.54a9.19,9.19,0,0,0,4.77-.16,8,8,0,0,1,2.93.24,13.56,13.56,0,0,0,3.76-.08,34.32,34.32,0,0,1,5.37-.14,6.48,6.48,0,0,0,2.88-.53,26.93,26.93,0,0,1,14.88-1.6C309,374.41,309.72,374.4,310.73,374.46Z"/><path d="M378,604.15c-2.49-1.56-3.12-3.67-3.54-5.94-.48-2.65-.55-5.4-2.11-7.94a2.75,2.75,0,0,0-2.17-.13,9.68,9.68,0,0,1-4.81.2,1.75,1.75,0,0,0-.8-.1c-1.77.58-3.57.33-5.37.3-2.79,0-5.58,0-8.37,0-.45,0-.91,0-1.36,0a1.4,1.4,0,0,0-1.45,1.59c0,.36.05.72.08,1.08a2.86,2.86,0,0,1,.08,1.07c-.8,2.09-.36,4.3-.71,6.43a14.15,14.15,0,0,1-.92,3.1,4.64,4.64,0,0,1-4.8,2.21c-2.06-.66-4.08-1.4-6.4-2.2-3.17,0-6.67-.08-10.16-.09a24.24,24.24,0,0,0-3,.21c-1.87.22-3.73.55-5.6.75a32,32,0,0,1-6.19.47,5.43,5.43,0,0,0-1.84.34,3.59,3.59,0,0,1-4.25-1.37c-.37-.51-.7-1-1-1.59a3.46,3.46,0,0,1-.31-3.59,7.23,7.23,0,0,0,.64-3.4,16.49,16.49,0,0,1,.55-3.74c.44-1.94,1-3.85,1.46-5.78.33-1.3.69-2.6,1-3.91a21.39,21.39,0,0,1,1.7-5.39c1-1.9.71-4,.82-6.07.21-3.5.44-7,.82-10.48a9.16,9.16,0,0,1,1.51-4.29,11.86,11.86,0,0,0,1.58-4.3,11.31,11.31,0,0,1,.47-1.82c1.53-3.75,2.43-7.71,3.85-11.51.69-1.84,1.31-3.68,2.1-5.5a26.24,26.24,0,0,0,1.13-5,14.41,14.41,0,0,1,.53-1.81c.73-1.94,1.49-3.86,2.23-5.8a5,5,0,0,0,.47-1.55c.09-3.32,1.61-6.27,2.36-9.42.63-2.62,1.14-5.27,1.71-7.91.13-.61.26-1.23.41-1.84.37-1.57,1.25-3,1.18-4.7s.58-3.14.45-4.81a9,9,0,0,1,.72-4.23,12.21,12.21,0,0,0,1.07-5.24,4.27,4.27,0,0,1,.85-2.78,10.82,10.82,0,0,0,1.87-5.79c.14-1.69.54-3.37.8-4.94l1.66-1.41,5.44-.53c2.31-.23,4.57-1.08,6.95-.56,3-.88,6.07,0,9.09-.32,2.27.89,4.61-.28,6.94.31,1.24.31,2.67-.22,4-.29a105.2,105.2,0,0,0,12.41-1,6.69,6.69,0,0,1,2.12.19c1.95.32,3.84.84,5.88.36a3.06,3.06,0,0,1,3.59,1.24,2.37,2.37,0,0,1,.38,2.28,3.63,3.63,0,0,0-.17,1.57c.28,2.24.64,4.46.95,6.69.16,1.14.22,2.3.4,3.43a16.76,16.76,0,0,0,.73,3.15c.54,1.42,1.27,2.77,1.92,4.14a6.66,6.66,0,0,1,.68,1.43,9.16,9.16,0,0,0,.93,2.21,14.94,14.94,0,0,1,1.22,3.82c.65,3.36,1.41,6.69,1.73,10.12a29,29,0,0,0,2,7.85c.9,2.34,1.5,4.8,2.32,7.17a52.33,52.33,0,0,0,2.21,5.51,66,66,0,0,1,2.73,7.34c.29.85.66,1.67.95,2.52a16,16,0,0,1,.4,1.55c.19.79.37,1.57.54,2.36.39,1.74,1.19,3.35,1.37,5.18a27,27,0,0,0,1.22,4.41,14.34,14.34,0,0,1,.62,2.63,18,18,0,0,0,2.47,7.39,7.67,7.67,0,0,1,1.09,3.82A21.27,21.27,0,0,0,421,566a11.86,11.86,0,0,1,.57,4.27,5.91,5.91,0,0,0,.25,1.84c.05.26.27.51.27.76.09,4.25,2.44,7.88,3.26,11.93,1.35,2.53,1.53,5.31,1.8,8.1a15.09,15.09,0,0,0,.88,4.71,11.31,11.31,0,0,1,.42,2.36,2.7,2.7,0,0,1-1.76,3.44,6.07,6.07,0,0,1-2.36.48,31.19,31.19,0,0,0-7.54.16c-2-.6-3.91,0-5.87.18a10.17,10.17,0,0,0-1.33.2c-2.58.5-5.15,1-7.79.36a1.84,1.84,0,0,0-.81,0c-2,.49-3.93-.1-5.89-.24-3.4-.24-6.77-.72-10.21-.39C382.59,604.33,380.23,604.15,378,604.15Zm-17.48-85.68c-.28.23-.4.27-.42.34-.63,2.06-.75,4.27-1.85,6.19-.16.29-.07.72-.16,1.06-.64,2.62-.34,5.35-1,8a35.71,35.71,0,0,0-.84,5.05c-.34,2.86-.74,5.73-.82,8.59a25.11,25.11,0,0,1-.2,3.48,22.76,22.76,0,0,0-.14,3.38c4.63.64,9,.74,11.22.24-.18-1.93-.27-3.9-.56-5.83s-.87-3.87-1.17-5.83-.39-3.76-.59-5.64a22.33,22.33,0,0,1-.32-2.67,48.87,48.87,0,0,0-1.18-9.1c-.22-1.24-.4-2.48-.57-3.72A5.33,5.33,0,0,0,360.55,518.47Z"/><path d="M511.25,764.86c-2.49-1.56-3.13-3.68-3.54-6-.48-2.64-.55-5.4-2.11-7.93a2.7,2.7,0,0,0-2.17-.13,9.68,9.68,0,0,1-4.81.2,1.64,1.64,0,0,0-.8-.1c-1.77.58-3.57.33-5.37.3-2.79,0-5.58,0-8.38,0-.45,0-.9,0-1.35,0a1.39,1.39,0,0,0-1.45,1.58,9.81,9.81,0,0,0,.08,1.08c0,.36.19.77.07,1.08-.79,2.09-.35,4.3-.71,6.42a13.53,13.53,0,0,1-.91,3.11,4.63,4.63,0,0,1-4.81,2.2c-2.05-.65-4.08-1.39-6.4-2.19-3.16,0-6.66-.08-10.16-.09a24.06,24.06,0,0,0-2.94.2c-1.88.23-3.73.56-5.61.75a32.69,32.69,0,0,1-6.18.48,5.42,5.42,0,0,0-1.84.33,3.58,3.58,0,0,1-4.25-1.36c-.37-.51-.7-1.05-1-1.59a3.48,3.48,0,0,1-.3-3.59,7.37,7.37,0,0,0,.64-3.41,16.49,16.49,0,0,1,.55-3.73c.43-1.94,1-3.85,1.46-5.78.33-1.31.69-2.6,1-3.92a21.71,21.71,0,0,1,1.69-5.38c1-1.91.71-4,.83-6.08.2-3.49.43-7,.82-10.47a9.07,9.07,0,0,1,1.5-4.3,11.56,11.56,0,0,0,1.58-4.29,11.85,11.85,0,0,1,.48-1.82c1.53-3.76,2.43-7.72,3.85-11.51.68-1.84,1.3-3.69,2.1-5.5a27,27,0,0,0,1.13-5,12.14,12.14,0,0,1,.52-1.81c.73-1.94,1.5-3.87,2.24-5.8a5,5,0,0,0,.47-1.55c.08-3.33,1.61-6.27,2.36-9.42.62-2.62,1.14-5.27,1.71-7.91.13-.62.26-1.23.4-1.85.38-1.57,1.26-3,1.18-4.7s.58-3.14.45-4.81a9,9,0,0,1,.73-4.23,12,12,0,0,0,1.06-5.23,4.27,4.27,0,0,1,.86-2.79,10.76,10.76,0,0,0,1.87-5.78c.14-1.7.53-3.37.79-5l1.67-1.4,5.43-.54c2.32-.22,4.58-1.08,6.95-.56,3-.87,6.08,0,9.1-.31,2.26.89,4.6-.29,6.94.3,1.23.31,2.67-.22,4-.28a105.39,105.39,0,0,0,12.42-1,7,7,0,0,1,2.12.2c1.94.31,3.84.84,5.88.36a3.06,3.06,0,0,1,3.59,1.23,2.38,2.38,0,0,1,.38,2.29,3.35,3.35,0,0,0-.17,1.57c.28,2.23.64,4.46.95,6.69.15,1.14.21,2.29.4,3.43a16.47,16.47,0,0,0,.72,3.14c.54,1.42,1.28,2.77,1.93,4.15a6.66,6.66,0,0,1,.68,1.43,8.9,8.9,0,0,0,.92,2.2,15,15,0,0,1,1.23,3.83c.64,3.36,1.41,6.69,1.72,10.11a29.31,29.31,0,0,0,2,7.86c.91,2.33,1.5,4.79,2.33,7.16a53.59,53.59,0,0,0,2.2,5.51,64.8,64.8,0,0,1,2.74,7.34c.29.85.65,1.68.94,2.53.18.5.28,1,.41,1.55.18.78.37,1.57.54,2.36.39,1.74,1.18,3.35,1.36,5.18a27.36,27.36,0,0,0,1.23,4.41,14.34,14.34,0,0,1,.62,2.63,17.8,17.8,0,0,0,2.47,7.38,7.8,7.8,0,0,1,1.09,3.82,21.47,21.47,0,0,0,.91,4.48,11.41,11.41,0,0,1,.57,4.27,5.93,5.93,0,0,0,.26,1.84c.05.26.27.5.27.75.08,4.26,2.43,7.89,3.25,11.94,1.36,2.53,1.54,5.3,1.81,8.09a14.81,14.81,0,0,0,.88,4.72,11.19,11.19,0,0,1,.42,2.36,2.71,2.71,0,0,1-1.76,3.43,6.08,6.08,0,0,1-2.36.49,31.18,31.18,0,0,0-7.54.16c-2-.61-3.92,0-5.87.18a10.32,10.32,0,0,0-1.34.2c-2.57.5-5.15,1-7.78.36a1.85,1.85,0,0,0-.81,0c-2,.5-3.93-.09-5.9-.23-3.39-.24-6.77-.72-10.2-.39C515.81,765,513.44,764.86,511.25,764.86Zm-17.48-85.68c-.29.23-.4.27-.42.34-.63,2.05-.75,4.26-1.85,6.19-.17.29-.08.71-.16,1.06-.64,2.62-.34,5.34-1,8a37.33,37.33,0,0,0-.83,5.06c-.34,2.86-.74,5.72-.82,8.59a25.21,25.21,0,0,1-.21,3.48,24.11,24.11,0,0,0-.13,3.38c4.62.63,9,.73,11.21.24-.17-1.93-.26-3.9-.55-5.84s-.87-3.87-1.18-5.82-.39-3.77-.59-5.65a24.26,24.26,0,0,1-.31-2.67,49.62,49.62,0,0,0-1.18-9.09c-.22-1.24-.41-2.48-.58-3.73A5.26,5.26,0,0,0,493.77,679.18Z"/><path d="M274.42,769.09c-2.49-1.56-3.13-3.68-3.54-6-.48-2.64-.55-5.4-2.11-7.93a2.7,2.7,0,0,0-2.17-.13,9.68,9.68,0,0,1-4.81.2,1.64,1.64,0,0,0-.8-.1c-1.77.58-3.57.33-5.37.3-2.79,0-5.58,0-8.37,0-.46,0-.91,0-1.36,0a1.39,1.39,0,0,0-1.45,1.58c0,.36.05.72.08,1.08a2.9,2.9,0,0,1,.08,1.08c-.8,2.09-.36,4.3-.72,6.42a13.31,13.31,0,0,1-.91,3.1,4.62,4.62,0,0,1-4.81,2.21c-2-.65-4.08-1.39-6.39-2.19-3.17,0-6.67-.08-10.17-.09a24.06,24.06,0,0,0-2.94.2c-1.87.23-3.73.56-5.61.75a32.69,32.69,0,0,1-6.18.48,5.42,5.42,0,0,0-1.84.33,3.6,3.6,0,0,1-4.25-1.36c-.37-.51-.7-1-1-1.59a3.48,3.48,0,0,1-.3-3.59,7.39,7.39,0,0,0,.64-3.41,16.49,16.49,0,0,1,.55-3.73c.44-1.94,1-3.86,1.46-5.78.33-1.31.69-2.61,1-3.92a21.78,21.78,0,0,1,1.69-5.39c1-1.9.71-4,.83-6.07.2-3.49.43-7,.82-10.47a9.07,9.07,0,0,1,1.5-4.3,11.56,11.56,0,0,0,1.58-4.29,11.85,11.85,0,0,1,.48-1.82c1.53-3.76,2.43-7.72,3.85-11.51.68-1.84,1.3-3.69,2.1-5.5a27,27,0,0,0,1.13-5,12.14,12.14,0,0,1,.52-1.81c.73-1.94,1.5-3.87,2.24-5.81a4.87,4.87,0,0,0,.47-1.55c.08-3.32,1.61-6.27,2.36-9.41.62-2.62,1.14-5.27,1.71-7.91.13-.62.26-1.23.41-1.85.37-1.57,1.25-3,1.17-4.7s.58-3.14.45-4.81a9,9,0,0,1,.73-4.23,12,12,0,0,0,1.06-5.23,4.25,4.25,0,0,1,.86-2.79,10.76,10.76,0,0,0,1.87-5.78c.14-1.7.53-3.37.79-5l1.67-1.4,5.43-.54c2.32-.23,4.58-1.08,7-.56,3-.87,6.08,0,9.1-.31,2.26.89,4.6-.29,6.94.3,1.23.31,2.67-.22,4-.28a107.56,107.56,0,0,0,12.42-1,7,7,0,0,1,2.12.2c1.94.31,3.84.84,5.88.36a3.06,3.06,0,0,1,3.59,1.23,2.38,2.38,0,0,1,.38,2.29,3.33,3.33,0,0,0-.17,1.57c.28,2.23.64,4.46.95,6.69.15,1.14.21,2.29.4,3.43a16.64,16.64,0,0,0,.72,3.14c.55,1.42,1.28,2.77,1.93,4.15a6.66,6.66,0,0,1,.68,1.43,8.56,8.56,0,0,0,.93,2.2,15.42,15.42,0,0,1,1.22,3.83c.64,3.36,1.41,6.68,1.72,10.11a29.41,29.41,0,0,0,2,7.86c.91,2.33,1.5,4.79,2.33,7.16a53.59,53.59,0,0,0,2.2,5.51,64.8,64.8,0,0,1,2.74,7.34c.29.85.65,1.68.94,2.52.18.51.28,1,.41,1.56.18.78.37,1.57.54,2.35.39,1.75,1.18,3.36,1.37,5.19a26.59,26.59,0,0,0,1.22,4.41,14.34,14.34,0,0,1,.62,2.63,17.8,17.8,0,0,0,2.47,7.38,7.77,7.77,0,0,1,1.09,3.82,20.87,20.87,0,0,0,.92,4.48,11.58,11.58,0,0,1,.56,4.27,5.93,5.93,0,0,0,.26,1.84c0,.26.27.5.27.75.08,4.26,2.43,7.89,3.25,11.94,1.36,2.53,1.54,5.3,1.81,8.09a15,15,0,0,0,.88,4.71,11.41,11.41,0,0,1,.42,2.37,2.71,2.71,0,0,1-1.76,3.43,6.08,6.08,0,0,1-2.36.49,31.18,31.18,0,0,0-7.54.16c-2-.61-3.92,0-5.87.18a12.34,12.34,0,0,0-1.34.19c-2.57.51-5.15,1-7.78.37a1.71,1.71,0,0,0-.81,0c-2,.5-3.93-.1-5.9-.23-3.39-.24-6.77-.72-10.2-.39C279,769.27,276.62,769.09,274.42,769.09Zm-17.48-85.68c-.29.22-.4.27-.42.34-.63,2-.75,4.26-1.85,6.19-.16.29-.08.71-.16,1.06-.64,2.61-.34,5.34-1,8a37.33,37.33,0,0,0-.83,5.06c-.34,2.86-.74,5.72-.82,8.59a23.74,23.74,0,0,1-.21,3.48,24.11,24.11,0,0,0-.13,3.38c4.62.63,9,.73,11.21.24-.17-1.93-.26-3.9-.55-5.84s-.87-3.87-1.18-5.82-.39-3.77-.59-5.65a24.26,24.26,0,0,1-.31-2.67,49.84,49.84,0,0,0-1.18-9.1c-.22-1.23-.41-2.47-.58-3.72A5.26,5.26,0,0,0,256.94,683.41Z"/><path d="M253.85,568.37a48.63,48.63,0,0,0,5.16.78,73.31,73.31,0,0,0,7.56,0,12.78,12.78,0,0,1,3.21-.19,7.72,7.72,0,0,0,.81-.09c1.63,0,3.11-.86,4.75-.79s3.24.13,4.86.25a21.4,21.4,0,0,1,2.65.38,14.06,14.06,0,0,0,5.08.49,5.55,5.55,0,0,1,1.08-.06,23.84,23.84,0,0,0,6.41-.55,4.32,4.32,0,0,1,1.86,0c2.62.62,3.31,1.41,3.17,4.16a48.81,48.81,0,0,1-.85,5.33c-.31,1.87-.57,3.75-.89,5.62-.48,2.74.17,5.36.77,8a12.17,12.17,0,0,0,.34,1.32c.93,2.7.75,5.48.62,8.25-.07,1.69-1.22,2.75-2.6,4-2.82.16-5.87.51-8.9.44-2.16-.06-4.26.3-6.39.33-2.31,0-4.66.66-7-.19a4,4,0,0,0-1.35-.11c-3.16,0-6.33,0-9.48.17-2.87.15-5.73.53-8.59.8a5.51,5.51,0,0,1-1.61.09,10.28,10.28,0,0,0-3.71,0,27,27,0,0,1-4.56-.17,76.92,76.92,0,0,1-9.69-.73,41.55,41.55,0,0,0-5.12-.07,32.43,32.43,0,0,1-8.53-1.33,19.25,19.25,0,0,0-6.68-.81,55.7,55.7,0,0,1-7.3-.22,6.89,6.89,0,0,0-3.63.83,9.71,9.71,0,0,1-2.51,1,2.41,2.41,0,0,1-2.6-1.07,2.3,2.3,0,0,1,0-2.8,3.91,3.91,0,0,0,.68-2.78,23.17,23.17,0,0,1,.45-5.35,19.06,19.06,0,0,0,.18-7,49.08,49.08,0,0,1-.59-5.91,35.93,35.93,0,0,0-1.47-8.74,5.61,5.61,0,0,1-.32-3.19,1.12,1.12,0,0,0,.06-.54c-.64-2.86,0-5.76-.24-8.64a6.19,6.19,0,0,1,.29-2.37,32.71,32.71,0,0,0,1.25-7.44c.11-2.79.55-5.56.79-8.34a75,75,0,0,0,.13-10.28c-.09-1.71-.19-3.41-.38-5.11a93,93,0,0,1-.12-9.44c0-.9-.14-1.8-.09-2.7a20.35,20.35,0,0,0-.78-7.44c.49-3-.3-6.07.05-9.15a27.19,27.19,0,0,0-.36-7,33.08,33.08,0,0,1-.24-7.56c.17-2,.18-3.95.29-5.93a28.2,28.2,0,0,0,0-3.79c-.08-1.17.46-2.23.28-3.47-.24-1.6,1.41-3,3.08-3a1.22,1.22,0,0,1,.27,0c3.69.75,7.34-.1,11-.39a23.84,23.84,0,0,1,7.49.3,6.46,6.46,0,0,0,2.15,0c2.43-.28,4.84-.61,7.21.45.33.15.84-.09,1.27-.13a5.65,5.65,0,0,1,1.86-.12c1.89.5,3.75-.22,5.63,0s3.77.37,5.66.46c1.35.06,2.71-.14,4,0a8.87,8.87,0,0,1,2.85.77,3.62,3.62,0,0,1,2.34,3.91c-.47,3.86-.14,7.73-.08,11.59a40.87,40.87,0,0,1-.57,8.32,30.09,30.09,0,0,0-.66,8.85,16.86,16.86,0,0,1-.11,3.25c-.27,3.15.39,6.32-.21,9.46.45,2.15.1,4.31.06,6.46a1.19,1.19,0,0,0,.06.54c1.14,2,.4,4.24.75,6.34a5,5,0,0,1,0,1.34c-.14,1.36-.28,2.67.64,3.88a2.91,2.91,0,0,1,.41,1.56,94.48,94.48,0,0,1,.31,9.67c-.1,2.24.14,4.49.08,6.73-.1,3.41.42,6.84-.45,10.23-.29,1.13-.2,2.34-.41,3.5a26.84,26.84,0,0,1-.89,3.39C253.61,567.2,253.45,567.86,253.85,568.37Z"/><path d="M449.79,375.69c.09-1.35.19-2.7.28-4.05a12,12,0,0,0,.11-2.15c-.37-3.33,0-6.66.13-10a4.32,4.32,0,0,0-.95-3.22c-1.32-1.61-.88-3.19.85-4.37a5.29,5.29,0,0,1,2.83-.8,33.23,33.23,0,0,0,5.65-.48,37.56,37.56,0,0,1,7.55-.51c1.8,0,3.6,0,5.39-.12a32.49,32.49,0,0,1,7,.07,26.79,26.79,0,0,0,4.29-.06c2,0,3.94-.07,5.91,0,2.35,0,4.69.14,7,.15a19.74,19.74,0,0,1,7.19,1.1,5.85,5.85,0,0,0,5.2-.56,7.82,7.82,0,0,1,4.2-.7c1.35,0,2.47,1.55,2.56,3.35.07,1.44,0,2.89,0,4.33a28,28,0,0,1-.19,4.86c-.4,2,0,3.95.09,5.91a24.74,24.74,0,0,0,.41,2.94c.07.44.16.88.19,1.32.13,2.33.24,4.67.39,7a3.24,3.24,0,0,1-1.21,3.12,4.22,4.22,0,0,1-3,.72c-2.38-.22-4.84-.64-7.18.44a2.72,2.72,0,0,1-1,0,16.66,16.66,0,0,0-1.87,0,68.29,68.29,0,0,1-8.09.29c-3.15,0-6.3.07-9.45.07-.9,0-1.79-.11-2.69-.2-.53-.05-1.12-.32-1.59-.17-1.4.42-2.69-.15-4-.42a8.4,8.4,0,0,0-3.19-.22,3,3,0,0,1-1.08,0c-2.54-.56-5,0-7.54.24a33.6,33.6,0,0,1-7.83.15,13.09,13.09,0,0,1-4.75-1.87,3.25,3.25,0,0,1-1.67-3.18c0-1,0-2,0-3Z"/><path d="M817.72,545.52c.1-1.35.19-2.7.28-4a11.92,11.92,0,0,0,.11-2.15c-.37-3.33,0-6.65.13-10a4.32,4.32,0,0,0-.94-3.21c-1.33-1.62-.89-3.2.85-4.38A5.23,5.23,0,0,1,821,521a33.15,33.15,0,0,0,5.65-.48,36.83,36.83,0,0,1,7.55-.5c1.8,0,3.6,0,5.4-.13a33.06,33.06,0,0,1,7,.07,26.93,26.93,0,0,0,4.3-.06c2,0,3.94-.07,5.91-.05,2.34,0,4.68.14,7,.15a19.71,19.71,0,0,1,7.19,1.1,5.85,5.85,0,0,0,5.2-.56,7.72,7.72,0,0,1,4.2-.69c1.35,0,2.48,1.54,2.56,3.34.07,1.44,0,2.89,0,4.34a27.92,27.92,0,0,1-.19,4.85c-.4,2,0,3.95.09,5.91a24.74,24.74,0,0,0,.41,2.94c.07.44.16.88.19,1.33.14,2.33.24,4.66.39,7a3.25,3.25,0,0,1-1.2,3.13,4.29,4.29,0,0,1-3,.71c-2.39-.22-4.85-.64-7.19.44a2.52,2.52,0,0,1-1,0,14.59,14.59,0,0,0-1.87,0,70.49,70.49,0,0,1-8.09.3c-3.15,0-6.3.06-9.45.06-.9,0-1.79-.11-2.69-.2-.53-.05-1.12-.32-1.59-.17-1.4.42-2.69-.15-4-.42a8.4,8.4,0,0,0-3.19-.22,3,3,0,0,1-1.08,0c-2.54-.56-5,0-7.54.24a33.6,33.6,0,0,1-7.83.15,13.09,13.09,0,0,1-4.75-1.87,3.27,3.27,0,0,1-1.67-3.18c0-1,0-2,0-3Z"/><path d="M391.34,677.07c-.62,2.6-.29,5.2-.14,7.81a1.93,1.93,0,0,0,.11.53,3.07,3.07,0,0,0,3.82,2.1c1-.23,1.91-.51,2.89-.66a44.13,44.13,0,0,1,6.7-.47c3,0,5.94-.27,8.83.7a4.21,4.21,0,0,0,.8,0c1.61.18,3.23.31,4.83.57a42,42,0,0,0,8.07.87,29.46,29.46,0,0,1,3.24.26,17.16,17.16,0,0,0,1.89.14,3.27,3.27,0,0,0,3-3.5c-.16-1.16-.36-2.31-.58-3.46a5,5,0,0,0-.44-1.51,2.43,2.43,0,0,1-.19-2.32,3.66,3.66,0,0,0,.22-1.32c.08-3,.13-6,.19-8.94a2.48,2.48,0,0,0-.06-.54c-.46-2.65-.73-5.34-1.2-8a32.88,32.88,0,0,0-1.69-5.11,17.05,17.05,0,0,0-4.79-7.39,8.31,8.31,0,0,1-1.18-1.45,18.6,18.6,0,0,0-6.67-5.8c-1.68-.86-3.21-1.91-4.81-2.86-1.93-1.14-3.69-2.55-5.87-3.33a94.72,94.72,0,0,0-11.69-3.16,33.36,33.36,0,0,0-3.48-.38c-1.52-.19-3-.54-4.55-.58a28,28,0,0,1-6.68-.9,17.93,17.93,0,0,0-3.21-.37c-1.44-.13-2.87-.27-4.31-.29a15.57,15.57,0,0,0-3.48.26c-1.82.39-3.59.94-5.47,1.17a38.22,38.22,0,0,0-4.94,1.29c-.52.14-1.05.25-1.58.34-2.66.46-5.34.84-8,1.37a19.23,19.23,0,0,0-8.84,4.83c-1.33,1.17-2.51,2.61-4.25,3.29a8.85,8.85,0,0,0-1.58,1.05L333,643.66a12.74,12.74,0,0,0-4.08,4.28c-1.17,2.22-2.51,4.39-3,6.93a2.37,2.37,0,0,1-.4,1,7.27,7.27,0,0,0-1.19,3.57,26.77,26.77,0,0,1-2,6.69,16,16,0,0,0-1.46,5.73,3.68,3.68,0,0,1-.66,2,12.78,12.78,0,0,0-2.16,6,8.77,8.77,0,0,0,0,2.4,6.94,6.94,0,0,1-.3,3.74,8.79,8.79,0,0,0-.37,1.85,21.93,21.93,0,0,0-.37,7c-.7,2.46.4,5-.21,7.44a1.74,1.74,0,0,0,.3,1c1.07,2.09.88,4.38.9,6.6a8.73,8.73,0,0,0,.56,3.14,23.41,23.41,0,0,1,1,3.07c.36,1.58.62,3.18.91,4.78a5.6,5.6,0,0,1,.2,1.61c-.23,2,.78,3.86.69,5.85a1.73,1.73,0,0,0,.23,1,9.56,9.56,0,0,1,1.2,3.57,4.43,4.43,0,0,0,.61,1.5,17.44,17.44,0,0,1,1.94,4.15c.35.82.8,1.61,1.14,2.44a16.71,16.71,0,0,1,.93,2.53,23.13,23.13,0,0,0,4.46,9.73c.34.4.47,1,.8,1.4a23.57,23.57,0,0,0,3.22,4,53.67,53.67,0,0,0,5.62,3.73c3,1.93,6.09,3.84,9.13,5.77.37.24.71.54,1.08.8a7.68,7.68,0,0,0,1.31.91c2.2,1,4.15,2.58,6.64,2.93a6.86,6.86,0,0,1,1.49.63c.76.3,1.5.62,2.28.85l.09,0-.06,2.6a31.69,31.69,0,0,0,.13,6.08,27.71,27.71,0,0,1,.19,4.56,4.38,4.38,0,0,0,.5,2.29c.83,1.43,2,1.83,3.27.81A3.11,3.11,0,0,1,370,790a51,51,0,0,0,7.52.41,8.85,8.85,0,0,1,1.61.15l3,.34V791c.75,0,1.5,0,2.24.1a2.43,2.43,0,0,0,2.45-1.25,10.89,10.89,0,0,0,1.56-3.76,28.18,28.18,0,0,0,.14-6.29,36.45,36.45,0,0,1-.16-4.67c1.17-.11,2.34-.22,3.5-.36a7,7,0,0,0,2.55-.84,15.68,15.68,0,0,1,6.69-1.76c2.65-.18,5-1.34,7.61-1.7a1.73,1.73,0,0,0,.74-.34c2.17-1.6,4.72-2.61,6.76-4.41a4.73,4.73,0,0,1,.94-.52c1.61-.81,3.27-1.53,4.8-2.46a13.7,13.7,0,0,0,4.59-4.14,44.14,44.14,0,0,0,3.14-5.93,38.87,38.87,0,0,0,2-6.74,20.89,20.89,0,0,0,1-4.18c.1-3,1-5.85,1.25-8.82a36.26,36.26,0,0,0-.42-11.76,9,9,0,0,1,0-1.87c0-2.73-.32-5.39-2.27-7.56-1-.06-1.72-.05-2.42-.16a26.93,26.93,0,0,0-14.88,1.6,6.5,6.5,0,0,1-2.88.53,34.32,34.32,0,0,0-5.37.14,13.62,13.62,0,0,1-3.77.08,8,8,0,0,0-2.93-.24,9.15,9.15,0,0,1-4.76.16c-1.58-.39-2.72.87-2.62,2.54a4.86,4.86,0,0,0,.19,1.33,25.3,25.3,0,0,1,1.63,10.61.86.86,0,0,0,.05.27c.47,2.86-1.62,4.85-2.5,7.24a.39.39,0,0,1-.19.19c-1.14.63-2.24,1.38-3.4,1.94h-.15c-1.76,0-3.52.07-5.28.11a8.49,8.49,0,0,0-1,.11l-.85.11a3.26,3.26,0,0,1-1.52-1.72c-1.39-3.43-2.75-6.89-2.71-10.67a10.48,10.48,0,0,0-.49-2.89,18.32,18.32,0,0,1-1-5.85c.15-2.18-.17-4.32-.08-6.48a9.68,9.68,0,0,1,0-1.61c.55-2.58.16-5.2.34-7.81.22-3-.65-6.06-.58-9.14a20.12,20.12,0,0,1,.4-4.52,4.86,4.86,0,0,0,.26-1,71,71,0,0,0-.1-7.3c-.21-2,.34-4,.18-5.93-.17-2.13.68-3.84,1.47-5.63.07-.17.09-.36.17-.52a4.92,4.92,0,0,1,4.34-3.14,15.5,15.5,0,0,0,3.75-.35c1.46-.46,2.87.07,4.29-.14a1.17,1.17,0,0,1,.73.28,4.12,4.12,0,0,1,2,3.09c0,1.81.31,3.59.52,5.37a5.5,5.5,0,0,1,0,1.62C391.86,675,391.59,676,391.34,677.07Z"/><path d="M555.49,564.2a11.67,11.67,0,0,1-1-3.61,15.78,15.78,0,0,0-1.38-4.65,3.63,3.63,0,0,1-.33-1.55,5.48,5.48,0,0,0-.72-2.57,31.68,31.68,0,0,1-1.31-3.26,10.51,10.51,0,0,0-2.19-3.39c-2.53-2.85-6-4.23-9.24-6-2.83-1.55-5.87-2.72-9.28-4.26a18.39,18.39,0,0,1,2.08-1.13,11.71,11.71,0,0,0,4.82-3.39,12.64,12.64,0,0,1,1.86-1.55,32,32,0,0,0,4.33-3.61,70.38,70.38,0,0,0,4.56-5.65c1.3-1.82,2.4-3.78,3.55-5.71a5,5,0,0,0,.64-1.74,19.85,19.85,0,0,0,.09-7.21,9.15,9.15,0,0,1-.06-2.16c.1-2.8.26-5.57-.83-8.27a12.19,12.19,0,0,1-.43-2.93,7.71,7.71,0,0,0-.18-1.61c-1.05-3-2.23-5.94-4.56-8.17-1.72-1.65-3.2-3.54-5.6-4.52a15.65,15.65,0,0,1-5.32-3.1,3.92,3.92,0,0,0-1.47-.69c-1.85-.65-3.71-1.28-5.57-1.91a48.83,48.83,0,0,0-6.12-2.05,29.59,29.59,0,0,0-3.14-.64c-.81-.06-1.61-.22-2.41-.36-1-.17-2-.67-3.16-.45a12.85,12.85,0,0,1-3.45-.33c-1.08-.1-2.16-.18-3.24-.27s-2-.24-3-.24c-3.51,0-7,0-10.54,0a16.58,16.58,0,0,1-5.11-.37,6.79,6.79,0,0,0-2.16-.22c-4.68.12-9.36-.41-14,0a9.91,9.91,0,0,1-1.08-.06c-2.69-.05-5.38-.62-8.1-.11a4.82,4.82,0,0,1-1.34-.14,3.27,3.27,0,0,0-1.33-.14c-1.86.59-3.72.37-5.62.38s-3.6-.29-5.39-.16a52.48,52.48,0,0,1-5.62-.27,15.6,15.6,0,0,0-2.41-.27c-2.86.37-5.7.86-8.55,1.29a1.94,1.94,0,0,0-1.47,1.07c-.33.63-.57,1.3-.87,2l1.47,1.34a31.08,31.08,0,0,1,.16,6.18c-.08,1.33.19,2.68.2,4s-.11,2.86-.12,4.29c0,2,.52,3.94,0,5.9.53,3.07-.19,6.12-.26,9.18a86.07,86.07,0,0,0,.7,13.72,52.87,52.87,0,0,1,.37,8.05c0,.9.06,1.81.12,2.71s.21,1.78.2,2.67c0,2.88-.18,5.77-.19,8.65s0,6,.15,8.93a20.68,20.68,0,0,1-.27,5.39,1.59,1.59,0,0,0-.09.79c.73,2,.22,4.12.32,6.18a79.09,79.09,0,0,1,0,12.12c-.24,2.23-.23,4.48-.42,6.72a32.84,32.84,0,0,0,.3,7.54c.34,2.31.41,4.65.77,7a13.51,13.51,0,0,1-.25,2.41c0,1.34,0,2.68,0,4a11.07,11.07,0,0,1,.15,1.88c-.25,1.49.28,2.86.54,4.28a2.76,2.76,0,0,0,1.59,2.07,6.6,6.6,0,0,0,2.32.58c4.07.24,8.09-.46,12.14-.68,2.25-.12,4.49-.55,6.72-.53a34.57,34.57,0,0,0,7.26-.29,1.94,1.94,0,0,1,1.07,0,8.37,8.37,0,0,0,3.68.31,31.09,31.09,0,0,0,.49,5.44,8.73,8.73,0,0,1,.05,1.62c0,1,0,2,.05,3.06h-.07c.06.74.16,1.49.19,2.23a2.41,2.41,0,0,0,1.55,2.27,11.19,11.19,0,0,0,3.93,1.07,29.78,29.78,0,0,0,6.26-.68c2-.35,3.95-1,6-.72a2.86,2.86,0,0,0,.87-.08,7.16,7.16,0,0,1,2.57-.06,6.54,6.54,0,0,0,3.2,0,4,4,0,0,1,1.29,0c.72,0,1.45,0,2.17,0,2.52-.23,5-.49,7.56-.73a58.44,58.44,0,0,0,6.46-.8,12.13,12.13,0,0,1,1.49-.13,2.43,2.43,0,0,0,.83-.1c1.8-1,3.8-.84,5.72-.85a3.57,3.57,0,0,0,2.38-.75,2.35,2.35,0,0,0,.75-2.44c-.27-1.73-.51-3.48-.78-5.22,0-.33-.16-.65-.24-1a16.69,16.69,0,0,1-.52-2.17c-.12-1-.37-1.94-.47-2.93a35.41,35.41,0,0,1,6.12-1.46,11.41,11.41,0,0,0,2-.73,21.12,21.12,0,0,1,4.34-1.35c3.08-.31,5.34-2.12,7.59-3.85,2.06-1.58,3.73-3.64,5.69-5.37,2.19-1.92,3.57-4.49,5.53-6.59.7-1.85,1.92-3.45,2.38-5.44s1.24-3.76,1.87-5.64A10.39,10.39,0,0,0,555.49,564.2ZM505.93,563a17.47,17.47,0,0,1-3,7.38,1.79,1.79,0,0,1-.58.55,22.31,22.31,0,0,1-8.65,2.85,18.81,18.81,0,0,1-4.28-.4,15.42,15.42,0,0,0-5.95-.19,8.17,8.17,0,0,1,.21-1.92c1.23-2.84,1-5.82.89-8.78s-.38-5.9-.56-8.85c-.08-1.28.4-1.72,1.76-1.74.53,0,1.06-.08,1.59-.08a47.81,47.81,0,0,1,4.79,0c1.76.16,3.56,0,5.34.36.08,0,.19,0,.26,0,2,.83,4,1.63,5.89,2.53a2.91,2.91,0,0,1,1,1.23C506.54,559.23,506.56,559.24,505.93,563Zm-21.19-62.78c2.76.22,5.53-.82,8.29.1a3.2,3.2,0,0,0,1.83-.12,4.36,4.36,0,0,1,2.65.09,25,25,0,0,0,3.37.89,3.67,3.67,0,0,1,3.17,3.23,7.24,7.24,0,0,1,0,3.21,42.23,42.23,0,0,0-.91,6.09,3.94,3.94,0,0,1-1.76,3.13c-1.19.8-2.25,1.8-3.47,2.57a6.77,6.77,0,0,1-4.09,1.11c-1.41-.08-2.84.35-4.27.4a25.73,25.73,0,0,1-4-.21,1.43,1.43,0,0,1-1.26-1.53c0-1.34,0-2.68,0-4-.05-2.06.1-4.13-.64-6.13a5,5,0,0,1-.24-2.11,14.25,14.25,0,0,0-.06-4.83A1.42,1.42,0,0,1,484.74,500.25Z"/><path d="M683.77,553.88a7.79,7.79,0,0,0,0-1.08c-.28-3.87-.61-7.72-.83-11.59-.14-2.42-.19-4.85-.17-7.27a60.88,60.88,0,0,1,.32-7,23.23,23.23,0,0,0,0-5.4c-.19-1.68-.25-3.38-.34-5.06s.07-3-.64-4.47a7,7,0,0,1-.35-1.86c-.37-2-.83-4.06-1.1-6.1-.24-1.86-.79-3.71-.35-5.63A3.48,3.48,0,0,0,680,496c-.57-1.11-1-2.28-1.57-3.59a16.42,16.42,0,0,0,1.46-.9c.6-.48.54-1.39-.15-1.5a4.17,4.17,0,0,1-2.89-2.25c-1.08-1.75-2.1-3.55-3-5.4a28.84,28.84,0,0,0-3.09-4.41c-3-1.87-5.26-4.66-8.45-6.23-.4-.2-.72-.55-1.1-.78-2.59-1.62-5.12-3.35-8.19-4a13.48,13.48,0,0,1-3.84-1.23,6.23,6.23,0,0,0-3.35-.83,3.58,3.58,0,0,1-3-1,1.77,1.77,0,0,0-1.18-.55,36.34,36.34,0,0,1-4.56-.5,66.15,66.15,0,0,0-9.44-.51c-1,.07-2,.2-2.94.25-3,.14-6.09.09-9.13.39-1.32.13-2.64.57-4,.21a2.17,2.17,0,0,0-1.29.33c-1.83,1-3.88.69-5.81,1.07-3.64-.59-6.94.83-10.28,1.84-2.41.72-4.71,1.81-7.09,2.64a18.66,18.66,0,0,0-4.85,2.32,7,7,0,0,1-3.27,1.11,13.79,13.79,0,0,0-5.12,1.54,19.56,19.56,0,0,0-5.67,5,5.51,5.51,0,0,1-1.24,1.42,11.49,11.49,0,0,0-4.83,6.28c-.69,1.94-1.88,3.71-2.56,5.65a19.5,19.5,0,0,0-1.29,5.78,31.87,31.87,0,0,1-.91,5.8c-.26,1.24-.55,2.47-.69,3.72-.21,2-.34,3.95-.46,5.93-.13,2.16-.29,4.32-.29,6.48,0,2.7.14,5.4.23,8.1,0,1.15.17,2.31.19,3.47q.09,6.33.14,12.68c0,1.26-.08,2.52,0,3.78.13,2.4-.3,4.77.13,7.22.58,3.35,1.84,6.59,1.72,10.06,0,.26.18.51.24.78.15.79.28,1.58.42,2.38s.28,1.59.39,2.39a36,36,0,0,0,1.74,6.51c.43,1.27.83,2.52,1.38,3.77,1,2.38,1.59,5,3.17,7.11a8.17,8.17,0,0,0,2.73,4.26c1.55,1.51,3.14,3,4.72,4.46a22.53,22.53,0,0,0,8.4,5.24,12.07,12.07,0,0,1,3.19,1.45,8.08,8.08,0,0,0,2.5.94q5.22,1.38,10.46,2.67a24.15,24.15,0,0,0,2.93.47c3.49.38,7-.64,10.49.36a.61.61,0,0,0,.27,0,35.19,35.19,0,0,1,8.88.21,5.26,5.26,0,0,0,1.62.1c2.56-.54,5.18,0,7.77-.49s5.53-.47,8.26-1.24c2.32-.66,4.81-.71,7.17-1.26a27.42,27.42,0,0,0,9.79-4.41,9.37,9.37,0,0,1,1.66-.87,51.21,51.21,0,0,0,6.07-2.89,45.55,45.55,0,0,0,5.38-4.47c1-.89,1.76-2.16,2.89-2.82a10,10,0,0,0,3.07-3c1-1.39,2-2.74,3-4.15a26,26,0,0,0,2.42-3.86c1.11-2.46,1.93-5,3-7.51a9.33,9.33,0,0,0,.95-5,3.71,3.71,0,0,1,.05-.81C683.79,561.79,683.43,557.82,683.77,553.88Zm-98.83-10.31a24.79,24.79,0,0,1-2.54-2.8c-1.31-1.93-2.62-3.91-1.92-6.48a7.72,7.72,0,0,0,0-1.75c1.55-2.3,3.87-3.46,6-4.66a9.82,9.82,0,0,1,6.29-1.12,4.34,4.34,0,0,0,1.32.16c3.39-.57,6.81-.19,10.21-.3a2.49,2.49,0,0,0,1.07-.08c1.68-.89,3.49-.69,5.28-.83A38.56,38.56,0,0,0,615,525a11.46,11.46,0,0,1,4.62-.29,263.65,263.65,0,0,0-21.1,22.48,31.25,31.25,0,0,0-4.56,1,1.64,1.64,0,0,1-2.1-.76,1.79,1.79,0,0,0-1.31-.82A10.34,10.34,0,0,1,584.94,543.57Zm75.1-3.64a3.78,3.78,0,0,1-2,2.4,31.56,31.56,0,0,1-5,1.92c-1.9.44-3.81,1.19-5.85.71a2.16,2.16,0,0,0-1.06.13c-2.87.93-5.85.9-8.8,1.24s-5.62-.12-8.42.18l16.36-21.17a2.52,2.52,0,0,0,1.2-.22c2-1,4.08-.52,6.1-.19a3.53,3.53,0,0,1,3,2.09,1.78,1.78,0,0,0,.44.67c2,1.64,2.75,4,3.7,6.2A8.08,8.08,0,0,1,660,539.93Z"/><path d="M445.12,380.36a7.79,7.79,0,0,0,0-1.08c-.28-3.86-.61-7.72-.83-11.59-.14-2.42-.19-4.84-.17-7.27a62.91,62.91,0,0,1,.32-7,23.32,23.32,0,0,0,0-5.41c-.18-1.68-.25-3.38-.34-5.06-.08-1.53.07-3-.64-4.47a7.3,7.3,0,0,1-.35-1.86c-.37-2-.83-4.05-1.1-6.1-.24-1.86-.79-3.71-.35-5.63a3.42,3.42,0,0,0-.39-2.36c-.57-1.1-1-2.28-1.57-3.59a16,16,0,0,0,1.47-.9c.59-.48.53-1.38-.15-1.49a4.14,4.14,0,0,1-2.89-2.26c-1.08-1.75-2.11-3.55-3-5.4a28.84,28.84,0,0,0-3.09-4.41c-3-1.86-5.26-4.66-8.45-6.23-.4-.2-.72-.55-1.1-.78-2.59-1.62-5.12-3.35-8.18-4a13.45,13.45,0,0,1-3.85-1.23,6.11,6.11,0,0,0-3.35-.82,3.6,3.6,0,0,1-3-1,1.75,1.75,0,0,0-1.19-.54,37.92,37.92,0,0,1-4.55-.51,64.86,64.86,0,0,0-9.44-.5c-1,.06-2,.19-2.95.24-3,.14-6.09.09-9.13.39-1.32.13-2.63.57-4,.22a2.09,2.09,0,0,0-1.29.32c-1.82,1-3.87.69-5.8,1.07-3.65-.59-6.95.84-10.29,1.84-2.41.73-4.71,1.81-7.09,2.64a18.69,18.69,0,0,0-4.85,2.33,7.07,7.07,0,0,1-3.27,1.1,13.85,13.85,0,0,0-5.12,1.54,19.56,19.56,0,0,0-5.67,4.95,5.51,5.51,0,0,1-1.24,1.42,11.53,11.53,0,0,0-4.83,6.28c-.68,1.94-1.88,3.71-2.56,5.66a19.37,19.37,0,0,0-1.29,5.77,32.11,32.11,0,0,1-.91,5.81c-.26,1.23-.55,2.46-.69,3.71-.21,2-.34,3.95-.46,5.93-.13,2.16-.29,4.32-.29,6.48,0,2.7.14,5.4.24,8.1,0,1.16.16,2.31.18,3.47.07,4.23.11,8.46.15,12.69,0,1.25-.09,2.51,0,3.77.13,2.4-.3,4.77.13,7.22.58,3.35,1.84,6.6,1.72,10.06,0,.26.19.51.24.78.15.79.28,1.59.42,2.38s.28,1.59.4,2.39a35.71,35.71,0,0,0,1.73,6.51c.43,1.27.84,2.53,1.38,3.77,1,2.38,1.6,5,3.17,7.11a8.23,8.23,0,0,0,2.73,4.26c1.55,1.51,3.14,3,4.72,4.46a22.64,22.64,0,0,0,8.41,5.25,11.67,11.67,0,0,1,3.18,1.44,8.08,8.08,0,0,0,2.5.94q5.22,1.38,10.47,2.67a20.42,20.42,0,0,0,2.92.47c3.49.38,7-.64,10.49.36a.83.83,0,0,0,.27,0,34.72,34.72,0,0,1,8.88.2,5.26,5.26,0,0,0,1.62.1c2.57-.54,5.18,0,7.78-.49s5.52-.46,8.25-1.24c2.32-.66,4.81-.71,7.17-1.26a27.26,27.26,0,0,0,9.79-4.41,10.5,10.5,0,0,1,1.66-.87,51.21,51.21,0,0,0,6.07-2.89,44.75,44.75,0,0,0,5.38-4.47c1-.89,1.76-2.16,2.89-2.82a10,10,0,0,0,3.07-3c1-1.39,2-2.74,3-4.15a26,26,0,0,0,2.42-3.86c1.11-2.45,1.93-5,3-7.5a9.39,9.39,0,0,0,.95-5,3.71,3.71,0,0,1,.05-.81C445.14,388.28,444.78,384.31,445.12,380.36Zm-89.84-5.65a1.65,1.65,0,0,1-2.1-.75,1.77,1.77,0,0,0-1.31-.83,10.28,10.28,0,0,1-5.58-3.08,24.79,24.79,0,0,1-2.54-2.8c-1.3-1.93-2.61-3.91-1.92-6.48a7.72,7.72,0,0,0,0-1.75c1.55-2.29,3.87-3.46,6-4.65a9.76,9.76,0,0,1,6.29-1.13,4,4,0,0,0,1.32.16,35.86,35.86,0,0,1,6.38-.31c-.06,2,.68,4.21,1.05,6.25.86,4.65-.32,9.4-.62,14.13A27.6,27.6,0,0,0,355.28,374.71Zm24.53-2.13a25.73,25.73,0,0,0-4.46-.37l-.51-2.94a6.37,6.37,0,0,1-.14-2.13,12,12,0,0,1,.74-2.08,12.67,12.67,0,0,0,.49-4.55q-.07-4.44-.41-8.85l.8-.16a10.44,10.44,0,0,1,5.06-.18,1.63,1.63,0,0,0,1.05.09c1.41-.84,2.65-.17,3.84.41a11,11,0,0,0,2.78.93q.38,10,.12,20.11C386.06,372.4,382.92,373,379.81,372.58Zm41.58-6.17a3.75,3.75,0,0,1-2,2.4,30.3,30.3,0,0,1-5.05,1.92c-1.89.44-3.8,1.19-5.84.71a2.21,2.21,0,0,0-1.07.13,22.09,22.09,0,0,1-4.6.87l-.66-19.89a5.7,5.7,0,0,0,1.38-.25,7.25,7.25,0,0,1,2.91-.48,2.67,2.67,0,0,0,1.32-.21c2-1,4.07-.52,6.09-.19a3.5,3.5,0,0,1,3,2.08,1.91,1.91,0,0,0,.44.67c2,1.64,2.75,4,3.7,6.2A8,8,0,0,1,421.39,366.41Z"/><path d="M692.22,711.81a6.36,6.36,0,0,0,0-1.07c-.27-3.81-.6-7.61-.82-11.42-.13-2.39-.18-4.79-.16-7.18a59.16,59.16,0,0,1,.32-6.92,23.18,23.18,0,0,0,0-5.33c-.18-1.66-.24-3.33-.33-5s.06-3-.64-4.41a7.15,7.15,0,0,1-.34-1.83c-.37-2-.82-4-1.08-6-.25-1.83-.79-3.66-.35-5.55a3.45,3.45,0,0,0-.39-2.33c-.56-1.09-1-2.25-1.54-3.54.7-.43,1.1-.62,1.44-.89.59-.47.53-1.36-.15-1.47a4.13,4.13,0,0,1-2.85-2.22c-1.06-1.74-2.07-3.51-3-5.33a29.44,29.44,0,0,0-3-4.35c-2.94-1.84-5.19-4.6-8.34-6.15-.4-.19-.71-.54-1.09-.77-2.55-1.59-5-3.3-8.07-4a13.19,13.19,0,0,1-3.8-1.21,6,6,0,0,0-3.29-.82,3.52,3.52,0,0,1-2.93-1,1.75,1.75,0,0,0-1.17-.54,36.92,36.92,0,0,1-4.49-.49,64.41,64.41,0,0,0-9.31-.5c-1,.07-1.94.19-2.91.24-3,.14-6,.09-9,.39-1.3.12-2.6.55-4,.21a2,2,0,0,0-1.27.32c-1.8,1-3.82.68-5.73,1.05-3.59-.58-6.84.83-10.14,1.82-2.38.71-4.64,1.78-7,2.6a18.52,18.52,0,0,0-4.79,2.29,7,7,0,0,1-3.22,1.1,13.41,13.41,0,0,0-5.05,1.51,19.46,19.46,0,0,0-5.6,4.88,5,5,0,0,1-1.22,1.4,11.35,11.35,0,0,0-4.76,6.2c-.68,1.92-1.86,3.66-2.53,5.58a19.21,19.21,0,0,0-1.27,5.69,31.11,31.11,0,0,1-.9,5.73c-.25,1.21-.54,2.43-.67,3.66-.22,1.95-.34,3.9-.46,5.86-.13,2.12-.29,4.25-.29,6.38,0,2.66.14,5.33.23,8,0,1.14.17,2.28.19,3.42q.09,6.25.14,12.52c0,1.24-.09,2.48,0,3.72.14,2.37-.29,4.7.13,7.12.58,3.3,1.82,6.51,1.7,9.93,0,.25.18.5.23.76.15.78.28,1.57.42,2.35s.28,1.57.39,2.35a36.73,36.73,0,0,0,1.71,6.43c.43,1.25.83,2.49,1.36,3.72,1,2.34,1.58,4.89,3.13,7a8.15,8.15,0,0,0,2.69,4.2c1.53,1.49,3.1,2.94,4.66,4.4a22.28,22.28,0,0,0,8.29,5.17,12,12,0,0,1,3.14,1.42,7.91,7.91,0,0,0,2.47.94q5.14,1.35,10.32,2.63a21.33,21.33,0,0,0,2.88.46c3.44.38,6.93-.63,10.35.35a.49.49,0,0,0,.27,0,34.18,34.18,0,0,1,8.75.21,5.8,5.8,0,0,0,1.6.1c2.53-.54,5.11,0,7.67-.49s5.45-.46,8.14-1.23c2.29-.65,4.75-.69,7.08-1.24a26.73,26.73,0,0,0,9.65-4.35,10.65,10.65,0,0,1,1.64-.86,49.67,49.67,0,0,0,6-2.84,45.33,45.33,0,0,0,5.31-4.41c1-.89,1.74-2.14,2.85-2.78a9.89,9.89,0,0,0,3-2.94c1-1.36,2-2.7,3-4.09a24.74,24.74,0,0,0,2.38-3.81c1.1-2.42,1.9-5,3-7.4a9.17,9.17,0,0,0,.94-4.9,3.59,3.59,0,0,1,0-.8C692.24,719.62,691.88,715.7,692.22,711.81Zm-32.17-39.34a31.19,31.19,0,0,1-2.18,4.85c-1,1.64-1.83,3.49-3.58,4.58a2.09,2.09,0,0,0-.66.83c-1.35,2.65-3.45,4.71-5.27,7-1.48,1.85-3.33,3.32-4.91,5a6.18,6.18,0,0,0,.59.74,21.59,21.59,0,0,0,4.52,3.73,5.83,5.83,0,0,1,1.34.87,26.32,26.32,0,0,0,6.45,4.69,1.63,1.63,0,0,1,.94,2,1.7,1.7,0,0,0,.34,1.49,10.18,10.18,0,0,1,1.74,6,24.34,24.34,0,0,1-.18,3.73c-.44,2.25-.9,4.55-3.18,5.86a6.85,6.85,0,0,0-1.23,1.2c-2.69.52-5.12-.29-7.46-1a9.59,9.59,0,0,1-5.17-3.61,4.4,4.4,0,0,0-.81-1l-.42-.31c.13.49.26,1,.41,1.47a1.63,1.63,0,0,1-.75,2.07,1.77,1.77,0,0,0-.82,1.29,10.11,10.11,0,0,1-3,5.5A23.34,23.34,0,0,1,634,732c-1.9,1.29-3.85,2.58-6.38,1.9a7,7,0,0,0-1.73,0c-2.27-1.53-3.41-3.82-4.59-6a9.58,9.58,0,0,1-1.11-6.2,4.28,4.28,0,0,0,.16-1.31c0-.17,0-.34-.08-.51-.26.44-.51.88-.75,1.33a1.62,1.62,0,0,1-2,.93,1.77,1.77,0,0,0-1.49.34,10.18,10.18,0,0,1-6,1.74,23.14,23.14,0,0,1-3.73-.18c-2.25-.43-4.55-.9-5.85-3.18a7.7,7.7,0,0,0-1.21-1.23c-.52-2.69.29-5.11,1-7.46a9.58,9.58,0,0,1,3.6-5.17,4.4,4.4,0,0,0,1-.81c2-2.77,4.62-4.89,6.92-7.33.24-.26.6-.5.69-.81.53-1.74,1.87-2.85,3-4.14-.46-.49-.93-1-1.4-1.43-1.11-1.11-2.68-1.73-3.73-3a16.65,16.65,0,0,0-1.68-1.68,6.92,6.92,0,0,0-1.49-1.1,7.24,7.24,0,0,1-2.37-1.69,2.59,2.59,0,0,0-1.06-.77c-2.12-.68-3.2-2.48-4.38-4.12a3.47,3.47,0,0,1-.62-3.52,1.63,1.63,0,0,0,.16-.78c-.22-2.5.86-4.7,1.75-6.9a7.93,7.93,0,0,1,3.9-4.53,3.74,3.74,0,0,1,3.09-.25,30.83,30.83,0,0,1,4.86,2.19c1.63,1,3.49,1.82,4.58,3.57a2,2,0,0,0,.83.66c.32.17.64.34.94.53a6,6,0,0,1,0-.95,2.61,2.61,0,0,0-.21-1.3c-1-2-.51-4-.18-6a3.48,3.48,0,0,1,2-2.93,1.51,1.51,0,0,0,.66-.44c1.62-1.92,3.94-2.71,6.12-3.64a8,8,0,0,1,6-.45,3.72,3.72,0,0,1,2.37,2,30.57,30.57,0,0,1,1.89,5c.44,1.88,1.18,3.76.7,5.77a2.12,2.12,0,0,0,.13,1c.11.35.21.7.29,1a5.28,5.28,0,0,1,.66-.68,2.66,2.66,0,0,0,.77-1.06c.69-2.12,2.48-3.21,4.12-4.39a3.44,3.44,0,0,1,3.52-.61,1.75,1.75,0,0,0,.78.15c2.5-.22,4.7.87,6.9,1.75a7.94,7.94,0,0,1,4.53,3.9A3.76,3.76,0,0,1,660.05,672.47Z"/></svg>