<svg id="Camada_1" data-name="Camada 1" xmlns="http://www.w3.org/2000/svg" viewBox="0 0 1080 1080"><path d="M930.69,547.49a4.53,4.53,0,0,0,0-.64c-.16-2.25-.35-4.51-.49-6.77-.08-1.42-.11-2.84-.09-4.25a37.56,37.56,0,0,1,.18-4.11,13.37,13.37,0,0,0,0-3.16c-.11-1-.15-2-.2-3a6.28,6.28,0,0,0-.38-2.61,4.29,4.29,0,0,1-.2-1.09c-.22-1.19-.49-2.37-.64-3.57a8.93,8.93,0,0,1-.21-3.3,2,2,0,0,0-.23-1.37c-.33-.65-.59-1.34-.92-2.1.42-.26.66-.37.86-.53.35-.28.31-.81-.09-.87a2.46,2.46,0,0,1-1.69-1.32c-.63-1-1.23-2.08-1.77-3.16a16.54,16.54,0,0,0-1.8-2.58c-1.74-1.09-3.08-2.73-4.95-3.65-.23-.11-.42-.32-.64-.45a15.52,15.52,0,0,0-4.79-2.36,7.8,7.8,0,0,1-2.25-.72,3.53,3.53,0,0,0-2-.48,2.11,2.11,0,0,1-1.73-.59,1,1,0,0,0-.7-.32,23.51,23.51,0,0,1-2.66-.29,37.76,37.76,0,0,0-5.52-.3c-.58,0-1.15.11-1.72.14-1.78.09-3.56.06-5.34.23a6.61,6.61,0,0,1-2.35.13,1.17,1.17,0,0,0-.75.19c-1.07.58-2.27.4-3.4.62-2.13-.34-4.06.49-6,1.08-1.41.42-2.75,1.06-4.14,1.54a11.09,11.09,0,0,0-2.84,1.36,4,4,0,0,1-1.91.65,8.11,8.11,0,0,0-3,.9,11.45,11.45,0,0,0-3.31,2.9,3.45,3.45,0,0,1-.73.83,6.64,6.64,0,0,0-2.82,3.67c-.4,1.14-1.1,2.17-1.5,3.31a11.35,11.35,0,0,0-.76,3.38,17.48,17.48,0,0,1-.53,3.39c-.15.72-.32,1.44-.4,2.17-.13,1.16-.2,2.32-.27,3.48s-.17,2.52-.17,3.78c0,1.58.08,3.16.14,4.74,0,.68.09,1.35.1,2,0,2.47.07,4.95.09,7.42,0,.74-.05,1.47,0,2.21a35.09,35.09,0,0,0,.08,4.22c.34,2,1.07,3.86,1,5.89a2.59,2.59,0,0,0,.14.45c.09.47.17.93.25,1.4s.16.92.23,1.39a21,21,0,0,0,1,3.81c.26.74.49,1.48.81,2.21a20.66,20.66,0,0,0,1.86,4.16,4.84,4.84,0,0,0,1.59,2.49c.91.88,1.84,1.74,2.76,2.61a13.21,13.21,0,0,0,4.92,3.06,7.11,7.11,0,0,1,1.86.85,4.56,4.56,0,0,0,1.47.55q3,.81,6.12,1.56A13.85,13.85,0,0,0,882,579c2,.22,4.11-.38,6.14.21h.15a20.57,20.57,0,0,1,5.2.12,3.33,3.33,0,0,0,.94.06c1.5-.32,3,0,4.55-.29s3.24-.27,4.83-.73c1.36-.38,2.81-.41,4.2-.73a15.83,15.83,0,0,0,5.72-2.58,6,6,0,0,1,1-.51,30.45,30.45,0,0,0,3.55-1.69,26.93,26.93,0,0,0,3.15-2.61,11.93,11.93,0,0,1,1.69-1.65,5.84,5.84,0,0,0,1.79-1.74c.59-.81,1.2-1.6,1.76-2.43a15.59,15.59,0,0,0,1.42-2.26c.64-1.43,1.12-2.94,1.76-4.39a5.5,5.5,0,0,0,.55-2.9,1.94,1.94,0,0,1,0-.48C930.71,552.12,930.49,549.8,930.69,547.49Zm-52.55-3.3a1,1,0,0,1-1.22-.45,1,1,0,0,0-.77-.48,6,6,0,0,1-3.26-1.8,14.33,14.33,0,0,1-1.49-1.64c-.76-1.13-1.53-2.29-1.12-3.79a4.89,4.89,0,0,0,0-1,9.17,9.17,0,0,1,3.53-2.73,5.67,5.67,0,0,1,3.68-.65,2.61,2.61,0,0,0,.77.09,20.28,20.28,0,0,1,3.73-.18,18.84,18.84,0,0,0,.62,3.65c.5,2.72-.19,5.5-.37,8.27A15.64,15.64,0,0,0,878.14,544.19Zm14.35-1.26a15.2,15.2,0,0,0-2.6-.21l-.31-1.72a4,4,0,0,1-.08-1.24,6.58,6.58,0,0,1,.44-1.22,7.46,7.46,0,0,0,.28-2.66c0-1.73-.11-3.46-.24-5.18l.47-.09a6.18,6.18,0,0,1,3-.11c.2.06.47.14.62,0,.82-.49,1.54-.1,2.24.25a6.5,6.5,0,0,0,1.63.54q.21,5.88.06,11.76C896.15,542.83,894.31,543.17,892.49,542.93Zm24.32-3.6a2.17,2.17,0,0,1-1.19,1.4,17.34,17.34,0,0,1-3,1.12,7.35,7.35,0,0,1-3.42.42,1.27,1.27,0,0,0-.63.08,13,13,0,0,1-2.69.5q-.2-5.82-.38-11.63a3.61,3.61,0,0,0,.81-.14,4.09,4.09,0,0,1,1.7-.29,1.55,1.55,0,0,0,.77-.12,5.44,5.44,0,0,1,3.56-.11,2.07,2.07,0,0,1,1.74,1.22,1,1,0,0,0,.26.39,8.86,8.86,0,0,1,2.16,3.63A4.68,4.68,0,0,1,916.81,539.33Z"/><path d="M217,549.64a4.56,4.56,0,0,0,0-.64c-.17-2.26-.36-4.51-.49-6.77-.08-1.42-.11-2.84-.1-4.26a37.27,37.27,0,0,1,.19-4.1,13.37,13.37,0,0,0,0-3.16c-.1-1-.14-2-.19-3a6.33,6.33,0,0,0-.38-2.62,3.76,3.76,0,0,1-.2-1.08c-.22-1.19-.49-2.38-.65-3.57a9.15,9.15,0,0,1-.2-3.3,2.06,2.06,0,0,0-.23-1.38c-.33-.64-.59-1.33-.92-2.1a8.87,8.87,0,0,0,.86-.52c.34-.28.31-.81-.09-.88a2.44,2.44,0,0,1-1.69-1.31c-.63-1-1.23-2.08-1.77-3.16a17.93,17.93,0,0,0-1.81-2.59c-1.74-1.09-3.07-2.72-4.94-3.64a6.86,6.86,0,0,1-.64-.46,15.83,15.83,0,0,0-4.79-2.35,8.11,8.11,0,0,1-2.25-.72,3.55,3.55,0,0,0-2-.48A2.11,2.11,0,0,1,193,497a1,1,0,0,0-.7-.32,21.22,21.22,0,0,1-2.66-.3,39.2,39.2,0,0,0-5.52-.29c-.58,0-1.15.11-1.73.14-1.78.09-3.56.06-5.33.23a6.63,6.63,0,0,1-2.35.13,1.17,1.17,0,0,0-.75.19c-1.07.57-2.27.4-3.4.62-2.13-.34-4.06.49-6,1.08-1.41.42-2.75,1.06-4.14,1.54a10.93,10.93,0,0,0-2.84,1.36,4.14,4.14,0,0,1-1.91.65,8.05,8.05,0,0,0-3,.9,11.58,11.58,0,0,0-3.32,2.89,2.92,2.92,0,0,1-.72.83,6.76,6.76,0,0,0-2.83,3.68c-.4,1.14-1.1,2.17-1.49,3.31a11.05,11.05,0,0,0-.76,3.37,19.12,19.12,0,0,1-.53,3.4c-.15.72-.32,1.44-.4,2.17-.13,1.16-.2,2.32-.27,3.47s-.17,2.53-.17,3.79c0,1.58.08,3.16.13,4.74,0,.68.1,1.35.11,2,0,2.47.06,4.95.09,7.42,0,.73-.05,1.47,0,2.21a35.07,35.07,0,0,0,.07,4.22c.35,2,1.08,3.86,1,5.89a2.59,2.59,0,0,0,.14.45c.09.46.17.93.24,1.39s.17.93.24,1.4a21,21,0,0,0,1,3.81c.26.74.49,1.48.81,2.21a20.3,20.3,0,0,0,1.85,4.15,4.84,4.84,0,0,0,1.6,2.49c.91.89,1.84,1.75,2.76,2.61a13.23,13.23,0,0,0,4.92,3.07,6.65,6.65,0,0,1,1.86.85,5.08,5.08,0,0,0,1.47.55c2,.53,4.07,1.06,6.12,1.56a12,12,0,0,0,1.7.27c2.05.23,4.11-.37,6.14.21a.29.29,0,0,0,.16,0,20,20,0,0,1,5.19.12,3.43,3.43,0,0,0,.95.06c1.5-.32,3,0,4.55-.29s3.23-.27,4.83-.73c1.36-.38,2.81-.41,4.19-.73a16.22,16.22,0,0,0,5.73-2.58,5,5,0,0,1,1-.51,30.45,30.45,0,0,0,3.55-1.69,26.05,26.05,0,0,0,3.15-2.62,13.13,13.13,0,0,1,1.69-1.65,5.81,5.81,0,0,0,1.79-1.73c.58-.81,1.19-1.61,1.76-2.43a15.21,15.21,0,0,0,1.41-2.26c.65-1.43,1.13-3,1.76-4.39a5.45,5.45,0,0,0,.56-2.91,1.89,1.89,0,0,1,0-.47C217,554.27,216.79,551.94,217,549.64Zm-57.81-6A15.22,15.22,0,0,1,157.7,542c-.77-1.13-1.53-2.29-1.13-3.79a4.36,4.36,0,0,0,0-1,9.27,9.27,0,0,1,3.54-2.72,5.73,5.73,0,0,1,3.68-.66,2.27,2.27,0,0,0,.77.1,42.64,42.64,0,0,1,6-.18,1.41,1.41,0,0,0,.62,0,7.25,7.25,0,0,1,3.09-.49,21.53,21.53,0,0,0,2.49-.41,6.66,6.66,0,0,1,2.7-.16,154.78,154.78,0,0,0-12.34,13.14,19,19,0,0,0-2.67.6,1,1,0,0,1-1.23-.44,1,1,0,0,0-.76-.48A6.08,6.08,0,0,1,159.18,543.61Zm43.93-2.13a2.17,2.17,0,0,1-1.19,1.4A18.22,18.22,0,0,1,199,544a7.35,7.35,0,0,1-3.42.42,1.37,1.37,0,0,0-.63.07,25.48,25.48,0,0,1-5.14.73c-1.65.18-3.29-.07-4.93.11l9.57-12.39a1.48,1.48,0,0,0,.7-.12,5.47,5.47,0,0,1,3.57-.11,2.06,2.06,0,0,1,1.74,1.21.9.9,0,0,0,.26.4,9,9,0,0,1,2.16,3.62A4.71,4.71,0,0,1,203.11,541.48Z"/><path d="M841,535.87c2,.9,3.77,1.58,5.43,2.49,1.88,1,3.92,1.84,5.4,3.5a6.34,6.34,0,0,1,1.28,2,16.42,16.42,0,0,0,.77,1.9,3.19,3.19,0,0,1,.41,1.51,2.23,2.23,0,0,0,.2.91,9.17,9.17,0,0,1,.8,2.72,6.89,6.89,0,0,0,.61,2.11,6.05,6.05,0,0,1,.12,4.76c-.37,1.1-.83,2.18-1.09,3.31a24.94,24.94,0,0,1-1.39,3.17c-1.15,1.23-2,2.74-3.24,3.86s-2.12,2.22-3.33,3.14a8.77,8.77,0,0,1-4.44,2.25,12.53,12.53,0,0,0-2.53.79,6.8,6.8,0,0,1-1.19.43,21.85,21.85,0,0,0-4.43,1.14,2.37,2.37,0,0,1-1.09.12,37,37,0,0,0-4.59,0,3,3,0,0,0-.94.11,9,9,0,0,1-3.26.37,19.78,19.78,0,0,0-3.92.08,6.69,6.69,0,0,1-1.41-.06,3.35,3.35,0,0,0-.63,0c-1,.12-2.08.28-3.13.39s-2.31.21-3.47.27-2.09.06-3.13.08-2.12.06-3.17,0a7.51,7.51,0,0,1-2.83-.16,1.18,1.18,0,0,0-.62,0,19.5,19.5,0,0,1-4.25.17c-1.31,0-2.62.24-3.93.31a62.5,62.5,0,0,1-7.11.4,3.73,3.73,0,0,1-1.35-.34,1.63,1.63,0,0,1-.93-1.21,7.31,7.31,0,0,1-.32-2.51,5.78,5.78,0,0,0-.08-1.09c0-.79,0-1.57,0-2.35a7.79,7.79,0,0,0,.15-1.42c-.21-1.35-.26-2.72-.45-4.07a19.18,19.18,0,0,1-.18-4.41c.11-1.31.11-2.63.25-3.93a45.35,45.35,0,0,0,0-7.09c-.05-1.21.25-2.43-.18-3.62a.93.93,0,0,1,.05-.46,11.87,11.87,0,0,0,.16-3.15c-.07-1.74-.09-3.48-.09-5.22s.09-3.38.11-5.07c0-.52-.08-1-.12-1.56s-.07-1.05-.07-1.58a29.71,29.71,0,0,0-.21-4.71,50,50,0,0,1-.41-8c0-1.79.46-3.58.15-5.37a12.53,12.53,0,0,0,0-3.46c0-.83.08-1.67.07-2.5s-.17-1.58-.12-2.36a18.12,18.12,0,0,0-.1-3.61l-.85-.79a12.29,12.29,0,0,1,.51-1.16,1.1,1.1,0,0,1,.86-.63c1.66-.25,3.32-.54,5-.75a8.79,8.79,0,0,1,1.42.15,29.77,29.77,0,0,0,3.28.16c1-.07,2.1.1,3.16.1a10.62,10.62,0,0,0,3.28-.23,2.14,2.14,0,0,1,.78.08,2.72,2.72,0,0,0,.79.08,23.36,23.36,0,0,1,4.73.07c.22,0,.43.05.64,0,2.73-.24,5.47.07,8.21,0a3.81,3.81,0,0,1,1.26.13,9.7,9.7,0,0,0,3,.22c2.05,0,4.11,0,6.16,0,.58,0,1.16.09,1.74.14s1.26.09,1.89.16a7.83,7.83,0,0,0,2,.18A5,5,0,0,1,833,497a13.5,13.5,0,0,0,1.42.21,18,18,0,0,1,1.83.37,29,29,0,0,1,3.58,1.21c1.09.36,2.18.73,3.26,1.11a2.35,2.35,0,0,1,.86.4,9.25,9.25,0,0,0,3.11,1.82,10.76,10.76,0,0,1,3.28,2.64,11.84,11.84,0,0,1,2.67,4.78,4.83,4.83,0,0,1,.1.94,7.36,7.36,0,0,0,.25,1.72,11.47,11.47,0,0,1,.49,4.83,5.37,5.37,0,0,0,0,1.27,11.46,11.46,0,0,1-.05,4.21,2.78,2.78,0,0,1-.37,1c-.67,1.13-1.32,2.28-2.08,3.34a40.24,40.24,0,0,1-2.67,3.31,19.79,19.79,0,0,1-2.53,2.11,7.9,7.9,0,0,0-1.09.9,6.77,6.77,0,0,1-2.82,2A10.16,10.16,0,0,0,841,535.87Zm-27.24,22.4a9.11,9.11,0,0,1,3.48.11,11.24,11.24,0,0,0,2.51.24,13,13,0,0,0,5-1.67.87.87,0,0,0,.34-.32,10.07,10.07,0,0,0,1.77-4.32c.37-2.22.35-2.22-.75-4.15a1.77,1.77,0,0,0-.6-.71c-1.13-.53-2.29-1-3.44-1.48,0,0-.11,0-.16,0-1-.18-2.09-.11-3.12-.21s-1.87,0-2.8,0c-.31,0-.62,0-.93.05-.8,0-1.08.27-1,1,.1,1.72.26,3.45.33,5.17a11.65,11.65,0,0,1-.52,5.14A4.1,4.1,0,0,0,813.77,558.27Zm.47-33.94c0,.78,0,1.57,0,2.35a.84.84,0,0,0,.74.9,15.36,15.36,0,0,0,2.35.12c.83,0,1.67-.28,2.5-.23a4,4,0,0,0,2.39-.66c.71-.44,1.33-1,2-1.5a2.31,2.31,0,0,0,1-1.83,23.89,23.89,0,0,1,.53-3.56,4.12,4.12,0,0,0,0-1.88,2.15,2.15,0,0,0-1.85-1.89,13.61,13.61,0,0,1-2-.52,2.56,2.56,0,0,0-1.55,0,1.88,1.88,0,0,1-1.07.07c-1.62-.54-3.24.07-4.85-.06a.83.83,0,0,0-.84,1.09,8.16,8.16,0,0,1,0,2.83,3,3,0,0,0,.15,1.24A10.82,10.82,0,0,1,814.24,524.33Z"/><path d="M964.52,548.31a8.78,8.78,0,0,0-.1,1.65c.23,1.67.59,3.32.79,5a17.44,17.44,0,0,1,.13,3.31c-.1,1.36-.38,2.7-.58,4.06a28.28,28.28,0,0,0-.08,5c0,.84.05,1.68.05,2.52s0,1.57,0,2.36a1.92,1.92,0,0,1-.1.77,1.9,1.9,0,0,0,0,1.53c.27,1,0,1.51-1,1.84a15.51,15.51,0,0,1-4.8.89c-2,0-3.86-.35-5.82-.3a57.87,57.87,0,0,0-6.32.12,23.78,23.78,0,0,1-3.28-.21c-.88,0-1.77-.08-2.66-.14a7.46,7.46,0,0,1-.93-.14c-.1,0-.2-.15-.28-.13-1.2.24-2.25-.43-3.39-.52s-1.43-.57-1.43-1.51c0-.36,0-.73,0-1.09a25.22,25.22,0,0,0,0-3,8.16,8.16,0,0,1,.07-2,4.74,4.74,0,0,0,0-2.64.86.86,0,0,1,0-.32c.19-2-.35-4-.38-6a41.83,41.83,0,0,1-.07-4.88,21.59,21.59,0,0,0-.11-3.31,84.47,84.47,0,0,1,0-8.86c0-.73.19-1.46.23-2.2a7.06,7.06,0,0,0,0-1.72c-.29-1.39-.18-2.81-.39-4.2a5.33,5.33,0,0,1,.56-2.6,4.1,4.1,0,0,0,.12-2.47,5.4,5.4,0,0,1-.1-2.19,6.77,6.77,0,0,0,0-2.2c-.15-1-.1-2.11-.22-3.15a10.22,10.22,0,0,1,.35-4.36,6.52,6.52,0,0,0,.07-2.68c-.12-.89-.07-1.78-.17-2.66,0-.41-.11-.83-.18-1.24,0-.16-.15-.32-.12-.45a11.92,11.92,0,0,0-.19-3.77,3.35,3.35,0,0,1,.05-.95,2.23,2.23,0,0,0-.09-1.4,1.19,1.19,0,0,1,0-.91,1.55,1.55,0,0,0,0-.93,9,9,0,0,1-.15-3.61,2.73,2.73,0,0,1,.24-.91,1.31,1.31,0,0,1,2-.66,5.42,5.42,0,0,1,.65.59c1.37-.12,2.78-.3,4.2-.36,1.9-.06,3.8,0,5.71,0a10.11,10.11,0,0,0,1.1,0,11.43,11.43,0,0,1,2.5-.29,18.6,18.6,0,0,0,2.36,0c1.15,0,2.31,0,3.46.12a4.33,4.33,0,0,0,1.72-.05,1.25,1.25,0,0,1,.47,0,25.52,25.52,0,0,0,3.13.24c1.63-.07,3.28.22,4.88-.25a7.35,7.35,0,0,1,2.52.06,5.82,5.82,0,0,0,1.72,0,1.72,1.72,0,0,1,.78,0,3.31,3.31,0,0,0,1.87,0,3.88,3.88,0,0,1,1.08-.07,17,17,0,0,0,4.1,0,3,3,0,0,1,.78.08c.74,0,1.48.06,2.21.11.42,0,.84.11,1.25.15s.73.06,1.09.08.61,0,.91.06a3,3,0,0,0,.93.12,6.63,6.63,0,0,1,2.35.22c.88.1,1.77.22,2.65.4.62.12,1.21.34,1.82.52a12,12,0,0,1,5.75,4,31.82,31.82,0,0,0,3.29,3.38,22.62,22.62,0,0,1,2.33,2.8.67.67,0,0,1,.16.43,6.24,6.24,0,0,0,.64,2.1,40.21,40.21,0,0,1,1.09,3.94A23.36,23.36,0,0,1,1006,520a11.44,11.44,0,0,1-.46,2.62,8.06,8.06,0,0,1-.83,2.37,7.65,7.65,0,0,0-.49,1.34,7.21,7.21,0,0,1-.89,1.83,19.75,19.75,0,0,0-1.16,2.24c-.12.23-.2.55-.39.67a7.21,7.21,0,0,0-1.9,2.07,3.61,3.61,0,0,1-1.27.92c-1.15.64-2.3,1.26-3.43,1.93-.85.51-1.64,1.11-2.49,1.64,2.33,1.41,4.57,2.69,6.72,4.1a6.54,6.54,0,0,1,2.62,3.07,11.11,11.11,0,0,1,1.15,3.4,1.23,1.23,0,0,0,.2.6,4.21,4.21,0,0,1,.51,2.9,4.47,4.47,0,0,0,.19,1.54,9.45,9.45,0,0,1,.35,2.18c.07,1.26.05,2.53.06,3.79a3.48,3.48,0,0,0,0,.79,14,14,0,0,1,.12,4.08c0,.21-.12.44-.07.63a30.09,30.09,0,0,1,.19,4.24,4.86,4.86,0,0,0,1.37,3.11,21.33,21.33,0,0,0,2.06,1.72c1,.74,1,.74.6,2.09a3.21,3.21,0,0,1-2.42.38c-.71.71-1.55.41-2.38.33a12.63,12.63,0,0,0-2,0c-.95.07-1.88.21-2.83.31a1.48,1.48,0,0,1-.47,0,24,24,0,0,0-4.24,0,10.13,10.13,0,0,1-2-.33,7.72,7.72,0,0,0-3.13-.22c-1,.19-1.85-.29-2.8-.2-1.41.12-2.84.16-4.26.22a3.5,3.5,0,0,0-1.77.6,1.78,1.78,0,0,1-1.64.12,3.35,3.35,0,0,1-2.44-3c-.09-.62-.08-1.26-.12-1.89s-.09-1.37-.14-2c0-.21-.15-.42-.12-.62.29-2.1-.29-4.17-.17-6.27a23.53,23.53,0,0,0-.17-4.11c-.12-1-.51-2-.73-3.07a40.43,40.43,0,0,0-1.27-4.55,4.22,4.22,0,0,0-2.12-2.62,5,5,0,0,0-2.47-.93,1.26,1.26,0,0,1-.61-.18,3,3,0,0,0-3.15.21A7.1,7.1,0,0,1,964.52,548.31Zm.84-18.44a21.35,21.35,0,0,1,2.88-.48,12.26,12.26,0,0,0,2.49-.36,7.09,7.09,0,0,0,4.18-2.29,4.71,4.71,0,0,0,1.14-2c.16-.77.23-1.56.32-2.34a1.48,1.48,0,0,0-.08-.46c-.1-.4-.18-.82-.3-1.22a23.76,23.76,0,0,0-1.07-3.11,3.36,3.36,0,0,0-3.17-2.2c-.47,0-1-.14-1.42-.11a21.71,21.71,0,0,1-4.56-.15c-.23,0-.49.15-.77.24a34.41,34.41,0,0,0-.36,5c0,1.11.08,2.21.06,3.32a23.22,23.22,0,0,1,.08,3.44c-.07.46,0,.94,0,1.41A1.29,1.29,0,0,0,965.36,529.87Z"/><path d="M489.77,546a3.69,3.69,0,0,0,.81-2,28.25,28.25,0,0,1,.41-3.45c0-.74.15-1.48.11-2.21a40.31,40.31,0,0,1,.56-6.58c.07-.68.07-1.37.08-2.05.05-1.58.08-3.16.13-4.74,0-.85.16-1.69.14-2.52a16.71,16.71,0,0,1,1.09-5,4.54,4.54,0,0,0,.27-1.07,12.8,12.8,0,0,1,.82-3.52c.2-.65.32-1.33.48-2a9.26,9.26,0,0,1,.26-.9c.43-1.08.95-2.13,1.3-3.23a25.33,25.33,0,0,0,.56-2.78,15.91,15.91,0,0,1,.38-1.69,1.13,1.13,0,0,1,1.44-.91,9.76,9.76,0,0,0,5-.48,7.28,7.28,0,0,1,1.55-.26,15.55,15.55,0,0,1,3.92-.19,7.29,7.29,0,0,0,1.89-.18,23.2,23.2,0,0,1,2.36-.18,34.19,34.19,0,0,0,6.15-.32,12.52,12.52,0,0,1,2.21,0c1.06,0,2.11,0,3.17,0a2.38,2.38,0,0,1,2.34,3.24,9.67,9.67,0,0,0-.54,2,11.36,11.36,0,0,1-.68,1.93,3.28,3.28,0,0,0-.35,1.83,3,3,0,0,1-.55,1.95,3.33,3.33,0,0,0-.59,1.93,2.77,2.77,0,0,1-.18.77c-.58,2.19-1.16,4.37-1.72,6.57a42.41,42.41,0,0,1-1.19,4.24,12,12,0,0,0-.4,2.33c-.06.36-.14.72-.2,1.09-.17,1.09-.29,2.2-.52,3.28-.39,1.79-.8,3.59-1.3,5.35-.64,2.23-1.38,4.42-2.06,6.63a7.38,7.38,0,0,0-.16.94,1.72,1.72,0,0,1-.09.62,10.31,10.31,0,0,0-.92,2.83c-.38,1.26-.7,2.53-1.05,3.79,0,.21-.08.42-.14.62-.5,1.55-1,3.12-1.53,4.64a15,15,0,0,1-1.15,3.26.7.7,0,0,0-.08.47,4.69,4.69,0,0,1-.75,2.85,5.34,5.34,0,0,0-.65,2.42,4.25,4.25,0,0,1-.41,1.35,26.33,26.33,0,0,1-1.67,4.26,1.51,1.51,0,0,0-.1.3c-.54,2-1.1,4.06-1.62,6.1a5.21,5.21,0,0,0-.11,1.42c.05,1.2-.37,2.39-.07,3.6.1.4-.22.7-.56.87a4.38,4.38,0,0,1-2.3.48c-1.42-.11-2.84-.35-4.26-.38-1.89-.05-3.76-.46-5.67-.33-2.16.14-4.33.11-6.49.06a50.22,50.22,0,0,0-6,0c-1.4-.63-2.81.08-4.22,0-.94-.08-1.9,0-2.85,0a4.14,4.14,0,0,0-1.71.18,1.73,1.73,0,0,1-1.67-.19,1.83,1.83,0,0,1-.73-1.31,24.19,24.19,0,0,0-1-2.65c-.43-1.19-.84-2.39-1.24-3.59-.55-1.64-1.11-3.29-1.63-4.94a12.55,12.55,0,0,1-.4-1.84,12,12,0,0,0-.79-2.87,30,30,0,0,1-1.26-4.24,6.12,6.12,0,0,0-.49-1.46,12.11,12.11,0,0,1-.87-2.52c-.35-1.32-.64-2.66-1-4a23.67,23.67,0,0,1-.89-3.35,25.75,25.75,0,0,0-.91-4.27c-.33-1.2-.63-2.43-.88-3.66a3.51,3.51,0,0,1-.13-.61,37.6,37.6,0,0,0-.95-4.95,36.18,36.18,0,0,1-1-5.75,2.44,2.44,0,0,0-.2-1.09,8.19,8.19,0,0,1-.71-3.06,6.55,6.55,0,0,0-.63-2.09,5.85,5.85,0,0,1-.57-2.27,29.35,29.35,0,0,0-1.19-5.25,1.48,1.48,0,0,0-.26-.57,7,7,0,0,1-1.26-3.19,3.13,3.13,0,0,0-.16-.62,15.67,15.67,0,0,1-1.06-3.43,1.07,1.07,0,0,0-.12-.45c-1.09-1.4-1.26-3.23-2.2-4.7a2.28,2.28,0,0,1-.23-.74,1.43,1.43,0,0,1,1.58-1.78c.52,0,1.05,0,1.57,0a1.93,1.93,0,0,1,.64,0,12.57,12.57,0,0,0,3.56.58,4.32,4.32,0,0,0,1.39,0,1.52,1.52,0,0,1,.63,0c1.45.41,2.95.15,4.42.31a6.79,6.79,0,0,0,1.42-.06,10.33,10.33,0,0,1,3-.12.81.81,0,0,0,.31,0c1.86-.44,3.78-.3,5.64-.56,1.62-.23,3.23-.22,4.85-.29a12.94,12.94,0,0,1,2.64,0,1.45,1.45,0,0,1,1.37,1.1c.28.95,1,1.71,1.25,2.7,0,.16.14.29.18.44a37.64,37.64,0,0,0,1,4.29,16.55,16.55,0,0,1,.36,2c.33,1.65.69,3.3,1,5,.14.78.41,1.52.62,2.27a12.84,12.84,0,0,1,.74,5c-.21,1.87.29,3.67.36,5.5a53.09,53.09,0,0,1,1.3,8.11c.06.36.14.73.22,1.09.44,2,.89,4,1.35,6A9.64,9.64,0,0,0,489.77,546Z"/><path d="M337,530.32a7.35,7.35,0,0,1,1,4.69,1.91,1.91,0,0,0,0,.63c.46,1.88.07,3.75,0,5.63,0,.47,0,.94,0,1.41-.05.63-.12,1.25-.19,1.88a23.32,23.32,0,0,0,0,4.42,2.3,2.3,0,0,1-2.42,2.66,15.76,15.76,0,0,0-3.13.32,13.31,13.31,0,0,1-2.83.11,20,20,0,0,0-4.09.24.83.83,0,0,1-.31,0,11.79,11.79,0,0,0-3.14-.08,26.45,26.45,0,0,1-2.66-.2c-.57,0-1.14-.21-1.71-.21a26,26,0,0,0-2.65.18.7.7,0,0,0-.59.66,9.11,9.11,0,0,0-.29,2.67,17.91,17.91,0,0,1-.11,3.28c0,.52,0,1,0,1.59a6.53,6.53,0,0,0,3.07.65,47.92,47.92,0,0,1,5.36,0,30.38,30.38,0,0,0,3.16,0,8.13,8.13,0,0,1,2.8.38,3.46,3.46,0,0,0,1.4.16,8.18,8.18,0,0,1,2.83.17,1.61,1.61,0,0,0,.62,0c.84-.09,1.67-.26,2.5-.28,1.58,0,3.17,0,4.75,0a1.74,1.74,0,0,1,1.81,1.4,2.94,2.94,0,0,1,.17,2.29c-.09.21,0,.51.06.77a10.25,10.25,0,0,1-.33,3.61,7.81,7.81,0,0,0-.29,3.41,15.23,15.23,0,0,1,.06,2.53c0,.42,0,.84.05,1.26a33.1,33.1,0,0,0,.36,3.55c.21,1-1,2.35-2.06,2.45a5.57,5.57,0,0,1-2.81,0,.83.83,0,0,0-.47,0,17.34,17.34,0,0,1-3.6.14c-.68,0-1.37.12-2.05.09s-1.57-.26-2.35-.23-1.43.21-2.17.22a50.5,50.5,0,0,0-6.14.4,3.43,3.43,0,0,1-.78,0,6,6,0,0,0-3.12.31,3,3,0,0,1-1.09.17,35.31,35.31,0,0,1-5,.26,6.65,6.65,0,0,0-1.88.2,9.43,9.43,0,0,1-2.65.15c-1.69-.08-3.38-.12-5.06-.19-.9,0-1.79-.07-2.69-.13-1.52-.11-3-.3-4.58-.34-1.25,0-2.51.14-3.77.17-.63,0-1.25-.11-1.88-.13-1.1,0-2.2-.06-3.29-.11a4.7,4.7,0,0,1-1.25-.14,1.61,1.61,0,0,1-1.27-1.46,23.16,23.16,0,0,1-.12-3,22.71,22.71,0,0,0,0-3.78,10.81,10.81,0,0,1,.13-2c.15-1.78.59-3.51.67-5.31a32.31,32.31,0,0,1,0-4.4,3,3,0,0,0-.22-1.55,8.62,8.62,0,0,1-.62-3.4c0-.51-.07-1-.09-1.54-.11-2.29.58-4.49.69-6.76,0-.73,0-1.47,0-2.2a18.69,18.69,0,0,1,0-2.37,40.7,40.7,0,0,0,.05-5.06,11.53,11.53,0,0,1,.1-2,21.07,21.07,0,0,0,.35-4.4c-.08-2.11-.16-4.21-.07-6.32.06-1.26-.05-2.52-.07-3.79,0-1.05,0-2.11,0-3.16a2.58,2.58,0,0,0,0-.79c-.62-1.89-.47-3.86-.61-5.8a4.28,4.28,0,0,0,0-1,15.2,15.2,0,0,1-.21-4.26c0-1.42,0-2.85-.05-4.28a2.05,2.05,0,0,0-.33-1,1.87,1.87,0,0,1,1.27-2.8,6.4,6.4,0,0,1,2-.12,18.81,18.81,0,0,0,4.56,0,6.58,6.58,0,0,1,1.88,0,20.14,20.14,0,0,0,3.47.12c1.37,0,2.75,0,4.12,0,.79,0,1.57.14,2.36.13a15.79,15.79,0,0,0,4.06-.17,1.19,1.19,0,0,1,.62,0,10.85,10.85,0,0,0,3.77,0,12.56,12.56,0,0,0,2,0,18.8,18.8,0,0,1,3-.29,17.55,17.55,0,0,1,2.05,0,21.81,21.81,0,0,0,4.71,0,5,5,0,0,1,1.09,0,11.9,11.9,0,0,0,2.06.07c2.43-.35,4.83.11,7.24.13,1,0,2,.1,3,.12s1.89.09,2.81,0a6.54,6.54,0,0,1,2.86.82.81.81,0,0,1,.45.78c0,.79.09,1.58.13,2.37.07,1.26.12,2.52.19,3.79a8.22,8.22,0,0,0,.17,1.09,3.24,3.24,0,0,1-.22,2.14c-.27.56-.24,1.25-.46,1.83a9.34,9.34,0,0,0-.43,3.4,11.92,11.92,0,0,0,.2,3.76,1.58,1.58,0,0,1-1.73,1.92c-.93-.18-1.75.28-2.66.16a23.68,23.68,0,0,0-2.53,0c-.94,0-1.89-.06-2.83-.16a24.45,24.45,0,0,0-6.78.21c-1,.18-2.08.34-3.12.46a9.49,9.49,0,0,1-1.41,0c-.16,0-.31-.09-.46-.11a13.43,13.43,0,0,0-4.76.56,10.43,10.43,0,0,1-.52,2.54,11.61,11.61,0,0,0-.18,2.53c.28.18.49.43.71.44,1.2,0,2.33.59,3.56.31a5.58,5.58,0,0,1,1.73,0c1.1.12,2.19.34,3.29.45a19.24,19.24,0,0,0,2.52.08c1.68-.08,3.37,0,5-.07,1.26-.08,2.52-.26,3.79-.26A5.3,5.3,0,0,1,337,530.32Z"/><path d="M138,547.68a6.38,6.38,0,0,1,1.32,4.43,5.67,5.67,0,0,0,0,1.09,21.19,21.19,0,0,1,.25,6.88c-.15,1.74-.67,3.41-.73,5.16a12.16,12.16,0,0,1-.6,2.45,22.8,22.8,0,0,1-1.16,3.94,26.77,26.77,0,0,1-1.84,3.47,8.08,8.08,0,0,1-2.68,2.42c-.9.54-1.87,1-2.81,1.44a2.09,2.09,0,0,0-.55.3c-1.19,1-2.69,1.64-4,2.58a1,1,0,0,1-.43.2c-1.51.21-2.9.89-4.45,1a9.13,9.13,0,0,0-3.91,1,4,4,0,0,1-1.5.5c-1.57.18-3.15.3-4.72.44-1.36.12-2.71.25-4.07.47a8.64,8.64,0,0,1-4.53-.24c-1.08-.39-2.22-.62-3.33-.94-.45-.14-.89-.33-1.33-.5a3.86,3.86,0,0,0-.87-.37c-1.46-.21-2.6-1.13-3.89-1.71a5.55,5.55,0,0,1-.77-.53c-.21-.16-.41-.34-.63-.48l-5.34-3.37a30.6,30.6,0,0,1-3.28-2.18,14.28,14.28,0,0,1-1.89-2.32c-.19-.25-.27-.59-.47-.83a13.66,13.66,0,0,1-2.61-5.68,8.74,8.74,0,0,0-.54-1.48c-.2-.49-.46-1-.66-1.43A10.37,10.37,0,0,0,74.88,561a2.57,2.57,0,0,1-.35-.87,5.76,5.76,0,0,0-.71-2.09,1.05,1.05,0,0,1-.13-.61c0-1.17-.54-2.25-.4-3.43a3.77,3.77,0,0,0-.12-.93c-.17-.94-.32-1.88-.54-2.8a13,13,0,0,0-.58-1.8,5.17,5.17,0,0,1-.33-1.84,8.19,8.19,0,0,0-.53-3.85,1.08,1.08,0,0,1-.17-.6c.36-1.44-.29-2.91.12-4.35a13.18,13.18,0,0,1,.22-4.06,4.7,4.7,0,0,1,.22-1.08,4.1,4.1,0,0,0,.17-2.19,5.12,5.12,0,0,1,0-1.41A7.49,7.49,0,0,1,73,525.54a2.19,2.19,0,0,0,.39-1.18,9.3,9.3,0,0,1,.85-3.34,15.83,15.83,0,0,0,1.18-3.92,4.2,4.2,0,0,1,.7-2.09,1.47,1.47,0,0,0,.23-.58,13.9,13.9,0,0,1,1.73-4.06,7.33,7.33,0,0,1,2.39-2.5c.63-.46,1.28-.91,1.92-1.36a4.59,4.59,0,0,1,.92-.61A8.68,8.68,0,0,0,85.82,504,11.42,11.42,0,0,1,91,501.15c1.55-.31,3.11-.53,4.67-.8.31-.06.62-.12.92-.2a21.55,21.55,0,0,1,2.89-.75c1.1-.14,2.14-.46,3.2-.69a9.26,9.26,0,0,1,2-.15c.84,0,1.68.09,2.52.17a9.76,9.76,0,0,1,1.88.22,16.58,16.58,0,0,0,3.91.52c.89,0,1.77.23,2.66.34a19.68,19.68,0,0,1,2,.22,56.18,56.18,0,0,1,6.84,1.85,20.66,20.66,0,0,1,3.43,1.95c.94.56,1.83,1.17,2.82,1.67a11.05,11.05,0,0,1,3.9,3.39,4.42,4.42,0,0,0,.69.85,10,10,0,0,1,2.8,4.32,19.39,19.39,0,0,1,1,3c.27,1.55.43,3.12.7,4.68a1.65,1.65,0,0,1,0,.31c0,1.75-.07,3.49-.12,5.23a2,2,0,0,1-.13.77,1.43,1.43,0,0,0,.12,1.36,2.86,2.86,0,0,1,.25.89c.13.67.25,1.34.35,2a1.94,1.94,0,0,1-1.75,2.05,10.38,10.38,0,0,1-1.11-.09,17.18,17.18,0,0,0-1.89-.15,24.88,24.88,0,0,1-4.72-.5c-.94-.16-1.88-.24-2.83-.34a2.46,2.46,0,0,1-.47,0,15.7,15.7,0,0,0-5.16-.41,25.66,25.66,0,0,0-3.92.28,16.48,16.48,0,0,0-1.69.38,1.81,1.81,0,0,1-2.24-1.23,1.7,1.7,0,0,1-.06-.31,15.84,15.84,0,0,1,.08-4.56c.15-.62.31-1.23.42-1.85a3.36,3.36,0,0,0,0-1c-.12-1-.28-2.08-.31-3.14a2.4,2.4,0,0,0-1.15-1.81.68.68,0,0,0-.43-.16,15.24,15.24,0,0,0-2.52.08,9.22,9.22,0,0,1-2.18.21,2.89,2.89,0,0,0-2.55,1.84c0,.09-.05.2-.09.3a6.51,6.51,0,0,0-.86,3.29c.09,1.14-.24,2.29-.11,3.47.14,1.41.06,2.84.06,4.27a2.67,2.67,0,0,1-.16.6,12.33,12.33,0,0,0-.23,2.65c0,1.8.47,3.57.34,5.34a33.15,33.15,0,0,1-.2,4.57,6,6,0,0,0,0,.94c0,1.27.13,2.52.05,3.79a10.76,10.76,0,0,0,.56,3.43,5.64,5.64,0,0,1,.29,1.68,16.17,16.17,0,0,0,1.59,6.25,1.86,1.86,0,0,0,1.71,1.22,8.54,8.54,0,0,0,2.68-.11,15.56,15.56,0,0,0,2.74-1.43s.1-.07.11-.11c.52-1.41,1.74-2.57,1.46-4.24,0-.06,0-.11,0-.16a14.88,14.88,0,0,0-.95-6.2,2.54,2.54,0,0,1-.11-.78c-.07-1,.6-1.72,1.52-1.49a5.39,5.39,0,0,0,2.79-.09,4.63,4.63,0,0,1,1.72.14,8.12,8.12,0,0,0,2.2-.05,19.33,19.33,0,0,1,3.14-.08,3.79,3.79,0,0,0,1.69-.31,15.67,15.67,0,0,1,8.7-.93C137,547.66,137.4,547.65,138,547.68Z"/><path d="M752.11,576.37a4.57,4.57,0,0,1-2.07-3.48c-.28-1.55-.32-3.16-1.23-4.64a1.61,1.61,0,0,0-1.27-.08,5.73,5.73,0,0,1-2.82.12,1,1,0,0,0-.47-.06,9.47,9.47,0,0,1-3.14.18c-1.63,0-3.26,0-4.9,0-.26,0-.52,0-.79,0-.57,0-.83.33-.85.93,0,.21,0,.42,0,.63a1.52,1.52,0,0,1,0,.63c-.46,1.22-.2,2.51-.41,3.76a7.84,7.84,0,0,1-.54,1.81,2.71,2.71,0,0,1-2.81,1.29c-1.2-.38-2.38-.81-3.74-1.28-1.85,0-3.9,0-5.94,0a12.46,12.46,0,0,0-1.73.11c-1.09.14-2.18.33-3.28.44a18.19,18.19,0,0,1-3.61.28,3.17,3.17,0,0,0-1.08.2,2.1,2.1,0,0,1-2.48-.8c-.22-.3-.42-.62-.61-.93a2,2,0,0,1-.18-2.1,4.32,4.32,0,0,0,.38-2,9.13,9.13,0,0,1,.32-2.19c.25-1.13.57-2.25.85-3.38.2-.76.4-1.52.57-2.29a12.56,12.56,0,0,1,1-3.15,8.55,8.55,0,0,0,.48-3.55c.12-2,.25-4.09.48-6.13a5.34,5.34,0,0,1,.88-2.51,7,7,0,0,0,.92-2.51,6.47,6.47,0,0,1,.28-1.07c.89-2.19,1.42-4.51,2.25-6.73.4-1.08.77-2.16,1.23-3.22a15.32,15.32,0,0,0,.66-2.92,8,8,0,0,1,.31-1.06l1.3-3.39a2.82,2.82,0,0,0,.28-.91c0-1.94.94-3.66,1.38-5.5.37-1.54.67-3.09,1-4.63.08-.36.15-.72.24-1.08a10.09,10.09,0,0,0,.69-2.75c0-.95.34-1.84.26-2.81a5.3,5.3,0,0,1,.43-2.48,7.11,7.11,0,0,0,.62-3.06,2.52,2.52,0,0,1,.5-1.63,6.31,6.31,0,0,0,1.09-3.38c.09-1,.31-2,.47-2.89l1-.83,3.18-.31c1.35-.13,2.68-.63,4.07-.33,1.75-.51,3.55,0,5.32-.18,1.32.52,2.69-.17,4.05.18a8.61,8.61,0,0,0,2.35-.17,63.23,63.23,0,0,0,7.27-.59,4,4,0,0,1,1.23.11,8.69,8.69,0,0,0,3.45.21,1.79,1.79,0,0,1,2.1.72,1.43,1.43,0,0,1,.22,1.34,1.92,1.92,0,0,0-.1.92c.16,1.3.37,2.61.55,3.91.09.67.13,1.34.24,2a9.62,9.62,0,0,0,.42,1.84c.32.83.75,1.62,1.13,2.42a4.29,4.29,0,0,1,.4.84,5,5,0,0,0,.54,1.29,8.61,8.61,0,0,1,.71,2.24,58.81,58.81,0,0,1,1,5.91,17.38,17.38,0,0,0,1.17,4.6c.53,1.36.88,2.8,1.36,4.19a30.88,30.88,0,0,0,1.29,3.22,37.58,37.58,0,0,1,1.6,4.29c.17.5.38,1,.55,1.48a6.75,6.75,0,0,1,.24.91c.11.46.22.92.32,1.38a25,25,0,0,1,.8,3,15.24,15.24,0,0,0,.71,2.58,8.38,8.38,0,0,1,.36,1.54,10.7,10.7,0,0,0,1.45,4.32,4.52,4.52,0,0,1,.64,2.23,12.69,12.69,0,0,0,.53,2.62,6.56,6.56,0,0,1,.33,2.49,3.72,3.72,0,0,0,.16,1.08c0,.15.15.3.15.44.05,2.49,1.43,4.61,1.91,7a12.08,12.08,0,0,1,1.05,4.74,8.81,8.81,0,0,0,.52,2.76,6.13,6.13,0,0,1,.24,1.38,1.58,1.58,0,0,1-1,2,3.48,3.48,0,0,1-1.38.28,18.6,18.6,0,0,0-4.41.09,9.21,9.21,0,0,0-3.43.11,7,7,0,0,0-.78.11,10.29,10.29,0,0,1-4.55.22,1,1,0,0,0-.48,0,10.81,10.81,0,0,1-3.45-.14,36,36,0,0,0-6-.23C754.77,576.47,753.39,576.37,752.11,576.37Zm-10.23-50.12c-.16.13-.23.16-.24.2a17.12,17.12,0,0,1-1.08,3.62c-.1.17,0,.42-.1.62-.37,1.53-.2,3.13-.6,4.66a20.77,20.77,0,0,0-.49,3c-.2,1.67-.43,3.34-.48,5a15.16,15.16,0,0,1-.12,2,14.77,14.77,0,0,0-.08,2,22.31,22.31,0,0,0,6.56.14c-.1-1.13-.15-2.28-.32-3.41s-.51-2.27-.69-3.41-.23-2.2-.35-3.3a13.8,13.8,0,0,1-.18-1.56,29.69,29.69,0,0,0-.69-5.32c-.13-.73-.24-1.45-.34-2.18A3.1,3.1,0,0,0,741.88,526.25Z"/><path d="M362.11,523.1l-6.71.14a6.92,6.92,0,0,1-3,.1c-1.15,0-2.32.08-3.48.13a13.21,13.21,0,0,0-4.93.94,1.12,1.12,0,0,1-1.38-.51,5.41,5.41,0,0,1-.9-3.12,8.22,8.22,0,0,0-.1-2,4.79,4.79,0,0,1,.16-1.87c.17-.88.44-1.74.61-2.61a4,4,0,0,1,.48-1.49,1.61,1.61,0,0,0,.24-1,36.11,36.11,0,0,1-.38-4.41,4.4,4.4,0,0,0-.23-.76c-.1-.56-.19-1.14-.25-1.71a3.58,3.58,0,0,1,1.17-2.84,1.39,1.39,0,0,1,.82-.4,27.19,27.19,0,0,1,3.59-.5,5.83,5.83,0,0,0,1.08-.19,3.2,3.2,0,0,1,.92-.05,3.24,3.24,0,0,0,1.87-.11,5.17,5.17,0,0,1,1.38-.07c1.94-.12,3.91-.12,5.83-.42,1.58-.25,3.15.11,4.71-.16a3.66,3.66,0,0,1,1.26.13,38.46,38.46,0,0,0,5.78.4c3,.11,6-.31,9,0a13.36,13.36,0,0,0,2.35-.18,4.4,4.4,0,0,1,.94-.09,30,30,0,0,0,3.91-.05,32.69,32.69,0,0,0,4,0c1.16-.13,2.31-.14,3.47-.21a36.71,36.71,0,0,1,5.84.19,14.18,14.18,0,0,0,3.32,0,20.09,20.09,0,0,1,2.05,0c1.79-.06,3.57-.14,5.42-.22l.87.55c.09.05.23.11.25.18.27,1.14,1.36,2.09.76,3.41a2.78,2.78,0,0,0-.21,1.84,1.21,1.21,0,0,1,0,.63,8,8,0,0,0-.14,3.44,29.34,29.34,0,0,0,0,3,18.51,18.51,0,0,1,0,3,29.24,29.24,0,0,0,.31,3.11,9,9,0,0,0,.68,1.68,1.54,1.54,0,0,1-.6,1.29,2.78,2.78,0,0,1-2,.49l-.94-.17a9.71,9.71,0,0,0-4.05.09,2.21,2.21,0,0,1-.91.09,10.63,10.63,0,0,0-3.47,0c-.74.05-1.47.16-2.21.18a19.51,19.51,0,0,0-3.15.27c-.62.11-1.25.11-2,.17-.06.31-.15.61-.18.9-.09,1.2-.16,2.41-.25,3.61a2.59,2.59,0,0,1-.1.62,17.34,17.34,0,0,0-.49,5.17c0,.94.17,1.89.24,2.83s.14,2,.15,3a5.54,5.54,0,0,0,.36,2.17,2.38,2.38,0,0,1,.27,1.06,25.13,25.13,0,0,0,0,3.13,6.92,6.92,0,0,0,0,1.87.94.94,0,0,1,0,.47c-.37,1.43-.25,2.93-.65,4.38a7.43,7.43,0,0,0-.05,2.58,2.1,2.1,0,0,1-.16,1.52c-.08.12-.18.35-.12.43.59.93-.08,1.85,0,2.78s-.11,1.8-.06,2.69c.12,2.1-.29,4.21.09,6.31a7.57,7.57,0,0,1,0,1.43,20.08,20.08,0,0,0,.19,3.95,7.39,7.39,0,0,1,0,1.41c0,.32,0,.64,0,.95.06.94.16,1.88.18,2.82a1.66,1.66,0,0,1-1.37,1.7,7.65,7.65,0,0,1-2.81.31,2.89,2.89,0,0,0-1.1,0,13.76,13.76,0,0,1-5,.4,17.14,17.14,0,0,1-3.79-.15,2,2,0,0,0-.79.07,46.17,46.17,0,0,0-4.67.71,1.13,1.13,0,0,1-.32.06c-1.74,0-3.48.14-5.22,0a18.57,18.57,0,0,1-3.57-.29,1.39,1.39,0,0,0-.91.16,1.43,1.43,0,0,1-1.21.08c-1.23-.38-1.37-.61-1.31-1.94,0-1,0-2.11,0-3.16.05-1.25.15-2.51.21-3.76s.1-2.42.1-3.63a3.91,3.91,0,0,1,.18-1.4,2.08,2.08,0,0,0,.11-.93,20.62,20.62,0,0,1,.27-6c.31-1.86.48-3.75.64-5.63.08-.88.25-1.75.26-2.66,0-1.27-.14-2.52-.24-3.78S363,547.2,363,546a15.6,15.6,0,0,0-.59-4.84,5.93,5.93,0,0,1-.11-1.41c-.1-1-.26-2-.35-3a24.45,24.45,0,0,1-.05-5.67,56.92,56.92,0,0,0,.34-6C362.22,524.49,362.14,523.86,362.11,523.1Z"/><path d="M679.47,555.44a29.07,29.07,0,0,0,3,.45,40.73,40.73,0,0,0,4.42,0,7.89,7.89,0,0,1,1.88-.11,2.59,2.59,0,0,0,.47,0c1,0,1.82-.51,2.78-.46s1.9.07,2.84.14a12,12,0,0,1,1.56.23,8.23,8.23,0,0,0,3,.28,3.43,3.43,0,0,1,.64,0,13.82,13.82,0,0,0,3.74-.32,2.51,2.51,0,0,1,1.09,0c1.54.36,1.94.83,1.86,2.43a27.74,27.74,0,0,1-.5,3.12c-.18,1.09-.33,2.19-.52,3.29a11.71,11.71,0,0,0,.45,4.67c.06.26.12.52.2.77a12.7,12.7,0,0,1,.36,4.83c0,1-.71,1.61-1.52,2.34-1.65.09-3.43.3-5.21.25-1.26,0-2.49.18-3.73.2s-2.73.39-4.07-.11a2.31,2.31,0,0,0-.79-.07c-1.85,0-3.7,0-5.55.1-1.68.09-3.35.31-5,.47a3.36,3.36,0,0,1-.94.05,6.09,6.09,0,0,0-2.17,0,16,16,0,0,1-2.67-.1,43.15,43.15,0,0,1-5.67-.43,27.05,27.05,0,0,0-3,0,18.83,18.83,0,0,1-5-.78,11.36,11.36,0,0,0-3.9-.47,33.85,33.85,0,0,1-4.27-.13,4,4,0,0,0-2.12.49,5.71,5.71,0,0,1-1.47.56,1.41,1.41,0,0,1-1.52-.63,1.32,1.32,0,0,1,0-1.63,2.35,2.35,0,0,0,.4-1.63,13.89,13.89,0,0,1,.26-3.13,11.45,11.45,0,0,0,.11-4.09,28.76,28.76,0,0,1-.35-3.46,21.51,21.51,0,0,0-.86-5.11,3.29,3.29,0,0,1-.19-1.86.71.71,0,0,0,0-.32c-.38-1.67,0-3.37-.14-5a3.48,3.48,0,0,1,.17-1.39,19.3,19.3,0,0,0,.73-4.35c.06-1.63.32-3.25.46-4.88a41.58,41.58,0,0,0,.07-6c0-1-.11-2-.22-3-.2-1.84-.05-3.69-.07-5.53,0-.52-.08-1,0-1.57A11.82,11.82,0,0,0,648,519c.29-1.78-.17-3.56,0-5.36a15.72,15.72,0,0,0-.21-4.1,19.3,19.3,0,0,1-.14-4.42c.1-1.16.11-2.32.17-3.47a16.45,16.45,0,0,0,0-2.22c-.05-.69.27-1.31.16-2a1.74,1.74,0,0,1,1.8-1.78H650c2.16.44,4.29-.06,6.43-.23a13.72,13.72,0,0,1,4.38.18,3.74,3.74,0,0,0,1.25,0,7.77,7.77,0,0,1,4.22.27c.2.08.5-.05.75-.08a3.33,3.33,0,0,1,1.08-.07c1.11.3,2.2-.13,3.3,0s2.2.22,3.31.28c.79,0,1.58-.08,2.36,0a5.13,5.13,0,0,1,1.67.46,2.11,2.11,0,0,1,1.37,2.28,48,48,0,0,0-.05,6.78,24.23,24.23,0,0,1-.33,4.87,17.88,17.88,0,0,0-.39,5.17,10.07,10.07,0,0,1-.06,1.9c-.16,1.85.23,3.7-.13,5.54a16.48,16.48,0,0,1,0,3.78.78.78,0,0,0,0,.31c.67,1.18.24,2.48.45,3.71a3,3,0,0,1,0,.79,2.94,2.94,0,0,0,.38,2.27,1.63,1.63,0,0,1,.24.91,56.14,56.14,0,0,1,.19,5.66c-.07,1.3.07,2.62,0,3.93-.06,2,.24,4-.26,6-.17.65-.12,1.37-.24,2a17.66,17.66,0,0,1-.52,2A1.17,1.17,0,0,0,679.47,555.44Z"/><path d="M251.54,501.68a2.84,2.84,0,0,0,.4.82,3.16,3.16,0,0,1,.71,2.95,2.27,2.27,0,0,0-.07.62,15.07,15.07,0,0,1,.15,3.91,4.4,4.4,0,0,1,0,1.4,1.19,1.19,0,0,0,0,.62,13,13,0,0,1-.23,3.94,4.68,4.68,0,0,0,0,2,2.06,2.06,0,0,1,0,.78c0,1.15-.11,2.3-.13,3.45a9,9,0,0,0,.2,1.25c0,.36.07.72.09,1.09s.06.94.1,1.41a7.32,7.32,0,0,1,.09.93,10.87,10.87,0,0,0,.22,2.67c.12.72,0,1.47.12,2.19a90.09,90.09,0,0,1,.47,9.14c0,1.69-.14,3.37-.21,5.06-.05,1.25-.08,2.51-.12,3.76.63,2,0,4.1.24,6.14a4.19,4.19,0,0,1,0,.79c-.09,1.58-.18,3.15-.27,4.81a3,3,0,0,0,.92.27c1.16-.05,2.31-.14,3.46-.25a14.31,14.31,0,0,1,2.36,0,12.17,12.17,0,0,0,3.3.14,15.94,15.94,0,0,0,5,.23,36.49,36.49,0,0,1,4.55.23c1.49.15,2.92-.3,4.39-.28a13.75,13.75,0,0,1,1.57.07c.75.09,1.21.48,1.18,1.22-.07,1.32.35,2.6.15,3.93s-.05,2.42-.2,3.62c-.34,2.67-.51,5.36-.6,8a1.7,1.7,0,0,0,.12.91c.86,1.23.42,2.17-.62,3.07-.69,0-1.43.2-2.1-.31a.65.65,0,0,0-.46-.06c-1.71.32-3.48,0-5.18.55a4.46,4.46,0,0,1-1.89.14,25.68,25.68,0,0,0-4.72.26,17,17,0,0,1-2.67,0,8.48,8.48,0,0,0-2.36,0,4.52,4.52,0,0,1-1.4-.13,21.47,21.47,0,0,1-3.75-.46.59.59,0,0,0-.31-.07,14.23,14.23,0,0,1-3.91-.09c-1.27,0-2.52-.26-3.78-.35a18.17,18.17,0,0,0-2.21.05c-1.63.12-3.25-.07-4.88-.1a2.21,2.21,0,0,1-.63,0,10.29,10.29,0,0,0-3.91-.09,7.89,7.89,0,0,1-1.88,0,3.52,3.52,0,0,0-1.55.09c-.87.21-1.74.43-2.62.58a6.33,6.33,0,0,1-1.89.08,18.34,18.34,0,0,0-4.56-.08,2.67,2.67,0,0,1-1.25-1.74,3.87,3.87,0,0,0,.64-2.77c0-1.05.16-2.1.19-3.15a20.8,20.8,0,0,0-.23-6,5,5,0,0,1-.06-1.54,13.85,13.85,0,0,0-.15-4.4,10.36,10.36,0,0,1-.11-2.37c0-.84,0-1.69,0-2.53,0-.63.1-1.25.16-1.88,0-.36.18-.78.05-1.08a2.81,2.81,0,0,1,.07-2,14.9,14.9,0,0,0,.3-3.46,11.22,11.22,0,0,0,0-3.47,13.83,13.83,0,0,1-.12-4.54c.16-1.46.11-2.94.17-4.41,0-.37.06-.74.1-1.11a2.27,2.27,0,0,0,.09-.62,30.22,30.22,0,0,1-.13-5.21,5,5,0,0,0-.16-.93,8.77,8.77,0,0,1-.3-3.91,2.36,2.36,0,0,0-.12-.93,16.42,16.42,0,0,1-.25-3.77c.05-1.15,0-2.31,0-3.47,0-.58.07-1.16,0-1.74-.09-1-.21-2.09-.36-3.14a6.26,6.26,0,0,1-.15-3.1.92.92,0,0,0,0-.61,6.17,6.17,0,0,1-.25-3.27,8.88,8.88,0,0,0,.08-1.26,1.88,1.88,0,0,1,.37-1.17,2.43,2.43,0,0,1,2.73-1.12,10.52,10.52,0,0,0,4.22.08,5,5,0,0,1,.95-.1c.77,0,1.57.43,2.31-.12a4.37,4.37,0,0,0,2.18-.22.43.43,0,0,1,.31,0,6.83,6.83,0,0,0,2.51-.05,15.79,15.79,0,0,1,3.15,0,4.86,4.86,0,0,0,1.41-.11,21.11,21.11,0,0,1,4.08-.36c1.39.13,2.73,0,4.1,0A6.74,6.74,0,0,1,251.54,501.68Z"/><path d="M445.81,501.94a3.45,3.45,0,0,1,.63,2.17,38.08,38.08,0,0,1-.44,5.34c-.2,1.14-.54,2.26-.66,3.4a26.26,26.26,0,0,0-.1,6.14c.16,1.24.06,2.51.11,3.77,0,.63.12,1.26.18,1.89a4.29,4.29,0,0,1,.1.94,4.36,4.36,0,0,0,.28,2.62.48.48,0,0,1,0,.31,31.43,31.43,0,0,0,0,3.76.87.87,0,0,0,0,.32,12.09,12.09,0,0,1,0,4.07c0,1.37-.1,2.74-.08,4.11a23.63,23.63,0,0,0,.6,5.49,3.15,3.15,0,0,1,.17,1.09c-.11,1.46.38,2.92,0,4.39a11.16,11.16,0,0,1-.35,3.9.81.81,0,0,0,0,.31c.39,2-.15,4,.09,6a34.49,34.49,0,0,1-.09,4.87,8.52,8.52,0,0,0,.19,3.14,1.52,1.52,0,0,1,.06.47c.15,2.52.29,5,.45,7.56,0,.37.13.73.17,1.09a4.23,4.23,0,0,1-.64,2.88,1.5,1.5,0,0,1-1.29.79,19.11,19.11,0,0,1-2.83,0,19.63,19.63,0,0,1-2.95-.44,1.23,1.23,0,0,0-.47,0,20.13,20.13,0,0,1-5.48-.11,7.13,7.13,0,0,0-4.33.6,1.82,1.82,0,0,1-.73.25c-1,.07-2.09.13-3.14.13a10,10,0,0,1-1.88-.17,12.78,12.78,0,0,1-3.22-.75.81.81,0,0,0-.31-.05h-3.4a9.14,9.14,0,0,1-.78-1.11,2,2,0,0,1-.15-.91c0-.83.12-1.67.19-2.5a2.18,2.18,0,0,1,.06-.63,13,13,0,0,0,.64-3.08,6.63,6.63,0,0,0,.13-1.55c-.19-2.2-.27-4.41-.45-6.62a8.89,8.89,0,0,0-.5-2.46,9.46,9.46,0,0,1-.36-4.22,48.66,48.66,0,0,0-.12-7.73c0-.11,0-.21,0-.32a28.76,28.76,0,0,1,.44-4.36,13,13,0,0,0,.19-3.92c-.06-1.1,0-2.2,0-3.28,0-1.48.08-3,0-4.42a19,19,0,0,1,.11-2.83,2.56,2.56,0,0,0-.07-1.23,2.41,2.41,0,0,1,0-.93,7.06,7.06,0,0,0,.12-2.67c-.05-.18.1-.4.15-.6s.26-.67.17-.92c-.31-.89.32-1.77-.05-2.65-.07-.16.07-.4.1-.6a5,5,0,0,0,.11-.94,23.15,23.15,0,0,0-.23-4.4c0-.1,0-.21,0-.31-.17-1.89-.33-3.78-.52-5.67-.08-.83-.26-1.66-.32-2.5a27.32,27.32,0,0,1-.08-3,5,5,0,0,0-.43-2.77,1.5,1.5,0,0,1,.22-1.64,2.94,2.94,0,0,1,2.84-1.37,2.05,2.05,0,0,0,1.08,0,4.45,4.45,0,0,1,3.09-.08,8.3,8.3,0,0,0,1.86.15,14.8,14.8,0,0,1,2.2.16,32.88,32.88,0,0,1,6.81,1.36,12.82,12.82,0,0,0,5.77.47,31.25,31.25,0,0,1,4.55-.35A6.18,6.18,0,0,1,445.81,501.94Z"/><path d="M603.58,548.4c0-.78.1-1.57.16-2.36a7.65,7.65,0,0,0,.06-1.26,42.17,42.17,0,0,1,.08-5.84,2.53,2.53,0,0,0-.56-1.88,1.6,1.6,0,0,1,.5-2.56,3,3,0,0,1,1.65-.46,19.13,19.13,0,0,0,3.31-.29,22.6,22.6,0,0,1,4.42-.29c1,0,2.1,0,3.15-.07a19.1,19.1,0,0,1,4.07,0,15.17,15.17,0,0,0,2.52,0c1.15,0,2.3,0,3.45,0,1.38,0,2.75.09,4.12.09a11.36,11.36,0,0,1,4.2.64,3.4,3.4,0,0,0,3-.33,4.5,4.5,0,0,1,2.46-.4c.79,0,1.45.9,1.5,2,0,.84,0,1.69,0,2.53a16.75,16.75,0,0,1-.11,2.84,20.94,20.94,0,0,0,.29,5.18c0,.25.09.51.11.77.08,1.36.14,2.73.23,4.09a1.91,1.91,0,0,1-.7,1.83,2.46,2.46,0,0,1-1.78.42,7.81,7.81,0,0,0-4.2.26,1.5,1.5,0,0,1-.6,0,7.93,7.93,0,0,0-1.09,0,41.72,41.72,0,0,1-4.74.17c-1.84,0-3.68,0-5.53,0-.52,0-1-.07-1.57-.12-.31,0-.66-.19-.93-.1a4.45,4.45,0,0,1-2.32-.25,5.13,5.13,0,0,0-1.87-.13,1.9,1.9,0,0,1-.63,0,13.89,13.89,0,0,0-4.41.14,20,20,0,0,1-4.58.09,7.82,7.82,0,0,1-2.78-1.1,1.93,1.93,0,0,1-1-1.86c0-.58,0-1.16,0-1.74Z"/><path d="M598.81,554.2a4.42,4.42,0,0,0,0-.63c-.16-2.26-.35-4.52-.49-6.78-.08-1.41-.1-2.83-.09-4.25a37.56,37.56,0,0,1,.18-4.11,13.37,13.37,0,0,0,0-3.16c-.11-1-.15-2-.2-3a6.3,6.3,0,0,0-.38-2.61,4.21,4.21,0,0,1-.2-1.09c-.22-1.19-.49-2.37-.64-3.57a8.89,8.89,0,0,1-.21-3.29,2.05,2.05,0,0,0-.23-1.38c-.33-.65-.59-1.34-.92-2.1a8.51,8.51,0,0,0,.86-.53c.35-.28.31-.81-.09-.87a2.46,2.46,0,0,1-1.69-1.32c-.63-1-1.23-2.08-1.77-3.16a16.54,16.54,0,0,0-1.8-2.58c-1.74-1.09-3.08-2.73-4.95-3.64-.23-.12-.42-.32-.64-.46a15.27,15.27,0,0,0-4.79-2.35,7.81,7.81,0,0,1-2.25-.73,3.6,3.6,0,0,0-1.95-.48,2.12,2.12,0,0,1-1.74-.59,1.06,1.06,0,0,0-.7-.32,21.42,21.42,0,0,1-2.66-.29,39.2,39.2,0,0,0-5.52-.3c-.58,0-1.15.12-1.72.15-1.78.08-3.56.05-5.34.23a6.6,6.6,0,0,1-2.35.12,1.17,1.17,0,0,0-.75.19c-1.07.58-2.27.4-3.4.63-2.13-.35-4.06.49-6,1.07-1.41.43-2.75,1.06-4.14,1.55a10.76,10.76,0,0,0-2.84,1.36,4.13,4.13,0,0,1-1.91.64,8,8,0,0,0-3,.9,11.36,11.36,0,0,0-3.32,2.9,3.45,3.45,0,0,1-.73.83,6.67,6.67,0,0,0-2.82,3.67c-.4,1.14-1.1,2.17-1.5,3.31a11.42,11.42,0,0,0-.76,3.38,17.58,17.58,0,0,1-.53,3.4c-.15.72-.32,1.44-.4,2.17-.13,1.15-.2,2.31-.27,3.47s-.17,2.52-.17,3.78c0,1.58.08,3.16.14,4.74,0,.68.09,1.36.1,2q.06,3.72.09,7.42c0,.74-.05,1.48,0,2.21a35.25,35.25,0,0,0,.08,4.23c.34,2,1.07,3.85,1,5.88a3,3,0,0,0,.14.46c.09.46.17.92.25,1.39s.16.93.23,1.39a20.77,20.77,0,0,0,1,3.81c.26.75.49,1.48.81,2.21a20.66,20.66,0,0,0,1.86,4.16,4.8,4.8,0,0,0,1.59,2.49c.91.88,1.84,1.75,2.77,2.61A13.12,13.12,0,0,0,539,582.5a6.78,6.78,0,0,1,1.86.84,4.56,4.56,0,0,0,1.47.55q3,.81,6.12,1.56a12.19,12.19,0,0,0,1.71.28c2,.22,4.11-.38,6.14.21h.15a21,21,0,0,1,5.2.12,2.73,2.73,0,0,0,.94.06c1.5-.31,3,0,4.55-.29s3.24-.27,4.83-.72c1.36-.39,2.81-.42,4.2-.74a15.83,15.83,0,0,0,5.72-2.58,6.89,6.89,0,0,1,1-.51,27.52,27.52,0,0,0,3.55-1.69,26,26,0,0,0,3.15-2.61c.59-.52,1-1.27,1.69-1.65a5.72,5.72,0,0,0,1.79-1.74c.59-.81,1.2-1.6,1.76-2.43a16,16,0,0,0,1.42-2.25c.64-1.44,1.12-2.95,1.76-4.39a5.56,5.56,0,0,0,.55-2.91,1.94,1.94,0,0,1,0-.48C598.83,558.83,598.61,556.51,598.81,554.2ZM584.94,546a2.23,2.23,0,0,1-1.2,1.41,18.82,18.82,0,0,1-3,1.12,7.35,7.35,0,0,1-3.42.42,1.15,1.15,0,0,0-.63.07,25.46,25.46,0,0,1-5.14.72c-1.67.19-3.34-.07-5,.12-2-.43-4,0-6-.25a8.85,8.85,0,0,0-4,0,4.16,4.16,0,0,1-1.26,0,13,13,0,0,0-3.46.33,3.3,3.3,0,0,1-.92.2,15.84,15.84,0,0,0-4.68.74,1,1,0,0,1-1.22-.45,1,1,0,0,0-.77-.48,6,6,0,0,1-3.26-1.8,13.54,13.54,0,0,1-1.49-1.64c-.76-1.13-1.53-2.28-1.12-3.79a4.28,4.28,0,0,0,0-1,5.26,5.26,0,0,1,1-1.08A5.42,5.42,0,0,0,540,544c1.05,1.76,3.64,2.6,5.27,1.36,2.11-1.59,1.43-5.16,3.27-7,.62,1.21.41,2.66.59,4s1.13,2.86,2.48,2.7a2.84,2.84,0,0,0,1.83-1.31,10.46,10.46,0,0,0,2-5.9h0a18.29,18.29,0,0,0,1,5.06c.37,1,1,2.18,2.07,2.38,1.69.31,2.73-1.75,3.17-3.4l1.29-4.76h.11c1,1.35,1.18,3.2,1.87,4.76s2.7,3,4.14,2a3.54,3.54,0,0,0,1.15-1.81,22.07,22.07,0,0,0,1-4.07,4.42,4.42,0,0,1,.63,0,3.39,3.39,0,0,0,.45,0c.53,1.37,1,2.74,1.57,4.11a3.06,3.06,0,0,0,.78,1.31c1.23,1,3-.36,3.93-1.68a49,49,0,0,0,2.64-4.18,1.79,1.79,0,0,1,.89,1,1,1,0,0,0,.26.39,8.86,8.86,0,0,1,2.16,3.63A4.74,4.74,0,0,1,584.94,546Z"/></svg>