<svg id="Camada_1" data-name="Camada 1" xmlns="http://www.w3.org/2000/svg" viewBox="0 0 1080 1080"><path d="M743.35,675.74c4.51,2,8.54,3.58,12.28,5.63,4.26,2.33,8.88,4.15,12.23,7.93a13.9,13.9,0,0,1,2.89,4.48,40.58,40.58,0,0,0,1.74,4.32,7.2,7.2,0,0,1,1,3.39,4.86,4.86,0,0,0,.44,2.06,20.81,20.81,0,0,1,1.82,6.16,15.76,15.76,0,0,0,1.37,4.78c1.72,3.53,1.5,7.15.28,10.78-.84,2.49-1.89,4.92-2.48,7.47s-2.22,4.75-3.15,7.19c-2.59,2.77-4.42,6.18-7.32,8.73-2.59,2.27-4.8,5-7.53,7.1-3,2.29-6,4.68-10,5.09-2,.2-3.84,1.15-5.74,1.79a16.28,16.28,0,0,1-2.68,1,49,49,0,0,0-10,2.59,5.58,5.58,0,0,1-2.47.25c-3.47-.42-6.91.12-10.37.12a6.62,6.62,0,0,0-2.13.25,20.42,20.42,0,0,1-7.38.83,45.37,45.37,0,0,0-8.87.18,15,15,0,0,1-3.2-.12,8.5,8.5,0,0,0-1.41-.13c-2.36.27-4.72.64-7.08.88q-3.91.4-7.85.62c-2.36.13-4.73.14-7.1.19s-4.78.13-7.16.11c-2.14,0-4.3.47-6.4-.36a2.62,2.62,0,0,0-1.42-.07c-3.18.66-6.38.42-9.6.38-3,0-5.92.54-8.89.71-5.36.29-10.69,1.21-16.08.9a8.84,8.84,0,0,1-3.07-.77,3.68,3.68,0,0,1-2.1-2.75c-.34-1.86-1-3.68-.71-5.66a14.13,14.13,0,0,0-.2-2.48c0-1.77-.07-3.55,0-5.32a17.72,17.72,0,0,0,.33-3.19c-.48-3.07-.58-6.17-1-9.22a43.91,43.91,0,0,1-.4-10c.26-3,.25-6,.56-8.9a104.74,104.74,0,0,0,0-16c-.13-2.72.55-5.49-.41-8.17a2,2,0,0,1,.11-1.05,27.46,27.46,0,0,0,.36-7.13c-.16-3.93-.21-7.88-.19-11.81s.19-7.64.24-11.46c0-1.17-.19-2.35-.27-3.53s-.17-2.39-.16-3.58a69.13,69.13,0,0,0-.48-10.66,113.35,113.35,0,0,1-.92-18.15c.09-4.05,1-8.09.34-12.15.74-2.6,0-5.21.06-7.82,0-1.89.18-3.78.15-5.67s-.36-3.55-.27-5.32a39.9,39.9,0,0,0-.21-8.18l-1.94-1.77c.4-.92.72-1.81,1.15-2.64a2.58,2.58,0,0,1,2-1.43c3.77-.57,7.53-1.22,11.31-1.7a22.22,22.22,0,0,1,3.19.35,68.14,68.14,0,0,0,7.44.37c2.36-.17,4.74.23,7.13.21s5,.28,7.44-.51a4.76,4.76,0,0,1,1.76.18,6.51,6.51,0,0,0,1.78.19c3.58-.67,7.14.08,10.71.15a13.86,13.86,0,0,0,1.43.08c6.2-.53,12.39.18,18.58,0a8.75,8.75,0,0,1,2.85.28c2.23.7,4.5.5,6.77.5,4.65,0,9.3-.08,14-.07,1.3,0,2.61.2,3.92.31s2.85.22,4.28.37,3.12.69,4.57.42,2.8.38,4.17.61c1.07.17,2.13.39,3.2.48a38.26,38.26,0,0,1,4.16.83c2.85.56,5.4,1.82,8.09,2.73,2.46.83,4.93,1.66,7.38,2.52a5.19,5.19,0,0,1,1.94.91,20.56,20.56,0,0,0,7,4.1c3.18,1.3,5.13,3.8,7.41,6,3.08,3,4.64,6.87,6,10.82a9.93,9.93,0,0,1,.25,2.13,15.32,15.32,0,0,0,.56,3.87c1.45,3.57,1.23,7.25,1.1,11a11.87,11.87,0,0,0,.08,2.86,26.37,26.37,0,0,1-.12,9.54,6.59,6.59,0,0,1-.85,2.3c-1.51,2.55-3,5.15-4.7,7.56a93.77,93.77,0,0,1-6,7.48,43.89,43.89,0,0,1-5.74,4.77,16.83,16.83,0,0,0-2.46,2,15.49,15.49,0,0,1-6.38,4.48A27.32,27.32,0,0,0,743.35,675.74Zm-61.61,50.68a20.66,20.66,0,0,1,7.86.24,24.22,24.22,0,0,0,5.67.54c4.11-.27,7.83-1.92,11.44-3.78a2.21,2.21,0,0,0,.78-.71,23.34,23.34,0,0,0,4-9.78c.82-5,.79-5-1.71-9.38a3.94,3.94,0,0,0-1.36-1.63c-2.55-1.19-5.18-2.24-7.78-3.34-.1,0-.24,0-.36,0-2.34-.42-4.73-.26-7.06-.47a60.73,60.73,0,0,0-6.33,0c-.71,0-1.41.1-2.12.12-1.79,0-2.42.61-2.32,2.3.23,3.9.59,7.8.74,11.71s.45,7.86-1.18,11.62A9.92,9.92,0,0,0,681.74,726.42Zm1-76.8c0,1.78,0,3.55,0,5.33a1.89,1.89,0,0,0,1.66,2,32.65,32.65,0,0,0,5.32.27c1.89-.06,3.79-.62,5.65-.52a8.85,8.85,0,0,0,5.41-1.48c1.61-1,3-2.33,4.59-3.39a5.19,5.19,0,0,0,2.33-4.14,56.83,56.83,0,0,1,1.21-8.06,9.52,9.52,0,0,0,0-4.25c-.46-2.2-1.65-3.89-4.19-4.28a33.27,33.27,0,0,1-4.46-1.17,5.65,5.65,0,0,0-3.5-.12,4.24,4.24,0,0,1-2.43.16c-3.65-1.23-7.31.16-11-.13a1.86,1.86,0,0,0-1.89,2.46,19.11,19.11,0,0,1,.08,6.4,6.63,6.63,0,0,0,.32,2.8C682.92,644.16,682.72,646.9,682.79,649.62Z"/><path d="M472.43,434.28c2.9,3.24,3.32,7.21,3.39,11.28a13.7,13.7,0,0,0,0,2.79c1.4,5.81,1.14,11.64.63,17.53-.37,4.44-1.71,8.7-1.87,13.17-.07,2.09-1,4.15-1.52,6.23-.86,3.39-1.48,6.83-3,10.06a68.41,68.41,0,0,1-4.68,8.84,20.72,20.72,0,0,1-6.85,6.18c-2.29,1.38-4.77,2.45-7.16,3.67a6.49,6.49,0,0,0-1.4.76c-3,2.69-6.85,4.2-10.09,6.59a2.68,2.68,0,0,1-1.1.5c-3.85.53-7.4,2.27-11.35,2.54a23.45,23.45,0,0,0-10,2.62,10.32,10.32,0,0,1-3.81,1.26c-4,.48-8,.78-12.05,1.13-3.47.3-6.91.63-10.36,1.2a22.43,22.43,0,0,1-11.56-.6c-2.75-1-5.67-1.59-8.49-2.42-1.16-.34-2.27-.82-3.39-1.27a10.68,10.68,0,0,0-2.22-1c-3.73-.52-6.63-2.87-9.91-4.36a12.09,12.09,0,0,1-2-1.35c-.54-.39-1-.85-1.61-1.21-4.53-2.87-9.08-5.71-13.61-8.6a76.9,76.9,0,0,1-8.37-5.56c-1.92-1.61-3.27-3.9-4.82-5.92-.48-.63-.68-1.49-1.19-2.1-3.55-4.23-5.37-9.23-6.65-14.5a25.93,25.93,0,0,0-1.38-3.78c-.52-1.23-1.18-2.41-1.7-3.64-.88-2.1-1.47-4.32-2.89-6.19a6,6,0,0,1-.91-2.23c-.47-1.82-.62-3.72-1.8-5.32a2.57,2.57,0,0,1-.34-1.56c.14-3-1.38-5.73-1-8.73a8.21,8.21,0,0,0-.3-2.39c-.43-2.39-.82-4.78-1.36-7.14a35.92,35.92,0,0,0-1.48-4.58,12.73,12.73,0,0,1-.84-4.68c0-3.31.25-6.72-1.35-9.84a2.58,2.58,0,0,1-.45-1.51c.91-3.68-.73-7.43.32-11.09-.58-3.5,0-6.93.55-10.37a12.63,12.63,0,0,1,.56-2.76,10.61,10.61,0,0,0,.45-5.57,12.7,12.7,0,0,1,0-3.59,18.9,18.9,0,0,1,3.22-9,5.5,5.5,0,0,0,1-3c0-3.06,1.14-5.81,2.18-8.54,1.25-3.27,2.61-6.44,3-10a10.85,10.85,0,0,1,1.78-5.32,3.73,3.73,0,0,0,.59-1.49c.67-3.79,2.66-7,4.41-10.33a19.08,19.08,0,0,1,6.09-6.39c1.62-1.16,3.26-2.31,4.9-3.46a12.29,12.29,0,0,1,2.35-1.56c2.6-1,4.35-3.17,6.33-4.92,3.94-3.48,8.34-6.23,13.2-7.2,4-.78,7.94-1.36,11.91-2,.79-.13,1.58-.3,2.35-.5a55.68,55.68,0,0,1,7.38-1.93c2.79-.34,5.44-1.16,8.16-1.75a23.67,23.67,0,0,1,5.19-.39c2.14,0,4.28.25,6.42.43a27.36,27.36,0,0,1,4.8.56,41.34,41.34,0,0,0,10,1.34c2.27.07,4.52.59,6.78.87,1.73.21,3.5.18,5.19.56a143,143,0,0,1,17.44,4.71c3.25,1.18,5.87,3.27,8.75,5,2.39,1.42,4.68,3,7.18,4.26a28,28,0,0,1,9.95,8.65,11.94,11.94,0,0,0,1.76,2.17,25.25,25.25,0,0,1,7.13,11,48.72,48.72,0,0,1,2.53,7.63c.7,3.95,1.1,8,1.79,11.92a3.7,3.7,0,0,1,.09.8q-.12,6.67-.28,13.34a5.57,5.57,0,0,1-.33,2,3.62,3.62,0,0,0,.29,3.46,7.75,7.75,0,0,1,.65,2.26c.32,1.71.62,3.43.87,5.15a4.91,4.91,0,0,1-4.45,5.24,26.77,26.77,0,0,1-2.82-.22,41.51,41.51,0,0,0-4.84-.38,63.1,63.1,0,0,1-12-1.3c-2.39-.39-4.8-.59-7.2-.86a6,6,0,0,1-1.2,0c-4.31-1.45-8.74-1-13.17-1.06a65.5,65.5,0,0,0-10,.72c-1.45.22-2.87.63-4.3,1a4.58,4.58,0,0,1-5.7-3.13,2.64,2.64,0,0,1-.16-.79c-.22-3.88-.73-7.77.2-11.64.37-1.56.78-3.13,1.06-4.71a8.11,8.11,0,0,0,0-2.41c-.32-2.66-.72-5.3-.79-8,0-2-1.4-3.45-2.95-4.62a1.74,1.74,0,0,0-1.1-.42c-2.12.32-4.22-.47-6.4.21a22.88,22.88,0,0,1-5.58.53c-3.2.15-5.15,2-6.48,4.68-.12.24-.15.53-.25.77-1.18,2.68-2.45,5.22-2.19,8.41.23,2.9-.6,5.82-.28,8.84a106.58,106.58,0,0,1,.15,10.88,6.78,6.78,0,0,1-.39,1.55,29.77,29.77,0,0,0-.59,6.74c-.11,4.59,1.19,9.11.86,13.63-.27,3.88.31,7.79-.5,11.65a13.85,13.85,0,0,0,.06,2.4c-.13,3.22.34,6.41.12,9.66-.2,2.87.68,5.89,1.45,8.73a15.32,15.32,0,0,1,.73,4.3c-.05,5.65,2,10.81,4,15.92a4.8,4.8,0,0,0,4.38,3.12c2.28.09,4.71.37,6.82-.27,2.48-.75,4.68-2.4,7-3.66a.63.63,0,0,0,.29-.29c1.31-3.57,4.43-6.53,3.72-10.8a2,2,0,0,1-.07-.4,37.79,37.79,0,0,0-2.42-15.82,6.89,6.89,0,0,1-.29-2c-.15-2.49,1.55-4.37,3.9-3.79a13.71,13.71,0,0,0,7.11-.24c1.34-.35,2.92.16,4.37.36a20.69,20.69,0,0,0,5.61-.11,49.9,49.9,0,0,1,8-.22,9.72,9.72,0,0,0,4.29-.79c7.14-3.09,14.59-3.49,22.19-2.38C469.86,434.2,470.92,434.19,472.43,434.28Z"/><path d="M542.23,767.35c-3.3-2.06-4.14-4.86-4.68-7.86-.64-3.51-.74-7.15-2.8-10.51a3.62,3.62,0,0,0-2.87-.17,12.74,12.74,0,0,1-6.37.27,2.22,2.22,0,0,0-1.06-.13c-2.34.76-4.72.43-7.1.4-3.7-.06-7.39,0-11.08,0-.6,0-1.2-.06-1.79,0a1.84,1.84,0,0,0-1.92,2.1c0,.47.06,1,.09,1.43s.26,1,.11,1.42c-1.05,2.76-.47,5.69-.94,8.5a18.47,18.47,0,0,1-1.21,4.11c-.86,2-4.31,3.57-6.36,2.92-2.72-.87-5.4-1.85-8.47-2.9-4.19,0-8.82-.11-13.45-.12a30.07,30.07,0,0,0-3.9.27c-2.47.3-4.93.73-7.41,1-2.72.28-5.41.87-8.18.63a7.23,7.23,0,0,0-2.44.44,4.75,4.75,0,0,1-5.62-1.8c-.49-.68-.93-1.39-1.37-2.11a4.59,4.59,0,0,1-.41-4.75,9.64,9.64,0,0,0,.85-4.51,21.53,21.53,0,0,1,.73-4.94c.57-2.56,1.28-5.1,1.93-7.65.44-1.72.91-3.44,1.3-5.18a28.42,28.42,0,0,1,2.24-7.13c1.31-2.52.94-5.33,1.1-8,.26-4.63.57-9.26,1.08-13.87a12,12,0,0,1,2-5.68,15.63,15.63,0,0,0,2.09-5.68,15.09,15.09,0,0,1,.63-2.42c2-5,3.22-10.2,5.09-15.22.91-2.44,1.73-4.88,2.78-7.28.89-2,1-4.4,1.5-6.61a17.69,17.69,0,0,1,.69-2.39c1-2.57,2-5.12,3-7.68a6.53,6.53,0,0,0,.62-2.05c.11-4.4,2.13-8.3,3.12-12.46.83-3.47,1.52-7,2.27-10.47.17-.82.34-1.63.53-2.45.5-2.08,1.66-4,1.56-6.21s.77-4.16.6-6.37a11.91,11.91,0,0,1,1-5.6,15.92,15.92,0,0,0,1.41-6.92,5.68,5.68,0,0,1,1.13-3.69,14.35,14.35,0,0,0,2.48-7.66c.18-2.24.7-4.46,1.05-6.54l2.2-1.86,7.19-.71c3.06-.3,6.06-1.43,9.2-.74,4-1.15,8,0,12-.41,3,1.17,6.09-.38,9.18.4,1.63.41,3.53-.29,5.31-.38a141,141,0,0,0,16.43-1.34,9,9,0,0,1,2.81.26c2.57.41,5.08,1.11,7.78.47,1.74-.41,3.59-.22,4.75,1.63a3.18,3.18,0,0,1,.51,3,4.45,4.45,0,0,0-.23,2.08c.37,2.95.85,5.9,1.25,8.85.21,1.51.29,3,.54,4.54a21.65,21.65,0,0,0,1,4.16c.72,1.88,1.69,3.67,2.55,5.49a8.81,8.81,0,0,1,.9,1.89,11.75,11.75,0,0,0,1.23,2.92,20.62,20.62,0,0,1,1.62,5.06c.85,4.44,1.86,8.85,2.28,13.39a38.93,38.93,0,0,0,2.65,10.39c1.2,3.09,2,6.34,3.08,9.48a69.62,69.62,0,0,0,2.91,7.29,84.72,84.72,0,0,1,3.62,9.72c.38,1.12.87,2.21,1.25,3.34a19.87,19.87,0,0,1,.53,2c.25,1,.49,2.08.73,3.12.51,2.3,1.56,4.44,1.8,6.86a36.42,36.42,0,0,0,1.62,5.83,19.52,19.52,0,0,1,.82,3.48,23.78,23.78,0,0,0,3.27,9.78,10.17,10.17,0,0,1,1.44,5,28.92,28.92,0,0,0,1.21,5.93,15.16,15.16,0,0,1,.75,5.64,8.31,8.31,0,0,0,.34,2.44c.07.35.36.67.36,1,.11,5.63,3.22,10.43,4.31,15.79,1.79,3.35,2,7,2.39,10.71a19.78,19.78,0,0,0,1.16,6.24,15.18,15.18,0,0,1,.56,3.13c.41,2.24-.28,3.74-2.33,4.54a7.76,7.76,0,0,1-3.13.64c-3.33-.14-6.66-.44-10,.22-2.62-.8-5.18.05-7.77.23a15.45,15.45,0,0,0-1.77.27c-3.41.66-6.81,1.33-10.3.48a2.28,2.28,0,0,0-1.07,0c-2.64.65-5.2-.13-7.8-.31-4.49-.32-9-1-13.51-.52C548.26,767.59,545.13,767.35,542.23,767.35ZM519.09,654c-.37.3-.52.36-.55.45-.83,2.72-1,5.64-2.45,8.19-.21.38-.1.94-.21,1.41-.84,3.46-.45,7.07-1.37,10.54a49.78,49.78,0,0,0-1.11,6.68c-.45,3.79-1,7.58-1.08,11.37a33.43,33.43,0,0,1-.27,4.6,30.86,30.86,0,0,0-.18,4.48c6.12.84,12,1,14.84.32-.23-2.56-.35-5.16-.74-7.73s-1.14-5.12-1.55-7.71-.51-5-.78-7.47a32.66,32.66,0,0,1-.42-3.53c0-4.09-.85-8.05-1.55-12-.3-1.63-.54-3.28-.77-4.93S520.5,655.28,519.09,654Z"/><path d="M377.9,720a63.24,63.24,0,0,0,6.83,1,95.12,95.12,0,0,0,10-.06c1.42-.08,2.8-.53,4.26-.26a6.75,6.75,0,0,0,1.06-.12c2.16,0,4.13-1.14,6.3-1s4.28.17,6.42.33a28,28,0,0,1,3.51.5c2.22.44,4.42,1,6.71.66a6.87,6.87,0,0,1,1.43-.08,31.86,31.86,0,0,0,8.49-.73,5.68,5.68,0,0,1,2.46-.05c3.48.82,4.39,1.88,4.2,5.52a65.65,65.65,0,0,1-1.13,7c-.4,2.48-.74,5-1.18,7.44-.63,3.63.23,7.1,1,10.58a17.84,17.84,0,0,0,.46,1.74c1.23,3.57,1,7.25.82,10.92-.1,2.24-1.62,3.65-3.45,5.29-3.72.21-7.76.68-11.78.58-2.85-.07-5.64.4-8.44.44-3.06,0-6.18.88-9.22-.24a5,5,0,0,0-1.78-.15c-4.19,0-8.38,0-12.55.22-3.8.2-7.58.7-11.37,1.06a7.35,7.35,0,0,1-2.13.12,13.74,13.74,0,0,0-4.91,0c-1.95.3-4-.17-6-.21a102,102,0,0,1-12.82-1,54.69,54.69,0,0,0-6.78-.09,43.32,43.32,0,0,1-11.3-1.77,25.21,25.21,0,0,0-8.83-1.06,76.32,76.32,0,0,1-9.67-.3,9.18,9.18,0,0,0-4.8,1.1,13.08,13.08,0,0,1-3.31,1.27,3.22,3.22,0,0,1-3.45-1.42,3,3,0,0,1,0-3.7,5.22,5.22,0,0,0,.91-3.68,30.79,30.79,0,0,1,.58-7.07,25.51,25.51,0,0,0,.25-9.27,63.92,63.92,0,0,1-.78-7.82A48.71,48.71,0,0,0,306,724.22a7.43,7.43,0,0,1-.43-4.22,1.44,1.44,0,0,0,.07-.71c-.84-3.79,0-7.63-.31-11.44a8.45,8.45,0,0,1,.38-3.14,42.37,42.37,0,0,0,1.65-9.84c.16-3.69.73-7.35,1.05-11a98,98,0,0,0,.17-13.6c-.11-2.26-.25-4.52-.5-6.77-.46-4.16-.11-8.33-.16-12.49,0-1.19-.19-2.38-.12-3.56a26.86,26.86,0,0,0-1-9.85c.66-4-.39-8,.07-12.11a35.86,35.86,0,0,0-.49-9.29,43.58,43.58,0,0,1-.3-10c.21-2.62.23-5.24.38-7.85a38.22,38.22,0,0,0,0-5c-.11-1.55.61-3,.36-4.59-.31-2.13,1.87-4,4.08-4a1.43,1.43,0,0,1,.36,0c4.89,1,9.7-.14,14.54-.53a31.69,31.69,0,0,1,9.91.4,8.2,8.2,0,0,0,2.84,0c3.22-.36,6.42-.8,9.54.59.45.2,1.12-.1,1.69-.16a7.69,7.69,0,0,1,2.46-.16c2.5.67,5-.29,7.45,0s5,.5,7.49.62c1.78.08,3.58-.18,5.35,0a11.54,11.54,0,0,1,3.77,1,4.79,4.79,0,0,1,3.1,5.17c-.63,5.11-.19,10.23-.11,15.34a53.74,53.74,0,0,1-.76,11,40.22,40.22,0,0,0-.86,11.71,23,23,0,0,1-.15,4.3c-.35,4.17.52,8.36-.28,12.52.59,2.85.14,5.7.08,8.56a1.47,1.47,0,0,0,.08.7c1.51,2.66.53,5.62,1,8.4a7,7,0,0,1,0,1.77c-.18,1.79-.37,3.54.86,5.14a3.87,3.87,0,0,1,.54,2,127.29,127.29,0,0,1,.41,12.81c-.14,3,.18,5.94.1,8.9-.13,4.52.56,9.06-.59,13.54-.38,1.49-.27,3.1-.55,4.62a35.43,35.43,0,0,1-1.17,4.5C377.58,718.45,377.37,719.33,377.9,720Z"/><path d="M679.84,436.11l.42-6a18.21,18.21,0,0,0,.16-3.2c-.55-5,0-9.94.2-14.9a6.48,6.48,0,0,0-1.41-4.79c-2-2.41-1.33-4.77,1.26-6.53a7.75,7.75,0,0,1,4.21-1.19,49.2,49.2,0,0,0,8.43-.72c3.75-.83,7.5-.68,11.27-.75,2.68-.05,5.37,0,8-.18a48.78,48.78,0,0,1,10.39.09c2.08.33,4.27-.05,6.41-.08,2.94,0,5.87-.1,8.81-.08,3.5,0,7,.22,10.49.23a29.19,29.19,0,0,1,10.72,1.64,8.72,8.72,0,0,0,7.75-.84c2-1.18,4.16-1,6.27-1s3.69,2.3,3.81,5c.11,2.15,0,4.31,0,6.46a41.62,41.62,0,0,1-.29,7.25c-.59,3,.07,5.88.14,8.81a36.32,36.32,0,0,0,.61,4.38c.1.66.24,1.32.28,2,.21,3.47.37,6.95.58,10.43.12,1.85-.2,3.55-1.79,4.66a6.27,6.27,0,0,1-4.52,1.07c-3.55-.33-7.23-1-10.72.66a3.93,3.93,0,0,1-1.54.05,21.49,21.49,0,0,0-2.78,0,103.45,103.45,0,0,1-12.07.43c-4.7,0-9.4.1-14.1.1-1.33,0-2.67-.17-4-.29-.8-.08-1.68-.48-2.38-.27-2.09.64-4-.22-5.92-.62a12.78,12.78,0,0,0-4.76-.33,4.59,4.59,0,0,1-1.61,0c-3.78-.84-7.5,0-11.24.36a50.76,50.76,0,0,1-11.69.22,19.75,19.75,0,0,1-7.08-2.8,4.84,4.84,0,0,1-2.49-4.74c.06-1.48,0-3,0-4.44Z"/><path d="M671.74,444.29a9.37,9.37,0,0,0,0-1.59c-.4-5.68-.88-11.35-1.21-17-.21-3.56-.28-7.13-.25-10.69a90.78,90.78,0,0,1,.47-10.31,33.49,33.49,0,0,0,0-7.94c-.26-2.48-.36-5-.49-7.44-.12-2.25.1-4.44-1-6.57a10.91,10.91,0,0,1-.51-2.73c-.54-3-1.22-6-1.61-9-.36-2.73-1.17-5.44-.52-8.27a5.11,5.11,0,0,0-.57-3.47c-.84-1.62-1.48-3.35-2.31-5.28a23.81,23.81,0,0,0,2.15-1.32c.87-.71.79-2-.22-2.2-2.1-.33-3.28-1.73-4.24-3.31-1.59-2.58-3.1-5.23-4.45-7.94a43.87,43.87,0,0,0-4.54-6.49c-4.37-2.73-7.73-6.84-12.43-9.15-.58-.29-1-.8-1.61-1.15-3.81-2.38-7.53-4.92-12-5.91a20,20,0,0,1-5.65-1.82,9,9,0,0,0-4.92-1.21,5.3,5.3,0,0,1-4.36-1.48,2.57,2.57,0,0,0-1.75-.8c-2.28.11-4.46-.58-6.69-.74-4.62-.34-9.22-1.07-13.87-.74-1.45.1-2.89.28-4.33.35-4.47.22-8.95.14-13.42.58-1.94.19-3.88.83-5.9.32a3,3,0,0,0-1.89.48c-2.69,1.45-5.7,1-8.54,1.56-5.35-.86-10.2,1.23-15.12,2.71-3.54,1.07-6.92,2.66-10.41,3.88a27.61,27.61,0,0,0-7.14,3.42,10.4,10.4,0,0,1-4.8,1.63,20.1,20.1,0,0,0-7.52,2.25,29,29,0,0,0-8.35,7.28,7.83,7.83,0,0,1-1.81,2.09,16.86,16.86,0,0,0-7.11,9.23c-1,2.86-2.76,5.45-3.76,8.31a28.35,28.35,0,0,0-1.89,8.49,46.63,46.63,0,0,1-1.35,8.54c-.37,1.81-.8,3.62-1,5.45-.32,2.9-.5,5.82-.68,8.73-.19,3.17-.43,6.34-.43,9.51,0,4,.2,7.94.35,11.91.06,1.7.24,3.4.27,5.1q.14,9.33.21,18.65c0,1.85-.13,3.7,0,5.55.2,3.53-.43,7,.2,10.62.86,4.92,2.7,9.69,2.53,14.79,0,.37.27.75.35,1.14.22,1.16.41,2.33.61,3.5s.42,2.33.59,3.5a53.9,53.9,0,0,0,2.54,9.58c.65,1.86,1.24,3.71,2,5.54,1.52,3.5,2.34,7.3,4.66,10.45.5,2.62,2.19,4.5,4,6.26,2.28,2.22,4.61,4.39,6.94,6.56a33.13,33.13,0,0,0,12.35,7.71,17.16,17.16,0,0,1,4.68,2.12,11.79,11.79,0,0,0,3.69,1.39q7.66,2,15.37,3.92a31.3,31.3,0,0,0,4.3.69c5.13.56,10.33-.94,15.43.53a1,1,0,0,0,.39,0c4.37-.67,8.71-.14,13,.31a8,8,0,0,0,2.38.14c3.78-.79,7.62,0,11.43-.72,4-.77,8.13-.69,12.14-1.83,3.41-1,7.07-1,10.54-1.85a39.94,39.94,0,0,0,14.39-6.49,15.25,15.25,0,0,1,2.44-1.27c3-1.4,6.17-2.48,8.92-4.25a66.58,66.58,0,0,0,7.91-6.57c1.48-1.31,2.59-3.18,4.25-4.14a14.71,14.71,0,0,0,4.51-4.37c1.46-2,3-4,4.41-6.1a38.27,38.27,0,0,0,3.56-5.68c1.63-3.6,2.83-7.4,4.42-11a13.74,13.74,0,0,0,1.4-7.3,4.87,4.87,0,0,1,.07-1.2C671.77,455.93,671.24,450.09,671.74,444.29ZM623.8,385.66a45.75,45.75,0,0,1-3.26,7.23c-1.51,2.44-2.72,5.2-5.34,6.83a3.15,3.15,0,0,0-1,1.23c-2,3.95-5.13,7-7.85,10.43-2.2,2.76-5,5-7.32,7.52a8.73,8.73,0,0,0,.89,1.1,32.1,32.1,0,0,0,6.73,5.56,9,9,0,0,1,2,1.29,39.21,39.21,0,0,0,9.62,7,2.43,2.43,0,0,1,1.39,3,2.59,2.59,0,0,0,.5,2.22,15.11,15.11,0,0,1,2.6,9,36.6,36.6,0,0,1-.27,5.56c-.65,3.36-1.35,6.78-4.74,8.73a11,11,0,0,0-1.84,1.8c-4,.77-7.62-.43-11.12-1.44a14.39,14.39,0,0,1-7.7-5.37,6.17,6.17,0,0,0-1.2-1.54l-.62-.46q.27,1.1.6,2.19a2.41,2.41,0,0,1-1.12,3.08,2.62,2.62,0,0,0-1.21,1.93,15.21,15.21,0,0,1-4.52,8.2,35.31,35.31,0,0,1-4.12,3.73c-2.84,1.92-5.75,3.85-9.52,2.83a10.93,10.93,0,0,0-2.58,0c-3.37-2.28-5.08-5.69-6.84-8.88a14.29,14.29,0,0,1-1.65-9.24,6.64,6.64,0,0,0,.24-1.95c-.05-.25-.08-.5-.12-.76-.38.65-.76,1.31-1.12,2a2.41,2.41,0,0,1-3,1.39,2.59,2.59,0,0,0-2.22.5,15.11,15.11,0,0,1-9,2.6,34.19,34.19,0,0,1-5.56-.27c-3.36-.65-6.78-1.35-8.73-4.73a10.61,10.61,0,0,0-1.8-1.84c-.77-4,.43-7.63,1.44-11.12a14.32,14.32,0,0,1,5.37-7.71,6.17,6.17,0,0,0,1.54-1.2c2.93-4.13,6.88-7.29,10.31-10.93.36-.39.89-.74,1-1.2.78-2.59,2.79-4.25,4.47-6.18-.68-.72-1.38-1.43-2.09-2.13-1.65-1.64-4-2.57-5.56-4.43a24.58,24.58,0,0,0-2.5-2.5,10,10,0,0,0-2.22-1.63,10.77,10.77,0,0,1-3.53-2.52,3.89,3.89,0,0,0-1.58-1.15c-3.16-1-4.77-3.69-6.53-6.14a5.16,5.16,0,0,1-.92-5.25,2.46,2.46,0,0,0,.23-1.16c-.32-3.73,1.29-7,2.61-10.29a11.85,11.85,0,0,1,5.81-6.74,5.57,5.57,0,0,1,4.62-.38,45.75,45.75,0,0,1,7.23,3.26c2.44,1.51,5.2,2.71,6.82,5.33a3.08,3.08,0,0,0,1.24,1c.48.25.95.51,1.41.79a8.4,8.4,0,0,1,0-1.42,3.94,3.94,0,0,0-.31-1.93c-1.51-3-.76-6-.28-9a5.15,5.15,0,0,1,3.07-4.36,2.57,2.57,0,0,0,1-.66c2.41-2.87,5.86-4,9.12-5.43a11.86,11.86,0,0,1,8.88-.66,5.56,5.56,0,0,1,3.53,3,46,46,0,0,1,2.81,7.42c.66,2.79,1.76,5.59,1.05,8.59a3.16,3.16,0,0,0,.19,1.57c.16.51.31,1,.44,1.55a7.89,7.89,0,0,1,1-1,3.72,3.72,0,0,0,1.14-1.58c1-3.15,3.7-4.77,6.15-6.53a5.16,5.16,0,0,1,5.25-.92,2.59,2.59,0,0,0,1.15.24c3.74-.33,7,1.28,10.29,2.6a11.87,11.87,0,0,1,6.75,5.81A5.61,5.61,0,0,1,623.8,385.66Z"/></svg>