<svg id="Camada_1" data-name="Camada 1" xmlns="http://www.w3.org/2000/svg" viewBox="0 0 1080 1080"><path d="M566.72,646.82c3.91,1.77,7.4,3.1,10.64,4.88,3.69,2,7.69,3.6,10.59,6.87a12,12,0,0,1,2.51,3.88,33.6,33.6,0,0,0,1.51,3.74,6.34,6.34,0,0,1,.82,2.94,4.23,4.23,0,0,0,.38,1.79,18.09,18.09,0,0,1,1.58,5.33,13.1,13.1,0,0,0,1.19,4.14,12,12,0,0,1,.24,9.34c-.73,2.16-1.64,4.27-2.15,6.47s-1.92,4.12-2.73,6.23c-2.25,2.41-3.83,5.36-6.34,7.56-2.24,2-4.16,4.35-6.52,6.16-2.58,2-5.18,4.05-8.7,4.41a24.08,24.08,0,0,0-5,1.55,13.75,13.75,0,0,1-2.32.84,42,42,0,0,0-8.69,2.24,4.69,4.69,0,0,1-2.14.22c-3-.36-6,.1-9,.1a5.63,5.63,0,0,0-1.84.22,17.73,17.73,0,0,1-6.4.72,38.79,38.79,0,0,0-7.69.16,13,13,0,0,1-2.77-.11,7.28,7.28,0,0,0-1.22-.11c-2.05.23-4.09.55-6.14.76q-3.39.35-6.8.54c-2,.11-4.1.12-6.15.16s-4.13.11-6.2.1c-1.85,0-3.73.41-5.55-.32a2.29,2.29,0,0,0-1.22,0,39.23,39.23,0,0,1-8.32.33c-2.57,0-5.13.47-7.71.61-4.64.25-9.26,1.05-13.92.78a7.82,7.82,0,0,1-2.66-.66,3.24,3.24,0,0,1-1.83-2.39c-.29-1.62-.9-3.19-.61-4.9a13.24,13.24,0,0,0-.17-2.15c0-1.54-.06-3.08,0-4.61a16.71,16.71,0,0,0,.29-2.77c-.42-2.65-.5-5.34-.89-8a38,38,0,0,1-.34-8.65c.22-2.56.21-5.15.48-7.71a89.45,89.45,0,0,0,0-13.89c-.11-2.36.48-4.76-.36-7.09a1.78,1.78,0,0,1,.1-.9,23.7,23.7,0,0,0,.31-6.18c-.14-3.41-.18-6.82-.16-10.24s.16-6.61.2-9.92c0-1-.16-2-.22-3.06s-.16-2.07-.14-3.1a60.58,60.58,0,0,0-.42-9.23,98.37,98.37,0,0,1-.8-15.73c.08-3.51.9-7,.29-10.53.65-2.25,0-4.51.05-6.77,0-1.64.16-3.27.14-4.91s-.32-3.08-.24-4.61a35,35,0,0,0-.18-7.09l-1.68-1.54c.35-.79.62-1.57,1-2.28a2.22,2.22,0,0,1,1.69-1.24c3.26-.49,6.52-1,9.79-1.47a19.06,19.06,0,0,1,2.77.3,57.5,57.5,0,0,0,6.44.32c2.05-.15,4.11.2,6.18.18s4.32.25,6.45-.44a4.09,4.09,0,0,1,1.52.16,5.53,5.53,0,0,0,1.54.16c3.11-.58,6.19.07,9.29.13a10.26,10.26,0,0,0,1.23.07c5.37-.46,10.74.15,16.1,0a7.87,7.87,0,0,1,2.47.25,19.27,19.27,0,0,0,5.86.43c4,0,8.06-.07,12.09-.06,1.13,0,2.26.18,3.39.27s2.48.19,3.71.32,2.71.6,4,.37,2.42.32,3.62.52c.92.15,1.84.34,2.76.42a32.93,32.93,0,0,1,3.61.72,55.49,55.49,0,0,1,7,2.36c2.14.72,4.27,1.44,6.39,2.19a4.34,4.34,0,0,1,1.68.78,17.88,17.88,0,0,0,6.1,3.56c2.76,1.13,4.45,3.29,6.42,5.18,2.67,2.56,4,6,5.23,9.37a8.58,8.58,0,0,1,.21,1.84,13.63,13.63,0,0,0,.49,3.36c1.25,3.1,1.06,6.28.95,9.49a10.7,10.7,0,0,0,.07,2.47,23,23,0,0,1-.1,8.27,5.71,5.71,0,0,1-.74,2c-1.31,2.21-2.58,4.46-4.07,6.55a80.82,80.82,0,0,1-5.22,6.48,36.55,36.55,0,0,1-5,4.13,16,16,0,0,0-2.13,1.78,13.45,13.45,0,0,1-5.52,3.89A22.87,22.87,0,0,0,566.72,646.82Zm-53.38,43.91a17.91,17.91,0,0,1,6.82.21,20.9,20.9,0,0,0,4.91.46c3.55-.23,6.78-1.66,9.91-3.27a1.89,1.89,0,0,0,.67-.62,20.16,20.16,0,0,0,3.47-8.47c.71-4.34.69-4.36-1.49-8.13a3.27,3.27,0,0,0-1.17-1.4c-2.21-1-4.49-2-6.75-2.9-.08,0-.2,0-.3,0-2-.37-4.11-.23-6.12-.41a52.9,52.9,0,0,0-5.49,0c-.61,0-1.22.09-1.83.1-1.55,0-2.1.53-2,2,.2,3.38.51,6.75.64,10.14s.39,6.81-1,10.06A9.15,9.15,0,0,0,513.34,690.73Zm.91-66.54c0,1.54,0,3.08,0,4.62a1.63,1.63,0,0,0,1.44,1.75,27.34,27.34,0,0,0,4.61.23c1.64,0,3.28-.54,4.9-.45a7.75,7.75,0,0,0,4.69-1.28c1.39-.87,2.6-2,4-2.94a4.52,4.52,0,0,0,2-3.58,48.79,48.79,0,0,1,1-7,8.21,8.21,0,0,0,0-3.69,4.21,4.21,0,0,0-3.62-3.71,29,29,0,0,1-3.87-1,5,5,0,0,0-3-.11,3.62,3.62,0,0,1-2.1.14c-3.16-1.06-6.34.14-9.5-.11a1.62,1.62,0,0,0-1.64,2.14,16.63,16.63,0,0,1,.07,5.54,5.65,5.65,0,0,0,.28,2.42C514.37,619.46,514.19,621.84,514.25,624.19Z"/><path d="M808.81,671.2a16.73,16.73,0,0,0-.18,3.23c.45,3.27,1.14,6.52,1.55,9.8a34.36,34.36,0,0,1,.24,6.49c-.19,2.66-.74,5.3-1.13,8a55.25,55.25,0,0,0-.16,9.88c0,1.64.09,3.29.1,4.94s0,3.08-.08,4.62a3.6,3.6,0,0,1-.2,1.52,3.75,3.75,0,0,0,0,3c.52,2,0,3-1.89,3.6a30.69,30.69,0,0,1-9.4,1.76c-3.83,0-7.58-.7-11.42-.6-4.12.11-8.28-.31-12.38.24-2.22.3-4.28-.4-6.42-.4-1.74,0-3.49-.16-5.23-.28a16.39,16.39,0,0,1-1.82-.29c-.19,0-.39-.28-.55-.25-2.34.47-4.4-.83-6.63-1s-2.82-1.11-2.81-3c0-.72.06-1.43.08-2.14a50.57,50.57,0,0,0,.08-5.9,15.79,15.79,0,0,1,.13-4c.27-1.73.65-3.45,0-5.17a1.28,1.28,0,0,1,0-.62c.38-3.94-.67-7.8-.74-11.71a82.33,82.33,0,0,1-.14-9.56,40.19,40.19,0,0,0-.21-6.48,162.33,162.33,0,0,1,0-17.37c.06-1.44.37-2.87.45-4.31a13.55,13.55,0,0,0-.11-3.37c-.56-2.73-.34-5.52-.75-8.24-.28-1.89.53-3.48,1.09-5.08a8.16,8.16,0,0,0,.24-4.85,10.25,10.25,0,0,1-.19-4.3,13.85,13.85,0,0,0,0-4.31c-.31-2-.21-4.13-.45-6.18a20.11,20.11,0,0,1,.69-8.54,12.35,12.35,0,0,0,.13-5.25c-.23-1.74-.12-3.48-.33-5.21-.1-.82-.2-1.63-.34-2.44,0-.31-.3-.63-.24-.89.6-2.5-.19-4.93-.38-7.39a7.19,7.19,0,0,1,.1-1.85,4.29,4.29,0,0,0-.17-2.74,2.41,2.41,0,0,1,0-1.79,3.19,3.19,0,0,0,0-1.81c-.88-2.34-.4-4.72-.31-7.08a5.13,5.13,0,0,1,.48-1.78,2.55,2.55,0,0,1,4-1.3,10.3,10.3,0,0,1,1.28,1.15c2.68-.24,5.45-.59,8.22-.69,3.73-.14,7.46-.07,11.19-.09.73,0,1.46.1,2.18,0,1.64-.18,3.31-.78,4.89-.58a34,34,0,0,0,4.62,0c2.26,0,4.53,0,6.78.24a8.73,8.73,0,0,0,3.38-.1,2.42,2.42,0,0,1,.93-.07,48.67,48.67,0,0,0,6.13.48c3.18-.15,6.42.44,9.56-.49,1.66-.49,3.29,0,4.93.12a11.59,11.59,0,0,0,3.38.08,3.13,3.13,0,0,1,1.52.05,6.46,6.46,0,0,0,3.67,0,7.57,7.57,0,0,1,2.13-.13c2.68.08,5.35.55,8,0a6.27,6.27,0,0,1,1.53.16c1.45.08,2.89.13,4.33.23.82.05,1.64.2,2.45.28s1.42.11,2.13.16,1.2.06,1.79.12a6.21,6.21,0,0,0,1.82.24c1.6-.35,3.07.24,4.6.42,1.74.21,3.48.44,5.2.78,1.21.24,2.38.67,3.56,1a23.6,23.6,0,0,1,11.29,7.76,63.94,63.94,0,0,0,6.44,6.63A44.67,44.67,0,0,1,885.9,594a1.44,1.44,0,0,1,.32.85c-.05,1.52.8,2.75,1.25,4.11a76.22,76.22,0,0,1,2.14,7.73c.67,3,.39,6,.47,9a22.46,22.46,0,0,1-.9,5.13,16.65,16.65,0,0,1-1.62,4.66,15.4,15.4,0,0,0-1,2.61,14.37,14.37,0,0,1-1.73,3.6,38,38,0,0,0-2.28,4.39c-.23.46-.38,1.08-.76,1.31-1.64,1-2.62,2.59-3.72,4.06a7,7,0,0,1-2.49,1.79c-2.25,1.26-4.52,2.48-6.73,3.8-1.66,1-3.21,2.16-4.88,3.21,4.56,2.76,9,5.26,13.17,8a12.7,12.7,0,0,1,5.13,6c.87,2.2,2.12,4.23,2.27,6.67a2.42,2.42,0,0,0,.38,1.18c1.24,1.74,1.14,3.72,1,5.67a8.34,8.34,0,0,0,.37,3,18.73,18.73,0,0,1,.68,4.28c.13,2.47.1,5,.13,7.43a6.1,6.1,0,0,0,0,1.54c.76,2.66.25,5.34.23,8,0,.41-.23.85-.15,1.23.64,2.75.15,5.55.39,8.31a9.41,9.41,0,0,0,2.67,6.08,38.38,38.38,0,0,0,4.05,3.38c1.95,1.45,2,1.46,1.17,4.11-1.45,1-3.09.94-4.74.73-1.4,1.4-3,.81-4.67.66a24.29,24.29,0,0,0-4,0c-1.85.14-3.69.41-5.54.61a3.23,3.23,0,0,1-.93,0c-2.76-.5-5.53,0-8.3-.05a19.13,19.13,0,0,1-4-.64,15,15,0,0,0-6.14-.42c-1.88.36-3.62-.58-5.49-.41-2.77.26-5.56.32-8.34.44a6.85,6.85,0,0,0-3.47,1.19,3.53,3.53,0,0,1-3.22.23c-3-.92-4.32-3-4.78-5.88-.19-1.22-.16-2.47-.24-3.71s-.17-2.68-.28-4c0-.41-.28-.83-.23-1.21.56-4.12-.57-8.18-.33-12.3a46.12,46.12,0,0,0-.33-8c-.24-2-1-4-1.43-6a79.41,79.41,0,0,0-2.5-8.93,8.23,8.23,0,0,0-4.16-5.14c-1.55-.78-2.94-1.92-4.84-1.82a2.33,2.33,0,0,1-1.18-.34,5.83,5.83,0,0,0-6.18.4A12.77,12.77,0,0,1,808.81,671.2Zm1.66-36.15a41.89,41.89,0,0,1,5.64-.93,25.64,25.64,0,0,0,4.87-.7c3.17-.72,6-1.87,8.19-4.49a9.22,9.22,0,0,0,2.24-3.95c.32-1.5.45-3.05.62-4.58a2.6,2.6,0,0,0-.14-.9c-.19-.8-.35-1.61-.6-2.39a45.16,45.16,0,0,0-2.08-6.1c-1.21-2.52-3.1-4.36-6.22-4.32-.93,0-1.86-.27-2.78-.22a41.86,41.86,0,0,1-9-.28c-.45-.07-1,.29-1.5.46a67.67,67.67,0,0,0-.71,9.9c0,2.17.16,4.34.12,6.51s.53,4.48.16,6.74a23.34,23.34,0,0,0-.09,2.78A2.48,2.48,0,0,0,810.47,635.05Z"/><path d="M315.32,447.09c2.23,2.49,2.55,5.54,2.6,8.67a10.22,10.22,0,0,0,0,2.14c1.08,4.47.88,9,.49,13.48-.29,3.41-1.32,6.68-1.44,10.12a23.08,23.08,0,0,1-1.17,4.79,44.46,44.46,0,0,1-2.27,7.73,53.16,53.16,0,0,1-3.6,6.8,16,16,0,0,1-5.26,4.75c-1.77,1.06-3.67,1.88-5.51,2.82a4.78,4.78,0,0,0-1.07.58c-2.34,2.07-5.27,3.23-7.76,5.07a1.94,1.94,0,0,1-.84.38c-3,.41-5.7,1.75-8.73,2a17.9,17.9,0,0,0-7.67,2,8.11,8.11,0,0,1-2.93,1c-3.08.37-6.17.6-9.27.87-2.66.22-5.3.48-8,.92a17.22,17.22,0,0,1-8.88-.46c-2.12-.78-4.36-1.22-6.53-1.86a27.35,27.35,0,0,1-2.61-1,8.38,8.38,0,0,0-1.7-.73c-2.87-.4-5.1-2.21-7.62-3.35a9.44,9.44,0,0,1-1.51-1c-.42-.3-.8-.65-1.24-.93-3.48-2.21-7-4.39-10.46-6.61a57.56,57.56,0,0,1-6.44-4.28,27.35,27.35,0,0,1-3.7-4.54c-.37-.49-.53-1.15-.91-1.61a26.62,26.62,0,0,1-5.12-11.15,19.13,19.13,0,0,0-1.06-2.91c-.4-.95-.91-1.85-1.31-2.8a19.76,19.76,0,0,0-2.22-4.75,5,5,0,0,1-.7-1.72c-.36-1.39-.48-2.86-1.38-4.09a2,2,0,0,1-.26-1.2c.1-2.28-1.06-4.4-.79-6.71a6.54,6.54,0,0,0-.23-1.84c-.34-1.83-.63-3.67-1.05-5.48a27.26,27.26,0,0,0-1.14-3.52,10.16,10.16,0,0,1-.65-3.6c0-2.54.2-5.16-1-7.56a2,2,0,0,1-.34-1.17c.7-2.83-.57-5.71.24-8.52a25.1,25.1,0,0,1,.43-8,9.37,9.37,0,0,1,.42-2.12,8.07,8.07,0,0,0,.35-4.29,10.13,10.13,0,0,1,0-2.75,14.44,14.44,0,0,1,2.48-6.93,4.26,4.26,0,0,0,.75-2.31,18.25,18.25,0,0,1,1.67-6.56,30.54,30.54,0,0,0,2.31-7.68,8.31,8.31,0,0,1,1.37-4.09,2.84,2.84,0,0,0,.45-1.14c.51-2.91,2.05-5.4,3.39-7.95a14.71,14.71,0,0,1,4.68-4.9c1.25-.9,2.51-1.78,3.77-2.66a9,9,0,0,1,1.8-1.2c2-.79,3.35-2.44,4.87-3.78a22.19,22.19,0,0,1,10.15-5.54c3-.6,6.1-1,9.15-1.57a18.19,18.19,0,0,0,1.81-.39,42.58,42.58,0,0,1,5.67-1.47c2.15-.27,4.18-.9,6.27-1.35a18.37,18.37,0,0,1,4-.3c1.65,0,3.29.19,4.94.33a21.5,21.5,0,0,1,3.69.43,31.34,31.34,0,0,0,7.66,1c1.74.05,3.47.46,5.21.67a40,40,0,0,1,4,.43A109.22,109.22,0,0,1,289,357.3c2.5.91,4.51,2.51,6.73,3.83,1.84,1.09,3.59,2.29,5.52,3.27a21.51,21.51,0,0,1,7.64,6.65,9.58,9.58,0,0,0,1.35,1.67,19.34,19.34,0,0,1,5.49,8.46,37.35,37.35,0,0,1,1.94,5.87c.54,3,.85,6.12,1.38,9.16a4.2,4.2,0,0,1,.07.62c-.07,3.41-.13,6.83-.22,10.25a4.28,4.28,0,0,1-.25,1.51,2.75,2.75,0,0,0,.22,2.65,5.72,5.72,0,0,1,.5,1.74c.25,1.32.48,2.64.67,4a3.77,3.77,0,0,1-3.42,4c-.72,0-1.45-.11-2.17-.17a33.3,33.3,0,0,0-3.72-.3,48,48,0,0,1-9.25-1c-1.83-.3-3.69-.45-5.53-.66a4.65,4.65,0,0,1-.92,0c-3.31-1.12-6.72-.81-10.12-.81a50.54,50.54,0,0,0-7.69.55c-1.12.17-2.21.48-3.31.75a3.53,3.53,0,0,1-4.38-2.41,2.07,2.07,0,0,1-.12-.61c-.17-3-.56-6,.15-8.94.29-1.21.6-2.41.82-3.63a6.37,6.37,0,0,0,0-1.85c-.25-2-.56-4.07-.61-6.15a4.71,4.71,0,0,0-2.27-3.55,1.34,1.34,0,0,0-.84-.32c-1.63.24-3.25-.36-4.93.16a17.33,17.33,0,0,1-4.28.41c-2.47.11-4,1.52-5,3.6-.09.18-.11.4-.19.59-.9,2.06-1.88,4-1.68,6.46.18,2.23-.46,4.48-.22,6.79a80.52,80.52,0,0,1,.12,8.37,5.19,5.19,0,0,1-.3,1.19,23,23,0,0,0-.45,5.18c-.09,3.53.91,7,.66,10.48-.21,3,.24,6-.39,9a11.5,11.5,0,0,0,0,1.85c-.1,2.47.27,4.92.09,7.43a20.94,20.94,0,0,0,1.12,6.71,11.89,11.89,0,0,1,.56,3.3c0,4.34,1.52,8.31,3.11,12.24a3.69,3.69,0,0,0,3.36,2.4,16.4,16.4,0,0,0,5.25-.21,30.41,30.41,0,0,0,5.38-2.82.41.41,0,0,0,.21-.22c1-2.75,3.41-5,2.87-8.3a1.7,1.7,0,0,1-.06-.31A29,29,0,0,0,270.1,454a5.15,5.15,0,0,1-.22-1.53c-.12-1.91,1.19-3.36,3-2.91a10.53,10.53,0,0,0,5.46-.18,9.06,9.06,0,0,1,3.36.27,15.65,15.65,0,0,0,4.32-.09,38.34,38.34,0,0,1,6.16-.16,7.51,7.51,0,0,0,3.3-.61c5.48-2.38,11.21-2.68,17.06-1.83C313.34,447,314.16,447,315.32,447.09Z"/><path d="M392.48,726.19c-2.86-1.79-3.59-4.21-4.06-6.81-.55-3-.64-6.2-2.42-9.1a3.09,3.09,0,0,0-2.49-.15,11.1,11.1,0,0,1-5.52.23,1.84,1.84,0,0,0-.91-.11c-2,.66-4.1.37-6.16.34-3.2-.05-6.4,0-9.6,0-.52,0-1-.06-1.55,0a1.59,1.59,0,0,0-1.66,1.81c0,.42.05.83.08,1.24a3.11,3.11,0,0,1,.09,1.23c-.91,2.4-.41,4.94-.81,7.37a16.36,16.36,0,0,1-1.05,3.56,5.33,5.33,0,0,1-5.51,2.53c-2.36-.75-4.68-1.6-7.34-2.52-3.63,0-7.64-.09-11.65-.1a29.52,29.52,0,0,0-3.38.23c-2.14.26-4.27.64-6.42.86a37.4,37.4,0,0,1-7.09.55,6.27,6.27,0,0,0-2.11.38,4.1,4.1,0,0,1-4.87-1.56c-.43-.59-.81-1.21-1.19-1.82a4,4,0,0,1-.35-4.12,8.43,8.43,0,0,0,.74-3.91,18,18,0,0,1,.63-4.28c.5-2.22,1.11-4.41,1.67-6.62.38-1.5.79-3,1.12-4.49a24.55,24.55,0,0,1,1.95-6.18c1.13-2.18.81-4.62.94-7,.24-4,.5-8,.94-12a10.43,10.43,0,0,1,1.72-4.92,13.46,13.46,0,0,0,1.82-4.93,12.36,12.36,0,0,1,.55-2.09c1.75-4.3,2.78-8.84,4.41-13.19.78-2.11,1.49-4.23,2.41-6.31.77-1.75.87-3.81,1.29-5.72a16.35,16.35,0,0,1,.6-2.07c.84-2.23,1.72-4.44,2.56-6.66a5.64,5.64,0,0,0,.54-1.77c.1-3.81,1.85-7.19,2.71-10.8.72-3,1.31-6,2-9.07.15-.71.3-1.41.47-2.12.42-1.8,1.43-3.46,1.35-5.38s.66-3.6.51-5.52a10.38,10.38,0,0,1,.83-4.85,13.7,13.7,0,0,0,1.22-6,4.89,4.89,0,0,1,1-3.19,12.41,12.41,0,0,0,2.14-6.64c.16-1.94.61-3.86.91-5.66l1.91-1.62,6.23-.61c2.65-.26,5.25-1.24,8-.64,3.44-1,7,0,10.43-.36,2.59,1,5.28-.33,8,.35,1.42.35,3.06-.25,4.61-.33a121.14,121.14,0,0,0,14.23-1.16,7.5,7.5,0,0,1,2.43.22c2.23.36,4.41,1,6.74.41a3.52,3.52,0,0,1,4.12,1.42,2.77,2.77,0,0,1,.44,2.62,3.79,3.79,0,0,0-.2,1.8c.32,2.56.73,5.11,1.09,7.67.18,1.31.25,2.63.46,3.93a18.11,18.11,0,0,0,.83,3.6c.62,1.63,1.46,3.18,2.21,4.76a8.16,8.16,0,0,1,.78,1.64,10,10,0,0,0,1.06,2.53,17.5,17.5,0,0,1,1.4,4.38c.74,3.85,1.61,7.67,2,11.6a33.56,33.56,0,0,0,2.29,9c1,2.68,1.72,5.5,2.67,8.22a60.26,60.26,0,0,0,2.52,6.32,72.7,72.7,0,0,1,3.14,8.41c.33,1,.75,1.92,1.08,2.89.2.58.32,1.19.46,1.78.22.9.43,1.8.63,2.71.45,2,1.35,3.84,1.56,5.94a30.91,30.91,0,0,0,1.41,5,16.93,16.93,0,0,1,.7,3,20.76,20.76,0,0,0,2.84,8.47,8.87,8.87,0,0,1,1.25,4.38,24.49,24.49,0,0,0,1.05,5.13,13.24,13.24,0,0,1,.65,4.89,7.06,7.06,0,0,0,.29,2.11c.06.3.31.58.32.87.09,4.87,2.79,9,3.72,13.68,1.56,2.9,1.77,6.08,2.07,9.28a17.36,17.36,0,0,0,1,5.4,12,12,0,0,1,.48,2.72c.37,1.94-.23,3.23-2,3.93a7,7,0,0,1-2.7.56,35.68,35.68,0,0,0-8.64.18c-2.27-.69-4.49,0-6.73.21a13.11,13.11,0,0,0-1.53.22c-3,.58-5.91,1.16-8.93.42a2,2,0,0,0-.92,0c-2.29.57-4.51-.11-6.77-.27-3.89-.27-7.76-.82-11.7-.45C397.7,726.4,395,726.19,392.48,726.19ZM372.43,628c-.32.26-.45.31-.48.39-.72,2.36-.86,4.89-2.12,7.09-.19.34-.08.82-.18,1.22-.73,3-.39,6.13-1.19,9.14a41.63,41.63,0,0,0-1,5.79c-.39,3.28-.84,6.56-.93,9.85a29.48,29.48,0,0,1-.24,4,28.16,28.16,0,0,0-.16,3.87c5.31.73,10.36.85,12.86.28-.2-2.22-.3-4.47-.64-6.69s-1-4.44-1.34-6.68-.45-4.32-.68-6.48a28.8,28.8,0,0,1-.36-3.05,56.2,56.2,0,0,0-1.35-10.43c-.25-1.42-.47-2.85-.66-4.27S373.65,629.1,372.43,628Z"/><path d="M250.11,685.17a55,55,0,0,0,5.91.89,83.39,83.39,0,0,0,8.66,0,15.18,15.18,0,0,1,3.69-.23c.29.06.61-.1.92-.1,1.87,0,3.57-1,5.45-.9s3.71.14,5.57.28a23.94,23.94,0,0,1,3,.44,16.11,16.11,0,0,0,5.82.57,5.7,5.7,0,0,1,1.24-.07,28,28,0,0,0,7.35-.63,4.79,4.79,0,0,1,2.13,0c3,.71,3.8,1.62,3.64,4.77a55.86,55.86,0,0,1-1,6.11c-.35,2.14-.65,4.3-1,6.44-.55,3.15.19,6.15.88,9.17.12.5.23,1,.4,1.5,1.06,3.1.85,6.29.71,9.47-.09,1.94-1.4,3.15-3,4.58-3.22.18-6.72.59-10.2.5-2.48-.06-4.89.35-7.32.38-2.65,0-5.35.77-8-.21a4.62,4.62,0,0,0-1.54-.13c-3.63.05-7.26,0-10.87.19-3.29.18-6.57.61-9.85.93a6.43,6.43,0,0,1-1.85.09,12.14,12.14,0,0,0-4.25,0,30.56,30.56,0,0,1-5.22-.18,89.86,89.86,0,0,1-11.11-.84,46.06,46.06,0,0,0-5.88-.08,37.3,37.3,0,0,1-9.78-1.53,21.88,21.88,0,0,0-7.65-.92,67.1,67.1,0,0,1-8.38-.26,8,8,0,0,0-4.16.95,11,11,0,0,1-2.87,1.1,2.76,2.76,0,0,1-3-1.23,2.61,2.61,0,0,1,0-3.2,4.52,4.52,0,0,0,.79-3.19,27.16,27.16,0,0,1,.51-6.13,22,22,0,0,0,.21-8,57,57,0,0,1-.68-6.78,41.76,41.76,0,0,0-1.68-10,6.37,6.37,0,0,1-.37-3.66,1.21,1.21,0,0,0,.06-.62c-.73-3.28,0-6.61-.27-9.91a7.25,7.25,0,0,1,.34-2.72A37.58,37.58,0,0,0,189,663.4c.13-3.2.62-6.38.9-9.57a84.21,84.21,0,0,0,.15-11.78c-.1-2-.22-3.92-.44-5.86-.4-3.61-.09-7.22-.14-10.83,0-1-.15-2.06-.1-3.09a23.21,23.21,0,0,0-.89-8.53c.57-3.48-.34-7,.06-10.49a31.61,31.61,0,0,0-.42-8,38.13,38.13,0,0,1-.27-8.66c.19-2.27.2-4.54.34-6.8a35.08,35.08,0,0,0,0-4.35c-.1-1.34.52-2.56.31-4-.27-1.85,1.62-3.49,3.54-3.5a1.61,1.61,0,0,1,.31,0c4.23.85,8.4-.12,12.59-.46a27.52,27.52,0,0,1,8.59.35,7,7,0,0,0,2.46,0c2.79-.31,5.56-.69,8.27.52.39.17,1-.1,1.46-.14a6.23,6.23,0,0,1,2.13-.14c2.17.57,4.3-.25,6.45,0s4.33.43,6.5.53c1.54.08,3.1-.15,4.63,0a10.11,10.11,0,0,1,3.27.88,4.16,4.16,0,0,1,2.68,4.48c-.55,4.43-.16,8.86-.1,13.29a46.55,46.55,0,0,1-.65,9.55,34.34,34.34,0,0,0-.75,10.14,19.36,19.36,0,0,1-.13,3.72c-.31,3.61.45,7.25-.24,10.85.51,2.47.12,4.94.07,7.41a1.27,1.27,0,0,0,.07.62c1.3,2.3.46,4.86.86,7.27a6,6,0,0,1,0,1.53c-.16,1.56-.32,3.07.74,4.45a3.32,3.32,0,0,1,.47,1.79,110.75,110.75,0,0,1,.36,11.09c-.12,2.56.15,5.14.08,7.71-.11,3.91.48,7.85-.51,11.73-.33,1.29-.23,2.69-.47,4a31.36,31.36,0,0,1-1,3.89C249.83,683.82,249.65,684.58,250.11,685.17Z"/><path d="M474.75,448.5c.1-1.55.21-3.1.32-4.64a14.59,14.59,0,0,0,.12-2.46c-.42-3.83,0-7.64.15-11.45a5,5,0,0,0-1.08-3.69c-1.52-1.85-1-3.66,1-5a6,6,0,0,1,3.24-.91,37.79,37.79,0,0,0,6.48-.55,43.4,43.4,0,0,1,8.66-.58c2.06,0,4.12,0,6.18-.14a38,38,0,0,1,8,.07,29,29,0,0,0,4.93-.06c2.26,0,4.52-.08,6.78-.06,2.68,0,5.37.17,8.06.17a22.66,22.66,0,0,1,8.24,1.26,6.68,6.68,0,0,0,6-.64c1.57-.91,3.2-.8,4.82-.79s2.84,1.77,2.94,3.83c.08,1.65,0,3.32,0,5a32.21,32.21,0,0,1-.23,5.57c-.45,2.31.06,4.52.11,6.78a29.83,29.83,0,0,0,.47,3.36c.08.51.18,1,.21,1.52.16,2.67.29,5.35.45,8a3.71,3.71,0,0,1-1.38,3.59,4.87,4.87,0,0,1-3.47.82c-2.73-.26-5.56-.74-8.24.5a3.08,3.08,0,0,1-1.18,0,17,17,0,0,0-2.14,0,79.88,79.88,0,0,1-9.28.33c-3.61,0-7.22.08-10.83.08-1,0-2.06-.13-3.08-.23-.62-.05-1.29-.37-1.83-.2-1.61.49-3.09-.17-4.55-.48a10.07,10.07,0,0,0-3.66-.26,3.23,3.23,0,0,1-1.24,0c-2.91-.64-5.76,0-8.64.28a39.06,39.06,0,0,1-9,.17,15.16,15.16,0,0,1-5.44-2.15,3.72,3.72,0,0,1-1.92-3.64c.05-1.14,0-2.28,0-3.42Z"/><path d="M743,668.56a8.69,8.69,0,0,0,0-1.25c-.31-4.43-.69-8.85-1-13.28-.16-2.77-.21-5.56-.19-8.34a69.58,69.58,0,0,1,.37-8,26.8,26.8,0,0,0,0-6.2c-.21-1.92-.28-3.87-.39-5.8-.09-1.75.08-3.46-.73-5.12a8.2,8.2,0,0,1-.4-2.13c-.43-2.34-1-4.65-1.26-7-.28-2.13-.91-4.25-.41-6.46a3.93,3.93,0,0,0-.44-2.7c-.65-1.27-1.15-2.62-1.8-4.12a16.87,16.87,0,0,0,1.68-1c.68-.55.61-1.59-.17-1.71A4.78,4.78,0,0,1,735,592.8c-1.24-2-2.41-4.08-3.46-6.2a34.47,34.47,0,0,0-3.54-5.06c-3.41-2.13-6-5.34-9.7-7.14a14.64,14.64,0,0,1-1.26-.9c-3-1.85-5.87-3.83-9.38-4.61a15.59,15.59,0,0,1-4.41-1.41,7.07,7.07,0,0,0-3.84-1,4.11,4.11,0,0,1-3.4-1.15,2,2,0,0,0-1.36-.63c-1.79.09-3.48-.45-5.22-.58-3.6-.26-7.2-.83-10.82-.57-1.13.08-2.26.22-3.38.27-3.49.17-7,.11-10.47.46-1.51.14-3,.65-4.6.24a2.34,2.34,0,0,0-1.47.38c-2.1,1.13-4.45.79-6.66,1.22-4.18-.67-8,1-11.8,2.11-2.76.83-5.39,2.07-8.12,3a21.75,21.75,0,0,0-5.56,2.67,8.1,8.1,0,0,1-3.75,1.27A15.71,15.71,0,0,0,617,577a22.58,22.58,0,0,0-6.5,5.68,6.62,6.62,0,0,1-1.42,1.63,13.08,13.08,0,0,0-5.54,7.2c-.79,2.23-2.16,4.25-2.94,6.48a22.24,22.24,0,0,0-1.47,6.62,36.83,36.83,0,0,1-1.05,6.66c-.3,1.41-.63,2.82-.79,4.26-.24,2.26-.39,4.53-.52,6.8-.15,2.47-.34,4.95-.34,7.42,0,3.1.16,6.19.27,9.29.05,1.33.19,2.65.21,4,.08,4.85.12,9.69.17,14.54,0,1.45-.1,2.89,0,4.33.15,2.75-.34,5.47.15,8.28.67,3.84,2.11,7.56,2,11.54,0,.29.22.58.27.89.18.9.33,1.82.49,2.73s.32,1.82.45,2.73a42,42,0,0,0,2,7.47c.5,1.46,1,2.9,1.58,4.32,1.19,2.73,1.83,5.69,3.64,8.15a9.38,9.38,0,0,0,3.13,4.89c1.78,1.73,3.59,3.42,5.41,5.11a25.88,25.88,0,0,0,9.64,6,13.26,13.26,0,0,1,3.64,1.65,9.08,9.08,0,0,0,2.88,1.08c4,1,8,2.08,12,3.06a25.4,25.4,0,0,0,3.35.54c4,.44,8.06-.74,12,.41a.8.8,0,0,0,.31,0,39.8,39.8,0,0,1,10.17.24,6.54,6.54,0,0,0,1.86.11c2.94-.62,5.94,0,8.92-.56s6.33-.54,9.46-1.43c2.66-.76,5.51-.81,8.22-1.44a31.32,31.32,0,0,0,11.23-5.06,12.24,12.24,0,0,1,1.9-1,57.56,57.56,0,0,0,6.95-3.31,50.88,50.88,0,0,0,6.18-5.12c1.15-1,2-2.48,3.31-3.23a11.43,11.43,0,0,0,3.51-3.41c1.15-1.59,2.34-3.14,3.45-4.76a30,30,0,0,0,2.77-4.42c1.27-2.82,2.21-5.78,3.45-8.61a10.66,10.66,0,0,0,1.09-5.7,4.2,4.2,0,0,1,.06-.93C743,677.63,742.61,673.08,743,668.56ZM629.7,656.74a28.58,28.58,0,0,1-2.92-3.22c-1.49-2.21-3-4.48-2.2-7.43a8.75,8.75,0,0,0,0-2c1.78-2.63,4.44-4,6.93-5.34a11.14,11.14,0,0,1,7.21-1.29,5,5,0,0,0,1.51.19c3.9-.66,7.81-.23,11.72-.35a2.87,2.87,0,0,0,1.22-.09c1.92-1,4-.79,6-1a43.31,43.31,0,0,0,4.89-.8,13,13,0,0,1,5.29-.32,300.58,300.58,0,0,0-24.19,25.77,34.27,34.27,0,0,0-5.23,1.17,1.9,1.9,0,0,1-2.41-.87,2,2,0,0,0-1.5-1A11.78,11.78,0,0,1,629.7,656.74Zm86.1-4.18a4.37,4.37,0,0,1-2.34,2.76,36.58,36.58,0,0,1-5.79,2.19c-2.17.51-4.36,1.37-6.7.82a2.5,2.5,0,0,0-1.23.14c-3.28,1.07-6.7,1-10.08,1.42s-6.44-.13-9.65.22l18.76-24.28a2.86,2.86,0,0,0,1.37-.24c2.31-1.18,4.67-.6,7-.22a4,4,0,0,1,3.4,2.39,2.16,2.16,0,0,0,.51.77c2.24,1.87,3.16,4.57,4.24,7.11A9.25,9.25,0,0,1,715.8,652.56Z"/><path d="M469.39,453.86a7.45,7.45,0,0,0,0-1.25c-.32-4.42-.69-8.85-.95-13.28-.16-2.77-.21-5.56-.19-8.33a69.65,69.65,0,0,1,.37-8.05,26.71,26.71,0,0,0,0-6.19c-.21-1.93-.28-3.88-.39-5.8-.09-1.76.08-3.47-.74-5.13a8.55,8.55,0,0,1-.39-2.13c-.43-2.33-.95-4.65-1.26-7-.28-2.13-.91-4.25-.41-6.46a3.94,3.94,0,0,0-.44-2.7c-.66-1.27-1.16-2.61-1.8-4.12a18.15,18.15,0,0,0,1.68-1c.67-.55.61-1.58-.17-1.71a4.76,4.76,0,0,1-3.32-2.58c-1.24-2-2.41-4.08-3.47-6.2a33.51,33.51,0,0,0-3.54-5.06c-3.41-2.13-6-5.34-9.69-7.14a15.15,15.15,0,0,1-1.26-.89c-3-1.86-5.87-3.84-9.38-4.62a15.65,15.65,0,0,1-4.42-1.41,7,7,0,0,0-3.83-.95,4.11,4.11,0,0,1-3.4-1.15,2,2,0,0,0-1.36-.62c-1.79.08-3.48-.46-5.22-.58-3.6-.26-7.2-.83-10.83-.58-1.12.08-2.25.22-3.37.28-3.49.16-7,.11-10.47.45-1.51.15-3,.65-4.6.24a2.34,2.34,0,0,0-1.47.38c-2.1,1.13-4.45.79-6.66,1.22-4.18-.67-8,1-11.8,2.11-2.76.83-5.39,2.07-8.12,3a21.39,21.39,0,0,0-5.56,2.66,8,8,0,0,1-3.75,1.27,15.54,15.54,0,0,0-5.87,1.77,22.27,22.27,0,0,0-6.5,5.67,6.44,6.44,0,0,1-1.42,1.63,13.15,13.15,0,0,0-5.54,7.2c-.79,2.23-2.16,4.25-2.94,6.48a22.24,22.24,0,0,0-1.47,6.62,36.83,36.83,0,0,1-1.05,6.66c-.3,1.41-.63,2.83-.79,4.26-.24,2.26-.39,4.53-.52,6.8-.15,2.47-.34,4.95-.34,7.42,0,3.1.16,6.2.27,9.29.05,1.33.19,2.65.21,4q.11,7.28.17,14.55c0,1.44-.1,2.88,0,4.32.15,2.75-.34,5.47.15,8.28.67,3.84,2.11,7.56,2,11.54,0,.29.21.58.27.89.18.91.33,1.82.48,2.73s.33,1.82.46,2.73a40.94,40.94,0,0,0,2,7.47c.5,1.46,1,2.9,1.58,4.33,1.19,2.72,1.83,5.69,3.63,8.15a9.47,9.47,0,0,0,3.14,4.88c1.78,1.73,3.59,3.42,5.41,5.11a25.92,25.92,0,0,0,9.63,6,13.18,13.18,0,0,1,3.65,1.65,9.08,9.08,0,0,0,2.88,1.08q6,1.59,12,3.06a25.4,25.4,0,0,0,3.35.54c4,.44,8.06-.74,12,.41a.61.61,0,0,0,.3,0,39.87,39.87,0,0,1,10.18.24,6.15,6.15,0,0,0,1.85.11c2.95-.61,5.95,0,8.92-.56,3.13-.6,6.34-.53,9.47-1.43,2.66-.75,5.51-.81,8.22-1.44a31.15,31.15,0,0,0,11.23-5.06,11.4,11.4,0,0,1,1.9-1,59.11,59.11,0,0,0,6.95-3.31,52.71,52.71,0,0,0,6.18-5.13c1.15-1,2-2.48,3.31-3.23a11.32,11.32,0,0,0,3.51-3.41c1.15-1.59,2.34-3.14,3.45-4.76a30,30,0,0,0,2.77-4.42c1.27-2.82,2.21-5.78,3.45-8.61a10.64,10.64,0,0,0,1.09-5.7,3.67,3.67,0,0,1,.06-.93C469.42,462.93,469,458.38,469.39,453.86Zm-103-6.48a1.89,1.89,0,0,1-2.41-.87,2,2,0,0,0-1.5-.95,11.75,11.75,0,0,1-6.39-3.52,27.66,27.66,0,0,1-2.92-3.22c-1.49-2.21-3-4.48-2.2-7.42a8.85,8.85,0,0,0,0-2c1.78-2.63,4.44-4,6.93-5.34a11.2,11.2,0,0,1,7.21-1.29,4.68,4.68,0,0,0,1.51.19,39.88,39.88,0,0,1,7.32-.36c-.07,2.3.77,4.82,1.21,7.16,1,5.33-.38,10.78-.73,16.2A32.11,32.11,0,0,0,366.39,447.38Zm28.13-2.45a29.44,29.44,0,0,0-5.11-.42l-.6-3.37a7.44,7.44,0,0,1-.15-2.44,14.75,14.75,0,0,1,.84-2.39,14.51,14.51,0,0,0,.57-5.21c-.06-3.39-.22-6.78-.48-10.15l.92-.19c1.93-.37,3.84-.78,5.8-.19.39.11.92.26,1.21.09,1.61-1,3-.2,4.4.48a13,13,0,0,0,3.19,1.06q.42,11.52.13,23.05C401.68,444.72,398.08,445.38,394.52,444.93Zm47.67-7.06a4.36,4.36,0,0,1-2.34,2.75,35.63,35.63,0,0,1-5.79,2.19c-2.18.51-4.36,1.37-6.7.82a2.4,2.4,0,0,0-1.23.15,24.49,24.49,0,0,1-5.27,1l-.75-22.8a6.38,6.38,0,0,0,1.58-.28,8.28,8.28,0,0,1,3.34-.56,3,3,0,0,0,1.5-.24c2.31-1.18,4.67-.6,7-.22a4,4,0,0,1,3.4,2.39,2.16,2.16,0,0,0,.51.77c2.24,1.88,3.15,4.57,4.24,7.11A9.27,9.27,0,0,1,442.19,437.87Z"/></svg>