<svg id="Camada_1" data-name="Camada 1" xmlns="http://www.w3.org/2000/svg" viewBox="0 0 1920 1920"><path d="M470.55,743.43a37.93,37.93,0,0,1,.6,4.83q0,102.71,0,205.41a77,77,0,0,0,4.76,27.65,65.78,65.78,0,0,0,12.45,20c10.58,12.09,24.16,18.75,39.81,21.51,1.49.26,3,.21,4.57.34,1.37.13,2.74.31,4.28.49v4.76c-3.39-.25-6.67-.29-9.89-.77a71.41,71.41,0,0,1-54-39.84A61.61,61.61,0,0,1,466.74,964c-.38-7.11-.54-14.24-.55-21.36q-.06-97.17,0-194.34a44.56,44.56,0,0,1,.53-4.86Z"/><path d="M893.17,1176.57a19.64,19.64,0,0,1-.67-3.65q0-81.11,0-162.21c0-1.11.13-2.23.21-3.51h4.8V1011q0,80.71,0,161.44a36.09,36.09,0,0,1-.47,4.12Z"/><path d="M897,743.43a35.91,35.91,0,0,1,.47,4.11q0,80.37,0,160.73v4h-5v-4.73q0-81.51,0-163c0-.38-.06-.76-.09-1.14Z"/><path d="M1295.14,943.38h-7.69c-1.6-4.55-2.91-9.06-4.74-13.35a60.47,60.47,0,0,0-22.45-26.83c-7.35-4.93-15.16-8.87-24-10.49-14.28-2.64-28.2-1.52-41.36,4.85-15.73,7.61-27.36,19.17-33.68,35.75a73.72,73.72,0,0,0-4.58,26.54q-.06,31.89,0,63.78v4.57l-4.92.25a27.81,27.81,0,0,1-.33-3c0-22.53,0-45.06,0-67.59a70.94,70.94,0,0,1,11.25-38.69,69.09,69.09,0,0,1,24.38-23.2c10.59-6.08,21.89-9.68,34.12-9.68,19.49,0,36.67,6.14,50.93,19.83a71.4,71.4,0,0,1,17.7,27.72c.38,1.05.85,2.08,1.54,3.78.65-1.45,1.14-2.37,1.47-3.34a69.78,69.78,0,0,1,23-32.53c14.93-12,32.18-16.6,51-15.16,12.15.92,23.21,5.34,33.27,12.29a70.31,70.31,0,0,1,23.26,26.3,63.53,63.53,0,0,1,7.08,24.37c.47,6.46.63,13,.65,19.45.09,18.32,0,36.66,0,55v4.29l-4.66.22c-.07-1.63-.19-3.09-.19-4.56,0-21,0-42,0-63a77.57,77.57,0,0,0-4.41-27,63.35,63.35,0,0,0-17.94-25.71,65.37,65.37,0,0,0-39-16.61c-17.59-1.38-33.19,3.82-46.86,14.8-10.85,8.72-17.9,20-21.68,33.35C1296.05,941,1295.58,942.12,1295.14,943.38Z"/><path d="M440.16,1028.22h-5.3V1005c-1.49,1.36-2.35,2-3.1,2.83-8.27,8.73-18.47,14.41-29.8,17.81A72.27,72.27,0,0,1,377,1028.2c-15.88-.89-29.77-7-41.65-17-12.05-10.22-19.66-23.44-23-39-3.94-18.31-.83-35.47,8.58-51.39a65.81,65.81,0,0,1,23.36-23.64c9.1-5.37,18.66-9.2,29.21-10.41,13-1.47,25.35.75,37.29,5.73,11.45,4.77,20.47,12.63,28,22.35a6.28,6.28,0,0,1,1.36,4.2c-.05,4.71,0,9.42,0,14.13v95.13Zm-5.26-70.94q0-18.13,0-36.27a6.63,6.63,0,0,0-1.25-4.63c-10-12.24-22.66-20.56-38.15-23.68-19-3.82-36.69-.36-52.44,11.36-5.43,4-10.58,8.52-14.37,14.12-6.39,9.46-11.2,19.66-12.26,31.27-.7,7.52-.7,15.06,1.05,22.39a64.71,64.71,0,0,0,17.19,31.39,66.57,66.57,0,0,0,17.71,13.08,68,68,0,0,0,34.05,6.76,57.73,57.73,0,0,0,19.34-4.11A66.6,66.6,0,0,0,432.85,999a8.74,8.74,0,0,0,2.09-5.86C434.85,981.21,434.9,969.24,434.9,957.28Z"/><path d="M1446.87,957c.41-39.74,32.94-71.31,71.84-70.91A71.12,71.12,0,1,1,1446.87,957Zm71.47-65.61A66,66,0,1,0,1584,958.07,65.6,65.6,0,0,0,1518.34,891.4Z"/><path d="M848.28,957.53a71.16,71.16,0,1,1-71-71.44C816.17,886.16,848.55,918.58,848.28,957.53Zm-5.28-.69a66,66,0,1,0-65.59,66.54A65.73,65.73,0,0,0,843,956.84Z"/><path d="M684.54,962.36H619.3v-4.69h70.17c1.94,18.91-10.37,49.21-38.93,63.29a71.11,71.11,0,0,1-96.11-93.71c13.41-28.41,41.9-42.18,64.33-40.66v4.74c-24,.72-42.5,11.2-55.67,31-9.33,14.07-12.09,29.75-9.24,46a65.8,65.8,0,0,0,69.49,54.66C658,1020.73,682.93,992.31,684.54,962.36Z"/><path d="M889.3,965.6h-31V954.26c4.91-.31,10-.1,15-.14s10.17,0,15.68,0c.53-3.53.22-6.93.27-10.3s0-6.88,0-10.31V923.11h11.13c0,5.23.06,10.38.08,15.54s0,10.1,0,15.44h31.3v11.53H900.37v31H889.3Z"/><path d="M1163.2,961.75v-4.14h256.15c.11.73.27,1.44.31,2.16a15.3,15.3,0,0,1-.11,1.81C1416.66,962.43,1167.56,962.61,1163.2,961.75Z"/><path d="M1069.88,871h4.94V886H1085v5.07h-9.64a31.93,31.93,0,0,0-.36,3.31c0,20.86-.11,41.73,0,62.6.12,20,8,36.7,22.65,49.9a63.31,63.31,0,0,0,38.32,16.21c1.51.12,3,.31,4.73.48v4.69a61.21,61.21,0,0,1-11.63-1,69.43,69.43,0,0,1-33.52-15.54,68,68,0,0,1-20-27,82.57,82.57,0,0,1-5.64-31.31q0-38.94,0-77.87Z"/><path d="M1012.33,886.24v5.08c-1.84.13-3.47.23-5.09.36a63.87,63.87,0,0,0-39.63,17.64,66.64,66.64,0,0,0-17.42,27c-2.72,7.7-3.39,15.62-3.4,23.65q0,31.89,0,63.77v4.43h-5c-.08-1-.24-2.13-.24-3.22q0-33,0-66.05c0-14.2,3.43-27.52,11.11-39.49a70.75,70.75,0,0,1,21.51-21.89,69.6,69.6,0,0,1,35.59-11.25C1010.5,886.22,1011.25,886.24,1012.33,886.24Z"/><path d="M1043.63,886.33v141.78c-.72.1-1.43.26-2.14.29s-1.51-.08-2.22-.12c-.82-2.78-1-137.57-.19-141.95Z"/><path d="M953.59,962V957.4c26.08-.06,52.08,0,78,0a7.51,7.51,0,0,1,.45,1.44c.05.88,0,1.77,0,2.52a5.06,5.06,0,0,1-.37.41c-.09.09-.18.21-.29.24a4.32,4.32,0,0,1-1.11.24q-37,0-74.09,0C955.48,962.25,954.73,962.14,953.59,962Z"/><path d="M1666.46,957.65v4c-2.87.74-65.7,1-70.46.21v-4.21Z"/><path d="M1144.94,957.6v4c-2.92.87-59.3,1-63.43.17V957.6Z"/><path d="M541.31,957.6c.08,1.42.14,2.64.24,4.43-5.43.49-10.72.16-16,.22s-10.43,0-15.64,0H478.14V957.6Z"/><path d="M612.53,957.78V962H559.42V958C562,957.22,606.9,957,612.53,957.78Z"/><path d="M304.34,957.65v3.87c-2.63.91-46,1.16-50.8.24v-4.11Z"/><path d="M447,957.52H459.5c.08,1.37.16,2.68.26,4.39-4.29.65-8.38.31-12.72.24Z"/><path d="M1063.47,962.07h-12.76c-.07-1.41-.12-2.74-.2-4.56,4.31-.26,8.42-.13,12.75-.07.14.9.3,1.6.34,2.31A20.94,20.94,0,0,1,1063.47,962.07Z"/><path d="M1038.83,871h4.77v4.32h-4.77Z"/><path d="M428.16,957.62v3.92c-2.71.88-99.86,1.15-105.08.27v-4.19Z"/><path d="M1458.62,961.43c.05-1.15.11-2.39.18-3.84h118.3v4.07c-.09.08-.17.18-.27.26a.77.77,0,0,1-.32.17c-1.14.07-2.28.17-3.43.17l-112.65,0a5.44,5.44,0,0,1-1.12-.18c-.11,0-.19-.17-.28-.25Z"/><path d="M717.06,962v-4c2.77-.8,115-1,119.56-.19V962Z"/></svg>