<svg id="Camada_1" data-name="Camada 1" xmlns="http://www.w3.org/2000/svg" viewBox="0 0 1920 1920"><path d="M296.28,723.61q22.86-23.37,58.17-23.37,47.25,0,69.1,31.33,12.06,17.59,13,35.31H397q-3.76-13.62-9.68-20.54Q376.71,734,356,734q-21.13,0-33.33,17.4t-12.2,49.23q0,31.85,12.87,47.7T356,864.2q20.34,0,31-13.61,5.9-7.32,9.79-22h39.29q-5.08,30.95-26,50.33t-53.54,19.38q-40.39,0-63.51-26.19T270,800Q270,750.44,296.28,723.61Z"/><path d="M520.56,808q10.22-1.29,14.62-3.21,7.89-3.33,7.89-10.4,0-8.6-6.06-11.87t-17.76-3.28q-13.14,0-18.61,6.42-3.9,4.75-5.21,12.84h-35.3q1.15-18.36,10.31-30.17,14.58-18.48,50-18.49,23.09,0,41,9.12t17.92,34.41v64.19q0,6.68.26,16.18.38,7.18,2.18,9.75a13.1,13.1,0,0,0,5.39,4.24v5.39h-39.8a41,41,0,0,1-2.31-8c-.43-2.48-.77-5.31-1-8.47a75.67,75.67,0,0,1-17.56,14,53.05,53.05,0,0,1-26.86,6.81q-19.11,0-31.57-10.85t-12.47-30.75q0-25.8,20.05-37.36,11-6.3,32.34-9ZM542.94,825a41.15,41.15,0,0,1-7.1,3.53,60,60,0,0,1-9.82,2.5l-8.33,1.54q-11.72,2.05-16.82,5-8.64,5-8.65,15.53,0,9.38,5.28,13.55a20.09,20.09,0,0,0,12.85,4.17,38.23,38.23,0,0,0,22.09-6.93q10.11-6.93,10.5-25.29Z"/><path d="M689.11,749.87c.46,0,1.51.11,3.14.19v37.49q-3.46-.39-6.16-.52c-1.8-.08-3.26-.12-4.37-.12q-22.08,0-29.65,14.37-4.25,8.1-4.24,24.91v66.89H611V753.14H645.9v24.39q8.48-14,14.77-19.13,10.26-8.6,26.7-8.6A17.18,17.18,0,0,1,689.11,749.87Z"/><path d="M699.31,780.48V754.42h19.52v-39H755v39h22.73v26.06H755v74q0,8.59,2.18,10.72t13.36,2.11c1.11,0,2.28,0,3.53-.06s2.46-.1,3.66-.19v27.35l-17.34.64q-25.93.88-35.43-9-6.16-6.28-6.16-19.39V780.48Z"/><path d="M918,876q-17.72,21.87-53.79,21.87T810.37,876q-17.73-21.87-17.72-52.66,0-30.27,17.72-52.46t53.79-22.19q36.08,0,53.79,22.19t17.72,52.46Q935.67,854.1,918,876Zm-29.27-20.22q8.61-11.41,8.6-32.44t-8.6-32.37q-8.59-11.34-24.65-11.34t-24.71,11.34q-8.67,11.36-8.67,32.37t8.67,32.44Q848,867.16,864,867.15T888.68,855.74Z"/><path d="M1031.09,753q13.34,5.52,21.54,20.29V753.14h35.69V885.89q0,27.09-9.11,40.83-15.68,23.63-60.09,23.62-26.83,0-43.78-10.53T956.6,908.36h39.8q1.53,6.42,5,9.24,5.91,5,19.9,5,19.77,0,26.45-13.22,4.37-8.48,4.37-28.5v-9q-5.26,9-11.3,13.48-10.92,8.34-28.37,8.34-27,0-43.08-18.93T953.26,823.5q0-31.2,15.51-52.45t44-21.25A48.12,48.12,0,0,1,1031.09,753Zm12.46,100.34q8.82-9.71,8.82-30.88,0-19.9-8.37-30.3t-22.44-10.4q-19.17,0-26.46,18.1-3.84,9.63-3.84,23.75a54.32,54.32,0,0,0,4.09,21.7Q1002.76,863,1022,863A28.09,28.09,0,0,0,1043.55,853.35Z"/><path d="M1200.21,749.87c.47,0,1.52.11,3.15.19v37.49c-2.32-.26-4.37-.43-6.17-.52s-3.25-.12-4.36-.12q-22.08,0-29.66,14.37-4.23,8.1-4.24,24.91v66.89h-36.84V753.14H1157v24.39q8.48-14,14.76-19.13,10.27-8.6,26.71-8.6A17,17,0,0,1,1200.21,749.87Z"/><path d="M1280.22,808q10.21-1.29,14.62-3.21,7.89-3.33,7.89-10.4,0-8.6-6.06-11.87t-17.76-3.28q-13.14,0-18.61,6.42-3.9,4.75-5.2,12.84h-35.31q1.15-18.36,10.31-30.17,14.58-18.48,50-18.49,23.08,0,41,9.12t17.92,34.41v64.19q0,6.68.26,16.18.38,7.18,2.18,9.75a13.1,13.1,0,0,0,5.39,4.24v5.39h-39.8a41,41,0,0,1-2.31-8c-.43-2.48-.77-5.31-1-8.47a75.67,75.67,0,0,1-17.56,14,53,53,0,0,1-26.86,6.81q-19.11,0-31.57-10.85t-12.46-30.75q0-25.8,20-37.36,11-6.3,32.34-9ZM1302.6,825a41.15,41.15,0,0,1-7.1,3.53,59.72,59.72,0,0,1-9.82,2.5l-8.33,1.54q-11.71,2.05-16.82,5-8.64,5-8.64,15.53,0,9.38,5.28,13.55a20.06,20.06,0,0,0,12.84,4.17,38.23,38.23,0,0,0,22.09-6.93q10.11-6.93,10.5-25.29Z"/><path d="M1428.93,702.11c1.88.12,4.45.32,7.7.57v29.79c-2.05-.26-5.5-.45-10.33-.58s-8.18.94-10,3.21a11.65,11.65,0,0,0-2.76,7.51v11.81h24v25.81h-24V893.08h-36.33V780.23h-20.54V754.42h20v-9q0-22.47,7.57-30.94,8-12.59,38.39-12.59Q1426.11,701.91,1428.93,702.11Z"/><path d="M1496.21,736.45H1459.1V702.68h37.11Zm-37.11,16.69h37.11V893.08H1459.1Z"/><path d="M1587.07,808q10.22-1.29,14.61-3.21,7.89-3.33,7.89-10.4,0-8.6-6-11.87t-17.77-3.28q-13.14,0-18.61,6.42-3.9,4.75-5.2,12.84h-35.31q1.15-18.36,10.32-30.17,14.57-18.48,50-18.49,23.07,0,41,9.12t17.92,34.41v64.19q0,6.68.26,16.18c.26,4.79,1,8,2.18,9.75a13.13,13.13,0,0,0,5.4,4.24v5.39h-39.8a40.41,40.41,0,0,1-2.32-8c-.43-2.48-.77-5.31-1-8.47a75.72,75.72,0,0,1-17.57,14,53,53,0,0,1-26.86,6.81q-19.11,0-31.57-10.85t-12.46-30.75q0-25.8,20-37.36,11-6.3,32.33-9ZM1609.44,825a41.06,41.06,0,0,1-7.09,3.53,59.88,59.88,0,0,1-9.83,2.5l-8.33,1.54q-11.71,2.05-16.82,5-8.64,5-8.64,15.53,0,9.38,5.28,13.55a20.08,20.08,0,0,0,12.84,4.17,38.26,38.26,0,0,0,22.1-6.93q10.1-6.93,10.49-25.29Z"/><path d="M351.93,1072.55a45.68,45.68,0,0,1,16.53,15.93v-68.75h38.2v194.61H370v-20Q362,1207.21,351.67,1213T326,1218.83q-25.25,0-42.5-20.42T266.26,1146q0-36.88,17-58t45.41-21.15A46.52,46.52,0,0,1,351.93,1072.55Zm9.26,102.65q8.32-11.9,8.33-30.8,0-26.43-13.36-37.81a28.73,28.73,0,0,0-19-6.87q-16.53,0-24.26,12.49t-7.74,31q0,20,7.87,31.93t23.86,12Q352.85,1187.1,361.19,1175.2Z"/><path d="M498,1126.69q10.51-1.34,15-3.31,8.12-3.44,8.12-10.71,0-8.85-6.23-12.23t-18.29-3.37q-13.53,0-19.16,6.61-4,4.89-5.37,13.22H435.75q1.19-18.9,10.62-31.06,15-19,51.52-19,23.76,0,42.22,9.39t18.46,35.43v66.1q0,6.87.26,16.66.39,7.39,2.25,10a13.35,13.35,0,0,0,5.55,4.36v5.56h-41a41.61,41.61,0,0,1-2.38-8.2c-.44-2.56-.8-5.46-1.06-8.72a77.54,77.54,0,0,1-18.09,14.4,54.52,54.52,0,0,1-27.65,7q-19.7,0-32.52-11.17T431.12,1176q0-26.58,20.64-38.47,11.33-6.48,33.3-9.26Zm23,17.58a42.18,42.18,0,0,1-7.31,3.64,62,62,0,0,1-10.11,2.57l-8.58,1.59q-12.06,2.12-17.32,5.15-8.9,5.16-8.9,16,0,9.66,5.44,14a20.61,20.61,0,0,0,13.22,4.29,39.35,39.35,0,0,0,22.75-7.13q10.41-7.14,10.81-26Z"/><path d="M688.36,1039.83q23.55-24.06,59.9-24.06,48.66,0,71.15,32.26,12.44,18.1,13.34,36.35H792q-3.88-14-10-21.15-10.87-12.69-32.24-12.69-21.77,0-34.33,17.91t-12.56,50.7q0,32.79,13.26,49.11t33.68,16.33q21,0,32-14Q787.9,1163,791.9,1148h40.46q-5.24,31.86-26.75,51.83t-55.12,20q-41.6,0-65.4-27t-23.8-74.3Q661.29,1067.46,688.36,1039.83Z"/><path d="M899.78,1070.23v86.86q0,12.3,2.9,18.51,5.13,11,20.12,11,19.2,0,26.31-15.6,3.69-8.45,3.68-22.34v-78.4H991v144.11H954.38V1194q-.52.66-2.63,4a26.48,26.48,0,0,1-5,5.82q-8.84,7.93-17.08,10.84a58,58,0,0,1-19.31,2.91q-31.9,0-43-23-6.2-12.71-6.19-37.42v-86.86Z"/><path d="M1066.09,1214.34h-37.67V1019.47h37.67Z"/><path d="M1088,1098.39v-26.83h20.09v-40.19h37.28v40.19h23.4v26.83h-23.4v76.15q0,8.87,2.25,11t13.75,2.18c1.15,0,2.36,0,3.64-.06s2.53-.11,3.76-.2v28.16l-17.84.66q-26.71.93-36.49-9.25-6.35-6.48-6.35-20v-88.71Z"/><path d="M1230.55,1070.23v86.86q0,12.3,2.9,18.51,5.13,11,20.12,11,19.22,0,26.31-15.6,3.69-8.45,3.69-22.34v-78.4h38.2v144.11h-36.62V1194q-.53.66-2.63,4a26.48,26.48,0,0,1-5,5.82q-8.84,7.93-17.08,10.84a58,58,0,0,1-19.31,2.91q-31.9,0-43-23-6.2-12.71-6.19-37.42v-86.86Z"/><path d="M1438.44,1066.86c.49.05,1.57.12,3.24.2v38.61c-2.38-.27-4.49-.44-6.34-.53s-3.36-.13-4.5-.13q-22.74,0-30.54,14.8-4.36,8.32-4.36,25.65v68.88H1358V1070.23h36v25.12q8.71-14.4,15.2-19.69,10.58-8.87,27.5-8.86C1437.36,1066.8,1438,1066.82,1438.44,1066.86Z"/><path d="M1520.83,1126.69q10.53-1.34,15.05-3.31,8.13-3.44,8.13-10.71,0-8.85-6.24-12.23t-18.29-3.37q-13.53,0-19.16,6.61-4,4.89-5.36,13.22H1458.6q1.2-18.9,10.63-31.06,15-19,51.51-19,23.77,0,42.23,9.39t18.45,35.43v66.1q0,6.87.26,16.66.4,7.39,2.25,10a13.48,13.48,0,0,0,5.55,4.36v5.56h-41a42.3,42.3,0,0,1-2.38-8.2c-.44-2.56-.79-5.46-1.06-8.72a77.7,77.7,0,0,1-18.08,14.4,54.58,54.58,0,0,1-27.66,7q-19.68,0-32.51-11.17T1454,1176q0-26.58,20.64-38.47,11.33-6.48,33.3-9.26Zm23,17.58a42.09,42.09,0,0,1-7.3,3.64,62.17,62.17,0,0,1-10.12,2.57l-8.58,1.59q-12.06,2.12-17.31,5.15-8.91,5.16-8.91,16,0,9.66,5.44,14a20.61,20.61,0,0,0,13.22,4.29,39.38,39.38,0,0,0,22.76-7.13q10.4-7.14,10.8-26Z"/><path d="M1613.68,1174.81h40.06v39.53h-40.06Z"/></svg>