<svg id="Camada_1" data-name="Camada 1" xmlns="http://www.w3.org/2000/svg" viewBox="0 0 1080 318"><defs><style>.cls-1{fill:#fff;}</style></defs><g id="NspH8j"><path d="M896.08,169.65V110.8H918V268.56H896.2V255.93a11.31,11.31,0,0,0-1.94,1.44c-9.51,13.39-22.84,15.69-37.69,12.45-14.54-3.18-22.75-13.15-26.14-27.07a77.65,77.65,0,0,1-2.2-18.65c.1-13.11-.13-26.36,1.73-39.27,2.92-20.22,17.54-31.46,38-30.77A33.55,33.55,0,0,1,891.74,165C892.88,166.19,894,167.41,896.08,169.65Zm0,42.79H896c0-6,.27-12-.06-18-.47-8.4-4-15.35-12.19-18.46-13.76-5.2-31.55-.8-33.19,20.32a243.6,243.6,0,0,0,0,33.09c.85,14.32,10.21,22,24.69,21.41,13.25-.56,20.73-8.92,20.8-23.25C896.09,222.5,896.07,217.47,896.07,212.44Z"/><path d="M155.91,221.21c-.38,21.67,15.63,31,34,28.08a38.12,38.12,0,0,0,19.28-9.37l14.12,14.77c-5.55,5.64-13,9.84-21.1,12.95a58.84,58.84,0,0,1-33.55,2.3,41,41,0,0,1-27.56-21,51,51,0,0,1-6.14-22c-.57-14.92-1.75-29.94,3.66-44.36,6-16,17.67-25.09,34.52-27.48,14-2,27.15-.18,37.89,10.08,7.77,7.42,12.08,16.84,13.89,27.18,1.43,8.21,1.57,16.65,2.41,25,.33,3.26-1.07,4-4.09,4-20.73-.1-41.45-.05-62.18,0ZM206,203.42c-.93-11-3.28-21.13-13.51-26.64-8.87-4.77-18-3.46-26.09,2.35s-10.31,14.6-10.59,24.29Z"/><path d="M666.72,221.24H595c.16,10.38,2.77,19.37,11.86,24.31C622,253.76,636,250,649,239.72l14.39,14.88c-4.37,3-8.7,6.44-13.43,9.16-9.47,5.44-19.86,6.5-30.68,7.05-11.91.61-21.18-4.07-29.81-10.95-8.22-6.56-12.75-15.61-14.16-25.87-2.28-16.67-3.14-33.44,2.12-49.78,5.5-17.1,17.59-26.74,35.33-29.19,14.18-2,27.43,0,38.1,10.61,8.92,8.87,12.86,20.19,14.48,32.28C666.29,205.34,666.25,212.9,666.72,221.24Zm-71.52-18h50c-.69-16.13-8.34-28.76-23.44-29.19C606.15,173.67,595.63,185.06,595.2,203.29Z"/><path d="M423.21,268.65c-1.6.09-2.82.23-4,.23-5.44,0-10.87,0-16.56,0-.28-2.63-.51-4.88-.8-7.55-14.42,11.91-30.46,10.77-46.56,6.9-12.43-3-20.4-11.21-21.76-24.16-.71-6.82-.71-14.12.95-20.7,3.18-12.66,13.62-19.89,28.42-20.57,11.6-.53,23.23-.37,34.85-.27,3.43,0,4.6-.92,4.56-4.46-.21-17.73-11.69-27.35-29.35-23.76-5.66,1.15-11,3.93-16.48,5.86-1.13.39-2.79.84-3.61.32-4.83-3-9.48-6.37-14.44-9.77,4.43-5.9,10.16-9.5,16.59-11.95,15.51-5.91,31.2-6.48,46.59.12,14.84,6.37,21.13,19,21.49,34.18C423.63,218.08,423.21,243.11,423.21,268.65ZM402,220.08c-3.87,0-7.21,0-10.55,0-8.65.11-17.34-.23-25.94.55-7.23.65-11.24,5.36-11.92,11.94-.95,9.12,1.88,15.3,9,17.82a47.41,47.41,0,0,0,33.55-.73c2.47-.95,5.31-4.4,5.58-6.95C402.47,235.44,402,228,402,220.08Z"/><path d="M971.94,180.84l-14.85-10.18a36.91,36.91,0,0,1,16.36-11.74c16.84-6.4,33.74-6.9,50,1.51,12.15,6.28,17.9,17.59,18.24,30.65.68,25.69.2,51.42.2,77.47h-20.61c-.16-2.33-.31-4.49-.44-6.4-4.79,2.31-9.26,5.44-14.2,6.67-13.35,3.32-26.7,2.82-39.35-3.15a25.2,25.2,0,0,1-15-21.3c-.63-6.72-.78-13.83.72-20.33,3-12.88,13.47-20.48,28.36-21.2,11.6-.56,23.25-.45,34.87-.27,4,.06,4.93-1.29,4.85-5-.37-17.44-12.34-27-29.93-23.11C985,175.78,979.07,178.41,971.94,180.84Zm49,39.24h-6.76c-9,0-17.9-.14-26.84.06-8.51.2-13.82,4.58-15,11.85-1.46,9.26,1.86,16.13,10,18.78,10.81,3.52,21.76,2.87,32.46-.88,3.52-1.24,5.93-3.94,6-7.82C1021.09,235,1021,227.88,1021,220.08Z"/><path d="M792.55,268.68H770.71V264c0-20.83,0-41.67-.06-62.5a39.2,39.2,0,0,0-1.24-10.77c-3.45-11.7-14.06-17.17-28.24-15-10.73,1.66-17.09,9.57-17.11,21.43q0,33.14,0,66.28v5.19h-22V156.06H724v15l3.75-4.27c10.24-11.63,23.14-14.57,37.72-11,13.23,3.21,21.15,12.23,24.66,24.94a74.26,74.26,0,0,1,2.62,18.58c.3,21.95.11,43.91.09,65.86C792.86,266.2,792.68,267.29,792.55,268.68Z"/><path d="M485.54,248.56H542.4v20.08H458.79c.34-9-1.85-17.59,5-26,16.57-20.38,32.08-41.62,48-62.51.74-1,1.38-2,2.44-3.54h-54v-20.5c1.36-.1,2.57-.27,3.78-.27,23.94,0,47.88.05,71.82-.09,3.39,0,4,1.1,4.27,4.26,1,10-1.89,18-8.21,26-15,19-28.93,38.73-43.3,58.18C487.69,245.4,486.89,246.62,485.54,248.56Z"/><path d="M254.11,155.76h11.1c.36-7.44.32-14.55,1.11-21.57,1.69-15.06,9.06-22.3,24-23.54,6.38-.53,12.83-.09,20-.09,0,6.55.1,12.91-.13,19.26,0,.68-1.89,1.77-2.95,1.83-3.91.22-7.84,0-11.76.1-4.79.06-7.12,1.91-7.4,6.68-.33,5.55-.08,11.13-.08,17.23h22.07v19.11H288v93.85H265.71V175h-11.6Z"/><path d="M62.83,170.51C70.32,160.18,80.09,154,93,154.34c8.61.25,16.89,2.2,23.69,8.88l-14.18,19.16a24.58,24.58,0,0,0-17.95-7c-14.28.11-22.49,8-22.54,22.31-.07,21.81,0,43.62,0,65.43v5.38H40.3V156.06H61.75v13.75Z"/><path d="M75.79,71.29c.72,5.78,1,11.37,2.2,16.77A57.91,57.91,0,0,0,82.64,101a13.43,13.43,0,0,0,5.3,5.13c3.33,2,6.78.64,7.56-3.11C97,95.91,98,88.72,98.77,81.52c.12-1.1-1.64-3-3-3.56-2.5-1.17-5.34-1.6-8-2.53-1.83-.65-3.38-1.73-1.85-4,1.32-2,1.19-5.67,5.23-4.5L97,68.57c1.51-4.42,2.89-8.49,4.28-12.56l1.66.26c.29,3.19.9,6.39.78,9.57s1.42,4.22,4.22,4.11c9.09-.35,18.19-.7,27.27-1.12,7.8-.37,15.6-.83,23.38-1.24.47,5.72-2.27,9.06-7.22,9.12-5.26.07-10.53,0-16.61,0,5.47,10.32,3.11,19-1,27.58a5.67,5.67,0,0,0,.37,4.72c3.35,5.19,8.53,7.89,14.34,9.55l4.29,1.24c-1.58,8.07-3.7,9.3-11,6.9a23.41,23.41,0,0,1-13.34-10.27c-1.38-2.3-2.62-3.23-5.64-2.5-6.57,1.58-11.43-1.87-15-6.93-2.46-3.46-4.2-7.43-6.34-11.32-2.12,4.45-4,8.89-6.31,13.06-1.9,3.41-4.21,7.09-8.75,6.91-4.89-.19-7.76-3.77-9.48-7.89-1.93-4.58-3.25-9.4-5-14.69-.6,1.26-1,2.31-1.57,3.28-4.1,7.11-8.08,14.29-12.41,21.26-1.28,2.07-3.43,3.68-5.4,5.22-2.73,2.14-5.9,3.67-9.34,2.08-3.66-1.7-5.21-5.18-5.12-9a33.78,33.78,0,0,1,1.67-9.83A63.65,63.65,0,0,1,60.08,76.5C65.57,72,69.87,70.77,75.79,71.29Zm-4.28,8.57a30.34,30.34,0,0,0-3.66-.16c-10.61,1-25,16.55-25.19,27.21-.06,3.81,1,7.34,4.66,9.21s6.82,0,9.5-2.43C66.77,104.81,69.31,92.74,71.51,79.86Zm33.56-1.27c.82,11.55,9.21,27.05,18,26.16-1.63-9.21-.94-18.15,4.69-26.16Zm22.15,6.92c-.27,6.53.41,12.14,3.67,17.72C134.82,97.08,133.24,88.76,127.22,85.51Z"/><path d="M192.12,94.6c.68,2.51,1.29,5,2,7.51,1.55,5,3.48,10,8.2,12.75a11.87,11.87,0,0,0,7.06,1.14c2.25-.28,3.72-1.68,2.74-4.83-2.41-7.72-1.51-15.24,3.23-22,.87-1.24,2.83-3,3.7-2.67a6.53,6.53,0,0,1,3.41,3.75c1.89,5.32.51,10.56-1.6,15.47-1.19,2.77-.66,4.63,1.1,6.78,6.63,8.08,15.34,11.3,25.55,11-.48,6.37-3.29,9-9.29,8.62a28.22,28.22,0,0,1-20.64-10.67c-1-1.17-1.87-2.39-2.91-3.72-4.61,3.82-8.78,10.52-15.3,6.57-4.73-2.87-7.72-8.58-11.38-12.89-1.52,2.57-3.35,6.14-5.62,9.42-2.95,4.25-6.55,8.18-12.4,6.77-6.62-1.6-10.13-6.69-12-12.87-.71-2.37-.54-5-1-7.45-.29-1.67-1.1-3.26-1.37-4.93a10,10,0,0,1,0-4.36,89.26,89.26,0,0,1,4-11.31,185.46,185.46,0,0,1,9.33-18.59c1-1.72,4.59-3.29,6.49-2.84,3.22.77,2.53,4.38,2,6.85A49.2,49.2,0,0,1,165,95.49c-3,3.21-3.52,6.22-2.37,10.2,1.42,4.92,3.85,9,8.27,11.66,5.4,3.31,11.07,1.75,13.54-4.09,1.34-3.17,1.68-6.75,2.78-10.05,1-3,2.43-5.95,3.68-8.92Zm-30.33-2.74,1.49.74a28.14,28.14,0,0,0,9.38-12.27c.9-2.45,1.33-5.35-1.57-6.61-3.16-1.37-4.75,1.45-5.5,3.72C164,82.15,163,87,161.79,91.86Z"/><path d="M204.94,70c2.13-2.54,4.07-5.26,6.41-7.58,4.66-4.62,9.57-9,14.32-13.52,3.28-3.13,4.32-3.16,5.86,1,2.92,7.84,5.38,15.86,8.17,23.75a112.33,112.33,0,0,0,4.43,10.86c6.07,12.79,13.95,16.71,27.67,14-.46,5.91-3.5,9.29-9.1,9.92-9,1-16.52-2.38-20.39-10.28-4.83-9.85-8.18-20.42-12.13-30.68-1.57-4.09-3.06-8.21-4.72-12.69L206.6,71.58Z"/><path d="M192.12,73.23c3.55,3.37,1.19,10.18-4.27,12.24C186.81,80.36,189.34,76.85,192.12,73.23Z"/><path class="cls-1" d="M206,203.42H155.85c.28-9.69,2.45-18.43,10.59-24.29s17.22-7.12,26.09-2.35C202.76,182.29,205.11,192.37,206,203.42Z"/><path class="cls-1" d="M402,220.08c0,7.95.49,15.36-.26,22.64-.27,2.55-3.11,6-5.58,6.95a47.41,47.41,0,0,1-33.55.73c-7.14-2.52-10-8.7-9-17.82.68-6.58,4.69-11.29,11.92-11.94,8.6-.78,17.29-.44,25.94-.55C394.77,220,398.11,220.08,402,220.08Z"/><path class="cls-1" d="M105.07,78.59h22.64c-5.63,8-6.32,17-4.69,26.16C114.28,105.64,105.89,90.14,105.07,78.59Z"/></g></svg>