<svg id="Camada_1" data-name="Camada 1" xmlns="http://www.w3.org/2000/svg" viewBox="0 0 1920 1920"><path d="M510.93,940.55c12.38,15.73,25.93,29.15,34.92,45.12,23.59,41.95,13.59,90.4-22.78,122.13-23.73,20.7-50.85,32-82.63,32q-75.15-.15-150.3.31c-9.35.05-12.52-3.68-12.5-12.94q.33-162.2,0-324.39c0-9.83,3.37-12.1,12.53-12,41.44.44,82.9,0,124.34.38,27.7.26,54.42,5,78.78,19.45,48,28.55,57.56,78.08,23.44,122.23C514.32,935.89,512.06,939,510.93,940.55Z"/><path d="M903.6,1133.83c-24.45,0-49.18-2.29-73.28.62-26,3.15-42.91-6.42-59.22-25.46-24.1-28.13-50.8-54-76.42-80.89-1.68-1.77-3.57-3.34-7.13-6.64,0,13.3,0,24.61,0,35.91,0,22-.16,44,.16,65.94.1,7.1-1.65,10.26-9.58,10.29-30.25.12-60.49.87-90.74,1.45-11.21.22-12.39-6.71-12.35-15.71q.66-137.8.94-275.63c0-15.05,0-30.09,0-46.73h17.12c55.5,0,111-.2,166.48.07,41.53.2,79.88,27.26,96.09,67,15.68,38.49,6.24,85.06-23.79,113.61-8.52,8.1-18.6,14.57-29,22.59L905.79,1131Z"/><path d="M1072.72,794.38l156.61,343.27c-13.77-2.14-24.61-3.58-35.36-5.54-32.22-5.87-64.54-11.36-96.58-18.13-26.39-5.57-51.53,1.11-77,5.38-34.72,5.82-69.39,12-107.82,18.61l157-343.33Z"/><path d="M1326.5,1136.29C1379,1021.63,1431,908,1484.36,791.45c53.13,116.32,105,229.95,158,346-24.21-4.1-45.7-7.69-67.17-11.4-26.56-4.59-53-11.45-79.72-13.2-19.66-1.28-39.85,3.54-59.65,6.61-34.46,5.33-68.79,11.42-103.19,17.13C1331.33,1136.85,1329.91,1136.5,1326.5,1136.29Z"/><path d="M1121.66,779.9c9.94,1.15,17.71,1.66,25.33,3,41.43,7.27,82.64,16.2,124.31,21.45,16.87,2.13,34.82-3,52.11-5.88,33.35-5.52,66.57-11.79,99.85-17.68,2.41-.43,4.91-.31,10.3-.6-52.11,113.77-103.48,225.9-156.24,341.08C1225,1006.44,1173.79,894.21,1121.66,779.9Z"/></svg>