<svg id="Camada_1" data-name="Camada 1" xmlns="http://www.w3.org/2000/svg" viewBox="0 0 1080 1080"><defs><style>.cls-1{fill:#f6b744;}.cls-2{fill:#0f0f0f;}.cls-3{fill:#f8f3ec;}</style></defs><path class="cls-1" d="M551,484a108.45,108.45,0,0,1,94,54.25,108.5,108.5,0,1,0-188,0A108.45,108.45,0,0,1,551,484Z"/><path class="cls-2" d="M551,592.52a108.46,108.46,0,0,1-94-54.24,108.5,108.5,0,1,0,188,0A108.46,108.46,0,0,1,551,592.52Z"/><ellipse class="cls-3" cx="551" cy="538.28" rx="95.8" ry="55.3"/><path class="cls-2" d="M501,546.82a13.18,13.18,0,0,1-4.76,1,11.54,11.54,0,0,1-8.2-3.18,11.12,11.12,0,0,1-3.21-7.73A11.11,11.11,0,0,1,496,525.84a13.17,13.17,0,0,1,5,1.08v6.58a5.92,5.92,0,0,0-4.8-2.32,5.37,5.37,0,0,0-3.81,1.4,5.93,5.93,0,0,0-1.84,4.35,5.85,5.85,0,0,0,1.71,4.13,5.92,5.92,0,0,0,3.94,1.47,6.23,6.23,0,0,0,4.8-2.23Z"/><path class="cls-2" d="M510,526.19v12.55A4.3,4.3,0,0,0,511,542a4,4,0,0,0,2.6,1,4,4,0,0,0,2.55-.92,4.64,4.64,0,0,0,1.24-3.84V526.19h5.49v12.17c0,2.23-.09,4.55-2.38,6.87a9.15,9.15,0,0,1-7,2.64c-3.34,0-5.72-1.15-7-2.55-1.84-2-2.06-4.7-2.06-7V526.19Z"/><path class="cls-2" d="M532.87,526.19v16.53h6.61v4.67H527.37v-21.2Z"/><path class="cls-2" d="M548.35,530.86v16.53h-5.5V530.86h-4.51v-4.67h14.52v4.67Z"/><path class="cls-2" d="M560.81,526.19v12.55a4.3,4.3,0,0,0,1.08,3.28,3.92,3.92,0,0,0,5.15.09,4.64,4.64,0,0,0,1.24-3.84V526.19h5.5v12.17c0,2.23-.1,4.55-2.39,6.87a9.15,9.15,0,0,1-7,2.64c-3.34,0-5.72-1.15-7-2.55-1.85-2-2.07-4.7-2.07-7V526.19Z"/><path class="cls-2" d="M586.81,526.19a6.85,6.85,0,0,1,5.18,1.87,7,7,0,0,1,1.81,4.77,6.16,6.16,0,0,1-1.68,4.42,6,6,0,0,1-2.93,1.46l6.64,8.68H589l-5.28-8.14v8.14h-5.49v-21.2Zm-3.09,9.5h1a4.09,4.09,0,0,0,2.67-.86,2.6,2.6,0,0,0,.7-1.78,2.5,2.5,0,0,0-.73-1.78,3.78,3.78,0,0,0-2.64-.82h-1Z"/><path class="cls-2" d="M611.09,543.83H603.4L602,547.39h-5.82l8.14-21.2h6l8,21.2h-5.88Zm-1.46-4.2-2.39-6.86-2.32,6.86Z"/><path class="cls-2" d="M513.14,455.16a13.11,13.11,0,0,1-4.82,1.06A11.66,11.66,0,0,1,500,453a11.25,11.25,0,0,1-3.24-7.81A11.23,11.23,0,0,1,508.12,434a13.35,13.35,0,0,1,5,1.09v6.65a6,6,0,0,0-4.85-2.34,5.44,5.44,0,0,0-3.86,1.41,6,6,0,0,0-1.87,4.41,5.89,5.89,0,0,0,1.74,4.17,6,6,0,0,0,4,1.48,6.27,6.27,0,0,0,4.85-2.25Z"/><path class="cls-2" d="M522.24,434.3v21.44h-5.57V434.3Z"/><path class="cls-2" d="M526.73,455.74V434.3H534c2.16,0,5.76.29,8.52,3a10.45,10.45,0,0,1,3,7.81,9.93,9.93,0,0,1-2.79,7.43,11.69,11.69,0,0,1-8.24,3.24ZM532.3,451h1.12a6.41,6.41,0,0,0,4.7-1.55,5.85,5.85,0,0,0,1.63-4.4,6.4,6.4,0,0,0-1.67-4.69,6.21,6.21,0,0,0-4.43-1.36H532.3Z"/><path class="cls-2" d="M561,452.14h-7.78l-1.45,3.6h-5.88l8.23-21.44h6.08l8.07,21.44h-6Zm-1.48-4.24L557.08,441l-2.35,6.95Z"/><path class="cls-2" d="M570.71,455.74V434.3H578c2.15,0,5.75.29,8.52,3a10.45,10.45,0,0,1,3,7.81,9.9,9.9,0,0,1-2.8,7.43,11.66,11.66,0,0,1-8.23,3.24Zm5.56-4.72h1.13a6.38,6.38,0,0,0,4.69-1.55,5.81,5.81,0,0,0,1.64-4.4,6.4,6.4,0,0,0-1.67-4.69,6.23,6.23,0,0,0-4.44-1.36h-1.35Z"/><path class="cls-2" d="M605.24,439h-6.63v3.57h6.27v4.73h-6.27V451h6.63v4.72H593.05V434.3h12.19Z"/><path class="cls-3" d="M529.82,641H522l-1.45,3.6h-5.88l8.23-21.45H529l8.07,21.45h-6Zm-1.48-4.25-2.41-6.94-2.35,6.94Z"/><path class="cls-3" d="M548.24,623.15a6.92,6.92,0,0,1,5.24,1.9,7.08,7.08,0,0,1,1.83,4.82,6.18,6.18,0,0,1-1.7,4.47,5.94,5.94,0,0,1-3,1.48l6.72,8.78h-6.91l-5.34-8.23v8.23h-5.56V623.15Zm-3.12,9.62h1.06a4.18,4.18,0,0,0,2.7-.87,2.68,2.68,0,0,0,.71-1.8,2.54,2.54,0,0,0-.74-1.8,3.75,3.75,0,0,0-2.67-.84h-1.06Z"/><path class="cls-3" d="M567,627.88V644.6h-5.56V627.88h-4.56v-4.73h14.69v4.73Z"/><path class="cls-3" d="M586.24,627.88h-6.63v3.57h6.27v4.73h-6.27v3.69h6.63v4.73H574.05V623.15h12.19Z"/><path d="M724.46,247c-6.37.57-12.21,1.06-18.05,1.63-1.6.16-1.93,1.28-1.58,2.68,1.15,4.59,2.32,9.17,3.45,13.77.39,1.6.69,3.22,1.07,4.82s-.4,2.08-1.74,2.34a29.64,29.64,0,0,0-3.71.94c-2.23.76-3.17.37-3.38-2-.31-3.57-.17-7.18-.57-10.74a35.22,35.22,0,0,0-1.86-7.69c-.2-.57-2.09-1.11-2.86-.81-5.23,2.11-10.38,4.4-15.52,6.73-2.06.93-3.15.44-3.28-1.86-.33-5.87-.48-11.75-.93-17.6A112.14,112.14,0,0,0,673.92,228c-.29-1.59,0-2.27,1.6-2.85,8.11-3,16.17-6.09,24.22-9.23,3.72-1.45,7.39-3,11-4.67a9.49,9.49,0,0,0,2.21-1.83c.31-.28.45-.89.78-1,4-1.09,5-4.88,7.21-7.65,2.56-3.27,5.15-6.51,7.69-9.79,3.31-4.29,6.55-8.63,9.89-12.89.53-.68,1.47-1.53,2.16-1.48,1.34.1,1.74,1.31,1.55,2.6-.54,3.63.71,6.87,1.86,10.23,1.54,4.45,2.45,9.12,3.76,13.65,1.89,6.53,3.94,13,5.84,19.55,1.18,4,2.21,8.14,3.33,12.21.56,2.06,1.16,4.12,1.74,6.18s1.08,4,1.76,6c.49,1.41,1.3,2.7,1.79,4.1a3.72,3.72,0,0,1,.14,2.55c-.25.49-1.44.72-2.2.7-8.6-.2-16.71-3-25-4.77C731.48,248.76,727.76,247.75,724.46,247Z"/><path d="M781.4,172.66a3,3,0,0,1-.42.06c-1,0-2.42.39-2.4-1.2,0-.4,1.5-1.15,2.28-1.12,6,.24,10.58,3.52,14.85,7.39,5.29,4.77,7.53,11.21,9.92,17.6.45,1.21.93,2.4,1.4,3.61a15.39,15.39,0,0,1,1,8.8,23.53,23.53,0,0,0-.65,6.61c.42,4.77-1.06,9.21-1.88,13.76a4.86,4.86,0,0,1-1.2,2.09c-.15.17-1.24-.1-1.27-.28a5.09,5.09,0,0,1,0-2.42c2.65-8.54,3.91-17.41,2.12-26.06-2-9.75-6.21-18.84-14.67-25C787.85,174.56,785.11,172.31,781.4,172.66Z"/><path d="M785.59,211.37c.55,5-2.16,10.23-3.38,15.73a2.1,2.1,0,0,1-.54,1.15,9.88,9.88,0,0,1-1.71.89c-.28-.6-.89-1.27-.79-1.79a20.15,20.15,0,0,1,1.23-3.17c4-10.69,3.67-21.35-1.25-31.54-2.51-5.2-6.52-9.34-13.27-8.87-.66,0-1.39-.8-2.09-1.23.68-.37,1.37-1,2.06-1.06,6.84-.12,11.7,3.3,15.09,9C783.55,194.78,786,205.71,785.59,211.37Z"/><path d="M770.39,214.88c-.43,3.56-.8,6.4-1.12,9.25a15.13,15.13,0,0,1-.12,2.54,10.17,10.17,0,0,1-1.37,2.22c-.45-.76-1.31-1.56-1.25-2.29a45.83,45.83,0,0,1,1.06-5.21c1.17-6.06.53-11.88-2.76-17.18-1.6-2.57-3.57-4.82-7-5-.68,0-1.89-1-1.86-1.46.12-1.46,1.36-1.12,2.34-.87,5.87,1.46,9.2,5.52,10.84,11.05A59.69,59.69,0,0,1,770.39,214.88Z"/><path d="M685.86,312.8h1.81v1.25h-6.4V312.8h2.81l-2.17-5.37h-8.57l-2.2,5.37H674v1.25h-6.29V312.8h1.81l7.15-17.31h2.09Zm-4.59-6.57-3.65-9.46L674,306.23Z"/><path d="M691.61,310.49c0,1.36.06,1.72.36,2.14a1.64,1.64,0,0,0,1.34.64,1.58,1.58,0,0,0,1.56-1.14,5.61,5.61,0,0,0,.22-1.64h1.22a4.89,4.89,0,0,1-.44,2.47,2.83,2.83,0,0,1-2.67,1.48c-2.12,0-3.09-1.25-3.09-3.95v-8.21h-2.67v-1.14h2.67v-3l1.5-.56v3.56h4.31v1.14h-4.31Z"/><path d="M701.71,312.91h2.22v1.14h-6.14v-1.14h2.42V302.28h-2.42v-1.14h3.92Zm0-16.86v2h-2v-2Z"/><path d="M710.16,308.85a34.71,34.71,0,0,1,1.56,4.31c.28-.81.36-1.12.58-1.7a5.19,5.19,0,0,1,.2-.5c.31-.72.58-1.42.86-2.11l2.7-6.57H713.7v-1.14h5.36v1.14h-1.5l-4.87,11.77h-2l-4.87-11.77h-1.61v-1.14h5.56v1.14h-2.36Z"/><path d="M724.4,312.91h2.23v1.14h-6.15v-1.14h2.42V302.28h-2.42v-1.14h3.92Zm0-16.86v2h-1.94v-2Z"/><path d="M737.45,301.14h1.22v4.2h-1.22c0-2.2-1.34-3.39-3.9-3.39-2.14,0-3.53,1-3.53,2.5,0,1.23.83,1.92,2.73,2.17l1.69.25c1.89.28,2.73.56,3.48,1.23a3.19,3.19,0,0,1,1,2.39c0,2.39-2,3.95-5,3.95-2.23,0-3.51-.7-4.37-2.34v1.95h-1.23V309.6h1.23c.14,2.28,1.67,3.67,4.12,3.67,2.19,0,3.72-1.06,3.72-2.59a2.15,2.15,0,0,0-.8-1.69,4.63,4.63,0,0,0-2.28-.7l-1.7-.22a5.52,5.52,0,0,1-3.12-1.11,3.11,3.11,0,0,1-1-2.37c0-2.28,2-3.84,4.93-3.84a4.2,4.2,0,0,1,4.06,2.06Z"/><path d="M744.51,303.64a4.53,4.53,0,0,1,4.53-2.89c2.23,0,3.59.95,4.12,2.89a3.1,3.1,0,0,1,.78-1.61,5.15,5.15,0,0,1,6.76,0,4.44,4.44,0,0,1,1.08,3.45v7.46h2.4v1.14H758v-1.14h2.33v-7.07c0-2.58-1.11-3.92-3.31-3.92a3.71,3.71,0,0,0-2.92,1.31,4.36,4.36,0,0,0-.89,3.22v6.46h2.34v1.14h-6.15v-1.14h2.31V306c0-1.67-.14-2.31-.67-3a3,3,0,0,0-2.47-1.08,3.76,3.76,0,0,0-3.26,1.72,5,5,0,0,0-.75,3.09v6.18h2.42v1.14h-6.34v-1.14H743V302.28h-2.42v-1.14h3.92Z"/><path d="M778.5,307.57c0,4.17-2.53,6.87-6.43,6.87s-6.51-2.73-6.51-7.1a6.2,6.2,0,0,1,6.51-6.59C776,300.75,778.5,303.37,778.5,307.57Zm-11.38-.17c0,3.62,1.87,5.87,4.87,5.87s5-2.14,5-5.59-1.86-5.76-4.84-5.76S767.12,304.15,767.12,307.4Z"/><path d="M694.51,340.08c0,2.31-.31,3.56-1.23,4.87a6.47,6.47,0,0,1-5.73,2.72,6.87,6.87,0,0,1-5.62-2.5,7.28,7.28,0,0,1-1.33-4.78V330.12h-2.53v-1.25h7.14v1.25h-3V340.5a6.15,6.15,0,0,0,1,3.78,5.22,5.22,0,0,0,4.43,2.11c3.47,0,5.42-2.22,5.42-6.17v-10.1h-3v-1.25h7v1.25h-2.53Z"/><path d="M701.49,337.16a4,4,0,0,1,4.17-3,2.83,2.83,0,0,1,1.08.19v1.34a1.33,1.33,0,0,0-1-.37,4.7,4.7,0,0,0-2.89,1,5.15,5.15,0,0,0-1.33,3.86v6.12h2.86v1.14h-6.79v-1.14H700V335.66h-2.42v-1.14h3.93Z"/><path d="M711.05,337.21a5,5,0,0,1,5-3.08c3.79,0,6,2.53,6,6.81s-2.23,6.87-6.06,6.87a4.86,4.86,0,0,1-4.93-3.2v2.81h-3.92v-1.14h2.42V330h-2.42v-1.14h3.92Zm1-.08a6.12,6.12,0,0,0-1,3.73c0,2.09.37,3.34,1.28,4.37a4.28,4.28,0,0,0,3.37,1.41c3,0,4.81-2.17,4.81-5.64s-1.86-5.71-4.75-5.71A4.41,4.41,0,0,0,712,337.13Z"/><path d="M724.85,338.13c.3-2.7,2.08-4,5.48-4a5.39,5.39,0,0,1,4.14,1.39c.78.83,1,1.72,1,3.61v7.15h2.2v1.14H734v-2.81c-.81,2.2-2.39,3.2-5,3.2-2.92,0-4.67-1.47-4.67-3.95a3.72,3.72,0,0,1,2.17-3.5,11.66,11.66,0,0,1,4.78-.7c.45,0,1.06,0,2.7.09v-.67c0-1.64-.17-2.28-.86-2.89a3.91,3.91,0,0,0-2.87-.9c-2.36,0-3.56.9-3.84,2.84Zm6.92,2.62c-2.39,0-3.78.22-4.61.78a2.62,2.62,0,0,0-1.23,2.3c0,1.79,1.25,2.81,3.4,2.81a4.31,4.31,0,0,0,3.5-1.44,4,4,0,0,0,.89-1.73c0-.14.11-.8.22-2,0-.14,0-.33.06-.58A19.82,19.82,0,0,0,731.77,340.75Z"/><path d="M742.67,337a4.43,4.43,0,0,1,4.54-2.86c3,0,4.64,1.5,4.64,4.25v7.9h2.4v1.14h-6.32v-1.14h2.42V338.8c0-2.28-1.25-3.51-3.59-3.51-2.53,0-4.09,1.73-4.09,4.51v6.48h2.42v1.14h-6.34v-1.14h2.42V335.66h-2.42v-1.14h3.92Z"/><path d="M768.57,340.94c0,4.18-2.53,6.87-6.43,6.87s-6.51-2.72-6.51-7.09a6.2,6.2,0,0,1,6.51-6.59C766.09,334.13,768.57,336.74,768.57,340.94Zm-11.38-.16c0,3.61,1.87,5.86,4.87,5.86s5-2.14,5-5.59-1.86-5.76-4.84-5.76S757.19,337.52,757.19,340.78Z"/><path d="M504.07,214.12c.05,1.69.17,3.37.15,5,0,2.41-.16,4.82-.2,7.23,0,1.62-.92,2.22-2.41,2.12-7.78-.56-15.54-1.41-23.33-1.62-8-.21-16.11.11-24.16.33a93,93,0,0,1-18.53-1.82c-4-.68-8.1-.32-12.16-.28a47.78,47.78,0,0,0-5.83.59c-1.31.19-1.73-.41-1.48-1.55.37-1.65.88-3.28,1.27-4.92,1.08-4.53,1.87-9.08,1.31-13.77a10.72,10.72,0,0,1,0-2c.16-2.32,1.22-2.91,3.57-2.56,2.82.42,5.68.58,8.53.74,1.39.08,2.18-.66,2.66-2.09,1.51-4.56,1.06-9.2.59-13.81-.28-2.85.81-3.94,3.7-3.44,3.41.58,6.86.87,10.3,1.24a1.43,1.43,0,0,0,1.75-1.61c0-2.29-.14-4.58-.12-6.86a28.14,28.14,0,0,1,.27-4.69c.31-1.95.95-2.23,2.89-1.68a39.79,39.79,0,0,0,15.72,1.47c3.29-.38,3.33-.43,3.58-3.76.22-3.05.54-6.1.88-9.15.16-1.49,1.2-1.92,2.55-1.78l23,2.38c1,.1,2.08.21,3.11.35s1.57.81,1.27,1.94-.48,2-.73,3a1.43,1.43,0,0,1-.34,0c-.3-2.73-2.45-2.66-4.43-3.16-6.55-1.67-13.26-1.13-19.9-1.59-2.55-.17-2.84.22-2.94,2.74-.1,2.88-.17,5.77-.1,8.64.05,1.8-.69,2.6-2.41,2.52-5.62-.26-11.24-.44-16.85-.85-3.26-.24-3.48-.14-3.27,3.11s.29,6.42.41,9.63c.06,1.66-.84,2.18-2.49,2q-6-.81-12-1.26c-.43,0-1.33,1-1.36,1.56-.1,2,.21,3.93.13,5.89-.13,3.32-.37,6.65-.76,10-.07.51-1.19,1.26-1.84,1.29a93.55,93.55,0,0,1-9.62-.09c-2.78-.2-3.37.12-3.54,3a30.39,30.39,0,0,0-.1,3.93c.26,3.61-.67,7-1.75,10.37-.56,1.75,0,2.37,1.88,2.33,2-.06,4.06-.15,6.08-.31,4.66-.38,9,1.28,13.57,1.71a110.93,110.93,0,0,0,18,.39,117.87,117.87,0,0,1,23.68.27c5.76.77,11.64.61,17.47.74,2.34,0,2.75-.69,2.79-3,.05-2.92.35-5.84.54-8.76Z"/><path d="M389.13,273.38h3.31v1.25h-7.73v-1.25h2.81V257.33h-2.81v-1.25h8.15c2.2,0,3.48.33,4.59,1.2a5.22,5.22,0,0,1,1.81,4.14,5.16,5.16,0,0,1-2,4.31c-1.09.78-2.4,1.06-4.79,1.06h-3.31Zm3.31-7.84c1.95,0,3-.28,3.87-1a4.15,4.15,0,0,0,1.25-3.09,4.25,4.25,0,0,0-1.11-3c-.84-.8-2-1.14-4-1.14h-3.31v8.21Z"/><path d="M413,270.74c-.5,2.72-2.61,4.28-5.84,4.28-4.06,0-6.45-2.56-6.45-6.84s2.42-6.84,6.4-6.84a5.52,5.52,0,0,1,5.23,2.78,9.3,9.3,0,0,1,.89,3.95,2.33,2.33,0,0,1,0,.39H402.29v.42a4.8,4.8,0,0,0,5.06,5c2.25,0,3.89-1.19,4.23-3.11Zm-1.36-3.42c-.08-3-1.81-4.82-4.59-4.82s-4.56,1.84-4.73,4.82Z"/><path d="M426.49,257.22H424v-1.14H428v17.41h2.42v1.14h-3.92v-2.69a4.91,4.91,0,0,1-4.93,3.08c-3.81,0-6.09-2.56-6.09-6.78s2.42-6.9,6.18-6.9a4.94,4.94,0,0,1,4.84,2.83ZM417,268.15c0,3.56,1.81,5.7,4.81,5.7s4.67-2,4.67-5.75a5.69,5.69,0,0,0-1-3.9,4.21,4.21,0,0,0-3.56-1.7C418.92,262.5,417,264.67,417,268.15Z"/><path d="M432.44,265.34c.3-2.7,2.08-4,5.48-4a5.4,5.4,0,0,1,4.14,1.39c.78.83,1,1.72,1,3.61v7.15h2.2v1.14h-3.7v-2.81c-.81,2.2-2.39,3.2-5,3.2-2.92,0-4.67-1.47-4.67-3.95a3.73,3.73,0,0,1,2.16-3.5,11.75,11.75,0,0,1,4.79-.7c.44,0,1.06,0,2.7.09v-.67c0-1.64-.17-2.28-.86-2.89a3.91,3.91,0,0,0-2.87-.9c-2.36,0-3.56.9-3.84,2.84Zm6.92,2.62c-2.39,0-3.78.22-4.61.78a2.62,2.62,0,0,0-1.23,2.3c0,1.79,1.25,2.81,3.39,2.81a4.35,4.35,0,0,0,3.51-1.44,4,4,0,0,0,.89-1.73c0-.14.11-.8.22-2,0-.14,0-.33.06-.58A19.82,19.82,0,0,0,439.36,268Z"/><path d="M457.33,271.52c-.53,1.81-2.48,3-4.9,3-3.67,0-6.06-2.61-6.06-6.59s2.28-6.59,6-6.59a4.81,4.81,0,0,1,4.95,3.17v-2.78h3.89v1.14h-2.39v11a5.89,5.89,0,0,1-1.14,4c-1.08,1.25-2.5,1.75-4.84,1.75s-3.92-.5-4.81-1.56a3.26,3.26,0,0,1-.86-2.17h1.55a2.25,2.25,0,0,0,.73,1.53,4.75,4.75,0,0,0,3.36,1,5.1,5.1,0,0,0,3.23-.89,3.87,3.87,0,0,0,1.28-2.81Zm-9.4-3.62c0,3.26,1.92,5.45,4.78,5.45a4.54,4.54,0,0,0,3.59-1.61c.75-.86,1.06-2,1.06-3.87s-.34-3-1.31-4a4.32,4.32,0,0,0-3.28-1.34C449.79,262.5,447.93,264.56,447.93,267.9Z"/><path d="M475.24,268.15c0,4.17-2.53,6.87-6.42,6.87s-6.51-2.72-6.51-7.09a6.19,6.19,0,0,1,6.51-6.59C472.77,261.34,475.24,264,475.24,268.15ZM463.86,268c0,3.61,1.87,5.86,4.87,5.86s4.95-2.14,4.95-5.59-1.86-5.76-4.84-5.76S463.86,264.73,463.86,268Z"/><path d="M488.45,271.52c-.53,1.81-2.47,3-4.89,3-3.68,0-6.07-2.61-6.07-6.59s2.28-6.59,6-6.59a4.8,4.8,0,0,1,4.95,3.17v-2.78h3.9v1.14H490v11a5.89,5.89,0,0,1-1.14,4c-1.08,1.25-2.5,1.75-4.84,1.75s-3.92-.5-4.81-1.56a3.31,3.31,0,0,1-.86-2.17h1.56a2.21,2.21,0,0,0,.72,1.53,4.76,4.76,0,0,0,3.37,1,5.08,5.08,0,0,0,3.22-.89,3.87,3.87,0,0,0,1.28-2.81Zm-9.4-3.62c0,3.26,1.92,5.45,4.78,5.45a4.54,4.54,0,0,0,3.59-1.61c.75-.86,1.06-2,1.06-3.87s-.33-3-1.31-4a4.32,4.32,0,0,0-3.28-1.34C480.91,262.5,479.05,264.56,479.05,267.9Z"/><path d="M497.21,273.49h2.23v1.14h-6.15v-1.14h2.42V262.87h-2.42v-1.14h3.92Zm0-16.85v2h-1.95v-2Z"/><path d="M501.69,265.34c.3-2.7,2.08-4,5.48-4a5.39,5.39,0,0,1,4.14,1.39c.78.83,1,1.72,1,3.61v7.15h2.2v1.14h-3.7v-2.81c-.81,2.2-2.39,3.2-5,3.2-2.92,0-4.67-1.47-4.67-3.95a3.73,3.73,0,0,1,2.17-3.5,11.69,11.69,0,0,1,4.78-.7c.45,0,1.06,0,2.7.09v-.67c0-1.64-.17-2.28-.86-2.89a3.91,3.91,0,0,0-2.87-.9c-2.36,0-3.56.9-3.84,2.84Zm6.92,2.62c-2.39,0-3.78.22-4.61.78a2.62,2.62,0,0,0-1.23,2.3c0,1.79,1.25,2.81,3.4,2.81a4.31,4.31,0,0,0,3.5-1.44,4,4,0,0,0,.89-1.73c0-.14.11-.8.22-2,0-.14,0-.33.06-.58A19.82,19.82,0,0,0,508.61,268Z"/><path d="M423.91,300.67c0,2.3-.3,3.56-1.22,4.86a6.48,6.48,0,0,1-5.73,2.73,6.87,6.87,0,0,1-5.62-2.5A7.27,7.27,0,0,1,410,301V290.71h-2.53v-1.25h7.15v1.25h-3v10.37a6.18,6.18,0,0,0,1,3.79A5.2,5.2,0,0,0,417,307c3.47,0,5.42-2.23,5.42-6.18V290.71h-3v-1.25h7v1.25h-2.54Z"/><path d="M430.89,297.74a4.06,4.06,0,0,1,4.18-3,2.87,2.87,0,0,1,1.08.2v1.33a1.34,1.34,0,0,0-1-.36,4.73,4.73,0,0,0-2.89,1,5.18,5.18,0,0,0-1.34,3.87v6.12h2.87V308H427v-1.14h2.42V296.24H427V295.1h3.92Z"/><path d="M440.46,297.8a5,5,0,0,1,5-3.09c3.78,0,6,2.53,6,6.82s-2.23,6.87-6.07,6.87a4.85,4.85,0,0,1-4.92-3.2V308h-3.92v-1.14H439V290.6h-2.42v-1.14h3.92Zm1-.08a6.07,6.07,0,0,0-1,3.72c0,2.09.36,3.34,1.28,4.37a4.25,4.25,0,0,0,3.37,1.42c2.95,0,4.81-2.17,4.81-5.65s-1.86-5.7-4.76-5.7A4.38,4.38,0,0,0,441.41,297.72Z"/><path d="M454.25,298.72c.31-2.7,2.09-4,5.48-4a5.45,5.45,0,0,1,4.15,1.39c.78.84,1,1.73,1,3.62v7.15h2.2V308h-3.7V305.2c-.81,2.2-2.4,3.2-5,3.2-2.92,0-4.68-1.48-4.68-3.95a3.75,3.75,0,0,1,2.17-3.51,12,12,0,0,1,4.79-.69c.44,0,1.06,0,2.7.08v-.67c0-1.64-.17-2.28-.87-2.89a3.93,3.93,0,0,0-2.86-.89c-2.37,0-3.56.89-3.84,2.84Zm6.93,2.61c-2.39,0-3.78.22-4.62.78a2.66,2.66,0,0,0-1.22,2.31c0,1.78,1.25,2.81,3.39,2.81a4.32,4.32,0,0,0,3.51-1.45,4,4,0,0,0,.89-1.72c0-.14.11-.81.22-2,0-.14,0-.34.06-.59A19.82,19.82,0,0,0,461.18,301.33Z"/><path d="M472.08,297.58a4.42,4.42,0,0,1,4.54-2.87c3,0,4.64,1.5,4.64,4.26v7.9h2.39V308h-6.31v-1.14h2.42v-7.49c0-2.28-1.25-3.5-3.59-3.5-2.53,0-4.09,1.73-4.09,4.51v6.48h2.42V308h-6.34v-1.14h2.42V296.24h-2.42V295.1h3.92Z"/><path d="M485.63,298.72c.3-2.7,2.08-4,5.48-4a5.42,5.42,0,0,1,4.14,1.39c.78.84,1,1.73,1,3.62v7.15h2.2V308h-3.7V305.2c-.81,2.2-2.39,3.2-5,3.2-2.92,0-4.67-1.48-4.67-3.95a3.75,3.75,0,0,1,2.17-3.51,11.9,11.9,0,0,1,4.78-.69c.45,0,1.06,0,2.7.08v-.67c0-1.64-.17-2.28-.86-2.89a4,4,0,0,0-2.87-.89c-2.36,0-3.56.89-3.84,2.84Zm6.92,2.61c-2.39,0-3.78.22-4.61.78a2.65,2.65,0,0,0-1.23,2.31c0,1.78,1.25,2.81,3.4,2.81a4.3,4.3,0,0,0,3.5-1.45,4,4,0,0,0,.89-1.72c0-.14.11-.81.22-2,0-.14,0-.34.06-.59A19.82,19.82,0,0,0,492.55,301.33Z"/><path d="M835.84,682.55c-4.24-1-8.13-2-12-2.86a11.27,11.27,0,0,0-3.17-.26c-2.17.15-3.25-.81-2.59-2.92a66.43,66.43,0,0,1,10.32-21.12c5-6.48,11.92-10.7,20.07-11.38,5.9-.49,9.26-3.49,12.17-7.89,4.21-6.34,8.59-12.57,12.57-19,1.74-2.84,2.71-6.16,4-9.27.25-.59.33-1.26.58-1.85,1.51-3.61,2.42-3.89,5.76-2a66.45,66.45,0,0,0,7.77,4.13c1.4.56,3.21,0,4.79.29a65.1,65.1,0,0,1,7.56,1.72c.27.07.51,1.56.21,2.06-3.12,5.22-6.36,10.37-9.56,15.54Q888,637.77,881.8,647.82c-1.18,1.89-.37,3,1.06,4.4a47.39,47.39,0,0,1,5.69,7.15,13.85,13.85,0,0,1,1.83,4.75c.39,1.7-.69,2.54-2.33,3-6,1.64-12,3.41-18,5.1-2.21.62-4.44,1.14-6.65,1.76-5.73,1.63-11.45,3.29-17.18,4.94-.27.08-.62.12-.79.31-2.48,2.67-6.28,1.63-9.13,3.23C836.08,682.59,835.76,682.57,835.84,682.55Zm37.19-35a10.71,10.71,0,0,0,1.8-1.82c2.91-4.84,5.78-9.69,8.58-14.59,3.28-5.74,6.46-11.53,9.68-17.3.93-1.66.26-2.34-1.4-3a47.58,47.58,0,0,1-7.35-3.5c-2.63-1.56-3.25-1.27-4.6,1.53a158.1,158.1,0,0,1-7.62,14.39c-3.84,6.23-8.11,12.18-12.15,18.29-1.25,1.88-.86,2.68,1.28,3.12.49.11,1,.19,1.47.31C866,645.82,869.28,646.64,873,647.57Zm-3.53,2.72c-.69-.57-1-1-1.42-1.14C864,648,860,646.27,855.81,646a28.45,28.45,0,0,0-24.9,10.66c-3.16,3.8-5.29,8.48-7.74,12.85a22.24,22.24,0,0,0-1.77,4.82c-.46,1.59.11,2.57,1.9,2.87,2.76.46,5.47,1.23,8.24,1.63a2.81,2.81,0,0,0,2.39-1c1.36-3,2.53-5.93,4.59-8.62,3.9-5.1,8.25-9.73,13.7-13,4.56-2.76,9.45-5.17,15.11-5C867.94,651.16,868.57,650.67,869.5,650.29Zm-17.69,24c-2.47-2.45-5-2-5.66.21-.12.38.73,1.51.9,1.46C848.67,675.5,850.23,674.86,851.81,674.28Zm9.5-15.9c-.91-.71-1.43-1.42-1.95-1.42s-1,.74-1.48,1.16c.48.41.92,1,1.47,1.14S860.36,658.84,861.31,658.38Z"/><path d="M884,580.32a13.85,13.85,0,0,1,.62,2.48c.22,3.65.39,7.3.46,11,0,.54-.63,1.09-1,1.63-.53-.4-1.33-.71-1.53-1.23a7,7,0,0,1-.14-2.55c.12-3.29.26-6.59.43-9.88a6,6,0,0,1,.37-1.34Z"/><path d="M898.9,584.79c.1.37.35.79.27,1.12-.87,3.53-1.76,7.06-2.76,10.56-.12.43-.91.67-1.39,1-.29-.52-.93-1.17-.8-1.55,1.3-3.7,2.72-7.35,4.12-11C898.36,584.84,898.59,584.85,898.9,584.79Z"/><path d="M916.74,595.56c0,4-6.52,9.89-9.52,8.57C910.59,601.49,913,598,916.74,595.56Z"/><path d="M816,716.58h1.81v1.25h-6.4v-1.25h2.81l-2.17-5.37h-8.57l-2.19,5.37h2.83v1.25h-6.28v-1.25h1.81l7.14-17.3h2.09ZM811.41,710l-3.64-9.46L804.12,710Z"/><path d="M821.76,714.27c0,1.36,0,1.73.36,2.14a1.64,1.64,0,0,0,1.33.64,1.56,1.56,0,0,0,1.56-1.14,5.27,5.27,0,0,0,.22-1.64h1.23a4.79,4.79,0,0,1-.45,2.48,2.83,2.83,0,0,1-2.67,1.47c-2.11,0-3.09-1.25-3.09-4v-8.21h-2.67v-1.14h2.67v-3l1.51-.56v3.56h4.31v1.14h-4.31Z"/><path d="M831.85,716.69h2.23v1.14h-6.15v-1.14h2.42V706.06h-2.42v-1.14h3.92Zm0-16.86v2h-1.94v-2Z"/><path d="M840.31,712.63a39.1,39.1,0,0,1,1.56,4.31c.27-.81.36-1.11.58-1.7.06-.19.14-.36.19-.5.31-.72.59-1.41.87-2.11l2.7-6.57h-2.37v-1.14h5.37v1.14h-1.5l-4.87,11.77h-2L836,706.06h-1.62v-1.14H840v1.14h-2.37Z"/><path d="M850.76,708.54c.31-2.7,2.09-4,5.49-4a5.4,5.4,0,0,1,4.14,1.39c.78.83,1,1.72,1,3.61v7.15h2.2v1.14h-3.7V715c-.81,2.2-2.4,3.2-5,3.2-2.92,0-4.68-1.47-4.68-4a3.73,3.73,0,0,1,2.17-3.5,11.72,11.72,0,0,1,4.79-.7c.44,0,1.06,0,2.7.08v-.66c0-1.64-.17-2.28-.87-2.9a3.93,3.93,0,0,0-2.86-.89c-2.36,0-3.56.89-3.84,2.84Zm6.93,2.62c-2.39,0-3.78.22-4.62.77a2.66,2.66,0,0,0-1.22,2.31c0,1.78,1.25,2.81,3.39,2.81a4.35,4.35,0,0,0,3.51-1.44,4.1,4.1,0,0,0,.89-1.73c0-.14.11-.8.22-2,0-.14,0-.33.06-.58A17.72,17.72,0,0,0,857.69,711.16Z"/><path d="M871,719.53a3.23,3.23,0,0,1,.72-.08,2,2,0,0,1,2.22,1.91c0,1.31-1.16,2.23-2.86,2.23a6.54,6.54,0,0,1-2.37-.47l.39-.78a4,4,0,0,0,1.65.36c1.08,0,1.8-.5,1.8-1.25a1.24,1.24,0,0,0-1.39-1.12,2.65,2.65,0,0,0-1.19.28l-.34-.39,1.39-2c-3.56-.22-5.78-2.86-5.78-6.84s2.42-6.81,6.12-6.81a4.3,4.3,0,0,1,4.28,2.58v-2.2h1.22v4.87h-1.22c-.25-2.72-1.64-4.09-4.14-4.09-2.84,0-4.7,2.26-4.7,5.62s1.89,5.71,4.75,5.71a3.93,3.93,0,0,0,3.45-1.65,4.46,4.46,0,0,0,.64-1.75h1.31a4.91,4.91,0,0,1-5.06,4.56Z"/><path d="M880.22,708.54c.3-2.7,2.08-4,5.48-4a5.39,5.39,0,0,1,4.14,1.39c.78.83,1,1.72,1,3.61v7.15h2.2v1.14h-3.7V715c-.81,2.2-2.39,3.2-5,3.2-2.92,0-4.67-1.47-4.67-4a3.73,3.73,0,0,1,2.17-3.5,11.69,11.69,0,0,1,4.78-.7c.45,0,1.06,0,2.7.08v-.66c0-1.64-.17-2.28-.86-2.9a4,4,0,0,0-2.87-.89c-2.36,0-3.56.89-3.84,2.84Zm6.92,2.62c-2.39,0-3.78.22-4.61.77a2.65,2.65,0,0,0-1.23,2.31c0,1.78,1.25,2.81,3.4,2.81a4.31,4.31,0,0,0,3.5-1.44,4.1,4.1,0,0,0,.89-1.73c0-.14.11-.8.22-2,0-.14,0-.33.06-.58A17.72,17.72,0,0,0,887.14,711.16Zm-5.61-8.68c.08-1.76,1-2.9,2.39-2.9a3.58,3.58,0,0,1,2,.81c1,.64,1.25.75,1.64.75.67,0,1.14-.61,1.25-1.61h1c-.11,1.75-1,2.84-2.3,2.84-.62,0-.89-.12-2-.78a3.21,3.21,0,0,0-1.69-.73c-.73,0-1.2.59-1.31,1.62Z"/><path d="M907.61,711.35c0,4.17-2.53,6.87-6.42,6.87s-6.51-2.72-6.51-7.09a6.19,6.19,0,0,1,6.51-6.59C905.14,704.54,907.61,707.15,907.61,711.35Zm-11.37-.17c0,3.62,1.86,5.87,4.87,5.87s4.95-2.14,4.95-5.59-1.87-5.76-4.84-5.76S896.24,707.93,896.24,711.18Z"/><path d="M824.19,743.86c0,2.31-.3,3.56-1.22,4.87a6.48,6.48,0,0,1-5.73,2.73,6.85,6.85,0,0,1-5.62-2.51,7.22,7.22,0,0,1-1.34-4.78V733.9h-2.53v-1.25h7.15v1.25h-3v10.38a6.13,6.13,0,0,0,1,3.78,5.18,5.18,0,0,0,4.42,2.12c3.48,0,5.43-2.23,5.43-6.18V733.9h-3v-1.25h7v1.25h-2.53Z"/><path d="M831.17,740.94a4,4,0,0,1,4.17-3,2.89,2.89,0,0,1,1.09.2v1.33a1.34,1.34,0,0,0-1-.36,4.71,4.71,0,0,0-2.89,1,5.14,5.14,0,0,0-1.34,3.87v6.12H834v1.14h-6.79v-1.14h2.42V739.44h-2.42V738.3h3.92Z"/><path d="M840.74,741a5,5,0,0,1,5-3.09c3.78,0,6,2.53,6,6.82s-2.23,6.87-6.07,6.87a4.85,4.85,0,0,1-4.92-3.2v2.81h-3.92v-1.14h2.42V733.79h-2.42v-1.14h3.92Zm1-.09a6.12,6.12,0,0,0-1,3.73c0,2.09.36,3.34,1.28,4.37a4.25,4.25,0,0,0,3.37,1.42c2.95,0,4.81-2.17,4.81-5.65s-1.86-5.7-4.76-5.7A4.39,4.39,0,0,0,841.69,740.91Z"/><path d="M854.53,741.92c.31-2.7,2.09-4,5.48-4a5.45,5.45,0,0,1,4.15,1.39c.78.84,1,1.73,1,3.62v7.15h2.2v1.14h-3.7V748.4c-.81,2.19-2.4,3.2-5,3.2-2.92,0-4.68-1.48-4.68-4a3.75,3.75,0,0,1,2.17-3.51,11.93,11.93,0,0,1,4.79-.69c.44,0,1,0,2.7.08v-.67c0-1.64-.17-2.28-.87-2.89a3.93,3.93,0,0,0-2.86-.89c-2.37,0-3.56.89-3.84,2.84Zm6.93,2.61c-2.39,0-3.78.22-4.62.78a2.66,2.66,0,0,0-1.22,2.31c0,1.78,1.25,2.81,3.39,2.81a4.32,4.32,0,0,0,3.51-1.45,4.18,4.18,0,0,0,.89-1.72c0-.14.11-.81.22-2,0-.14,0-.34.06-.59A19.82,19.82,0,0,0,861.46,744.53Z"/><path d="M872.36,740.78a4.42,4.42,0,0,1,4.54-2.87c3,0,4.64,1.5,4.64,4.26v7.9h2.39v1.14h-6.31v-1.14H880v-7.49c0-2.28-1.25-3.5-3.59-3.5-2.53,0-4.09,1.72-4.09,4.5v6.49h2.42v1.14h-6.34v-1.14h2.42V739.44h-2.42V738.3h3.92Z"/><path d="M885.91,741.92c.3-2.7,2.08-4,5.48-4a5.42,5.42,0,0,1,4.14,1.39c.78.84,1,1.73,1,3.62v7.15h2.2v1.14h-3.7V748.4c-.81,2.19-2.39,3.2-5,3.2-2.92,0-4.67-1.48-4.67-4a3.73,3.73,0,0,1,2.17-3.51,11.87,11.87,0,0,1,4.78-.69c.44,0,1.06,0,2.7.08v-.67c0-1.64-.17-2.28-.86-2.89a4,4,0,0,0-2.87-.89c-2.36,0-3.56.89-3.84,2.84Zm6.92,2.61c-2.39,0-3.78.22-4.62.78a2.66,2.66,0,0,0-1.22,2.31c0,1.78,1.25,2.81,3.39,2.81a4.32,4.32,0,0,0,3.51-1.45,4.06,4.06,0,0,0,.89-1.72c0-.14.11-.81.22-2,0-.14,0-.34.06-.59A19.82,19.82,0,0,0,892.83,744.53Z"/><path d="M667.37,805.43c-2.56.93-5.14,1.81-7.67,2.79-3.17,1.23-6.29,2.56-9.44,3.82-3,1.2-6,2.35-9,3.55-.8.32-1.53.78-2.31,1.14-1,.47-2.05.88-3,1.38-.34.17-.77.48-.83.79s.36.65.65.87c1.73,1.3,3.54,2.51,5.22,3.87,2.42,2,4.73,4,7.12,6,2.17,1.8,4.43,3.48,6.58,5.3s4,3.66,6.06,5.43c1.24,1.08,2.79.69,4.1.31,3.42-1,6.81-2.12,10.15-3.34,2.52-.92,4.92-2.13,7.42-3.11,4-1.57,8-3.07,12.07-4.58a2.87,2.87,0,0,0,2-2.49l2.3,1.33c-2,1.82-2.47,4.17-3,6.37a60.63,60.63,0,0,0-1,6.46q-1.14,7.58-2.32,15.13a2.54,2.54,0,0,0-.08.9c.47,2.07-1.09,2.64-2.44,3.38-2.23,1.21-4.44,2.46-6.69,3.63-3.72,1.93-7.55,3.67-11.17,5.77a80.46,80.46,0,0,0-7.8,5.48c-2,1.48-3.83,3.13-5.76,4.67-.51.42-2.31-.36-2.85-1.18-.87-1.36-1.68-2.77-2.62-4.07a42.78,42.78,0,0,0-3.41-4.29,44.89,44.89,0,0,1-5.92-7.73c-.76-1.27-1.87-2.34-2.76-3.54-1.67-2.25-3.27-4.56-5-6.77-.53-.68-1.42-1.07-2-1.71a2.58,2.58,0,0,1-.74-1.61c.13-4.18.44-8.35.55-12.52.13-5.38.14-10.76.17-16.14a1.57,1.57,0,0,0-.47-1.07c-.66-.6-.5-1.11.17-1.41,4.66-2.12,9.32-4.23,14-6.27,2.54-1.1,5.14-2.07,7.73-3.08,1-.37,2-.73,3-1,1.72-.51,3.46-.93,5.17-1.45,1.27-.39,2.51-.88,3.77-1.32ZM634.29,846c-.45,2.16.32,3.75,1.84,5.41,2.67,2.92,5,6.19,7.36,9.36,1.67,2.21,3.11,4.61,4.88,6.73,2.83,3.38,6,6.48,8,10.52a1,1,0,0,0,.81.43c.19,0,.46-.42.5-.69.26-1.47.45-3,.69-4.43a42.94,42.94,0,0,0,1.06-6.76c0-3.2.08-6.36.37-9.55.43-4.71.49-9.46.67-14.2a2.85,2.85,0,0,0-1.12-2.65,30,30,0,0,1-2.88-2.65c-1.52-1.45-3-2.91-4.56-4.34a14.15,14.15,0,0,0-1.47-1.19c-1.59-1.16-3.23-2.26-4.79-3.46-2.43-1.86-4.8-3.78-7.21-5.68-.73-.58-1.45-1.16-2.21-1.69a1,1,0,0,0-.81-.12,1,1,0,0,0-.34.73c0,.52,0,1,0,1.57Q634.7,834.66,634.29,846Zm29.54-4.12c-2,0-2.36.3-2.41,1.57q-.23,4.89-.44,9.78c-.1,2.42-.16,4.85-.25,7.28a29.17,29.17,0,0,0-.18,4.27,21.31,21.31,0,0,1-.9,7.54,24.66,24.66,0,0,0-.47,3.1,1.16,1.16,0,0,0,.36.74c.07.07.42,0,.59-.17,1.75-1.28,3.43-2.66,5.23-3.85,3.22-2.12,6.46-4.2,9.77-6.16,2-1.18,4.14-2.11,6.22-3.14,1.55-.76,3.13-1.46,4.66-2.24a6.06,6.06,0,0,0,3.52-4c.58-2.56,1.13-5.13,1.56-7.71.74-4.41,1.36-8.84,2.06-13.25.18-1.1.51-2.18.76-3.28.2-.91-.19-1.22-1-.94-2,.67-4,1.31-5.93,2.06-3.17,1.22-6.29,2.57-9.46,3.79q-5.51,2.12-11.07,4.08A15.72,15.72,0,0,1,663.83,841.86Z"/><path d="M700.54,865.94c0,1.19-.54,1.61-1.36,1.15a2.58,2.58,0,0,0-2.86.2c-2.56,1.57-5.05,3.24-7.62,4.8-1.79,1.08-3.68,2-5.5,3-2.42,1.39-4.84,2.8-7.24,4.23a50,50,0,0,0-8.89,6.85c-.93.9-.89,1.34.15,2.17a11.51,11.51,0,0,1,1.56,1.27c.22.25.09.79.12,1.2-.36-.09-.81-.07-1.06-.29-1.57-1.38-3.11-2.81-4.64-4.24-.22-.2-.5-.45-.53-.71a4,4,0,0,1,.15-1.12,2.9,2.9,0,0,1,1.07.27c.51.37.9,1.19,1.4,1.23s1-.67,1.45-1.09a64,64,0,0,1,9.85-7.47c1.6-1,3.29-1.8,4.9-2.76,3.63-2.17,7.23-4.38,10.84-6.57,1.37-.83,2.73-1.69,4.12-2.48,1-.57,1.11-.9.48-1.85-.17-.25-.48-.48-.5-.74a1.32,1.32,0,0,1,.27-1c.11-.12.68,0,.85.14.94,1,1.85,2,2.72,3A1.85,1.85,0,0,1,700.54,865.94Z"/><path d="M642.94,888.89c-.64-1.08-.5-1.51.59-2s1.15-.57.45-1.67c-2.55-4-5.05-8.12-7.6-12.17a24.39,24.39,0,0,0-4.9-5.79,27.64,27.64,0,0,1-3.83-4.67c-.71-1-1.26-2-1.91-3-.37-.57-.76-.78-1.33-.15-.19.22-.63.2-.95.29,0-.38-.11-1,.09-1.1,1.17-.83,2.1-2.1,3.83-2,.53,0,1.1-.52,1.67-.77a5.31,5.31,0,0,1,1.11-.35s.29.45.22.55a3.31,3.31,0,0,1-.91,1c-.65.41-1.42.66-2.07,1.09a1,1,0,0,0-.28,1.56c1.39,1.87,2.73,3.78,4.22,5.56.88,1,2.21,1.73,3,2.82,1.47,2,2.7,4.21,4,6.32q1.17,1.85,2.37,3.68c1.46,2.23,2.92,4.45,4.4,6.67.67,1,1.17,1.13,2.26.56a2.89,2.89,0,0,1,.92-.41,2.71,2.71,0,0,1,.94.21c-.17.32-.26.81-.52.94-1.45.69-3,1.27-4.42,1.93A12,12,0,0,0,642.94,888.89Z"/><path d="M689.8,877.84a8.57,8.57,0,0,1-.2,1.36c-.76,2.33-1.56,4.66-2.35,7-.17.49-.18,1.32-1,1-.26-.12-.23-.94-.3-1.45,0-.12.13-.26.2-.4,1.1-2.34.9-2.82-1.48-3.78a1.86,1.86,0,0,1-.83-.81c-.07-.12.24-.68.38-.67a2,2,0,0,1,1.1.33c1.67,1.28,2.22,1.1,2.92-.92a14,14,0,0,1,1-1.83Z"/><path d="M629.53,871.37c.11.26.26.45.22.58-.44,1.39.31,1.72,1.48,1.76.67,0,1.09.43.9,1.1,0,.16-.77.28-1.1.17-1.5-.48-1.86-.3-2.19,1.26a1.36,1.36,0,0,1-.54.81,4.87,4.87,0,0,0-.29-1,3.09,3.09,0,0,0-.72-1.1c-.54-.45-.49-1,0-1.13,1.17-.26,1.5-1.07,1.79-2C629.16,871.69,629.33,871.58,629.53,871.37Z"/><path d="M679.88,804.35a10.27,10.27,0,0,0-2.71-1.18,10.38,10.38,0,0,0-2.61.51,4.87,4.87,0,0,1-2,0,12.58,12.58,0,0,1,1.31-.56c1.32-.41,2.63-.84,4-1.14a1.4,1.4,0,0,1,1.17.45A10.22,10.22,0,0,1,679.88,804.35Z"/><path d="M681.3,805.94c1.16,1.66,3.2,2.68,3.53,4.93l-.38.28-3.5-5Z"/><path d="M688,816.06,685.73,813l.37-.27,2.26,3.12Z"/><path d="M692.77,822l1.31,1.79-.33.25c-1-.14-1.16-1-1.33-1.79Z"/><path d="M621.38,916.28h3.31v1.25H617v-1.25h2.81v-16H617V899h8.15c2.2,0,3.48.33,4.59,1.19a5.25,5.25,0,0,1,1.81,4.15,5.16,5.16,0,0,1-2,4.31c-1.09.78-2.39,1.06-4.79,1.06h-3.31Zm3.31-7.84c1.95,0,3-.28,3.87-1a4.15,4.15,0,0,0,1.25-3.09,4.2,4.2,0,0,0-1.11-3c-.83-.81-2-1.14-4-1.14h-3.31v8.21Z"/><path d="M636.88,907.27a4,4,0,0,1,4.17-3,2.83,2.83,0,0,1,1.08.19v1.34a1.33,1.33,0,0,0-1-.37,4.7,4.7,0,0,0-2.89,1,5.15,5.15,0,0,0-1.33,3.86v6.12h2.86v1.14H633v-1.14h2.42V905.77H633v-1.14h3.93Z"/><path d="M656,911.05c0,4.17-2.53,6.87-6.42,6.87s-6.51-2.72-6.51-7.09a6.19,6.19,0,0,1,6.51-6.59C653.54,904.24,656,906.85,656,911.05Zm-11.37-.17c0,3.62,1.86,5.87,4.86,5.87s5-2.14,5-5.59-1.87-5.76-4.85-5.76S644.64,907.63,644.64,910.88Z"/><path d="M661.1,918.59c0,2.84-.92,3.92-3.31,3.92a6.52,6.52,0,0,1-1.58-.16v-1.23a4.25,4.25,0,0,0,1.28.22,1.92,1.92,0,0,0,1.86-1,3.31,3.31,0,0,0,.25-1.64v-12.9h-2.45v-1.14h4Zm0-19.05v2h-1.92v-2Z"/><path d="M676.93,913.64c-.5,2.72-2.62,4.28-5.84,4.28-4.07,0-6.46-2.56-6.46-6.84s2.42-6.84,6.4-6.84a5.52,5.52,0,0,1,5.23,2.78,9.16,9.16,0,0,1,.89,4,2.33,2.33,0,0,1,0,.39H666.19v.41a4.81,4.81,0,0,0,5.06,5c2.26,0,3.9-1.19,4.23-3.11Zm-1.37-3.42c-.08-3-1.8-4.82-4.59-4.82s-4.56,1.84-4.72,4.82Z"/><path d="M682.13,914c0,1.36,0,1.73.36,2.14a1.64,1.64,0,0,0,1.33.64,1.56,1.56,0,0,0,1.56-1.14,5.27,5.27,0,0,0,.22-1.64h1.23a4.79,4.79,0,0,1-.45,2.48,2.83,2.83,0,0,1-2.67,1.47c-2.11,0-3.09-1.25-3.09-3.95v-8.2H678v-1.14h2.66v-3l1.51-.55v3.56h4.31v1.14h-4.31Z"/><path d="M701.46,911.05c0,4.17-2.53,6.87-6.43,6.87s-6.51-2.72-6.51-7.09a6.2,6.2,0,0,1,6.51-6.59C699,904.24,701.46,906.85,701.46,911.05Zm-11.38-.17c0,3.62,1.87,5.87,4.87,5.87s4.95-2.14,4.95-5.59-1.86-5.76-4.84-5.76S690.08,907.63,690.08,910.88Z"/><path d="M712.83,904.63h1.23v4.2h-1.23c0-2.2-1.33-3.4-3.89-3.4-2.14,0-3.53,1-3.53,2.51,0,1.22.83,1.92,2.72,2.17l1.7.25c1.89.27,2.72.55,3.48,1.22a3.2,3.2,0,0,1,1,2.39c0,2.39-2,3.95-5,3.95-2.22,0-3.5-.69-4.36-2.33v1.94h-1.23v-4.45h1.23c.13,2.28,1.66,3.67,4.11,3.67,2.2,0,3.73-1,3.73-2.58a2.17,2.17,0,0,0-.81-1.7,4.76,4.76,0,0,0-2.28-.7l-1.7-.22a5.51,5.51,0,0,1-3.11-1.11,3.11,3.11,0,0,1-1-2.36c0-2.29,2-3.84,4.92-3.84a4.17,4.17,0,0,1,4.06,2Z"/><path d="M467,877.48c-2.86,2.27-17.59,3-20,.72a9.23,9.23,0,0,1,2.37-.87c1.92-.07,2.71-1.2,2.15-2.76-2-5.54-1.11-11.31-1.51-17-.13-1.84-.71-2.89-2.52-3-3.21-.22-6.43-.37-9.64-.48-1.75-.06-3.57.31-5.26,0-2.87-.54-5.42-.56-7.31,2.42-1.39-1.84-2.92-2.95-4.89-1.43a1.93,1.93,0,0,0-.27,1.8c1.16,2.17,2.78.75,4.8-.18-2.72,5.2-5.15,9.7-7.43,14.27-1.48,3-.64,4.56,2.56,4.86,5.28.5,10.55,2.11,15.9.23.47-.16,1.26.54,1.9.84-.49.49-.93,1.35-1.48,1.42-6.34.9-12.87,3-19,2.19-9.07-1.19-17.92,1-26.85.1a8.88,8.88,0,0,0-3.64.49c-4.66,1.62-9-.19-13.41-1.18a3.47,3.47,0,0,1-2-2.75c.36-1.85,2-1.29,3.21-.7,5.47,2.67,10.5,1.7,15.4-1.54a41.28,41.28,0,0,0,13.45-14c3.32-5.77,7.36-11.12,11-16.69,4.43-6.73,8.73-13.54,13.25-20.2a81.36,81.36,0,0,1,5.58-6.64c.49-.59.92-1.22,1.37-1.85,1.53-2.11,3-3.75,6.22-3.45,4.53.43,9.12.12,13.69.17,3,0,3.45.76,2.37,3.4a10.1,10.1,0,0,0-.67,2.26c-.73,5-1.56,10-2.08,15.07-.66,6.45-1.43,12.93-1.45,19.39,0,7.14.8,14.28,1.18,21.42.14,2.74,1.47,3.65,4.11,3.4,2.91-.29,5.85-.32,8.77-.46ZM428.58,848.7c.41-1.57.83-3.14,1.26-4.75-3.76-.06-6.86,3.94-5.57,7.09.17.41,1.9.7,2.4.33a10.07,10.07,0,0,0,1.95-2.75c1,1.86,2.09,3.2,4.63,3.12,4.81-.15,9.63.12,14.44.24,1.93,0,2.21-1.11,2.35-2.73.54-6.45,1.18-12.9,1.84-19.35.18-1.83.65-3.64.78-5.47a15.84,15.84,0,0,0-.43-3.25c-1.19.38-2.82.39-3.5,1.2-3.91,4.69-7.7,9.49-11.3,14.41-1.11,1.52-2.11,2.66-4.05,2.93a8.52,8.52,0,0,0-2.41,1.21,3.46,3.46,0,0,0,2-.47,1.29,1.29,0,0,1,1.16.29,1.2,1.2,0,0,1,0,1.16C432.34,844.2,430.45,846.44,428.58,848.7Zm-9.72,16.18,1.76-3.73c-.79-.28-2-1-2.3-.76a6,6,0,0,0-1.7,2.76C416.55,863.38,417.75,864,418.86,864.88Zm33.66-48.78-.26-.86c-.74-.16-1.69-.68-2.17-.4a10.9,10.9,0,0,0-2.23,2.31c.68.34,1.53,1.11,2,.92A12,12,0,0,0,452.52,816.1Z"/><path d="M383,907.49v-3h1.36v7.26H383v-3.08h-5v7.59h9.21v-4.51h1.47v5.76h-15.1v-1.25h2.81v-16h-2.81V899h15.1v5.53h-1.47v-4.28H378v7.26Z"/><path d="M402.34,900.12h-2.45V899h3.95v17.41h2.42v1.14h-3.92v-2.7a4.89,4.89,0,0,1-4.93,3.09c-3.81,0-6.09-2.56-6.09-6.79s2.42-6.89,6.18-6.89a4.93,4.93,0,0,1,4.84,2.83Zm-9.46,10.93c0,3.56,1.81,5.7,4.81,5.7s4.68-2,4.68-5.75a5.74,5.74,0,0,0-1-3.9,4.23,4.23,0,0,0-3.56-1.7C394.77,905.4,392.88,907.57,392.88,911.05Z"/><path d="M411.1,916.39h2.22v1.14h-6.15v-1.14h2.42V905.77h-2.42v-1.14h3.93Zm0-16.85v2h-2v-2Z"/><path d="M418.08,914c0,1.36.05,1.73.36,2.14a1.64,1.64,0,0,0,1.33.64,1.56,1.56,0,0,0,1.56-1.14,5.27,5.27,0,0,0,.22-1.64h1.23a4.79,4.79,0,0,1-.45,2.48,2.83,2.83,0,0,1-2.67,1.47c-2.11,0-3.08-1.25-3.08-3.95v-8.2h-2.67v-1.14h2.67v-3l1.5-.55v3.56h4.31v1.14h-4.31Z"/><path d="M437.41,911.05c0,4.17-2.53,6.87-6.43,6.87s-6.51-2.72-6.51-7.09a6.2,6.2,0,0,1,6.51-6.59C434.93,904.24,437.41,906.85,437.41,911.05ZM426,910.88c0,3.62,1.87,5.87,4.87,5.87s5-2.14,5-5.59S434,905.4,431,905.4,426,907.63,426,910.88Z"/><path d="M443,907.27a4,4,0,0,1,4.17-3,2.79,2.79,0,0,1,1.08.19v1.34a1.32,1.32,0,0,0-1-.37,4.71,4.71,0,0,0-2.9,1,5.15,5.15,0,0,0-1.33,3.86v6.12h2.86v1.14h-6.78v-1.14h2.42V905.77h-2.42v-1.14H443Z"/><path d="M453.79,916.39H456v1.14h-6.14v-1.14h2.42V905.77h-2.42v-1.14h3.92Zm0-16.85v2h-2v-2Z"/><path d="M458.27,908.24c.3-2.7,2.08-4,5.48-4a5.39,5.39,0,0,1,4.14,1.39c.78.83,1,1.72,1,3.61v7.15h2.2v1.14h-3.7v-2.81c-.81,2.2-2.39,3.2-5,3.2-2.92,0-4.68-1.47-4.68-3.95a3.73,3.73,0,0,1,2.17-3.5,11.75,11.75,0,0,1,4.79-.7c.44,0,1.06,0,2.7.09v-.67c0-1.64-.17-2.28-.87-2.9a3.91,3.91,0,0,0-2.86-.89c-2.36,0-3.56.89-3.84,2.84Zm6.92,2.62c-2.39,0-3.78.22-4.62.78a2.63,2.63,0,0,0-1.22,2.3c0,1.78,1.25,2.81,3.39,2.81a4.35,4.35,0,0,0,3.51-1.44,4.1,4.1,0,0,0,.89-1.73c0-.14.11-.8.22-2,0-.14,0-.33.06-.58A17.72,17.72,0,0,0,465.19,910.86Z"/><path d="M476,916.39h2.42v1.14h-6.34v-1.14h2.42V900.12h-2.42V899H476Z"/><path d="M219.44,556.55c-1.49-2-3.58-2.67-5.62-3.17-2.86-.72-5.8-1.15-8.71-1.63a3.5,3.5,0,0,0-1.73.29c-1.65.61-2.52.17-2.7-1.58-.09-.89.08-1.8,0-2.7-.07-1.7-.19-3.4-.33-5.1-.09-1.15-.85-1.47-1.88-1.48-1.46,0-2.92,0-4.36-.13-2.83-.29-3.85-2.14-4.17-4.9-.35-2.95.94-4.67,3.68-5.34a35.77,35.77,0,0,1,4.59-.78,2,2,0,0,0,2-2c.21-2.9.21-5.83.55-8.71a18.64,18.64,0,0,1,1.41-5.12,23.52,23.52,0,0,1,3.08-5.3c3.17-3.93,7.5-4,12-3.06,4.63.95,8,4,10.75,7.47a108,108,0,0,1,8.24,12.33,67.28,67.28,0,0,1,8.63,23.11,53.58,53.58,0,0,1,.27,17.24,24.68,24.68,0,0,1-6.82,13.89c-2.9,3-6.14,5.66-10.58,6.1-5.85.58-11.63.7-17-2.26-5.88-3.23-8-8.65-8.77-14.88-.16-1.24-.21-2.5-.39-3.74a1.74,1.74,0,0,1,1.36-2.24c5.07-1.75,10.09-3.63,15.13-5.48A10.56,10.56,0,0,0,219.44,556.55Zm3,27.54c4.62-.29,9-.79,12.64-4.14a27.66,27.66,0,0,0,6.43-8.22,26.69,26.69,0,0,0,2-8A45.43,45.43,0,0,0,242.38,546a62.87,62.87,0,0,0-2.71-8.12,82.74,82.74,0,0,0-4.93-11.22,100.52,100.52,0,0,0-8.67-12.26c-2.63-3.25-5.82-6-10.28-6.57a9.21,9.21,0,0,0-6.62,1.4,14.77,14.77,0,0,0-5.1,7.26,34.75,34.75,0,0,0-1.5,8.24,28.5,28.5,0,0,0,0,5.84c.12,1.35-.07,1.76-1.45,1.85a49.05,49.05,0,0,0-5.94.66,4.78,4.78,0,0,0-2.37,1.48,2.4,2.4,0,0,0,1,3.89,15.86,15.86,0,0,0,4.72.32c2.48-.15,3.51.58,3.65,3,.1,1.86.2,3.71.27,5.57a1.62,1.62,0,0,0,1.47,1.76c2.8.55,5.59,1.18,8.39,1.74,3.29.66,6.59,1.29,9.89,1.91,1.15.21,3.09,2.76,2.74,3.86a2.1,2.1,0,0,1-1.18,1.16c-2.32.77-4.73,1.29-7,2.15-3.66,1.37-7.24,2.94-10.86,4.42a2.21,2.21,0,0,0-1.47,2.35,26.33,26.33,0,0,0,1.63,9.27c1.62,4,4.87,6.06,8.66,7.19C217.18,583.87,219.87,583.8,222.45,584.09Z"/><path d="M196.12,492.07a24.74,24.74,0,0,0-3-.14c-1.83.15-2.19,0-2.44-1.75-.19-1.33-1.18-1.32-2-1.27-1.8.1-3-.83-4.21-2a3.71,3.71,0,0,1-.95-4.15c.57-1.67,1.56-3.07,3.64-3a2.26,2.26,0,0,0,2.55-2c1-4.19,4.09-6.62,7.81-8.32,2.17-1,4,0,5.94,1.06a20,20,0,0,1,9.12,10.58,18.09,18.09,0,0,1,.39,11.27,15.41,15.41,0,0,1-4.68,8.19,7.73,7.73,0,0,1-3,1.51,44.78,44.78,0,0,1-6.18,1.24c-3.51.44-5.59-.85-6.93-4.09-.36-.87-.75-1.74-1-2.63s-.17-1.59,1-1.84C194.46,494.32,195.32,493.7,196.12,492.07Zm2.27,8.88c6.21.05,11-2.41,12.79-9.24,1.82-7-1.8-15.71-8.35-19.07a5.32,5.32,0,0,0-5.18-.29,11.06,11.06,0,0,0-5.6,6c-.32.88-.69,1.63.09,2.49a1.44,1.44,0,0,1,0,1.37c-.18.26-.84.27-1.28.28a33,33,0,0,0-3.59,0,1.71,1.71,0,0,0-1.61,2,2.78,2.78,0,0,0,1.65,1.6,4.22,4.22,0,0,0,2.32-.13c1.64-.42,2.48,0,2.8,1.68a2.51,2.51,0,0,0,2.65,2.35,39.05,39.05,0,0,1,4.19.38,6.09,6.09,0,0,1,1.7,1c-.36.61-.58,1.42-1.11,1.79a43.89,43.89,0,0,1-4.9,2.91,1.64,1.64,0,0,0-.88,2.45A3.91,3.91,0,0,0,198.39,501Z"/><path d="M252.08,498.18c-.53,2-.77,4.17-1.66,6-2.09,4.32-5.57,6-10.45,4.94a17.48,17.48,0,0,1-6.14-2.59,6.64,6.64,0,0,1-2.68-6.89c.15-1,.8-1.38,1.7-1.63a11,11,0,0,0,2.61-1c.37-.21.49-.86.72-1.32a6.67,6.67,0,0,0-1.36-.31c-.8,0-1.6.17-2.39.15-2.14,0-3-.84-2.79-3,.14-1.49-.44-2.06-1.76-2.43a13.44,13.44,0,0,1-3.55-1.44c-1.17-.75-1.12-1.93-.19-3a5.64,5.64,0,0,1,4.78-2.06,2.28,2.28,0,0,0,2.59-1.75,14.66,14.66,0,0,1,5-6.39,3.47,3.47,0,0,1,3,.12c2.87,1.45,5.84,2.85,7.88,5.5a7.39,7.39,0,0,1,1,1.52,37.4,37.4,0,0,1,3.32,15.46Zm-14.29-4.9h0c.35,0,.78-.13,1,0a6.07,6.07,0,0,1,1.78,1.42c.11.16-.52,1.07-1,1.41-1.58,1.2-3.25,2.29-4.87,3.44-.84.59-1.78,1.26-1.35,2.41a6,6,0,0,0,1.78,2.83,16.22,16.22,0,0,0,4.71,2.09,8.11,8.11,0,0,0,9.46-4.79c.95-2.33.46-4.63.5-7,.08-3.85-1.59-7.25-2.89-10.64s-4.92-5.05-8.14-6.67a1.06,1.06,0,0,0-.85,0,10.19,10.19,0,0,0-5.06,6.54c-.47,1.84-.65,2.13-2.54,2a14,14,0,0,0-2.66.12,1,1,0,0,0-.64.71,1,1,0,0,0,.6.75,9.43,9.43,0,0,0,1.91.33c2.12.19,2.44.55,2.37,2.72a3.65,3.65,0,0,1-.09.74c-.29,1.11.36,1.52,1.27,1.56C234.69,493.32,236.24,493.28,237.79,493.28Z"/><path d="M212.28,528.17c-.76-1-1.43-1.56-1.6-2.24a1,1,0,0,1,1.28-1.35,3.77,3.77,0,0,1,1.8,1.69C213.88,526.46,213,527.24,212.28,528.17Z"/><path d="M201,478.4c-.82.68-1.47,1.42-1.65,1.32a4.24,4.24,0,0,1-1.56-1.56c-.08-.14.81-1.21,1.12-1.15C199.56,477.14,200.09,477.74,201,478.4Z"/><path d="M238.84,485.17,237,483.72l1.64-1.71c.51.51,1.21.95,1.47,1.57C240.17,483.85,239.38,484.5,238.84,485.17Z"/><path d="M174.55,616.7v-3h1.36V621h-1.36v-3.09h-5v7.6h9.2V621h1.48v5.76H165.14v-1.25H168v-16h-2.81v-1.25h15.11v5.53h-1.48v-4.28h-9.2v7.26Z"/><path d="M188,621.54a36.66,36.66,0,0,1,1.55,4.31c.28-.81.37-1.11.59-1.7,0-.19.14-.36.19-.5.31-.72.59-1.42.87-2.11L193.9,615h-2.36v-1.14h5.37V615h-1.5l-4.87,11.77h-2L183.69,615h-1.61v-1.14h5.56V615h-2.36Z"/><path d="M210,622.85c-.5,2.72-2.62,4.28-5.84,4.28-4.06,0-6.46-2.56-6.46-6.84s2.42-6.85,6.4-6.85a5.54,5.54,0,0,1,5.23,2.78,9.19,9.19,0,0,1,.89,3.95,2.21,2.21,0,0,1,0,.39H199.24V621a4.82,4.82,0,0,0,5.06,5c2.26,0,3.9-1.2,4.23-3.11Zm-1.36-3.43c-.09-3-1.81-4.81-4.59-4.81s-4.57,1.84-4.73,4.81Z"/><path d="M215.79,616.31a4.42,4.42,0,0,1,4.54-2.87c3,0,4.64,1.51,4.64,4.26v7.9h2.39v1.14h-6.31V625.6h2.42v-7.48c0-2.28-1.25-3.51-3.59-3.51-2.53,0-4.09,1.73-4.09,4.51v6.48h2.42v1.14h-6.34V625.6h2.42V615h-2.42v-1.14h3.92Z"/><path d="M231.84,623.18c0,1.36,0,1.72.36,2.14a1.64,1.64,0,0,0,1.34.64,1.57,1.57,0,0,0,1.55-1.14,5.5,5.5,0,0,0,.23-1.64h1.22a4.74,4.74,0,0,1-.45,2.47,2.81,2.81,0,0,1-2.67,1.48c-2.11,0-3.08-1.25-3.08-4V615h-2.67v-1.14h2.67v-3l1.5-.56v3.56h4.31V615h-4.31Z"/><path d="M251.17,620.26c0,4.17-2.53,6.87-6.43,6.87s-6.51-2.73-6.51-7.09a6.21,6.21,0,0,1,6.51-6.6C248.69,613.44,251.17,616.06,251.17,620.26Zm-11.38-.17c0,3.62,1.87,5.87,4.87,5.87s5-2.14,5-5.59-1.86-5.76-4.84-5.76S239.79,616.84,239.79,620.09Z"/><path d="M262.54,613.83h1.23V618h-1.23c0-2.19-1.33-3.39-3.89-3.39-2.14,0-3.53,1-3.53,2.5,0,1.23.83,1.92,2.72,2.17l1.7.25c1.89.28,2.73.56,3.48,1.23a3.19,3.19,0,0,1,1,2.39c0,2.39-2,4-5,4-2.22,0-3.5-.7-4.36-2.34v2h-1.23v-4.45h1.23c.13,2.28,1.67,3.67,4.11,3.67,2.2,0,3.73-1.06,3.73-2.59a2.17,2.17,0,0,0-.81-1.69,4.65,4.65,0,0,0-2.28-.7l-1.69-.22a5.52,5.52,0,0,1-3.12-1.11,3.11,3.11,0,0,1-1-2.37c0-2.28,2-3.84,4.92-3.84a4.18,4.18,0,0,1,4.06,2.06Z"/><path d="M169.6,650.41a11.9,11.9,0,0,1-2,6.12l2.29,2.39h3v1.2h-4l-2.31-2.37a8,8,0,0,1-6.34,2.78c-3.62,0-6-2.14-6-5.34,0-2.47,1.47-4.31,4.48-5.56-1.84-1.59-2.81-3.2-2.81-4.62,0-2.28,1.92-3.87,4.65-3.87a5.05,5.05,0,0,1,3.5,1.06,3.82,3.82,0,0,1,1.22,2.84c0,2-1.58,3.92-4.14,4.89l5.53,5.68a10,10,0,0,0,1.53-5.2h-2.22v-1.2h6.29v1.2Zm-10,.28c-2.5,1-3.75,2.55-3.75,4.5a4.17,4.17,0,0,0,4.45,4.12,7.07,7.07,0,0,0,5.26-2.53Zm4-5.65a2.71,2.71,0,0,0-3-2.73c-1.81,0-3.12,1.09-3.12,2.59a3.23,3.23,0,0,0,.78,2,14.82,14.82,0,0,0,1.53,1.7,3.32,3.32,0,0,0,.36.39C162.59,647.74,163.56,646.6,163.56,645Z"/><path d="M197.49,644.09a9.51,9.51,0,0,1,2.14,6.57,11.1,11.1,0,0,1-1.75,6.48,9.4,9.4,0,0,1-13.82.39c-1.48-1.7-2.14-3.78-2.14-6.76a9.71,9.71,0,0,1,2.41-6.93,8.61,8.61,0,0,1,6.4-2.56A8.7,8.7,0,0,1,197.49,644.09Zm-13.88,6.68a9.36,9.36,0,0,0,1.53,5.7,7,7,0,0,0,5.68,2.62,6.91,6.91,0,0,0,5.62-2.67,10.44,10.44,0,0,0,1.5-5.76c0-5-2.7-8.1-7.18-8.1S183.61,645.62,183.61,650.77Z"/><path d="M205.36,659h2.81v1.15H201.5V659h2.36V648.35H201.3v-1.14h2.56v-1.42c0-3,1.42-4.56,4.14-4.56a7.73,7.73,0,0,1,2,.28v1.19a9.42,9.42,0,0,0-1.95-.28,2.67,2.67,0,0,0-2.14,1,3.5,3.5,0,0,0-.59,2.48v1.28h3.2v1.14h-3.2Z"/><path d="M214.48,659h2.23v1.15h-6.15V659H213V648.35h-2.42v-1.14h3.92Zm0-16.85v2h-1.94v-2Z"/><path d="M230.09,655.91a4.6,4.6,0,0,1-.86,2.45,5.23,5.23,0,0,1-4.59,2.14c-3.82,0-6.26-2.69-6.26-6.87s2.42-6.81,6.12-6.81a4.3,4.3,0,0,1,4.28,2.59v-2.2H230v4.87h-1.22c-.25-2.73-1.64-4.09-4.14-4.09-2.84,0-4.71,2.25-4.71,5.64s1.9,5.71,4.76,5.71a4,4,0,0,0,3.45-1.64,5.16,5.16,0,0,0,.64-1.79Z"/><path d="M236.15,659h2.22v1.15h-6.14V659h2.42V648.35h-2.42v-1.14h3.92Zm0-16.85v2h-2v-2Z"/><path d="M243.41,649.68a4.42,4.42,0,0,1,4.53-2.86c3,0,4.65,1.5,4.65,4.25V659H255v1.15h-6.31V659h2.41v-7.48c0-2.28-1.25-3.5-3.58-3.5-2.53,0-4.09,1.72-4.09,4.5V659h2.42v1.15h-6.34V659h2.42V648.35h-2.42v-1.14h3.92Z"/><path d="M257,650.82c.31-2.69,2.09-4,5.48-4a5.41,5.41,0,0,1,4.15,1.39c.78.83,1,1.72,1,3.62V659h2.19v1.15h-3.7v-2.81c-.8,2.19-2.39,3.19-5,3.19-2.92,0-4.67-1.47-4.67-4a3.74,3.74,0,0,1,2.17-3.5,11.89,11.89,0,0,1,4.79-.7c.44,0,1,0,2.69.09v-.67c0-1.64-.16-2.28-.86-2.89a3.94,3.94,0,0,0-2.86-.89c-2.37,0-3.56.89-3.84,2.83Zm6.93,2.62c-2.39,0-3.78.22-4.62.78a2.63,2.63,0,0,0-1.22,2.31c0,1.78,1.25,2.81,3.39,2.81a4.35,4.35,0,0,0,3.51-1.45,4.3,4.3,0,0,0,.89-1.72c0-.14.11-.81.22-2,0-.13,0-.33.05-.58A19.52,19.52,0,0,0,263.88,653.44Z"/><path d="M280.84,647.21h1.23v4.2h-1.23c0-2.2-1.33-3.4-3.89-3.4-2.14,0-3.53,1-3.53,2.51,0,1.22.83,1.92,2.72,2.17l1.7.25c1.89.28,2.73.55,3.48,1.22a3.22,3.22,0,0,1,1,2.39c0,2.4-2,4-5,4-2.22,0-3.5-.69-4.36-2.33v2h-1.23v-4.46h1.23c.13,2.29,1.66,3.68,4.11,3.68,2.2,0,3.73-1.06,3.73-2.59a2.17,2.17,0,0,0-.81-1.7,4.68,4.68,0,0,0-2.28-.69l-1.69-.23a5.45,5.45,0,0,1-3.12-1.11,3.11,3.11,0,0,1-1-2.36c0-2.28,2-3.84,4.92-3.84a4.16,4.16,0,0,1,4.06,2.06Z"/><path d="M277.58,733.53c-.44,0-.89,0-1.32,0a2.8,2.8,0,0,0-2.53,1.05c-2.24,2.67-4.62,5.25-6.82,7.95s-4.29,5.63-6.49,8.4-4.55,5.6-6.82,8.42c-1.12,1.39-2.14,2.86-3.31,4.2a2,2,0,0,1-1.55.53c-1.38-.16-2.72-.54-4.09-.79-1-.17-1.42-.92-.77-1.69,2-2.35,4.07-4.61,6.09-6.93s3.77-4.43,5.65-6.64l9.24-10.79c1.14-1.33,2.26-2.68,3.41-4a1,1,0,0,0-.27-1.78,3.58,3.58,0,0,1-2-2.38c-.07-.33-.48-.61-.79-.84a13.8,13.8,0,0,1-4.86-6.77,15.71,15.71,0,0,1,.87-12.76,16.38,16.38,0,0,1,7-7.65c1.44-.77,2.7-1.9,4.17-2.59,3.65-1.72,7.26-3.49,11.6-2.64a26.54,26.54,0,0,1,5.3,1.74,11.59,11.59,0,0,0,1.81.29,2,2,0,0,1,1,.43c2.06,2.15,4.59,3.94,5.6,6.89,1.06,3.1,1.84,6.22.95,9.57a29.35,29.35,0,0,1-6.5,12.6,12.79,12.79,0,0,1-5.58,3.75c-2,.63-4,1.55-6,2.2a15,15,0,0,1-2.94.32Zm17.7-20.63c-.33-3.34,0-6.67-2.22-9.33a34.61,34.61,0,0,0-3.44-3.41,7.81,7.81,0,0,0-5.28-2,30.8,30.8,0,0,0-11.18,2.29c-4,1.52-6.84,4.56-9.39,7.71-3.08,3.79-3.17,8.25-1.11,12.63s6.16,5.86,10.07,7.55a20.61,20.61,0,0,0,6.21,1.1,6.09,6.09,0,0,0,3.13-.52A49.89,49.89,0,0,0,289,725a17.92,17.92,0,0,0,4.36-4.37C295,718.33,294.83,715.43,295.28,712.9Zm-9.85,16.32a2.52,2.52,0,0,0,3.1-1.18l-.16-.32Zm-36.58,32.39c-.36-.3-.67-.61-.72-.58a5.75,5.75,0,0,0-.76.8c.19.14.43.44.58.4A3.3,3.3,0,0,0,248.85,761.61Z"/><path d="M285.44,719c-1.89,0-3.32,0-4.75,0-1,0-1.26-.56-.71-1.3q3.78-5.1,7.67-10.14c.55-.7,1.36-.43,1.4.34a19.83,19.83,0,0,1-.19,4.81c-.33,1.77-1.05,3.46-1.56,5.2A1.48,1.48,0,0,1,285.44,719Zm2.78-8.66c-.16-.28-.37-.91-.57-.91a1.7,1.7,0,0,0-1.15.59c-.66.85-1.19,1.79-1.81,2.67-.9,1.26-1.88,2.47-2.73,3.76a1.83,1.83,0,0,0,0,1.31c0,.1.67.09,1,.07.64,0,1.27-.18,1.9-.17a2.17,2.17,0,0,0,2.29-2C287.51,713.91,287.84,712.19,288.22,710.29Z"/><path d="M280.86,725.88a7.52,7.52,0,0,0,1.11-.73c.68-.71,1.26-1.52,2-2.16.26-.23.85-.08,1.3-.1-.13.37-.15.83-.39,1.07-.9.94-1.87,1.81-2.83,2.69a1.38,1.38,0,0,1-2.1-.28,6.93,6.93,0,0,1-1.39-2.92c-.08-.39.83-1.14,1.43-1.44a6.63,6.63,0,0,1,2.38-.6c.4,0,.84.28,1.27.44a3.72,3.72,0,0,1-.87.74c-.69.3-1.47.41-2.13.74-.41.21-1,.81-.94,1A6,6,0,0,0,280.86,725.88Z"/><path d="M206.1,800.67h3.31v1.25h-7.73v-1.25h2.81V784.61h-2.81v-1.25h8.15c2.2,0,3.48.34,4.59,1.2a5.63,5.63,0,0,1-.22,8.46c-1.09.77-2.39,1.05-4.79,1.05H206.1Zm3.31-7.85c2,0,3-.28,3.87-1a4.15,4.15,0,0,0,1.25-3.09,4.27,4.27,0,0,0-1.11-3c-.84-.8-2-1.14-4-1.14H206.1v8.21Z"/><path d="M230,798c-.5,2.73-2.62,4.29-5.85,4.29-4.06,0-6.45-2.56-6.45-6.85s2.42-6.84,6.4-6.84a5.54,5.54,0,0,1,5.23,2.78,9.19,9.19,0,0,1,.89,4,2.27,2.27,0,0,1,0,.39H219.26v.42a4.81,4.81,0,0,0,5.06,5c2.25,0,3.89-1.2,4.23-3.12Zm-1.37-3.42c-.08-3-1.81-4.81-4.59-4.81s-4.56,1.83-4.73,4.81Z"/><path d="M241.65,789h1.22v4.2h-1.22c0-2.2-1.34-3.39-3.9-3.39-2.14,0-3.53,1-3.53,2.5,0,1.22.84,1.92,2.73,2.17l1.69.25c1.9.28,2.73.56,3.48,1.22a3.22,3.22,0,0,1,1,2.4c0,2.39-2,3.95-5,3.95-2.23,0-3.51-.7-4.37-2.34v1.95H232.5v-4.45h1.22c.14,2.28,1.67,3.67,4.12,3.67,2.2,0,3.73-1.06,3.73-2.59a2.17,2.17,0,0,0-.81-1.7,4.72,4.72,0,0,0-2.28-.69l-1.7-.22a5.48,5.48,0,0,1-3.11-1.12,3.1,3.1,0,0,1-1-2.36c0-2.28,2-3.84,4.93-3.84a4.18,4.18,0,0,1,4.06,2.06Z"/><path d="M256.33,789h3.9v1.14h-2.39v15.33h2.39v1.14h-6.32v-1.14h2.42v-6.26a2.78,2.78,0,0,1-1.19,1.89,5.41,5.41,0,0,1-3.59,1.2c-3.84,0-6.2-2.62-6.2-6.87a7,7,0,0,1,1.64-5,6,6,0,0,1,4.48-1.81c2.44,0,4.22,1.11,4.86,3.06Zm-9.43,6.45c0,3.54,1.84,5.68,4.82,5.68s4.64-2,4.64-5.68-1.58-5.67-4.59-5.67S246.9,791.9,246.9,795.46Z"/><path d="M273.22,799.19c-.42,2-2.06,3.12-4.62,3.12a4.36,4.36,0,0,1-3.42-1.26c-.87-.89-1.12-1.78-1.12-3.81v-7.09h-2.42V789h3.93v8.23c0,2.65,1.11,3.9,3.47,3.9,2.76,0,4.18-1.76,4.18-5.15v-5.84h-2.43V789h3.93v11.77h2.39v1.14h-3.89Z"/><path d="M282,800.78h2.23v1.14h-6.15v-1.14h2.42V790.15h-2.42V789H282Zm0-16.86v2H280v-2Z"/><path d="M295,789h1.22v4.2H295c0-2.2-1.34-3.39-3.9-3.39-2.14,0-3.53,1-3.53,2.5,0,1.22.84,1.92,2.73,2.17l1.7.25c1.89.28,2.72.56,3.47,1.22a3.22,3.22,0,0,1,1,2.4c0,2.39-2,3.95-5,3.95-2.23,0-3.51-.7-4.37-2.34v1.95h-1.22v-4.45h1.22c.14,2.28,1.67,3.67,4.12,3.67,2.2,0,3.73-1.06,3.73-2.59a2.17,2.17,0,0,0-.81-1.7,4.72,4.72,0,0,0-2.28-.69l-1.7-.22a5.51,5.51,0,0,1-3.11-1.12,3.09,3.09,0,0,1-1-2.36c0-2.28,2-3.84,4.92-3.84a4.18,4.18,0,0,1,4.06,2.06Z"/><path d="M299.27,792.63c.31-2.7,2.09-4,5.48-4A5.45,5.45,0,0,1,308.9,790c.78.84,1,1.73,1,3.62v7.15h2.19v1.14h-3.7v-2.81c-.8,2.19-2.39,3.2-5,3.2-2.92,0-4.68-1.48-4.68-3.95a3.75,3.75,0,0,1,2.17-3.51,11.93,11.93,0,0,1,4.79-.69c.44,0,1,0,2.69.08v-.67c0-1.64-.16-2.28-.86-2.89a3.93,3.93,0,0,0-2.86-.89c-2.37,0-3.56.89-3.84,2.84Zm6.93,2.61c-2.39,0-3.78.22-4.62.78a2.66,2.66,0,0,0-1.22,2.31c0,1.78,1.25,2.81,3.39,2.81a4.32,4.32,0,0,0,3.51-1.45,4.18,4.18,0,0,0,.89-1.72c0-.14.11-.81.22-2,0-.14,0-.34.05-.59A19.52,19.52,0,0,0,306.2,795.24Z"/><path d="M305.71,334.23c1.78-1.42,3.33-2.51,4.7-3.79s2.52-2.81,3.89-4.1a3.45,3.45,0,0,1,1.94-.63c1.3-.14,2.64,0,3.93-.21a2.9,2.9,0,0,1,3.05,1.16c1.36,1.81,2.76,3.6,4.13,5.4a3.22,3.22,0,0,1,.53,1c.27.89-.26,1.45-1.12,1.13-2.64-1-5-.24-7.36,1a13.57,13.57,0,0,0-6.49,6.54,28.61,28.61,0,0,0-1.26,3.76c-.27,1-.33,2-.63,2.92a12.28,12.28,0,0,0,0,8.37c.4,1.05-.17,1.54-1.28,1.37-2.7-.41-5.39-.79-8.1-1.12s-5.44-.64-8.17-.86c-2.36-.19-4.73-.18-7.09-.37-3.49-.29-7-.72-10.47-1-4.1-.35-8.2-.64-12.3-.94q-2.91-.19-5.82-.3a16.66,16.66,0,0,0-1.72.16c-.79,0-1.57,0-2.35,0a26.53,26.53,0,0,0-2.66-.11c-1.23.09-1.63-.24-1.53-1.43.16-2,.31-4.05.45-6.07.28-3.81.64-7.61.81-11.42.18-4.06.17-8.14.25-12.2.06-2.74.23-5.48.14-8.21-.1-2.89-.42-5.78-.7-8.66,0-.4-.46-.75-.61-1.16a5.75,5.75,0,0,1-.52-2c0-.23.86-.48,1.35-.65a16.27,16.27,0,0,1,3.32-1q6.54-.8,13.11-1.37a70.34,70.34,0,0,1,16.52.81c3.11.46,6.31.34,9.43.81,2.56.38,5,1.24,7.59,1.86,1.24.29,2.53.4,3.75.76a15.33,15.33,0,0,1,7.63,4.67,3,3,0,0,1,.6,2.11,1.93,1.93,0,0,1-1.83,1.59,2.51,2.51,0,0,0-1.46,1c-1.47,2-2,4.42-2.84,6.71-1.53,4.14-1.46,8.39-1.43,12.66A7.94,7.94,0,0,0,305.71,334.23Zm-54.82,13.39c.09,4.72.09,4.68,3.55,4.73,2.4,0,4.81.11,7.21.29,4.06.29,8.12.62,12.16,1,2.56.27,5.09.88,7.65,1.07,3.59.27,7.21.22,10.82.44,3.19.19,6.37.54,9.55.83,1.12.1,2.23.25,3.35.34,1.35.11,1.61-.14,1.67-1.47a17.57,17.57,0,0,1,.22-3.09c.82-3.6,1.93-7.13,2.56-10.75a10.23,10.23,0,0,1,4-6.21,20.61,20.61,0,0,1,9.45-4.14c.33-.06.85-.29.88-.49a1.94,1.94,0,0,0-.33-1.23,8.24,8.24,0,0,0-1.44-1.51,2.61,2.61,0,0,0-1.38-.74c-2.17,0-4.35.21-6.12,1.65-2.34,1.92-4.65,3.87-6.92,5.88a27,27,0,0,0-2.52,2.71c-.51.59-.84.61-1.35,0-1.48-1.87-1.79-4.13-2.2-6.36a8.37,8.37,0,0,1,.06-2.23c.21-2.23.51-4.45.68-6.68a23.32,23.32,0,0,1,2.43-9.07,15.63,15.63,0,0,0,.6-1.58,14.66,14.66,0,0,0-1.86-.19c-2.85.09-5.7.23-8.55.34-.54,0-1.08,0-1.62,0-5.43,0-10.87,0-16.3-.07a61.16,61.16,0,0,1-10-1.22,56.35,56.35,0,0,1-13.8-4.33c-.26-.12-.75-.18-.9,0a1.33,1.33,0,0,0-.26,1c0,1,.22,2,.22,3,0,4.77.1,9.54,0,14.31-.07,4.4-.2,8.81-.49,13.19C251.68,341,251.16,344.93,250.89,347.62Zm36-37.26v-.1c3.28,0,6.57.14,9.84,0,3.77-.2,7.53-.65,11.27-1.11.52-.06,1-.81,1.43-1.23a3.85,3.85,0,0,0-.86-.93c-1.31-.7-2.63-1.36-4-2a12.69,12.69,0,0,0-2.46-.82c-1.3-.28-2.62-.43-3.92-.67-2.64-.48-5.27-1.08-7.93-1.45s-5.53-.54-8.29-.83a76.9,76.9,0,0,0-7.81-.82c-5,0-10.06.2-15.07.56a45,45,0,0,0-6.92,1.42,1.25,1.25,0,0,0-.76.94c0,.27.5.61.85.8s.95.29,1.39.5a51.89,51.89,0,0,0,16.78,4.89C275.93,310.06,281.43,310.1,286.91,310.36Z"/><path d="M261.77,341c.15-4,.28-8,.5-11.94,0-.45.5-.88.77-1.32.2.46.58.92.57,1.36-.13,4-.33,8.05-.49,12.07,0,.87.12,1.75.06,2.61a4.41,4.41,0,0,1-.53,1.26c-.3-.39-.8-.75-.86-1.18a19.47,19.47,0,0,1,0-2.86Z"/><path d="M269.5,328c0,1.56,0,3.13,0,4.69,0,.28-.28.55-.43.82-.25-.24-.7-.44-.73-.7-.13-1.06-.14-2.13-.17-3.19,0-1.77-.12-3.55-.06-5.32,0-.5.39-1.34.72-1.4.9-.18.85.63.85,1.26V328Z"/><path d="M277.61,334.37a7.64,7.64,0,0,1,.26,1.75c-.27,2.83-.61,5.66-.95,8.49-.06.54-.21,1.08-.32,1.62l-.46.06a4.15,4.15,0,0,1-.4-1.35c.2-3,.45-6.09.74-9.13a5.76,5.76,0,0,1,.58-1.48Z"/><path d="M289.63,331.77c-.1,2.76-.18,5.53-.33,8.29,0,.37-.41.73-.62,1.09a8.29,8.29,0,0,1-.87-1,1.19,1.19,0,0,1-.09-.73c.28-2.59.55-5.19.9-7.77,0-.3.47-.54.73-.81l.7.82Z"/><path d="M284.19,328.22c.16-2,.29-4.15.52-6.25,0-.35.55-.64.84-1,.2.38.56.76.56,1.14,0,2.26-.12,4.53-.27,6.79,0,.39-.45.76-.69,1.14a6.58,6.58,0,0,1-.82-.94A2.92,2.92,0,0,1,284.19,328.22Z"/><path d="M280.34,308.27l-8.64-1.55c-1.13-.21-2.28-.36-3.4-.62-.33-.08-.58-.45-.86-.68.37-.12.79-.43,1.11-.34,4.71,1.23,9.46,2.1,14.36,1.58a5.66,5.66,0,0,0,1.3-.47c-.26-.39-.46-1.05-.8-1.14a10.28,10.28,0,0,0-2.87-.31c-1.86.07-3.71.29-5.56.38-.2,0-.42-.39-.63-.6.25-.2.49-.57.74-.58,1.9,0,3.81,0,5.72,0a13.92,13.92,0,0,1,2.88.35,3.87,3.87,0,0,1,1.58.91c1,.86.8,2-.44,2.26a36,36,0,0,1-4.41.59Z"/><path d="M216.06,388.12h3.31v1.26h-7.74v-1.26h2.81V372.07h-2.81v-1.25h8.15c2.2,0,3.48.33,4.59,1.2a5.22,5.22,0,0,1,1.81,4.14,5.16,5.16,0,0,1-2,4.31c-1.08.78-2.39,1.06-4.78,1.06h-3.31Zm3.31-7.84c1.94,0,3-.28,3.86-1a4.16,4.16,0,0,0,1.26-3.09,4.21,4.21,0,0,0-1.12-3c-.83-.8-2-1.14-4-1.14h-3.31v8.21Z"/><path d="M231.55,379.11a4,4,0,0,1,4.17-3,2.88,2.88,0,0,1,1.09.19v1.34a1.35,1.35,0,0,0-1-.36,4.7,4.7,0,0,0-2.9,1,5.15,5.15,0,0,0-1.33,3.86v6.12h2.86v1.15h-6.78v-1.15h2.42V377.61h-2.42v-1.14h3.92Z"/><path d="M250.68,382.89c0,4.18-2.53,6.87-6.42,6.87s-6.51-2.72-6.51-7.09a6.2,6.2,0,0,1,6.51-6.59C248.21,376.08,250.68,378.69,250.68,382.89Zm-11.37-.16c0,3.61,1.86,5.87,4.87,5.87s4.95-2.15,4.95-5.6-1.87-5.75-4.84-5.75S239.31,379.47,239.31,382.73Z"/><path d="M263.92,372h-2.44v-1.14h3.95v17.41h2.42v1.15h-3.93v-2.7a4.89,4.89,0,0,1-4.92,3.08c-3.81,0-6.09-2.55-6.09-6.78s2.42-6.9,6.17-6.9a4.92,4.92,0,0,1,4.84,2.84Zm-9.45,10.93c0,3.56,1.8,5.71,4.81,5.71s4.67-2,4.67-5.76a5.74,5.74,0,0,0-1-3.9,4.21,4.21,0,0,0-3.56-1.69C256.36,377.25,254.47,379.42,254.47,382.89Z"/><path d="M280.05,386.65c-.41,2-2.05,3.11-4.61,3.11a4.36,4.36,0,0,1-3.42-1.25c-.87-.89-1.12-1.78-1.12-3.81v-7.09h-2.42v-1.14h3.93v8.23c0,2.64,1.11,3.9,3.47,3.9,2.76,0,4.17-1.76,4.17-5.15v-5.84h-2.42v-1.14h3.93v11.76H284v1.15h-3.9Z"/><path d="M291.21,391.07a4,4,0,0,1,.72-.08,2,2,0,0,1,2.23,1.92c0,1.3-1.17,2.22-2.87,2.22a6.25,6.25,0,0,1-2.36-.47l.38-.78a4,4,0,0,0,1.65.36c1.08,0,1.8-.5,1.8-1.25s-.58-1.11-1.39-1.11a2.52,2.52,0,0,0-1.19.28l-.34-.39,1.39-2c-3.56-.23-5.78-2.87-5.78-6.85s2.42-6.81,6.12-6.81a4.28,4.28,0,0,1,4.28,2.59v-2.2h1.23v4.87h-1.23c-.25-2.73-1.64-4.09-4.14-4.09-2.84,0-4.7,2.25-4.7,5.62s1.89,5.7,4.75,5.7a4,4,0,0,0,3.45-1.64,4.58,4.58,0,0,0,.64-1.76h1.31a4.92,4.92,0,0,1-5.06,4.57Z"/><path d="M300.44,380.08c.31-2.69,2.09-4,5.48-4a5.37,5.37,0,0,1,4.14,1.39c.78.83,1,1.72,1,3.61v7.15h2.2v1.15h-3.7v-2.82c-.81,2.2-2.39,3.2-5,3.2-2.92,0-4.67-1.47-4.67-3.95a3.73,3.73,0,0,1,2.17-3.5,11.87,11.87,0,0,1,4.78-.7c.45,0,1.06,0,2.7.09V381c0-1.64-.17-2.28-.86-2.89a3.91,3.91,0,0,0-2.87-.89c-2.36,0-3.56.89-3.84,2.83Zm6.93,2.62c-2.4,0-3.79.22-4.62.78a2.64,2.64,0,0,0-1.23,2.31c0,1.78,1.26,2.81,3.4,2.81a4.32,4.32,0,0,0,3.5-1.45,4,4,0,0,0,.89-1.73c0-.13.11-.8.23-2a5.41,5.41,0,0,1,0-.58A19.64,19.64,0,0,0,307.37,382.7ZM301.75,374c.08-1.75,1-2.89,2.39-2.89a3.53,3.53,0,0,1,2,.8c1,.64,1.25.75,1.64.75.67,0,1.14-.61,1.25-1.61h1c-.12,1.75-1,2.84-2.31,2.84-.61,0-.89-.11-2-.78a3.14,3.14,0,0,0-1.69-.72c-.73,0-1.2.58-1.31,1.61Z"/><path d="M327.84,382.89c0,4.18-2.54,6.87-6.43,6.87s-6.51-2.72-6.51-7.09a6.2,6.2,0,0,1,6.51-6.59C325.36,376.08,327.84,378.69,327.84,382.89Zm-11.38-.16c0,3.61,1.86,5.87,4.87,5.87s4.95-2.15,4.95-5.6-1.86-5.75-4.84-5.75S316.46,379.47,316.46,382.73Z"/><path d="M234.4,421.5h1.81v1.25h-6.4V421.5h2.81l-2.17-5.37h-8.57l-2.19,5.37h2.83v1.25h-6.28V421.5h1.81l7.15-17.3h2.08Zm-4.59-6.57-3.64-9.45-3.65,9.45Z"/><path d="M240.85,412.49a4.05,4.05,0,0,1,4.17-3,2.89,2.89,0,0,1,1.09.2V411a1.37,1.37,0,0,0-1-.36,4.73,4.73,0,0,0-2.89,1,5.18,5.18,0,0,0-1.34,3.87v6.12h2.87v1.14h-6.79v-1.14h2.42V411h-2.42v-1.14h3.92Z"/><path d="M251.64,419.19c0,1.36.06,1.72.36,2.14a1.66,1.66,0,0,0,1.34.64,1.58,1.58,0,0,0,1.56-1.14,5.61,5.61,0,0,0,.22-1.64h1.22a4.93,4.93,0,0,1-.44,2.48,2.84,2.84,0,0,1-2.67,1.47c-2.11,0-3.09-1.25-3.09-3.95V411h-2.67v-1.14h2.67v-3l1.5-.56v3.56H256V411h-4.32Z"/><path d="M261.38,421.61h2.22v1.14h-6.14v-1.14h2.42V411h-2.42v-1.14h3.92ZM263.49,404l-3.11,3.92H259l2.45-3.92Z"/><path d="M274.42,409.84h1.23V414h-1.23c0-2.19-1.33-3.39-3.89-3.39-2.14,0-3.53,1-3.53,2.5,0,1.23.83,1.92,2.72,2.17l1.7.25c1.89.28,2.72.56,3.48,1.23a3.19,3.19,0,0,1,1,2.39c0,2.39-2,3.95-5,3.95-2.22,0-3.5-.7-4.37-2.34v1.95h-1.22V418.3h1.22c.14,2.28,1.67,3.67,4.12,3.67,2.2,0,3.73-1.06,3.73-2.59a2.17,2.17,0,0,0-.81-1.69,4.65,4.65,0,0,0-2.28-.7l-1.7-.22a5.51,5.51,0,0,1-3.11-1.11,3.11,3.11,0,0,1-1-2.37c0-2.28,2-3.84,4.92-3.84a4.19,4.19,0,0,1,4.06,2.06Z"/><path d="M281.6,419.19c0,1.36,0,1.72.36,2.14a1.64,1.64,0,0,0,1.33.64,1.58,1.58,0,0,0,1.56-1.14,5.27,5.27,0,0,0,.22-1.64h1.23a4.81,4.81,0,0,1-.45,2.48,2.83,2.83,0,0,1-2.67,1.47c-2.11,0-3.09-1.25-3.09-3.95V411h-2.67v-1.14h2.67v-3l1.51-.56v3.56h4.31V411H281.6Z"/><path d="M291.69,421.61h2.23v1.14h-6.15v-1.14h2.42V411h-2.42v-1.14h3.92Zm0-16.86v2h-1.94v-2Z"/><path d="M307.3,418.55a4.59,4.59,0,0,1-.87,2.45,5.21,5.21,0,0,1-4.59,2.14c-3.81,0-6.26-2.7-6.26-6.87s2.42-6.82,6.13-6.82A4.31,4.31,0,0,1,306,412v-2.2h1.22v4.87H306c-.25-2.73-1.64-4.09-4.15-4.09-2.83,0-4.7,2.26-4.7,5.65S299,422,301.9,422a3.94,3.94,0,0,0,3.45-1.64,5.23,5.23,0,0,0,.64-1.78Z"/><path d="M310.3,413.46c.3-2.7,2.08-4,5.48-4a5.42,5.42,0,0,1,4.14,1.39c.78.84,1,1.73,1,3.62v7.15h2.2v1.14h-3.7v-2.81c-.81,2.2-2.39,3.2-5,3.2-2.92,0-4.67-1.47-4.67-3.95a3.75,3.75,0,0,1,2.17-3.51,11.9,11.9,0,0,1,4.78-.69c.45,0,1.06,0,2.7.08v-.67c0-1.64-.17-2.28-.86-2.89a4,4,0,0,0-2.87-.89c-2.36,0-3.56.89-3.84,2.84Zm6.92,2.61c-2.39,0-3.78.23-4.61.78a2.65,2.65,0,0,0-1.23,2.31c0,1.78,1.25,2.81,3.4,2.81a4.29,4.29,0,0,0,3.5-1.45,4,4,0,0,0,.89-1.72c0-.14.11-.81.22-2,0-.14,0-.33.06-.58A17.66,17.66,0,0,0,317.22,416.07Z"/><path d="M798.45,476.83v-2.95h1.36V481h-1.36v-3h-4.81v7.32h3.45v1.25h-7.88v-1.25H792V469.29h-2.81V468h14.5v5.65h-1.48v-4.4h-8.59v7.54Z"/><path d="M805.12,477.31c.31-2.7,2.09-4,5.48-4a5.45,5.45,0,0,1,4.15,1.39c.78.84,1,1.73,1,3.62v7.15H818v1.14h-3.7v-2.81c-.81,2.2-2.4,3.2-5,3.2-2.92,0-4.68-1.48-4.68-3.95a3.75,3.75,0,0,1,2.17-3.51,11.93,11.93,0,0,1,4.79-.69c.44,0,1,0,2.7.08v-.67c0-1.64-.17-2.28-.87-2.89a3.93,3.93,0,0,0-2.86-.89c-2.37,0-3.56.89-3.84,2.84Zm6.93,2.61c-2.39,0-3.78.22-4.62.78a2.66,2.66,0,0,0-1.22,2.31c0,1.78,1.25,2.81,3.39,2.81a4.32,4.32,0,0,0,3.51-1.45,4.18,4.18,0,0,0,.89-1.72c0-.14.11-.81.22-2,0-.14,0-.34.06-.59A19.82,19.82,0,0,0,812.05,479.92Z"/><path d="M822.87,476.39a5,5,0,0,1,5-3.09c3.78,0,6,2.53,6,6.82s-2.23,6.87-6.07,6.87a4.85,4.85,0,0,1-4.92-3.2v2.81H819v-1.14h2.42V469.18H819V468h3.92Zm.94-.09a6.19,6.19,0,0,0-1,3.73c0,2.09.36,3.34,1.28,4.37a4.25,4.25,0,0,0,3.37,1.42c2.94,0,4.81-2.17,4.81-5.65s-1.87-5.7-4.76-5.7A4.42,4.42,0,0,0,823.81,476.3Z"/><path d="M839.44,476.33a4.06,4.06,0,0,1,4.18-3,2.87,2.87,0,0,1,1.08.2v1.33a1.32,1.32,0,0,0-1-.36,4.75,4.75,0,0,0-2.89,1,5.18,5.18,0,0,0-1.34,3.87v6.12h2.87v1.14h-6.79v-1.14h2.42V474.83h-2.42v-1.14h3.92Z"/><path d="M850.24,485.46h2.22v1.14h-6.15v-1.14h2.42V474.83h-2.42v-1.14h3.93Zm0-16.86v2h-2v-2Z"/><path d="M865.84,482.4a4.6,4.6,0,0,1-.86,2.44,5.2,5.2,0,0,1-4.59,2.15c-3.81,0-6.26-2.7-6.26-6.87s2.42-6.82,6.12-6.82a4.28,4.28,0,0,1,4.28,2.59v-2.2h1.23v4.87h-1.23c-.25-2.73-1.64-4.09-4.14-4.09-2.84,0-4.7,2.25-4.7,5.65s1.89,5.7,4.75,5.7a4,4,0,0,0,3.45-1.64,4.84,4.84,0,0,0,.64-1.78Z"/><path d="M868.84,477.31c.31-2.7,2.09-4,5.48-4a5.45,5.45,0,0,1,4.15,1.39c.77.84,1,1.73,1,3.62v7.15h2.19v1.14H878v-2.81c-.8,2.2-2.39,3.2-5,3.2-2.92,0-4.67-1.48-4.67-3.95a3.75,3.75,0,0,1,2.17-3.51,11.9,11.9,0,0,1,4.78-.69c.45,0,1.06,0,2.7.08v-.67c0-1.64-.16-2.28-.86-2.89a3.94,3.94,0,0,0-2.86-.89c-2.37,0-3.56.89-3.84,2.84Zm6.93,2.61c-2.39,0-3.79.22-4.62.78a2.64,2.64,0,0,0-1.22,2.31c0,1.78,1.25,2.81,3.39,2.81a4.29,4.29,0,0,0,3.5-1.45,4.06,4.06,0,0,0,.89-1.72c0-.14.12-.81.23-2a5.56,5.56,0,0,1,0-.59A19.52,19.52,0,0,0,875.77,479.92Z"/><path d="M889.06,488.29a4.05,4.05,0,0,1,.72-.08,2,2,0,0,1,2.23,1.92c0,1.31-1.17,2.23-2.87,2.23a6.34,6.34,0,0,1-2.36-.48l.39-.78a4,4,0,0,0,1.64.36c1.09,0,1.81-.5,1.81-1.25s-.58-1.11-1.39-1.11a2.69,2.69,0,0,0-1.2.28l-.33-.39,1.39-2c-3.56-.22-5.79-2.87-5.79-6.84,0-4.12,2.42-6.82,6.12-6.82a4.3,4.3,0,0,1,4.29,2.59v-2.2h1.22v4.87h-1.22c-.25-2.73-1.64-4.09-4.15-4.09-2.84,0-4.7,2.25-4.7,5.62s1.89,5.7,4.76,5.7a3.94,3.94,0,0,0,3.45-1.64,4.8,4.8,0,0,0,.64-1.75H895A4.9,4.9,0,0,1,890,487Z"/><path d="M898.29,477.31c.31-2.7,2.09-4,5.48-4a5.45,5.45,0,0,1,4.15,1.39c.78.84,1,1.73,1,3.62v7.15h2.2v1.14h-3.7v-2.81c-.81,2.2-2.4,3.2-5,3.2-2.92,0-4.68-1.48-4.68-3.95a3.75,3.75,0,0,1,2.17-3.51,11.93,11.93,0,0,1,4.79-.69c.44,0,1,0,2.7.08v-.67c0-1.64-.17-2.28-.87-2.89a3.93,3.93,0,0,0-2.86-.89c-2.37,0-3.56.89-3.84,2.84Zm6.93,2.61c-2.39,0-3.78.22-4.62.78a2.66,2.66,0,0,0-1.22,2.31c0,1.78,1.25,2.81,3.39,2.81a4.32,4.32,0,0,0,3.51-1.45,4.06,4.06,0,0,0,.89-1.72c0-.14.11-.81.22-2,0-.14,0-.34.06-.59A19.82,19.82,0,0,0,905.22,479.92Zm-5.62-8.68c.09-1.75,1-2.89,2.39-2.89a3.51,3.51,0,0,1,2,.81c1,.64,1.25.75,1.64.75.67,0,1.14-.62,1.25-1.62h1c-.11,1.76-1,2.84-2.31,2.84-.61,0-.89-.11-2-.78a3.25,3.25,0,0,0-1.7-.72c-.72,0-1.19.58-1.3,1.61Z"/><path d="M925.69,480.12c0,4.17-2.53,6.87-6.42,6.87s-6.51-2.73-6.51-7.1a6.19,6.19,0,0,1,6.51-6.59C923.22,473.3,925.69,475.92,925.69,480.12ZM914.31,480c0,3.62,1.87,5.87,4.87,5.87s5-2.14,5-5.59-1.86-5.76-4.84-5.76S914.31,476.69,914.31,480Z"/><path d="M825,501.42c3.31,0,5.09.47,6.9,1.83a8.92,8.92,0,0,1,3.22,7.38c0,3.45-1.31,6.25-3.59,7.78-1.69,1.14-3.5,1.56-6.84,1.56h-7.37v-1.25h2.81V502.67h-2.81v-1.25Zm-3.26,17.3h3.06c2.73,0,4.54-.53,6-1.75a7.93,7.93,0,0,0,2.59-6.32,7.65,7.65,0,0,0-2.81-6.42,8.48,8.48,0,0,0-5.48-1.56h-3.4Z"/><path d="M840.88,518.83h2.22V520H837v-1.14h2.42V508.21H837v-1.14h3.92Zm0-16.86v2h-2v-2Z"/><path d="M855.26,516.86c-.53,1.81-2.48,3-4.9,3-3.67,0-6.06-2.61-6.06-6.59s2.28-6.59,6-6.59a4.81,4.81,0,0,1,5,3.17v-2.78h3.89v1.14h-2.39v11a5.85,5.85,0,0,1-1.14,4c-1.09,1.26-2.5,1.76-4.84,1.76s-3.92-.5-4.81-1.56a3.32,3.32,0,0,1-.87-2.17h1.56a2.32,2.32,0,0,0,.72,1.53,4.84,4.84,0,0,0,3.37,1A5.12,5.12,0,0,0,854,523a3.87,3.87,0,0,0,1.28-2.81Zm-9.4-3.62c0,3.26,1.91,5.45,4.78,5.45a4.54,4.54,0,0,0,3.59-1.61c.75-.86,1.06-2,1.06-3.87s-.34-3-1.31-4a4.32,4.32,0,0,0-3.28-1.34C847.72,507.84,845.86,509.9,845.86,513.24Z"/><path d="M864,518.83h2.22V520h-6.15v-1.14h2.42V508.21h-2.42v-1.14H864ZM864,502v2h-1.95v-2Z"/><path d="M871,516.41c0,1.37,0,1.73.36,2.14a1.64,1.64,0,0,0,1.33.64,1.56,1.56,0,0,0,1.56-1.14,5.27,5.27,0,0,0,.22-1.64h1.23a4.79,4.79,0,0,1-.45,2.48,2.83,2.83,0,0,1-2.67,1.47c-2.11,0-3.08-1.25-3.08-4v-8.2h-2.67v-1.14h2.67v-3l1.5-.56v3.57h4.31v1.14H871Z"/><path d="M878.17,510.68c.31-2.7,2.09-4,5.48-4a5.41,5.41,0,0,1,4.15,1.39c.78.83,1,1.72,1,3.61v7.15H891V520h-3.7v-2.81c-.8,2.2-2.39,3.2-5,3.2-2.92,0-4.67-1.47-4.67-4a3.73,3.73,0,0,1,2.17-3.5,11.72,11.72,0,0,1,4.79-.7c.44,0,1,0,2.69.08v-.66c0-1.64-.16-2.28-.86-2.9a3.94,3.94,0,0,0-2.86-.89c-2.37,0-3.56.89-3.84,2.84Zm6.93,2.62c-2.39,0-3.78.22-4.62.78a2.61,2.61,0,0,0-1.22,2.3c0,1.78,1.25,2.81,3.39,2.81a4.18,4.18,0,0,0,4.4-3.17c0-.14.11-.8.22-2,0-.14,0-.33.05-.58A17.46,17.46,0,0,0,885.1,513.3Z"/><path d="M895.92,518.83h2.42V520H892v-1.14h2.43V502.56H892v-1.14h3.93Z"/><path d="M902.14,422.32c.22,1.61.39,3.22.65,4.82.29,1.85,0,2.2-1.94,2.3a14.23,14.23,0,0,0-3,.61c-2.32.68-4.59,1-6.87-.19a2,2,0,0,1-1.14-2.33c.88-5.83,1.93-11.65,2.48-17.51.3-3.17-.23-6.42-.48-9.63-.1-1.16-.82-1.5-2-1.11q-7.19,2.45-14.37,4.92a11.31,11.31,0,0,0-2.16,1.11,1.14,1.14,0,0,0-.43.8c-.3,3.2-.6,6.39-.81,9.59-.28,4.39-.41,8.8-.72,13.19-.26,3.57-.7,7.12-1,10.68a2.49,2.49,0,0,1-3,2.28c-3.37-.34-5.79-1.92-7-5.12a3.45,3.45,0,0,1-.17-2,77.38,77.38,0,0,0,2.57-16.65c0-2.28.85-4.54,1.2-6.82a25.1,25.1,0,0,0,.26-4.06c0-.31-.56-.81-.93-.88-3-.59-6.06-1.08-9.09-1.63a10.51,10.51,0,0,1-2.07-.62c-1.28-.53-1.84-.3-2.16,1.08-.74,3.18-1.38,6.37-2.17,9.54-.45,1.83-1.08,3.63-1.67,5.43-.72,2.2-1.56,4.35-2.22,6.56a2.15,2.15,0,0,1-2.07,1.71,13.9,13.9,0,0,1-9.36-1.94c-1.49-.82-1.64-1.08-.93-2.64,1.42-3.13,3-6.2,4.19-9.42,1.28-3.42,2.22-7,3.28-10.48a1.83,1.83,0,0,0,0-1.18,1.48,1.48,0,0,1,.27-1.95c.68-.67.43-1.21-.46-1.48-.44-.12-.88-.24-1.31-.38a1.9,1.9,0,0,1-1.41-2.51,29.13,29.13,0,0,0,.31-3.09c.18-2.26.32-4.52.5-6.77a1.24,1.24,0,0,0-.89-1.45c-.44-.17-.7-.76-1-1.17.43-.34.82-.86,1.31-1,1.43-.39,2.92-.55,4.36-.91,3.51-.9,7-1.72,10.5-2.82,3.92-1.26,7.75-2.81,11.64-4.16a3.79,3.79,0,0,1,2.11-.11c4.22,1.07,8.38,2.38,12.62,3.33,5.88,1.3,11.82,2.35,17.73,3.52,1.36.27,2.7.64,4.06.85a3.32,3.32,0,0,0,1.35-.34c.42-.14,1.07-.55,1.2-.42a24.75,24.75,0,0,1,2.48,2.83,12,12,0,0,1,1.12,2c.79,1.57,1.63,3.11,2.31,4.72.37.88,0,1.52-1,1.78a44.54,44.54,0,0,0-5.15,1.62,1.74,1.74,0,0,0-.69,1.4c.1,4.81.19,9.62.45,14.42.18,3.16.65,6.31,1,9.47.07.72.07,1.45.11,2.18Zm-38.22-45.26c-1.52.4-3.09.78-4.64,1.25-3.94,1.21-7.85,2.48-11.79,3.68-2,.61-4,1.09-6,1.66-.25.07-.6.36-.62.57s.27.55.5.7a4.92,4.92,0,0,0,1,.39c3.82,1.54,7.66,3,11.43,4.65s7.72,3.62,11.64,5.28c2.06.87,4.22,1.86,6.57,1,4-1.43,8.11-2.81,12.1-4.39,4.42-1.75,8.76-3.69,13.11-5.59.41-.17.68-.64,1-1-.36-.29-.69-.73-1.1-.83-3.22-.75-6.46-1.44-9.7-2.14-5.14-1.12-10.29-2.21-15.42-3.35C869.35,378.42,866.72,377.74,863.92,377.06ZM838.13,394.9a7.43,7.43,0,0,0,1.31,2.45,9.35,9.35,0,0,0,2.83,1.19l6.71,2.54a29,29,0,0,0,4.31,1.58c3.9.79,7.83,1.37,11.75,2,1.88.32,2.94-.32,3.47-2.08.11-.39.3-.77.41-1.16.68-2.51.88-2.48-1.83-3.75-3-1.37-6-2.46-8.94-3.91-5.85-2.9-11.62-5.92-18.08-7.31-.94-.2-1.36,0-1.42,1C838.51,389.85,838.32,392.23,838.13,394.9Zm60,7.41h-.06c0-1.23,0-2.45,0-3.68-.06-2-.68-2.3-2.48-1.44a5.61,5.61,0,0,1-.88.36c-.87.26-1.06.87-1,1.69.28,2.51.65,5,.75,7.54a38.29,38.29,0,0,1-.24,6.51c-.51,4-1.09,8.09-1.87,12.09-.66,3.4-.15,3.4,3.34,3.32a2.71,2.71,0,0,0,.4,0c1.47-.26,1.82-.81,1.52-2.27a5.94,5.94,0,0,1-.21-1.61c.18-2.16.42-4.32.65-6.48a47.43,47.43,0,0,0,.6-5.53C898.63,409.28,898.33,405.8,898.14,402.31Zm-60.67,24.06c.19-.16.76-.4.95-.81,1.05-2.26,2.1-4.52,3-6.84,1.15-3.05,2.15-6.15,3.19-9.24q1-3,1.92-5.93a1.19,1.19,0,0,0-.87-1.69,10.45,10.45,0,0,1-1.52-.87c-1.44-.77-2.32-.33-2.62,1.28a12,12,0,0,1-.31,1.32q-1.6,5.4-3.24,10.8a19,19,0,0,1-.87,2.43c-.91,1.95-2,3.82-2.79,5.81S835,426.42,837.47,426.37Zm31.62-17.82c0-1.78-.27-2.27-1.11-2.24-1.09,0-1.85,1.06-1.84,2.46,0,.13.05.27,0,.4a14.73,14.73,0,0,1-.13,1.76c-.38,2.27-.83,4.54-1.19,6.82-.72,4.56-1.46,9.12-2.06,13.7a20.35,20.35,0,0,0,0,5.23c.08.56,1.18,1.33,1.85,1.38.82.06,2-.08,2.22-1.34.29-1.79.65-3.57.79-5.37.2-2.71.17-5.44.35-8.16C868.33,418.31,868.73,413.43,869.09,408.55Zm35.6-19.68L903,392.15a2,2,0,0,0,2.44-1.21A1.55,1.55,0,0,0,904.69,388.87Zm-1.07-2a13.34,13.34,0,0,0-1.5-1.26c-.06,0-.51.56-.77.86a10.94,10.94,0,0,0,1.31,1.07C902.76,387.63,903.13,387.26,903.62,386.9Z"/><path d="M851.72,399c-.5.15-1.08.55-1.5.42-2-.6-4-1.28-6-2.07-.4-.16-.57-.88-.85-1.35.45-.22.89-.63,1.33-.63a6.15,6.15,0,0,1,2,.46,33.58,33.58,0,0,1,3.55,1.33,8.1,8.1,0,0,1,1.57,1.27Z"/><path d="M851.44,395c0-1.59.6-2,1.68-1.6.89.31,1.82.53,2.68.92a3.27,3.27,0,0,1,1.19,1.09,1,1,0,0,1,0,1,1.55,1.55,0,0,1-1.09.19,23.54,23.54,0,0,1-3.25-.73A4.28,4.28,0,0,1,851.44,395Z"/></svg>