<svg id="Camada_1" data-name="Camada 1" xmlns="http://www.w3.org/2000/svg" viewBox="0 0 1080 1080"><defs><style></style></defs><path class="cls-1" d="M796.59,541.41C851.32,488.19,906,448.27,960.76,418.83,900,384,839.25,367.1,778.49,359.3c17.21-47.54,34.42-92.39,51.63-135.86a1094.55,1094.55,0,0,0-182.84,63c-28.48-50.3-57-101.19-85.44-157.48-23.71,46.83-47.42,97.86-71.13,150.73-49.21-31.46-98.41-68.83-147.61-111q1.45,133.05,2.93,254.71C285,437.33,224,444,162.93,434.72c30.24,39.39,60.48,75.77,90.73,108.36-44.81,28.17-89.62,48.2-134.42,59.25C196.78,662,274.32,689.92,351.86,706.14Q333.58,808.29,315.3,898.48C353.39,881.24,391.49,862,429.58,840c12.78,36.51,25.55,73.18,38.33,111,41.62-54,83.24-117.54,124.86-184.78,71.87,27.7,143.75,65.73,215.62,111-9.28-62.55-18.55-123.34-27.83-181.89,42.23.43,84.46,4.93,126.69,15.59C870.37,650.22,833.48,592.52,796.59,541.41Z"/></svg>