<svg id="Camada_1" data-name="Camada 1" xmlns="http://www.w3.org/2000/svg" viewBox="0 0 1920 332"><defs><style>.cls-1{font-size:27.45px;font-family:Serifa-Reg, Serifa;}.cls-2{letter-spacing:-0.02em;}.cls-3{letter-spacing:-0.01em;}.cls-4{letter-spacing:0em;}.cls-5{letter-spacing:0em;}.cls-6{letter-spacing:-0.02em;}.cls-17,.cls-7{letter-spacing:0em;}.cls-8{letter-spacing:0em;}.cls-9{letter-spacing:0em;}.cls-10{letter-spacing:-0.02em;}.cls-11{letter-spacing:-0.02em;}.cls-12,.cls-13,.cls-14,.cls-15,.cls-16,.cls-17,.cls-18,.cls-19,.cls-20,.cls-29{font-family:Serifa-Bol, Serifa;}.cls-12{letter-spacing:-0.01em;}.cls-13{letter-spacing:0em;}.cls-14{letter-spacing:0em;}.cls-15{letter-spacing:0em;}.cls-16{letter-spacing:0em;}.cls-18{letter-spacing:-0.01em;}.cls-19{letter-spacing:0em;}.cls-20{letter-spacing:0em;}.cls-21{font-size:45.29px;font-family:FuturaPT-ExtraBold, Futura PT;font-weight:800;}.cls-22{letter-spacing:-0.02em;}.cls-23{letter-spacing:-0.02em;}.cls-24{letter-spacing:-0.01em;}.cls-25{letter-spacing:0em;}.cls-26{letter-spacing:-0.03em;}.cls-27{letter-spacing:0em;}.cls-28{fill:#f5b243;}.cls-29{font-size:36.4px;}</style></defs><path d="M325.59,107.63v-.21c0-.72-.11-1.45-.16-2.18,0-.45,0-.91,0-1.36s0-.89.06-1.32a3.87,3.87,0,0,0,0-1c0-.32-.05-.64-.06-1a2.07,2.07,0,0,0-.13-.85,1.28,1.28,0,0,1-.06-.34c-.07-.39-.16-.77-.21-1.15a2.91,2.91,0,0,1-.06-1.06.66.66,0,0,0-.08-.45c-.1-.21-.19-.43-.29-.67a2.76,2.76,0,0,0,.27-.17c.11-.09.1-.26,0-.28a.83.83,0,0,1-.55-.43c-.2-.33-.39-.67-.57-1a5.36,5.36,0,0,0-.58-.83c-.56-.35-1-.88-1.59-1.18-.07,0-.13-.1-.21-.14a4.82,4.82,0,0,0-1.54-.76,2.89,2.89,0,0,1-.72-.23,1.21,1.21,0,0,0-.63-.16.66.66,0,0,1-.56-.19.37.37,0,0,0-.22-.1,6.12,6.12,0,0,1-.86-.1A13.18,13.18,0,0,0,315,90.4l-.55,0c-.57,0-1.15,0-1.72.07a2.1,2.1,0,0,1-.75,0,.4.4,0,0,0-.25.06,3.39,3.39,0,0,1-1.09.2,4.25,4.25,0,0,0-1.93.35c-.46.14-.89.34-1.34.5a3.45,3.45,0,0,0-.91.43,1.31,1.31,0,0,1-.62.21,2.62,2.62,0,0,0-1,.29,3.8,3.8,0,0,0-1.07.93.87.87,0,0,1-.23.27,2.19,2.19,0,0,0-.91,1.18c-.13.37-.35.7-.48,1.07a3.74,3.74,0,0,0-.24,1.08,5.87,5.87,0,0,1-.18,1.1c0,.23-.1.46-.12.69s-.07.75-.09,1.12-.06.81-.06,1.22,0,1,.05,1.52c0,.22,0,.44,0,.66,0,.79,0,1.59,0,2.38,0,.24,0,.48,0,.71a10.29,10.29,0,0,0,0,1.36,9.33,9.33,0,0,1,.33,1.9s0,.09,0,.14.05.3.08.45,0,.3.07.45a7.71,7.71,0,0,0,.33,1.23c.08.24.16.47.26.71a6.62,6.62,0,0,0,.6,1.33,1.55,1.55,0,0,0,.51.81l.89.83a4,4,0,0,0,1.58,1,2.3,2.3,0,0,1,.6.27,1.28,1.28,0,0,0,.47.18l2,.5a3.5,3.5,0,0,0,.55.09,10.93,10.93,0,0,1,2,.07h0a6.67,6.67,0,0,1,1.67,0,1,1,0,0,0,.3,0c.48-.1,1,0,1.46-.09s1.05-.09,1.56-.24.9-.13,1.35-.23a5.12,5.12,0,0,0,1.84-.84l.31-.16a10,10,0,0,0,1.14-.54,9.1,9.1,0,0,0,1-.84c.19-.17.33-.41.54-.53a1.94,1.94,0,0,0,.58-.56l.56-.78a4.7,4.7,0,0,0,.46-.73c.21-.46.36-1,.57-1.41a1.81,1.81,0,0,0,.17-.94c0-.05,0-.1,0-.15C325.59,109.12,325.52,108.37,325.59,107.63Zm-15.11-1.37a1.09,1.09,0,0,1-.3.07,4.8,4.8,0,0,0-1.5.24.31.31,0,0,1-.39-.15.35.35,0,0,0-.25-.15,2,2,0,0,1-1.05-.58,4,4,0,0,1-.48-.53,1.46,1.46,0,0,1-.36-1.22,1.8,1.8,0,0,0,0-.33,3,3,0,0,1,1.14-.87,1.84,1.84,0,0,1,1.18-.22.77.77,0,0,0,.25,0,13.69,13.69,0,0,1,1.92-.06.49.49,0,0,0,.21,0,1.37,1.37,0,0,1,.49-.13l-.1.1a2.35,2.35,0,0,0,.45,3.57,1.54,1.54,0,0,0,.19.17l-.28,0A4.21,4.21,0,0,0,310.48,106.26ZM321.12,105a.73.73,0,0,1-.38.46,6.4,6.4,0,0,1-.95.36,2.42,2.42,0,0,1-1.1.13.46.46,0,0,0-.2,0,8.41,8.41,0,0,1-1.66.24c-.54.06-1.07,0-1.61,0a3.84,3.84,0,0,0-.76-.06,2.48,2.48,0,0,0,.93-1.37,2.58,2.58,0,0,0-.75-2.49,3.78,3.78,0,0,0,1.41.18,9,9,0,0,1,.91-.1h.45a1.34,1.34,0,0,0,.35-.05,1.28,1.28,0,0,1,.55-.09.64.64,0,0,0,.24,0,1.75,1.75,0,0,1,1.15,0,.68.68,0,0,1,.56.39.29.29,0,0,0,.08.13,2.86,2.86,0,0,1,.7,1.17A1.52,1.52,0,0,1,321.12,105Z"/><path d="M341.61,168.77c.64.29,1.22.51,1.75.8a6,6,0,0,1,1.74,1.13,2,2,0,0,1,.41.64,5.22,5.22,0,0,0,.25.61,1.11,1.11,0,0,1,.13.48.68.68,0,0,0,.06.29,2.78,2.78,0,0,1,.26.88,2,2,0,0,0,.2.68,2,2,0,0,1,0,1.53c-.12.36-.27.7-.36,1.07a7.65,7.65,0,0,1-.44,1c-.37.39-.63.88-1,1.24s-.69.71-1.07,1a2.83,2.83,0,0,1-1.43.72,4.11,4.11,0,0,0-.82.26,2.92,2.92,0,0,1-.38.14,6.52,6.52,0,0,0-1.43.36.81.81,0,0,1-.35,0,12,12,0,0,0-1.47,0,1.09,1.09,0,0,0-.31,0,2.83,2.83,0,0,1-1,.12,6.74,6.74,0,0,0-1.27,0,2.3,2.3,0,0,1-.45,0,.71.71,0,0,0-.2,0l-1,.13-1.12.08c-.33,0-.67,0-1,0l-1,0a2.52,2.52,0,0,1-.91-.06.34.34,0,0,0-.2,0,7,7,0,0,1-1.37.05c-.42,0-.84.08-1.27.1a21.78,21.78,0,0,1-2.28.13,1.36,1.36,0,0,1-.44-.11.52.52,0,0,1-.3-.39,2.47,2.47,0,0,1-.1-.81,1.42,1.42,0,0,0,0-.35c0-.25,0-.5,0-.76a2.38,2.38,0,0,0,.05-.45c-.07-.44-.08-.88-.15-1.31a6.75,6.75,0,0,1-.05-1.42c0-.42,0-.85.08-1.27a15.77,15.77,0,0,0,0-2.28,4.11,4.11,0,0,0-.06-1.16.26.26,0,0,1,0-.15,3.41,3.41,0,0,0,0-1c0-.56,0-1.12,0-1.68s0-1.09,0-1.63c0-.17,0-.34,0-.5s0-.34,0-.51a9.67,9.67,0,0,0-.07-1.52,15.82,15.82,0,0,1-.13-2.58,9.1,9.1,0,0,0,.05-1.73,4.58,4.58,0,0,0,0-1.11c0-.27,0-.54,0-.81s-.05-.5,0-.75a5.72,5.72,0,0,0,0-1.17l-.27-.25a3.17,3.17,0,0,1,.16-.37.38.38,0,0,1,.28-.21l1.6-.24a3.59,3.59,0,0,1,.46.05,9.29,9.29,0,0,0,1.06,0c.33,0,.67,0,1,0a3.43,3.43,0,0,0,1.06-.07.77.77,0,0,1,.25,0,.71.71,0,0,0,.25,0,7,7,0,0,1,1.52,0h.21c.88-.08,1.76,0,2.64,0a1.39,1.39,0,0,1,.41,0,3.09,3.09,0,0,0,1,.07h2a5.29,5.29,0,0,1,.56.05l.61,0a2.91,2.91,0,0,0,.65.06,1.62,1.62,0,0,1,.59.08,3.4,3.4,0,0,0,.46.07c.2,0,.39.08.59.12a9.73,9.73,0,0,1,1.15.39l1,.36a.62.62,0,0,1,.27.13,3.07,3.07,0,0,0,1,.58,3.4,3.4,0,0,1,1.06.85,3.79,3.79,0,0,1,.86,1.54,1.45,1.45,0,0,1,0,.3,2,2,0,0,0,.08.55,3.59,3.59,0,0,1,.16,1.56,1.42,1.42,0,0,0,0,.41,3.83,3.83,0,0,1,0,1.35,1,1,0,0,1-.12.33,11.94,11.94,0,0,1-.67,1.07,12.46,12.46,0,0,1-.85,1.07,6.73,6.73,0,0,1-.82.68,1.93,1.93,0,0,0-.35.29,2.25,2.25,0,0,1-.91.64A4.27,4.27,0,0,0,341.61,168.77ZM332.85,176a3,3,0,0,1,1.12,0,3.62,3.62,0,0,0,.8.08,4.24,4.24,0,0,0,1.63-.54.35.35,0,0,0,.11-.1,3.26,3.26,0,0,0,.57-1.39,1.38,1.38,0,0,0-.24-1.34.56.56,0,0,0-.2-.23c-.36-.17-.73-.32-1.1-.47,0,0,0,0-.05,0-.34-.06-.68,0-1-.07s-.6,0-.9,0l-.3,0c-.25,0-.34.09-.33.33,0,.55.08,1.11.11,1.66a3.75,3.75,0,0,1-.17,1.66A1.42,1.42,0,0,0,332.85,176Zm.15-10.92v.75a.27.27,0,0,0,.24.29,4.71,4.71,0,0,0,.75,0,7.38,7.38,0,0,1,.81-.07,1.29,1.29,0,0,0,.77-.22c.23-.14.43-.33.65-.48a.75.75,0,0,0,.33-.59,7.47,7.47,0,0,1,.17-1.14,1.39,1.39,0,0,0,0-.61.71.71,0,0,0-.6-.61,4.47,4.47,0,0,1-.63-.16.85.85,0,0,0-.5,0,.6.6,0,0,1-.35,0,6.78,6.78,0,0,0-1.56,0,.28.28,0,0,0-.27.36,2.53,2.53,0,0,1,0,.91,1,1,0,0,0,.05.39A3.5,3.5,0,0,1,333,165.06Z"/><path d="M381.35,172.77a3.39,3.39,0,0,0,0,.53c.07.54.19,1.07.25,1.61a4.71,4.71,0,0,1,0,1.06c0,.44-.12.88-.18,1.31a8.77,8.77,0,0,0,0,1.62c0,.27,0,.54,0,.82s0,.5,0,.75a.66.66,0,0,1,0,.25.64.64,0,0,0,0,.49c.09.33,0,.49-.31.59a4.72,4.72,0,0,1-1.54.29c-.63,0-1.25-.11-1.88-.1a19.65,19.65,0,0,0-2,0,7.31,7.31,0,0,1-1.05-.06c-.29,0-.57,0-.86-.05l-.3,0s-.06,0-.09,0c-.38.08-.72-.13-1.09-.16s-.46-.19-.46-.49c0-.12,0-.23,0-.35a7.85,7.85,0,0,0,0-1,2.43,2.43,0,0,1,0-.66,1.6,1.6,0,0,0,0-.84.37.37,0,0,1,0-.11,15.47,15.47,0,0,0-.12-1.92,13.68,13.68,0,0,1,0-1.57,6.27,6.27,0,0,0,0-1.06,27.09,27.09,0,0,1,0-2.85c0-.24.06-.47.07-.71a2,2,0,0,0,0-.55c-.09-.45-.05-.91-.12-1.36a1.77,1.77,0,0,1,.18-.83,1.29,1.29,0,0,0,0-.8,1.65,1.65,0,0,1,0-.7,2.12,2.12,0,0,0,0-.71c-.05-.33,0-.68-.07-1a3.21,3.21,0,0,1,.11-1.41,1.91,1.91,0,0,0,0-.86c0-.28,0-.57-.05-.85s0-.27-.06-.4-.05-.11,0-.15a3.78,3.78,0,0,0-.06-1.21,1,1,0,0,1,0-.3.69.69,0,0,0,0-.45.39.39,0,0,1,0-.3.51.51,0,0,0,0-.3,3,3,0,0,1-.05-1.16,1,1,0,0,1,.08-.29.42.42,0,0,1,.66-.21,1.56,1.56,0,0,1,.21.18c.44,0,.9-.09,1.35-.11.61,0,1.23,0,1.84,0,.12,0,.24,0,.35,0a3.25,3.25,0,0,1,.81-.09,6.42,6.42,0,0,0,.76,0c.37,0,.74,0,1.11,0a1.45,1.45,0,0,0,.55,0,.44.44,0,0,1,.16,0,6.74,6.74,0,0,0,1,.08,5.88,5.88,0,0,0,1.57-.08,2.45,2.45,0,0,1,.81,0,2.1,2.1,0,0,0,.56,0,.53.53,0,0,1,.25,0,1,1,0,0,0,.6,0,1.35,1.35,0,0,1,.35,0,5.3,5.3,0,0,0,1.32,0c.07,0,.16,0,.25,0l.71,0,.4,0,.35,0,.29,0a1.08,1.08,0,0,0,.3,0,2.16,2.16,0,0,1,.76.07,8.32,8.32,0,0,1,.85.13c.2,0,.39.11.59.17a3.89,3.89,0,0,1,1.85,1.27,9.91,9.91,0,0,0,1.06,1.09,7.23,7.23,0,0,1,.74.9.22.22,0,0,1,.06.13,1.92,1.92,0,0,0,.2.68,11.38,11.38,0,0,1,.35,1.27,7.25,7.25,0,0,1,.08,1.47,3.53,3.53,0,0,1-.15.84,2.91,2.91,0,0,1-.26.77,2,2,0,0,0-.16.43,2.93,2.93,0,0,1-.29.59,6.1,6.1,0,0,0-.37.72c0,.07-.07.17-.13.21a2.43,2.43,0,0,0-.61.67,1.18,1.18,0,0,1-.41.29c-.37.21-.74.41-1.1.63s-.53.35-.8.52c.75.46,1.47.87,2.16,1.32a2.1,2.1,0,0,1,.84,1,3.52,3.52,0,0,1,.37,1.09.48.48,0,0,0,.07.2,1.37,1.37,0,0,1,.16.93,1.35,1.35,0,0,0,.06.49,2.84,2.84,0,0,1,.11.71c0,.4,0,.81,0,1.21a.76.76,0,0,0,0,.26,4.42,4.42,0,0,1,0,1.31,1.5,1.5,0,0,0,0,.2,10.54,10.54,0,0,1,.06,1.37,1.61,1.61,0,0,0,.44,1,7,7,0,0,0,.67.55c.32.24.32.24.19.68a1.06,1.06,0,0,1-.78.12c-.23.23-.5.13-.77.1a3.53,3.53,0,0,0-.65,0c-.31,0-.61.06-.91.1h-.15a7.84,7.84,0,0,0-1.37,0,3.68,3.68,0,0,1-.65-.11,2.46,2.46,0,0,0-1-.07c-.3.06-.59-.09-.9-.07s-.91.06-1.37.08a1.17,1.17,0,0,0-.57.19.56.56,0,0,1-.52,0,1.09,1.09,0,0,1-.79-1,6,6,0,0,1,0-.61c0-.22,0-.44,0-.65s-.05-.14,0-.2c.09-.68-.1-1.35-.06-2a7.26,7.26,0,0,0,0-1.32c0-.34-.16-.66-.23-1a12.9,12.9,0,0,0-.42-1.47,1.33,1.33,0,0,0-.68-.84,1.59,1.59,0,0,0-.79-.3.35.35,0,0,1-.2-.05,1,1,0,0,0-1,.06A1.69,1.69,0,0,1,381.35,172.77Zm.27-5.93a6.64,6.64,0,0,1,.93-.15,4.42,4.42,0,0,0,.8-.12,2.31,2.31,0,0,0,1.34-.74,1.49,1.49,0,0,0,.37-.64c.05-.25.07-.51.1-.76a.41.41,0,0,0,0-.15c0-.13-.06-.26-.1-.39a9.06,9.06,0,0,0-.34-1,1.1,1.1,0,0,0-1-.71c-.16,0-.31,0-.46,0a7.23,7.23,0,0,1-1.47-.05c-.07,0-.16.05-.24.08a9.82,9.82,0,0,0-.12,1.62c0,.36,0,.71,0,1.07a8.19,8.19,0,0,1,0,1.11,3.31,3.31,0,0,0,0,.45A.42.42,0,0,0,381.62,166.84Z"/><path d="M366,137.93a1.19,1.19,0,0,0,.26-.64,10.49,10.49,0,0,1,.13-1.11c0-.23.05-.47,0-.71a12.44,12.44,0,0,1,.18-2.11c0-.22,0-.44,0-.66,0-.51,0-1,.05-1.53,0-.27.05-.54,0-.81a5.28,5.28,0,0,1,.35-1.62,2.25,2.25,0,0,0,.09-.35,4,4,0,0,1,.26-1.13c.07-.21.1-.43.16-.64a1.38,1.38,0,0,1,.08-.29c.14-.35.31-.68.42-1s.12-.6.18-.89a4.88,4.88,0,0,1,.12-.55.36.36,0,0,1,.46-.29,3.11,3.11,0,0,0,1.6-.16,2.74,2.74,0,0,1,.5-.08,5.3,5.3,0,0,1,1.26-.06,2.63,2.63,0,0,0,.61-.06c.25,0,.5-.06.76-.06a10.8,10.8,0,0,0,2-.1,4.33,4.33,0,0,1,.72,0c.34,0,.68,0,1,0a.78.78,0,0,1,.75,1,2.8,2.8,0,0,0-.17.63,5.11,5.11,0,0,1-.22.62,1,1,0,0,0-.11.59,1.07,1.07,0,0,1-.18.62,1.09,1.09,0,0,0-.19.63,1.05,1.05,0,0,1-.06.24c-.19.71-.38,1.41-.55,2.12a13.89,13.89,0,0,1-.39,1.36,4.7,4.7,0,0,0-.13.75L376,132c-.05.35-.09.71-.17,1.06-.12.57-.26,1.15-.42,1.72s-.44,1.42-.66,2.13c0,.1,0,.2-.05.3a.6.6,0,0,1,0,.2,3.29,3.29,0,0,0-.29.92c-.13.4-.23.81-.34,1.21,0,.07,0,.14,0,.2-.16.5-.31,1-.49,1.49a4.93,4.93,0,0,1-.37,1.06.35.35,0,0,0,0,.14,1.41,1.41,0,0,1-.24.92,1.82,1.82,0,0,0-.21.78,1.32,1.32,0,0,1-.13.44,8.81,8.81,0,0,1-.53,1.37.25.25,0,0,0,0,.09c-.17.66-.35,1.31-.52,2a1.35,1.35,0,0,0,0,.45,5.63,5.63,0,0,0,0,1.16c0,.13-.07.22-.18.28a1.27,1.27,0,0,1-.74.15c-.45,0-.91-.11-1.37-.12-.61,0-1.21-.14-1.82-.1s-1.39,0-2.09,0a15.54,15.54,0,0,0-1.93,0c-.45-.2-.91,0-1.36,0s-.61,0-.92,0a1.3,1.3,0,0,0-.55.06.53.53,0,0,1-.53-.06.59.59,0,0,1-.24-.43,7.35,7.35,0,0,0-.32-.85l-.39-1.15c-.18-.53-.36-1.06-.53-1.59a3.87,3.87,0,0,1-.13-.59,4,4,0,0,0-.25-.93,8.9,8.9,0,0,1-.41-1.36,1.63,1.63,0,0,0-.16-.47,3.85,3.85,0,0,1-.27-.81c-.12-.43-.21-.86-.32-1.28a8.64,8.64,0,0,1-.29-1.08,7.21,7.21,0,0,0-.29-1.38c-.1-.38-.2-.78-.28-1.18a.65.65,0,0,1,0-.19,12.07,12.07,0,0,0-.31-1.59,10.67,10.67,0,0,1-.31-1.85.78.78,0,0,0-.07-.35,2.65,2.65,0,0,1-.23-1,2.34,2.34,0,0,0-.2-.67,1.83,1.83,0,0,1-.18-.73,9,9,0,0,0-.39-1.69.42.42,0,0,0-.08-.18,2.31,2.31,0,0,1-.41-1,.65.65,0,0,0-.05-.2,4.83,4.83,0,0,1-.34-1.1.37.37,0,0,0,0-.15c-.35-.45-.4-1-.7-1.51a.68.68,0,0,1-.08-.24.46.46,0,0,1,.51-.57c.17,0,.34,0,.51,0a.67.67,0,0,1,.2,0,4.39,4.39,0,0,0,1.14.19,1.36,1.36,0,0,0,.45,0,.38.38,0,0,1,.21,0,8.34,8.34,0,0,0,1.42.09,2.26,2.26,0,0,0,.45,0,3.15,3.15,0,0,1,1,0,.34.34,0,0,0,.1,0c.6-.14,1.21-.1,1.81-.18s1-.07,1.56-.1a4.82,4.82,0,0,1,.85,0,.47.47,0,0,1,.44.35c.09.31.33.55.4.87a.94.94,0,0,1,.06.15,10.92,10.92,0,0,0,.33,1.37c.07.21.07.44.12.65.1.53.22,1.06.31,1.6.05.25.14.49.2.73a4.15,4.15,0,0,1,.24,1.6,11.61,11.61,0,0,0,.12,1.77,17.74,17.74,0,0,1,.42,2.61,2.17,2.17,0,0,0,.07.35c.14.64.28,1.29.43,1.93A2,2,0,0,0,366,137.93Z"/><path d="M316.87,132.9a2.36,2.36,0,0,1,.33,1.51.69.69,0,0,0,0,.2,6.17,6.17,0,0,1,0,1.82c0,.15,0,.3,0,.45l-.06.6a7.59,7.59,0,0,0,0,1.43.74.74,0,0,1-.78.85,5.56,5.56,0,0,0-1,.1,4,4,0,0,1-.91,0,5.82,5.82,0,0,0-1.32.08.17.17,0,0,1-.1,0,3.8,3.8,0,0,0-1,0,8.31,8.31,0,0,1-.86-.07c-.18,0-.36-.06-.55-.06a8.08,8.08,0,0,0-.85,0c-.11,0-.17.11-.19.22a3.12,3.12,0,0,0-.09.85,6.19,6.19,0,0,1,0,1.06v.51a2,2,0,0,0,1,.21,16.65,16.65,0,0,1,1.73,0,8.53,8.53,0,0,0,1,0,2.31,2.31,0,0,1,.9.12,1.14,1.14,0,0,0,.45.05,2.78,2.78,0,0,1,.91,0,.67.67,0,0,0,.2,0,7.43,7.43,0,0,1,.81-.09c.51,0,1,0,1.52,0a.55.55,0,0,1,.59.45,1,1,0,0,1,0,.74c0,.06,0,.16,0,.25a3.2,3.2,0,0,1-.11,1.15,2.71,2.71,0,0,0-.09,1.1,4.5,4.5,0,0,1,0,.82,2.68,2.68,0,0,0,0,.4,11,11,0,0,0,.11,1.14c.07.32-.33.76-.66.79a1.83,1.83,0,0,1-.9,0,.29.29,0,0,0-.16,0,5.54,5.54,0,0,1-1.15,0c-.22,0-.44,0-.66,0s-.51-.09-.76-.08-.46.07-.7.08a16.15,16.15,0,0,0-2,.12,1.15,1.15,0,0,1-.26,0,1.9,1.9,0,0,0-1,.1,1,1,0,0,1-.35.06,12.47,12.47,0,0,1-1.62.08,2,2,0,0,0-.6.06,3.11,3.11,0,0,1-.86.05l-1.63-.06-.86,0c-.49,0-1-.1-1.47-.11s-.81,0-1.22.05c-.2,0-.4,0-.6,0l-1.06,0a1.68,1.68,0,0,1-.4-.05.5.5,0,0,1-.41-.47,7.71,7.71,0,0,1,0-1,7.1,7.1,0,0,0,0-1.22,3.66,3.66,0,0,1,0-.66c.05-.57.19-1.13.22-1.71a9.48,9.48,0,0,1,0-1.41,1,1,0,0,0-.07-.5,2.71,2.71,0,0,1-.2-1.09c0-.17,0-.33,0-.5,0-.74.19-1.44.22-2.17,0-.24,0-.48,0-.71a6.57,6.57,0,0,1,0-.77,11,11,0,0,0,0-1.62,3.61,3.61,0,0,1,0-.66,6.1,6.1,0,0,0,.11-1.41c0-.68-.05-1.36,0-2,0-.4,0-.81,0-1.22s0-.67,0-1a1.11,1.11,0,0,0,0-.26,7.79,7.79,0,0,1-.2-1.86,1.58,1.58,0,0,0,0-.31,5.23,5.23,0,0,1-.07-1.37c0-.46,0-.92,0-1.38a.68.68,0,0,0-.11-.33.6.6,0,0,1,.41-.9,2,2,0,0,1,.65,0,6.48,6.48,0,0,0,1.46,0,2.08,2.08,0,0,1,.61,0,7,7,0,0,0,1.12,0l1.32,0c.25,0,.51,0,.76,0a4.73,4.73,0,0,0,1.3,0,.5.5,0,0,1,.21,0,3.51,3.51,0,0,0,1.21,0,3.55,3.55,0,0,0,.65,0,6.25,6.25,0,0,1,1-.1c.22,0,.44,0,.66,0a7.72,7.72,0,0,0,1.52,0,2,2,0,0,1,.35,0,3.69,3.69,0,0,0,.66,0,14,14,0,0,1,2.33,0c.32,0,.64,0,1,0a6.78,6.78,0,0,0,.9,0,2.18,2.18,0,0,1,.92.26.26.26,0,0,1,.15.25c0,.26,0,.51,0,.76l.06,1.22a2.25,2.25,0,0,0,.06.36,1.11,1.11,0,0,1-.07.69,5.47,5.47,0,0,0-.15.58,2.93,2.93,0,0,0-.14,1.1,3.81,3.81,0,0,0,.07,1.21.51.51,0,0,1-.56.61c-.3,0-.57.09-.86.05s-.54,0-.81,0-.61,0-.91-.05a8,8,0,0,0-2.19.06c-.33.06-.66.11-1,.15a2.26,2.26,0,0,1-.45,0l-.15,0a4.23,4.23,0,0,0-1.53.18,3.53,3.53,0,0,1-.17.82,4.23,4.23,0,0,0-.06.81c.09.06.16.14.23.14a4.92,4.92,0,0,0,1.15.1,1.75,1.75,0,0,1,.56,0c.35,0,.7.11,1.05.14a5.49,5.49,0,0,0,.81,0c.54,0,1.09,0,1.63,0s.81-.08,1.21-.08A1.62,1.62,0,0,1,316.87,132.9Z"/><path d="M300.35,106.35a2.09,2.09,0,0,1,.42,1.43,1.37,1.37,0,0,0,0,.35,6.83,6.83,0,0,1,.08,2.21c-.05.56-.22,1.1-.23,1.66a3.66,3.66,0,0,1-.2.79,7.09,7.09,0,0,1-.37,1.27,9.06,9.06,0,0,1-.59,1.11,2.67,2.67,0,0,1-.86.78c-.29.18-.61.31-.91.46a.69.69,0,0,0-.17.1c-.39.34-.87.53-1.28.83a.25.25,0,0,1-.14.06c-.48.07-.93.29-1.43.33a3,3,0,0,0-1.26.33,1.3,1.3,0,0,1-.48.16c-.5.06-1,.09-1.52.14s-.87.08-1.31.15a2.76,2.76,0,0,1-1.45-.08c-.35-.12-.72-.2-1.08-.3-.14,0-.28-.11-.42-.16a1.31,1.31,0,0,0-.28-.12,4.66,4.66,0,0,1-1.25-.55,1.38,1.38,0,0,1-.25-.17,1.59,1.59,0,0,0-.21-.15l-1.71-1.09a9.72,9.72,0,0,1-1.06-.7,4.53,4.53,0,0,1-.61-.75c-.06-.08-.08-.19-.15-.26a4.37,4.37,0,0,1-.84-1.83,3.9,3.9,0,0,0-.17-.48c-.07-.16-.15-.3-.22-.46a3.43,3.43,0,0,0-.36-.78.88.88,0,0,1-.12-.28,1.61,1.61,0,0,0-.22-.67.33.33,0,0,1-.05-.2c0-.37-.17-.72-.12-1.1a1,1,0,0,0,0-.3c-.06-.3-.11-.61-.17-.9a5.62,5.62,0,0,0-.19-.58A1.47,1.47,0,0,1,279,106a2.62,2.62,0,0,0-.17-1.24c0-.06-.07-.14-.05-.19.11-.47-.1-.94,0-1.4a3.84,3.84,0,0,1,.07-1.31,1,1,0,0,1,.07-.35,1.29,1.29,0,0,0,0-.7,1.77,1.77,0,0,1,0-.46,2.4,2.4,0,0,1,.4-1.13.67.67,0,0,0,.13-.38,3.07,3.07,0,0,1,.27-1.08,5,5,0,0,0,.38-1.26,1.38,1.38,0,0,1,.23-.67.54.54,0,0,0,.07-.19,4.41,4.41,0,0,1,.56-1.3,2.3,2.3,0,0,1,.77-.81l.61-.43a1.43,1.43,0,0,1,.3-.2,2.86,2.86,0,0,0,.8-.62,3.64,3.64,0,0,1,1.66-.91c.5-.1,1-.17,1.51-.26a2.47,2.47,0,0,0,.29-.06,6.36,6.36,0,0,1,.93-.24c.36,0,.69-.15,1-.22a2.45,2.45,0,0,1,.66,0c.27,0,.54,0,.81,0a3.93,3.93,0,0,1,.6.07,4.9,4.9,0,0,0,1.26.17,8.43,8.43,0,0,1,.86.11c.22,0,.44,0,.65.07a18.79,18.79,0,0,1,2.2.59,7.56,7.56,0,0,1,1.11.63c.3.18.59.38.9.54a3.66,3.66,0,0,1,1.26,1.09,1.51,1.51,0,0,0,.22.28,3.19,3.19,0,0,1,.9,1.38,6.88,6.88,0,0,1,.32,1c.09.5.14,1,.22,1.5a.36.36,0,0,1,0,.1c0,.56,0,1.12,0,1.68a.66.66,0,0,1,0,.25.46.46,0,0,0,0,.44.92.92,0,0,1,.09.28c0,.22.08.44.11.65a.62.62,0,0,1-.56.66,2.17,2.17,0,0,1-.36,0,4.18,4.18,0,0,0-.61-.05,8.52,8.52,0,0,1-1.52-.16c-.3,0-.6-.08-.91-.11-.05,0-.1,0-.15,0a5.14,5.14,0,0,0-1.66-.13,8.9,8.9,0,0,0-1.26.09l-.55.12a.56.56,0,0,1-.71-.39.36.36,0,0,1,0-.1,4.83,4.83,0,0,1,0-1.47c.05-.2.1-.39.14-.59a1.61,1.61,0,0,0,0-.31c0-.33-.09-.67-.1-1a.78.78,0,0,0-.37-.58.2.2,0,0,0-.14,0,5.51,5.51,0,0,0-.81,0,2.73,2.73,0,0,1-.7.07A.93.93,0,0,0,290,98l0,.1a2.15,2.15,0,0,0-.28,1.06c0,.36-.07.73,0,1.11s0,.92,0,1.38a1.33,1.33,0,0,1,0,.19,4.08,4.08,0,0,0-.08.85c0,.58.15,1.15.11,1.72a10.27,10.27,0,0,1-.06,1.47,1.61,1.61,0,0,0,0,.31c0,.4,0,.8,0,1.21a3.85,3.85,0,0,0,.18,1.11,2,2,0,0,1,.1.54,5.06,5.06,0,0,0,.51,2,.6.6,0,0,0,.55.39,2.74,2.74,0,0,0,.86,0,5.33,5.33,0,0,0,.88-.47s0,0,0,0c.16-.45.56-.83.47-1.36a.11.11,0,0,1,0,0,4.7,4.7,0,0,0-.31-2,.72.72,0,0,1,0-.25c0-.32.19-.55.49-.48a1.72,1.72,0,0,0,.9,0,1.53,1.53,0,0,1,.55,0,2.82,2.82,0,0,0,.71,0,6.78,6.78,0,0,1,1,0,1.13,1.13,0,0,0,.54-.1,5.06,5.06,0,0,1,2.8-.3C300,106.34,300.15,106.34,300.35,106.35Z"/><path d="M313,181.8a1.49,1.49,0,0,1-.67-1.12,4,4,0,0,0-.39-1.49.52.52,0,0,0-.41,0,1.87,1.87,0,0,1-.91,0,.39.39,0,0,0-.15,0,3.11,3.11,0,0,1-1,.06c-.52,0-1.05,0-1.57,0h-.26a.27.27,0,0,0-.27.3c0,.07,0,.14,0,.21a.46.46,0,0,1,0,.2,6.15,6.15,0,0,0-.14,1.21,2.28,2.28,0,0,1-.17.58.87.87,0,0,1-.9.42l-1.21-.42h-1.91a3.39,3.39,0,0,0-.55,0l-1.06.14a6.41,6.41,0,0,1-1.16.09,1.07,1.07,0,0,0-.35.06.68.68,0,0,1-.8-.26,3,3,0,0,1-.19-.3.63.63,0,0,1-.06-.67,1.38,1.38,0,0,0,.12-.64,3.38,3.38,0,0,1,.1-.71c.09-.36.19-.72.28-1.08s.13-.49.18-.74a4.4,4.4,0,0,1,.32-1,2.64,2.64,0,0,0,.16-1.15c0-.66.08-1.31.15-2a1.71,1.71,0,0,1,.28-.81,2.09,2.09,0,0,0,.3-.81c0-.11,0-.23.09-.34.29-.7.46-1.45.73-2.16.12-.35.24-.7.39-1a4.76,4.76,0,0,0,.21-.94c0-.11.06-.23.1-.34l.42-1.09a.81.81,0,0,0,.09-.29,8.21,8.21,0,0,1,.45-1.77c.11-.5.21-1,.32-1.49,0-.12.05-.24.07-.35a3.43,3.43,0,0,0,.23-.89c0-.3.1-.59.08-.9a1.62,1.62,0,0,1,.14-.8,2.36,2.36,0,0,0,.2-1,.78.78,0,0,1,.16-.53,2,2,0,0,0,.35-1.08c0-.32.1-.64.15-.93l.31-.27,1-.1a4.38,4.38,0,0,1,1.3-.11,9.89,9.89,0,0,1,1.72-.05c.42.16.86-.06,1.3.05a2.86,2.86,0,0,0,.76-.05,20.14,20.14,0,0,0,2.33-.19,1.09,1.09,0,0,1,.4,0,3,3,0,0,0,1.11.06.57.57,0,0,1,.67.23.45.45,0,0,1,.08.43.63.63,0,0,0,0,.3l.18,1.26c0,.21,0,.43.08.64a3.06,3.06,0,0,0,.13.6c.11.26.24.52.37.78a1.34,1.34,0,0,1,.13.27,1.62,1.62,0,0,0,.17.41,2.89,2.89,0,0,1,.23.72c.12.63.26,1.26.32,1.9a5.47,5.47,0,0,0,.38,1.48c.17.44.28.9.44,1.35a10.2,10.2,0,0,0,.41,1,10.88,10.88,0,0,1,.52,1.38c.05.16.12.31.18.47s0,.2.07.3.07.29.1.44a6.42,6.42,0,0,1,.26,1,5.14,5.14,0,0,0,.23.83,2.7,2.7,0,0,1,.12.49,3.41,3.41,0,0,0,.46,1.39,1.51,1.51,0,0,1,.21.72,3.58,3.58,0,0,0,.17.84,2.42,2.42,0,0,1,.11.8.83.83,0,0,0,.05.35c0,.05.05.1.05.14a11.7,11.7,0,0,0,.61,2.25,4,4,0,0,1,.34,1.52,3,3,0,0,0,.16.89,1.63,1.63,0,0,1,.08.44.51.51,0,0,1-.33.65,1.15,1.15,0,0,1-.44.09,6.12,6.12,0,0,0-1.42,0,3,3,0,0,0-1.11,0l-.25,0a3.28,3.28,0,0,1-1.46.07h-.15a3.44,3.44,0,0,1-1.11,0,12.33,12.33,0,0,0-1.92-.07C313.87,181.83,313.42,181.8,313,181.8Zm-3.29-16.13c-.05.05-.07.05-.08.07a5.34,5.34,0,0,1-.35,1.16c0,.06,0,.14,0,.2-.12.49-.06,1-.19,1.5a7.53,7.53,0,0,0-.16,1c-.06.54-.14,1.08-.15,1.62,0,.22,0,.44,0,.65a4.64,4.64,0,0,0,0,.64,7.3,7.3,0,0,0,2.11,0c0-.37-.05-.74-.1-1.1s-.16-.73-.22-1.1-.08-.71-.11-1.06a4.53,4.53,0,0,1-.06-.5,9.87,9.87,0,0,0-.22-1.72c0-.23-.08-.46-.11-.7A1,1,0,0,0,309.72,165.67Z"/><path d="M324.94,130.58l-2.16,0a2.39,2.39,0,0,1-1,0,10.57,10.57,0,0,0-1.12,0,4.07,4.07,0,0,0-1.58.3.36.36,0,0,1-.45-.16,1.8,1.8,0,0,1-.29-1,2.37,2.37,0,0,0,0-.65,1.6,1.6,0,0,1,0-.61c.06-.28.14-.55.2-.84a1.36,1.36,0,0,1,.15-.47.52.52,0,0,0,.08-.34,11.33,11.33,0,0,1-.12-1.42,1.13,1.13,0,0,0-.08-.24c0-.19-.06-.37-.08-.56a1.15,1.15,0,0,1,.38-.91.43.43,0,0,1,.26-.13,11.16,11.16,0,0,1,1.16-.16,1.51,1.51,0,0,0,.35-.06,1.42,1.42,0,0,1,.29,0,1,1,0,0,0,.6,0,1.66,1.66,0,0,1,.45,0c.62,0,1.26,0,1.87-.14s1,0,1.52,0a1.36,1.36,0,0,1,.4,0,11.64,11.64,0,0,0,1.86.13c1,0,1.94-.1,2.91,0a5,5,0,0,0,.76-.06,1.53,1.53,0,0,1,.3,0,8.83,8.83,0,0,0,1.26,0,9,9,0,0,0,1.27,0c.37,0,.74,0,1.12-.06a11.82,11.82,0,0,1,1.88.06,4.69,4.69,0,0,0,1.06,0c.22,0,.44,0,.66,0,.58,0,1.15,0,1.75-.07l.28.18s.07,0,.08.06c.08.36.43.67.24,1.1a.92.92,0,0,0-.07.59.34.34,0,0,1,0,.2,2.46,2.46,0,0,0-.05,1.11c0,.32-.06.64,0,1a6.14,6.14,0,0,1,0,1c0,.33.05.67.1,1a2.92,2.92,0,0,0,.22.54c0,.14,0,.32-.19.41a.88.88,0,0,1-.63.16l-.3-.05a3,3,0,0,0-1.31,0,.57.57,0,0,1-.29,0,3.5,3.5,0,0,0-1.12,0c-.23,0-.47.05-.71.05a6.77,6.77,0,0,0-1,.09,5.86,5.86,0,0,1-.63.06c0,.1-.05.19-.06.29,0,.38-.05.77-.08,1.16a.75.75,0,0,1,0,.2,5.45,5.45,0,0,0-.16,1.66c0,.31.06.61.08.91s0,.65,0,1a1.88,1.88,0,0,0,.12.7.66.66,0,0,1,.09.33,6.81,6.81,0,0,0,0,1,2.41,2.41,0,0,0,0,.6.29.29,0,0,1,0,.16c-.12.46-.09.94-.22,1.41a2.56,2.56,0,0,0,0,.83c0,.17.06.33-.05.48s-.06.12,0,.14c.19.3,0,.6,0,.9s0,.58,0,.86a17.16,17.16,0,0,0,0,2,2.36,2.36,0,0,1,0,.46A6,6,0,0,0,335,147a2.36,2.36,0,0,1,0,.46c0,.1,0,.2,0,.3,0,.31.05.61.06.91a.55.55,0,0,1-.44.55,2.55,2.55,0,0,1-.91.1.82.82,0,0,0-.35,0,4.61,4.61,0,0,1-1.61.13,6.23,6.23,0,0,1-1.22-.05.53.53,0,0,0-.25,0,12.63,12.63,0,0,0-1.5.23l-.1,0c-.57,0-1.13,0-1.69,0a5.59,5.59,0,0,1-1.15-.1.45.45,0,0,0-.29.06.48.48,0,0,1-.39,0c-.39-.12-.44-.2-.42-.62s0-.68,0-1,.05-.81.07-1.21,0-.78,0-1.17a1.17,1.17,0,0,1,.06-.45.61.61,0,0,0,0-.3,7.28,7.28,0,0,1,.09-1.92c.1-.6.16-1.2.21-1.81,0-.28.08-.56.08-.86a12.09,12.09,0,0,0-.07-1.21c0-.39-.06-.78-.07-1.17a5.17,5.17,0,0,0-.19-1.56,1.65,1.65,0,0,1,0-.45c0-.32-.09-.64-.12-1a7.92,7.92,0,0,1,0-1.82,17.69,17.69,0,0,0,.1-1.93C325,131,325,130.83,324.94,130.58Z"/><path d="M289.64,175.06a7.17,7.17,0,0,0,1,.15,13.43,13.43,0,0,0,1.42,0,2.47,2.47,0,0,1,.61,0l.15,0c.31,0,.59-.16.9-.15s.6,0,.91.05a4.29,4.29,0,0,1,.5.07,2.54,2.54,0,0,0,.95.09h.21a4.43,4.43,0,0,0,1.2-.1.7.7,0,0,1,.35,0c.5.12.63.27.6.78,0,.34-.11.67-.16,1s-.11.7-.17,1.05a3.68,3.68,0,0,0,.15,1.51,2.27,2.27,0,0,0,.06.25,4,4,0,0,1,.12,1.55,1.11,1.11,0,0,1-.49.75c-.53,0-1.11.1-1.68.08-.4,0-.8.06-1.2.07a3.61,3.61,0,0,1-1.31,0,.71.71,0,0,0-.25,0c-.6,0-1.19,0-1.79,0s-1.07.1-1.61.15a1.08,1.08,0,0,1-.31,0,2,2,0,0,0-.69,0,4.15,4.15,0,0,1-.86,0,14.07,14.07,0,0,1-1.83-.13,7.65,7.65,0,0,0-1,0,5.88,5.88,0,0,1-1.61-.25,3.52,3.52,0,0,0-1.25-.15,10.6,10.6,0,0,1-1.38,0,1.33,1.33,0,0,0-.68.15,1.43,1.43,0,0,1-.47.18.44.44,0,0,1-.49-.2.42.42,0,0,1,0-.52.76.76,0,0,0,.13-.53,4.26,4.26,0,0,1,.08-1,3.9,3.9,0,0,0,0-1.32,10.46,10.46,0,0,1-.12-1.11,6.62,6.62,0,0,0-.27-1.65,1,1,0,0,1-.06-.6.17.17,0,0,0,0-.1,12.53,12.53,0,0,1-.05-1.62,1.36,1.36,0,0,1,.06-.45,6,6,0,0,0,.23-1.4c0-.52.11-1.05.15-1.57a13.82,13.82,0,0,0,0-1.93c0-.32,0-.65-.08-1-.06-.59,0-1.18,0-1.77,0-.17,0-.34,0-.51a3.89,3.89,0,0,0-.15-1.4c.09-.57-.06-1.14,0-1.72a5.3,5.3,0,0,0-.07-1.32,6.24,6.24,0,0,1,0-1.43c0-.37,0-.74.05-1.11a5.61,5.61,0,0,0,0-.71c0-.23.09-.43,0-.66a.57.57,0,0,1,.58-.57h0a7.55,7.55,0,0,0,2.07-.07,4.45,4.45,0,0,1,1.41.05,1.34,1.34,0,0,0,.4,0,2.51,2.51,0,0,1,1.36.08c.06,0,.16,0,.24,0a1,1,0,0,1,.35,0,7.49,7.49,0,0,0,1.06,0c.35,0,.71.07,1.06.09s.51,0,.77,0a1.67,1.67,0,0,1,.53.14.68.68,0,0,1,.44.74,14.42,14.42,0,0,0,0,2.18,8.19,8.19,0,0,1-.11,1.56,5.83,5.83,0,0,0-.12,1.67,3.12,3.12,0,0,1,0,.61,15.11,15.11,0,0,1,0,1.78,5.53,5.53,0,0,1,0,1.22.17.17,0,0,0,0,.1c.21.38.07.8.14,1.19a2.09,2.09,0,0,1,0,.25.92.92,0,0,0,.12.74.54.54,0,0,1,.07.29,15.74,15.74,0,0,1,.06,1.82c0,.42,0,.84,0,1.26a8.31,8.31,0,0,1-.09,1.93c-.05.21,0,.44-.07.66a5,5,0,0,1-.17.64A.39.39,0,0,0,289.64,175.06Z"/><path d="M289.36,123.69c0,.08.06.2.13.26a1,1,0,0,1,.23,1,.47.47,0,0,0,0,.2,5.32,5.32,0,0,1,.05,1.26,1.7,1.7,0,0,1,0,.45.46.46,0,0,0,0,.2,3.87,3.87,0,0,1-.07,1.27,1.58,1.58,0,0,0,0,.65.7.7,0,0,1,0,.25c0,.37,0,.74,0,1.11a2.93,2.93,0,0,0,.07.41l0,.34,0,.46a1.53,1.53,0,0,1,0,.3,3.57,3.57,0,0,0,.07.86c0,.23,0,.47,0,.7a28.94,28.94,0,0,1,.15,2.94c0,.55,0,1.09-.07,1.63s0,.81,0,1.21a10.9,10.9,0,0,1,.08,2,2.09,2.09,0,0,1,0,.25c0,.51-.06,1-.09,1.55a1.42,1.42,0,0,0,.3.09q.56,0,1.11-.09a6.42,6.42,0,0,1,.76,0,3.76,3.76,0,0,0,1.06.05,5.12,5.12,0,0,0,1.61.07,12.07,12.07,0,0,1,1.47.08c.48,0,.94-.1,1.41-.09a4.35,4.35,0,0,1,.51,0c.24,0,.39.16.38.39,0,.43.11.84,0,1.27s0,.78-.06,1.16a25.06,25.06,0,0,0-.19,2.59.46.46,0,0,0,0,.29c.27.4.13.7-.2,1-.23,0-.46.07-.68-.1a.25.25,0,0,0-.15,0,13.16,13.16,0,0,0-1.66.18,1.57,1.57,0,0,1-.61,0,7.75,7.75,0,0,0-1.52.08,6.19,6.19,0,0,1-.86,0,2.76,2.76,0,0,0-.76,0,1.4,1.4,0,0,1-.45,0,6.26,6.26,0,0,1-1.21-.15s-.06,0-.09,0a4.5,4.5,0,0,1-1.27,0c-.4,0-.8-.08-1.21-.11a4.24,4.24,0,0,0-.71,0c-.52,0-1.05,0-1.57,0a.67.67,0,0,1-.2,0,3.34,3.34,0,0,0-1.26,0,2.49,2.49,0,0,1-.61,0,1.21,1.21,0,0,0-.5,0c-.28.07-.56.14-.84.19a2.5,2.5,0,0,1-.61,0,5.5,5.5,0,0,0-1.46,0,.84.84,0,0,1-.4-.56,1.24,1.24,0,0,0,.2-.89c0-.34.05-.68.06-1a7,7,0,0,0-.07-1.93,1.6,1.6,0,0,1,0-.49,4.52,4.52,0,0,0-.05-1.42,3.84,3.84,0,0,1,0-.76c0-.27,0-.54,0-.81a6,6,0,0,1,0-.61.85.85,0,0,0,0-.35.86.86,0,0,1,0-.65,5.15,5.15,0,0,0,.09-1.11,3.51,3.51,0,0,0,0-1.12,4.46,4.46,0,0,1,0-1.46c0-.47,0-.94.06-1.42,0-.12,0-.23,0-.35a.75.75,0,0,0,0-.2,9.43,9.43,0,0,1,0-1.68,1.59,1.59,0,0,0-.06-.3,2.81,2.81,0,0,1-.09-1.26.75.75,0,0,0,0-.29,5.56,5.56,0,0,1-.08-1.22c0-.37,0-.74,0-1.11a5.28,5.28,0,0,0,0-.56c0-.34-.07-.68-.11-1a2,2,0,0,1-.05-1,.28.28,0,0,0,0-.2,2,2,0,0,1-.08-1,2.83,2.83,0,0,0,0-.41.57.57,0,0,1,.12-.37.77.77,0,0,1,.87-.36,3.28,3.28,0,0,0,1.36,0c.1,0,.21,0,.31,0,.25,0,.5.14.74,0a1.38,1.38,0,0,0,.7-.07.18.18,0,0,1,.1,0,2.2,2.2,0,0,0,.81,0,4.27,4.27,0,0,1,1,0,1.79,1.79,0,0,0,.46,0,7.34,7.34,0,0,1,1.31-.12,9.69,9.69,0,0,0,1.32,0A2.14,2.14,0,0,1,289.36,123.69Z"/><path d="M351.87,123.77a1.14,1.14,0,0,1,.2.7,14.24,14.24,0,0,1-.14,1.72,10,10,0,0,0-.21,1.09,8.73,8.73,0,0,0,0,2c.05.4,0,.81,0,1.21,0,.2,0,.41.06.61a1.53,1.53,0,0,1,0,.3,1.35,1.35,0,0,0,.09.84.17.17,0,0,1,0,.1c-.07.41,0,.81,0,1.21a.4.4,0,0,0,0,.11,4.11,4.11,0,0,1,0,1.31c0,.44,0,.88,0,1.32a7.47,7.47,0,0,0,.19,1.76.89.89,0,0,1,.06.35,9.63,9.63,0,0,1,0,1.42,3.77,3.77,0,0,1-.11,1.25.17.17,0,0,0,0,.1c.13.64-.05,1.28,0,1.93a11.82,11.82,0,0,1,0,1.57,2.64,2.64,0,0,0,.06,1,.36.36,0,0,1,0,.15c.05.81.09,1.62.15,2.43,0,.12,0,.23.05.35a1.34,1.34,0,0,1-.21.93.48.48,0,0,1-.41.25,6.91,6.91,0,0,1-.91,0,6.06,6.06,0,0,1-.95-.15h-.15a6.56,6.56,0,0,1-1.77,0,2.31,2.31,0,0,0-1.39.2.62.62,0,0,1-.24.08c-.33,0-.67,0-1,0a3.08,3.08,0,0,1-.61-.06,4,4,0,0,1-1-.23.18.18,0,0,0-.1,0h-1.1c-.08-.12-.18-.23-.25-.36a.76.76,0,0,1,0-.3c0-.26,0-.53.06-.8a1.23,1.23,0,0,1,0-.2,3.81,3.81,0,0,0,.21-1,2.81,2.81,0,0,0,0-.5c-.06-.71-.09-1.42-.15-2.13a2.91,2.91,0,0,0-.15-.79,3,3,0,0,1-.12-1.36,15.93,15.93,0,0,0,0-2.49s0-.07,0-.1a9.22,9.22,0,0,1,.14-1.4,4.19,4.19,0,0,0,.06-1.27c0-.35,0-.7,0-1.05s0-.95,0-1.42a6.86,6.86,0,0,1,0-.91.9.9,0,0,0,0-.4.75.75,0,0,1,0-.3,2.25,2.25,0,0,0,0-.86.49.49,0,0,1,.05-.19c0-.1.08-.21.06-.3-.1-.28.1-.57,0-.85,0-.05,0-.13,0-.19a1.53,1.53,0,0,0,0-.3,6.76,6.76,0,0,0-.07-1.42.34.34,0,0,1,0-.1c-.06-.61-.11-1.22-.17-1.82,0-.27-.08-.54-.1-.81s0-.64,0-1a1.64,1.64,0,0,0-.13-.9.47.47,0,0,1,.06-.52,1,1,0,0,1,.92-.44.68.68,0,0,0,.35,0,1.47,1.47,0,0,1,1,0,2.39,2.39,0,0,0,.6,0,4.34,4.34,0,0,1,.71.06,10.88,10.88,0,0,1,2.19.43,4,4,0,0,0,1.85.15,10.28,10.28,0,0,1,1.47-.11A2.12,2.12,0,0,1,351.87,123.77Z"/><path d="M326.52,106.58c0-.25,0-.5.05-.76a2.68,2.68,0,0,0,0-.4,13.11,13.11,0,0,1,0-1.88.82.82,0,0,0-.18-.61.52.52,0,0,1,.16-.82,1,1,0,0,1,.54-.15,5.42,5.42,0,0,0,1.06-.09,6.17,6.17,0,0,1,1.42-.09l1,0a7.17,7.17,0,0,1,1.31,0,4.29,4.29,0,0,0,.8,0h1.12c.44,0,.88,0,1.32,0a3.64,3.64,0,0,1,1.35.21,1.09,1.09,0,0,0,1-.11,1.47,1.47,0,0,1,.79-.13c.25,0,.47.29.48.63a7.48,7.48,0,0,1,0,.82,4.59,4.59,0,0,1,0,.91,5.13,5.13,0,0,0,0,1.11,5.39,5.39,0,0,0,.08.56,1.9,1.9,0,0,1,0,.25c0,.44.05.87.08,1.31a.62.62,0,0,1-.23.59.79.79,0,0,1-.57.14,2.39,2.39,0,0,0-1.35.08.64.64,0,0,1-.2,0,2,2,0,0,0-.35,0,12.8,12.8,0,0,1-1.52,0H333c-.17,0-.33,0-.5,0s-.21-.07-.3,0a1.46,1.46,0,0,1-.75-.08,1.74,1.74,0,0,0-.6,0,.45.45,0,0,1-.2,0,4.82,4.82,0,0,0-1.42,0,6.65,6.65,0,0,1-1.48,0,2.57,2.57,0,0,1-.89-.36.59.59,0,0,1-.31-.59v-.57Z"/><path d="M401.13,139.92a.67.67,0,0,0,0-.2c-.05-.73-.11-1.46-.15-2.18,0-.46,0-.92,0-1.37s0-.89.06-1.32a3.87,3.87,0,0,0,0-1c0-.32,0-.64-.06-1a2.17,2.17,0,0,0-.12-.84,1.45,1.45,0,0,1-.07-.35c-.07-.39-.15-.77-.21-1.15a3.14,3.14,0,0,1-.06-1.06.66.66,0,0,0-.08-.45c-.1-.2-.18-.43-.29-.67l.28-.17c.11-.09.1-.26,0-.28a.81.81,0,0,1-.55-.43c-.2-.33-.39-.67-.57-1a4.75,4.75,0,0,0-.58-.83c-.56-.35-1-.88-1.59-1.18a2.43,2.43,0,0,1-.2-.14,5,5,0,0,0-1.55-.76,2.63,2.63,0,0,1-.72-.23,1.21,1.21,0,0,0-.63-.16.66.66,0,0,1-.56-.19.37.37,0,0,0-.22-.1,8.36,8.36,0,0,1-.86-.09,11.68,11.68,0,0,0-1.77-.1l-.56,0c-.57,0-1.14,0-1.72.07a1.88,1.88,0,0,1-.75,0,.36.36,0,0,0-.24.06,3.45,3.45,0,0,1-1.1.2,4.27,4.27,0,0,0-1.93.35c-.46.14-.89.34-1.34.5a3.45,3.45,0,0,0-.91.43,1.31,1.31,0,0,1-.61.21,2.67,2.67,0,0,0-1,.29,3.94,3.94,0,0,0-1.07.93.87.87,0,0,1-.23.27,2.19,2.19,0,0,0-.91,1.18c-.13.37-.35.7-.48,1.07a3.74,3.74,0,0,0-.24,1.08,6.8,6.8,0,0,1-.17,1.1,5.58,5.58,0,0,0-.13.69c0,.38-.07.75-.09,1.12s-.05.81-.05,1.22,0,1,0,1.52c0,.22,0,.44,0,.66,0,.79,0,1.59,0,2.39,0,.23,0,.47,0,.7a10.29,10.29,0,0,0,0,1.36,9.45,9.45,0,0,1,.33,1.9.74.74,0,0,0,0,.14c0,.15.06.3.08.45s.05.3.08.45a6.55,6.55,0,0,0,.32,1.23c.08.24.16.47.26.71a6.62,6.62,0,0,0,.6,1.33,1.55,1.55,0,0,0,.51.81l.89.84a4.12,4.12,0,0,0,1.58,1,2.3,2.3,0,0,1,.6.27,1.35,1.35,0,0,0,.47.18l2,.5a3.5,3.5,0,0,0,.55.09,10.93,10.93,0,0,1,2,.07h.05a6.67,6.67,0,0,1,1.67,0,1,1,0,0,0,.3,0c.49-.1,1,0,1.47-.09s1-.09,1.55-.24.91-.13,1.35-.23a5.27,5.27,0,0,0,1.84-.83,2.38,2.38,0,0,1,.31-.17,11,11,0,0,0,1.15-.54,10,10,0,0,0,1-.84c.19-.17.33-.41.54-.53a1.94,1.94,0,0,0,.58-.56l.57-.78a5.51,5.51,0,0,0,.45-.73c.21-.46.36-1,.57-1.41a1.82,1.82,0,0,0,.18-.94.38.38,0,0,1,0-.15C401.13,141.41,401.07,140.66,401.13,139.92ZM395,132.41a5.19,5.19,0,0,1-.42.93,2.29,2.29,0,0,1-.68.87.48.48,0,0,0-.12.16,8.25,8.25,0,0,1-1,1.34c-.28.35-.63.63-.94,1l.12.14a3.92,3.92,0,0,0,.86.71.92.92,0,0,1,.25.17,5.21,5.21,0,0,0,1.24.89.31.31,0,0,1,.17.38.39.39,0,0,0,.07.29,1.94,1.94,0,0,1,.33,1.15,5.54,5.54,0,0,1,0,.71,1.48,1.48,0,0,1-.61,1.12,1.25,1.25,0,0,0-.23.23,3,3,0,0,1-1.43-.19,1.81,1.81,0,0,1-1-.68c-.05-.07-.09-.16-.16-.2l-.08-.06c0,.09.05.19.08.28a.3.3,0,0,1-.14.39.33.33,0,0,0-.16.25,1.9,1.9,0,0,1-.58,1.05,4,4,0,0,1-.53.48,1.41,1.41,0,0,1-1.21.36,1.82,1.82,0,0,0-.33,0,2.84,2.84,0,0,1-.88-1.14,1.84,1.84,0,0,1-.21-1.18,1.13,1.13,0,0,0,0-.25s0-.07,0-.1l-.14.25a.31.31,0,0,1-.38.18.3.3,0,0,0-.28.07,2,2,0,0,1-1.16.33,4.23,4.23,0,0,1-.71,0,1.41,1.41,0,0,1-1.11-.6,1.36,1.36,0,0,0-.24-.24,3.07,3.07,0,0,1,.19-1.42,1.8,1.8,0,0,1,.69-1c.06,0,.15-.09.19-.15a14.57,14.57,0,0,1,1.32-1.4c.05-.05.12-.1.14-.15a2.17,2.17,0,0,1,.57-.8l-.27-.27c-.21-.21-.51-.33-.71-.57s-.21-.21-.32-.31a1.19,1.19,0,0,0-.29-.21,1.45,1.45,0,0,1-.45-.33.41.41,0,0,0-.2-.14,1.84,1.84,0,0,1-.84-.79.65.65,0,0,1-.11-.67.4.4,0,0,0,0-.15,2.75,2.75,0,0,1,.33-1.32,1.56,1.56,0,0,1,.74-.86.69.69,0,0,1,.59,0,5.61,5.61,0,0,1,.93.42,2.32,2.32,0,0,1,.87.68.51.51,0,0,0,.16.13l.18.1V132a.4.4,0,0,0,0-.24,1.81,1.81,0,0,1,0-1.15.67.67,0,0,1,.4-.56.32.32,0,0,0,.12-.08,2.86,2.86,0,0,1,1.17-.7,1.54,1.54,0,0,1,1.14-.08.74.74,0,0,1,.45.38,6.4,6.4,0,0,1,.36.95,2.42,2.42,0,0,1,.13,1.1.46.46,0,0,0,0,.2,1.94,1.94,0,0,1,.05.2,1.59,1.59,0,0,1,.13-.13.59.59,0,0,0,.15-.2,1.77,1.77,0,0,1,.78-.84.68.68,0,0,1,.67-.12.27.27,0,0,0,.15,0,2.88,2.88,0,0,1,1.32.34,1.49,1.49,0,0,1,.86.74A.68.68,0,0,1,395,132.41Z"/><path d="M370.46,172.19a.74.74,0,0,0,0-.21c0-.72-.11-1.45-.15-2.18,0-.45,0-.91,0-1.37a9.72,9.72,0,0,1,.06-1.32,4.27,4.27,0,0,0,0-1c0-.32,0-.64-.06-1a2.2,2.2,0,0,0-.12-.84,1.28,1.28,0,0,1-.07-.35c-.07-.38-.15-.76-.2-1.15a2.9,2.9,0,0,1-.07-1.06.7.7,0,0,0-.07-.44c-.11-.21-.19-.43-.3-.68l.28-.16c.11-.1.1-.26,0-.29a.79.79,0,0,1-.55-.42c-.2-.33-.39-.67-.56-1a6,6,0,0,0-.59-.83c-.56-.35-1-.87-1.59-1.17-.07,0-.13-.1-.2-.15a5,5,0,0,0-1.54-.75,2.61,2.61,0,0,1-.73-.24,1.15,1.15,0,0,0-.63-.15.69.69,0,0,1-.56-.19.28.28,0,0,0-.22-.1,8.39,8.39,0,0,1-.86-.1,13.12,13.12,0,0,0-1.77-.09l-.56,0c-.57,0-1.14,0-1.71.08a2.42,2.42,0,0,1-.76,0,.36.36,0,0,0-.24.06,3.75,3.75,0,0,1-1.1.2,4.27,4.27,0,0,0-1.93.35c-.45.13-.89.34-1.33.49a3.72,3.72,0,0,0-.92.44,1.27,1.27,0,0,1-.61.21,2.49,2.49,0,0,0-1,.29,3.61,3.61,0,0,0-1.06.93,1.25,1.25,0,0,1-.24.27,2.19,2.19,0,0,0-.91,1.18c-.12.36-.35.7-.48,1.06a3.81,3.81,0,0,0-.24,1.09,6.52,6.52,0,0,1-.17,1.09,5.73,5.73,0,0,0-.13.7c0,.37-.06.75-.09,1.12s-.05.81-.05,1.22,0,1,0,1.52c0,.22,0,.44,0,.65,0,.8,0,1.6,0,2.39,0,.24,0,.48,0,.71a10.33,10.33,0,0,0,0,1.36,9.34,9.34,0,0,1,.32,1.89.83.83,0,0,0,0,.15c0,.15.06.3.08.45s.06.3.08.45a7.3,7.3,0,0,0,.32,1.22c.09.24.16.48.26.71a6.45,6.45,0,0,0,.6,1.34,1.54,1.54,0,0,0,.51.8l.89.84a4.44,4.44,0,0,0,1.58,1,2,2,0,0,1,.6.27,1.58,1.58,0,0,0,.47.18l2,.5a5.25,5.25,0,0,0,.55.09,10.9,10.9,0,0,1,2,.07h.05a6.23,6.23,0,0,1,1.67,0,1,1,0,0,0,.3,0c.49-.11,1,0,1.47-.1a13.8,13.8,0,0,0,1.55-.23c.44-.13.91-.13,1.35-.24a5,5,0,0,0,1.84-.83,1.91,1.91,0,0,1,.32-.16,10.84,10.84,0,0,0,1.14-.54,8.92,8.92,0,0,0,1-.85A5.39,5.39,0,0,1,368,179a1.73,1.73,0,0,0,.58-.56c.19-.26.39-.51.57-.78a4.54,4.54,0,0,0,.45-.72c.21-.47.37-.95.57-1.42a1.77,1.77,0,0,0,.18-.93.38.38,0,0,1,0-.15C370.47,173.68,370.4,172.93,370.46,172.19ZM366,169.56a.7.7,0,0,1-.39.45,4.76,4.76,0,0,1-.95.36,2.28,2.28,0,0,1-1.1.14.35.35,0,0,0-.2,0,7.72,7.72,0,0,1-1.65.23c-.45.06-.9,0-1.35,0a1.1,1.1,0,0,0,0,.18,4.11,4.11,0,0,0,.11,1.11,1.07,1.07,0,0,1,.06.3,5.13,5.13,0,0,0,.24,1.51.3.3,0,0,1-.14.39.33.33,0,0,0-.16.25,1.9,1.9,0,0,1-.58,1,5.91,5.91,0,0,1-.52.48,1.47,1.47,0,0,1-1.22.36,1.19,1.19,0,0,0-.33,0,3,3,0,0,1-.88-1.13,1.86,1.86,0,0,1-.21-1.19,1.07,1.07,0,0,0,0-.25,13.64,13.64,0,0,1-.06-1.92.44.44,0,0,0,0-.2,2.4,2.4,0,0,1-.16-1h0a4.14,4.14,0,0,0-1.11.1,1.09,1.09,0,0,1-.3.07,5.12,5.12,0,0,0-1.51.23.3.3,0,0,1-.39-.14.39.39,0,0,0-.25-.16,2,2,0,0,1-1.05-.57c-.16-.18-.34-.34-.48-.53a1.46,1.46,0,0,1-.36-1.22,1.18,1.18,0,0,0,0-.33,3.08,3.08,0,0,1,1.13-.88,1.86,1.86,0,0,1,1.19-.21.54.54,0,0,0,.25,0,13.64,13.64,0,0,1,1.92-.05c.07,0,.15,0,.2,0a2.28,2.28,0,0,1,1-.15c0-.13,0-.26,0-.39a8.54,8.54,0,0,1-.1-.9,3.38,3.38,0,0,0,0-.45,1,1,0,0,0-.05-.35,1.48,1.48,0,0,1-.09-.55.44.44,0,0,0,0-.25,1.71,1.71,0,0,1,0-1.14.63.63,0,0,1,.39-.56.5.5,0,0,0,.12-.08,2.86,2.86,0,0,1,1.17-.7,1.55,1.55,0,0,1,1.14-.09.73.73,0,0,1,.45.39,6.4,6.4,0,0,1,.36,1,2.41,2.41,0,0,1,.14,1.1.35.35,0,0,0,0,.2,8.41,8.41,0,0,1,.23,1.65c.05.45,0,.89,0,1.33h.52a8.54,8.54,0,0,1,.9-.1h.45a2,2,0,0,0,.35-.05,1.31,1.31,0,0,1,.55-.1.44.44,0,0,0,.25,0,1.78,1.78,0,0,1,1.14,0,.66.66,0,0,1,.56.39.3.3,0,0,0,.09.13,3,3,0,0,1,.69,1.16A1.5,1.5,0,0,1,366,169.56Z"/><text class="cls-1" transform="translate(581.23 252.64)"><tspan class="cls-2">A</tspan><tspan class="cls-3" x="20.83" y="0">g</tspan><tspan class="cls-4" x="37.24" y="0">en</tspan><tspan class="cls-5" x="68.7" y="0">d</tspan><tspan x="85.44" y="0" xml:space="preserve">a   P</tspan><tspan class="cls-6" x="138.08" y="0">r</tspan><tspan class="cls-7" x="148.18" y="0" xml:space="preserve">odutos    </tspan><tspan class="cls-8" x="262.7" y="0">C</tspan><tspan class="cls-7" x="281.89" y="0">on</tspan><tspan class="cls-9" x="313.86" y="0">t</tspan><tspan class="cls-10" x="324.04" y="0">a</tspan><tspan x="338.7" y="0" xml:space="preserve">to   Sob</tspan><tspan class="cls-11" x="432.64" y="0">r</tspan><tspan x="442.71" y="0" xml:space="preserve">e   </tspan><tspan class="cls-12" x="478.2" y="0">C</tspan><tspan class="cls-13" x="497.66" y="0">a</tspan><tspan class="cls-14" x="514.54" y="0">das</tspan><tspan class="cls-15" x="563.47" y="0">t</tspan><tspan class="cls-16" x="575.22" y="0">r</tspan><tspan class="cls-17" x="588.03" y="0">o</tspan><tspan class="cls-18" x="604.77" y="0">/</tspan><tspan class="cls-19" x="621.71" y="0">L</tspan><tspan class="cls-20" x="639" y="0">o</tspan><tspan class="cls-13" x="655.79" y="0">gin</tspan></text><text class="cls-21" transform="translate(477.82 150.01)">A<tspan class="cls-22" x="33.38" y="0">R</tspan><tspan x="64.44" y="0">TE, DESIGN, CO-CRI</tspan><tspan class="cls-23" x="502.07" y="0">A</tspan><tspan x="534.31" y="0">Ç</tspan><tspan class="cls-24" x="561.08" y="0">Ã</tspan><tspan class="cls-25" x="593.77" y="0">O &amp; </tspan><tspan class="cls-26" x="689.91" y="0">A</tspan><tspan class="cls-27" x="721.93" y="0">TIVISMO</tspan></text><path class="cls-28" d="M1607.34,166.39c15.2-14.78,30.39-25.86,45.59-34-16.87-9.67-33.74-14.36-50.62-16.53,4.78-13.2,9.56-25.66,14.34-37.73a303.29,303.29,0,0,0-50.78,17.51c-7.9-14-15.81-28.1-23.72-43.74-6.59,13-13.17,27.18-19.76,41.86a367.16,367.16,0,0,1-41-30.83q.4,36.94.81,70.73c-17,3.87-33.9,5.73-50.84,3.14,8.39,10.94,16.79,21,25.19,30.1-12.44,7.82-24.88,13.38-37.33,16.45,21.54,16.57,43.07,24.32,64.6,28.83q-5.07,28.37-10.15,53.41c10.58-4.79,21.16-10.12,31.74-16.24,3.54,10.14,7.09,20.33,10.64,30.83,11.56-15,23.12-32.64,34.68-51.32,20,7.69,39.92,18.26,59.87,30.82-2.57-17.37-5.15-34.25-7.72-50.51a149.16,149.16,0,0,1,35.18,4.33C1627.83,196.61,1617.58,180.59,1607.34,166.39Z"/><path d="M1571,180.92c.23,1.72.42,3.44.69,5.15.31,2,0,2.36-2.07,2.47a14.38,14.38,0,0,0-3.22.65c-2.48.72-4.91,1-7.35-.21a2.08,2.08,0,0,1-1.21-2.49c.93-6.23,2.06-12.45,2.65-18.72.32-3.39-.25-6.87-.52-10.3-.1-1.24-.87-1.6-2.11-1.18-5.13,1.74-10.26,3.48-15.37,5.26a11.48,11.48,0,0,0-2.31,1.19,1.19,1.19,0,0,0-.46.85c-.32,3.42-.64,6.83-.86,10.25-.3,4.7-.44,9.41-.78,14.11-.27,3.81-.75,7.61-1.1,11.42a2.64,2.64,0,0,1-3.19,2.43c-3.61-.36-6.2-2.05-7.52-5.47a3.85,3.85,0,0,1-.19-2.12,82.27,82.27,0,0,0,2.75-17.8c.06-2.44.91-4.85,1.29-7.3a26.1,26.1,0,0,0,.27-4.33c0-.33-.59-.87-1-.95-3.24-.62-6.49-1.15-9.73-1.74a11.11,11.11,0,0,1-2.22-.67c-1.36-.56-2-.31-2.3,1.17-.79,3.39-1.48,6.81-2.32,10.19-.49,2-1.15,3.89-1.79,5.82-.77,2.34-1.67,4.64-2.37,7a2.29,2.29,0,0,1-2.21,1.83c-3.65.64-6.87-.34-10-2.07-1.6-.88-1.75-1.16-1-2.82,1.53-3.35,3.2-6.64,4.48-10.07,1.38-3.67,2.38-7.47,3.51-11.22a1.88,1.88,0,0,0,0-1.26,1.58,1.58,0,0,1,.29-2.08c.73-.71.46-1.29-.49-1.58-.47-.13-.94-.26-1.4-.41a2,2,0,0,1-1.51-2.68,30.41,30.41,0,0,0,.33-3.31c.19-2.41.34-4.82.54-7.23a1.32,1.32,0,0,0-1-1.55c-.46-.19-.74-.82-1.11-1.25.47-.37.88-.93,1.4-1.07,1.53-.41,3.13-.58,4.66-1,3.76-1,7.54-1.84,11.23-3,4.19-1.34,8.28-3,12.44-4.44a4.14,4.14,0,0,1,2.26-.12c4.51,1.15,9,2.55,13.5,3.56,6.29,1.39,12.63,2.51,19,3.76,1.45.29,2.89.69,4.35.92a3.62,3.62,0,0,0,1.44-.37c.45-.14,1.14-.59,1.29-.45a30.46,30.46,0,0,1,2.65,3,14.21,14.21,0,0,1,1.19,2.13c.85,1.67,1.74,3.32,2.47,5.05.4.93,0,1.61-1.11,1.9a48.15,48.15,0,0,0-5.51,1.72,1.9,1.9,0,0,0-.74,1.51c.11,5.14.2,10.28.49,15.41.19,3.39.69,6.75,1,10.13.08.77.08,1.55.12,2.33Zm-40.87-48.39c-1.62.43-3.31.83-5,1.33-4.21,1.29-8.4,2.66-12.61,3.94-2.13.65-4.3,1.16-6.44,1.78-.27.07-.65.38-.66.61s.28.58.53.75a6,6,0,0,0,1.08.41c4.08,1.65,8.18,3.23,12.22,5s8.25,3.87,12.44,5.64c2.21.93,4.52,2,7,1.11,4.33-1.53,8.67-3,12.94-4.7,4.72-1.87,9.36-3.94,14-6,.43-.19.73-.68,1.08-1-.39-.31-.73-.78-1.17-.88-3.45-.81-6.91-1.55-10.37-2.3-5.5-1.19-11-2.35-16.5-3.58C1536,134,1533.14,133.25,1530.15,132.53Zm-27.58,19.07a8.07,8.07,0,0,0,1.4,2.62,10,10,0,0,0,3,1.27l7.18,2.72a30.69,30.69,0,0,0,4.6,1.69c4.17.84,8.38,1.47,12.57,2.19,2,.34,3.14-.35,3.7-2.24.13-.41.33-.81.44-1.23.74-2.69,1-2.66-2-4-3.16-1.47-6.45-2.63-9.56-4.18-6.25-3.1-12.43-6.34-19.33-7.82-1-.21-1.46-.05-1.52,1C1503,146.2,1502.77,148.74,1502.57,151.6Zm64.17,7.93h-.07c0-1.31,0-2.62,0-3.93-.07-2.09-.73-2.46-2.66-1.53a6.21,6.21,0,0,1-.93.37c-.94.28-1.14.93-1,1.81.29,2.69.69,5.37.8,8.06a42.69,42.69,0,0,1-.26,7c-.54,4.32-1.16,8.64-2,12.92-.71,3.63-.16,3.63,3.57,3.56l.43-.05c1.57-.28,2-.87,1.62-2.43a5.93,5.93,0,0,1-.22-1.72c.19-2.31.45-4.62.7-6.93a49.6,49.6,0,0,0,.63-5.91C1567.26,167,1567,163.25,1566.74,159.53Zm-64.88,25.73c.21-.18.82-.43,1-.88,1.12-2.41,2.24-4.82,3.17-7.3,1.23-3.27,2.3-6.59,3.41-9.89.71-2.11,1.39-4.22,2.06-6.34a1.27,1.27,0,0,0-.94-1.8,11.23,11.23,0,0,1-1.63-.94c-1.53-.82-2.47-.35-2.79,1.37a13.73,13.73,0,0,1-.33,1.41c-1.15,3.85-2.3,7.71-3.47,11.55a21.13,21.13,0,0,1-.93,2.6c-1,2.08-2.14,4.08-3,6.21S1499.18,185.31,1501.86,185.26Zm33.81-19.07c0-1.89-.28-2.42-1.18-2.39-1.16,0-2,1.14-2,2.63,0,.15,0,.29,0,.43,0,.63,0,1.26-.14,1.88-.41,2.43-.89,4.86-1.28,7.3-.77,4.87-1.56,9.75-2.19,14.64a21.87,21.87,0,0,0,0,5.6c.08.6,1.26,1.41,2,1.47.88.06,2.15-.08,2.37-1.43.32-1.91.7-3.82.85-5.74.21-2.91.19-5.82.37-8.73C1534.87,176.63,1535.29,171.41,1535.67,166.19Zm38.07-21-1.8,3.51a2.13,2.13,0,0,0,2.6-1.29A1.66,1.66,0,0,0,1573.74,145.15Zm-1.14-2.1a14,14,0,0,0-1.61-1.35c-.06,0-.54.6-.82.92a12,12,0,0,0,1.41,1.15C1571.68,143.83,1572.07,143.43,1572.6,143.05Z"/><path d="M1517.11,156c-.54.17-1.16.59-1.61.46-2.16-.64-4.31-1.38-6.4-2.22-.43-.17-.61-.94-.91-1.44.47-.24,1-.67,1.42-.68a6.82,6.82,0,0,1,2.1.49,38.33,38.33,0,0,1,3.79,1.43,8.5,8.5,0,0,1,1.68,1.36Z"/><path d="M1516.8,151.69c0-1.7.64-2.12,1.8-1.72,1,.34,2,.57,2.86,1a3.34,3.34,0,0,1,1.28,1.17,1.07,1.07,0,0,1,0,1,1.57,1.57,0,0,1-1.16.2,25.24,25.24,0,0,1-3.47-.77A4.63,4.63,0,0,1,1516.8,151.69Z"/><text class="cls-29" transform="translate(1580.03 132.53)">1</text></svg>