<svg id="Camada_1" class="navbar-title-img" data-name="Camada 1" xmlns="http://www.w3.org/2000/svg" viewBox="0 0 1920 1080">
<defs>
<style>
/*.cls-1{fill:#fff;}*/
</style>
</defs>
<path class="cls-1" d="M128.76,464.22V464c-.07-.94-.15-1.88-.2-2.83,0-.59-.05-1.18,0-1.77a14.05,14.05,0,0,1,.07-1.72,5.3,5.3,0,0,0,0-1.32c0-.41-.06-.82-.08-1.23a2.59,2.59,0,0,0-.16-1.1,2.11,2.11,0,0,1-.08-.45c-.09-.5-.2-1-.27-1.49a4,4,0,0,1-.09-1.38.82.82,0,0,0-.09-.57c-.14-.27-.25-.56-.39-.88a3.18,3.18,0,0,0,.36-.22c.15-.12.13-.34,0-.37a1,1,0,0,1-.71-.55c-.26-.43-.51-.87-.74-1.32a7.33,7.33,0,0,0-.75-1.07,25.69,25.69,0,0,0-2.07-1.53,2.22,2.22,0,0,1-.27-.19,6.42,6.42,0,0,0-2-1,3.33,3.33,0,0,1-.94-.3,1.42,1.42,0,0,0-.81-.2.89.89,0,0,1-.73-.25.41.41,0,0,0-.29-.13,8.2,8.2,0,0,1-1.11-.13,17.88,17.88,0,0,0-2.31-.12l-.72.06c-.74,0-1.49,0-2.23.1a2.68,2.68,0,0,1-1,.05.52.52,0,0,0-.31.08,4.62,4.62,0,0,1-1.42.26,5.59,5.59,0,0,0-2.52.45c-.58.18-1.15.44-1.73.64a4.6,4.6,0,0,0-1.18.57,1.66,1.66,0,0,1-.8.27,3.31,3.31,0,0,0-1.25.38,4.73,4.73,0,0,0-1.39,1.21,1.24,1.24,0,0,1-.3.34A2.84,2.84,0,0,0,99,447.8c-.17.47-.46.91-.63,1.38a4.64,4.64,0,0,0-.31,1.41,8.4,8.4,0,0,1-.22,1.42,7,7,0,0,0-.17.91c0,.48-.08,1-.11,1.45s-.08,1.05-.08,1.58,0,1.32.06,2c0,.28,0,.56.05.85l0,3.1c0,.3,0,.61,0,.92a14.84,14.84,0,0,0,0,1.76A12.06,12.06,0,0,1,98.1,467c0,.06.05.13.06.19s.07.39.1.58.07.39.1.59a8.88,8.88,0,0,0,.42,1.59c.11.31.21.61.34.92a8.38,8.38,0,0,0,.77,1.73,2.1,2.1,0,0,0,.67,1.05l1.15,1.09a5.67,5.67,0,0,0,2.06,1.28,3,3,0,0,1,.78.35,2,2,0,0,0,.61.23l2.55.65a6,6,0,0,0,.72.12,14.61,14.61,0,0,1,2.56.08h.07a8.3,8.3,0,0,1,2.17,0,1.3,1.3,0,0,0,.39,0c.63-.13,1.27,0,1.9-.12s1.35-.11,2-.3,1.18-.18,1.75-.31a6.63,6.63,0,0,0,2.39-1.08,2.27,2.27,0,0,1,.41-.21,10.61,10.61,0,0,0,1.48-.71,10.46,10.46,0,0,0,1.32-1.09,5.06,5.06,0,0,1,.7-.69,2.25,2.25,0,0,0,.75-.72c.25-.34.5-.67.74-1a5.71,5.71,0,0,0,.59-.94c.27-.6.47-1.23.73-1.83a2.17,2.17,0,0,0,.23-1.22,1.5,1.5,0,0,1,0-.2C128.76,466.15,128.67,465.18,128.76,464.22Zm-19.61-1.77a1.8,1.8,0,0,1-.39.08,6.41,6.41,0,0,0-2,.31.41.41,0,0,1-.52-.19.42.42,0,0,0-.32-.2,2.49,2.49,0,0,1-1.36-.75A5.77,5.77,0,0,1,104,461a1.85,1.85,0,0,1-.47-1.58,2,2,0,0,0,0-.43,3.84,3.84,0,0,1,1.48-1.13,2.39,2.39,0,0,1,1.54-.28.88.88,0,0,0,.32,0,17.36,17.36,0,0,1,2.5-.07.57.57,0,0,0,.26,0,1.6,1.6,0,0,1,.63-.17l-.12.12a3,3,0,0,0,.58,4.64l.25.22c-.12,0-.25,0-.37,0A5,5,0,0,0,109.15,462.45ZM123,460.81a1,1,0,0,1-.5.59,7,7,0,0,1-1.23.46,3,3,0,0,1-1.43.18.47.47,0,0,0-.26,0,10.41,10.41,0,0,1-2.15.3c-.7.08-1.4,0-2.09.05a4.69,4.69,0,0,0-1-.08,3.29,3.29,0,0,0,1.2-1.78,3.4,3.4,0,0,0-1-3.24,4.56,4.56,0,0,0,1.83.24c.38,0,.77-.16,1.17-.13a3.87,3.87,0,0,0,.59,0,1.69,1.69,0,0,0,.45-.07,1.89,1.89,0,0,1,.71-.12.57.57,0,0,0,.32-.05,2.31,2.31,0,0,1,1.49,0,.87.87,0,0,1,.73.5.39.39,0,0,0,.11.17,3.76,3.76,0,0,1,.9,1.51A2,2,0,0,1,123,460.81Z"/>
<path class="cls-1" d="M149.56,543.6c.83.37,1.58.66,2.27,1a7.61,7.61,0,0,1,2.25,1.47,2.53,2.53,0,0,1,.54.83,6.86,6.86,0,0,0,.32.79,1.29,1.29,0,0,1,.17.63.82.82,0,0,0,.09.38,3.74,3.74,0,0,1,.33,1.14,2.78,2.78,0,0,0,.26.88,2.59,2.59,0,0,1,.05,2,14,14,0,0,0-.46,1.38,10.49,10.49,0,0,1-.58,1.33c-.48.51-.82,1.14-1.35,1.61s-.89.92-1.39,1.31a3.75,3.75,0,0,1-1.86.94,5.19,5.19,0,0,0-1.06.33,2.88,2.88,0,0,1-.49.18,9,9,0,0,0-1.85.48,1,1,0,0,1-.46,0,17.57,17.57,0,0,0-1.92,0,1.26,1.26,0,0,0-.39,0,3.65,3.65,0,0,1-1.36.15,9,9,0,0,0-1.64,0,2.94,2.94,0,0,1-.59,0,1.15,1.15,0,0,0-.26,0c-.44.05-.87.12-1.31.16s-1,.09-1.45.12-.87,0-1.31,0-.88,0-1.32,0a3.13,3.13,0,0,1-1.18-.06.46.46,0,0,0-.26,0,8.75,8.75,0,0,1-1.77.07c-.55,0-1.1.1-1.65.13a26.69,26.69,0,0,1-3,.16,1.54,1.54,0,0,1-.57-.14.67.67,0,0,1-.39-.51,3,3,0,0,1-.13-1,2.38,2.38,0,0,0,0-.46c0-.33,0-.66,0-1a3,3,0,0,0,.06-.59c-.09-.57-.1-1.14-.19-1.7a8.19,8.19,0,0,1-.07-1.85c0-.54,0-1.09.1-1.64a18.28,18.28,0,0,0,0-3,4.8,4.8,0,0,0-.08-1.51.42.42,0,0,1,0-.19,5.32,5.32,0,0,0,.06-1.32c0-.73,0-1.45,0-2.18s0-1.41,0-2.12c0-.21,0-.43-.05-.65s0-.44,0-.66a13,13,0,0,0-.09-2,22,22,0,0,1-.17-3.35,12,12,0,0,0,.07-2.24,5.78,5.78,0,0,0,0-1.44c0-.35,0-.7,0-1s-.07-.66-.06-1a7.61,7.61,0,0,0,0-1.51l-.36-.33c.07-.17.13-.34.21-.49a.47.47,0,0,1,.36-.26c.7-.11,1.39-.23,2.09-.32a4.12,4.12,0,0,1,.59.07c.46,0,.91.1,1.37.07s.88,0,1.32,0a4.51,4.51,0,0,0,1.37-.1.77.77,0,0,1,.33,0,1.19,1.19,0,0,0,.32,0,9.35,9.35,0,0,1,2,0,2.44,2.44,0,0,0,.27,0c1.14-.1,2.28,0,3.43,0a1.51,1.51,0,0,1,.52.05,4,4,0,0,0,1.25.09c.86,0,1.72,0,2.58,0,.24,0,.48,0,.72.05l.79.07a3.1,3.1,0,0,0,.85.08,2.18,2.18,0,0,1,.77.11c.19,0,.39.07.59.09a6.41,6.41,0,0,1,.76.16,11,11,0,0,1,1.5.5l1.36.46a1.09,1.09,0,0,1,.36.17,3.9,3.9,0,0,0,1.3.76,4.62,4.62,0,0,1,1.37,1.1,4.93,4.93,0,0,1,1.11,2,2.44,2.44,0,0,1,0,.39,2.84,2.84,0,0,0,.1.72,4.63,4.63,0,0,1,.2,2,2.33,2.33,0,0,0,0,.53,5,5,0,0,1,0,1.76,1.41,1.41,0,0,1-.16.42c-.28.48-.55.95-.87,1.4a16.34,16.34,0,0,1-1.11,1.38,8.12,8.12,0,0,1-1.06.88,2.38,2.38,0,0,0-.45.38,3,3,0,0,1-1.18.83A3.57,3.57,0,0,0,149.56,543.6ZM138.18,553a3.92,3.92,0,0,1,1.46,0,4.58,4.58,0,0,0,1,.1,5.53,5.53,0,0,0,2.12-.7.57.57,0,0,0,.14-.13,4.43,4.43,0,0,0,.74-1.81,1.78,1.78,0,0,0-.32-1.73.68.68,0,0,0-.25-.3c-.47-.22-1-.41-1.44-.62,0,0,0,0-.06,0-.44-.07-.88,0-1.31-.08a11.42,11.42,0,0,0-1.17,0l-.39,0c-.33,0-.44.11-.42.43,0,.72.1,1.44.13,2.16a4.72,4.72,0,0,1-.22,2.14A3.35,3.35,0,0,0,138.18,553Zm.2-14.18c0,.33,0,.66,0,1a.35.35,0,0,0,.31.37,6.37,6.37,0,0,0,1,0c.35,0,.7-.11,1-.1a1.58,1.58,0,0,0,1-.27c.3-.18.56-.43.85-.63a.94.94,0,0,0,.43-.76,10.71,10.71,0,0,1,.22-1.49,1.71,1.71,0,0,0,0-.78.9.9,0,0,0-.78-.79,7.62,7.62,0,0,1-.82-.22,1.11,1.11,0,0,0-.65,0,.86.86,0,0,1-.45,0,8,8,0,0,0-2,0,.35.35,0,0,0-.35.46,3.34,3.34,0,0,1,0,1.18,1.31,1.31,0,0,0,.06.52A4.41,4.41,0,0,1,138.38,538.77Z"/>
<path class="cls-1" d="M201.15,548.79a3.38,3.38,0,0,0,0,.69c.1.7.24,1.39.33,2.09a7.06,7.06,0,0,1,.05,1.38c0,.57-.15,1.13-.24,1.7a11.34,11.34,0,0,0,0,2.1c0,.35,0,.7,0,1.06s0,.65,0,1a.67.67,0,0,1,0,.32.79.79,0,0,0,0,.64.54.54,0,0,1-.4.77,6.5,6.5,0,0,1-2,.37c-.81,0-1.61-.15-2.43-.12a23.22,23.22,0,0,0-2.64.05,10.39,10.39,0,0,1-1.37-.09c-.37,0-.74,0-1.11-.06l-.39-.06s-.08-.06-.12-.05c-.5.1-.94-.18-1.41-.22s-.6-.24-.6-.63c0-.15,0-.3,0-.46a10.43,10.43,0,0,0,0-1.25,4.13,4.13,0,0,1,0-.86,2,2,0,0,0,0-1.1.29.29,0,0,1,0-.13,21,21,0,0,0-.16-2.5,17.31,17.31,0,0,1,0-2,9,9,0,0,0-.05-1.37,32.8,32.8,0,0,1,0-3.71c0-.3.08-.61.09-.92a2.42,2.42,0,0,0,0-.71c-.12-.59-.07-1.18-.16-1.76a2.19,2.19,0,0,1,.23-1.08,1.69,1.69,0,0,0,.05-1,2.15,2.15,0,0,1,0-.91,2.84,2.84,0,0,0,0-.92c-.06-.43,0-.88-.09-1.32a4.17,4.17,0,0,1,.15-1.82,2.81,2.81,0,0,0,0-1.12c-.05-.37,0-.74-.07-1.11,0-.17,0-.34-.07-.52s-.06-.13,0-.18a4.92,4.92,0,0,0-.08-1.58,1.67,1.67,0,0,1,0-.39,1,1,0,0,0,0-.59.5.5,0,0,1,0-.38.74.74,0,0,0,0-.39,3.61,3.61,0,0,1-.07-1.5,1.26,1.26,0,0,1,.1-.38.55.55,0,0,1,.86-.28,2.6,2.6,0,0,1,.27.24c.57,0,1.16-.12,1.75-.14.8,0,1.59,0,2.39,0a3.53,3.53,0,0,0,.46,0,4.75,4.75,0,0,1,1-.12,8.2,8.2,0,0,0,1,0c.48,0,1,0,1.44,0a1.93,1.93,0,0,0,.72,0,.65.65,0,0,1,.2,0,11.57,11.57,0,0,0,1.31.11,8.6,8.6,0,0,0,2-.11,3.14,3.14,0,0,1,1.06,0,2.48,2.48,0,0,0,.72,0,.58.58,0,0,1,.32,0,1.38,1.38,0,0,0,.78,0,1.75,1.75,0,0,1,.46,0,7,7,0,0,0,1.71,0,1.19,1.19,0,0,1,.32,0l.93.05.52.06.45,0,.38,0c.13,0,.27.08.39,0a2.92,2.92,0,0,1,1,.09,10.64,10.64,0,0,1,1.11.17,6.61,6.61,0,0,1,.76.22,5,5,0,0,1,2.4,1.65,13.11,13.11,0,0,0,1.38,1.41,10,10,0,0,1,1,1.17.31.31,0,0,1,.07.18,2.71,2.71,0,0,0,.26.88c.18.54.33,1.08.46,1.64a10.24,10.24,0,0,1,.1,1.91,4.62,4.62,0,0,1-.19,1.09,3.5,3.5,0,0,1-.35,1,5.2,5.2,0,0,0-.21.55,2.74,2.74,0,0,1-.37.77,9.21,9.21,0,0,0-.48.94c-.05.09-.08.23-.16.28a3.12,3.12,0,0,0-.8.86,1.41,1.41,0,0,1-.53.38c-.48.27-1,.53-1.43.81s-.69.46-1,.69c1,.59,1.91,1.12,2.8,1.71a2.66,2.66,0,0,1,1.1,1.28,4.5,4.5,0,0,1,.48,1.42.53.53,0,0,0,.08.25,1.72,1.72,0,0,1,.22,1.21,1.6,1.6,0,0,0,.08.65,3.93,3.93,0,0,1,.14.91c0,.52,0,1,0,1.58a1.22,1.22,0,0,0,0,.33,6.13,6.13,0,0,1,0,1.71c0,.08,0,.18,0,.26a13,13,0,0,1,.08,1.77,2,2,0,0,0,.57,1.3,7.37,7.37,0,0,0,.86.71c.42.31.43.32.25.88a1.37,1.37,0,0,1-1,.16c-.3.29-.65.17-1,.14a4.94,4.94,0,0,0-.86,0c-.39,0-.78.09-1.18.13a.41.41,0,0,1-.19,0,11.62,11.62,0,0,0-1.77,0,4.06,4.06,0,0,1-.85-.13,3.06,3.06,0,0,0-1.31-.09c-.4.08-.77-.12-1.17-.09-.59.06-1.18.07-1.77.09a1.47,1.47,0,0,0-.74.26.76.76,0,0,1-.69,0,1.42,1.42,0,0,1-1-1.26c0-.26,0-.52,0-.79s0-.57-.06-.85a1.32,1.32,0,0,1-.05-.26c.12-.88-.12-1.74-.07-2.62a9.9,9.9,0,0,0-.07-1.72c-.05-.43-.21-.85-.3-1.28a18.57,18.57,0,0,0-.54-1.9,1.77,1.77,0,0,0-.88-1.1,2.12,2.12,0,0,0-1-.38.61.61,0,0,1-.26-.08,1.24,1.24,0,0,0-1.31.09Zm.35-7.7a8,8,0,0,1,1.21-.2,5.12,5.12,0,0,0,1-.15,3,3,0,0,0,1.75-1,1.92,1.92,0,0,0,.48-.84c.06-.32.09-.65.13-1a.69.69,0,0,0,0-.2c0-.17-.08-.34-.13-.51a11.69,11.69,0,0,0-.44-1.3,1.43,1.43,0,0,0-1.33-.92c-.2,0-.4,0-.59,0a9.39,9.39,0,0,1-1.91-.06c-.09,0-.2.06-.32.1a14.87,14.87,0,0,0-.15,2.11c0,.46,0,.92,0,1.38a9.89,9.89,0,0,1,0,1.44,5.72,5.72,0,0,0,0,.59A.55.55,0,0,0,201.5,541.09Z"/>
<path class="cls-1" d="M181.24,503.56a1.53,1.53,0,0,0,.33-.83,13.49,13.49,0,0,1,.17-1.44c0-.31.07-.62,0-.92a16.92,16.92,0,0,1,.23-2.75c0-.28,0-.57,0-.86,0-.66,0-1.32.05-2,0-.35.07-.7.06-1a6.92,6.92,0,0,1,.45-2.11,1.93,1.93,0,0,0,.12-.44,5.4,5.4,0,0,1,.34-1.48c.08-.27.13-.55.2-.83a2.59,2.59,0,0,1,.11-.37c.18-.45.4-.89.54-1.35s.16-.78.24-1.16a5.59,5.59,0,0,1,.15-.71.48.48,0,0,1,.6-.38,4.09,4.09,0,0,0,2.08-.2,2.77,2.77,0,0,1,.64-.11,6.92,6.92,0,0,1,1.64-.08,3.06,3.06,0,0,0,.79-.07c.33,0,.66-.08,1-.08a13.84,13.84,0,0,0,2.57-.13,5.63,5.63,0,0,1,.92,0c.44,0,.88,0,1.32,0a1,1,0,0,1,1,1.35,4,4,0,0,0-.22.82,4.9,4.9,0,0,1-.29.81,1.42,1.42,0,0,0-.14.76,1.35,1.35,0,0,1-.23.82,1.35,1.35,0,0,0-.25.8.89.89,0,0,1-.08.32c-.24.92-.48,1.83-.71,2.75-.15.59-.29,1.19-.5,1.77a5.18,5.18,0,0,0-.17,1c0,.15-.06.3-.08.46-.07.45-.12.92-.22,1.37-.16.75-.33,1.5-.54,2.23-.27.93-.58,1.85-.86,2.77a2.57,2.57,0,0,0-.07.4c0,.08,0,.19,0,.26a4.4,4.4,0,0,0-.38,1.18c-.16.52-.3,1.05-.44,1.58a2.44,2.44,0,0,1-.06.26c-.21.65-.4,1.3-.64,1.94a6.12,6.12,0,0,1-.48,1.36.31.31,0,0,0,0,.19,2,2,0,0,1-.31,1.19,2.2,2.2,0,0,0-.28,1,1.58,1.58,0,0,1-.17.56,10.4,10.4,0,0,1-.69,1.78.56.56,0,0,0,0,.12c-.23.85-.47,1.7-.68,2.55a2,2,0,0,0-.05.6,7.51,7.51,0,0,0,0,1.5c0,.17-.09.29-.23.36a1.79,1.79,0,0,1-1,.2c-.6,0-1.19-.14-1.78-.16a23.36,23.36,0,0,0-2.37-.13c-.9,0-1.81,0-2.71,0a23.35,23.35,0,0,0-2.51,0c-.59-.26-1.18,0-1.77,0-.39,0-.79,0-1.18,0a1.94,1.94,0,0,0-.72.07.71.71,0,0,1-.7-.08.78.78,0,0,1-.3-.54,11.39,11.39,0,0,0-.41-1.11c-.18-.5-.35-1-.52-1.5-.23-.69-.46-1.37-.68-2.06a5,5,0,0,1-.17-.77,4.77,4.77,0,0,0-.33-1.2,12.9,12.9,0,0,1-.52-1.77,2.75,2.75,0,0,0-.21-.61,5.66,5.66,0,0,1-.36-1c-.15-.55-.27-1.11-.41-1.67a10.34,10.34,0,0,1-.37-1.4,11,11,0,0,0-.38-1.79c-.14-.5-.27-1-.37-1.52a2.44,2.44,0,0,1-.06-.26,14.52,14.52,0,0,0-.39-2.07,14.86,14.86,0,0,1-.41-2.4,1,1,0,0,0-.08-.45,3.37,3.37,0,0,1-.3-1.28,2.45,2.45,0,0,0-.27-.87,2.55,2.55,0,0,1-.23-.95,11.6,11.6,0,0,0-.5-2.19.53.53,0,0,0-.11-.24,3.07,3.07,0,0,1-.53-1.34.76.76,0,0,0-.06-.25,6.14,6.14,0,0,1-.44-1.44,1.05,1.05,0,0,0-.05-.19,19.46,19.46,0,0,1-.92-2,.76.76,0,0,1-.1-.31.59.59,0,0,1,.66-.74c.22,0,.44,0,.66,0a.75.75,0,0,1,.26,0,5.35,5.35,0,0,0,1.49.25,1.88,1.88,0,0,0,.58,0,.63.63,0,0,1,.27,0,11.31,11.31,0,0,0,1.84.13,2.91,2.91,0,0,0,.59,0,4,4,0,0,1,1.25-.05h.13a23.58,23.58,0,0,1,2.36-.24c.68-.09,1.35-.09,2-.12a5.14,5.14,0,0,1,1.11,0,.6.6,0,0,1,.57.46c.12.4.43.71.52,1.13a1.34,1.34,0,0,1,.07.18,17.94,17.94,0,0,0,.43,1.79,5.91,5.91,0,0,1,.15.84c.14.69.29,1.38.42,2.07a7.38,7.38,0,0,0,.26.95,5.48,5.48,0,0,1,.31,2.08,14.73,14.73,0,0,0,.15,2.3,24.4,24.4,0,0,1,.54,3.39,3.58,3.58,0,0,0,.09.45c.19.84.37,1.68.56,2.51A4.52,4.52,0,0,0,181.24,503.56Z"/>
<path class="cls-1" d="M117.44,497a3,3,0,0,1,.42,2,1.13,1.13,0,0,0,0,.26,8.41,8.41,0,0,1,0,2.35c0,.2,0,.4,0,.59s0,.53-.08.79a10.28,10.28,0,0,0,0,1.84,1,1,0,0,1-1,1.12,5.82,5.82,0,0,0-1.31.13,5.16,5.16,0,0,1-1.18,0,8.83,8.83,0,0,0-1.71.11h-.13a5.23,5.23,0,0,0-1.31,0c-.37,0-.74-.05-1.11-.08s-.48-.09-.72-.09a10.34,10.34,0,0,0-1.11.07.31.31,0,0,0-.24.28,3.57,3.57,0,0,0-.12,1.11,7.89,7.89,0,0,1,0,1.38v.66a2.72,2.72,0,0,0,1.29.27,18.44,18.44,0,0,1,2.23,0c.44,0,.88,0,1.32,0a3.31,3.31,0,0,1,1.17.16,1.45,1.45,0,0,0,.59.07,3.36,3.36,0,0,1,1.18.07.76.76,0,0,0,.26,0c.35,0,.69-.1,1-.11.66,0,1.32,0,2,0a.72.72,0,0,1,.75.59,1.21,1.21,0,0,1,.08.95c0,.09,0,.22,0,.33a4.48,4.48,0,0,1-.14,1.5,3.42,3.42,0,0,0-.12,1.43,6.22,6.22,0,0,1,0,1.06c0,.17,0,.35,0,.52a12.37,12.37,0,0,0,.15,1.48,1.07,1.07,0,0,1-.86,1,2.36,2.36,0,0,1-1.18,0,.41.41,0,0,0-.19,0,6.92,6.92,0,0,1-1.51.07c-.28,0-.57,0-.85,0s-.66-.11-1-.1-.59.09-.9.1a20,20,0,0,0-2.57.16,1.23,1.23,0,0,1-.33,0,2.42,2.42,0,0,0-1.3.13,1.33,1.33,0,0,1-.45.07,14.84,14.84,0,0,1-2.11.11,2.56,2.56,0,0,0-.78.08,3.77,3.77,0,0,1-1.11.06l-2.11-.08c-.38,0-.75,0-1.12-.05-.64,0-1.28-.13-1.92-.14s-1,.06-1.57.07c-.27,0-.53-.05-.79-.06l-1.37,0a2.18,2.18,0,0,1-.52-.06.68.68,0,0,1-.54-.61c0-.42-.07-.84,0-1.25a9.26,9.26,0,0,0,0-1.58,4.85,4.85,0,0,1,0-.85c.07-.75.25-1.47.29-2.22a12.55,12.55,0,0,1,0-1.84,1.22,1.22,0,0,0-.09-.65,3.62,3.62,0,0,1-.26-1.42c0-.21,0-.42,0-.64,0-1,.25-1.88.29-2.82,0-.31,0-.62,0-.93a6.54,6.54,0,0,1,0-1,16.49,16.49,0,0,0,0-2.11,4.84,4.84,0,0,1,0-.85,8.79,8.79,0,0,0,.15-1.84c0-.88-.06-1.75,0-2.64,0-.52,0-1.05,0-1.58s0-.88,0-1.32a.91.91,0,0,0,0-.33,10.36,10.36,0,0,1-.25-2.42,2.64,2.64,0,0,0,0-.4,6.25,6.25,0,0,1-.09-1.78c0-.59,0-1.19,0-1.79a.91.91,0,0,0-.14-.42.78.78,0,0,1,.53-1.17,2.59,2.59,0,0,1,.84-.05,8.05,8.05,0,0,0,1.9,0,2.62,2.62,0,0,1,.79,0,7.82,7.82,0,0,0,1.45.05l1.72,0c.33,0,.66.07,1,.06a6.45,6.45,0,0,0,1.7-.07.46.46,0,0,1,.26,0,4.66,4.66,0,0,0,1.58,0,5.92,5.92,0,0,0,.84,0,7.57,7.57,0,0,1,1.25-.13,8.26,8.26,0,0,1,.86,0,9.88,9.88,0,0,0,2,0,2.36,2.36,0,0,1,.46,0,5,5,0,0,0,.86,0,19,19,0,0,1,3,0c.42,0,.84,0,1.25.05a9.14,9.14,0,0,0,1.17,0,2.74,2.74,0,0,1,1.2.35.33.33,0,0,1,.19.32c0,.33,0,.66,0,1,0,.53,0,1.06.08,1.58a3.4,3.4,0,0,0,.07.46,1.4,1.4,0,0,1-.09.9c-.11.23-.1.52-.19.76a3.78,3.78,0,0,0-.18,1.42,5.19,5.19,0,0,0,.08,1.57.66.66,0,0,1-.72.8c-.39-.07-.73.12-1.11.07a9.37,9.37,0,0,0-1.06,0c-.39,0-.79,0-1.18-.07a10.4,10.4,0,0,0-2.84.09c-.43.07-.86.14-1.3.19a3.9,3.9,0,0,1-.59,0,1.8,1.8,0,0,1-.19-.05,5.75,5.75,0,0,0-2,.24,3.71,3.71,0,0,1-.22,1.06,5.25,5.25,0,0,0-.07,1.06c.12.07.21.18.3.18.5,0,1,.25,1.49.13a2.48,2.48,0,0,1,.72,0c.46,0,.91.14,1.37.19a7.37,7.37,0,0,0,1,0c.71,0,1.41,0,2.11,0,.53,0,1-.1,1.58-.11A2.27,2.27,0,0,1,117.44,497Z"/>
<path class="cls-1" d="M96,462.56a2.63,2.63,0,0,1,.56,1.85,1.77,1.77,0,0,0,0,.46,8.91,8.91,0,0,1,.1,2.87c-.06.72-.28,1.42-.3,2.15a6.18,6.18,0,0,1-.25,1,10.64,10.64,0,0,1-.49,1.64,11.16,11.16,0,0,1-.77,1.45,3.29,3.29,0,0,1-1.12,1,12.9,12.9,0,0,1-1.17.6.86.86,0,0,0-.23.13c-.5.44-1.12.69-1.65,1.08a.42.42,0,0,1-.18.08c-.63.09-1.22.37-1.86.42a3.78,3.78,0,0,0-1.64.43,1.73,1.73,0,0,1-.62.2c-.66.08-1.32.13-2,.19s-1.13.1-1.69.19a3.62,3.62,0,0,1-1.9-.09c-.45-.17-.92-.26-1.39-.4a5.2,5.2,0,0,1-.55-.21,1.44,1.44,0,0,0-.37-.15,6,6,0,0,1-1.62-.72,1.4,1.4,0,0,1-.32-.22l-.26-.2c-.75-.47-1.49-.93-2.23-1.41a11.75,11.75,0,0,1-1.38-.91,6.3,6.3,0,0,1-.79-1c-.07-.1-.11-.24-.19-.34a5.63,5.63,0,0,1-1.09-2.38,3.47,3.47,0,0,0-.23-.61c-.08-.21-.19-.4-.27-.6a4.08,4.08,0,0,0-.48-1,1.2,1.2,0,0,1-.15-.37,2.24,2.24,0,0,0-.29-.87.46.46,0,0,1-.06-.26c0-.48-.22-.94-.17-1.43a1.33,1.33,0,0,0,0-.39c-.08-.39-.14-.78-.23-1.17a7.24,7.24,0,0,0-.24-.75,2,2,0,0,1-.14-.77,3.41,3.41,0,0,0-.22-1.61.37.37,0,0,1-.07-.24c.15-.61-.12-1.22,0-1.82a5.39,5.39,0,0,1,.09-1.7,2.24,2.24,0,0,1,.09-.45,1.67,1.67,0,0,0,.07-.91,2.32,2.32,0,0,1,0-.59,3,3,0,0,1,.53-1.48.84.84,0,0,0,.16-.49,4,4,0,0,1,.36-1.4,7,7,0,0,0,.49-1.63,1.77,1.77,0,0,1,.29-.88.72.72,0,0,0,.1-.24A5.75,5.75,0,0,1,71,447a3.14,3.14,0,0,1,1-1.05l.8-.57a2.26,2.26,0,0,1,.38-.25,3.6,3.6,0,0,0,1-.81,4.81,4.81,0,0,1,2.16-1.18c.65-.13,1.3-.22,2-.33l.39-.08a8.63,8.63,0,0,1,1.21-.32c.46-.06.89-.19,1.33-.29a4.06,4.06,0,0,1,.85-.06c.36,0,.71,0,1.06.07a4.05,4.05,0,0,1,.78.09,6.46,6.46,0,0,0,1.63.22c.38,0,.74.1,1.12.14a7.71,7.71,0,0,1,.84.1,21.54,21.54,0,0,1,2.86.77,8.86,8.86,0,0,1,1.44.81c.39.24.76.49,1.17.7a4.54,4.54,0,0,1,1.63,1.42,2,2,0,0,0,.29.35,4.21,4.21,0,0,1,1.17,1.81,7,7,0,0,1,.41,1.25c.12.64.18,1.3.3,2,0,0,0,.09,0,.13,0,.73,0,1.46-.05,2.18a.91.91,0,0,1,0,.33.56.56,0,0,0,0,.56,1.2,1.2,0,0,1,.1.37c.06.28.11.57.15.85a.8.8,0,0,1-.73.85,3.44,3.44,0,0,1-.46,0,7.18,7.18,0,0,0-.8-.06,10.08,10.08,0,0,1-2-.22c-.39-.06-.78-.09-1.18-.14a.61.61,0,0,1-.19,0,6.56,6.56,0,0,0-2.16-.17,11.2,11.2,0,0,0-1.64.11c-.24,0-.47.11-.7.16a.75.75,0,0,1-.94-.51.51.51,0,0,1,0-.13,6.44,6.44,0,0,1,0-1.91c.06-.25.13-.51.17-.77a1,1,0,0,0,0-.39c0-.44-.12-.87-.13-1.31a1,1,0,0,0-.48-.76.27.27,0,0,0-.18-.07,6.19,6.19,0,0,0-1.05,0,3.51,3.51,0,0,1-.92.08,1.22,1.22,0,0,0-1.06.77s0,.09,0,.13a2.8,2.8,0,0,0-.36,1.37c0,.48-.09,1,0,1.45a17.62,17.62,0,0,1,0,1.78,1.22,1.22,0,0,1-.06.26,5.06,5.06,0,0,0-.1,1.1c0,.75.2,1.49.14,2.24a13.42,13.42,0,0,1-.08,1.9,1.79,1.79,0,0,0,0,.4c0,.52.06,1.05,0,1.58a4.47,4.47,0,0,0,.24,1.43,2.85,2.85,0,0,1,.12.7,6.75,6.75,0,0,0,.66,2.61.77.77,0,0,0,.72.51,3.42,3.42,0,0,0,1.11,0,6,6,0,0,0,1.15-.6.12.12,0,0,0,.05-.05c.21-.58.72-1.07.61-1.77a.07.07,0,0,1,0-.06,6.39,6.39,0,0,0-.4-2.6,1.13,1.13,0,0,1,0-.32c0-.41.26-.72.64-.62a2.32,2.32,0,0,0,1.17,0,1.76,1.76,0,0,1,.71.06,3.54,3.54,0,0,0,.92,0,8.2,8.2,0,0,1,1.31,0,1.57,1.57,0,0,0,.71-.13,6.63,6.63,0,0,1,3.63-.39A4.69,4.69,0,0,0,96,462.56Z"/>
<path class="cls-1" d="M112.43,560.51a1.91,1.91,0,0,1-.87-1.45,5,5,0,0,0-.51-1.94.64.64,0,0,0-.53,0,2.36,2.36,0,0,1-1.18,0,.33.33,0,0,0-.19,0,4.2,4.2,0,0,1-1.32.08c-.68,0-1.36,0-2,0-.11,0-.22,0-.33,0a.35.35,0,0,0-.36.39,2.11,2.11,0,0,0,0,.26.63.63,0,0,1,0,.27,7.55,7.55,0,0,0-.17,1.57,3.41,3.41,0,0,1-.23.75,1.12,1.12,0,0,1-1.17.54l-1.56-.53-2.49,0a5.79,5.79,0,0,0-.72,0c-.45.06-.91.14-1.37.19a7.57,7.57,0,0,1-1.51.11,1.5,1.5,0,0,0-.45.09.87.87,0,0,1-1-.34,2.65,2.65,0,0,1-.26-.39.83.83,0,0,1-.07-.87,1.82,1.82,0,0,0,.15-.84,4.1,4.1,0,0,1,.14-.91c.1-.47.24-.94.35-1.41s.17-.64.24-1a5,5,0,0,1,.42-1.31,3.59,3.59,0,0,0,.2-1.49c0-.85.11-1.7.2-2.56a2.21,2.21,0,0,1,.37-1,3.08,3.08,0,0,0,.38-1.05,3.31,3.31,0,0,1,.12-.45c.37-.92.59-1.88.94-2.81.17-.45.32-.9.51-1.34a6.35,6.35,0,0,0,.28-1.22,2.54,2.54,0,0,1,.13-.45l.54-1.41a1.19,1.19,0,0,0,.12-.38,10.77,10.77,0,0,1,.58-2.3c.15-.64.28-1.29.41-1.94,0-.15.07-.3.1-.45a4.13,4.13,0,0,0,.29-1.15c0-.39.14-.76.11-1.17a2.19,2.19,0,0,1,.18-1,3.15,3.15,0,0,0,.26-1.28,1,1,0,0,1,.21-.68,2.63,2.63,0,0,0,.45-1.42c0-.41.13-.82.2-1.2l.41-.35,1.32-.13a5.73,5.73,0,0,1,1.7-.14,12.68,12.68,0,0,1,2.22-.07c.56.21,1.13-.07,1.7.07a3.31,3.31,0,0,0,1-.07,25.61,25.61,0,0,0,3-.25,1.84,1.84,0,0,1,.52.05,3.49,3.49,0,0,0,1.44.09.73.73,0,0,1,.87.3.57.57,0,0,1,.1.56.71.71,0,0,0,0,.38c.06.55.15,1.09.23,1.64,0,.28,0,.56.1.84a4,4,0,0,0,.17.76c.14.35.31.68.47,1a1.14,1.14,0,0,1,.17.35,1.94,1.94,0,0,0,.23.53,3.93,3.93,0,0,1,.29.94c.16.82.35,1.63.43,2.47a7.12,7.12,0,0,0,.48,1.92c.23.57.37,1.17.57,1.75a13.1,13.1,0,0,0,.54,1.35,14.88,14.88,0,0,1,.67,1.79c.07.21.16.41.23.62s.07.25.1.38.09.38.13.57a10.79,10.79,0,0,1,.34,1.27,6.18,6.18,0,0,0,.29,1.08,3.53,3.53,0,0,1,.16.64,4.41,4.41,0,0,0,.6,1.8,1.9,1.9,0,0,1,.27.94,4.69,4.69,0,0,0,.22,1.09,2.82,2.82,0,0,1,.14,1,1.4,1.4,0,0,0,.06.45c0,.07.07.12.07.19a16.26,16.26,0,0,0,.79,2.91,5,5,0,0,1,.44,2,3.84,3.84,0,0,0,.22,1.15,3.7,3.7,0,0,1,.1.58.66.66,0,0,1-.43.84,1.67,1.67,0,0,1-.58.12,7.09,7.09,0,0,0-1.84,0,3.63,3.63,0,0,0-1.43,0l-.33.05a4.51,4.51,0,0,1-1.9.09.45.45,0,0,0-.2,0,4.64,4.64,0,0,1-1.44,0,14.78,14.78,0,0,0-2.49-.1C113.54,560.55,113,560.51,112.43,560.51Zm-4.27-20.93c-.07,0-.1.06-.11.08a6.72,6.72,0,0,1-.45,1.51c0,.07,0,.18,0,.26-.15.64-.08,1.31-.25,2a8.54,8.54,0,0,0-.21,1.23c-.08.7-.18,1.4-.19,2.1a8.08,8.08,0,0,1,0,.85,5.84,5.84,0,0,0,0,.83,9.53,9.53,0,0,0,2.74.06c0-.48-.06-1-.13-1.43s-.22-.95-.29-1.42-.1-.92-.14-1.38a5,5,0,0,1-.08-.65,12.84,12.84,0,0,0-.29-2.23c0-.3-.1-.6-.14-.91A1.31,1.31,0,0,0,108.16,539.58Z"/>
<path class="cls-1" d="M127.91,494l-2.8.05a2.89,2.89,0,0,1-1.24.05c-.49,0-1,0-1.46.05a5.62,5.62,0,0,0-2.06.39.46.46,0,0,1-.57-.21,2.26,2.26,0,0,1-.38-1.31,3.49,3.49,0,0,0,0-.85,1.92,1.92,0,0,1,.07-.78c.07-.36.18-.72.25-1.09a1.73,1.73,0,0,1,.2-.62.68.68,0,0,0,.1-.44,14.12,14.12,0,0,1-.15-1.84c0-.11-.08-.21-.1-.32s-.08-.47-.11-.71a1.52,1.52,0,0,1,.49-1.19.58.58,0,0,1,.34-.17,11,11,0,0,1,1.5-.2,2.61,2.61,0,0,0,.46-.08,1,1,0,0,1,.38,0,1.48,1.48,0,0,0,.78-.05,1.84,1.84,0,0,1,.58,0c.81,0,1.63,0,2.43-.18s1.32,0,2-.06a1.53,1.53,0,0,1,.52,0,16.32,16.32,0,0,0,2.42.17c1.26.05,2.51-.13,3.77,0a5.39,5.39,0,0,0,1-.07,1.87,1.87,0,0,1,.4,0,12.67,12.67,0,0,0,1.63,0,11.34,11.34,0,0,0,1.65,0c.49,0,1,0,1.45-.08a15.28,15.28,0,0,1,2.44.08,6.45,6.45,0,0,0,1.39,0,8.26,8.26,0,0,1,.86,0l2.26-.09.36.23s.1,0,.11.08c.11.47.56.87.31,1.42a1.2,1.2,0,0,0-.09.77.46.46,0,0,1,0,.26,3.34,3.34,0,0,0-.06,1.44c0,.42-.09.84,0,1.23a7.45,7.45,0,0,1,0,1.25,9.54,9.54,0,0,0,.13,1.3,3.52,3.52,0,0,0,.28.7.67.67,0,0,1-.25.54,1.14,1.14,0,0,1-.82.2l-.39-.07a4,4,0,0,0-1.69,0,1,1,0,0,1-.38,0,4.41,4.41,0,0,0-1.45,0c-.31,0-.62.07-.93.07a8.29,8.29,0,0,0-1.31.12,6.78,6.78,0,0,1-.82.07,2.53,2.53,0,0,0-.07.38c0,.5-.07,1-.11,1.5a2,2,0,0,1,0,.26,7.18,7.18,0,0,0-.21,2.16c0,.4.08.79.1,1.19s.06.83.07,1.25a2.13,2.13,0,0,0,.15.9,1,1,0,0,1,.11.44,9.55,9.55,0,0,0,0,1.31,2.91,2.91,0,0,0,0,.78.34.34,0,0,1,0,.2c-.16.6-.11,1.23-.27,1.83a3,3,0,0,0,0,1.08.91.91,0,0,1-.07.63c0,.05-.07.15-.05.18.24.39,0,.78,0,1.17s0,.74,0,1.12a21.15,21.15,0,0,0,0,2.64,3.87,3.87,0,0,1,0,.59,9.13,9.13,0,0,0,.08,1.65,2.91,2.91,0,0,1,0,.59v.4c0,.39.07.78.08,1.18a.71.71,0,0,1-.57.71,3.38,3.38,0,0,1-1.18.13,1.42,1.42,0,0,0-.46,0,5.62,5.62,0,0,1-2.08.17,7.06,7.06,0,0,1-1.59-.06.87.87,0,0,0-.32,0,18.55,18.55,0,0,0-2,.3l-.13,0c-.72,0-1.45.06-2.18,0a7.5,7.5,0,0,1-1.49-.13.57.57,0,0,0-.38.07.57.57,0,0,1-.51,0c-.51-.16-.57-.25-.54-.81s0-.88,0-1.32.06-1,.09-1.57,0-1,0-1.51a1.71,1.71,0,0,1,.07-.59.86.86,0,0,0,0-.39,8.68,8.68,0,0,1,.11-2.49c.13-.78.2-1.57.27-2.35,0-.37.1-.73.11-1.11,0-.54-.06-1.06-.1-1.58s-.07-1-.08-1.52a7,7,0,0,0-.25-2A2.82,2.82,0,0,1,128,501c0-.41-.1-.83-.14-1.24a9.9,9.9,0,0,1,0-2.37,23.27,23.27,0,0,0,.14-2.5C128,494.59,127.92,494.33,127.91,494Z"/>
<path class="cls-1" d="M82.09,551.77a12,12,0,0,0,1.26.19c.61,0,1.23,0,1.84,0a3,3,0,0,1,.79-.05,1.5,1.5,0,0,0,.2,0c.39,0,.76-.21,1.16-.2l1.18.06c.22,0,.44.06.65.1a3.47,3.47,0,0,0,1.24.12,1.23,1.23,0,0,1,.27,0,5.49,5.49,0,0,0,1.56-.13,1.19,1.19,0,0,1,.46,0c.64.15.81.35.77,1a11.72,11.72,0,0,1-.21,1.3c-.07.46-.13.92-.21,1.37a5,5,0,0,0,.18,2c0,.1,0,.21.09.32a5.26,5.26,0,0,1,.15,2,1.43,1.43,0,0,1-.64,1c-.68,0-1.43.13-2.17.11-.53,0-1,.07-1.56.08a4.42,4.42,0,0,1-1.7-.05,1.2,1.2,0,0,0-.33,0c-.77,0-1.55,0-2.32,0s-1.4.13-2.1.19a1,1,0,0,1-.39,0,2.53,2.53,0,0,0-.91,0,5.92,5.92,0,0,1-1.11,0,18.9,18.9,0,0,1-2.37-.18,10.41,10.41,0,0,0-1.25,0,8.14,8.14,0,0,1-2.08-.33,4.77,4.77,0,0,0-1.64-.2,13.23,13.23,0,0,1-1.78,0,1.74,1.74,0,0,0-.89.2,2.28,2.28,0,0,1-.61.24.58.58,0,0,1-.63-.27.56.56,0,0,1,0-.68.92.92,0,0,0,.17-.68,5.76,5.76,0,0,1,.11-1.3,4.68,4.68,0,0,0,0-1.71,11.88,11.88,0,0,1-.15-1.45,8.56,8.56,0,0,0-.36-2.13,1.39,1.39,0,0,1-.08-.78.2.2,0,0,0,0-.13,16.63,16.63,0,0,1-.06-2.12,1.65,1.65,0,0,1,.07-.58,7.88,7.88,0,0,0,.31-1.81c0-.68.13-1.36.19-2a19.12,19.12,0,0,0,0-2.51c0-.42,0-.84-.09-1.25a22.25,22.25,0,0,1,0-2.31c0-.22,0-.44,0-.66a5,5,0,0,0-.19-1.81c.12-.75-.08-1.49,0-2.24a7,7,0,0,0-.09-1.71,8.21,8.21,0,0,1-.06-1.85c0-.48,0-1,.07-1.45a7.22,7.22,0,0,0,0-.93c0-.28.11-.54.07-.84a.72.72,0,0,1,.75-.75h.07a9.26,9.26,0,0,0,2.68-.09,5.91,5.91,0,0,1,1.83.07,1.57,1.57,0,0,0,.53,0,3.2,3.2,0,0,1,1.76.11c.08,0,.2,0,.31,0a1.16,1.16,0,0,1,.45,0,9.07,9.07,0,0,0,1.38,0c.46.05.92.1,1.38.12s.66,0,1,0a2.14,2.14,0,0,1,.7.19.89.89,0,0,1,.57.95,19.23,19.23,0,0,0,0,2.84,9.91,9.91,0,0,1-.14,2,7.1,7.1,0,0,0-.16,2.16,4.32,4.32,0,0,1,0,.8,19.79,19.79,0,0,1,0,2.31,7,7,0,0,1,0,1.58.3.3,0,0,0,0,.13c.28.49.1,1,.18,1.55a1.14,1.14,0,0,1,0,.32,1.18,1.18,0,0,0,.16,1,.8.8,0,0,1,.1.38,23.45,23.45,0,0,1,.07,2.37c0,.54,0,1.09,0,1.64a11,11,0,0,1-.11,2.5c-.07.28-.05.57-.1.85a6,6,0,0,1-.22.83C82,551.48,82,551.64,82.09,551.77Z"/>
<path class="cls-1" d="M81.73,485.07c0,.11.07.26.16.34a1.29,1.29,0,0,1,.3,1.23.8.8,0,0,0,0,.26,6.37,6.37,0,0,1,.06,1.63,2,2,0,0,1,0,.59.58.58,0,0,0,0,.26,5.3,5.3,0,0,1-.09,1.64,2.08,2.08,0,0,0,0,.86.87.87,0,0,1,0,.32c0,.48,0,1,0,1.44a4.85,4.85,0,0,0,.08.53c0,.15,0,.3,0,.45s0,.39,0,.59a2.58,2.58,0,0,1,0,.39,4.58,4.58,0,0,0,.09,1.11c0,.3,0,.62,0,.92.15,1.27.17,2.54.2,3.82,0,.7-.06,1.4-.09,2.11,0,.52,0,1.05,0,1.57a13.71,13.71,0,0,1,.1,2.56,1.83,1.83,0,0,1,0,.33c0,.66-.07,1.32-.11,2a1.42,1.42,0,0,0,.39.12c.48,0,1-.06,1.44-.11a6.54,6.54,0,0,1,1,0,4.83,4.83,0,0,0,1.37.06,6.73,6.73,0,0,0,2.1.1,15.11,15.11,0,0,1,1.9.09c.62.07,1.22-.12,1.83-.11a4.85,4.85,0,0,1,.66,0c.31,0,.51.21.49.51a15.18,15.18,0,0,1,.07,1.65c-.08.49,0,1-.09,1.51-.14,1.12-.21,2.24-.25,3.36a.77.77,0,0,0,0,.38c.36.52.18.91-.26,1.28-.28,0-.6.09-.88-.12a.22.22,0,0,0-.18,0,15.81,15.81,0,0,0-2.17.23,2.09,2.09,0,0,1-.79.06,10,10,0,0,0-2,.11,7,7,0,0,1-1.12,0,3.57,3.57,0,0,0-1,0,2,2,0,0,1-.59,0,8.23,8.23,0,0,1-1.56-.2.3.3,0,0,0-.13,0,6,6,0,0,1-1.64,0c-.52,0-1-.11-1.57-.15a5.78,5.78,0,0,0-.93,0,19.65,19.65,0,0,1-2-.05,1.22,1.22,0,0,1-.27,0,4.07,4.07,0,0,0-1.63,0,3,3,0,0,1-.79,0,1.58,1.58,0,0,0-.65,0c-.36.09-.72.18-1.09.24a2.34,2.34,0,0,1-.79,0,7.57,7.57,0,0,0-1.9,0,1.05,1.05,0,0,1-.52-.72,1.65,1.65,0,0,0,.26-1.16c0-.44.07-.88.08-1.32a8.74,8.74,0,0,0-.09-2.5,2,2,0,0,1,0-.65,5.63,5.63,0,0,0-.06-1.83,4.09,4.09,0,0,1,0-1c0-.35,0-.71,0-1.06s0-.52.06-.78a1.05,1.05,0,0,0,0-.46,1.16,1.16,0,0,1,0-.84,6.33,6.33,0,0,0,.13-1.44,4.7,4.7,0,0,0,0-1.45,6.05,6.05,0,0,1,0-1.9c.07-.61,0-1.23.07-1.84,0-.16,0-.31,0-.47a.74.74,0,0,0,0-.26,13.11,13.11,0,0,1-.05-2.17,1.78,1.78,0,0,0-.07-.39,3.6,3.6,0,0,1-.12-1.63,1.07,1.07,0,0,0,0-.39,6.93,6.93,0,0,1-.11-1.58c0-.48,0-1,0-1.45,0-.24,0-.48,0-.72,0-.44-.09-.88-.15-1.31a2.72,2.72,0,0,1-.06-1.3.34.34,0,0,0,0-.26,2.62,2.62,0,0,1-.11-1.36,3.15,3.15,0,0,0,0-.53.86.86,0,0,1,.15-.49A1,1,0,0,1,70,485.2a4.4,4.4,0,0,0,1.77,0,2.58,2.58,0,0,1,.39,0c.33,0,.66.18,1-.05a1.87,1.87,0,0,0,.91-.09.2.2,0,0,1,.13,0,2.65,2.65,0,0,0,1,0,7.17,7.17,0,0,1,1.31,0,2,2,0,0,0,.59,0,8.3,8.3,0,0,1,1.71-.15c.58.05,1.14,0,1.71,0A2.76,2.76,0,0,1,81.73,485.07Z"/>
<path class="cls-1" d="M162.87,485.18a1.37,1.37,0,0,1,.26.9,15,15,0,0,1-.18,2.23c-.08.48-.22.95-.27,1.42a11,11,0,0,0-.05,2.57c.07.52,0,1.05.05,1.57,0,.27,0,.53.08.79a2.72,2.72,0,0,1,0,.39,1.8,1.8,0,0,0,.11,1.1.2.2,0,0,1,0,.13,13.68,13.68,0,0,0,0,1.57.3.3,0,0,0,0,.13,5.11,5.11,0,0,1,0,1.7c0,.58,0,1.15,0,1.72a9.8,9.8,0,0,0,.25,2.29,1.23,1.23,0,0,1,.07.46,11.18,11.18,0,0,1,0,1.83,4.71,4.71,0,0,1-.14,1.63.29.29,0,0,0,0,.13c.16.83-.06,1.66,0,2.5a13.93,13.93,0,0,1,0,2,3.61,3.61,0,0,0,.08,1.31.65.65,0,0,1,0,.2c.07,1.05.13,2.1.19,3.15,0,.16.06.31.07.46a1.75,1.75,0,0,1-.26,1.2.63.63,0,0,1-.54.33,7.89,7.89,0,0,1-1.19,0,8.69,8.69,0,0,1-1.23-.18.61.61,0,0,0-.19,0,8.36,8.36,0,0,1-2.29,0,2.9,2.9,0,0,0-1.81.25.71.71,0,0,1-.31.1c-.43,0-.87.06-1.31.06a5.14,5.14,0,0,1-.78-.07,5.75,5.75,0,0,1-1.35-.31.28.28,0,0,0-.13,0h-1.42a5.52,5.52,0,0,1-.32-.47.81.81,0,0,1-.07-.38c0-.34.06-.69.08-1a1.09,1.09,0,0,1,0-.26,5.7,5.7,0,0,0,.27-1.29,2.76,2.76,0,0,0,0-.64c-.08-.93-.11-1.85-.19-2.77a3.92,3.92,0,0,0-.2-1,3.91,3.91,0,0,1-.16-1.76,19.34,19.34,0,0,0-.05-3.23c0-.05,0-.09,0-.13a10.9,10.9,0,0,1,.18-1.82,5.35,5.35,0,0,0,.08-1.64c0-.46,0-.92,0-1.38,0-.61,0-1.22,0-1.84a7.77,7.77,0,0,1,0-1.18,1.1,1.1,0,0,0,0-.51,1.33,1.33,0,0,1,0-.4,3,3,0,0,0,.06-1.11c0-.07,0-.17.06-.25s.11-.28.07-.38c-.13-.37.13-.74,0-1.11,0-.07,0-.17,0-.25a1.72,1.72,0,0,0,0-.39,9.38,9.38,0,0,0-.09-1.84s0-.09,0-.13c-.07-.79-.13-1.58-.21-2.37,0-.35-.11-.69-.14-1a10.6,10.6,0,0,1,0-1.26,2.11,2.11,0,0,0-.18-1.16A.61.61,0,0,1,150,485a1.22,1.22,0,0,1,1.19-.57,1,1,0,0,0,.45,0,1.85,1.85,0,0,1,1.29,0,3.38,3.38,0,0,0,.78.07,5.57,5.57,0,0,1,.91.06,13.71,13.71,0,0,1,2.85.57,5.46,5.46,0,0,0,2.41.2,12.07,12.07,0,0,1,1.9-.15A2.58,2.58,0,0,1,162.87,485.18Z"/>
<path class="cls-1" d="M130,462.86c0-.33,0-.66.07-1a3,3,0,0,0,0-.52,16.54,16.54,0,0,1,0-2.44,1.1,1.1,0,0,0-.23-.79.66.66,0,0,1,.2-1.07,1.28,1.28,0,0,1,.69-.19,7.87,7.87,0,0,0,1.38-.12,9.59,9.59,0,0,1,1.85-.12c.44,0,.88,0,1.32,0a8.78,8.78,0,0,1,1.7,0,5.27,5.27,0,0,0,1.05,0c.48,0,1,0,1.44,0s1.15,0,1.72,0a4.71,4.71,0,0,1,1.75.26,1.42,1.42,0,0,0,1.27-.13,1.88,1.88,0,0,1,1-.17c.33,0,.61.37.63.81s0,.71,0,1.06a7.79,7.79,0,0,1,0,1.19,6.3,6.3,0,0,0,0,1.44c0,.24.07.48.1.72s0,.22,0,.33l.09,1.7a.79.79,0,0,1-.29.77,1,1,0,0,1-.74.17,3.4,3.4,0,0,0-1.76.11.69.69,0,0,1-.25,0,3.53,3.53,0,0,0-.46,0,16.14,16.14,0,0,1-2,.07l-2.31,0c-.22,0-.44,0-.66-.05s-.27-.08-.39-.05a1.77,1.77,0,0,1-1-.1,2.27,2.27,0,0,0-.78,0,.76.76,0,0,1-.26,0,5.68,5.68,0,0,0-1.84.06,8.21,8.21,0,0,1-1.92,0,3.36,3.36,0,0,1-1.16-.46.82.82,0,0,1-.41-.78c0-.24,0-.48,0-.73Z"/>
<path class="cls-1" d="M226.83,506.14a1.13,1.13,0,0,0,0-.26c-.07-.95-.15-1.89-.2-2.84,0-.59,0-1.18,0-1.77a14.15,14.15,0,0,1,.08-1.72,6.47,6.47,0,0,0,0-1.32c-.05-.41-.06-.82-.09-1.23a2.67,2.67,0,0,0-.15-1.09,1.79,1.79,0,0,1-.09-.46c-.09-.5-.2-1-.27-1.49a3.76,3.76,0,0,1-.08-1.38.83.83,0,0,0-.1-.57c-.14-.27-.24-.56-.38-.88a3.6,3.6,0,0,0,.36-.22c.14-.12.13-.34,0-.36a1,1,0,0,1-.71-.55c-.26-.43-.51-.87-.74-1.32a6.72,6.72,0,0,0-.75-1.08,23.39,23.39,0,0,0-2.07-1.52c-.09-.05-.17-.14-.26-.2a6.77,6.77,0,0,0-2-1,3.14,3.14,0,0,1-.94-.3,1.51,1.51,0,0,0-.82-.2.91.91,0,0,1-.73-.25.43.43,0,0,0-.29-.13,10.18,10.18,0,0,1-1.11-.12,16.18,16.18,0,0,0-2.31-.13c-.24,0-.47.05-.72.06-.74,0-1.48,0-2.22.1a2.74,2.74,0,0,1-1,.05.52.52,0,0,0-.31.08,4.62,4.62,0,0,1-1.42.26,5.66,5.66,0,0,0-2.51.45c-.59.18-1.15.44-1.73.65A4.46,4.46,0,0,0,202,486a1.66,1.66,0,0,1-.8.27,3.37,3.37,0,0,0-1.25.38,4.69,4.69,0,0,0-1.38,1.21,1.5,1.5,0,0,1-.31.35,2.78,2.78,0,0,0-1.18,1.53c-.16.48-.46.91-.62,1.38a4.72,4.72,0,0,0-.32,1.41,7.38,7.38,0,0,1-.22,1.42c-.06.3-.13.6-.17.91-.05.48-.08,1-.11,1.45s-.07,1-.07,1.58,0,1.32.06,2c0,.28,0,.57,0,.85,0,1,0,2.06,0,3.1,0,.31,0,.61,0,.92a15,15,0,0,0,0,1.77,11.32,11.32,0,0,1,.42,2.45c0,.07.05.13.06.19s.07.39.1.58.07.39.1.59a8.91,8.91,0,0,0,.43,1.59c.1.31.2.62.33.92a8.74,8.74,0,0,0,.78,1.74,2,2,0,0,0,.66,1c.38.37.77.73,1.16,1.09a5.55,5.55,0,0,0,2.05,1.28,2.74,2.74,0,0,1,.78.35,1.79,1.79,0,0,0,.61.23c.85.23,1.7.44,2.56.65a5.54,5.54,0,0,0,.71.12,13.82,13.82,0,0,1,2.57.09h.06a8.75,8.75,0,0,1,2.17.05,1.35,1.35,0,0,0,.4,0c.62-.13,1.26,0,1.9-.12a19.9,19.9,0,0,0,2-.3c.57-.16,1.18-.17,1.76-.31a6.54,6.54,0,0,0,2.39-1.08,3.75,3.75,0,0,1,.4-.21,11.83,11.83,0,0,0,1.48-.7,11.49,11.49,0,0,0,1.32-1.1c.25-.21.43-.52.71-.68a2.49,2.49,0,0,0,.75-.73l.73-1a6.25,6.25,0,0,0,.59-1c.27-.6.47-1.23.74-1.83a2.36,2.36,0,0,0,.23-1.22.61.61,0,0,1,0-.19C226.83,508.07,226.75,507.1,226.83,506.14Zm-8-9.75a7.31,7.31,0,0,1-.54,1.21,3,3,0,0,1-.89,1.13.49.49,0,0,0-.16.21,10.36,10.36,0,0,1-1.31,1.73c-.36.46-.82.82-1.21,1.25a1.24,1.24,0,0,0,.14.18A5.54,5.54,0,0,0,216,503a1.3,1.3,0,0,1,.34.21,6.25,6.25,0,0,0,1.59,1.16.41.41,0,0,1,.24.5.42.42,0,0,0,.08.37,2.47,2.47,0,0,1,.43,1.49,7.16,7.16,0,0,1,0,.93,1.91,1.91,0,0,1-.79,1.45,1.71,1.71,0,0,0-.31.3,4,4,0,0,1-1.84-.24,2.4,2.4,0,0,1-1.28-.9,1.27,1.27,0,0,0-.21-.25l-.1-.08c0,.12.07.24.1.37a.4.4,0,0,1-.18.51.41.41,0,0,0-.2.32,2.5,2.5,0,0,1-.76,1.36,5.68,5.68,0,0,1-.68.62,1.86,1.86,0,0,1-1.58.47,2.05,2.05,0,0,0-.43,0,3.86,3.86,0,0,1-1.14-1.48,2.38,2.38,0,0,1-.27-1.54,1.75,1.75,0,0,0,0-.32.51.51,0,0,1,0-.13c-.07.11-.13.22-.19.33a.38.38,0,0,1-.49.23.45.45,0,0,0-.37.09,2.48,2.48,0,0,1-1.5.43,5.62,5.62,0,0,1-.92-.05,1.84,1.84,0,0,1-1.45-.78,2.13,2.13,0,0,0-.3-.31,3.84,3.84,0,0,1,.24-1.85,2.37,2.37,0,0,1,.89-1.28.86.86,0,0,0,.26-.2,17.19,17.19,0,0,1,1.71-1.81c.06-.07.15-.13.17-.2a2.94,2.94,0,0,1,.75-1l-.35-.35c-.28-.28-.67-.43-.93-.74a5.4,5.4,0,0,0-.41-.42,2.33,2.33,0,0,0-.37-.27,1.87,1.87,0,0,1-.59-.42.7.7,0,0,0-.26-.19,2.3,2.3,0,0,1-1.09-1,.85.85,0,0,1-.15-.87.33.33,0,0,0,0-.19,3.74,3.74,0,0,1,.43-1.71,2,2,0,0,1,1-1.12.91.91,0,0,1,.77-.07,8.68,8.68,0,0,1,1.2.55,3.12,3.12,0,0,1,1.13.88.47.47,0,0,0,.21.16l.23.13a.88.88,0,0,1,0-.23.83.83,0,0,0,0-.32,2.31,2.31,0,0,1-.05-1.49.86.86,0,0,1,.51-.73.44.44,0,0,0,.16-.1,3.71,3.71,0,0,1,1.52-.91,2,2,0,0,1,1.47-.11,1,1,0,0,1,.59.5,8,8,0,0,1,.47,1.23,3,3,0,0,1,.17,1.43.58.58,0,0,0,0,.26,2.58,2.58,0,0,1,.08.26,1.29,1.29,0,0,1,.16-.17.61.61,0,0,0,.19-.26,2.25,2.25,0,0,1,1-1.09.86.86,0,0,1,.87-.15.65.65,0,0,0,.2,0,3.64,3.64,0,0,1,1.71.43,2,2,0,0,1,1.12,1A.92.92,0,0,1,218.86,496.39Z"/>
<path class="cls-1" d="M187,548a2.35,2.35,0,0,0,0-.26c-.07-.95-.15-1.89-.21-2.83,0-.6,0-1.19,0-1.78a16.5,16.5,0,0,1,.08-1.72,5.3,5.3,0,0,0,0-1.32c0-.41-.06-.82-.08-1.23a2.68,2.68,0,0,0-.16-1.09,1.44,1.44,0,0,1-.08-.46c-.1-.5-.21-1-.27-1.49a3.75,3.75,0,0,1-.09-1.38.89.89,0,0,0-.09-.57c-.14-.27-.25-.56-.39-.88a2.17,2.17,0,0,0,.36-.22c.14-.12.13-.34,0-.36a1,1,0,0,1-.7-.55,14.31,14.31,0,0,1-.74-1.32,6.77,6.77,0,0,0-.76-1.08,21.87,21.87,0,0,0-2.06-1.52c-.1-.05-.18-.14-.27-.19a6.45,6.45,0,0,0-2-1,3.33,3.33,0,0,1-.94-.3,1.51,1.51,0,0,0-.82-.2A.85.85,0,0,1,177,526a.48.48,0,0,0-.29-.13,10.18,10.18,0,0,1-1.11-.12,16.27,16.27,0,0,0-2.31-.13l-.72.06c-.74,0-1.49,0-2.23.1a2.69,2.69,0,0,1-1,0,.56.56,0,0,0-.32.08,4.51,4.51,0,0,1-1.41.26,5.73,5.73,0,0,0-2.52.45c-.59.18-1.15.44-1.73.65a4.46,4.46,0,0,0-1.19.56,1.67,1.67,0,0,1-.79.28,3.13,3.13,0,0,0-1.25.37,4.73,4.73,0,0,0-1.39,1.21,1.46,1.46,0,0,1-.3.35,2.78,2.78,0,0,0-1.18,1.53c-.17.48-.46.91-.63,1.38a4.7,4.7,0,0,0-.31,1.41,8.25,8.25,0,0,1-.23,1.42c-.06.3-.13.61-.16.91-.06.48-.09,1-.12,1.45s-.07,1.05-.07,1.58,0,1.32.06,2c0,.28,0,.57,0,.85,0,1,0,2.07,0,3.1,0,.31,0,.61,0,.92a13.1,13.1,0,0,0,0,1.77,12,12,0,0,1,.42,2.45.6.6,0,0,0,.06.19c0,.2.07.39.1.59s.07.38.1.58a8.66,8.66,0,0,0,.42,1.59c.11.31.2.62.34.92a8.7,8.7,0,0,0,.77,1.74,2.11,2.11,0,0,0,.67,1l1.15,1.09a5.46,5.46,0,0,0,2.06,1.28,2.81,2.81,0,0,1,.77.35,1.85,1.85,0,0,0,.62.23c.85.23,1.7.44,2.55.65a6,6,0,0,0,.72.12,13.71,13.71,0,0,1,2.56.09h.07a8.68,8.68,0,0,1,2.16.05,1.38,1.38,0,0,0,.4,0c.63-.13,1.27,0,1.9-.12a20.09,20.09,0,0,0,2-.3c.56-.16,1.17-.17,1.75-.31a6.47,6.47,0,0,0,2.39-1.08,3.93,3.93,0,0,1,.41-.21,13.33,13.33,0,0,0,1.48-.7,11.47,11.47,0,0,0,1.31-1.09c.25-.22.43-.53.71-.69a2.49,2.49,0,0,0,.75-.73c.24-.34.5-.67.73-1a6.25,6.25,0,0,0,.59-1c.28-.6.48-1.23.74-1.83a2.34,2.34,0,0,0,.23-1.22,1.21,1.21,0,0,1,0-.19C187,550,186.93,549,187,548Zm-5.79-3.41a1,1,0,0,1-.5.59,8.09,8.09,0,0,1-1.24.47,3,3,0,0,1-1.42.17.58.58,0,0,0-.26,0,10.41,10.41,0,0,1-2.15.3c-.59.07-1.17,0-1.75,0a2,2,0,0,0,0,.23,5.44,5.44,0,0,0,.13,1.45,1.24,1.24,0,0,1,.09.38,6.23,6.23,0,0,0,.31,2,.4.4,0,0,1-.19.51.44.44,0,0,0-.2.32,2.55,2.55,0,0,1-.75,1.36,5.77,5.77,0,0,1-.69.62,1.85,1.85,0,0,1-1.58.47,2,2,0,0,0-.43,0,4,4,0,0,1-1.14-1.48,2.38,2.38,0,0,1-.27-1.54.88.88,0,0,0,0-.32,17.27,17.27,0,0,1-.07-2.49c0-.09,0-.2,0-.27a3.11,3.11,0,0,1-.21-1.28h-.05a5.45,5.45,0,0,0-1.45.14,1.29,1.29,0,0,1-.38.08,6.86,6.86,0,0,0-2,.31.41.41,0,0,1-.51-.18.42.42,0,0,0-.32-.21,2.43,2.43,0,0,1-1.36-.75,5.68,5.68,0,0,1-.62-.68,1.87,1.87,0,0,1-.47-1.59,2,2,0,0,0,0-.42,3.86,3.86,0,0,1,1.48-1.14,2.43,2.43,0,0,1,1.53-.28,1,1,0,0,0,.33,0,18.83,18.83,0,0,1,2.49-.07.61.61,0,0,0,.27,0,2.94,2.94,0,0,1,1.25-.2v-.49c0-.39-.16-.78-.13-1.18a3.87,3.87,0,0,0,0-.59,1.69,1.69,0,0,0-.07-.45,1.71,1.71,0,0,1-.12-.71.57.57,0,0,0-.05-.32,2.31,2.31,0,0,1,0-1.49.87.87,0,0,1,.51-.73.48.48,0,0,0,.17-.1,3.67,3.67,0,0,1,1.51-.91,2,2,0,0,1,1.48-.11,1,1,0,0,1,.59.5,8.34,8.34,0,0,1,.46,1.23,3.16,3.16,0,0,1,.18,1.43.47.47,0,0,0,0,.26,10.41,10.41,0,0,1,.3,2.15c.07.58,0,1.15,0,1.72.23,0,.45,0,.67,0,.39,0,.77-.17,1.18-.14a3.87,3.87,0,0,0,.59,0,2.22,2.22,0,0,0,.45-.06,1.71,1.71,0,0,1,.71-.12.68.68,0,0,0,.32-.06,2.31,2.31,0,0,1,1.49,0,.86.86,0,0,1,.72.51.46.46,0,0,0,.11.16,3.82,3.82,0,0,1,.91,1.52A2,2,0,0,1,181.22,544.62Z"/>
<path class="cls-1" d="M342.5,514.36l-1.06,4.88H326.39L340,480h15.76l14,39.21H354.61l-1.3-4.88Zm5.76-21.22h-.53a20,20,0,0,1-.65,4.41l-1.94,7.52h5.71L349,497.55C348.67,496,348.44,494.55,348.26,493.14Z"/>
<path class="cls-1" d="M373.66,519.24V480h17.69c4.12,0,8.41.47,12,4.06a12.94,12.94,0,0,1,3.7,9.64,10.59,10.59,0,0,1-2.17,7,9.39,9.39,0,0,1-5.41,3.12v.35a5.4,5.4,0,0,1,2,1.83l8.82,13.22h-16.4l-5.64-11.46a5.79,5.79,0,0,1-.53-1.24l-.24.12v12.58Zm13.87-21.75h1.65a4.71,4.71,0,0,0,3-.88,3.1,3.1,0,0,0,1-2.41,3.52,3.52,0,0,0-.77-2.35,3.1,3.1,0,0,0-2.41-1.06h-2.47Z"/>
<path class="cls-1" d="M418.46,519.24V492.43l-8,.36V480h30v12.76l-8-.36v26.81Z"/>
<path class="cls-1" d="M444.8,519.24V480h26.45v10.76H459v3.64h11.11v10.29H459v3.76H471.6v10.76Z"/>
<path class="cls-1" d="M483.66,528.65H473.19l6.29-19.4H493Z"/>
<path class="cls-1" d="M512.64,519.24V480h15.11c3.29,0,11.64.29,17.34,5.94,2.53,2.53,5.29,6.93,5.29,14.17,0,4.05-.76,9.28-5,13.58a19.27,19.27,0,0,1-14.05,5.52Zm14.11-12h1.06a8.62,8.62,0,0,0,6.05-1.82,7.39,7.39,0,0,0,2.3-5.65,8.17,8.17,0,0,0-2.3-5.88,8,8,0,0,0-5.58-1.88h-1.53Z"/>
<path class="cls-1" d="M556.44,519.24V480H582.9v10.76H570.67v3.64h11.11v10.29H570.67v3.76h12.58v10.76Z"/>
<path class="cls-1" d="M614.47,492.55c-1.71-1.17-4.82-2.94-8-2.94a4.65,4.65,0,0,0-2.7.71,1.6,1.6,0,0,0-.71,1.41c0,.82.12,1.59,2.3,2.06l4.52,1a13.14,13.14,0,0,1,6.7,3.35,10.47,10.47,0,0,1,3,7.76,12.66,12.66,0,0,1-3.52,9.23c-2.24,2.29-6.47,5-13.82,5-6,0-10-1.7-13.35-3l-1.29-.53,4.29-11,1.53,1.17a13.8,13.8,0,0,0,7.94,2.88,4.88,4.88,0,0,0,3-.7,2.11,2.11,0,0,0,.77-1.77,1.91,1.91,0,0,0-.47-1.35c-.47-.47-1.24-.65-2.71-.94l-3.46-.65a11.76,11.76,0,0,1-6.82-3.35,9.79,9.79,0,0,1-2.83-7.23,12.73,12.73,0,0,1,3.82-9.35c3-3.05,7.41-5.05,13.64-5.05a22.16,22.16,0,0,1,11.94,3.41Z"/>
<path class="cls-1" d="M625.7,519.24V480h14.23v39.21Z"/>
<path class="cls-1" d="M667,496.43h22v.88c0,4.82-.42,11.35-5.12,16.41-3.88,4.17-10.17,6.4-16.64,6.4-8.23,0-13.23-3.29-16.16-6.46-3.71-4-5.06-8.76-5.06-13.94,0-7.17,2.76-11.7,5.41-14.4,3.17-3.29,8.58-6.17,16.46-6.17a23.49,23.49,0,0,1,11.52,2.76,18.24,18.24,0,0,1,7.53,7.23l-13.29,4.94a6.12,6.12,0,0,0-5.41-3,7.31,7.31,0,0,0-5,1.82,10.85,10.85,0,0,0-.3,14.41,6.54,6.54,0,0,0,4.65,1.76c2.11,0,4.88-.76,5.82-3.35H667Z"/>
<path class="cls-1" d="M695.07,519.24V480h13.58l9.11,14.81a42.22,42.22,0,0,1,3.71,6.94h.41a45.92,45.92,0,0,1-1.23-9.29V480h13.64v39.21H720.65l-9.76-15.46a52.19,52.19,0,0,1-2.71-5.11h-.41a48.32,48.32,0,0,1,.88,7.23v13.34Z"/>
<path class="cls-1" d="M748.1,528.65H737.64l6.29-19.4h13.46Z"/>
<path class="cls-1" d="M805.36,518.54a29.89,29.89,0,0,1-9.87,1.58,20.6,20.6,0,0,1-14.47-5.7,20.24,20.24,0,0,1-5.7-14.46,21,21,0,0,1,5.88-14.88A20.28,20.28,0,0,1,796,479.15a29.48,29.48,0,0,1,9.34,1.53l.41,14.93c-1.64-1.65-4.7-3.88-8.28-3.88a7.71,7.71,0,0,0-5.71,2.41,8.3,8.3,0,0,0-2,5.58,7.77,7.77,0,0,0,2.29,5.65,8.08,8.08,0,0,0,5.82,2.23,10.94,10.94,0,0,0,7.93-3.7Z"/>
<path class="cls-1" d="M848.1,513.83c-3.35,3.41-8.81,6.29-16.28,6.29s-12.93-2.88-16.29-6.29a21.18,21.18,0,0,1,0-28.39c3.36-3.41,8.82-6.29,16.29-6.29s12.93,2.88,16.28,6.29a21.15,21.15,0,0,1,0,28.39Zm-21.4-20a8.8,8.8,0,0,0-2.23,5.88,8.35,8.35,0,0,0,2.23,5.82,7.57,7.57,0,0,0,10.23,0,8.22,8.22,0,0,0,2.24-5.82,7.94,7.94,0,0,0-2.24-5.88,7.06,7.06,0,0,0-5.11-2A6.83,6.83,0,0,0,826.7,493.79Z"/>
<path class="cls-1" d="M858.69,505V494.37h18.52V505Z"/>
<path class="cls-1" d="M912.36,518.54a29.89,29.89,0,0,1-9.87,1.58,20.6,20.6,0,0,1-14.47-5.7,20.24,20.24,0,0,1-5.7-14.46,21,21,0,0,1,5.88-14.88A20.28,20.28,0,0,1,903,479.15a29.48,29.48,0,0,1,9.34,1.53l.42,14.93c-1.65-1.65-4.71-3.88-8.29-3.88a7.71,7.71,0,0,0-5.71,2.41,8.3,8.3,0,0,0-2,5.58,7.77,7.77,0,0,0,2.29,5.65,8.08,8.08,0,0,0,5.82,2.23,11,11,0,0,0,7.94-3.7Z"/>
<path class="cls-1" d="M918.83,519.24V480h17.7c4.11,0,8.4.47,12,4.06a12.94,12.94,0,0,1,3.7,9.64,10.54,10.54,0,0,1-2.17,7,9.39,9.39,0,0,1-5.41,3.12v.35A5.51,5.51,0,0,1,946.7,506l8.82,13.22H939.11l-5.64-11.46a6.35,6.35,0,0,1-.53-1.24l-.23.12v12.58Zm13.88-21.75h1.64a4.69,4.69,0,0,0,3-.88,3.1,3.1,0,0,0,1-2.41,3.57,3.57,0,0,0-.76-2.35,3.12,3.12,0,0,0-2.42-1.06h-2.46Z"/>
<path class="cls-1" d="M960.63,519.24V480h14.23v39.21Z"/>
<path class="cls-1" d="M994.91,514.36l-1.06,4.88H978.8L992.38,480h15.76l14,39.21H1007l-1.29-4.88Zm5.76-21.22h-.53a20,20,0,0,1-.65,4.41l-1.94,7.52h5.71l-1.83-7.52C1001.08,496,1000.85,494.55,1000.67,493.14Z"/>
<path class="cls-1" d="M1052.88,518.54a30,30,0,0,1-9.88,1.58,20.59,20.59,0,0,1-14.46-5.7,20.21,20.21,0,0,1-5.71-14.46,21,21,0,0,1,5.88-14.88,20.3,20.3,0,0,1,14.82-5.93,29.59,29.59,0,0,1,9.35,1.53l.41,14.93c-1.65-1.65-4.7-3.88-8.29-3.88a7.71,7.71,0,0,0-5.7,2.41,8.26,8.26,0,0,0-2.06,5.58,7.77,7.77,0,0,0,2.29,5.65,8.1,8.1,0,0,0,5.82,2.23,11,11,0,0,0,7.94-3.7ZM1040.71,535l-6.47-4.59,7.76-8.64,6.82,4.82Z"/>
<path class="cls-1" d="M1071.51,514.36l-1,4.88H1055.4L1069,480h15.75l14,39.21h-15.11l-1.29-4.88Zm3.12-39.51a6.06,6.06,0,0,0-2.06-.58,1.82,1.82,0,0,0-1.41.53,8.66,8.66,0,0,0-1.29,1.88l-4.82-3.06a13.51,13.51,0,0,1,3.88-4.06,7,7,0,0,1,4.23-1.29,6.18,6.18,0,0,1,3.17.82l1.36.71a5.15,5.15,0,0,0,2.35.82,1.62,1.62,0,0,0,1.29-.47,7.87,7.87,0,0,0,1.12-1.29l.41-.65,5.23,2.59a15.75,15.75,0,0,1-2.41,3.29,7,7,0,0,1-5.41,2.47,7.23,7.23,0,0,1-3.11-.71Zm2.64,18.29h-.52a20.61,20.61,0,0,1-.65,4.41l-1.94,7.52h5.7l-1.82-7.52C1077.69,496,1077.45,494.55,1077.27,493.14Z"/>
<path class="cls-1" d="M1138.07,513.83c-3.35,3.41-8.82,6.29-16.29,6.29s-12.93-2.88-16.28-6.29a21.15,21.15,0,0,1,0-28.39c3.35-3.41,8.81-6.29,16.28-6.29s12.94,2.88,16.29,6.29a21.18,21.18,0,0,1,0,28.39Zm-21.4-20a8.76,8.76,0,0,0-2.24,5.88,8.32,8.32,0,0,0,2.24,5.82,7.57,7.57,0,0,0,10.23,0,8.26,8.26,0,0,0,2.23-5.82,8,8,0,0,0-2.23-5.88,7.11,7.11,0,0,0-5.12-2A6.79,6.79,0,0,0,1116.67,493.79Z"/>
<path class="cls-1" d="M1192.39,519.24l-2.53-3a19.13,19.13,0,0,1-5.29,2.94,21.81,21.81,0,0,1-7,1c-3.83,0-8.24-.41-12-3.93a11.48,11.48,0,0,1-3.76-8.53,9,9,0,0,1,2.47-6.41,12.61,12.61,0,0,1,7.35-3.58,9.22,9.22,0,0,1-3.82-7.53,9.81,9.81,0,0,1,2.64-6.76c2.29-2.53,6.41-4.23,11.7-4.23,6.64,0,10.17,2.64,11.76,4.35a9.2,9.2,0,0,1,2.64,6.52,9.4,9.4,0,0,1-3.17,7.41,12,12,0,0,1-4.41,2.59l3.47,3.58a26.39,26.39,0,0,0,6.06-5.93l7.4,8.46a31.47,31.47,0,0,1-6.11,4.59l9,8.52Zm-15-15.17a7.39,7.39,0,0,0-1.59,1.3,3.55,3.55,0,0,0-.76,2.11,2.41,2.41,0,0,0,.94,2,4.21,4.21,0,0,0,2.7.83,5.53,5.53,0,0,0,3.71-1.3Zm3.7-12.05a4.26,4.26,0,0,0,1.41,1.47,8.54,8.54,0,0,0,1.77-1.23,3,3,0,0,0,.94-2.24,2.47,2.47,0,0,0-.77-1.94,2.37,2.37,0,0,0-3.11.24,2.66,2.66,0,0,0-.77,1.94A2.94,2.94,0,0,0,1181.1,492Z"/>
<path class="cls-1" d="M1238.77,514.36l-1,4.88h-15L1236.25,480H1252l14,39.21h-15.11l-1.3-4.88Zm5.77-21.22H1244a20.61,20.61,0,0,1-.65,4.41l-1.94,7.52h5.7l-1.82-7.52A42.52,42.52,0,0,1,1244.54,493.14Z"/>
<path class="cls-1" d="M1272.64,519.24V492.43l-8,.36V480h30v12.76l-8-.36v26.81Z"/>
<path class="cls-1" d="M1299,519.24V480h14.23v39.21Z"/>
<path class="cls-1" d="M1317.14,480H1332l5.47,18.46a28.87,28.87,0,0,1,.88,5.23h.35a23.67,23.67,0,0,1,.82-5.23l5.35-18.46h14.88l-15.17,39.21h-12.23Z"/>
<path class="cls-1" d="M1363.71,519.24V480h14.23v39.21Z"/>
<path class="cls-1" d="M1410.92,492.55c-1.71-1.17-4.82-2.94-8-2.94a4.65,4.65,0,0,0-2.7.71,1.6,1.6,0,0,0-.71,1.41c0,.82.12,1.59,2.29,2.06l4.53,1a13.14,13.14,0,0,1,6.7,3.35,10.47,10.47,0,0,1,3,7.76,12.63,12.63,0,0,1-3.53,9.23c-2.23,2.29-6.46,5-13.81,5-6,0-10-1.7-13.35-3l-1.29-.53,4.29-11,1.53,1.17a13.8,13.8,0,0,0,7.94,2.88,4.88,4.88,0,0,0,3-.7,2.11,2.11,0,0,0,.77-1.77,1.91,1.91,0,0,0-.47-1.35c-.47-.47-1.24-.65-2.71-.94l-3.47-.65a11.81,11.81,0,0,1-6.82-3.35,9.82,9.82,0,0,1-2.82-7.23,12.73,12.73,0,0,1,3.82-9.35c3-3.05,7.41-5.05,13.64-5.05a22.16,22.16,0,0,1,11.94,3.41Z"/>
<path class="cls-1" d="M1420.56,519.24l6.35-39.21h14.64l4.58,16.05a29.47,29.47,0,0,1,.89,4.53h.35a17.05,17.05,0,0,1,.76-4.53l4.59-16.05h14.52l6.41,39.21H1460l-1.76-17.58a36.34,36.34,0,0,1-.24-3.88h-.23c-.18,1-.53,2.53-.77,3.3l-5.82,18.16h-8.35l-5.23-17.16a16.1,16.1,0,0,1-.76-4.3h-.42c0,.77,0,2.3-.06,3.06l-1.93,18.4Z"/>
<path class="cls-1" d="M1516.21,513.83c-3.35,3.41-8.82,6.29-16.28,6.29s-12.94-2.88-16.29-6.29a21.15,21.15,0,0,1,0-28.39c3.35-3.41,8.82-6.29,16.29-6.29s12.93,2.88,16.28,6.29a21.15,21.15,0,0,1,0,28.39Zm-21.4-20a8.8,8.8,0,0,0-2.23,5.88,8.35,8.35,0,0,0,2.23,5.82,7.57,7.57,0,0,0,10.23,0,8.22,8.22,0,0,0,2.24-5.82,8,8,0,0,0-2.24-5.88,7.08,7.08,0,0,0-5.11-2A6.81,6.81,0,0,0,1494.81,493.79Z"/>
</svg>
