<svg id="Camada_1" data-name="Camada 1" xmlns="http://www.w3.org/2000/svg" viewBox="0 0 1080 1080"><path d="M792.47,701.64c-15.15,12-93,16-105.69,3.8,4.76-1.83,8.59-4.42,12.53-4.58,10.17-.42,14.36-6.39,11.36-14.63-10.67-29.29-5.84-59.76-7.95-89.65-.68-9.69-3.79-15.25-13.36-15.9q-25.44-1.73-51-2.55c-9.26-.32-18.84,1.67-27.77,0-15.21-2.88-28.68-3-38.64,12.77-7.38-9.75-15.45-15.61-25.88-7.55-1.9,1.48-2.66,7.15-1.4,9.53,6.11,11.47,14.68,4,25.34-1-14.38,27.52-27.21,51.29-39.27,75.45-7.79,15.6-3.4,24.09,13.56,25.7,27.9,2.64,55.76,11.15,84,1.22,2.52-.89,6.67,2.83,10.07,4.41-2.6,2.61-4.93,7.12-7.84,7.54-33.52,4.74-68,15.79-100.51,11.53-47.94-6.28-94.68,5.09-141.89.56a47.11,47.11,0,0,0-19.27,2.58c-24.63,8.55-47.67-1-70.87-6.25-4.6-1-11.26-10.31-10.45-14.54,1.87-9.77,10.6-6.8,16.94-3.7,28.93,14.13,55.48,9,81.43-8.15,29.39-19.43,53.28-43.16,71.1-74.19,17.52-30.52,38.89-58.81,58.3-88.25,23.42-35.54,46.14-71.54,70-106.75,8.53-12.58,19.64-23.42,29.48-35.12,2.6-3.1,4.9-6.47,7.27-9.76,8.1-11.19,16.07-19.86,32.88-18.25,23.93,2.29,48.22.63,72.35.92,15.78.19,18.23,4,12.55,18a52.07,52.07,0,0,0-3.58,11.92c-3.85,26.54-8.24,53-11,79.7-3.48,34.09-7.59,68.32-7.68,102.51-.1,37.72,4.24,75.44,6.23,113.19.77,14.47,7.79,19.31,21.73,18,15.4-1.49,30.92-1.66,46.39-2.4C792.19,699,792.33,700.31,792.47,701.64ZM589.29,549.48c2.21-8.29,4.43-16.58,6.7-25.12-19.9-.27-36.26,20.86-29.46,37.52.88,2.15,10.06,3.66,12.69,1.74,4.55-3.32,7-9.55,10.31-14.56,5.21,9.85,11,16.9,24.48,16.49,25.4-.78,50.88.66,76.32,1.29,10.22.25,11.69-5.87,12.41-14.42,2.85-34.14,6.26-68.23,9.73-102.31,1-9.68,3.46-19.23,4.14-28.91.39-5.65-1.44-11.46-2.27-17.2-6.29,2-14.92,2.09-18.5,6.38-20.69,24.75-40.72,50.12-59.76,76.16-5.88,8-11.13,14-21.37,15.47-4.46.63-8.51,4.18-12.75,6.4,4.56.9,7.46-1.37,10.74-2.47,1.78-.59,5,.18,6.13,1.53s1.11,4.8.06,6.11C609.21,525.7,599.2,537.55,589.29,549.48ZM537.91,635c3.88-8.19,6.61-13.94,9.34-19.68-4.19-1.52-10.36-5.51-12.16-4.07-4.27,3.43-7.19,9.21-9,14.59C525.7,627.09,532.05,630.57,537.91,635Zm178-257.86c-.46-1.51-.93-3-1.39-4.53-3.9-.84-8.93-3.6-11.46-2.12-4.7,2.76-8,8-11.8,12.21,3.59,1.79,8.09,5.87,10.59,4.88C707,385.52,711.24,380.79,715.86,377.15Z"/></svg>