<svg id="Camada_1" data-name="Camada 1" xmlns="http://www.w3.org/2000/svg" viewBox="0 0 1080 1080"><path d="M697,468.65c0,11.29-.08,22.57,0,33.86s6.14,13.38,15.59,9.62a57.64,57.64,0,0,0,5.17-2.81c32.22-16.85,62.45-7.43,73.65,26.82,11.32,34.63,11.29,70.34-7.06,103.82-13.16,24-33.73,35.46-60.93,35.55-22.39.08-27.79,9.5-26.12,32.41,2.29,31.65,1.18,63.56.89,95.36,0,3.54-3.37,8.38-6.57,10.37-31.07,19.34-62,39-93.95,56.8-11.65,6.49-25.7,9.61-39.07,11.89-49.73,8.47-99.31,18.19-150.39,14.82-20.07-1.33-35-10.91-50.24-21.81-16.24-11.63-25-25.17-25.92-47.08-1.85-44-8.47-87.72-12.54-131.61-1.81-19.49-.13-39.51-3.74-58.59-5.33-28.09-14.62-55.4-21-83.32-5.45-23.77-9.81-47.84-13.37-72-1.44-9.77-.28-20.18,1.35-30,.64-3.88,5.14-8.2,9-10.28,33.14-17.9,66.26-35.87,100-52.55,8.87-4.39,19.85-4.9,30-6.26,47.55-6.36,95-13.71,142.77-18.1,32.4-3,65.22-2.55,97.81-1.93,17.53.34,23.81,7.67,26.44,25,4,26.47,7.56,53,11.3,79.52ZM633.1,593.19h2.83c0-51,.61-102.05-.2-153.06-.59-37.09-7.52-40.09-43.42-29.19-52.29,15.88-104.85,31.23-158,43.83-39.91,9.47-80.74,16-122.29,12.88-10.57-.8-14.4,5.8-13.07,14.89,2.91,19.79,7,39.4,10.07,59.16,4.44,28.43,19.78,53.44,21.34,83.38,3.23,62.08,11,123.91,16.19,185.89,2.33,27.65,10.49,53.6,38.35,62,23.12,7,49,8.22,73.43,6.85,31.18-1.77,62-9.21,93.12-13.22,16.95-2.19,29.42-8.87,36.8-24.94,3.22-7,7.69-14.19,13.43-19.17,26.76-23.22,31.41-54,31.42-86.69Q633.12,664.51,633.1,593.19Zm63.77-3-.93.17c1.59,17,2.84,34,5,50.9.52,4.06,3.64,10.46,6.42,10.95,4.43.79,11.8-1,14.08-4.28,16.12-23.49,29.92-66.62,7.86-97.54-9.51-13.31-25.2-13.32-32.38,1.56-2.94,6.1-2.75,14-2.78,21.13C694.13,578.75,695.9,584.46,696.87,590.16Z"/><path d="M307.47,235.44c4,3.77,8.71,7.06,12,11.39,15.74,20.47,31,41.33,46.7,61.8,3.8,4.95,9.84,8.36,13,13.59,2.48,4.12,2.12,9.95,3,15-5.29-.92-12.56,0-15.51-3.08-11.6-12.3-21.77-25.94-32.59-39s-22-25.68-32.39-39c-2.69-3.42-4.15-8.53-4.36-13-.17-3.68,2.33-7.48,3.65-11.24Z"/><path d="M573.41,189.07c-3.77,11.32-7.82,20.33-9.71,29.78-5.06,25.37-9.22,50.93-13.67,76.42-.58,3.36.3,7.58-1.44,10-2.41,3.36-6.66,5.39-10.12,8-2.77-4.4-8.56-9.37-7.85-13.12,6.76-35.89,14.35-71.64,22.53-107.24,1-4.34,6.34-9.07,10.74-10.66C566.18,181.41,570.8,187.07,573.41,189.07Z"/><path d="M466.12,309.49l-6.65,8.93c-3.85-3.07-10-5.45-11.17-9.34-5.09-16.79-8.34-34.13-13-51.06-3.63-13.08-8.73-25.75-12.45-38.81-1.09-3.86.3-8.42.55-12.65,4.52.38,9.26.05,13.45,1.43,2.16.71,4.12,4.22,4.83,6.83,7.88,28.66,15.5,57.38,23.14,86.09C465.3,302.79,465.41,304.77,466.12,309.49Z"/></svg>