<svg id="Camada_1" data-name="Camada 1" xmlns="http://www.w3.org/2000/svg" viewBox="0 0 1080 1080"><defs><style>.cls-1{fill:#f5b343;}</style></defs><path class="cls-1" d="M822.88,541.56c60.33-58.68,120.66-102.69,181-135.14-67-38.4-134-57-200.94-65.64,19-52.4,37.94-101.85,56.91-149.78a1206,1206,0,0,0-201.56,69.51c-31.4-55.45-62.8-111.56-94.2-173.62-26.14,51.63-52.28,107.88-78.42,166.18-54.25-34.69-108.49-75.88-162.74-122.41q1.62,146.69,3.23,280.8c-67.28,15.35-134.57,22.74-201.86,12.48,33.34,43.42,66.69,83.53,100,119.46-49.4,31.05-98.79,53.14-148.19,65.32,85.48,65.8,171,96.56,256.45,114.44q-20.15,112.62-40.3,212.05c42-19,84-40.17,126-64.48,14.08,40.26,28.17,80.69,42.25,122.38,45.89-59.54,91.77-129.58,137.66-203.72,79.24,30.54,158.47,72.47,237.71,122.35-10.23-69-20.46-136-30.69-200.53,46.56.47,93.12,5.44,139.68,17.19C904.21,661.51,863.55,597.9,822.88,541.56Z"/><path d="M791.13,647.56c1.77,3.61,3.07,6.6,4.66,9.41,2,3.61,5.37,6.54.46,11-1.42,1.3-.53,7.61,1.39,9.66,9.77,10.39,8.36,23.28,8.94,35.68.49,10.72-7,16.7-17.48,14-3.22-.82-7.48-3.13-8.55-5.82a128.88,128.88,0,0,1-7.66-26.34c-1.15-7.05,4.58-12.11,13-13.8.08-13,.3-24.13-9.35-34.86-11.19,5.59-22.19,12.33-34.07,16.59-8.21,3-17.83,1.7-26.49,3.73-13.18,3.1-26.07,7.43-38.67,11.11.48,3.61,1.91,6.89.86,8.3-1.4,1.86-4.67,2.64-7.28,3.17s-5.3.11-8,.12c1.58,3.85,2.41,8.33,5,11.39s6.81,5.21,10.52,7.4c6,3.53,9.69,8,9.27,15.52-.33,5.85,1.47,12,.23,17.57-1,4.51-4.28,10.46-8,11.92-5,1.94-10.91-.23-15.61-5-11-11.25-11.92-24.89-11-39.21a17.62,17.62,0,0,1,1.74-5.91c1-2.31,3.9-4.75,3.49-6.59a98.6,98.6,0,0,0-6.13-18.27c-.6-1.35-4.15-1.23-6.17-2.16-9.43-4.36-18.65-9.25-28.26-13.17-6.33-2.58-13.17-3.94-19.84-5.66-15-3.86-30-8-45.17-11.27-11.47-2.5-23.15-5.2-34.79-5.46-13.4-.29-24.65-6.08-36.2-11-20-8.48-39.4-18.31-59.21-27.24-5.31-2.4-11.17-3.58-17.23-5.46-2.07,2.55-6.27,5.43-6,7.85.74,7.14,2.26,14.56,5.35,21,2.81,5.84,6.11,11.54,13.76,14.37,9.74,3.6,17.43,24.19,14.76,34.33-2.16,8.19-14.71,11-23.39,5.29-9.15-6.06-12.45-15.16-13.13-25.58s-.33-21.28-2.33-31.56c-1.8-9.23-6.2-18-9.4-26.9-.52-1.45-1.54-3.29-1.07-4.42,4.83-11.59-4.91-18.19-8.92-26.73-4.55-9.67-8.09-20-13.94-28.82-8-12.11-9.23-25.9-13-39.14-5-17.4-10.93-34.59-17.34-51.53-3.13-8.26-10.46-10.56-19.46-8.56-5.48,1.23-11,2.11-16.62,2.95-17.29,2.62-23.36-13-20.64-24.88.76-3.33,5.61-6.39,9.26-8.24,6.32-3.2,13.18-5.32,19.79-8,16.14-6.46,32.25-13,48.41-19.43,10.86-4.32,21.6-9.08,32.74-12.52,15.45-4.76,31.3-8.2,46.83-12.7,11.76-3.41,23.08-8.51,35-11.18,13.94-3.14,28.25-4.7,42.46-6.51,9.18-1.18,18.48-1.44,27.7-2.44,1.8-.19,3.72-1.6,5.09-3,6.22-6.15,15.08-6.38,20.85.15,8.42,9.53,17.07,18.94,24.51,29.21,5.47,7.56,6.89,16.77,5.23,26.29-.27,1.53,1.06,4.11,2.43,5,11.1,7.37,22.15,14.85,33.67,21.51s23.8,12.29,35.55,18.71c17.79,9.72,35.5,19.57,53,29.7,8.19,4.72,16.08,10,23.85,15.41,13.21,9.18,26.2,18.67,39.32,28,2.5,1.77,5.44,3.05,7.59,5.16,1.46,1.44,3.22,5,2.59,5.77-8.32,10.41,0,21.07-.7,31.54a310.21,310.21,0,0,0-.08,37.84c.35,6.12,3,12.12,4.7,18.15q4.29,15.18,8.69,30.32c2.53,8.68,1.22,11-7.57,12.87C794,646.48,793.09,646.89,791.13,647.56ZM508,521.13l109.85,41.56-.6,2c-1.45.1-3,.64-4.35.23-14.26-4.53-28.58-8.91-42.66-13.92-21.88-7.79-43.57-16.09-65.39-24-1.62-.59-3.91-.85-5.35-.16-7.34,3.55-14,6.3-14.89-6,0-.39-1.3-.7-2-1-9-4.31-18-8.52-26.95-12.95-21.13-10.48-42.39-20.7-63.23-31.73C380.28,468.67,369,460.65,357,453.8c-5-2.87-10.72-4.53-17.78-7.43,1.74,5.57,2.87,9.39,4.13,13.17,4.44,13.27,9.84,26.29,13.14,39.83,3.54,14.5,8.57,28,17.41,40,1.94,2.64,2.84,6,4.38,9,6.61,12.68,13.22,25.36,20,37.93.7,1.3,2.72,2.79,4,2.7,14.12-.93,25.67,6.46,38,11.32C469,611.62,494.85,629.58,527,632.57c19.54,1.81,38.67,8.17,58,12.55,3.74.85,7.45,1.89,11.11,3,12.4,3.92,24.83,7.77,37.13,12,5.37,1.85,10.45,4.56,16,7-2-11.8-5.06-22-5.16-32.32-.2-21-7.85-39.35-17.51-57.29a89.89,89.89,0,0,1-3.89-9.25l90.69-30.47c-4.56-2.78-9.2-4.11-13.87-5.36-10.08-2.7-20.49-4.5-30.18-8.21-19.7-7.56-39.11-15.89-58.41-24.41-7.42-3.27-13.93-5.64-20.79,1-1.82,1.78-5.19,2.17-7.94,2.76-17.11,3.62-34.28,6.95-51.34,10.74C523.82,516,517,518.45,508,521.13ZM790.64,635.89c-2.85-10.11-5.44-19.29-8-28.48-3.5-12.45-7.72-24.7-6.79-38,.77-11.09,1-22.24.95-33.36,0-1.28-2.94-2.85-4.78-3.76a56.71,56.71,0,0,0-7.52-2.64c-.85-.28-2-.83-2.61-.51-5.83,3.15-12.26,5.67-17.2,9.91-8.87,7.61-19.82,7.9-30.18,10.43-4.32,1.06-8.92,1.18-13.08,2.64-6.6,2.31-12.81,5.74-19.41,8.06-10.81,3.78-21.89,6.82-32.7,10.6s-10.75,4.7-6.67,15.15c4.93,12.65,12.54,24.65,11.14,39-1.66,17.12,7.17,31.79,10.67,47.7.07.31.88.47,1,.54C689.11,663,712.83,654,738.69,652.33c1-.06,1.94-1.41,3-1.75C757.84,645.49,770.62,630,790.64,635.89ZM320.5,428.7c3.52,1.57,6,3.59,8.57,3.66,7.32.22,14.8-1.34,22-.4,15.67,2.05,30.45-2.62,45.46-5,13.08-2.11,25.89-6,38.76-9.26,29.85-7.64,59.69-15.29,89.48-23.17,18.7-4.95,37.28-10.32,56.31-15.61,1.35-10.32-5.31-17.58-11.67-24.78-1-1.09-4.08-.84-6-.42-9.66,2.1-19.15,5.63-28.88,6.48-22.63,2-42.67,11.1-62.88,20.23-8.42,3.79-17.19,6.84-25.9,9.95-9.12,3.26-18.34,6.22-27.54,9.24s-18.19,6.25-27.46,8.73c-7.58,2-15.47,2.89-23.13,4.68-9.87,2.31-19.54,6.37-29.49,7.12C331,420.65,326.24,422.84,320.5,428.7ZM559,345.16c-4.34-11-4.88-11.05-13.16-6.44a27.59,27.59,0,0,1-8.94,3c-5.6.89-11.3,1.12-16.94,1.82-8.38,1.05-16.83,3.66-25.08,3.08-13.82-1-26,4.21-38.55,7.84-16.48,4.74-32.76,10.16-49.22,15-7,2.05-14.53,2.64-21.43,5-18.81,6.47-37.53,13.26-56.05,20.51-7.65,3-14.71,7.5-24.05,12.37,6.57,3.33,10.86,7.31,15.1,7.26,8.85-.09,17.8-1.78,26.48-3.82,9.38-2.21,18.42-5.88,27.75-8.37,14.77-4,29.75-7.15,44.46-11.29,7.52-2.12,14.62-5.73,22-8.42,6.43-2.34,13.27-3.71,19.43-6.59C484.45,365,508,354,534.73,351.92,542.72,351.29,550.47,347.62,559,345.16ZM662.37,706.94l-2.81.58c0,4-.2,8,0,12,.58,10,2.6,19.45,11.81,25.29,2.15,1.37,5.37,2.39,7.6,1.77,1.36-.38,2.77-4.37,2.41-6.43-1.06-6.07-3-12-4.46-17.49L669.23,727a64.69,64.69,0,0,1-2.89-6.5C664.89,716.05,663.68,711.48,662.37,706.94Zm-354-288a20.91,20.91,0,0,0-20.73-4.16c-2.37.75-5.66,4-5.56,5.95.16,3.29,2.69,6.47,4.73,10.76,4.39-8.81,5.67-9.25,11.6-3.79,4.83,4.46,7.23,2.25,8.95-2.51C308.06,423.14,308,420.81,308.32,419ZM785.84,691c.54-.19-1.08-.12-1.72.7-3.64,4.66,1.16,23.77,6.65,26.17,1.18.51,4.08-.15,4.39-1,.79-2.07,1.42-4.9.59-6.75C792.85,703.77,789.32,697.63,785.84,691ZM405.28,649.89l15.19,18.23,2.71-1.4-4.35-14.4Z"/><path d="M569.47,621.3l-57.66-55.78,1.73-2.3c1.64.23,3.71-.1,4.85.77,18.73,14.28,38.9,27,53.41,46.08C577.19,617.18,576,619.79,569.47,621.3Z"/><path d="M408.16,524.85c2.35,2,5,3.65,7,5.94,9.92,11.43,19.82,22.88,29.3,34.67,1.51,1.88.88,5.5,1.24,8.32L442.13,575q-18.21-24-36.44-48Z"/><path d="M488.32,592.49l-30-40.7,2.46-2.28c1.46,1,3.24,1.69,4.34,3,9,10.54,17.64,21.31,26.72,31.75C495.76,588.71,494.45,590.79,488.32,592.49Z"/></svg>