<?xml version="1.0" encoding="utf-8"?>
<!-- Generator: Adobe Illustrator 24.1.2, SVG Export Plug-In . SVG Version: 6.00 Build 0)  -->
<svg version="1.1" id="Camada_1" xmlns="http://www.w3.org/2000/svg" xmlns:xlink="http://www.w3.org/1999/xlink" x="0px" y="0px"
	 viewBox="0 0 1080 1080" style="enable-background:new 0 0 1080 1080;" xml:space="preserve">
<style type="text/css">
	.st0{fill:#FFFFFF;}
</style>
<g>
	<path d="M467.1,660.57c-2.21-0.24-4.26-0.26-6.21-0.71c-4.7-1.08-9.54-1.78-13.81-4.27c-3.46-0.22-5.84-2.77-8.72-4.2
		c-2.75-1.37-5.9-2.06-8.24-4.28c-0.53-0.51-1.4-0.67-2.12-0.97c-4.79-1.95-9.1-4.7-13.08-7.97c-2.52-2.07-5.44-3.71-7.22-6.6
		c-2.78-0.97-3.71-3.64-5.24-5.75c-0.36-0.5-0.78-1.05-0.87-1.63c-0.44-2.86-2.16-5.17-3.42-7.63c-2.41-4.67-3.4-9.63-3.96-14.75
		c-0.15-1.4-0.21-2.81-0.39-4.2c-0.5-3.89-0.71-7.75-0.1-11.67c0.29-1.82,0.03-3.72,0.02-5.58c0-0.77-0.04-1.54,0.04-2.29
		c0.27-2.62,0.56-5.25,0.87-7.84c0.34-2.85,1.44-5.8,2.9-8.3c2.81-4.81,6.73-8.57,12.39-10c1.69-0.43,2.69-1.49,3.05-3.45
		c-0.41-0.62-0.9-1.4-1.42-2.15c-0.8-1.15-1.69-2.24-2.44-3.42c-3.03-4.7-5.04-10.03-8.81-14.28c-0.52-2.8-3.23-4.55-3.55-7.48
		c-0.08-0.73-0.51-1.52-1-2.09c-2.88-3.38-4.72-7.35-6.28-11.43c-1.39-3.63-3.5-6.92-4.73-10.63c-1.47-4.43-3.31-8.74-4.94-13.11
		c-0.26-0.71-0.3-1.5-0.41-2.26c-0.09-0.61,0-1.29-0.22-1.84c-1.33-3.36-2.49-6.74-2.14-10.44c-1.8-3.84-1.62-8.18-3.22-12.14
		c-1.26-3.12-1.44-6.68-2.08-10.04c-0.06-0.3,0.08-0.67-0.04-0.93c-1.64-3.64-1.42-7.62-2.08-11.44
		c-0.92-5.37-2.25-10.57-4.29-15.66c-1.04-2.59-1.95-5.24-3.07-7.82c-1.21-2.77-0.92-5.84-0.9-8.79c0.03-4.35,0.91-8.64,0.92-13.03
		c0-2.88,1.1-5.78,1.84-8.64c0.23-0.87,0.78-1.72,1.37-2.44c4.58-5.57,8.02-11.88,11.91-17.9c2.95-4.55,6.77-8.53,10.22-12.75
		c0.29-0.35,0.71-0.68,1.14-0.81c2.92-0.83,4.5-3.2,6.4-5.28c2.1-2.3,4.32-4.53,6.75-6.48c2.91-2.33,5.22-5.29,8.49-7.27
		c2-1.21,3.84-2.65,6.11-3.35c0.45-0.14,0.92-0.26,1.32-0.49c6.78-3.91,14.37-4.9,21.91-6.1c2.77-0.44,5.54-0.92,8.27-1.51
		c9.14-1.99,18.24-4.14,27.58-5.04c3.32-0.32,6.44-1.48,9.2-3.13c2.67-1.59,5.46-2.22,8.38-2.67c3.37-0.52,6.79-0.81,10.13-1.5
		c4.4-0.92,8.71-0.05,13.05,0.17c2.49,0.13,4.98,0.13,7.47,0.18c1.25,0.03,2.51-0.05,3.75,0.06c3.73,0.35,7.5,0.55,11.17,1.24
		c3.21,0.6,6.34,1.55,9.66,1.43c0.57-0.02,1.2,0.31,1.74,0.59c4.78,2.48,9.9,3.73,15.2,4.37c1.24,0.15,2.51,0.25,3.7,0.59
		c6.94,1.94,14.06,2.84,21.17,3.82c2.6,0.36,5.13,1.29,7.68,2c1.05,0.29,2.06,0.9,3.11,0.97c8.55,0.54,15.74,4.77,23.13,8.43
		c4.62,2.29,7.82,6.13,10.81,10.16c1.07,1.45,1.27,3.13,0.9,4.92c-0.73,3.53-0.95,7.12-0.55,10.71c0.17,1.53,0.4,3.12,1.01,4.52
		c1.69,3.9,2.9,7.88,3.01,12.15c0.01,0.31,0.06,0.63,0.15,0.92c2.52,7.84,2.3,16.01,2.83,24.08c0.14,2.13-0.26,4.39-0.88,6.46
		c-0.41,1.38-1.63,2.53-2.67,4.04c2.65,4.46,5.4,9.11,8.34,14.06c3.16,0.41,6.57,0.76,9.97,0.45c4.2-0.38,8.02,0.49,11.66,2.61
		c2.95,1.72,6.04,3.22,9.06,4.82c0.28,0.15,0.61,0.21,0.85,0.4c3.28,2.64,6.6,5.24,9.8,7.98c1.17,1,2.19,2.25,3.03,3.55
		c1.54,2.35,3.05,4.67,4.95,6.78c1.22,1.35,1.82,3.24,2.83,4.81c2.37,3.69,3.86,7.82,5.98,11.63c0.15,0.27,0.4,0.57,0.38,0.84
		c-0.18,3.43,1.76,6.27,2.6,9.41c0.78,2.92,0.68,5.89,0.66,8.85c-0.01,2.02-0.22,4.06-0.07,6.07c0.27,3.51-0.38,6.87-1.4,10.16
		c-0.41,1.32-1.22,2.51-1.9,3.73c-0.3,0.54-1.04,0.98-1.08,1.5c-0.27,3.63-3.38,5.51-5.07,8.24c-1.03,1.66-2.7,3-4.3,4.19
		c-3.55,2.63-6.09,6.22-9.17,9.28c-2.1,2.08-2.6,4.54-1.22,7.27c0.21,0.42,0.36,0.87,0.61,1.27c3.04,4.89,6.12,9.74,9.12,14.66
		c1.37,2.26,2.59,4.62,3.84,6.95c2.66,4.97,4.74,10.18,6.71,15.45c0.82,2.2,1.41,4.41,1.95,6.67c1.35,5.6,2.34,11.31,4.66,16.65
		c1.05,2.41,1.43,5.05,2.64,7.45c0.75,1.48,1.14,3.35,1.05,5c-0.25,4.54,1.02,8.93,0.91,13.46c-0.07,2.76,0.25,5.55,1.34,8.26
		c1.41,3.49,1.21,7.3,1.21,11.01c0,1.71-0.09,3.42-0.24,5.12c-0.49,5.22-2.18,9.89-5.53,14.1c-4.76,5.98-9.13,12.28-13.65,18.44
		c-0.65,0.88-1.28,1.78-1.86,2.71c-2.83,4.46-6.58,7.87-11.27,10.32c-1.65,0.86-3.16,2-4.75,2.99c-0.78,0.48-1.58,0.97-2.42,1.34
		c-4.49,1.97-6.2,6.34-4.05,10.69c1.03,2.09,1.97,4.29,3.4,6.09c2.08,2.61,3.28,5.67,4.96,8.47c4.32,7.23,8.55,14.52,12.92,21.73
		c2.03,3.36,1.81,6.51-0.29,9.65c-0.7,1.05-1.63,1.76-2.87,2.26c-6.65,2.7-12.96,6.09-19.06,9.88c-6.31,3.92-13.04,6.68-20.68,6.42
		c-0.47-0.02-0.96-0.08-1.4,0.04c-4.18,1.12-8.37,0.51-12.58,0.25c-5.03-0.32-10.01,0.29-14.86,1.5c-4.38,1.09-9.01,1.09-13.21,2.97
		c-0.27,0.12-0.61,0.13-0.92,0.14c-3.9,0.11-7.79,0.27-11.69,0.31c-3.42,0.03-6.84-0.1-10.26-0.13c-0.61,0-1.27,0.06-1.82,0.29
		c-2.23,0.96-4.53,0.84-6.89,0.78c-2.79-0.08-5.59,0.37-8.39,0.41c-3.58,0.04-7.17,0.02-10.74-0.22c-1.51-0.1-2.95-1-4.47-1.22
		c-4.9-0.72-9.14-3.01-13.33-5.39c-3.56-2.02-7.29-3.42-11.26-4.49c-4.79-1.28-9.64-2.78-13.12-6.76c-4.63-2.47-6.41-6.7-6.49-11.56
		c-0.09-6.03-2.07-11.25-5.47-16.08c-0.52-0.74-0.65-1.74-0.96-2.62c-0.26-0.73-0.32-1.66-0.82-2.17c-2.23-2.33-2.43-5.65-4.23-8.21
		c-0.96-1.37-1.57-3.11-1.9-4.77c-0.5-2.49-1.67-4.7-2.42-7.06c-1.19-3.74-3.29-7.01-4.94-10.5c-0.47-0.99-0.99-1.97-1.28-3.01
		c-1.36-4.91-4.65-8.44-8.42-11.54c-2.03-1.67-3.44-4.1-6.09-5.01c-2.15-3.76-5.75-6.61-6.86-11.02
		C468.12,663.24,467.57,661.95,467.1,660.57z M622.4,705.22c2.27-0.5,4.56-0.9,6.79-1.52c2.18-0.6,4.63-0.44,6.51-1.98
		c-3.31-8.75-7.3-15.37-10.66-17.4c-0.33,1.26-0.79,2.41-0.9,3.6c-0.32,3.55-0.51,7.11-0.73,10.67c-0.12,1.86-0.1,3.73-1.05,5.44
		c-0.18,0.32,0.07,0.87,0.11,1.3c-0.24-0.09-0.48-0.17-0.73-0.26c0,0.21,0.01,0.42,0.01,0.63
		C621.97,705.54,622.18,705.38,622.4,705.22z M428.28,534.05c-0.81-4.19-1.27-8.42-2.48-12.42c-1.84-6.1-2.89-12.4-4.91-18.45
		c-0.54-1.61-0.58-3.4-1.25-4.94c-1.92-4.44-2.64-9.25-4.71-13.69c-1.75-3.76-2.45-8.03-3.56-12.08c-1.04-3.79-1.59-7.65-1.19-11.6
		c0.11-1.08,0.23-2.22,0.01-3.26c-0.57-2.68-0.03-5.3,0.13-7.94c0.14-2.33,0.39-4.67,0.79-6.97c0.26-1.51,0.8-2.98,1.37-4.41
		c0.59-1.47,1.81-2.12,3.38-1.98c1.29,0.12,2.41,1.25,2.57,2.94c0.19,2.02,0.22,4.06,0.16,6.09c-0.13,4.36-0.48,8.71-0.54,13.07
		c-0.05,4.06,0.44,8.08,1.23,12.08c0.94,4.77,2.61,9.28,4.34,13.78c1.06,2.76,2.44,5.4,2.69,8.44c0.09,1.04,0.72,2.03,1.15,3.03
		c0.36,0.85,0.91,1.65,1.15,2.53c1.09,4.05,2.18,8.11,3.13,12.2c1.27,5.47,2.38,10.97,3.63,16.44c0.18,0.8,0.74,1.52,1.2,2.43
		c2.73-1.57,5.23-2.86,7.57-4.4c1.6-1.05,3.24-1.77,5.08-2.29c4.63-1.31,9.2-2.79,14.05-4.28c0.39-2.87,1.06-5.63,1.07-8.4
		c0.02-3.9,0.96-7.47,3.16-10.57c3.39-4.81,5.95-10.32,11.17-13.64c0.25-0.16,0.43-0.45,0.61-0.7c2.33-3.23,5.44-5.52,8.79-7.59
		c3.19-1.97,6.31-4.04,9.89-5.29c1.32-0.46,2.65-1.06,3.77-1.88c5.1-3.74,10.86-6.11,16.66-8.45c2.1-0.85,4.16-1.18,6.38-0.68
		c0.88,0.2,1.81,0.23,2.71,0.19c1.7-0.07,3.39-0.31,5.09-0.37c1.71-0.06,3.49,0.29,5.14-0.03c2.52-0.49,4.98-0.2,7.47-0.07
		c0.7,0.04,12.15,4.23,12.63,4.63c2.39,2.01,4.59,4.23,6.09,6.99c1.8,3.31,3.93,6.33,6.68,8.94c0.85,0.82,1.43,2.03,1.85,3.16
		c0.48,1.3,0.67,2.71,0.95,4.08c0.26,1.27,0.69,2.4,2.35,3.02c7.47-2.34,14.86-5.51,21.92-9.08c-0.15-3.67-0.43-7.07-0.39-10.46
		c0.07-5.65,0.45-11.26,4.62-15.76c0.49-0.53,0.77-1.35,0.93-2.08c0.31-1.43,1-2.57,1.98-3.65c1.15-1.27,2.34-2.59,3.11-4.09
		c2.05-3.96,4.84-7.23,8.26-10.07c6.15-5.11,12.57-9.75,20.25-12.36c0.97-0.33,1.8-1.06,2.73-1.62c-0.25-0.69-0.33-1.15-0.57-1.52
		c-1.7-2.62-3.76-5.06-5.04-7.86c-0.99-2.18-2.52-3.88-3.79-5.8c-0.46-0.7-1.38-1.32-2.21-1.52c-4.26-1.06-8.24-2.78-12.07-4.87
		c-2.87-1.57-6-2.83-8.5-4.86c-3.48-2.82-7.35-5.14-10.43-8.52c-5.03-5.5-10.97-10.15-15.07-16.53c-1.07-1.66-2.79-2.93-4.27-4.3
		c-0.39-0.36-1-0.8-1.56-0.19c1.6,6.99,3.1,13.97,4.81,20.89c1.49,6.06,2.76,12.19,3.48,18.35c0.61,5.23,0.52,10.6,0.17,15.88
		c-0.18,2.73-1.38,5.62-4.23,6.9c-1.81,0.81-3.86,1.34-5.84,1.47c-4.39,0.28-8.21-1.57-11.75-3.96c-3.34-2.25-6.17-5.23-9.89-6.96
		c-0.55-0.26-1.05-0.69-1.47-1.15c-2.76-2.98-6.73-4.55-9.18-7.9c-0.25-0.35-0.8-0.47-1.16-0.75c-0.84-0.65-1.69-1.31-2.48-2.03
		c-0.68-0.63-1.2-1.45-1.92-2.03c-4.85-3.93-9.72-7.82-14.6-11.71c-0.81-0.64-1.68-1.21-2.67-1.92c-0.32,3.91-0.1,5.84,0.75,7.98
		c0.52,1.3,1.21,2.59,1.42,3.95c1.03,6.62,3.24,12.99,3.75,19.75c0.43,5.63,0.5,11.24,0.39,16.86c-0.03,1.36-0.32,2.92-1.06,4
		c-1.13,1.65-2.64,3.08-4.19,4.37c-0.78,0.65-2,1.1-3.01,1.07c-3.11-0.08-6.21-0.41-9.3-0.69c-0.61-0.05-1.28-0.19-1.77-0.51
		c-3.52-2.27-7.06-4.53-10.49-6.93c-2.29-1.6-4.42-3.42-6.62-5.14c-1.72-1.35-3.52-2.61-5.12-4.08c-1.83-1.69-3.41-3.65-5.24-5.34
		c-1.9-1.76-4.78-2.39-5.86-5.11c-3.06-1.46-4.9-4.3-7.37-6.43c-0.26-0.23-0.77-0.18-1.49-0.32c0.65,2.33,0.53,4.52,1.96,6.4
		c0.61,0.8,0.67,2.02,0.95,3.06c0.24,0.9,0.25,1.92,0.69,2.7c1.43,2.48,1.93,5.25,2.65,7.95c0.24,0.9,0.43,1.84,0.83,2.66
		c1.99,4.04,2.22,8.42,2.3,12.77c0.07,3.74-2.29,6.56-5.86,7.55c-1.35,0.37-2.74,0.71-4.13,0.79c-4.83,0.27-9.66,0.43-14.49,0.59
		c-0.6,0.02-1.31-0.06-1.81-0.36c-3.18-1.94-6.79-3.28-8.95-6.62c-0.5-0.77-1.31-1.32-1.9-2.04c-1.89-2.26-3.74-4.55-5.86-7.14
		c-0.29,0.01-1.2,0.35-1.76,0.04c-3-1.67-6-3.42-7.52-6.72c-1.13-2.44,0.83-5.62,3.55-5.87c3.79-0.35,7.36,0.74,9.95,3.29
		c2.39,2.35,5.21,4.49,6.66,7.72c1.12,2.51,3.22,4.23,5.21,5.96c2.05,1.79,4.59,2.8,7.34,2.51c3.22-0.35,6.4-1.04,9.84-1.63
		c0-1.25,0.25-2.53-0.04-3.66c-1.19-4.52-2.39-9.05-3.89-13.47c-1.55-4.57-3.38-9.05-5.22-13.52c-1.82-4.42-2.29-9.02-2.12-13.72
		c0.11-3.11,2.82-5.72,5.46-5.08c2.4,0.58,4.85,1.26,6.76,3.02c1.61,1.48,3.29,2.89,4.8,4.46c4.02,4.18,8.34,7.99,13.21,11.14
		c0.52,0.33,1.03,0.74,1.41,1.21c2.95,3.69,6.69,6.5,10.19,9.61c4.6,4.08,9.97,6.89,14.93,10.37c2.1,1.47,4.26,1.63,6.56,0.58
		c1.02-3.45,1.29-6.93,0.9-10.27c-0.78-6.64-1.4-13.33-3.35-19.8c-1.48-4.92-2.58-9.96-3.88-14.94c-1.04-4-0.94-8.04-0.27-12.05
		c0.58-3.44,2.71-4.68,6.06-3.91c2.01,0.46,3.86,1.22,5.5,2.46c4.46,3.37,9.09,6.55,13.32,10.19c4.95,4.25,9.79,8.64,14.88,12.74
		c2.79,2.25,5.4,4.73,8.14,7.04c0.83,0.7,1.8,1.22,2.73,1.8c2.37,1.47,4.95,2.69,7.08,4.45c2.29,1.9,4.75,2.72,7.42,2.93
		c1.65-1.56,1.36-3.32,1.23-5.03c-0.15-2.02-0.58-4.05-0.5-6.06c0.28-6.96-1.33-13.59-3.07-20.25c-1.01-3.9-1.12-8.03-2.87-11.76
		c-0.13-0.27-0.1-0.62-0.11-0.93c-0.04-1.77-0.65-3.35-1.57-4.85c-0.4-0.66-0.79-1.37-0.97-2.12c-1.1-4.55-2.17-9.11-3.16-13.68
		c-0.33-1.52-0.62-3.1-0.55-4.63c0.16-3.65,3.33-5.72,6.54-4.13c2.35,1.16,4.59,2.7,6.56,4.44c1.96,1.74,3.56,3.91,5.24,5.96
		c3.74,4.58,7.26,9.32,11.7,13.31c2.89,2.6,5.35,5.66,8.07,8.45c2.72,2.8,5.45,5.6,8.98,7.44c0.8,0.42,1.4,1.22,2.13,1.8
		c3.93,3.13,8.14,5.84,12.81,7.67c2.86,1.12,5.92,1.77,9.48,0.93c-0.56-3.04,0.52-5.95-0.4-8.89c-0.23-0.72-0.35-1.6-0.15-2.3
		c0.5-1.75,0.12-3.37-0.19-5.08c-0.83-4.6-1.5-9.24-2.27-13.86c-0.34-2-0.67-3.96-2.59-5.28c-1.25-0.86-1.26-2.37-1.33-3.83
		c-0.17-3.62-0.9-7.11-2.87-10.25c-0.57-0.92-1.1-1.94-1.32-2.98c-0.17-0.83,0.06-1.81,0.33-2.65c0.22-0.66,0.78-1.2,1.34-2.02
		c-3.42-2.38-6.59-4.6-9.77-6.8c-0.25-0.18-0.55-0.29-0.83-0.43c-4.37-2.09-9.19-2.8-13.7-4.5c-0.99-0.37-2.16-0.26-3.25-0.36
		c-0.78-0.07-1.57-0.01-2.33-0.18c-3.19-0.7-6.35-1.6-9.56-2.19c-5.83-1.07-11.5-3.06-17.48-3.25c-4.12-0.14-8-1.31-11.85-2.57
		c-2.51-0.83-4.94-1.86-7.57-2.32c-2.61-0.46-5.28-0.84-7.74-1.75c-3.92-1.44-8.01-1.39-11.98-1.41c-4.05-0.02-8.08-0.26-12.11-0.47
		c-1.7-0.09-3.47-0.02-5.08-0.48c-2.87-0.81-5.6-0.4-8.29,0.49c-2.41,0.8-4.76,1.33-7.33,0.98c-2.57-0.35-5,0.4-7.12,1.82
		c-4.12,2.76-8.74,4.24-13.57,4.35c-6.18,0.13-12.01,1.72-17.9,3.16c-2.56,0.63-5.09,1.63-7.68,1.79
		c-8.33,0.49-16.2,3.07-24.17,5.13c-2.96,0.77-5.81,2.36-8.41,4.04c-4.45,2.88-8.31,6.52-12.13,10.19
		c-2.13,2.05-4.01,4.42-6.36,6.17c-3.77,2.81-7.35,5.71-9.8,9.8c-0.32,0.53-0.74,1.01-1.18,1.45c-3.48,3.48-5.78,7.81-8.05,12.05
		c-1.41,2.64-2.96,5.08-4.97,7.23c-1.22,1.31-1.87,2.81-2.34,4.5c-1.58,5.63-1.35,11.41-1.53,17.15c-0.15,4.53,2.05,8.43,3.45,12.55
		c1.85,5.46,3.7,10.93,4.17,16.75c0.13,1.55,0.43,3.09,0.69,4.62c0.68,3.96,1.94,7.8,2.23,11.85c0.16,2.31,0.47,4.78,1.44,6.83
		c1.93,4.06,1.07,8.68,3.01,12.66c-0.38,3.41,1.21,6.38,2.11,9.51c0.3,1.05,0.91,2.09,0.91,3.13c0.02,2.94,1.54,5.36,2.52,7.96
		c0.43,1.16,0.89,2.32,1.34,3.48c1.17,3.02,2.26,6.09,3.57,9.05c0.62,1.39,2.03,2.49,2.44,3.91c1.43,4.86,5.15,8.57,6.47,13.44
		c3.59,5.08,5.46,11.17,9.49,16c0.88,1.05,1.3,2.48,2.01,3.7c0.44,0.75,1.01,1.43,1.56,2.18c2.4-1.68,4.43-3.38,7.21-3.8
		C426.62,536.86,427.48,535.4,428.28,534.05z M704.25,654.87c0.64-0.35,1.14-0.46,1.36-0.77c3.28-4.6,5.11-9.67,4.5-15.38
		c-0.4-3.7-0.54-7.4-1.35-11.09c-1.06-4.85-1.51-9.85-1.86-14.82c-0.27-3.92-0.36-7.79-2.45-11.28c-0.35-5.19-3.26-9.65-4.06-14.8
		c-0.81-5.2-2.87-10.19-4.34-15.29c-1.66-5.73-3.97-11.16-7.12-16.24c-1.81-2.92-3.57-5.86-5.28-8.84
		c-0.85-1.48-1.42-3.13-2.29-4.59c-1.28-2.13-2.72-4.17-4.09-6.24c-0.59-0.89-1.2-1.77-1.86-2.75c-1.23,0.32-2.3,0.5-3.29,0.89
		c-3.48,1.36-6.88,2.94-10.41,4.14c-2.04,0.69-4.27,1.12-6.43,1.16c-5.15,0.08-10.3-0.15-15.44-0.24c-3-0.06-5.91-0.62-8.6-1.91
		c-1.04-0.5-2.01-0.7-3.1-0.79c-0.92-0.08-1.82-0.37-2.71-0.61c-7.63-2-13.14-7.57-19.52-11.67c-0.51-0.33-0.89-0.87-1.3-1.34
		c-3.07-3.53-5.66-7.33-7.87-11.49c-1.88-3.54-3.18-7.01-3.4-11.01c-0.11-1.92-0.1-4-1.34-5.9c-2.74,1.2-5.32,2.3-7.86,3.46
		c-2.51,1.15-5.5,1.08-7.97,3.18c0.25,1.75,0.5,3.59,0.77,5.42c0.13,0.92,0.43,1.84,0.4,2.76c-0.11,4.53-0.52,9.06-0.41,13.58
		c0.12,4.69-1.05,8.98-3.09,13.07c-2.65,5.3-5.49,10.5-8.25,15.75c-0.72,1.38-1.61,2.7-2.14,4.15c-1.81,4.96-4.96,8.94-8.52,12.76
		c-3.97,4.25-8.9,6.91-14.18,8.68c-4.85,1.63-10,2.46-15.2,2.46c-4.52,0-9.03,0.05-13.55,0c-2.67-0.03-5.21-0.51-7.71-1.66
		c-2.74-1.26-5.15-2.94-7.55-4.67c-3.42-2.47-6.91-4.88-9.59-8.2c-3.43-4.24-6.89-8.46-10.07-12.88c-2.43-3.38-4.8-6.85-6.16-10.87
		c-0.35-1.03-0.88-2-1.31-3.01c-1.05-2.43-2.05-4.88-3.14-7.29c-0.5-1.1-1.15-2.13-1.62-2.99c-0.67-0.09-1.02-0.25-1.28-0.16
		c-5.43,1.91-11.22,2.85-16.17,6.05c-1.7,1.1-3.46,2.09-5.18,3.16c-3.15,1.96-3.48,2.87-2,6.03c0.3,0.65,0.88,1.35,1.5,1.63
		c1.44,0.65,2.16,1.82,2.58,3.17c0.64,2.08,1.02,4.24,1.69,6.3c0.64,1.95,0.04,3.71-0.49,5.49c-0.16,0.55-0.6,1.14-1.08,1.46
		c-1.99,1.33-5.9,0.53-7.06-1.55c-2.14-3.82-4.16-7.7-5.09-12.04c-0.18-0.86-0.65-1.66-0.99-2.5c-1.79,0.26-3.32,0.48-4.78,0.69
		c-1.87,2.09-2.89,4.2-1.18,6.92c3.8,1.09,5.84,3.75,6.15,7.75c0.13,1.7-0.92,3.34-2.69,3.97c-1.43,0.51-2.35-0.41-3.15-1.43
		c-0.1-0.12-0.19-0.25-0.25-0.39c-0.82-1.78-2.49-2.28-4.17-2.69c-2.61-0.63-5.1,1.35-7.78,0.39c-0.51-0.18-1.22,0.16-1.82,0.31
		c-0.29,0.08-0.57,0.26-0.83,0.43c-2.83,1.77-5.25,3.84-6.47,7.13c-1.05,2.82-1.75,5.65-1.71,8.67c0.04,2.66,0.06,5.32-0.15,7.97
		c-0.32,3.98-0.26,7.93-0.12,11.92c0.3,8.67,3.57,16.35,7.02,24.04c0.19,0.42,0.46,0.82,0.75,1.19c4.36,5.36,9.3,10.07,15.42,13.42
		c4.63,2.54,9.3,4.97,14.1,7.21c3.93,1.84,7.63,4.18,11.81,5.54c3.83,1.24,7.32,3.43,11.48,3.79c2.1,0.18,4.02,0.48,5.61-1.32
		c0.36-0.41,1.09-0.65,1.67-0.69c1.93-0.14,3.08-1.3,4.1-2.77c2.03-2.91,4.73-5.01,8.1-6.12c2.05-0.67,2.97-2.07,3.4-4.04
		c0.63-2.89,1.42-5.75,1.98-8.66c0.65-3.34,0.43-6.54-2.23-9.24c-0.56-0.08-1.17-0.21-1.78-0.24c-2.56-0.15-4.89-1.08-7.08-2.31
		c-3.25-1.82-3.22-5.68-0.02-7.52c2.14-1.23,4.32-1.73,6.68-0.45c1.09,0.59,2.33,0.9,3.48,1.39c5.6,2.41,9.05,6.49,9.59,12.68
		c0.32,3.59,0.32,7.16-0.71,10.7c-0.43,1.46-0.83,3.27-0.34,4.59c1.31,3.55,0.92,6.95,0.37,10.53c-0.8,5.22-1.45,10.49-1.73,15.75
		c-0.19,3.62-0.5,7.15-1.63,10.6c-0.23,0.71-0.48,1.66-0.19,2.24c1.04,2.08,2.01,4.31,3.54,5.99c3.14,3.46,6.6,6.65,9.99,9.88
		c1.91,1.83,3.81,3.69,5.93,5.26c3.73,2.77,7.42,5.56,11.55,7.83c3.32,1.82,6.76,3.12,10.23,4.46c0.99,0.38,2.1,0.69,3.22-0.37
		c0.18-1.41,0.11-2.96-0.49-4.43c-1.81-4.51-1.86-9.39-2.75-14.07c-0.95-5.01-0.11-10.27,0.82-15.36c0.26-1.45,1.02-2.59,2.32-3.37
		c1.53-0.91,3.29-0.37,3.83,1.26c0.15,0.44,0.16,0.92,0.25,1.38c0.8,4.01,0.5,8.06,0.23,12.08c-0.1,1.46,0.06,2.72,0.51,4.08
		c2.18,6.5,4.6,12.96,4.75,19.95c0,0.14,0.13,0.28,0.3,0.63c2.05,0.45,3.99,2.14,6.78,1.13c-0.51-3.12-0.52-6.2-2.02-9.06
		c-0.56-1.06-0.65-2.39-0.86-3.61c-0.37-2.15-0.77-4.31-0.97-6.48c-0.32-3.55-0.88-7.12-0.01-10.82c0.86-0.34,1.7-0.72,2.57-1
		c0.26-0.08,0.69-0.01,0.89,0.17c0.7,0.61,1.44,1.21,1.96,1.96c0.42,0.61,0.75,1.41,0.79,2.15c0.26,5.02,2.19,9.72,2.69,14.74
		c0.41,4.1,2.24,8.06,3.46,12.13c1.64,0.67,3.18,1.02,5,0.92c7.47-0.43,14.94-0.76,22.37-1.64c2.23-0.26,4.54-0.58,6.69-1.57
		c-0.24-1.48-0.32-2.73-0.67-3.92c-0.3-1.04-0.88-1.99-1.36-2.97c-0.68-1.4-1.43-2.78-2.06-4.21c-0.45-1.03-0.68-2.19,0.2-3.09
		c1.47-1.5,1-3.15,0.61-4.83c-0.49-2.12-1.13-4.22-1.45-6.37c-0.83-5.67-0.18-11.24,1.63-16.65c0.91-2.71,3.92-3.53,6.01-1.59
		c1.12,1.03,1.96,2.41,2.75,3.73c3.87,6.41,7.66,12.87,11.55,19.28c0.52,0.85,1.44,1.46,2.12,2.13c1.56-1,1.33-2.32,1.45-3.55
		c0.35-3.42,0.6-6.86,1.21-10.23c0.63-3.43,3.76-4.88,6.78-3.13c1.72,0.99,3.34,2.37,4.59,3.91c2.45,3.02,4.61,6.28,6.9,9.43
		c0.46,0.63,0.91,1.3,1.99,0.62c-0.2-3.34-0.33-6.76-1.24-10.11c-1.16-4.27-1.24-8.66-0.96-13.02c0.13-1.98,0.77-3.98,1.5-5.85
		c0.65-1.67,2.28-2.03,3.94-1.26c1.81,0.84,2.8,2.38,3.77,4.03c2.2,3.77,4.47,7.5,6.79,11.21c0.45,0.73,0.77,1.78,1.98,1.73
		c0.11-0.27,0.31-0.54,0.32-0.81c0.02-0.62,0.02-1.26-0.09-1.87c-0.89-4.86,0.18-9.65,0.68-14.43c0.3-2.91,3.06-4.21,5.63-2.91
		c0.89,0.45,1.57,1.46,2.14,2.35c1.68,2.62,3.24,5.33,4.89,7.97c0.25,0.39,0.77,0.61,1.54,1.19c-0.29-2.73-0.26-4.95-0.8-7.04
		c-0.89-3.41,0.2-6.51,1.05-9.64c0.67-2.44,3.45-3.03,5.18-1.17c0.82,0.88,1.39,2.05,1.89,3.17c1.53,3.41,2.91,6.89,4.48,10.29
		c0.49,1.06,1.36,1.94,2.06,2.91c-0.15-6.21-0.76-12.24-1.68-18.21c-0.3-1.93,0.17-3.37,1.2-4.78c1.03-1.41,3.5-1.32,4.41,0.2
		c0.47,0.78,0.75,1.72,0.95,2.62c0.97,4.43,1.76,8.89,2.85,13.28c0.61,2.45,0.75,4.87,0.58,7.34c-0.07,1.09-0.31,2.16-0.5,3.24
		c-0.23,1.26-0.27,2.47,0.78,3.71c2.02-2.83,3.99-5.59,6.08-8.53c-0.68-0.56-1.22-0.9-1.63-1.37c-0.8-0.92-1.72-1.82-2.22-2.89
		c-0.58-1.25,0.75-1.86,1.4-2.68c0.18-0.22,0.29-0.56,0.31-0.85c0.14-2.79,0.6-5.62,0.3-8.37c-0.82-7.64-0.57-15.26-0.09-22.9
		c0.15-2.36,0.58-4.63,1.77-6.96c0.99-0.19,2.02-0.48,3.08-0.57c1.21-0.11,2.16,0.5,2.62,1.6c1.57,3.74,3.07,7.51,4.57,11.28
		c0.17,0.42,0.19,0.92,0.22,1.38c0.11,1.48-0.68,2.38-2.2,2.39c-0.84,0.01-1.68-0.15-2.92-0.27
		C703.23,641.75,703.73,648.17,704.25,654.87z M505.45,704.14c-0.24,0.21-0.48,0.43-0.72,0.64c2.44,5.33,3.9,11.05,6.98,16.13
		c0.64,1.06,1.35,2.18,1.6,3.36c0.27,1.3,0.96,2.24,1.66,3.28c2.45,3.64,4.38,7.43,4.97,11.95c0.3,2.3,0.66,4.6,0.83,6.92
		c0.14,1.99,0.93,3.56,2.51,4.82c3.22,2.55,6.94,4.11,10.8,5.31c2.96,0.92,6.27,1.17,8.78,2.98c3.64,2.63,7.8,3.96,11.87,5.47
		c7.63,2.82,15.6,2.8,23.58,2.21c4.35-0.32,8.69-0.8,13.04-1.08c6.63-0.44,13.37,0.6,19.89-1.43c0.73-0.23,1.55-0.15,2.32-0.27
		c1.69-0.26,3.44-0.37,5.06-0.87c4.53-1.38,9.2-1.78,13.87-2.01c6.69-0.33,13.4-0.36,20.11-0.49c3.13-0.06,6.32-0.16,9.17-1.43
		c3.53-1.58,6.95-3.47,10.22-5.55c3.04-1.93,6.21-3.48,9.5-4.89c2.36-1.01,4.79-1.94,6.84-3.27c-0.03-0.49,0-0.67-0.06-0.8
		c-2.75-6.67-6.96-12.54-10.39-18.84c-0.74-1.35-2.08-2.43-2.62-3.83c-1.28-3.35-4.09-5.94-4.64-9.63
		c-0.06-0.42-0.43-0.85-0.78-1.15c-1.93-1.67-2.31-4-2.81-6.3c-0.26-1.21-0.54-2.41-0.81-3.6c-0.48,0.06-0.83,0.01-1.09,0.15
		c-4.99,2.6-10.79,2.98-15.73,5.74c-0.66,0.37-1.49,0.45-2.25,0.64c-3.02,0.76-6.05,1.49-9.07,2.26c-1.51,0.38-2.99,1.05-4.52,1.18
		c-2.85,0.25-5.49,1.16-8.1,2.15c-3.53,1.33-7.17,2-10.88,2.62c-3.83,0.64-7.58,1.73-11.36,2.61c-0.15,0.04-0.31,0.04-0.47,0.03
		c-3.33-0.17-6.46,0.91-9.68,1.43c-4.15,0.67-8.34,1.21-12.53,1.45c-4.96,0.29-9.94,0.29-14.92,0.26
		c-6.38-0.04-12.81,0.28-19.08-1.39c-0.89-0.24-1.83-0.35-2.75-0.44c-5.12-0.52-10.24-0.94-15.04-3.08
		c-1.13-0.5-2.42-0.62-3.59-1.04c-1.74-0.64-3.81-1.01-5.07-2.2c-2.22-2.09-4.93-3.29-7.35-4.99
		C510.32,707.45,507.87,705.8,505.45,704.14z M473.53,520.86c-0.81,2-0.29,3.77,0.39,5.51c1.47,3.77,3.04,7.5,4.57,11.24
		c2.4,5.87,5.86,11,9.79,15.78c3.44,4.19,7.34,8.06,11.58,11.51c1.69,1.37,3.42,2.72,5.27,3.88c2.43,1.52,5.11,1.99,8.03,2.08
		c6.58,0.2,13.1-0.42,19.63-0.95c2.72-0.22,5.22-0.89,7.59-2.13c2.05-1.08,4.06-2.24,6.08-3.37c3.53-1.98,6.21-4.87,7.65-8.58
		c1.25-3.23,3.16-6.04,4.76-9.05c1.46-2.74,2.59-5.7,4.35-8.23c2.57-3.68,2.99-8.21,5.27-11.96c0.22-0.36,0.11-0.92,0.13-1.38
		c0.35-6.55,0.56-13.1,0.13-19.65c-0.08-1.23-0.2-2.51-0.62-3.66c-0.71-1.94-0.91-3.91-1.11-5.94c-0.51-5.06-1.85-9.86-5.96-13.31
		c-1.38-1.16-2.01-2.63-2.76-4.21c-1.68-3.55-3.75-6.91-8.27-7.45c-0.59-0.07-1.18-0.43-1.69-0.78c-3.2-2.15-6.75-2.37-10.36-1.67
		c-2.02,0.39-3.96,0.52-6.01,0.25c-7.92-1.04-15.03,1.49-21.83,5.23c-1.37,0.75-2.64,1.69-4.01,2.42c-2.89,1.55-5.83,3-8.72,4.53
		c-1.23,0.66-2.42,1.4-3.6,2.15c-1.18,0.75-2.34,1.53-3.46,2.37c-0.98,0.74-1.96,1.51-2.82,2.38c-1.98,1.99-3.91,4.04-5.84,6.09
		c-0.85,0.9-1.66,1.84-2.44,2.81c-0.35,0.44-0.77,1,0.07,1.45c1.99-1.22,3.93-2.56,6-3.63c2.26-1.16,4.21-2.66,6-4.42
		c0.22-0.22,0.5-0.4,0.78-0.51c3.33-1.34,6.17-3.51,9.23-5.31c3.62-2.14,7.17-4.39,11.09-6c4.38-1.81,8.76-3.26,13.62-2.43
		c1.36,0.23,2.81,0.04,4.21,0.02c3.12-0.05,6.26-0.32,9.36-0.1c3.1,0.22,6.29,0.63,8.15,3.74c2.61,1.49,2.56,4.51,3.82,6.78
		c1.05,1.89,1.81,3.99,1.46,6.29c-0.04,0.26,0.18,0.57,0.25,0.76c1,0.47,1.93,0.91,2.83,1.33c0.05,1.84-1.5,2.79-1.3,4.59
		c0.42,3.74-0.58,4.85-5.16,3.95c-1.21-0.24-2.35-0.83-3.55-1.18c-1.19-0.34-2.4-0.72-3.63-0.81c-4.04-0.3-8.08-0.49-12.13-0.71
		c-0.31-0.02-0.63-0.02-0.93,0.01c-2.16,0.25-4.33,0.43-6.46,0.8c-4.9,0.86-9.77,1.97-14.42,3.72c-3.19,1.2-6.13,3.06-9.24,4.5
		c-2.43,1.13-4.58,2.64-6.61,4.36c-2.02,1.72-3.97,3.54-6.11,5.11c-3.38,2.48-7.03,4.07-11.32,2.31
		C474.72,521.18,474.13,521.04,473.53,520.86z M657.57,469.61c-1.49-0.71-2.99-0.96-3.64-1.83c-1.86-2.51-4.06-2.34-6.66-1.64
		c-7.24,1.94-14.39,4.1-21.42,6.73c-3.3,1.23-6.1,3.07-8.7,5.36c-3.41,3.01-5.7,3.22-9.73,0.98c-0.53-0.29-1-0.69-1.76-1.23
		c0,2-0.36,3.79,0.09,5.33c0.63,2.15-0.16,4.01-0.49,5.96c-0.24,1.39-1.15,2.55-2.57,3.14c-0.68,0.28-1.34,0.61-1.93,0.88
		c0.27,1.82,0.47,3.35,0.73,4.87c0.28,1.68,0.39,3.43,0.98,5c1.86,4.98,4.84,9.34,8.08,13.49c1.12,1.44,2.69,2.52,4.57,3.15
		c1.27,0.42,2.66,1.18,3.46,2.21c1.95,2.52,4.69,3.57,7.49,4.51c3.25,1.08,6.57,1.97,9.88,2.87c1.95,0.53,3.91,0.88,6,0.76
		c4.34-0.24,8.71-0.4,13.03-0.16c3.57,0.21,6.89-0.72,9.95-2.04c3.51-1.51,6.61-3.95,10.04-6.09c-0.61-1.25-1.19-2.32-1.64-3.44
		c-0.52-1.28-0.91-2.61-1.36-3.92c-0.7-2.06-1.15-4.25-2.17-6.13c-1.1-2.03-2.89-3.68-4.07-5.68c-0.94-1.59-1.53-3.42-2.04-5.21
		c-1.07-3.73-2.14-7.47-2.95-11.26C659.57,480.73,658.63,475.21,657.57,469.61z M692.99,457.77c-2.6,0.24-5.01,0.48-7.29,1.67
		c-2.47,1.29-4.96,2.75-7.62,3.41c-4.01,0.99-7.32,3.43-11.17,4.7c-0.55,0.18-1,0.7-1.67,1.19c0.19,1.67,0.29,3.37,0.59,5.03
		c0.45,2.45,1.06,4.86,1.57,7.3c0.79,3.78,2.29,7.35,3.03,11.18c0.62,3.23,1.4,6.68,4.41,9.04c1.26,0.99,2.1,2.73,2.71,4.29
		c1.25,3.17,2.21,6.45,3.33,9.67c0.18,0.53,0.61,0.97,1.12,1.75c1.66-1.77,2.93-3.6,4.63-4.85c5.78-4.29,9.6-10.01,12.66-16.38
		c0.91-1.89,1.2-3.84,1.11-5.89c-0.12-2.64-0.52-5.31-0.3-7.92c0.32-3.65-0.6-7.04-1.39-10.49c-0.38-1.66-0.6-3.41-1.29-4.95
		C696.11,463.54,694.5,460.71,692.99,457.77z M688.09,450.17c-1.37-2.1-2.22-4.03-3.6-5.42c-4.83-4.86-9.83-9.57-16.26-12.35
		c-0.57-0.25-1.15-0.52-1.62-0.91c-3.37-2.8-7.36-3.08-11.46-2.89c-0.7,0.03-1.38,0.4-2.21,0.66c1.49,3.26,2.89,6.19,4.16,9.17
		c0.47,1.11,0.7,2.34,0.94,3.54c0.18,0.88,0.22,1.78,0.32,2.66c0.7,0.13,1.14,0.26,1.59,0.29c2.99,0.21,5.07,1.52,6.76,4.16
		c1.57,2.46,2.06,5.05,2.38,7.97c0.83-0.16,1.44-0.18,1.99-0.39C676.59,454.58,682.09,452.47,688.09,450.17z M545.53,493.46
		c-0.51-1.43-0.75-2.15-1.02-2.84c-2.7-6.81-2.7-6.76-10.27-6.44c-2.95,0.12-5.96,0.23-8.87-0.15c-3.26-0.42-6.26,0.08-9.08,1.53
		c-3.61,1.85-7.12,3.89-10.66,5.87c-2.99,1.68-5.96,3.38-8.92,5.1c-1.07,0.62-2.23,1.18-3.08,2.04c-0.9,0.91-1.88,1.53-2.99,2.14
		c-1.76,0.96-3.68,1.96-4.92,3.45c-1.2,1.45-2.36,2.83-3.87,3.97c-1.41,1.07-1.57,2.55-0.84,4.51c2.47-1.83,4.98-3.39,7.13-5.35
		c3.48-3.16,7.07-6,11.75-7.16c0.73-0.18,1.33-0.81,2.04-1.12c3.55-1.54,7.03-3.34,10.84-4.12c9.69-1.99,19.45-2.75,29.31-1.44
		C542.98,493.56,543.91,493.46,545.53,493.46z M648.05,444.8c-1.23-1.51-2.47-2.39-3.87-3.07c-0.56-0.27-1.31-0.38-1.66-0.81
		c-0.55-0.69-1.09-1.56-1.18-2.41c-0.11-0.99,0.72-1.7,1.67-2.01c1.15-0.38,2.34-0.66,3.46-0.97c-0.23-2.6-0.23-2.6-3.44-5.54
		c-2.61,1.1-5.3,2.31-8.04,3.39c-4.28,1.69-7.94,4.25-11.14,7.52c-0.87,0.89-1.93,1.59-2.91,2.35c-0.61,0.48-1.41,0.8-1.85,1.4
		c-2.48,3.36-5.26,6.49-7.22,10.23c-1.37,2.61-3.17,4.98-4.63,7.55c-0.76,1.33-1.31,2.8-1.75,4.28c-0.39,1.32-0.52,2.73-0.72,4.1
		c-0.12,0.84,0.1,1.51,0.98,1.53c0.72-1.78,1.06-3.8,2.19-5.16c1.46-1.75,2.35-3.63,3.09-5.7c0.36-1,0.87-2.06,1.6-2.81
		c2.5-2.57,5.47-4.7,8.75-6.01c6.5-2.61,12.98-5.38,20.01-6.43C643.5,445.92,645.58,445.34,648.05,444.8z M646.76,699.75
		c3.42-1.94,6.31-3.01,9.47-3.24c0.59-0.04,1.15-0.45,1.72-0.71c2.28-1.01,4.59-1.95,6.83-3.05c2.93-1.43,5.9-2.8,8.82-5.12
		c-2.63-0.71-3.92-2.44-4.25-4.66c-0.81-5.38-3.24-10.02-6.23-14.43c-0.27-0.39-0.73-0.65-1.45-1.27c0,1.48-0.24,2.48,0.04,3.3
		c0.98,2.9,0.74,5.78,0.54,8.77c-0.2,3.08,0.44,6.22-0.32,9.31c-0.11,0.45-0.06,0.95-0.19,1.39c-0.52,1.83-1.83,2.89-3.61,3.26
		c-1.77,0.37-3.47,0.11-4.52-1.61c-1.54-2.52-3.67-4.73-4.29-7.73c-0.71-3.43-2.62-6.32-4.1-9.41c-0.13-0.28-0.72-0.34-1.54-0.69
		c0.23,1.55,0.3,2.76,0.59,3.92c1.08,4.38,2.21,8.73,2.2,13.29C646.46,693.72,646.64,696.35,646.76,699.75z M598.97,674.3
		c-1.92,4.61-0.48,8.99,0.37,13.32c1.16,5.92,3.33,11.63,3.88,17.7c0.12,1.35,0.27,2.7,0.47,4.61c4.94-1.37,9.71-1.93,14.41-3.12
		c-1.19-1.19-2.44-1.99-3.08-3.14c-2.96-5.29-5.77-10.67-8.59-16.04c-2.17-4.13-4.27-8.29-6.43-12.42
		C599.8,674.86,599.36,674.64,598.97,674.3z M617.05,467.79c0.59,0.11,0.93,0.29,1.15,0.19c2.99-1.3,5.9-2.81,8.94-3.94
		c4.2-1.55,8.47-2.88,12.84-3.91c4.55-1.07,9.05-2.15,13.79-2.12c2.26,0.01,4.63-0.19,6.81-0.97c-0.26-3-0.8-3.98-2.71-4.23
		c-2-0.26-4.07-0.54-6.04-0.26c-5.96,0.85-12.05,1.2-17.65,3.76c-0.84,0.38-1.79,0.52-2.69,0.76c-3.52,0.96-8.36,3.13-10.83,5.13
		C618.89,463.64,617.39,465.34,617.05,467.79z M683.3,681.27c-0.75-1.98-1.52-3.98-2.26-5.99c-1.13-3.05-2.22-6.11-3.35-9.15
		c-0.18-0.48-0.22-1.28-0.95-0.89c0.07,6.66,0.13,13.21,0.2,20.19c2.18-1.25,4.03-2.28,5.86-3.37
		C683.02,681.92,683.12,681.55,683.3,681.27z M485.12,670.93c0.41-4.53-0.89-8.43-1.43-12.4c-0.16-1.17-1.9-1.73-3.08-1.2
		c-2.22,1-3.62,4.43-2.77,6.76C478.73,666.53,481.58,669.31,485.12,670.93z M484.91,653.73c0.19,1.46,0.69,2.27,2.34,2.08
		c0.27-1.38,0.72-2.75,0.48-4.86C486.48,652.19,485.64,653.01,484.91,653.73z"/>
	<path class="st0" d="M622.4,705.22c-0.22,0.16-0.43,0.32-0.65,0.48c0-0.21-0.01-0.42-0.01-0.63c0.24,0.09,0.48,0.17,0.73,0.27
		C622.47,705.35,622.4,705.22,622.4,705.22z"/>
	<path d="M610.86,638.89c-0.76-1.07-1.55-2.03-2.16-3.09c-0.87-1.51-1.56-3.07-0.53-4.85c0.29-0.51,0.38-1.2,0.36-1.81
		c-0.16-3.54-0.38-7.07-0.58-10.61c-0.11-0.1-0.23-0.31-0.33-0.3c-6.17,0.49-11.46-5.39-14.09-9.37c-1.1-1.67-0.82-4.21,0.47-5.69
		c1.12-1.29,4.15-1.15,5.51,0.34c0.62,0.68,0.93,1.65,1.54,2.34c2.2,2.46,4.4,4.84,8.24,4.47c1.47-0.14,2.65-0.54,3.86-1.36
		c3.07-2.11,4.92-5.25,6.72-8.3c0.88-1.48,0.72-3.61,0.86-5.46c0.07-0.91-0.29-1.85-0.34-2.78c-0.1-1.79,0.59-2.77,2.11-3.17
		c2.15-0.56,4.39,0.12,4.73,1.81c0.89,4.38,2.35,8.82-0.78,13.04c-1.09,1.48-1.74,3.28-2.67,4.89c-1.61,2.77-4.34,4.46-6.63,6.56
		c-0.68,0.62-1.47,1.13-2.16,1.65c-0.33,4.36-0.21,8.51,1.01,12.63c0.62,2.06,0.72,4.28,1.11,6.73c1.18-0.13,2.23-0.13,3.23-0.37
		c2.12-0.51,4.2-1.15,6.3-1.71c0.6-0.16,1.35-0.51,1.82-0.3c2.45,1.1,4.97,0.34,7.4,0.29c5.17-0.12,10.25,0.69,15.38,0.9
		c1.94,0.08,3.69,0.62,5.1,2.01c0.92,0.91,1.6,1.94,1.11,3.33c-0.42,1.19-1.42,1.67-2.55,1.73c-2.48,0.12-4.96,0.2-7.44,0.16
		c-5.75-0.11-11.5-0.5-17.25-0.38c-3.9,0.08-7.61,1.52-11.3,2.76c-3.84,1.29-7.57,2.81-11.22,4.61c-4.29,2.11-7.39,5.18-8.83,9.7
		c-0.57,1.8-1.43,3.04-3.07,3.85c-2.32,1.14-4.89-0.03-5.43-2.54c-0.34-1.58-0.13-3.06,0.74-4.49c1.21-2,2.2-4.13,3.4-6.14
		c0.55-0.92,1.27-1.77,2.07-2.48c3.86-3.44,7.94-6.53,13.1-7.82C610.07,639.56,610.41,639.19,610.86,638.89z"/>
	<path d="M625.91,575.73c0.31,2.23,1.11,3.86,2.04,5.49c0.53,0.92,1,1.98,1.1,3.02c0.26,2.68-1.46,4.31-4.05,3.63
		c-2.23-0.59-4.39-1.58-6.43-2.66c-1.92-1.02-3.65-2.39-5.45-3.63c-0.51-0.35-1.03-0.72-1.43-1.18c-0.66-0.74-0.97-1.68-0.53-2.6
		c0.5-1.02,1.37-1.9,2.58-1.65c1.5,0.31,2.95,0.91,4.41,1.42c1.28,0.45,2.28-0.15,2.08-1.52c-0.21-1.44-0.31-2.75,0.56-4.02
		c0.95-1.39,2.4-1.98,3.87-2.47c1.32-0.44,2.71-0.75,4.09-0.9c3.4-0.36,6.82-0.73,10.24-0.82c2.21-0.06,4.32,0.69,6.06,2.15
		c1.91,1.6,3.77,3.28,5.63,4.93c0.56,0.5,1.08,1.04,1.71,1.65c1.46-1.24,2.77-2.29,4.01-3.41c2.13-1.93,4.9-2.14,7.45-2.27
		c2.18-0.12,3.97,1.53,5.61,3.06c2.35,2.2,3.64,5.09,5.02,7.85c1.18,2.37,2.37,4.71,3.75,6.97c0.35,0.56,0.45,1.53,0.21,2.14
		c-0.37,0.94-1.38,1.23-2.36,1.05c-3.01-0.55-5.67-1.65-7.21-4.59c-1.16-2.2-2.52-4.29-3.71-6.48c-0.8-1.47-1.92-2.41-3.59-2.7
		c-2.69-0.46-4.77,0.96-4.81,3.71c-0.03,2.47,0.42,4.96,0.68,7.43c0.08,0.77,0.36,1.52,0.38,2.29c0.05,1.83-0.89,3.22-2.35,3.64
		c-1.81,0.52-3.55-0.03-4.46-1.61c-0.61-1.06-1.03-2.25-1.45-3.41c-0.79-2.19-1.46-4.44-2.32-6.6c-0.4-1-1.12-1.87-1.73-2.78
		c-2.82-4.23-6.65-6.45-11.86-5.81C631.22,575.35,628.68,574.48,625.91,575.73z"/>
	<path d="M590.63,588.12c2.09-3.28,3.04-6.06,3.97-8.86c0.53-1.59,1.49-3.05,2.31-4.54c0.58-1.05,1.62-1.4,2.75-1.53
		c2.76-0.31,4.31,1.66,2.93,4.11c-3.1,5.52-4.62,11.54-6.03,17.61c-0.17,0.74-0.52,1.49-0.97,2.09c-0.83,1.11-2.05,1.36-3.37,1.07
		c-1.2-0.27-1.9-1.09-2.03-2.28c-0.15-1.4-0.19-2.8-0.31-4.84c-0.66,1.24-1.14,1.98-1.45,2.78c-0.84,2.16-1.13,4.52-2.56,6.46
		c-0.44,0.6-0.64,1.44-0.76,2.2c-0.67,4.21-2.46,8.01-4.18,11.85c-0.44,0.99-0.57,2.11-0.96,3.13c-0.62,1.66-1.96,2.4-3.7,2.16
		c-1.43-0.2-2.4-1.27-2.66-2.85c-0.3-1.78,0.2-3.41,0.84-5.02c2.13-5.35,4.3-10.69,6.43-16.04c0.92-2.32,1.68-4.72,2.68-7
		c0.87-1.99,1.93-3.91,3.02-5.8c0.5-0.88,1.47-1.24,2.44-0.91c0.92,0.31,1.57,1.01,1.58,2.09
		C590.64,585.1,590.63,586.19,590.63,588.12z"/>
	<path d="M576.89,681.56c0.37,3.71,0.75,7.42,1.12,11.14c0.11,1.08,0.15,2.17,0.29,3.25c0.38,2.93,0.79,5.86,1.2,8.78
		c0.17,1.23,0.61,2.47,0.53,3.68c-0.06,1.02-0.51,2.13-1.12,2.96c-1.11,1.53-3.09,1.63-4.54,0.46c-1.39-1.13-2.28-2.54-2.51-4.35
		c-0.18-1.39-0.51-2.77-0.58-4.16c-0.43-8.52-2.42-17-0.69-25.58c0.25-1.22,0.5-2.45,0.77-3.66c0.1-0.45,0.22-0.92,0.43-1.33
		c0.5-1,2.13-1.88,3.12-1.76c1.02,0.13,2.25,1.34,2.3,2.64c0.11,2.63,0.03,5.27,0.03,7.91C577.12,681.55,577,681.55,576.89,681.56z"
		/>
	<path d="M528.56,670.29c0.27,2.02-0.81,4.84,0.44,7.58c0.24,0.52-0.15,1.61-0.61,2.13c-1.49,1.68-1.62,3.56-1.42,5.66
		c0.15,1.52,0.18,3.14-0.18,4.6c-0.4,1.62-1.19,3.17-2.02,4.64c-0.55,0.98-1.6,1.57-2.79,1.21c-1.36-0.41-2.8-1.03-2.98-2.6
		c-0.27-2.3-0.39-4.65-0.25-6.95c0.15-2.48,0.69-4.93,1.02-7.4c0.18-1.38,0.4-2.77,0.37-4.16c-0.08-3.62,0.81-7.07,1.55-10.57
		c0.36-1.72,1.48-2.72,2.68-3.66c1.6-1.25,3.99-0.23,4.16,1.84C528.7,664.91,528.56,667.25,528.56,670.29z"/>
	<path d="M513.6,643.19c1.77,2.17,1.42,4.12,0.72,6.36c-1.1,3.53-2.56,7.03-2.18,10.89c0.07,0.74-0.12,1.57-0.41,2.26
		c-1.14,2.65-1.18,5.45-1.28,8.25c-0.05,1.39-0.17,2.79-0.48,4.14c-0.2,0.87-0.68,1.75-1.25,2.44c-2.05,2.45-4.46,1.97-5.73-1.03
		c-0.76-1.8-0.75-3.64-0.49-5.51c0.54-3.86,1.16-7.71,1.59-11.58c0.45-4.08,1.81-7.88,3.22-11.68c0.32-0.86,0.91-1.63,1.44-2.39
		C510.17,643.34,510.18,643.35,513.6,643.19z"/>
	<path d="M563.91,594.84c2.6,2.34,2.64,2.51,1.33,5.07c-1.2,2.35-2.43,4.69-3.62,7.05c-2.4,4.75-3.84,9.82-5.03,14.98
		c-0.38,1.66-0.72,3.36-1.35,4.93c-0.41,1.02-1.45,1.62-2.65,1.65c-1.12,0.02-2.57-0.9-2.86-2.06c-0.73-2.88-1.17-5.73,0.13-8.67
		c1.25-2.83,2.03-5.86,3.18-8.73c1.57-3.9,3.6-7.57,6.39-10.74C560.63,596.98,561.31,594.97,563.91,594.84z"/>
	<path d="M622.87,549.56c-0.44,1.82-0.42,3.89-2.06,5.07c-1.73,1.24-2.65,2.96-3.61,4.73c-1.11,2.04-2.32,4.03-3.65,5.92
		c-0.6,0.86-1.56,1.49-2.44,2.12c-1.12,0.8-2.32,0.69-3.51,0.05c-1.25-0.67-1.75-1.89-1.14-3.1c2.18-4.28,4.31-8.59,6.63-12.79
		c0.96-1.74,2.31-3.29,3.58-4.85c1.42-1.74,4.35-1.38,5.46,0.65C622.49,548.04,622.63,548.83,622.87,549.56z"/>
	<path d="M586.84,572.93c-2.6-0.47-5.25-0.8-7.8-1.47c-1.3-0.34-2.61-1.12-3.62-2.03c-1.57-1.43-0.96-4.35,1.01-5.1
		c1.59-0.6,3.23-1.09,5-0.38c1.74,0.71,3.56,0.95,5.5,0.88c1.52-0.05,3.09,0.45,4.57,0.91c0.68,0.21,1.31,0.81,1.78,1.39
		c0.96,1.17,0.83,2.25-0.08,3.39C591.55,572.58,589.33,572.99,586.84,572.93z"/>
	<path d="M557.49,537.79c-2.09,2.58-4.14,5.11-6.19,7.64c-0.2,0.24-0.39,0.52-0.65,0.67c-3.76,2.18-7.17,4.99-11.34,6.45
		c-0.88,0.31-1.78,0.61-2.7,0.75c-2.15,0.34-4.28,0.64-6.35,1.43c-2.24,0.85-4.64,0.56-6.94,0.04c-1.72-0.39-2.97-1.91-2.91-3.23
		c0.08-1.79,1.25-3.38,2.94-3.8c0.9-0.23,1.86-0.18,2.78-0.35c1.21-0.22,2.42-0.5,3.61-0.83c0.75-0.21,1.45-0.76,2.18-0.78
		c5.66-0.15,9.87-3.56,14.33-6.35c2.24-1.4,4.26-3.16,6.38-4.74c2.12-1.58,2.99-1.35,4.26,1.14
		C557.11,536.24,557.18,536.72,557.49,537.79z"/>
	<path d="M539.58,531.3c0.58,2.12-0.29,3.65-1.92,4.9c-1.58,1.21-2.83,2.86-5.16,2.87c-1.93,0.01-3.32-0.67-4.31-2.26
		c-0.25-0.39-0.49-0.81-0.64-1.25c-1.23-3.59-1.75-7.27-1.05-11.04c0.39-2.09,1.41-2.99,3.39-3.32c4.79-0.78,8.59,1.99,9.37,6.85
		C539.42,529.14,539.47,530.23,539.58,531.3z"/>
	<path d="M621.58,520.49c0.34-2.36,1.69-3.7,4.13-4.26c3.44-0.8,6.95-1.2,10.3-2.61c2.7-1.14,4.98-2.47,6.47-5
		c1.15-1.95,2.9-2.74,5.08-2.66c1.41,0.05,2.4,1.02,2.35,2.39c-0.13,3.72-1.55,6.95-3.87,9.81c-0.19,0.24-0.43,0.48-0.7,0.59
		c-5.54,2.43-10.93,5.31-17.22,5.38C624.82,524.18,624.2,523.91,621.58,520.49z"/>
	<path d="M638.7,507.41c-1.59,0.63-2.86,1.67-4.56,1.03c-1.88-0.71-3.64-1.33-5.05-3.05c-2.21-2.73-2.72-5.81-2.79-9.07
		c-0.04-1.8,1.02-3.22,2.26-4.44c0.31-0.31,0.78-0.57,1.21-0.64c4.27-0.71,7.99,0.71,9.6,5.15
		C640.75,500.16,640.47,503.62,638.7,507.41z"/>
</g>
</svg>
