<svg id="Camada_1" data-name="Camada 1" xmlns="http://www.w3.org/2000/svg" viewBox="0 0 1920 332"><defs><style>.cls-1{font-size:30.53px;font-family:Serifa-Reg, Serifa;}.cls-2{letter-spacing:-0.02em;}.cls-3{letter-spacing:-0.01em;}.cls-4,.cls-6{letter-spacing:0em;}.cls-5{letter-spacing:0em;}.cls-21,.cls-6,.cls-7,.cls-8,.cls-9{font-family:Serifa-Bol, Serifa;}.cls-7{letter-spacing:0em;}.cls-19,.cls-9{letter-spacing:0em;}.cls-10{letter-spacing:0em;}.cls-11{letter-spacing:0em;}.cls-12{letter-spacing:0em;}.cls-13{letter-spacing:-0.02em;}.cls-14{letter-spacing:-0.02em;}.cls-15{letter-spacing:-0.01em;}.cls-16{letter-spacing:0em;}.cls-17{letter-spacing:0.01em;}.cls-18{letter-spacing:-0.02em;}.cls-20{fill:#f5b243;}.cls-21{font-size:39.25px;}</style></defs><path d="M660.4,169.3V169c-.07-1-.16-2-.22-3,0-.64,0-1.28,0-1.92a14.16,14.16,0,0,1,.08-1.84,6.14,6.14,0,0,0,0-1.42c-.05-.44-.06-.89-.09-1.33a2.8,2.8,0,0,0-.17-1.18,1.85,1.85,0,0,1-.09-.49c-.1-.53-.22-1.06-.29-1.6a4.1,4.1,0,0,1-.09-1.48.91.91,0,0,0-.1-.62c-.15-.29-.27-.6-.42-1a4.05,4.05,0,0,0,.39-.23c.15-.13.14-.37,0-.39a1.09,1.09,0,0,1-.76-.6c-.28-.46-.55-.93-.8-1.42a7.1,7.1,0,0,0-.81-1.16c-.78-.49-1.38-1.22-2.22-1.64-.1,0-.19-.14-.29-.2a6.85,6.85,0,0,0-2.15-1.06,3.73,3.73,0,0,1-1-.32,1.56,1.56,0,0,0-.88-.22.94.94,0,0,1-.78-.26.5.5,0,0,0-.31-.15,9.57,9.57,0,0,1-1.2-.13,17.18,17.18,0,0,0-2.48-.13c-.26,0-.52.05-.78.06-.8,0-1.6,0-2.4.1a2.85,2.85,0,0,1-1.05.06.49.49,0,0,0-.34.09,5,5,0,0,1-1.53.28,5.94,5.94,0,0,0-2.7.48c-.64.19-1.24.48-1.87.69a5,5,0,0,0-1.27.62,2,2,0,0,1-.86.29,3.65,3.65,0,0,0-1.35.4,5.27,5.27,0,0,0-1.49,1.3,1.7,1.7,0,0,1-.32.38,3,3,0,0,0-1.27,1.65c-.18.51-.5,1-.68,1.48a5.39,5.39,0,0,0-.34,1.52,7.75,7.75,0,0,1-.24,1.53c-.06.32-.14.65-.18,1-.05.51-.09,1-.12,1.56s-.07,1.13-.08,1.7,0,1.42.07,2.13c0,.3,0,.61,0,.91l0,3.34c0,.33,0,.66,0,1a15.12,15.12,0,0,0,0,1.9,12.48,12.48,0,0,1,.46,2.64c0,.07,0,.14.06.21s.07.41.11.62.07.42.1.63a10,10,0,0,0,.46,1.71c.11.34.22.67.36,1a9,9,0,0,0,.84,1.87,2.15,2.15,0,0,0,.71,1.12c.41.4.83.79,1.25,1.18a6,6,0,0,0,2.2,1.38,2.65,2.65,0,0,1,.84.38,2.08,2.08,0,0,0,.66.24c.92.24,1.83.48,2.75.7a5,5,0,0,0,.77.13,15.89,15.89,0,0,1,2.76.09h.07a9.56,9.56,0,0,1,2.33.06,2.17,2.17,0,0,0,.43,0c.67-.15,1.36,0,2-.13s1.46-.13,2.17-.33,1.27-.19,1.89-.33a7.2,7.2,0,0,0,2.57-1.16,2.64,2.64,0,0,1,.44-.23,12.37,12.37,0,0,0,1.6-.76,13.06,13.06,0,0,0,1.41-1.17,6,6,0,0,1,.76-.75,2.52,2.52,0,0,0,.81-.78c.26-.36.53-.72.79-1.09a7.08,7.08,0,0,0,.63-1c.29-.65.51-1.33.8-2a2.44,2.44,0,0,0,.24-1.3,1.64,1.64,0,0,1,0-.22C660.4,171.38,660.31,170.33,660.4,169.3Zm-23.63-1.49a.43.43,0,0,1-.55-.2.44.44,0,0,0-.34-.21,2.79,2.79,0,0,1-1.47-.81,7.72,7.72,0,0,1-.67-.74,2,2,0,0,1-.5-1.7,2.35,2.35,0,0,0,0-.46,4.18,4.18,0,0,1,1.59-1.23,2.53,2.53,0,0,1,1.65-.29,1.08,1.08,0,0,0,.35,0,8.6,8.6,0,0,1,1.68-.08,8,8,0,0,0,.28,1.64,15.44,15.44,0,0,1-.17,3.71A7.81,7.81,0,0,0,636.77,167.81Zm6.45-.56a7.7,7.7,0,0,0-1.17-.1l-.13-.77a1.5,1.5,0,0,1,0-.56,4,4,0,0,1,.19-.55,3.19,3.19,0,0,0,.13-1.19c0-.78-.05-1.56-.1-2.33l.21,0a2.72,2.72,0,0,1,1.33-.05.37.37,0,0,0,.27,0,1,1,0,0,1,1,.11,2.87,2.87,0,0,0,.73.25q.11,2.64,0,5.28C644.87,167.2,644,167.35,643.22,167.25Zm10.94-1.62a1,1,0,0,1-.54.63,7.12,7.12,0,0,1-1.33.5,3.19,3.19,0,0,1-1.53.19.53.53,0,0,0-.28,0,6.38,6.38,0,0,1-1.22.22l-.17-5.23a1.51,1.51,0,0,0,.37-.06,1.79,1.79,0,0,1,.76-.13.68.68,0,0,0,.35,0,2.44,2.44,0,0,1,1.6-.05.91.91,0,0,1,.78.54.38.38,0,0,0,.12.18,4.05,4.05,0,0,1,1,1.63A2.18,2.18,0,0,1,654.16,165.63Z"/><path d="M339.58,170.26a1.31,1.31,0,0,0,0-.28c-.07-1-.16-2-.21-3,0-.63-.05-1.27-.05-1.91a16.26,16.26,0,0,1,.09-1.85,6.13,6.13,0,0,0,0-1.42c-.05-.44-.07-.88-.09-1.33a3.11,3.11,0,0,0-.17-1.17,1.93,1.93,0,0,1-.09-.49c-.1-.54-.22-1.07-.29-1.61a4.07,4.07,0,0,1-.1-1.48.87.87,0,0,0-.1-.62c-.15-.29-.26-.6-.41-.94a2.34,2.34,0,0,0,.38-.24c.16-.12.15-.36,0-.39a1.08,1.08,0,0,1-.76-.59c-.29-.46-.56-.94-.8-1.42a7.77,7.77,0,0,0-.81-1.16,27,27,0,0,0-2.22-1.64,1.94,1.94,0,0,1-.29-.21,6.88,6.88,0,0,0-2.16-1.05,3.52,3.52,0,0,1-1-.33,1.64,1.64,0,0,0-.88-.21,1,1,0,0,1-.78-.27.43.43,0,0,0-.31-.14,9.58,9.58,0,0,1-1.2-.14,18.65,18.65,0,0,0-2.48-.13l-.77.07c-.8,0-1.6,0-2.4.1a3.14,3.14,0,0,1-1.06.06.55.55,0,0,0-.34.08,5,5,0,0,1-1.52.28,6,6,0,0,0-2.71.49c-.63.19-1.24.47-1.86.69a5.19,5.19,0,0,0-1.28.61,1.8,1.8,0,0,1-.86.29,3.61,3.61,0,0,0-1.34.41,4.88,4.88,0,0,0-1.49,1.3,1.31,1.31,0,0,1-.33.37,3.08,3.08,0,0,0-1.27,1.65c-.18.51-.49,1-.67,1.49a5.07,5.07,0,0,0-.34,1.52,8.71,8.71,0,0,1-.24,1.53,7.89,7.89,0,0,0-.18,1c-.06.52-.09,1-.12,1.56s-.08,1.14-.08,1.7,0,1.42.06,2.13c0,.31.05.61.05.92,0,1.11,0,2.22,0,3.33,0,.33,0,.66,0,1a17.22,17.22,0,0,0,0,1.9,13.23,13.23,0,0,1,.45,2.65c0,.07.05.13.06.2s.08.42.11.63.08.42.11.63a10.26,10.26,0,0,0,.45,1.71c.12.33.22.66.37,1a9,9,0,0,0,.83,1.87,2.14,2.14,0,0,0,.72,1.12c.41.4.82.78,1.24,1.17a5.81,5.81,0,0,0,2.21,1.38,3.34,3.34,0,0,1,.84.38,2,2,0,0,0,.66.25l2.75.7a4.94,4.94,0,0,0,.77.12,15.82,15.82,0,0,1,2.75.1h.08a9.09,9.09,0,0,1,2.33.06,1.5,1.5,0,0,0,.42,0c.68-.14,1.37,0,2-.13a20.32,20.32,0,0,0,2.17-.33c.61-.17,1.27-.18,1.89-.33a6.94,6.94,0,0,0,2.57-1.16,3,3,0,0,1,.44-.22,14.52,14.52,0,0,0,1.59-.76,12.17,12.17,0,0,0,1.42-1.18c.26-.23.46-.57.76-.74a2.59,2.59,0,0,0,.8-.78c.27-.37.54-.72.79-1.09a6.44,6.44,0,0,0,.64-1c.29-.64.51-1.32.79-2a2.48,2.48,0,0,0,.25-1.31.74.74,0,0,1,0-.21C339.59,172.34,339.49,171.3,339.58,170.26Zm-26-2.71a5.21,5.21,0,0,1-.67-.74,2,2,0,0,1-.51-1.7,1.71,1.71,0,0,0,0-.46,4.15,4.15,0,0,1,1.59-1.22,2.59,2.59,0,0,1,1.65-.3,1.08,1.08,0,0,0,.35,0,18.46,18.46,0,0,1,2.68-.07c.1,0,.21,0,.28,0a3.3,3.3,0,0,1,1.39-.21,8.45,8.45,0,0,0,1.12-.19,3.15,3.15,0,0,1,1.22-.07,67.36,67.36,0,0,0-5.55,5.91,8,8,0,0,0-1.2.27.43.43,0,0,1-.55-.2.47.47,0,0,0-.35-.22A2.63,2.63,0,0,1,313.6,167.55Zm19.74-1a1,1,0,0,1-.53.63,9.29,9.29,0,0,1-1.33.5,3.35,3.35,0,0,1-1.54.19.54.54,0,0,0-.28,0,11.29,11.29,0,0,1-2.31.33c-.74.08-1.48,0-2.22.05l4.31-5.57a.66.66,0,0,0,.31-.06,2.51,2.51,0,0,1,1.6,0,.94.94,0,0,1,.78.55.71.71,0,0,0,.12.18,3.88,3.88,0,0,1,1,1.63A2.08,2.08,0,0,1,333.34,166.6Z"/><path d="M620.08,164.07c.9.41,1.7.72,2.44,1.12a8.48,8.48,0,0,1,2.43,1.58,2.91,2.91,0,0,1,.58.89,7,7,0,0,0,.34.86,1.41,1.41,0,0,1,.19.67,1,1,0,0,0,.09.41,4.39,4.39,0,0,1,.36,1.22,2.87,2.87,0,0,0,.27,1,2.77,2.77,0,0,1,.06,2.15,15.14,15.14,0,0,0-.5,1.48,12.1,12.1,0,0,1-.62,1.43,21.89,21.89,0,0,1-1.46,1.73c-.51.46-1,1-1.49,1.41a4,4,0,0,1-2,1,4.83,4.83,0,0,0-1.14.35,2.81,2.81,0,0,1-.53.19,9.71,9.71,0,0,0-2,.52,1.16,1.16,0,0,1-.49,0,15.72,15.72,0,0,0-2.06,0,1.49,1.49,0,0,0-.43,0,4.24,4.24,0,0,1-1.46.17,9.52,9.52,0,0,0-1.77,0,2.68,2.68,0,0,1-.63,0,1.41,1.41,0,0,0-.28,0l-1.41.18-1.56.12c-.47,0-.94,0-1.41,0l-1.42,0a3.38,3.38,0,0,1-1.27-.07.48.48,0,0,0-.29,0,8.62,8.62,0,0,1-1.9.07c-.59,0-1.18.11-1.77.14a28.42,28.42,0,0,1-3.19.18,1.76,1.76,0,0,1-.61-.15.73.73,0,0,1-.42-.55,3,3,0,0,1-.14-1.12,4.38,4.38,0,0,0,0-.5c0-.35,0-.7,0-1a4.92,4.92,0,0,0,.06-.64c-.09-.61-.11-1.22-.2-1.83a8.22,8.22,0,0,1-.08-2c0-.59,0-1.18.11-1.77a21.23,21.23,0,0,0,0-3.19,5.5,5.5,0,0,0-.08-1.62.39.39,0,0,1,0-.21,5.62,5.62,0,0,0,.07-1.42c0-.78,0-1.56,0-2.34s0-1.52.05-2.28c0-.23,0-.47-.05-.7a5.7,5.7,0,0,1,0-.71,13.69,13.69,0,0,0-.1-2.12,21.73,21.73,0,0,1-.18-3.61,12.93,12.93,0,0,0,.06-2.41,5.75,5.75,0,0,0,0-1.55c0-.38,0-.75,0-1.13s-.08-.71-.06-1.06a8,8,0,0,0,0-1.62l-.38-.35c.07-.19.14-.36.22-.53a.5.5,0,0,1,.39-.28c.75-.12,1.5-.24,2.25-.34a3.47,3.47,0,0,1,.63.07,12.13,12.13,0,0,0,1.48.07c.47,0,.94.05,1.42,0a4.53,4.53,0,0,0,1.47-.1,1.14,1.14,0,0,1,.36,0,1.39,1.39,0,0,0,.35,0,9.48,9.48,0,0,1,2.13,0,2.62,2.62,0,0,0,.28,0c1.23-.1,2.46,0,3.69,0a1.81,1.81,0,0,1,.57.05,4.31,4.31,0,0,0,1.34.1c.93,0,1.85,0,2.77,0,.26,0,.52,0,.78.06l.85.07a3.6,3.6,0,0,0,.91.09,2.07,2.07,0,0,1,.83.12c.21,0,.42.07.64.09a5.68,5.68,0,0,1,.82.17,12.17,12.17,0,0,1,1.61.54l1.47.5a1.11,1.11,0,0,1,.38.18,4.06,4.06,0,0,0,1.4.82,4.73,4.73,0,0,1,1.47,1.18,5.26,5.26,0,0,1,1.2,2.15,2,2,0,0,1,0,.43,3.33,3.33,0,0,0,.11.77,5,5,0,0,1,.22,2.17,2.16,2.16,0,0,0,0,.57,5.22,5.22,0,0,1,0,1.89,1.12,1.12,0,0,1-.17.46c-.3.51-.59,1-.93,1.5a19.07,19.07,0,0,1-1.2,1.49,8.7,8.7,0,0,1-1.14.95,3.77,3.77,0,0,0-.48.4,3.15,3.15,0,0,1-1.27.9A4.43,4.43,0,0,0,620.08,164.07Zm-12.24,10.08a4,4,0,0,1,1.56,0,4.81,4.81,0,0,0,1.13.11,5.8,5.8,0,0,0,2.27-.75.54.54,0,0,0,.16-.14,4.76,4.76,0,0,0,.79-1.95,1.9,1.9,0,0,0-.34-1.86c-.07-.12-.15-.27-.27-.32-.51-.24-1-.45-1.55-.67h-.07c-.46-.08-.94-.05-1.4-.09s-.84,0-1.26,0l-.42,0c-.35,0-.48.12-.46.45,0,.78.12,1.55.15,2.33a5,5,0,0,1-.24,2.31A2.05,2.05,0,0,0,607.84,174.15Zm.21-15.26c0,.35,0,.7,0,1.05a.39.39,0,0,0,.33.41,7.53,7.53,0,0,0,1.06.05c.37,0,.75-.12,1.12-.1a1.84,1.84,0,0,0,1.08-.3c.31-.2.59-.46.91-.67a1,1,0,0,0,.46-.82,10.65,10.65,0,0,1,.24-1.6,1.88,1.88,0,0,0,0-.85,1,1,0,0,0-.83-.85,7.28,7.28,0,0,1-.89-.23,1.16,1.16,0,0,0-.69,0,.89.89,0,0,1-.48,0,8.38,8.38,0,0,0-2.18,0,.37.37,0,0,0-.38.49,3.62,3.62,0,0,1,0,1.27,1.34,1.34,0,0,0,.06.56A5.14,5.14,0,0,1,608.05,158.89Z"/><path d="M675.6,169.67a3.83,3.83,0,0,0,0,.74c.1.75.26,1.49.35,2.24a8.3,8.3,0,0,1,.06,1.49c-.05.61-.17,1.22-.26,1.83a13.13,13.13,0,0,0,0,2.26l0,1.14c0,.35,0,.7,0,1.06a.93.93,0,0,1,0,.34.87.87,0,0,0,0,.69c.12.45,0,.68-.43.83a7.18,7.18,0,0,1-2.16.4c-.88,0-1.74-.16-2.62-.14a26.92,26.92,0,0,0-2.84.06,11.84,11.84,0,0,1-1.47-.09c-.4,0-.8,0-1.2-.07-.14,0-.28,0-.42-.06s-.09-.07-.12-.06c-.54.11-1-.19-1.52-.23s-.65-.26-.65-.68c0-.17,0-.33,0-.49a12.34,12.34,0,0,0,0-1.36,3.55,3.55,0,0,1,0-.92,2.15,2.15,0,0,0,0-1.18.23.23,0,0,1,0-.14,26.79,26.79,0,0,0-.17-2.69,17.79,17.79,0,0,1,0-2.19,10.65,10.65,0,0,0,0-1.49,37.74,37.74,0,0,1,0-4c0-.33.09-.66.11-1a3.29,3.29,0,0,0,0-.77c-.13-.63-.08-1.27-.17-1.89a2.42,2.42,0,0,1,.25-1.17,1.76,1.76,0,0,0,.05-1.11,2.54,2.54,0,0,1,0-1,3.22,3.22,0,0,0,0-1c-.07-.47,0-1-.1-1.42a4.49,4.49,0,0,1,.16-2,2.85,2.85,0,0,0,0-1.2c0-.4,0-.8-.08-1.2,0-.19,0-.37-.07-.56s-.08-.14-.06-.2a5.11,5.11,0,0,0-.09-1.7,2,2,0,0,1,0-.42,1,1,0,0,0,0-.63.53.53,0,0,1,0-.41.85.85,0,0,0,0-.42,4,4,0,0,1-.07-1.62,1,1,0,0,1,.11-.41.59.59,0,0,1,.92-.3,3.33,3.33,0,0,1,.29.27c.62-.06,1.25-.14,1.89-.16.85,0,1.71,0,2.56,0a4.17,4.17,0,0,0,.5,0,5.5,5.5,0,0,1,1.12-.13,7.51,7.51,0,0,0,1.06,0c.52,0,1,0,1.56.06a2,2,0,0,0,.77,0,.55.55,0,0,1,.22,0,11,11,0,0,0,1.4.11,9.44,9.44,0,0,0,2.19-.11,3.12,3.12,0,0,1,1.14,0,2.48,2.48,0,0,0,.77,0,.83.83,0,0,1,.35,0,1.42,1.42,0,0,0,.84,0,1.62,1.62,0,0,1,.49,0,7.55,7.55,0,0,0,1.84,0,1.45,1.45,0,0,1,.35,0l1,.05c.18,0,.37.05.56.07l.49,0,.41,0a1.18,1.18,0,0,0,.41.05,3.14,3.14,0,0,1,1.06.1c.4.05.8.1,1.19.18a7.71,7.71,0,0,1,.82.24,5.35,5.35,0,0,1,2.59,1.78,15,15,0,0,0,1.47,1.52,10.52,10.52,0,0,1,1,1.25.35.35,0,0,1,.07.2,2.78,2.78,0,0,0,.29.94,17.81,17.81,0,0,1,.49,1.77,11,11,0,0,1,.11,2.06,4.8,4.8,0,0,1-.21,1.17,3.78,3.78,0,0,1-.37,1.07,3.07,3.07,0,0,0-.22.6,3.28,3.28,0,0,1-.4.82,8.74,8.74,0,0,0-.52,1c-.06.11-.09.25-.18.3a3.27,3.27,0,0,0-.85.93,1.51,1.51,0,0,1-.57.41c-.52.29-1,.57-1.55.88s-.73.49-1.12.73c1,.64,2.06,1.21,3,1.84a2.91,2.91,0,0,1,1.18,1.38,5,5,0,0,1,.52,1.53.58.58,0,0,0,.09.27,1.92,1.92,0,0,1,.23,1.3,1.85,1.85,0,0,0,.09.7,4.55,4.55,0,0,1,.15,1c0,.56,0,1.13,0,1.7a1.45,1.45,0,0,0,0,.36,6.23,6.23,0,0,1,.05,1.83c0,.1-.05.2,0,.28a13.64,13.64,0,0,1,.09,1.91,2.14,2.14,0,0,0,.61,1.4,9.74,9.74,0,0,0,.93.77c.45.33.46.34.27.94a1.44,1.44,0,0,1-1.09.17c-.32.32-.7.18-1.07.15a5.65,5.65,0,0,0-.92,0c-.42,0-.84.1-1.27.14a.74.74,0,0,1-.21,0,10.05,10.05,0,0,0-1.9,0,4.67,4.67,0,0,1-.91-.15,3.55,3.55,0,0,0-1.41-.1c-.43.09-.83-.13-1.26-.09-.64.06-1.27.07-1.91.1a1.5,1.5,0,0,0-.8.27.8.8,0,0,1-.74.06,1.5,1.5,0,0,1-1.09-1.35,8.09,8.09,0,0,1-.06-.85l-.06-.92c0-.1-.07-.19-.06-.28.13-.95-.13-1.88-.07-2.82a10.38,10.38,0,0,0-.08-1.85c-.05-.47-.23-.92-.32-1.38a18.21,18.21,0,0,0-.58-2,1.85,1.85,0,0,0-.95-1.18,2.26,2.26,0,0,0-1.11-.42.53.53,0,0,1-.27-.08,1.35,1.35,0,0,0-1.42.09C675.84,169.56,675.75,169.59,675.6,169.67Zm.38-8.29a10.89,10.89,0,0,1,1.29-.22,5.93,5.93,0,0,0,1.12-.16,3.18,3.18,0,0,0,1.88-1,2,2,0,0,0,.51-.9c.08-.35.1-.7.15-1a.78.78,0,0,0,0-.21c0-.18-.08-.37-.13-.55a11,11,0,0,0-.48-1.4,1.52,1.52,0,0,0-1.43-1c-.21,0-.43-.06-.64-.05a9.38,9.38,0,0,1-2.05-.06c-.1,0-.22.06-.34.1a16,16,0,0,0-.17,2.27c0,.5,0,1,0,1.5a11.28,11.28,0,0,1,0,1.54c0,.21,0,.43,0,.64A.58.58,0,0,0,676,161.38Z"/><path d="M462.2,168.61a1.66,1.66,0,0,0,.36-.9c0-.53.17-1,.18-1.55a8.21,8.21,0,0,0,.05-1,18.39,18.39,0,0,1,.26-3c0-.3,0-.61,0-.92l.06-2.13a10.84,10.84,0,0,0,.06-1.13,7.68,7.68,0,0,1,.49-2.27,1.69,1.69,0,0,0,.12-.48,6.14,6.14,0,0,1,.37-1.59,8.89,8.89,0,0,0,.22-.89,2.64,2.64,0,0,1,.12-.4c.19-.49.42-1,.58-1.46a10.24,10.24,0,0,0,.25-1.25c0-.25.1-.51.17-.75a.51.51,0,0,1,.65-.41,4.45,4.45,0,0,0,2.23-.22,2.69,2.69,0,0,1,.7-.11,6.47,6.47,0,0,1,1.76-.09,3.59,3.59,0,0,0,.85-.08c.35,0,.71-.09,1.06-.09a14.19,14.19,0,0,0,2.76-.14,6.68,6.68,0,0,1,1,0c.47,0,1,0,1.42,0a1.07,1.07,0,0,1,1.05,1.46,4.59,4.59,0,0,0-.24.88,4.76,4.76,0,0,1-.31.87,1.53,1.53,0,0,0-.15.82,1.35,1.35,0,0,1-.25.88,1.48,1.48,0,0,0-.26.87,1.56,1.56,0,0,1-.09.34c-.25,1-.52,2-.77,3-.16.64-.31,1.29-.53,1.91a5.24,5.24,0,0,0-.18,1l-.09.49c-.08.49-.13,1-.24,1.47-.17.81-.36,1.61-.58,2.41-.29,1-.62,2-.93,3a2.83,2.83,0,0,0-.07.42c0,.09,0,.21,0,.28a4.83,4.83,0,0,0-.41,1.27c-.17.57-.32,1.14-.47,1.71,0,.09,0,.18-.07.27-.22.7-.43,1.4-.69,2.09a7.12,7.12,0,0,1-.51,1.47.28.28,0,0,0,0,.2,2.09,2.09,0,0,1-.34,1.29,2.43,2.43,0,0,0-.29,1.09,1.74,1.74,0,0,1-.18.6,11.65,11.65,0,0,1-.75,1.91s0,.09,0,.14l-.73,2.74a2.3,2.3,0,0,0,0,.64,8,8,0,0,0,0,1.62c0,.18-.09.31-.25.39a2,2,0,0,1-1,.22c-.64-.06-1.28-.16-1.92-.18-.85,0-1.69-.2-2.55-.14s-1.94,0-2.91,0a22.26,22.26,0,0,0-2.71,0c-.62-.28-1.26,0-1.89,0-.43,0-.86,0-1.28,0a1.83,1.83,0,0,0-.77.08.75.75,0,0,1-.75-.09.86.86,0,0,1-.33-.59,10.66,10.66,0,0,0-.44-1.19c-.19-.53-.38-1.07-.56-1.61-.25-.74-.49-1.48-.73-2.22a4.73,4.73,0,0,1-.18-.83,5.19,5.19,0,0,0-.36-1.29,14.87,14.87,0,0,1-.56-1.9,3.2,3.2,0,0,0-.22-.66,5,5,0,0,1-.39-1.13c-.16-.6-.29-1.2-.44-1.79a10.53,10.53,0,0,1-.4-1.51,12.37,12.37,0,0,0-.41-1.92c-.15-.54-.29-1.1-.4-1.65a2.61,2.61,0,0,1-.06-.27,16.57,16.57,0,0,0-.43-2.23,16,16,0,0,1-.43-2.58,1.26,1.26,0,0,0-.09-.49,3.66,3.66,0,0,1-.32-1.38,3.2,3.2,0,0,0-.29-.94,2.51,2.51,0,0,1-.25-1,12.52,12.52,0,0,0-.54-2.35.62.62,0,0,0-.12-.26,3.27,3.27,0,0,1-.56-1.44,1.19,1.19,0,0,0-.07-.27,7,7,0,0,1-.48-1.55.42.42,0,0,0-.05-.2c-.49-.63-.57-1.45-1-2.11a.79.79,0,0,1-.1-.34.63.63,0,0,1,.7-.79c.24,0,.48,0,.71,0a.93.93,0,0,1,.29,0,5.7,5.7,0,0,0,1.6.26,2.15,2.15,0,0,0,.62,0,.49.49,0,0,1,.29,0,11.91,11.91,0,0,0,2,.13,2.74,2.74,0,0,0,.64,0,4.36,4.36,0,0,1,1.35,0h.14c.83-.19,1.69-.13,2.53-.25s1.45-.1,2.18-.13a5.92,5.92,0,0,1,1.19,0,.66.66,0,0,1,.61.5c.13.42.46.76.56,1.21a1.67,1.67,0,0,1,.08.2,17.88,17.88,0,0,0,.46,1.92,7,7,0,0,1,.17.91c.14.74.31,1.48.44,2.23.06.35.19.68.28,1a5.89,5.89,0,0,1,.33,2.24,16.89,16.89,0,0,0,.16,2.47,23.8,23.8,0,0,1,.59,3.64c0,.17.06.33.09.49.21.9.41,1.81.61,2.71A4.51,4.51,0,0,0,462.2,168.61Z"/><path d="M393.54,161.58a3.25,3.25,0,0,1,.46,2.11.88.88,0,0,0,0,.28,8.58,8.58,0,0,1,0,2.53c0,.21,0,.42,0,.63s-.05.57-.08.85a10.19,10.19,0,0,0,0,2,1,1,0,0,1-1.09,1.19,6.76,6.76,0,0,0-1.41.15,6,6,0,0,1-1.27,0,9.49,9.49,0,0,0-1.84.12h-.14a5.55,5.55,0,0,0-1.41,0,11.69,11.69,0,0,1-1.19-.09,7.06,7.06,0,0,0-.77-.1c-.4,0-.8,0-1.19.08a.33.33,0,0,0-.27.3,4.13,4.13,0,0,0-.13,1.2,8.08,8.08,0,0,1-.05,1.48V175a3,3,0,0,0,1.38.29,19.38,19.38,0,0,1,2.41,0,13.46,13.46,0,0,0,1.42,0,3.62,3.62,0,0,1,1.26.17,1.48,1.48,0,0,0,.63.08,3.62,3.62,0,0,1,1.27.07.66.66,0,0,0,.28,0c.38,0,.75-.12,1.13-.13.71,0,1.42,0,2.13,0a.78.78,0,0,1,.81.63,1.32,1.32,0,0,1,.08,1c0,.09,0,.23,0,.35a4.85,4.85,0,0,1-.15,1.61,3.48,3.48,0,0,0-.13,1.54,6.19,6.19,0,0,1,0,1.14c0,.18,0,.37,0,.56a14.69,14.69,0,0,0,.16,1.6c.09.44-.47,1.06-.93,1.1a2.56,2.56,0,0,1-1.26,0,.37.37,0,0,0-.21,0,7.33,7.33,0,0,1-1.62.07c-.31,0-.62.05-.92,0s-.71-.12-1.06-.1-.64.09-1,.1a23.11,23.11,0,0,0-2.76.17,1.45,1.45,0,0,1-.36,0,2.69,2.69,0,0,0-1.4.14,1.53,1.53,0,0,1-.49.07,14.21,14.21,0,0,1-2.26.12,3.08,3.08,0,0,0-.85.09,4.31,4.31,0,0,1-1.19.07l-2.27-.09c-.41,0-.81,0-1.21-.06-.69,0-1.37-.13-2.06-.15s-1.13.06-1.7.08c-.28,0-.56,0-.84-.06l-1.48,0a2.1,2.1,0,0,1-.56-.07.7.7,0,0,1-.57-.65,10.16,10.16,0,0,1-.05-1.35,10.72,10.72,0,0,0,0-1.7,4.64,4.64,0,0,1,.06-.91c.07-.8.27-1.58.3-2.39a14.54,14.54,0,0,1,0-2,1.31,1.31,0,0,0-.1-.7,3.94,3.94,0,0,1-.28-1.52c0-.23,0-.46,0-.7-.05-1,.26-2,.31-3,0-.33,0-.67,0-1a7.5,7.5,0,0,1,0-1.06,17.35,17.35,0,0,0,0-2.28,4.63,4.63,0,0,1,0-.91,8.81,8.81,0,0,0,.15-2c0-.95-.06-1.89,0-2.84,0-.57,0-1.13,0-1.7s0-.95,0-1.42a1.08,1.08,0,0,0,0-.36,10.38,10.38,0,0,1-.27-2.61,1.94,1.94,0,0,0,0-.42,6.87,6.87,0,0,1-.09-1.92c0-.64,0-1.28,0-1.92a.93.93,0,0,0-.15-.46.84.84,0,0,1,.57-1.26,2.69,2.69,0,0,1,.9,0,8.79,8.79,0,0,0,2.05,0,3.46,3.46,0,0,1,.85,0,10.18,10.18,0,0,0,1.56.06c.61,0,1.23,0,1.85,0,.35,0,.71.06,1.06,0a6.93,6.93,0,0,0,1.82-.07.45.45,0,0,1,.28,0,5.11,5.11,0,0,0,1.7,0,7,7,0,0,0,.91,0,7.72,7.72,0,0,1,1.34-.14c.31,0,.62,0,.92,0a10,10,0,0,0,2.12,0,2.68,2.68,0,0,1,.49,0,5.84,5.84,0,0,0,.93,0,20.73,20.73,0,0,1,3.25.06c.45,0,.9,0,1.34.05a10.76,10.76,0,0,0,1.27,0,3.11,3.11,0,0,1,1.28.37.35.35,0,0,1,.2.35l.06,1.07.09,1.7a3.85,3.85,0,0,0,.07.49,1.48,1.48,0,0,1-.09,1,7,7,0,0,0-.21.82,4.13,4.13,0,0,0-.19,1.52,5.14,5.14,0,0,0,.09,1.7.71.71,0,0,1-.78.86c-.42-.08-.79.12-1.2.07a10.65,10.65,0,0,0-1.13,0c-.43,0-.86,0-1.28-.07a11.14,11.14,0,0,0-3,.09c-.46.08-.93.16-1.4.21a4.42,4.42,0,0,1-.63,0l-.21-.05a6.14,6.14,0,0,0-2.14.25,5.13,5.13,0,0,1-.23,1.14,5.33,5.33,0,0,0-.08,1.14c.12.08.22.19.32.19a6.53,6.53,0,0,0,1.6.15,2.27,2.27,0,0,1,.78,0c.49.05,1,.15,1.47.2a8.68,8.68,0,0,0,1.14,0c.75,0,1.51,0,2.26,0,.57,0,1.13-.11,1.7-.11A2.24,2.24,0,0,1,393.54,161.58Z"/><path d="M304.07,169.39a2.85,2.85,0,0,1,.6,2,2.09,2.09,0,0,0,0,.5,9.7,9.7,0,0,1,.11,3.09c-.07.78-.3,1.53-.33,2.32a5.52,5.52,0,0,1-.27,1.1,10.22,10.22,0,0,1-.52,1.77,11.08,11.08,0,0,1-.83,1.56,3.69,3.69,0,0,1-1.2,1.09c-.41.24-.84.43-1.27.64a1.88,1.88,0,0,0-.24.14c-.54.47-1.21.74-1.78,1.16a.55.55,0,0,1-.19.09c-.68.09-1.31.4-2,.45a4,4,0,0,0-1.75.46,2.08,2.08,0,0,1-.68.22c-.7.08-1.41.14-2.12.2s-1.22.11-1.83.21a3.9,3.9,0,0,1-2-.11c-.49-.17-1-.28-1.5-.42a6.19,6.19,0,0,1-.6-.23,2.14,2.14,0,0,0-.39-.16,6.52,6.52,0,0,1-1.75-.77,2.62,2.62,0,0,1-.34-.24c-.1-.07-.19-.15-.29-.21l-2.4-1.52a13.41,13.41,0,0,1-1.47-1,6.12,6.12,0,0,1-.85-1c-.09-.12-.12-.27-.21-.37a6.12,6.12,0,0,1-1.18-2.56,4.12,4.12,0,0,0-.24-.67c-.09-.21-.21-.42-.3-.64a4.51,4.51,0,0,0-.51-1.09,1.23,1.23,0,0,1-.16-.39,2.61,2.61,0,0,0-.31-.94.42.42,0,0,1-.07-.27c0-.53-.24-1-.18-1.54a1.27,1.27,0,0,0-.05-.43c-.08-.42-.14-.84-.24-1.25a5.47,5.47,0,0,0-.26-.81,2.31,2.31,0,0,1-.15-.83,3.54,3.54,0,0,0-.24-1.73.46.46,0,0,1-.07-.27c.16-.65-.13-1.31,0-2a5.92,5.92,0,0,1,.1-1.83,2.13,2.13,0,0,1,.1-.49,1.92,1.92,0,0,0,.08-1,2.22,2.22,0,0,1,0-.63,3.36,3.36,0,0,1,.57-1.59,1,1,0,0,0,.17-.53,4.06,4.06,0,0,1,.39-1.5,7.29,7.29,0,0,0,.53-1.76,1.78,1.78,0,0,1,.31-.94.64.64,0,0,0,.1-.26,6.44,6.44,0,0,1,.78-1.83,3.4,3.4,0,0,1,1.08-1.12c.28-.21.57-.41.86-.61a1.86,1.86,0,0,1,.41-.28,4.13,4.13,0,0,0,1.12-.86,5,5,0,0,1,2.33-1.27c.69-.14,1.4-.24,2.1-.36l.41-.09a8.58,8.58,0,0,1,1.3-.34c.49-.06,1-.21,1.44-.31a4.65,4.65,0,0,1,.91-.07c.38,0,.76,0,1.14.08a3.94,3.94,0,0,1,.84.1,7.45,7.45,0,0,0,1.76.23c.4,0,.79.11,1.19.15s.62,0,.92.1a27.28,27.28,0,0,1,3.07.83,9.31,9.31,0,0,1,1.54.88c.43.25.83.53,1.27.75a4.86,4.86,0,0,1,1.75,1.53,2.85,2.85,0,0,0,.31.38,4.45,4.45,0,0,1,1.26,1.94,8.55,8.55,0,0,1,.45,1.35c.12.69.19,1.4.31,2.1a.59.59,0,0,1,0,.14c0,.78,0,1.57-.05,2.35a.83.83,0,0,1-.06.35.66.66,0,0,0,.05.61,1.27,1.27,0,0,1,.12.39c.05.31.11.61.15.91a.85.85,0,0,1-.78.92,4.07,4.07,0,0,1-.5,0,6.22,6.22,0,0,0-.85-.07,10.93,10.93,0,0,1-2.13-.23c-.42-.07-.84-.1-1.26-.15a1.62,1.62,0,0,1-.22,0,7,7,0,0,0-2.32-.19,11.49,11.49,0,0,0-1.76.13,6.43,6.43,0,0,0-.76.17.8.8,0,0,1-1-.55.39.39,0,0,1,0-.14,7.11,7.11,0,0,1,0-2.06c.07-.27.14-.55.19-.83a1.18,1.18,0,0,0,0-.42,13.46,13.46,0,0,1-.14-1.41,1.1,1.1,0,0,0-.52-.82.3.3,0,0,0-.19-.07,7.12,7.12,0,0,0-1.13,0,4.62,4.62,0,0,1-1,.09,1.3,1.3,0,0,0-1.14.83s0,.09,0,.13a3,3,0,0,0-.39,1.48c0,.51-.1,1-.05,1.56a17.53,17.53,0,0,1,0,1.92,1.34,1.34,0,0,1-.07.27,5.28,5.28,0,0,0-.11,1.19c0,.81.21,1.61.16,2.4a15.7,15.7,0,0,1-.09,2.06,2,2,0,0,0,0,.42c0,.57.06,1.13,0,1.7a4.83,4.83,0,0,0,.26,1.54,3.27,3.27,0,0,1,.13.76,7.2,7.2,0,0,0,.71,2.81.85.85,0,0,0,.77.55,4,4,0,0,0,1.2-.05,6.39,6.39,0,0,0,1.24-.65.12.12,0,0,0,.05-.05c.23-.63.78-1.15.65-1.9,0,0,0,0,0-.07a6.64,6.64,0,0,0-.43-2.79,1.34,1.34,0,0,1-.05-.35c0-.44.28-.77.69-.67a2.41,2.41,0,0,0,1.25,0,2.25,2.25,0,0,1,.77.06,3.28,3.28,0,0,0,1,0,9.59,9.59,0,0,1,1.42,0,1.64,1.64,0,0,0,.75-.14,7.06,7.06,0,0,1,3.91-.41Z"/><path d="M580.12,182.28a2,2,0,0,1-.93-1.57,5.79,5.79,0,0,0-.55-2.08.72.72,0,0,0-.58,0,2.56,2.56,0,0,1-1.26.06.4.4,0,0,0-.21,0,4.19,4.19,0,0,1-1.41.08h-2.56a.36.36,0,0,0-.38.41,2.83,2.83,0,0,0,0,.29.68.68,0,0,1,0,.28,8,8,0,0,0-.19,1.69,3.16,3.16,0,0,1-.24.81,1.22,1.22,0,0,1-1.26.59l-1.68-.58-2.68,0a6.83,6.83,0,0,0-.77.06l-1.47.2a8.88,8.88,0,0,1-1.63.12,1.32,1.32,0,0,0-.48.09,1,1,0,0,1-1.12-.36,3.74,3.74,0,0,1-.27-.42.89.89,0,0,1-.08-.94,2,2,0,0,0,.16-.9,4.75,4.75,0,0,1,.15-1c.11-.51.25-1,.38-1.52.09-.34.18-.68.26-1a5.59,5.59,0,0,1,.45-1.42,3.72,3.72,0,0,0,.21-1.59c.06-.92.12-1.84.22-2.76a2.36,2.36,0,0,1,.39-1.13,3,3,0,0,0,.42-1.12,1.89,1.89,0,0,1,.13-.48c.4-1,.63-2,1-3,.18-.48.34-1,.55-1.45a6.94,6.94,0,0,0,.3-1.31,3.62,3.62,0,0,1,.13-.47c.2-.51.4-1,.59-1.53a1.51,1.51,0,0,0,.13-.41,11.61,11.61,0,0,1,.62-2.47c.16-.69.3-1.39.45-2.08,0-.16.06-.33.1-.49a4.36,4.36,0,0,0,.31-1.23c0-.43.15-.83.12-1.27a2.29,2.29,0,0,1,.19-1.11,3.1,3.1,0,0,0,.28-1.38,1.08,1.08,0,0,1,.23-.73,2.92,2.92,0,0,0,.49-1.52,12.61,12.61,0,0,1,.21-1.3l.43-.37,1.43-.14a5.65,5.65,0,0,1,1.83-.15,13.65,13.65,0,0,1,2.39-.08c.6.23,1.21-.08,1.83.08a3.81,3.81,0,0,0,1.05-.08,27.53,27.53,0,0,0,3.27-.26,1.74,1.74,0,0,1,.55.05,3.85,3.85,0,0,0,1.55.09.8.8,0,0,1,.94.33.65.65,0,0,1,.11.6.83.83,0,0,0,0,.41c.07.59.17,1.17.25,1.76,0,.3.06.6.11.9a3.85,3.85,0,0,0,.19.83c.14.37.33.73.5,1.09a1.88,1.88,0,0,1,.18.38,2.63,2.63,0,0,0,.24.58,3.91,3.91,0,0,1,.33,1,26.37,26.37,0,0,1,.45,2.66A7.49,7.49,0,0,0,587,158c.24.61.4,1.26.62,1.88a12.89,12.89,0,0,0,.58,1.45,18.61,18.61,0,0,1,.72,1.93c.07.22.17.44.24.66a2.75,2.75,0,0,1,.11.41c0,.21.1.41.14.62a10.46,10.46,0,0,1,.36,1.36,8,8,0,0,0,.32,1.16,3.48,3.48,0,0,1,.17.69,4.65,4.65,0,0,0,.65,1.95,2,2,0,0,1,.28,1,6.18,6.18,0,0,0,.24,1.18,3,3,0,0,1,.15,1.12,1.64,1.64,0,0,0,.07.48c0,.07.07.13.07.2,0,1.12.64,2.07.86,3.14a5.51,5.51,0,0,1,.47,2.13,4.11,4.11,0,0,0,.23,1.24,3,3,0,0,1,.11.62.7.7,0,0,1-.46.9,1.53,1.53,0,0,1-.62.13,8.2,8.2,0,0,0-2,0,4,4,0,0,0-1.55,0l-.35.05a4.68,4.68,0,0,1-2,.1.55.55,0,0,0-.22,0,4.75,4.75,0,0,1-1.55-.06,16,16,0,0,0-2.68-.1C581.32,182.32,580.7,182.28,580.12,182.28Zm-4.6-22.53c-.07.06-.1.07-.11.09a7.25,7.25,0,0,1-.48,1.63c0,.07,0,.18,0,.28-.17.68-.09,1.4-.28,2.09a11.53,11.53,0,0,0-.22,1.33c-.09.75-.19,1.5-.21,2.26a7,7,0,0,1-.06.91,6.73,6.73,0,0,0,0,.89,9.9,9.9,0,0,0,2.95.06c0-.5-.07-1-.15-1.53s-.23-1-.31-1.53-.1-1-.15-1.49a5.36,5.36,0,0,1-.09-.7,12.81,12.81,0,0,0-.3-2.39c-.06-.33-.11-.65-.16-1A1.35,1.35,0,0,0,575.52,159.75Z"/><path d="M404.81,158.34l-3,.06a3.19,3.19,0,0,1-1.34,0c-.52,0-1,0-1.56.06a6,6,0,0,0-2.22.42.5.5,0,0,1-.62-.23,2.38,2.38,0,0,1-.4-1.4,3.58,3.58,0,0,0-.05-.92,2.21,2.21,0,0,1,.07-.84c.08-.39.2-.78.28-1.17a1.75,1.75,0,0,1,.21-.67.66.66,0,0,0,.11-.47,16.52,16.52,0,0,1-.17-2,2.07,2.07,0,0,0-.1-.33q-.08-.39-.12-.78a1.61,1.61,0,0,1,.53-1.27.59.59,0,0,1,.37-.18,12.48,12.48,0,0,1,1.61-.23,2.09,2.09,0,0,0,.49-.08,1.14,1.14,0,0,1,.41,0,1.51,1.51,0,0,0,.84-.05,2.1,2.1,0,0,1,.62,0c.88-.06,1.76-.06,2.62-.19.71-.12,1.42.05,2.12-.08a1.88,1.88,0,0,1,.57.06,16.16,16.16,0,0,0,2.6.18c1.35.05,2.7-.14,4.05,0a5.4,5.4,0,0,0,1.06-.07,1.58,1.58,0,0,1,.43,0,12.78,12.78,0,0,0,1.75,0,15.1,15.1,0,0,0,1.78,0c.52-.06,1-.06,1.56-.1a17.79,17.79,0,0,1,2.63.09,6.18,6.18,0,0,0,1.49,0c.3,0,.61,0,.92,0l2.44-.09.39.24s.1.05.11.09c.12.5.61.93.34,1.53a1.31,1.31,0,0,0-.1.83.53.53,0,0,1,0,.28,3.39,3.39,0,0,0-.06,1.55,9.73,9.73,0,0,0,0,1.32,8.67,8.67,0,0,1,0,1.35,13.09,13.09,0,0,0,.14,1.39,4.2,4.2,0,0,0,.31.76.74.74,0,0,1-.27.58,1.26,1.26,0,0,1-.88.22l-.43-.08a4.47,4.47,0,0,0-1.82,0,1,1,0,0,1-.41,0,5.1,5.1,0,0,0-1.56,0c-.33,0-.66.08-1,.09a8.42,8.42,0,0,0-1.42.12,7.66,7.66,0,0,1-.88.07c0,.15-.07.28-.08.41,0,.54-.07,1.08-.11,1.62a1.26,1.26,0,0,1-.05.28,7.92,7.92,0,0,0-.22,2.32c0,.43.08.85.11,1.28s.06.9.07,1.35a2.47,2.47,0,0,0,.16,1,.93.93,0,0,1,.12.48,10.9,10.9,0,0,0,0,1.4,3,3,0,0,0,0,.84.41.41,0,0,1,0,.22c-.16.64-.11,1.32-.29,2a3.28,3.28,0,0,0,0,1.17.94.94,0,0,1-.07.68c0,.05-.08.15-.06.19.27.42,0,.83,0,1.25s-.05.81,0,1.21a22.46,22.46,0,0,0,0,2.84,3.42,3.42,0,0,1,0,.64,9.54,9.54,0,0,0,.08,1.77,3.42,3.42,0,0,1,0,.64v.43c0,.42.08.84.08,1.26a.74.74,0,0,1-.61.77,3.63,3.63,0,0,1-1.27.14,1.34,1.34,0,0,0-.49,0,6.27,6.27,0,0,1-2.24.18,8.17,8.17,0,0,1-1.71-.07.86.86,0,0,0-.35,0,18.68,18.68,0,0,0-2.1.32l-.14,0c-.78,0-1.57.06-2.35,0a8.76,8.76,0,0,1-1.61-.14.57.57,0,0,0-.4.08.66.66,0,0,1-.55,0c-.55-.17-.61-.27-.59-.87s0-1,0-1.42.07-1.13.09-1.69.05-1.09.05-1.63a1.68,1.68,0,0,1,.08-.63,1,1,0,0,0,.05-.42,9.27,9.27,0,0,1,.12-2.68c.14-.84.21-1.69.29-2.53,0-.4.11-.79.11-1.2,0-.57-.06-1.13-.1-1.7s-.07-1.08-.09-1.63a7.33,7.33,0,0,0-.27-2.18,2.6,2.6,0,0,1-.05-.63c-.05-.45-.12-.89-.16-1.34a11.45,11.45,0,0,1,0-2.55,24.12,24.12,0,0,0,.15-2.69C404.86,159,404.83,158.68,404.81,158.34Z"/><path d="M547.47,172.87c.48.07.92.18,1.36.2a16.35,16.35,0,0,0,2,0,4,4,0,0,1,.85-.05,1.49,1.49,0,0,0,.21,0c.43,0,.82-.23,1.25-.21l1.28.06a6,6,0,0,1,.7.11,4,4,0,0,0,1.33.13,1.32,1.32,0,0,1,.28,0,6.41,6.41,0,0,0,1.69-.14,1,1,0,0,1,.49,0c.69.16.87.37.83,1.09a13.56,13.56,0,0,1-.22,1.4c-.08.49-.15,1-.24,1.48a5.33,5.33,0,0,0,.21,2.1,2.25,2.25,0,0,0,.09.35,5.88,5.88,0,0,1,.16,2.17c0,.44-.32.72-.69,1.05-.73,0-1.54.13-2.34.11-.56,0-1.12.08-1.67.09a5,5,0,0,1-1.84-.05,1,1,0,0,0-.35,0c-.83,0-1.66,0-2.49.05s-1.51.14-2.26.21a1.5,1.5,0,0,1-.42,0,2.69,2.69,0,0,0-1,0,8.09,8.09,0,0,1-1.2-.05,19.6,19.6,0,0,1-2.54-.19,12.16,12.16,0,0,0-1.35,0,8.19,8.19,0,0,1-2.25-.35,4.9,4.9,0,0,0-1.75-.21,15.4,15.4,0,0,1-1.92-.06,1.88,1.88,0,0,0-1,.22,2.72,2.72,0,0,1-.65.25.64.64,0,0,1-.69-.28.59.59,0,0,1,0-.73,1.06,1.06,0,0,0,.18-.73,6.11,6.11,0,0,1,.12-1.41,5.16,5.16,0,0,0,.05-1.84,13.81,13.81,0,0,1-.16-1.55,9.37,9.37,0,0,0-.38-2.3,1.43,1.43,0,0,1-.09-.84.78.78,0,0,0,0-.14,17.27,17.27,0,0,1-.07-2.27,1.68,1.68,0,0,1,.08-.63,8.56,8.56,0,0,0,.33-2c0-.74.14-1.47.21-2.2a22.12,22.12,0,0,0,0-2.7c0-.45-.05-.9-.1-1.34-.09-.83,0-1.66,0-2.49,0-.23,0-.47,0-.7a5.19,5.19,0,0,0-.2-2c.13-.8-.08-1.6,0-2.41a7.13,7.13,0,0,0-.09-1.84,8.32,8.32,0,0,1-.06-2c0-.52,0-1,.07-1.56a8.34,8.34,0,0,0,0-1,8.62,8.62,0,0,0,.07-.91.79.79,0,0,1,.81-.8h.07a10.37,10.37,0,0,0,2.89-.1,6.2,6.2,0,0,1,2,.08,1.81,1.81,0,0,0,.57,0,3.47,3.47,0,0,1,1.89.11c.09,0,.22,0,.34,0a1.59,1.59,0,0,1,.48,0,10.59,10.59,0,0,0,1.49,0c.49,0,1,.09,1.48.12s.72,0,1.07,0a2.53,2.53,0,0,1,.75.2,1,1,0,0,1,.61,1,22.18,22.18,0,0,0,0,3,10.81,10.81,0,0,1-.15,2.19,7.83,7.83,0,0,0-.17,2.32,5,5,0,0,1,0,.86,23,23,0,0,1-.06,2.49,7.43,7.43,0,0,1,0,1.7.33.33,0,0,0,0,.14c.3.52.11,1.11.2,1.66a1.45,1.45,0,0,1,0,.36,1.28,1.28,0,0,0,.17,1,.7.7,0,0,1,.1.41,23.86,23.86,0,0,1,.09,2.54c0,.59,0,1.18,0,1.77a12.11,12.11,0,0,1-.12,2.69c-.08.29,0,.61-.11.92a6.84,6.84,0,0,1-.23.89A.55.55,0,0,0,547.47,172.87Z"/><path d="M355.11,148.71a1.52,1.52,0,0,0,.18.36,1.44,1.44,0,0,1,.32,1.33.89.89,0,0,0,0,.28,6.91,6.91,0,0,1,.07,1.76,2.26,2.26,0,0,1,0,.63.65.65,0,0,0,0,.28,5.54,5.54,0,0,1-.1,1.77,2.15,2.15,0,0,0,0,.91,1,1,0,0,1,0,.35c0,.52-.05,1-.06,1.56a3.83,3.83,0,0,0,.09.56c0,.16,0,.32,0,.48s0,.43,0,.64a3,3,0,0,1,0,.42,5.41,5.41,0,0,0,.1,1.2c.05.32,0,.66.06,1,.16,1.37.18,2.74.21,4.11,0,.76-.07,1.52-.1,2.27,0,.57,0,1.13-.05,1.7a14.9,14.9,0,0,1,.11,2.75,2.17,2.17,0,0,1,0,.36c0,.71-.08,1.42-.12,2.16a1.73,1.73,0,0,0,.41.13l1.56-.12a7.5,7.5,0,0,1,1.06,0,5.64,5.64,0,0,0,1.48.07,7.44,7.44,0,0,0,2.26.1,15.4,15.4,0,0,1,2,.1c.67.07,1.32-.13,2-.12a5.46,5.46,0,0,1,.7,0c.34.05.55.22.53.56a17.15,17.15,0,0,1,.07,1.76c-.08.54,0,1.09-.09,1.63-.15,1.2-.23,2.41-.27,3.62a.7.7,0,0,0,.06.41c.38.55.18,1-.28,1.38-.31,0-.65.09-.95-.14a.28.28,0,0,0-.2,0,18.23,18.23,0,0,0-2.33.25,2,2,0,0,1-.85.06,11.5,11.5,0,0,0-2.12.12,8.15,8.15,0,0,1-1.21,0,3.77,3.77,0,0,0-1.06,0,2.71,2.71,0,0,1-.62-.06,9.52,9.52,0,0,1-1.69-.21.24.24,0,0,0-.14,0,6.49,6.49,0,0,1-1.76,0c-.57,0-1.13-.12-1.7-.16a6.55,6.55,0,0,0-1,0c-.73.05-1.46,0-2.19,0a.93.93,0,0,1-.29,0,4.69,4.69,0,0,0-1.75,0,3.46,3.46,0,0,1-.85,0,1.51,1.51,0,0,0-.7,0c-.39.09-.78.19-1.18.26a3,3,0,0,1-.84,0,7.83,7.83,0,0,0-2.05,0,1.2,1.2,0,0,1-.56-.78,1.77,1.77,0,0,0,.28-1.25c0-.47.07-.94.09-1.42a9.7,9.7,0,0,0-.1-2.69,2,2,0,0,1,0-.69,6.27,6.27,0,0,0-.07-2,4.75,4.75,0,0,1-.05-1.07c0-.38,0-.75,0-1.13s0-.57.07-.85.08-.35,0-.49a1.27,1.27,0,0,1,0-.9,6.81,6.81,0,0,0,.14-1.56,5.1,5.1,0,0,0,0-1.56,6.07,6.07,0,0,1,0-2c.07-.65,0-1.32.07-2,0-.17,0-.33,0-.5a1.35,1.35,0,0,0,0-.28,14.08,14.08,0,0,1-.06-2.34,2,2,0,0,0-.07-.42,3.87,3.87,0,0,1-.13-1.76,1,1,0,0,0-.06-.41,7.44,7.44,0,0,1-.11-1.7c0-.52,0-1,0-1.56,0-.26,0-.52,0-.78,0-.47-.1-.94-.16-1.41a2.73,2.73,0,0,1-.07-1.39.45.45,0,0,0,0-.28,2.73,2.73,0,0,1-.12-1.47,3.64,3.64,0,0,0,0-.57.81.81,0,0,1,.17-.52,1.08,1.08,0,0,1,1.22-.51,4.68,4.68,0,0,0,1.9,0,3.13,3.13,0,0,1,.43,0c.34,0,.7.19,1-.06a1.93,1.93,0,0,0,1-.1.17.17,0,0,1,.14,0,3.24,3.24,0,0,0,1.12,0,6.74,6.74,0,0,1,1.42,0,2.37,2.37,0,0,0,.64-.05,9.52,9.52,0,0,1,1.83-.17,14.12,14.12,0,0,0,1.84,0A3,3,0,0,1,355.11,148.71Z"/><path d="M442.44,148.82a1.62,1.62,0,0,1,.28,1,17.52,17.52,0,0,1-.2,2.4c-.09.51-.24,1-.29,1.53a11.57,11.57,0,0,0-.05,2.76c.07.55,0,1.13.05,1.69,0,.28,0,.57.08.85a2,2,0,0,1,.05.42,1.91,1.91,0,0,0,.12,1.18.23.23,0,0,1,0,.14,13.59,13.59,0,0,0,0,1.69.34.34,0,0,0,0,.14,5.36,5.36,0,0,1,0,1.83c0,.62-.05,1.24,0,1.85a10.81,10.81,0,0,0,.27,2.47,1.67,1.67,0,0,1,.08.49,13,13,0,0,1,0,2,5.16,5.16,0,0,1-.16,1.75.38.38,0,0,0,0,.15c.17.89-.08,1.79,0,2.69a14.59,14.59,0,0,1,0,2.19,3.94,3.94,0,0,0,.09,1.41,1.33,1.33,0,0,1,0,.21c.06,1.13.13,2.27.2,3.4,0,.16.06.32.07.49a1.89,1.89,0,0,1-.28,1.29.68.68,0,0,1-.59.36,9,9,0,0,1-1.27,0,9.78,9.78,0,0,1-1.32-.2.5.5,0,0,0-.21,0,9.29,9.29,0,0,1-2.47-.05,3.17,3.17,0,0,0-1.94.27,1,1,0,0,1-.33.11c-.47,0-.94.06-1.41.06a4.89,4.89,0,0,1-.85-.08,5.91,5.91,0,0,1-1.44-.33l-.14,0H429.3a4.46,4.46,0,0,1-.35-.5.83.83,0,0,1-.07-.41c0-.38.06-.75.09-1.13a.88.88,0,0,1,0-.28,5.46,5.46,0,0,0,.29-1.39,3.11,3.11,0,0,0,.06-.69c-.09-1-.12-2-.21-3a3.71,3.71,0,0,0-.22-1.11,4.24,4.24,0,0,1-.16-1.9,22.32,22.32,0,0,0-.05-3.47.78.78,0,0,1,0-.14,12.64,12.64,0,0,1,.2-2,5.88,5.88,0,0,0,.08-1.77c0-.49,0-1,0-1.48,0-.66,0-1.32,0-2a9,9,0,0,1,0-1.27,1.26,1.26,0,0,0,0-.55,1,1,0,0,1,0-.42,3.23,3.23,0,0,0,0-1.2c0-.08.05-.18.07-.27s.12-.3.08-.42c-.14-.4.14-.79,0-1.19,0-.07,0-.18.05-.27a2,2,0,0,0,.05-.42,11,11,0,0,0-.1-2,.32.32,0,0,1,0-.14c-.08-.85-.15-1.7-.24-2.54,0-.38-.11-.75-.14-1.13a12.18,12.18,0,0,1,0-1.35,2.29,2.29,0,0,0-.19-1.24.67.67,0,0,1,.1-.74,1.33,1.33,0,0,1,1.28-.62.86.86,0,0,0,.48,0,2.08,2.08,0,0,1,1.39,0,3.37,3.37,0,0,0,.84.07,6.48,6.48,0,0,1,1,.08,14.65,14.65,0,0,1,3.07.61,5.82,5.82,0,0,0,2.59.21,12.66,12.66,0,0,1,2-.16A2.85,2.85,0,0,1,442.44,148.82Z"/><path d="M513.35,169.71c0-.36,0-.71.08-1.07a3.51,3.51,0,0,0,0-.56,17.76,17.76,0,0,1,0-2.63,1.15,1.15,0,0,0-.25-.84.72.72,0,0,1,.22-1.15,1.42,1.42,0,0,1,.75-.21,8.14,8.14,0,0,0,1.48-.13,10.19,10.19,0,0,1,2-.13l1.42,0a8.62,8.62,0,0,1,1.83,0,6.11,6.11,0,0,0,1.13,0c.51,0,1,0,1.55,0s1.23,0,1.85,0a5.29,5.29,0,0,1,1.89.28,1.54,1.54,0,0,0,1.37-.14,1.92,1.92,0,0,1,1.1-.18c.35,0,.65.4.67.88s0,.75,0,1.13a7.75,7.75,0,0,1,0,1.28,7.39,7.39,0,0,0,0,1.56,7.13,7.13,0,0,0,.11.77c0,.11,0,.23,0,.35,0,.61.07,1.22.1,1.83a.86.86,0,0,1-.31.83,1.15,1.15,0,0,1-.8.19,3.58,3.58,0,0,0-1.89.11c-.07,0-.18,0-.27,0a4,4,0,0,0-.49,0,19,19,0,0,1-2.13.08h-2.48c-.24,0-.47,0-.71,0s-.29-.08-.42,0a2,2,0,0,1-1-.11,2.18,2.18,0,0,0-.84-.06.88.88,0,0,1-.28,0,6.32,6.32,0,0,0-2,.06,8.85,8.85,0,0,1-2.06,0,3.43,3.43,0,0,1-1.24-.49.86.86,0,0,1-.44-.84c0-.26,0-.52,0-.78Z"/><path d="M511.21,172.31a2.62,2.62,0,0,0,0-.28c-.08-1-.16-2-.22-3.05,0-.63-.05-1.27-.05-1.91a16.19,16.19,0,0,1,.09-1.84,6.14,6.14,0,0,0,0-1.42c-.05-.45-.07-.89-.09-1.33a2.78,2.78,0,0,0-.17-1.18,1.85,1.85,0,0,1-.09-.49c-.1-.53-.22-1.07-.29-1.6a3.89,3.89,0,0,1-.09-1.48.91.91,0,0,0-.11-.62c-.15-.29-.26-.6-.41-1a2.54,2.54,0,0,0,.39-.24c.15-.12.14-.36,0-.39a1.08,1.08,0,0,1-.76-.59,15.2,15.2,0,0,1-.8-1.42,7.77,7.77,0,0,0-.81-1.16,25.41,25.41,0,0,0-2.22-1.64,3,3,0,0,1-.29-.2,7,7,0,0,0-2.15-1.06,3.59,3.59,0,0,1-1-.33,1.58,1.58,0,0,0-.87-.21.93.93,0,0,1-.78-.27.49.49,0,0,0-.32-.14,9.22,9.22,0,0,1-1.19-.13,18.8,18.8,0,0,0-2.49-.14c-.25,0-.51.06-.77.07-.8,0-1.6,0-2.4.1a2.89,2.89,0,0,1-1.06.06.51.51,0,0,0-.33.08,5,5,0,0,1-1.53.28,6,6,0,0,0-2.71.49c-.63.19-1.23.47-1.86.69a5,5,0,0,0-1.27.61,1.8,1.8,0,0,1-.86.29,3.66,3.66,0,0,0-1.35.41,5.14,5.14,0,0,0-1.49,1.3,1.31,1.31,0,0,1-.33.37,3.08,3.08,0,0,0-1.27,1.65c-.18.52-.49,1-.67,1.49a5.07,5.07,0,0,0-.34,1.52,7.87,7.87,0,0,1-.24,1.53c-.07.32-.14.65-.18,1-.06.52-.09,1-.12,1.56s-.08,1.14-.08,1.71,0,1.42.06,2.13c0,.3.05.6.05.91,0,1.11,0,2.22,0,3.33,0,.33,0,.67,0,1a15.12,15.12,0,0,0,0,1.9,13.14,13.14,0,0,1,.45,2.64.68.68,0,0,0,.07.2c0,.21.07.42.11.63s.07.42.1.63a9.19,9.19,0,0,0,.46,1.71c.11.33.22.66.36,1a9,9,0,0,0,.83,1.87,2.16,2.16,0,0,0,.72,1.12c.41.4.83.79,1.24,1.17a5.81,5.81,0,0,0,2.21,1.38,3.19,3.19,0,0,1,.84.38,2.1,2.1,0,0,0,.66.25c.91.24,1.83.48,2.75.7a6.51,6.51,0,0,0,.77.13,16,16,0,0,1,2.76.09h.07a9.08,9.08,0,0,1,2.33.06,1.55,1.55,0,0,0,.43,0c.67-.14,1.36,0,2-.13s1.46-.12,2.17-.32,1.27-.19,1.89-.33a7.2,7.2,0,0,0,2.57-1.16,2.3,2.3,0,0,1,.44-.23,14.52,14.52,0,0,0,1.59-.76,11.4,11.4,0,0,0,1.42-1.18c.26-.23.46-.57.76-.74a2.62,2.62,0,0,0,.81-.78c.26-.36.53-.72.79-1.09a7.18,7.18,0,0,0,.63-1c.29-.64.51-1.32.79-2a2.37,2.37,0,0,0,.25-1.31.75.75,0,0,1,0-.21C511.22,174.4,511.12,173.35,511.21,172.31ZM505,168.65a1,1,0,0,1-.53.63,8.23,8.23,0,0,1-1.33.5,3.22,3.22,0,0,1-1.54.19.55.55,0,0,0-.28,0,11.19,11.19,0,0,1-2.31.33c-.75.08-1.5,0-2.25,0-.89-.19-1.79,0-2.69-.11a4,4,0,0,0-1.81,0,1.84,1.84,0,0,1-.57,0,5.41,5.41,0,0,0-1.55.15,1.58,1.58,0,0,1-.42.09,6.83,6.83,0,0,0-2.1.33.43.43,0,0,1-.55-.2.47.47,0,0,0-.34-.22,2.63,2.63,0,0,1-1.47-.81,5.74,5.74,0,0,1-.67-.73,2,2,0,0,1-.51-1.71,1.71,1.71,0,0,0,0-.46,2.83,2.83,0,0,1,.43-.48,2.37,2.37,0,0,0,.3,1.48,1.71,1.71,0,0,0,2.37.62c.94-.72.64-2.32,1.47-3.17a5.34,5.34,0,0,1,.26,1.8c.08.61.51,1.28,1.12,1.22a1.31,1.31,0,0,0,.82-.59,4.74,4.74,0,0,0,.91-2.66h0a8.05,8.05,0,0,0,.47,2.28c.16.47.44,1,.93,1.07.76.14,1.22-.79,1.42-1.53l.58-2.14h.05a9.61,9.61,0,0,1,.84,2.15c.32.72,1.21,1.36,1.86.91a1.61,1.61,0,0,0,.52-.82,9.43,9.43,0,0,0,.46-1.83h.49l.71,1.85a1.35,1.35,0,0,0,.34.58c.56.47,1.35-.16,1.77-.75s.82-1.23,1.19-1.88a.84.84,0,0,1,.4.43.42.42,0,0,0,.11.18,4,4,0,0,1,1,1.63A2.13,2.13,0,0,1,505,168.65Z"/><text class="cls-1" transform="translate(756.3 174.78)"><tspan class="cls-2">A</tspan><tspan class="cls-3" x="23.17" y="0">g</tspan><tspan class="cls-4" x="41.42" y="0">en</tspan><tspan class="cls-5" x="76.41" y="0">d</tspan><tspan class="cls-4" x="95.03" y="0" xml:space="preserve">a   </tspan><tspan class="cls-6" x="134.74" y="0">P</tspan><tspan class="cls-7" x="155.5" y="0">r</tspan><tspan class="cls-8" x="169.76" y="0">odu</tspan><tspan class="cls-9" x="228.4" y="0">t</tspan><tspan class="cls-8" x="241.43" y="0">os</tspan><tspan x="275.71" y="0" xml:space="preserve">    </tspan><tspan class="cls-10" x="306.24" y="0">C</tspan><tspan class="cls-11" x="327.58" y="0">on</tspan><tspan class="cls-12" x="363.14" y="0">t</tspan><tspan class="cls-13" x="374.46" y="0">a</tspan><tspan x="390.76" y="0" xml:space="preserve">to   Sob</tspan><tspan class="cls-14" x="495.25" y="0">r</tspan><tspan class="cls-4" x="506.46" y="0" xml:space="preserve">e   </tspan><tspan class="cls-15" x="545.93" y="0">C</tspan><tspan x="567.08" y="0">a</tspan><tspan class="cls-16" x="583.9" y="0">d</tspan><tspan class="cls-17" x="602.52" y="0">ast</tspan><tspan class="cls-18" x="646.33" y="0">r</tspan><tspan x="657.56" y="0">o/</tspan><tspan class="cls-19" x="691.44" y="0">L</tspan><tspan class="cls-11" x="710.31" y="0">ogin</tspan></text><path class="cls-20" d="M1631.88,166.12A63.56,63.56,0,0,1,1646,155.54a41.71,41.71,0,0,0-15.73-5.14c1.49-4.1,3-8,4.46-11.72a94.62,94.62,0,0,0-15.78,5.44c-2.46-4.34-4.92-8.73-7.37-13.59-2,4-4.1,8.44-6.14,13a114.31,114.31,0,0,1-12.74-9.58q.12,11.47.25,22a42,42,0,0,1-15.8,1c2.61,3.4,5.22,6.54,7.83,9.36a39.86,39.86,0,0,1-11.6,5.11,47.54,47.54,0,0,0,20.07,9q-1.58,8.82-3.15,16.6c3.29-1.49,6.57-3.15,9.86-5.05,1.1,3.15,2.21,6.32,3.31,9.58a191.71,191.71,0,0,0,10.77-15.95,108.59,108.59,0,0,1,18.61,9.58q-1.2-8.1-2.4-15.7a46.54,46.54,0,0,1,10.94,1.35C1638.24,175.51,1635.06,170.53,1631.88,166.12Z"/><text class="cls-21" transform="translate(1598.25 178.93)">1</text></svg>