<svg id="Camada_1" data-name="Camada 1" xmlns="http://www.w3.org/2000/svg" viewBox="0 0 1080 1080"><path d="M816.84,585.28C804.45,566,791,576.91,777,583.08q-71.55,31.63-143.45,62.45c-25.76,11-52.24,20.28-77.93,31.43S502.16,697,480.39,713.63c-17.1,13-20.26,8.07-33.19-3.81-15.66-14.39-36.74-24.47-57.14-31.77-38.85-13.9-79-24.08-118.37-36.69-17.69-5.67-34.89-13-51.92-20.49-11.16-4.9-13-14-7.44-24.92,11.54-22.65,22.75-45.46,34.07-68.22.81-1.62,2.37-3.67,1.94-5-4.36-13.08-1.16-22.95,11.55-29.18,4.6-2.26,8.94-5.29,13.77-6.75,11.19-3.39,22.79-5.47,33.9-9.09q52.38-17.09,104.49-35c8.5-2.92,16.65-7,24.78-10.88,44.57-21.38,90.11-41.05,133.08-65.29,15.49-8.74,27.27-9.28,42.86-6.06,24.89,5.13,50.33,7.49,75.33,12.15,37.44,7,74.86,14.17,111.95,22.77,20.63,4.78,40.72,12.18,60.71,19.34,4.31,1.55,9.33,6.83,9.94,11,.43,2.88-6.15,6.8-9.61,10.24-3.29,3.28-8.38,6-9.59,9.89-6.54,21.2-12.3,42.65-18,64.11-4,15-10.78,29.09-5.53,46.29C830.15,563.35,821.61,573.72,816.84,585.28ZM611.62,383.2c-13.5-7.74-24.77-7.91-35.27-3.15C549.94,392,524,405,497.87,417.61c-13,6.3-26.06,12.59-38.87,19.29-11.89,6.22-22.84,15-35.36,19.15-38.65,13-77.9,24.19-116.83,36.36C294.68,496.2,293,504,302.63,512.16c5.82,5,13.44,8,18.72,13.42,39.7,40.64,87,70.6,136.1,98.12,11.57,6.48,22.49,5.38,33.49-.61,19.41-10.57,38.7-21.33,58.11-31.88,36.67-19.93,73.76-39.11,110-59.8,38.09-21.77,75.28-45.13,113.09-67.41,14.42-8.5,29.67-15.61,44.12-24.06,4.38-2.56,7.7-7.25,10.67-11.54.49-.71-2.86-5.58-5.24-6.54-15.12-6.09-30-13.81-45.83-16.94-45.33-9-91-16.2-136.65-23.7-6.09-1-12.57.4-18.87.68l-.45,4.07c18,.71,26.48,21.3,45.74,20.07,1.56-.1,5.5,6.45,5,9.29-3.85,20.95-6.76,42.37-13.78,62.3-3.25,9.25-14,20.29-23.09,22.27-31.85,6.89-64.36,11.78-97.17,3.84-15.45-3.74-24.59-14.4-27.92-29.42-6.56-29.61,20.56-59.89,44.18-68.74C571.4,398.61,589.92,391.47,611.62,383.2ZM474.1,692.8c11.45-3.95,20.48-6.64,29.17-10.18,9.64-3.91,18.7-9.35,28.47-12.82,32.84-11.65,66.61-21,98.67-34.42C678.48,615.23,724.84,591,773,571.15c28-11.52,46.1-27.84,51.13-58.5,2.56-15.54,8.85-30.44,12.77-45.81,1.34-5.22.59-11,.8-16.48-5.57.6-12-.42-16.57,2.05q-50.82,27.6-101,56.41c-46.4,26.61-92.58,53.62-138.82,80.51-32.87,19.12-65.81,38.13-98.38,57.75-4,2.44-7.88,8.1-8.5,12.71C473.2,669.51,474.1,679.53,474.1,692.8Zm-14.25-43.3c-1.14-1.38-3.76-6.24-7.79-9.16-13.58-9.84-27.81-18.77-41.49-28.46-20.7-14.65-41.38-29.36-61.66-44.58C326.06,550.17,303.73,532.35,281,515c-7-5.35-13.52-5.13-17.77,3.77-11.32,23.74-22.82,47.4-33.74,71.32-4,8.75-3.39,17.65,7.24,21.38,35.45,12.46,70.91,25,106.7,36.41,34.93,11.16,71.68,16.89,103.31,37.43,9.08,5.9,12.24-1.77,12.93-9.2S459.85,661,459.85,649.5ZM603.21,399.8c-17.35,7.06-37,14.64-56.18,23.3-2.81,1.27-5.47,8.55-4.29,11.49,1.45,3.68,6.57,6.82,10.78,8.32,29.46,10.52,55-4,81-14,9.25-3.56,9-16.16-.23-20.43C625.81,404.62,616.17,403.29,603.21,399.8Zm-30.81,95c19.42.84,28.28-9.39,35.7-21.29,3.09-5,5-10.67,7.44-16-6.28-.22-12.83-1.69-18.8-.45-18.78,3.93-36.8,2.43-54-5.72-7.45-3.52-13.23-3.32-17.17,4.33-7.37,14.3-.32,30.95,15.31,34.53C552.31,492.75,564.17,493.61,572.4,494.77Z"/><path d="M504.4,583.17c-5.14-8-10.69-13.83-13.09-20.79-6.63-19.28-10.73-20.48-24.89-6.11a112,112,0,0,1-17.9,14.59c-2.25,1.5-6.32.25-9.55.25.26-3-.67-7.27,1-8.74C453,550.52,466.41,539,480.22,528c1.56-1.24,7.62.42,9.24,2.53a95.64,95.64,0,0,1,10.76,18.55c5.17,11.38,14.79,13.36,23.53,4.27A31.42,31.42,0,0,0,528,548c4.16-6.85,10.76-8.88,15.34-2.92,2.23,2.89.27,12.83-3.05,15.45C530.16,568.56,518.45,574.57,504.4,583.17Z"/><path d="M407.38,553.94c-12.21-2.13-18.72-13.64-13.5-24.37,5.59-11.49,35.11-29.48,47.71-26.89,5,1,10.8,7.91,12.43,13.28s.62,15.83-2.84,17.84C437.35,541.83,422.1,547.43,407.38,553.94Zm7.92-12.08c8.8-5.59,17.37-10.3,24.92-16.29,2.25-1.79,1.62-7.19,2.31-10.93-3.75-.65-8-2.74-11.17-1.67a100.1,100.1,0,0,0-22,10.32c-3,1.92-6.26,7.56-5.42,10.27C405,536.69,410.32,538.46,415.3,541.86Z"/></svg>