<svg id="Camada_1" data-name="Camada 1" xmlns="http://www.w3.org/2000/svg" viewBox="0 0 1080 1080"><path d="M518.21,319.08c7.09.9,14.85.24,21.16,2.95,44.55,19.14,95.72,26.55,127.48,68.88,18.41,24.53,35.54,50,53.16,75.12,16.42,23.41,32.52,47,49.38,70.13,1.82,2.48,8.75,3.94,11.56,2.49,10.65-5.5,16.6-3,23.74,6.71,4.85,6.59,14.66,9.81,22.64,13.76,13.37,6.63,16.3,18.07,6,28.48-6.65,6.72-14.37,12.4-21.82,18.28-18.12,14.33-36.17,28.75-54.6,42.67-13.68,10.32-27.57,20.44-42,29.68-13.78,8.84-24.73,2.77-29.23-13.19-2.63-9.36-9.15-17.55-12.51-26.78-3-8.34-6.59-17.68-5.55-26,1.44-11.67-15.5-44.42-27-43.56-9.87.74-20.17,5.66-28.8,11.09-46.45,29.18-92.73,58.65-138.47,88.93-25.74,17-50,36.35-75.59,53.61-10.12,6.82-22.09,10.94-33.29,16.15-16.81,7.81-33.78,15.31-50.5,23.34-7.88,3.79-12.54,1.24-16.25-5.89-6.83-13.12-13-26.7-21.16-38.95-6.74-10.12-16.56-18.14-23.85-28-5.09-6.85-8.21-15.16-12.21-22.82,6.88-3.35,13.68-6.89,20.68-10,8.61-3.82,17.95-6.3,26-11.06,39.36-23.32,77.92-48,117.65-70.65,36.42-20.78,74.08-39.37,111-59.37,18.32-9.94,36.47-20.33,53.85-31.8,4-2.65,7.94-12.81,6-15.71-10.22-15.77-18.06-35-38-41-11.83-3.52-25.29-6.09-37.16-4.06-27.86,4.76-50.94-1.51-70.76-21.46-13.88-14-13.44-25.07,2.72-36.65,15.84-11.35,31.56-23,48.31-32.92,11.09-6.53,23.92-10.13,36-15Zm-61.88,63-1.55,4.76c5.46,2.57,10.79,6.92,16.41,7.32a104.6,104.6,0,0,0,29.92-1.87c32.79-7.3,55.73,6.91,73.27,32.59,14.22,20.81,27.34,42.36,41.16,63.45,2.39,3.65,5.82,6.61,10.56,11.87,1.73-21.44-10.2-34.14-17.54-48.77-2.31-4.6-3.32-12.9-.73-16.39,14.12-19,42.92-18.65,55.4,1.23,16.71,26.6,31.68,54.29,47.26,81.6,4.91,8.61.67,14.5-6.52,19.22C681.31,552,673.49,551.35,653,533c-.36-.32-1.68.41-3.59.93,1,2.56,1.57,5.33,3.12,7.29,12.05,15.19,24.82,29.84,36.26,45.46,5.94,8.11,11.45,7.25,18.1,2.61,11.66-8.16,22.57-17.57,34.85-24.61,12.74-7.3,12.27-14.75,4.71-25.33-29.39-41.11-57.59-83.1-88.11-123.33-11-14.45-25.67-27.66-41.45-36.45-21.11-11.77-44.69-19.33-67.67-27.39-8.62-3-18.53-3.19-27.86-3.22C494.09,348.87,478.37,371.65,456.33,382.07ZM358.53,687.5l1.33,2.61c5.72-2.45,12-4.05,17.06-7.49,14.53-9.94,29.14-19.93,42.6-31.23,10.59-8.89,25.64-13.6,28.8-30.2,2.81-14.78,31.73-35.52,46.93-36.27,9.63-.48,20.31-1.33,28.48-5.76,26.16-14.18,51.61-29.74,76.71-45.73,4.2-2.68,8.38-11,7.22-15.29-2.52-9.33-10-16.14-20.79-11-13.72,6.59-26.7,14.68-40.15,21.84-30.47,16.22-61.24,31.87-91.43,48.58-10.15,5.62-18.92,13.74-28.32,20.71,6.9,16.09-7.36,20.71-15.6,28.39-6.3,5.87-13.2,6.75-17.88-1.69-5.56-10-12.95-8.85-20.44-3.88-23.07,15.26-45.87,31-68.71,46.55-6.86,4.7-18.61,9.26-19,14.63-.61,7.43,6.77,16,11.88,23.24,2.37,3.36,8.24,7.48,11.18,6.63,11.33-3.28,22.12-8.43,35.48-13.84-17.5-10.25-20.2-20.14-9.62-30,6.78-6.31,15.71-10.82,24.4-14.34,3.79-1.53,12.23.06,13.52,2.69,2,4.1,1.14,11-1.07,15.46C368.2,677.93,362.82,682.45,358.53,687.5Zm346.31-47.8c4-2.47,7.25-4.31,10.31-6.46,25.74-18,51.55-36,77-54.49,2.63-1.91,3-7,4.41-10.54-3.86-.33-8.45-2.16-11.45-.71a290.37,290.37,0,0,0-33.71,18.67c-17.08,11.31-33.73,23.33-50,35.77-2.87,2.19-4,7.89-4,12C697.29,635.72,701.93,637.59,704.84,639.7ZM679,521c.91-5.8,2.91-9.85,1.67-12q-16.8-29.64-34.86-58.56c-.92-1.47-7.67-1.63-8.33-.46-1.58,2.76-2.35,7.13-1.28,10a172.41,172.41,0,0,0,10.19,21.89C654.08,496.34,660.86,511.64,679,521Z"/></svg>