<svg id="Camada_1" data-name="Camada 1" xmlns="http://www.w3.org/2000/svg" viewBox="0 0 1080 1080"><path d="M468.1,648.19c-27.57,2.47-52.83,4.6-78.07,7.06-6.92.67-8.36,5.52-6.84,11.59,5,19.85,10,39.68,14.92,59.55,1.71,6.92,3,14,4.64,20.89,1.57,6.54-1.72,9-7.56,10.1a119,119,0,0,0-16,4.09c-9.67,3.28-13.74,1.56-14.62-8.62-1.34-15.45-.75-31.09-2.48-46.49A151,151,0,0,0,354,673.11c-.87-2.45-9.05-4.82-12.35-3.49-22.62,9.11-44.92,19-67.15,29.09-8.93,4-13.65,1.89-14.21-8.06-1.42-25.37-2-50.8-4-76.12-1.27-16.27-3.93-32.47-6.84-48.54-1.24-6.9.14-9.83,6.93-12.34q52.61-19.42,104.8-39.92c16.08-6.27,31.94-13.15,47.69-20.22,3.64-1.64,6.5-5.09,9.56-7.89,1.33-1.23,2-3.88,3.39-4.27,17.18-4.72,21.83-21.1,31.19-33.08,11.07-14.14,22.3-28.15,33.27-42.36,14.32-18.56,28.34-37.34,42.8-55.78,2.29-2.92,6.34-6.6,9.31-6.38,5.82.44,7.55,5.65,6.72,11.24-2.31,15.7,3.07,29.71,8.08,44.26,6.63,19.27,10.59,39.44,16.26,59.07,8.18,28.26,17,56.32,25.26,84.56,5.11,17.52,9.57,35.22,14.39,52.82,2.44,8.93,5,17.83,7.55,26.73,2.47,8.62,4.66,17.34,7.59,25.8,2.11,6.08,5.65,11.67,7.74,17.76,1.19,3.46,2.11,8.17.64,11-1.1,2.13-6.24,3.09-9.54,3-37.22-.86-72.3-13.15-108.29-20.62C498.49,656,482.39,651.65,468.1,648.19Z"/><path d="M714.46,326.79a11.59,11.59,0,0,1-1.84.24c-4.43,0-10.47,1.7-10.39-5.18,0-1.73,6.5-5,9.9-4.82,26.07,1,45.75,15.2,64.25,31.93,22.85,20.66,32.57,48.52,42.89,76.14,2,5.23,4.05,10.42,6.05,15.63,4.74,12.3,7.23,24.7,4.52,38.07C828,488.17,826.18,498,827,507.4c1.83,20.63-4.57,39.84-8.14,59.54-.59,3.26-2.94,6.43-5.18,9-.63.73-5.36-.42-5.51-1.21-.63-3.4-1.13-7.26-.13-10.47,11.5-36.93,16.92-75.3,9.18-112.72-8.72-42.18-26.86-81.54-63.46-108.22C742.34,335,730.5,325.27,714.46,326.79Z"/><path d="M732.59,494.25c2.37,21.81-9.36,44.28-14.62,68.08-.39,1.77-1.07,3.93-2.37,5-2.14,1.69-4.89,2.61-7.38,3.85-1.23-2.61-3.84-5.48-3.4-7.77.91-4.73,3.59-9.1,5.31-13.7,17.27-46.24,15.89-92.38-5.41-136.47-10.85-22.46-28.21-40.38-57.41-38.36-2.88.2-6-3.46-9-5.32,3-1.59,5.91-4.51,8.91-4.57,29.61-.52,50.63,14.29,65.31,38.74C723.76,422.48,734.24,469.78,732.59,494.25Z"/><path d="M666.84,509.43c-1.9,15.41-3.49,27.7-4.87,40-.41,3.65.54,7.61-.52,11s-3.88,6.44-5.92,9.62c-1.93-3.31-5.65-6.74-5.42-9.9.55-7.58,3.12-15,4.58-22.54,5.09-26.23,2.33-51.42-12-74.36-6.89-11.08-15.4-20.83-30.41-21.48-2.91-.13-8.17-4.35-8-6.33.51-6.33,5.89-4.82,10.11-3.77,25.39,6.34,39.78,23.88,46.87,47.84C664.44,490.14,665.41,501.4,666.84,509.43Z"/></svg>