<svg id="Camada_1" data-name="Camada 1" xmlns="http://www.w3.org/2000/svg" viewBox="0 0 1080 1080"><path d="M599.31,574.75c-4.15,0-8.31.21-12.45,0-9.59-.57-17.24,2-23.82,9.88-21.17,25.25-43.55,49.51-64.35,75.06-21.05,25.86-40.48,53-61.16,79.21-21.13,26.72-43,52.84-64.36,79.38-10.55,13.12-20.19,27-31.25,39.65-3,3.45-9.92,5.59-14.64,5-13-1.56-25.67-5.14-38.57-7.42-9.37-1.66-13.41-8.71-7.24-16,18.74-22.13,38.4-43.47,57.41-65.37,18-20.71,35.55-41.77,53.36-62.62q43.53-50.94,87.14-101.83c10.73-12.54,21.31-25.2,32.12-37.67,5.89-6.79,4.63-12.74-2.54-16.8-9.28-5.24-16.41-11.45-18.91-22.47-.7-3.07-4.55-5.79-7.51-7.9C460,508.73,446.4,487,436.74,461c-15.6-41.95-10.27-82.08,8.18-120.46,14.4-29.93,35.18-55.69,65.67-72.1,13.56-7.3,25.44-17.92,39.31-24.44,34.45-16.22,68.55-32.93,109.45-24.94,17.78,3.48,33.71,9.69,50,16.42,5.18,2.14,11.43,1.54,17.07,2.77,3.39.74,7.44,1.74,9.67,4.07,19.34,20.26,43.3,37.19,52.81,65,10,29.18,17.32,58.68,8.94,90.27-11.73,44.3-30.52,85.08-61.32,118.78-14,15.34-31.26,28.8-52.6,35.39-19.24,5.93-37.62,14.66-56.82,20.76-8.69,2.76-18.46,2.11-27.74,3Zm167-194.66c-3.1-31.5.14-62.87-20.94-88-9.74-11.62-21-22-32.45-32.11a73.55,73.55,0,0,0-49.75-18.62c-36.58,0-71.67,8.51-105.51,21.57C520.33,277.32,493.13,306,469,335.66c-29,35.73-29.89,77.82-10.43,119.2,18.84,40.08,58.12,55.22,95,71.19,17.75,7.69,38.83,8.53,58.6,10.41,9.68.92,20.87-.7,29.52-5,22.53-11.07,45.2-22.59,65.59-37.07a170.6,170.6,0,0,0,41.1-41.17C763.52,431.35,762.09,404,766.27,380.09Zm-92.88,154c10.23,4.95,23.54-1.1,29.23-11.16l-1.45-3.05Zm-345,305.46c-3.4-2.75-6.37-5.73-6.79-5.4-2.71,2.09-4.86,4.91-7.2,7.49,1.85,1.37,4.06,4.14,5.48,3.79C322.45,844.79,324.62,842.29,328.34,839.56Z"/><path d="M673.53,437.2c-17.84,0-31.37.48-44.84-.17-9.12-.44-11.86-5.33-6.72-12.27q35.68-48.19,72.38-95.63c5.14-6.65,12.78-4.08,13.23,3.16.95,15,.92,30.6-1.85,45.35-3.13,16.69-9.89,32.68-14.71,49.08C687.49,438.74,678.47,437.77,673.53,437.2Zm26.2-81.7c-1.54-2.63-3.52-8.64-5.37-8.6a16,16,0,0,0-10.91,5.61c-6.22,7.95-11.16,16.88-17,25.12-8.49,11.92-17.72,23.33-25.78,35.52-2,3-1.35,8.38-.47,12.34.2.92,6.36.84,9.75.65,6-.35,12-1.7,17.94-1.63,13,.18,19.06-7.34,21.56-18.69C693,389.65,696.09,373.39,699.73,355.5Z"/><path d="M630.28,502.56c5.18-3.36,8.3-4.66,10.44-6.9,6.41-6.7,11.94-14.36,18.9-20.39,2.47-2.14,8.06-.69,12.22-.88-1.15,3.42-1.35,7.76-3.61,10.1-8.53,8.8-17.7,17-26.69,25.33-7.6,7.05-15.89,2.28-19.87-2.64a65.7,65.7,0,0,1-13.09-27.59C607.86,476,616.4,468.92,622,466c6.75-3.45,14.83-4.87,22.49-5.63,3.81-.38,8,2.66,12,4.16-2.7,2.39-5,5.63-8.19,7-6.51,2.78-13.83,3.82-20.1,7-3.84,1.95-9.55,7.63-8.83,9.71C621.13,493.42,626.11,497.48,630.28,502.56Z"/></svg>