<?xml version="1.0" encoding="utf-8"?>
<!-- Generator: Adobe Illustrator 24.1.2, SVG Export Plug-In . SVG Version: 6.00 Build 0)  -->
<svg version="1.1" id="Camada_1" xmlns="http://www.w3.org/2000/svg" xmlns:xlink="http://www.w3.org/1999/xlink" x="0px" y="0px"
	 viewBox="0 0 1080 1080" style="enable-background:new 0 0 1080 1080;" xml:space="preserve">
<style type="text/css">
	.st0{fill:#FFFFFF;}
</style>
<g>
	<path d="M375.12,727.12c-1.31,0.26-2.12,0.36-2.88,0.59c-4.78,1.45-9.7,1.62-14.65,1.94c-3.91,0.25-7.8-0.71-11.67,0.18
		c-5.14-0.97-10.57-1.22-14.35-5.65c-0.44-0.52-1.18-1.03-1.23-1.59c-0.24-2.7-0.39-5.42-0.37-8.13c0.02-2.96,1.48-5.13,3.96-6.76
		c0.94-0.62,1.75-1.62,2.29-2.63c3.86-7.22,7.6-14.5,12.88-20.84c3.33-7.32,9.69-12.2,14.74-18.13c0.87-1.02,2.18-1.64,3.15-2.59
		c2.42-2.36,3.96-5.01,3.32-8.66c-0.54-3.04,1.46-6.02,4.48-7.06c1.28-0.44,2.65-0.61,4.23-0.95c0.86,0.57,1.8,1.29,2.82,1.86
		c2.49,1.38,2.92,3.62,2.64,6.15c-0.09,0.83-0.28,1.73-0.7,2.43c-2.69,4.53-5.31,9.09-9.28,12.72c-4.65,4.25-9.6,8.28-13.12,13.58
		c-2.82,4.25-5.85,8.32-9,12.31c-1.01,4.26-4.58,7.07-6.18,11.07c-0.97,2.44-3.14,4.4-4.8,6.55c-0.93,1.2-2.33,2.33-1.75,4
		c0.67,1.92,2.62,2.04,4.31,2.17c2.2,0.18,4.42,0.16,6.64,0.19c1.02,0.01,2.04-0.06,3.07-0.09c3.88-0.11,7.75,0.31,11.59-1
		c2.2-0.75,4.72-0.81,7.09-0.76c1.98,0.05,3.7-0.35,5.4-1.24c2.72-1.43,5.52-2.63,8.58-3.19c0.8-0.15,1.53-0.68,2.27-1.07
		c5.24-2.79,10.89-4.81,15.82-8.21c0.64-0.44,1.48-0.6,2.52-1.01c-2.93-5.03-4.46-10.22-6.27-15.32c-0.62-1.74-1.91-3.22-2.75-4.9
		c-1.65-3.32-3.22-6.67-4.45-10.18c-1.19-3.37-3.04-6.51-4.1-9.91c-2.13-6.83-4.28-13.69-5.77-20.68
		c-1.85-8.65-3.33-17.42-3.31-26.3c0.01-6.28-0.28-12.59,0.63-18.85c0.14-1,0.25-2.1-0.01-3.05c-0.47-1.73-0.04-3.35,0.08-5.05
		c0.25-3.57,0.32-7.16,0.18-10.74c-0.14-3.74-0.47-7.45,0.47-11.16c0.27-1.07-0.15-2.31-0.25-3.4c-1.34-0.39-1.81,0.41-2.08,1.15
		c-2.98,8.08-7.54,15.24-12.63,22.11c-0.8,1.08-1.11,2.54-1.97,3.55c-1.97,2.32-3.8,4.71-6.41,6.55c-4.17,2.94-7.85,6.53-12.08,9.44
		c-1.89,1.3-3.67,1.66-5.77,1.04c-1.2-0.36-2.11-1.02-2.6-2.26c-0.94-2.39-1.62-4.68-1.16-7.42c0.76-4.53,0.94-9.15,1.33-13.74
		c0.76-8.82,1.8-17.61,2.75-26.42c0.7-6.46,1.43-12.9,3.15-19.18c-0.39-5.18,1.97-9.93,2.21-15.08c0.24-5.07,1.85-10.07,2.52-15.14
		c0.82-6.23,2.77-12.22,3.61-18.46c0.6-4.51,2.33-8.87,3.57-13.29c1.15-4.1,2.73-8.15,1.15-12.5c0.71-1.97-0.18-3.4-1.16-5.12
		c-1.77-3.11-1.06-5.89,2.72-8.22c5.38-3.31,10.47-7.01,15.66-10.58c0.55-0.38,1.18-0.69,1.82-0.88c3.01-0.88,5.38-2.74,7.88-4.57
		c3.83-2.81,8.09-5.04,12.16-7.52c3.92-2.38,7.84-4.76,11.76-7.15c0.73-0.44,1.42-1.16,2.2-1.29c2.71-0.43,4.68-1.88,6.3-3.97
		c0.2-0.26,0.51-0.46,0.8-0.63c3.11-1.7,6.55-2.98,9.26-5.18c3.06-2.48,6.88-3.44,9.87-6.13c2.57-2.31,6.21-3.46,9.41-5.05
		c1.15-0.57,2.31-0.22,3.42,0.38c1.89,1.02,3,2.68,4.08,4.48c-1.24,3.4-3.6,5.82-6.75,6.66c-3.78,1-6.76,3.18-9.94,5.12
		c-3.78,2.3-7.49,4.7-11.59,6.45c-1.68,0.72-3.12,2.02-4.65,3.09c-0.83,0.59-1.51,1.44-2.41,1.85c-6.81,3.12-12.81,7.59-19.2,11.41
		c-2.04,1.22-4.29,2.08-6.35,3.26c-1.91,1.09-3.69,2.41-5.57,3.56c-2.61,1.6-5.25,3.16-7.9,4.69c-1.46,0.84-2.94,1.63-3.64,3.18
		c0.64,1.31,1.69,1.33,2.7,1.3c7.32-0.24,14.68-0.05,21.93-1.46c1.01-0.2,2.04-0.45,3.05-0.38c8.47,0.57,16.49-2.07,24.72-3.27
		c3.89-0.57,7.69-1.33,11.45-2.35c1.3-0.35,2.61-0.73,3.84-1.26c3.12-1.34,6.1-2.72,9.71-2.83c2.4-0.07,4.77-1.66,7.14-2.62
		c4.88-1.99,9.53-4.53,14.63-6c0.48-0.14,0.9-0.48,1.35-0.72c5.26-2.8,10.8-5.18,15.69-8.52c3.95-2.7,8.63-3.98,12.29-7.16
		c3.6-3.13,7.57-5.83,11.25-8.86c3.82-3.14,7.71-6.21,10.8-10.16c1.47-1.88,3.5-2.65,5.92-2.25c2.28,0.38,3.79,2.61,3.25,4.92
		c-0.81,3.45-2.78,6.15-5.45,8.4c-3.13,2.64-6.46,5.01-9.38,7.92c-3.98,3.97-8.66,7.3-12.28,11.55c-3.46,4.06-7.96,6.97-11.16,11.21
		c-0.57,0.76-0.95,1.66-1.47,2.59c4.52,1.15,8.18-0.49,11.34-2.64c4.7-3.19,9.83-5.49,14.93-7.79c7.44-3.36,15.13-6.18,22.72-9.22
		c0.79-0.32,1.74-0.42,2.37-0.93c3.66-2.96,8.4-3.65,12.37-5.97c3.97-2.33,8.05-4.44,11.99-6.82c6.28-3.78,12.36-7.87,17.72-12.93
		c1.23-1.16,2.65-2.11,3.99-3.14c0.54-0.41,1.23-0.7,1.64-1.21c3.41-4.25,6.8-8.51,10.14-12.81c2.18-2.81,4.15-5.8,6.04-8.79
		c4.58-7.21,8.37-14.86,10-23.34c0.47-2.47,0.37-5.08,0.27-7.62c-0.08-2.16-1.48-3.72-3.02-5.15c-2.11-1.97-4.15-4.02-6.21-6.05
		c-1.6-1.59-3.48-2.68-5.59-3.49c-3.98-1.51-7.91-3.13-11.84-4.77c-2.52-1.05-5.04-1.88-7.83-2.08c-2.52-0.18-4.98-1.03-7.48-1.53
		c-1.32-0.27-2.66-0.52-4.01-0.62c-2.88-0.23-5.78-0.4-8.67-0.52c-1.18-0.05-2.39,0-3.55,0.21c-4.7,0.84-9.36,1.93-14.09,2.59
		c-3.84,0.54-7.75,0.5-11.65,0.57c-3.87,0.07-7.74,0.98-11.58,1.7c-2,0.37-3.93,1.13-5.9,1.7c-0.65,0.19-1.47,0.14-1.96,0.53
		c-3.18,2.44-7.27,2.87-10.64,4.92c-1.42,0.86-3.17,1.19-4.77,1.75c-0.64,0.22-1.37,0.3-1.9,0.67c-4.47,3.1-9.8,3.87-14.84,5.27
		c-3.98,1.1-7.75,2.6-11.48,4.25c-1.23,0.54-2.38,1.36-3.39,2.25c-3.32,2.93-6.57,5.93-9.81,8.95c-0.99,0.93-1.84,2.02-2.79,2.99
		c-1.18,1.21-2.42,2.36-3.62,3.56c-1.06,1.07-2,2.3-3.17,3.23c-4.38,3.49-8.83,6.9-13.26,10.33c-1.08,0.84-2.21,1.61-3.26,2.49
		c-1.05,0.89-1.75,1.91-2.03,3.4c-0.9,4.77-3.04,8.97-6.23,12.67c-2.13,2.46-4.52,3.48-7.7,2.45c-1.13-0.37-2.31-0.53-3.71-0.84
		c-3.94,3.95-7.8,8.01-11.86,11.85c-2.95,2.79-6.27,5.19-9.25,7.95c-3.25,3-6.44,6.09-9.4,9.36c-2.27,2.51-3.65,5.66-5.15,8.7
		c-0.9,1.84-1.82,3.67-2.85,5.44c-0.51,0.87-1.23,1.63-1.97,2.33c-1.16,1.12-2.59,1.7-4.21,1.44c-1.91-0.31-2.97-1.53-3.36-3.6
		c2.89-3.91,4.51-8.57,6.44-13.11c1.68-3.96,4.28-7.39,7.28-10.42c2.87-2.91,6.12-5.43,9.13-8.21c1.37-1.26,2.49-2.79,3.84-4.08
		c4.3-4.11,8.6-8.23,13.01-12.22c1.95-1.77,3.56-3.64,4.09-6.29c0.54-2.7,2.2-4.1,4.99-4.24c3.35-0.17,4.67-3.11,6.68-5.09
		c0.3-0.29,0.29-0.97,0.29-1.47c0.03-4.61,0.11-9.23,0.01-13.84c-0.05-2.37,0.08-4.78-0.88-7.07c-0.25-0.6-0.29-1.36-0.23-2.02
		c0.53-6.08-2.12-11.27-4.69-16.44c-0.81-1.63-2.22-3.06-3.59-4.31c-2.01-1.83-4.28-2.47-7.07-1.34c-3.41,1.38-6.12,3.6-8.94,6.26
		c0.56,1.4,0.99,2.87,1.71,4.18c1.7,3.08,2.53,6.32,2.26,9.83c-0.05,0.68-0.17,1.42,0.03,2.04c1.42,4.43,1.44,9.11,2.4,13.58
		c0.95,4.4,0.42,8.84,1.3,13.22c0.52,2.56-2.34,6.33-4.89,7.17c-0.73,0.24-1.79,0.22-2.44-0.14c-1.31-0.73-2.75-1.56-3.61-2.74
		c-3.56-4.81-6.65-9.94-8.76-15.55c-1.06-2.83-1.61-5.9-2.06-8.9c-0.83-5.58-1.12-11.2-0.63-16.85c0.08-0.97-0.1-1.95-0.18-3.12
		c-5.17-1.01-9.94-0.91-14.61,1.25c-2.32,1.07-4.7,2.05-7.12,2.86c-5.72,1.9-9.85,6.04-14.17,9.88c-4.38,3.89-6.79,9.33-10.42,13.82
		c-0.57,0.71-0.68,1.91-0.73,2.9c-0.34,7.12,1.07,13.89,4.42,20.2c0.31,0.59,0.78,1.13,1.26,1.61c1.05,1.06,2.26,1.44,3.72,0.78
		c2.64-1.19,5.35-2.24,7.94-3.53c4.27-2.13,8.84-2.48,13.47-2.44c2.6,0.03,5.07,0.55,6.98,2.63c1.22,1.34,2.09,2.89,1.88,4.61
		c-0.31,2.52-0.94,5.02-1.67,7.46c-0.27,0.9-1.06,1.93-1.89,2.33c-4.44,2.15-8.82,4.57-14.01,4.38c-2.56-0.1-5.13-0.18-7.68-0.06
		c-2.29,0.11-4.49-0.09-6.4-1.36c-2.19-1.47-4.35-0.95-6.32,0.07c-2.12,1.1-4.17,2.27-6.48,2.98c-0.92,0.28-1.65,1.17-2.49,1.75
		c-0.97,0.68-1.92,1.4-2.96,1.97c-2.71,1.49-5.29,3.12-7.32,5.52c-0.97,1.15-2.76,1.68-2.92,3.41c-0.27,2.87-0.92,5.79,0.26,8.59
		c0.38,0.92,0.97,1.9,1.74,2.47c4.1,3.04,8.31,5.91,13.66,6.31c0.68,0.05,1.43,0.11,1.99,0.43c4.45,2.57,9.35,1.33,14.05,1.62
		c1.67,0.1,3.34-0.1,5.06,0.18c1.64,0.26,3.4,0.04,5.07-0.22c2.92-0.47,4.95,0.84,6.65,2.95c1.16,1.44,1.28,3.78,0.23,5.28
		c-1.06,1.5-2.77,2.54-4.41,1.94c-4.06-1.47-8.13-0.47-12.18-0.54c-7.2-0.12-14.28-0.7-21.22-2.77c-5.84-1.74-10.97-4.62-15.46-8.72
		c-3.89-3.55-6.07-7.73-5.42-13.13c0.18-1.52,0.28-3.05,0.47-4.57c0.57-4.64,2.72-8.21,6.57-11.06c5.22-3.87,10.61-7.42,16.2-10.7
		c1.31-0.77,2.58-1.6,4.15-2.58c-0.84-2.65-1.9-5.09-3.03-7.53c-0.99-2.15-1.95-4.39-2.46-6.69c-1.25-5.69-1.51-11.46-0.75-17.26
		c0.32-2.42,1.1-4.57,2.68-6.53c2.14-2.65,3.65-5.89,6.08-8.21c3.54-3.38,6.14-7.67,10.55-10.28c3.48-2.06,6.25-5.28,10.39-6.36
		c0.78-0.2,1.42-0.92,2.14-1.38c0.71-0.46,1.38-1.15,2.16-1.33c5.14-1.15,10.06-3.44,15.52-2.98c1.7,0.14,3.45,0.2,5.12-0.08
		c2.61-0.43,5.09-0.27,7.42,0.75c2.19-0.6,3.8-1.84,5.27-3.29c5.01-4.95,11.24-6.84,18.07-7.12c0.8-0.03,1.68,0.26,2.4,0.64
		c2.58,1.35,5.03,2.87,6.79,5.31c0.79,1.1,1.81,2.04,2.71,3.06c0.57,0.64,1.31,1.2,1.66,1.94c1.73,3.69,3.7,7.32,4.91,11.18
		c1.42,4.54,2.09,9.29,2.05,14.13c-0.04,3.56,0.4,7.12,0.66,10.68c0.03,0.46,0.32,0.9,0.58,1.6c2.68-0.67,4.4-2.68,6.27-4.26
		c4.55-3.85,8.87-7.97,13.24-12.01c2.12-1.96,4.26-3.92,6.23-6.04c2.56-2.77,5.33-5.23,8.47-7.35c3.43-2.32,6.93-4.32,11.07-5.09
		c1.49-0.28,2.91-0.94,4.35-1.48c0.64-0.24,1.22-0.84,1.84-0.85c4.54-0.12,8.48-2.16,12.41-4.03c5.87-2.79,12.08-4.68,18.06-7.15
		c2.8-1.16,5.5-2.6,8.59-2.95c1.84-0.21,3.68-0.57,5.48-1.04c4.69-1.25,9.53-0.46,14.24-1.11c4.55-0.63,9.05-1.64,13.6-2.3
		c3.02-0.44,6.09-0.75,9.14-0.79c3.91-0.05,7.83,0.22,11.74,0.39c2.91,0.13,5.74,0.51,8.28,2.19c0.79,0.52,1.92,0.76,2.88,0.73
		c4.25-0.14,7.96,1.52,11.7,3.21c2.01,0.91,4.04,1.84,6.16,2.39c5.81,1.52,10.66,4.31,14.06,9.42c1.12,1.68,2.36,3.27,4.05,4.57
		c2.58,1.98,4.56,4.56,5.57,7.78c0.45,1.46,1,2.93,1.78,4.23c1.47,2.46,1.88,5.07,1.37,7.85c4.22,3.12,8.31,6.13,12.39,9.16
		c0.41,0.3,0.74,0.71,1.09,1.08c3.11,3.36,5.08,7.59,8.29,10.9c0.79,0.81,1.1,2.09,1.57,3.18c0.2,0.46,0.08,1.25,0.39,1.45
		c3.5,2.27,3.38,6.48,5.2,9.65c1.77,3.08,3.98,5.91,5.27,9.31c0.64,1.69,2.13,3.04,3.18,4.58c4.98,7.34,10.08,14.61,14.87,22.07
		c5.16,8.03,10.63,15.87,14.44,24.73c2.08,4.83,4.97,9.32,7.16,14.11c1.77,3.86,3.03,7.95,4.55,11.93
		c2.67,7.02,4.53,14.28,6.61,21.48c1.85,6.38,4.2,12.62,6.27,18.94c0.74,2.27,1.3,4.6,2.01,6.88c0.4,1.29,0.95,2.53,1.47,3.78
		c0.2,0.47,0.66,0.86,0.75,1.33c1.11,6.15,4.7,11.31,6.77,17.09c1.31,3.67,3.13,7.18,4.88,10.69c3.66,7.34,6.54,14.99,9.04,22.78
		c0.21,0.65,0.43,1.3,0.59,1.96c0.59,2.46-0.08,4.04-2.15,5.13c-2.07,1.09-3.89,0.84-5.59-0.84c-0.61-0.6-1.3-1.2-1.65-1.95
		c-2.57-5.44-7.03-9.62-9.95-14.78c-2.05-3.62-5.11-6.33-7.53-9.6c-1.75-2.36-4.15-3.99-7.49-4.36c-0.29,1.35-0.73,2.65-0.82,3.97
		c-0.47,6.8-0.85,13.61-1.29,20.41c-0.1,1.53-0.3,3.06-0.49,4.59c-0.14,1.18-0.4,2.36-0.5,3.54c-0.45,5.79-1.06,11.55-1.96,17.29
		c-0.45,2.85-0.36,5.79-0.38,8.7c-0.01,0.98,0.26,2.03,0.65,2.94c0.93,2.2,1.8,4.46,3.05,6.47c3.41,5.49,5.87,11.55,10.19,16.51
		c1.27,1.46,2.93,2.92,3.01,5.21c0.01,0.43,0.49,0.88,0.82,1.26c4.02,4.65,7.66,9.58,10.99,14.75c0.37,0.57,0.78,1.18,1.32,1.55
		c2.9,2,4.67,4.93,6.59,7.75c2.79,4.09,5.75,7.99,9.38,11.43c2.57,2.45,4.52,5.54,6.85,8.26c3.21,3.74,6.6,7.33,9.76,11.1
		c2.05,2.45,3.26,5.23,1.72,8.5c-1.7,1.66-3.93,2.04-6.13,2.14c-3.56,0.16-7.14-0.01-10.71,0.08c-3.92,0.1-7.94-0.16-11.73,0.64
		c-4.05,0.85-8.14,0.64-12.15,1.37c-6.44,1.19-12.93,0.98-19.41,0.8c-5.79-0.16-11.6,0.53-17.37-0.34c-1.34-0.2-2.69-0.37-4.02-0.64
		c-8.02-1.66-16.05-3.32-24.06-5.03c-2.16-0.46-4.3-0.95-6.78-0.03c-0.13,1.19-0.41,2.34-0.36,3.49c0.16,3.56,0.75,7.07,0.73,10.68
		c-0.02,2.48,1.09,4.97,1.69,7.45c1.93,7.92,3.45,15.9,4.54,24c0.77,5.72-0.07,11.23-0.44,16.8c-0.26,3.86-2.57,7-5.68,9.37
		c-0.64,0.49-1.5,0.78-2.3,0.95c-1.5,0.33-3.02,0.65-4.55,0.71c-5.14,0.23-10.23,0.12-14.8-2.75c-0.72-0.45-1.48-0.84-2.25-1.2
		c-3.23-1.48-6.41-2.9-9.03-5.53c-1.88-1.89-4.43-3.1-6.68-4.6c-0.28-0.19-0.67-0.25-0.9-0.48c-4.79-4.6-10.31-8.43-14.49-13.66
		c-2.68-3.34-5.44-6.56-8.73-9.34c-1.55-1.31-2.81-2.97-4.23-4.44c-0.93-0.97-1.92-1.88-3.09-3.01c-1.44,0.83-2.72,1.56-3.83,2.19
		c-0.05,0.66-0.16,1.01-0.09,1.31c0.73,2.92,2.12,5.32,4.84,6.91c0.94,0.55,1.75,1.64,2.19,2.67c1.38,3.24,0.86,4.6-2.15,6.32
		c-3.24,1.85-6.46,3.74-9.77,5.48c-3.31,1.74-6.74,3.26-10.07,4.97c-4.66,2.38-9.75,3-14.81,3.73c-1.86,0.27-3.73,0.48-5.55,0.9
		c-5.83,1.34-11.72,2.25-17.71,2.52c-1.36,0.06-2.7,0.38-4.06,0.54c-0.84,0.1-1.79,0.43-2.52,0.18c-3.41-1.16-6.75-0.51-10.12,0.09
		c-1,0.18-2.06,0.2-3.06,0.08c-3.89-0.46-7.76-1.02-11.64-1.53c-0.85-0.11-1.71-0.28-2.55-0.22c-4.34,0.33-8.43-0.37-12.22-2.64
		c-2.78-1.66-6.34-1.46-8.91-3.7c-2.31-2.01-4.86-3.78-6.98-5.98c-2.01-2.08-3.95-2.33-6.4-1.08c-3.63,1.86-7.29,3.61-11.12,5.09
		c-8.81,3.4-17.84,5.53-27.26,6.47c-11.62,1.17-23.21,0.69-34.78,0.08c-5.06-0.26-10.18-0.5-15.2-1.81
		c-3.78-0.98-7.75-1.31-11.65-1.72c-2.44-0.25-4.67-0.97-6.82-2.05c-3.45-1.73-5.18-5.6-3.53-9.01c1.69-3.49,3.55-6.89,6.67-9.54
		c4.02-3.41,7.71-7.22,11.49-10.91C374.65,728.97,374.7,728.23,375.12,727.12z M347.17,594.14c3.23-3.65,8.09-4.99,9.98-9.59
		c3.37-3.24,5.34-7.48,7.5-11.46c3.98-7.33,7.23-15.07,10.89-22.58c1.83-3.74,4.93-6.46,8.04-9.12c0.37-0.32,0.91-0.47,1.39-0.64
		c2.78-0.96,6.17,0.92,6.72,3.82c0.19,0.98,0.04,2.03,0.01,3.05c-0.1,3.76-0.25,7.51-0.31,11.27c-0.06,3.59,0.45,7.27-0.2,10.74
		c-0.69,3.72,0.98,7.45-0.54,11.05c0.81,3.75-0.17,7.46-0.19,11.2c-0.06,8.88-0.24,17.75-0.35,26.63c-0.01,0.85-0.06,1.77,0.24,2.53
		c1.47,3.77,0.98,7.77,1.5,11.64c0.14,1.01,0.06,2.05,0.24,3.04c1.44,7.69,4.59,18.76,7.89,27.38c1.64,4.27,3.31,8.54,5.34,12.63
		c2.34,4.73,4.41,9.55,6.3,14.47c1.21,3.15,2.86,6.15,4.41,9.16c0.67,1.3,1.59,2.48,2.77,4.29c0.54-1.55,0.99-2.42,1.13-3.32
		c0.27-1.86,0.26-3.76,0.56-5.61c0.99-6.11,1.07-12.2-0.15-18.29c-0.34-1.67-0.59-3.36-0.97-5.03c-2.09-9.13-4.14-18.26-6.34-27.36
		c-0.76-3.13-2.01-6.14-2.83-9.26c-1.6-6.09-3.12-12.2-4.56-18.33c-1.01-4.3-1.67-8.69-2.81-12.95c-0.8-3-0.55-6.13-1.39-9.04
		c-1.3-4.51-1-9.13-1.47-13.68c-0.22-2.19-0.51-4.53,0.02-6.6c0.86-3.36,0.83-6.76,1.25-10.13c0.33-2.67,0.75-5.31-0.33-8.04
		c-0.8-2.01-1-4.3-1.24-6.48c-0.14-1.31-0.04-2.72,0.31-3.98c0.45-1.63,1.75-2.47,3.48-2.51c1.59-0.03,3.21,0.18,4.17,1.54
		c1.57,2.22,2.98,4.55,4.33,6.91c0.29,0.5,0.31,1.49,0,1.94c-1.21,1.75-0.6,3.61-0.62,5.45c-0.05,3.92,0.25,7.95-0.54,11.74
		c-0.89,4.26-0.55,8.49-0.89,12.72c-0.14,1.68-0.05,3.45,0.3,5.1c0.86,4.15,1.66,8.3,2.09,12.53c0.24,2.33,1.44,4.54,1.95,6.86
		c0.5,2.31,0.14,4.71,1.03,7.04c1.03,2.69,1.67,5.54,2.41,8.34c0.91,3.46,1.71,6.95,2.63,10.41c0.92,3.46,2,6.87,2.88,10.34
		c0.41,1.63,0.38,3.37,0.76,5c0.5,2.15,1.23,4.24,1.81,6.37c1.08,3.93,2.15,7.86,3.17,11.81c0.38,1.48,0.9,3,0.86,4.49
		c-0.07,3.32,1.43,6.37,1.56,9.56c0.13,3.19-0.76,6.41-0.92,9.63c-0.38,7.68-0.7,15.33-2.29,22.91c-0.44,2.11-1.07,3.87-2.45,5.46
		c-2.03,2.35-4.16,2.69-6.64,0.7c-1.72-1.38-3.23-3.01-4.81-4.57c-0.95-0.94-1.84-1.94-2.91-3.07c-1.69,1.16-3.14,2.33-4.74,3.23
		c-6.71,3.8-12.7,8.61-18.53,13.55c-5.04,4.27-9.54,9.2-14.16,13.95c-1.9,1.95-3.48,4.2-5.8,5.74c-0.56,0.37-0.72,1.34-1.18,2.26
		c1,0.32,1.6,0.62,2.24,0.7c3.04,0.35,5.95,1.64,9.09,1.23c4.61,1.59,9.4,1.62,14.2,1.62c0.84,0,1.79-0.03,2.51,0.33
		c1.8,0.89,3.68,0.58,5.54,0.67c6.64,0.31,13.29-1.16,19.93,0.08c0.66,0.12,1.37,0.04,2.04-0.07c6.23-0.95,12.51-1.69,18.68-2.96
		c7.19-1.49,13.89-4.51,20.61-7.41c0.46-0.2,0.9-0.51,1.29-0.84c0.38-0.33,0.85-0.7,0.99-1.14c1.07-3.38,1.67-6.92,3.45-10.06
		c0.15-0.26-0.01-0.68,0.05-1.01c0.28-1.66,0.57-3.33,0.88-4.99c0.44-2.33,1.03-4.64,1.34-6.99c0.56-4.21,1.1-8.43,1.37-12.67
		c0.11-1.64-0.07-3.6-0.9-4.94c-2.06-3.32-2.58-6.98-3.13-10.64c-4.89-1.1-10.69-1.35-15.78-0.74c-1.17,0.14-2.45,0.46-3.51,0.14
		c-3.16-0.96-6.26-1.35-9.58-0.88c-2.31,0.33-3.73-1.58-4.83-3.28c-1.15-1.77-0.67-3.72,0.64-5.24c2.46-2.87,5.4-4.72,9.45-3.57
		c1.31,0.37,2.66,0.61,4,0.88c3,0.6,5.99,1.4,9.02,1.73c9.15,0.99,18.32,1.8,27.49,2.65c2.54,0.24,5.04,0.49,7.29,1.94
		c0.97,0.62,2.23,0.87,3.4,1.1c1.39,0.28,2.52,0.88,3.6,1.8c1.94,1.66,4.14,3.03,5.95,4.81c3.2,3.13,7.11,4.58,11.35,5.33
		c2.17,0.38,4.39,0.5,6.59,0.7c3.9,0.37,7.8,0.84,11.72,1.05c7.49,0.4,14.99,1.23,22.45-0.33c4.18,0.82,8.07-0.94,12.07-1.54
		c5.74-0.87,10.19-4.59,14.86-7.7c0.93-0.62,1.51-1.81,2.18-2.79c1.54-2.24,2.89-4.63,4.61-6.72c1.56-1.89,2.84-3.78,3.15-6.28
		c0.12-0.99,0.66-1.93,1.06-2.87c2.15-5.08,5.6-8.43,11.44-8.75c2.04-0.11,4.26-0.12,6.04-0.93c3.79-1.73,7.85-2.37,11.8-3.35
		c2.67-0.66,4.87-1.95,6.39-3.95c2.11-2.76,5-4.56,7.4-6.94c0.6-0.6,1.4-1.04,1.88-1.72c2.81-3.99,6.71-6.77,10.51-9.67
		c5.58-4.26,10.78-8.86,14.47-14.96c1.42-2.36,2.56-4.76,2.96-7.51c0.71-4.89,1.99-9.7,1.94-14.7c-0.02-2.2,0.29-4.42,0.53-6.61
		c0.65-5.93,1.37-11.86,1.99-17.8c0.49-4.75,0.82-9.51,1.33-14.26c0.21-2.03,0.99-4.02,0.99-6.03c0.01-6.85,1.41-13.56,1.89-20.36
		c0.27-3.81,2.13-6.34,5.69-7.42c2.53,0.99,3.74,2.5,3.52,5.18c-0.11,1.28,0.34,2.67,0.76,3.93c0.79,2.44,0.89,4.7-1.11,6.63
		c-1.06,1.02-1.37,2.29-1.49,3.7c-0.28,3.4-0.64,6.79-0.94,10.18c-0.29,3.36-0.46,6.74-0.83,10.1c-0.4,3.55-1.12,7.04-1.11,10.66
		c0.01,2.88-0.45,5.77-0.77,8.65c-0.57,5.09-1.66,10.18-1.65,15.27c0,5.54-1.41,10.78-2.18,16.15c-0.46,3.22-1.62,6.23-3.78,8.81
		c-0.98,1.16-1.56,2.65-2.45,3.9c-1.39,1.94-2.69,4-4.38,5.65c-2.55,2.48-5.33,4.75-8.15,6.94c-6.46,4.99-12.31,10.65-17.96,16.5
		c-3.27,3.39-7,5.93-11.22,7.83c-1.38,0.62-2.84,1.09-4.29,1.52c-1.78,0.53-3.61,0.89-5.4,1.4c-3.26,0.94-6.38,2.29-9.92,2.22
		c-3.57-0.07-5.08,1.55-5.68,5.21c-0.16,0.99-0.27,2.04-0.71,2.91c-1.09,2.12-2.39,4.13-3.56,6.2c-1.5,2.66-2.88,5.34-5.22,7.48
		c-1.78,1.62-2.76,3.92-3.25,6.3c-0.79,3.84-1.54,7.7-2.17,11.57c-0.34,2.12-0.42,4.3,0.28,6.31c0.63,0,1,0.1,1.29-0.02
		c3.37-1.42,5.83-0.33,8.02,2.46c2.51,3.2,5.21,6.26,8.24,9.01c1.5,1.37,2.71,3.06,4.11,4.54c3.4,3.57,6.13,7.81,10.49,10.42
		c0.57,0.34,1.03,0.89,1.49,1.4c7.35,8.13,16.5,13.6,26.29,18.27c2.54,1.21,4.82,1.31,7.35,0.92c3.08-0.47,4.24-1.52,4.28-4.66
		c0.07-4.95-0.16-9.9-0.3-14.84c-0.15-5.43-2.41-10.56-2.36-16.03c0-0.49-0.28-0.98-0.44-1.47c-1.92-5.52-2.72-11.27-3.66-17
		c-0.14-0.83-0.28-1.74-0.11-2.54c0.66-3.05,0.7-6.08,0.15-9.15c-0.67-3.78,3.24-8.72,7.65-8.49c1.7,0.09,3.41,0.19,5.12,0.15
		c0.96-0.02,1.9-0.33,2.92-0.52c0.15-1.45,0.21-2.63,0.41-3.79c0.6-3.52,0.8-7.2,1.97-10.53c2.71-7.73,4.33-15.74,6.65-23.56
		c0.38-1.29,0.35-2.7,0.45-4.06c0.2-2.72,0.23-5.46,0.57-8.16c0.88-6.93,1.87-13.84,2.85-20.75c0.69-4.87,1.11-9.81,3.08-14.42
		c0.26-0.62,0.32-1.32,0.46-1.99c1.13-5.49,2.18-11.01,3.42-16.48c0.67-2.98,1.56-5.9,1.2-9.02c-0.1-0.82,0.1-1.72,0.33-2.53
		c0.8-2.82,1.35-5.63,0.45-8.55c-0.14-0.47-0.19-1.11,0.02-1.51c1.59-3.01,0.88-6.38,1.49-9.55c0.87-4.48,1.09-9.14,1.15-13.72
		c0.05-3.88-0.52-7.78-0.82-11.67c-0.01-0.17-0.05-0.34-0.07-0.51c-0.57-4.57-1.24-9.13-1.67-13.71c-0.34-3.63-1.33-7.02-2.95-10.25
		c-0.69-1.37-1.47-2.69-2.23-4.02c-1.67-2.95-3.96-5.58-4.65-9.04c-2.89-3.18-4.19-7.36-6.78-10.73c-0.71-0.93-1.51-1.79-2.15-2.54
		c-5.71-0.37-11.15-0.67-16.61-0.33c-4.25,0.26-8.53,0.25-12.77,0.68c-2.89,0.3-5.74,0.07-8.6,0.13
		c-5.79,0.11-11.56,0.71-17.34,1.07c-0.84,0.05-1.7-0.05-2.54-0.16c-3.24-0.42-6.44-0.4-9.67,0.26c-5.66,1.16-11.35,2.17-17.02,3.26
		c-0.5,0.1-1.04,0.17-1.48,0.4c-2.99,1.52-6.26,1.87-9.49,1.8c-3.51-0.08-6.71,0.76-9.95,1.91c-2.56,0.91-5.21,1.57-7.84,2.26
		c-3.91,1.01-6.3-0.63-6.82-4.6c-0.21-1.6-0.05-3.06,1.38-4.13c0.81-0.61,1.53-1.33,2.07-1.8c0.14-1.67,0.47-3.06,0.32-4.38
		c-0.16-1.33-0.86-2.58-1.21-3.89c-0.22-0.82-0.23-1.69-0.31-2.54c-0.23-2.37-0.57-4.74-0.65-7.12c-0.15-4.75,2.27-8.37,6.98-10.23
		c2.05-0.81,4.23-1.28,6.29-2.07c4.97-1.89,10.3-2.02,15.39-3.31c0.48-0.12,1.05-0.09,1.53,0.04c5.42,1.51,10.85,0.45,16.27,0.13
		c2.21-0.13,4.41-0.46,6.62-0.66c4.06-0.37,8.17-1.23,12.19-0.91c4.4,0.35,8.9-0.31,13.21,1.08c8.35,0.19,15.83,3.8,23.65,6.07
		c0.49,0.14,0.97,0.37,1.4,0.63c5.83,3.57,11.57,7.25,16.06,12.55c0.73,0.86,1.87,1.43,2.92,1.93c0.91,0.44,1.97,0.54,2.94,0.88
		c1.36,0.47,1.81,1.27,1.51,2.8c-0.15,0.81-0.5,1.58-0.84,2.62c3.02,4.3,6.05,8.61,9.07,12.94c0.29,0.41,0.51,0.89,0.7,1.36
		c1.69,4.11,3.73,8.01,6.39,11.61c1.19,1.61,2.05,3.58,2.65,5.51c2.28,7.36,3.23,14.96,3.63,22.64c0.15,2.89,0.22,5.78,0.36,8.67
		c0.15,3.05,0.61,6.12,0.48,9.16c-0.2,4.59-0.77,9.17-1.23,13.75c-0.58,5.77-1.23,11.53-1.82,17.29c-0.28,2.7-0.34,5.43-0.8,8.1
		c-0.75,4.34-0.86,8.84-3.02,12.85c-0.15,3.8-1.51,7.32-2.42,10.96c-0.49,1.97-0.42,4.09-1.04,6c-1.99,6.08-2.15,12.41-2.94,18.66
		c-0.03,0.23,0.25,0.51,0.58,1.14c0.87-1.89,1.87-3.49,2.34-5.23c0.81-3,2.25-5.66,3.64-8.39c2.82-5.52,4.27-11.54,4.8-17.65
		c0.45-5.24,0.09-10.56-0.06-15.84c-0.07-2.42-0.49-4.79,1.76-6.6c0.45-0.36,0.59-1.21,0.7-1.87c0.58-3.67,1.87-7.22,1.36-11.09
		c-0.28-2.15,0-4.48,0.49-6.62c1.09-4.86,0.77-9.82,1.28-14.71c0.28-2.71,0.6-5.42,1.11-8.09c0.26-1.32,0.92-2.71,2.34-3.19
		c2.62-0.89,5.23-1.48,7.68,0.7c2.39,2.12,4.91,4.12,7.8,5.88c0.11-3.95-0.04-5.47-1.95-8.98c-3.36-6.19-5.11-12.96-7.32-19.57
		c-0.59-1.76-1.48-3.46-1.83-5.27c-1.29-6.69-4.47-12.84-5.51-19.6c-0.05-0.33-0.29-0.62-0.4-0.94c-1.22-3.91-2.04-8-3.75-11.67
		c-1.74-3.71-3.28-7.45-4.68-11.29c-1.16-3.18-2.93-6.13-4.17-9.28c-1.19-3.02-2.11-6.11-4.4-8.57c-0.44-0.47-0.55-1.23-0.83-1.85
		c-1.9-4.17-3.9-8.22-6.58-12.02c-3.53-5-6.22-10.56-9.62-15.7c-2.44-3.69-4.76-7.42-7.77-10.68c-0.46-0.5-0.89-1.04-1.23-1.63
		c-1.81-3.08-3.59-6.18-5.38-9.28c-0.34-0.59-0.67-1.21-1.79-0.75c-0.33,1.12-0.62,2.43-1.09,3.67c-0.53,1.37-2.59,1.72-3.34,0.49
		c-0.88-1.43-1.63-2.99-2.14-4.59c-1.11-3.46-0.74-7.1-1.03-10.66c-0.6-7.27-1.3-10.9-4.63-14.74c-2.99-3.45-5.59-7.31-9.65-9.74
		c-1.01-0.6-1.8-1.58-2.8-2.2c-1.39-0.86-2.26-2.01-2.7-3.58c-0.16-0.58-0.63-1.08-1.22-2.04c-0.71,1.01-1.28,1.59-1.56,2.27
		c-1.67,4.08-2.47,8.46-4.94,12.27c-2.32,3.56-3.82,7.7-6.43,11c-2.64,3.34-4.22,7.33-7.2,10.44c-2.94,3.07-5.16,6.86-8.24,9.75
		c-5.47,5.13-10.91,10.34-17.3,14.39c-1.88,1.19-3.66,2.52-5.54,3.7c-2.3,1.44-4.59,2.92-7,4.16c-2.4,1.23-5.22,1.68-6.95,4.09
		c-0.26,0.36-0.87,0.5-1.34,0.69c-3.3,1.36-6.66,2.58-9.9,4.07c-5.39,2.47-10.56,5.45-16.43,6.79c-0.47,0.11-0.92,0.45-1.31,0.77
		c-2.43,1.97-5.5,2.52-8.28,3.72c-2.64,1.15-5.31,2.23-7.9,3.48c-1.35,0.65-2.51,1.72-3.85,2.39c-2.28,1.15-4.64,2.13-6.97,3.19
		c-0.93,0.42-1.88,0.81-2.75,1.34c-0.87,0.53-2.22,0.43-2.68,1.83c4.61,0.36,9.03,0.65,13.43,1.09c3.17,0.31,5.35,2.03,6.36,5.12
		c1.12,3.44,1.97,6.94,1.64,10.57c-0.29,3.23-0.71,6.48-1.45,9.63c-0.45,1.94-1.48,3.8-2.5,5.55c-0.91,1.57-2.42,2.25-4.36,2.05
		c-3.89-0.39-7.86,0.09-11.62-1.51c-1.06-0.45-2.35-0.44-3.54-0.53c-4.58-0.34-9.16-0.87-13.75-0.89
		c-5.07-0.02-10.22-1.29-15.22,0.75c-0.74,0.3-1.69,0.11-2.54,0.17c-1.01,0.08-2.05,0.07-3.03,0.3c-4.65,1.08-9.34,1.67-14.12,1.65
		c-1.02,0-2.07-0.05-3.07,0.13c-7.21,1.27-14.4,2.62-21.6,3.9c-4.77,0.85-8.98,2.78-12.89,5.7c-2.99,2.23-6.35,4-9.63,5.83
		c-2.26,1.25-4.75,1.86-7.37,1.74c-3-0.13-5.22-2.03-5.62-4.92c-0.14-1.01-0.25-2.09-0.04-3.06c1.15-5.18,2.29-10.38,7.21-13.57
		c0.42-0.27,0.75-0.7,1.09-1.07c2.61-2.88,5.97-4.53,9.58-5.68c2.11-0.67,4.28-1.17,6.45-1.63c6.06-1.3,11.74-3.65,17.06-6.68
		c5.54-3.16,11.22-5.67,17.54-6.67c0.66-0.1,1.29-0.4,1.92-0.65c2.99-1.18,5.95-2.44,8.98-3.55c1.75-0.64,3.56-1.14,5.38-1.52
		c6.52-1.36,13.15-1.68,19.77-2.11c0.63-0.04,1.26-0.18,2.02-0.3c-3.96-4.61-3.96-4.61-3.75-12.65c-0.49,0.08-0.99,0.08-1.42,0.26
		c-4.42,1.81-8.83,3.66-13.25,5.48c-1.57,0.64-3.27,1.03-4.72,1.87c-3.86,2.25-7.8,4.12-12.33,4.53c-0.98,0.09-1.9,0.73-2.86,1.09
		c-2.23,0.84-4.41,1.82-6.7,2.45c-6.57,1.8-13.41,2.35-19.94,4.34c-0.32,0.1-0.68,0.12-1.02,0.12c-3.28-0.04-6.38,0.84-9.55,1.55
		c-2.6,0.58-5.23,1.37-8.06,0.6c-1.4-0.38-3.05,0-4.56,0.22c-6.57,0.97-13.16,1.43-19.8,1.2c-4.86-0.17-9.7,0.09-14.4,0.89
		c-0.67,5.1-0.29,10.08-2.05,14.84c-0.76,2.05-0.84,4.34-1.24,6.52c-0.18,1.01-0.1,2.21-0.64,2.97c-1.6,2.23-1.57,4.77-1.92,7.29
		c-0.33,2.35-0.74,4.74-1.49,6.99c-1.25,3.77-1.69,7.66-2.17,11.55c-0.15,1.18-0.17,2.38-0.31,3.56
		c-0.99,8.11-3.57,15.96-3.92,24.17c-0.01,0.34-0.11,0.67-0.16,1.01c-1.09,7.42-2.26,14.82-3.26,22.25
		c-0.57,4.23-0.33,8.64-1.41,12.71c-1.38,5.2-0.41,10.45-1.34,15.6C346.43,593.2,346.63,593.35,347.17,594.14z M582.07,744.95
		c0.51-2.55-0.72-3.85-1.67-5.24c-2.64-3.84-3.42-8.12-3.03-12.69c0.5-5.92,0.86-11.85,1.93-17.71c0.23-1.26-0.08-2.61-0.15-4.01
		c-2.86,0.96-5.37,2.11-8,2.6c-3.68,0.68-7.45,0.87-11.18,1.23c-2.04,0.2-4.12,0.16-6.12,0.52c-6.42,1.15-12.83,1.74-19.29,0.31
		c-0.5-0.11-1.01-0.2-1.52-0.24c-5.95-0.45-11.96-0.56-17.85-1.43c-5.52-0.82-11.07-2.08-14.98-6.76c-0.53-0.63-1.24-1.3-2-1.53
		c-3.36-0.99-5.34-4.81-9.36-4.49c-0.51,0.04-1.03-0.87-1.63-1.15c-3.12-1.43-6.35-1.92-10.35-1.14c1.07,1.26,1.75,2.19,2.56,2.99
		c1.04,1.02,1.61,2.18,1.6,3.63c-0.01,3.24,0.15,6.49-0.1,9.71c-0.41,5.27-1.09,10.53-1.68,15.78c-0.08,0.67-0.25,1.34-0.43,2
		c-0.64,2.29-1.36,4.56-1.91,6.87c-0.22,0.91-0.04,1.92-0.04,3.18c1.66-0.46,2.93-0.91,4.23-1.17c2.2-0.44,4.2,0.7,4.95,2.67
		c0.73,1.94-0.24,3.91-2.46,4.92c-1.35,0.62-3.09,0.52-4.02,2.39c2.1,2.2,3.53,5.27,7.24,5.69c0.61,0.07,1.11,0.8,1.74,1.02
		c2.72,0.96,5.42,2.14,8.23,2.7c5.02,1,10.12,1.52,15.26,1.3c0.85-0.04,1.7-0.02,2.55,0.03c5.44,0.3,10.88,0.65,16.33,0.89
		c1.18,0.05,2.37-0.23,3.55-0.4c3.52-0.52,7.02-1.35,10.55-1.53c4.14-0.21,8.11-1.08,12.07-2.13c1.32-0.35,2.67-0.54,3.99-0.87
		c2.81-0.7,5.71-1.17,8.38-2.23C573.76,748.99,577.86,746.9,582.07,744.95z M706.06,620.78c-10.18,24.44-19.43,48.14-27.12,72.72
		c1.17,0.48,2.2,1.04,3.31,1.33c2.64,0.69,5.34,1.13,7.95,1.89c2.64,0.77,5.28,1.34,8.03,1.39c3.74,0.07,7.49,0.19,11.23,0.2
		c5.8,0.01,11.6,0.07,17.4-0.13c3.37-0.12,6.73-0.76,10.1-1.08c4.56-0.44,9.13-0.81,13.7-1.2c2.54-0.22,5.08-0.42,7.63-0.61
		c0.86-0.06,1.72-0.08,1.94-1.21c-1.38-1.69-2.77-3.39-4.16-5.09c-2.57-3.14-5.14-6.28-7.72-9.41c-1.29-1.56-2.7-3.03-3.94-4.63
		c-3.22-4.18-6.04-8.73-9.66-12.53c-3.69-3.87-6.52-8.29-9.62-12.55c-1.1-1.52-2.24-3.01-3.34-4.53
		c-4.6-6.32-8.86-12.85-12.77-19.61C708.23,624.42,707.45,623.12,706.06,620.78z M563.84,478.15c1.52,0.06,2.86,0.26,4.16,0.11
		c1.84-0.21,3.63-0.85,5.47-1.03c5.43-0.53,10.87-0.91,15.9-3.34c0.43-0.21,1.03-0.24,1.5-0.13c2.46,0.58,4.68-0.41,7.01-0.86
		c3.32-0.65,6.68-1.33,10.04-1.45c6.97-0.25,13.96-0.08,20.91-0.93c1.84-0.23,3.75,0.06,5.62,0.16c1.02,0.06,2.04,0.38,3.04,0.31
		c6.79-0.42,13.59-0.86,20.37-1.41c0.87-0.07,1.68-0.81,2.61-1.29c-1.12-2.7-3.17-3.98-5.34-4.94c-3.1-1.38-6.32-2.5-9.5-3.71
		c-4.64-1.77-9.4-3.06-14.39-3.35c-1.36-0.08-2.72-0.26-4.06-0.51c-5.06-0.94-10.15-1.18-15.26-0.53c-4.72,0.6-9.48,1.02-14.16,1.85
		c-3.08,0.55-6.06,0.46-9.11,0.1c-3.91-0.45-7.8-0.37-11.74-0.03c-5.2,0.45-9.93,2-14.19,4.25
		C560.94,467.32,563.74,472.46,563.84,478.15z M430.91,478.73c2.08,0.57,3.88-0.6,5.84-0.9c8.08-1.24,16.23-1.7,24.36-2.45
		c1.33-0.12,2.65-0.42,3.99-0.56c5.41-0.54,10.82-1.21,16.25-1.52c3.04-0.18,6.12,0.21,9.18,0.41c1.51,0.1,3.02,0.27,4.5,0.53
		c5.35,0.96,10.68,2,16.03,2.97c1.39,0.25,2.37-0.46,2.5-1.84c0.24-2.54,0.3-5.11,0.6-7.64c0.52-4.38-0.3-5.58-4.54-6.13
		c-0.84-0.11-1.7-0.07-2.55-0.05c-1.87,0.04-3.73,0.16-5.59,0.14c-4.23-0.04-8.46-0.23-12.69-0.17c-2.54,0.04-5.19,0.03-7.57,0.77
		c-2.53,0.78-4.99,0.78-7.53,0.91c-2.18,0.11-4.5,0.23-6.48,1.02c-6.49,2.59-13.2,4.39-19.92,6.23c-1.95,0.54-4.11,1.06-5.63,2.28
		C438.39,475.33,434.67,476.85,430.91,478.73z M411.39,485.09c-1.85-0.3-2.9,0.16-3.25,1.76c-0.03,0.12,0.1,0.36,0.21,0.4
		c1.39,0.54,2.08-0.5,2.83-1.34C411.27,485.82,411.26,485.61,411.39,485.09z M360.57,390.94c0.12-0.06,0.24-0.13,0.36-0.19
		c-0.1-0.08-0.25-0.26-0.3-0.23c-0.17,0.08-0.31,0.23-0.45,0.35C360.31,390.89,360.44,390.92,360.57,390.94z M405.45,489.46
		c-0.06-0.11-0.1-0.27-0.18-0.3c-0.11-0.04-0.26,0.03-0.39,0.05c0.08,0.15,0.16,0.3,0.24,0.45
		C405.23,489.59,405.34,489.53,405.45,489.46z M499.5,451.58l0.36-0.18l-0.39-0.14L499.5,451.58z"/>
	<path class="st0" d="M360.57,390.94c-0.13-0.02-0.27-0.05-0.4-0.07c0.15-0.12,0.28-0.28,0.45-0.35c0.06-0.02,0.2,0.15,0.3,0.23
		C360.82,390.81,360.69,390.88,360.57,390.94z"/>
	<path class="st0" d="M405.45,489.46c-0.11,0.07-0.22,0.13-0.34,0.2c-0.08-0.15-0.16-0.3-0.24-0.45c0.13-0.02,0.28-0.09,0.39-0.05
		C405.36,489.19,405.39,489.35,405.45,489.46z"/>
	<polygon class="st0" points="499.5,451.58 499.47,451.26 499.86,451.4 	"/>
	<path d="M602.31,493.85c5.72,0.24,9.6-0.01,13.5-0.47c2.99-0.36,6.06-0.23,9.14,0.25c4.36,0.68,8.84,0.61,13.25,1.02
		c3.22,0.3,6.42,0.79,9.61,1.36c2.97,0.54,4.96,2.24,5.25,5.42c0.11,1.25,0.49,2.29,1.35,3.21c1.49,1.6,1.83,3.53,1.77,5.69
		c-0.12,5.12-0.66,10.21-1.88,15.14c-0.68,2.75-2.36,5.25-3.63,7.85c-0.45,0.91-1.32,1.7-1.52,2.65c-0.72,3.31-3.3,5.02-5.62,6.98
		c-0.26,0.22-0.48,0.58-0.78,0.65c-4.34,1-7.89,4.03-12.34,4.79c-5.72,0.98-11.4,2.22-17.14,3.02c-2.3,0.32-4.73-0.22-7.09-0.41
		c-1.01-0.08-2.03-0.5-3-0.4c-4.74,0.5-9.48,1.05-14.19,1.74c-5.12,0.75-10.23,0.4-15.3-0.12c-4.44-0.46-8.48-2.36-12.14-4.97
		c-1.38-0.99-2.8-1.93-4.27-2.78c-2.1-1.21-3.94-2.66-5.1-4.85c-0.32-0.6-0.71-1.17-1.11-1.72c-5.57-7.81-5.24-16.03-1.03-24.11
		c1.86-3.57,4.77-6.62,7.41-9.73c1.32-1.56,3.17-2.49,5.36-2.71c1.32-0.14,2.65-0.62,3.86-1.19c4.01-1.91,8.07-3.4,12.62-3.56
		c3.02-0.1,6.01-1.12,9.04-1.46C593.57,494.55,598.84,494.16,602.31,493.85z M570.68,540.6c0.44,0.37,0.65,0.65,0.94,0.78
		c3.87,1.71,8.01,1.54,12.08,1.59c2.82,0.03,5.73,0.62,8.49-0.96c1.07-0.61,2.65-0.36,4-0.45c1.36-0.09,2.82,0.21,4.06-0.21
		c3.07-1.04,6.2-0.69,9.09,0.04c2.67,0.67,5.07,0.19,7.54-0.23c3.18-0.53,6.33-1.29,9.47-2.03c3.8-0.9,7.62-1.84,10.93-4.03
		c1.4-0.93,2.98-1.92,3.81-3.29c1.5-2.44,2.6-5.15,3.67-7.83c1.67-4.18,1.43-8.66,1.92-13.28c-1.14-0.5-2.15-1.23-3.25-1.38
		c-4.35-0.59-8.73-1.05-13.1-1.45c-5.62-0.52-5.62-0.47-7.74-5.75c-2.97-0.29-5.98,0.06-9.02,0.4c-3.04,0.35-6.1,0.52-9.15,0.67
		c-4.05,0.2-8.11,0.28-12.17,0.46c-0.25,0.01-0.49,0.41-0.99,0.86c0.32,0.64,0.6,1.42,1.05,2.09c1.86,2.77,1.95,5.72,1.03,8.81
		c-0.24,0.82-0.48,1.64-0.6,2.48c-0.67,4.64-3.61,8.07-6.65,11.16c-4.04,4.12-8.44,7.95-13.88,10.29
		C571.64,539.59,571.21,540.16,570.68,540.6z"/>
	<path d="M480.99,492.86c4.76-0.06,9.5-0.1,14.17,1.3c4.37,1.3,8.98,1.84,12.92,4.4c1,0.65,2.04,1.26,2.95,2.02
		c2.64,2.21,3.12,4.02,1.47,7.17c-1.48,2.84-2.18,5.77-1.84,8.89c0.55,4.96-1.14,9.44-3.06,13.78c-0.86,1.95-2.51,3.67-4.11,5.15
		c-2.23,2.08-4.52,4.32-7.21,5.64c-5.15,2.53-10.2,5.38-16.21,5.81c-6.33,0.46-12.6,0.15-18.89-0.41c-3.22-0.29-6.55,0.05-9.66-0.64
		c-4.9-1.08-9.94-0.08-14.67-1.11c-6.11-1.34-12.19-3.29-17.69-6.47c-4.5-2.6-7.6-6.6-8.37-11.68c-0.85-5.55-0.81-11.3,1.92-16.45
		c1.42-2.67,3.81-4.7,6.45-6.37c4.89-3.1,10.38-4.47,15.97-4.92c2.59-0.21,5.05-0.74,7.46-1.37c7.1-1.87,14.27-2.98,21.6-3.6
		C469.77,493.53,475.33,492.63,480.99,492.86z M449.32,536.67c2.44,0.39,3.73,0.69,5.04,0.78c5.09,0.36,10.22,0.42,15.28,1.02
		c6.23,0.74,12.09-0.04,17.97-2.28c4.86-1.85,8.22-5.35,11.72-8.81c0.57-0.57,0.78-1.49,1.2-2.22c2.08-3.59,1.57-7.53,1.78-11.27
		c-0.34-0.22-0.47-0.32-0.61-0.4c-3.2-1.8-3.31-2.31-1.24-4.79c0.7-0.84,2.12-1.36,1.42-3.28c-2.24-0.57-4.67-1.3-7.14-1.8
		c-5.12-1.05-10.15-2.96-15.54-1.64c-0.95,0.23-2.04-0.09-3.06-0.09c-4.88,0.02-9.75,0.09-14.53,1.61
		c-0.48,2.82-1.03,5.49-1.36,8.18c-0.29,2.38-0.36,4.72,2.09,6.34c0.9,0.6,0.47,1.64-0.81,2.3c-0.44,0.23-0.96,0.32-1.38,0.47
		C457.93,526.62,455.11,531.96,449.32,536.67z"/>
	<path d="M480.63,627.33c4.69,5.92,9.44,11.07,15.5,14.69c2.01-3.01,3.92-5.77,5.7-8.61c0.72-1.14,1.27-2.42,1.7-3.71
		c1.61-4.84,5.5-7.66,9.32-10.48c1.74-1.28,3.9-1.26,5.93-0.88c4.36,0.81,8.72,1.63,13.01,2.72c1.76,0.45,3.4,1.5,5,2.45
		c1.3,0.78,2.45,1.81,3.86,2.88c0.8-0.86,1.47-1.56,2.12-2.29c0.46-0.51,0.9-1.03,1.31-1.58c4.36-5.72,10.05-7.85,17.09-6.37
		c1.5,0.32,3.05,0.43,4.52,0.84c1.79,0.49,3.56,1.08,5.27,1.81c2.18,0.93,4.29,2.03,6.42,3.08c0.91,0.45,1.82,0.9,2.67,1.44
		c2.57,1.66,5.26,3.19,7.63,5.11c1.81,1.47,3.21,3.45,5.07,5.51c0.47-0.07,1.27-0.22,2.07-0.3c3.04-0.31,5.49,4.14,4.1,6.67
		c-0.87,1.58-1.99,2.71-3.49,3.61c-4.7,2.82-9.69,4.94-15.01,6.22c-5.63,1.35-11.32,2.48-16.94,3.86
		c-4.65,1.13-9.39,1.37-14.11,1.88c-4.74,0.51-9.48,1.41-14.23,1.46c-6.45,0.07-12.9,0.47-19.39-0.48
		c-4.28-0.62-8.23-1.69-12.13-3.42c-1.67-0.74-3.57-1.05-5.41-1.27c-3.46-0.41-6.7-1.3-9.35-3.67c-3.68-3.3-7.34-6.61-10.97-9.96
		c-1.5-1.39-2.48-1.55-3.87,0c-1.35,1.51-2.44,3.25-3.64,4.9c-1,1.37-1.86,2.88-3.03,4.1c-1.38,1.44-3.24,2.01-5.16,1.24
		c-1.95-0.78-3.03-2.56-2.76-4.5c0.45-3.23,0.31-6.46,0.5-9.68c0.07-1.29,0.7-2.68,1.45-3.77c1.45-2.1,3.04-4.14,4.8-5.97
		c2.24-2.33,4.62-4.49,7.98-5.3c2.14-0.51,4.28-1.31,6.19-2.38c1.94-1.08,3.92-1.02,5.95-1.07c1.7-0.05,2.92,0.75,3.78,2.18
		c1.93,3.21,0.75,6.04-2.94,6.97c-1.65,0.42-3.32,0.77-4.98,1.19C481.87,626.55,481.6,626.78,480.63,627.33z M507.68,644.29
		c1.15,1.81,2.23,3.12,4.14,3.32c4.23,0.43,8.47,0.87,12.71,1.21c1,0.08,2.03-0.21,3.04-0.35c0.67-0.09,1.4-0.43,2-0.26
		c3.08,0.86,6.14,0.19,9.18-0.05c5.77-0.47,11.55-1,17.29-1.79c5.05-0.7,10.03-1.82,15.05-2.71c4.51-0.8,8.93-1.87,13.07-4.12
		c-0.07-2.2-0.71-3.8-2.46-4.93c-1.57-1.02-3.16-2.05-4.59-3.26c-2.01-1.7-4.16-2.92-6.84-3.24c-0.97-0.12-1.96-0.59-2.8-1.12
		c-3.48-2.19-7.28-2.64-11.27-2.47c-1.88,0.08-3.15,0.89-4.31,2.32c-2.19,2.69-3.46,5.86-4.99,8.91c-1.65,3.29-5.15,4.21-8.05,1.93
		c-1.86-1.46-3.39-3.33-5.08-5.01c-0.71-0.7-1.37-1.55-2.23-2c-4.12-2.17-8.54-3.17-13.2-3.38c-1.93-0.09-3.21,0.64-4.46,1.96
		c-2.43,2.57-3.18,6.01-4.86,8.97c-0.2,0.36-0.15,1.06,0.07,1.44C510.25,641.65,508.87,642.86,507.68,644.29z"/>
	<path d="M552.76,597.75c2.22,0,4.45,0.16,6.64-0.05c1.84-0.18,3.79-0.5,5.42-1.31c2.27-1.12,4.42-2.59,6.38-4.2
		c4.5-3.68,3.98-11.98-0.95-15.11c-5.32-3.36-10.76-6.48-16.49-9.18c-4.4-2.07-8.31-5.28-12.16-8.34c-2.38-1.89-4.18-4.49-6.31-6.69
		c-3.03-3.12-4.18-6.91-4.18-11.15c0-2.39-0.03-4.78,0-7.17c0.03-2.15,0.88-3.97,2.41-5.48c1.27-1.26,2.65-1.42,4.14-0.35
		c1.77,1.25,2.78,2.87,2.61,5.19c-0.15,2.02-0.02,4.07,0,6.1c0.05,4.01,2.12,7.12,4.64,9.93c4.26,4.77,9.68,7.88,15.39,10.63
		c3.34,1.61,6.48,3.66,9.7,5.52c0.44,0.25,0.82,0.72,1.28,0.82c3.81,0.82,5.79,4.06,8.44,6.38c1.42,1.24,2.32,2.94,2.56,4.9
		c0.35,2.85,1.18,5.55,1.13,8.55c-0.09,5.82-2.43,10.07-6.97,13.42c-3.57,2.64-7.09,5.45-11.63,6.14
		c-3.81,0.57-7.57,1.98-11.56,0.65c-1.39-0.46-3.05-0.18-4.58-0.16c-2.73,0.03-4.95-1.17-6.97-2.83c-1.94-1.6-1.91-4.13,0.13-5.68
		c1.23-0.94,2.66-1.42,4.31-1.22c2.2,0.26,4.41,0.34,6.62,0.5C552.76,597.62,552.76,597.68,552.76,597.75z"/>
</g>
</svg>
